<?xml version="1.0" encoding="utf-8"?>
<!-- Generator: Adobe Illustrator 21.0.0, SVG Export Plug-In . SVG Version: 6.00 Build 0)  -->
<svg version="1.1" id="Слой_1" xmlns="http://www.w3.org/2000/svg" xmlns:xlink="http://www.w3.org/1999/xlink" x="0px" y="0px"
	 viewBox="0 0 47 84" style="enable-background:new 0 0 47 84;" xml:space="preserve">
<style type="text/css">
	.st0{fill:#FFFFFF;stroke:#171920;stroke-width:2;stroke-miterlimit:10;}
</style>
<path class="st0" d="M42.7,31.8h-7.3v-6.9h7.3c1.9,0,3.4-1.5,3.4-3.4c0-1.9-1.5-3.4-3.4-3.4h-7.3v-3.5c0-7.4-6-13.4-13.4-13.4
	c-7.4,0-13.4,6-13.4,13.4V46c-4.7,4-7.5,9.8-7.5,16.1C1.2,73.6,10.5,83,22,83c11.5,0,20.9-9.4,20.9-20.9c0-6.2-2.8-12.1-7.5-16.1
	v-7.2h7.3c1.9,0,3.4-1.5,3.4-3.4C46.1,33.4,44.5,31.8,42.7,31.8z M22,67.9c-3.5,0-6.3-2.8-6.3-6.3c0-2.2,1.2-4.2,2.9-5.3V33
	c0-1.9,1.5-3.4,3.4-3.4c1.9,0,3.4,1.5,3.4,3.4v23.3c1.7,1.1,2.9,3.1,2.9,5.3C28.4,65.1,25.5,67.9,22,67.9z"/>
</svg>
