<?xml version="1.0" encoding="utf-8"?>
<!-- Generator: Adobe Illustrator 21.0.0, SVG Export Plug-In . SVG Version: 6.00 Build 0)  -->
<svg version="1.1" id="Слой_1" xmlns="http://www.w3.org/2000/svg" xmlns:xlink="http://www.w3.org/1999/xlink" x="0px" y="0px"
	 viewBox="0 0 82 88" style="enable-background:new 0 0 82 88;" xml:space="preserve">
<style type="text/css">
	.st0{fill:#FFFFFF;}
	.st1{fill:none;stroke:#171920;stroke-width:2;stroke-miterlimit:10;}
</style>
<g>
	<g>
		<path class="st0" d="M80.7,73.6l-9.8-21.1c-5.4,7.9-13.9,13.5-23.7,15.3l8.2,17.7c1,2.3,4.3,2.1,5.1-0.2l4.2-11.6l0.9-0.4
			l11.6,4.2C79.6,78.3,81.8,75.9,80.7,73.6z M71.7,32C71.7,15,58,1.2,41.1,1.2C24.2,1.2,10.4,15,10.4,32c0,17,13.8,30.8,30.7,30.8
			C58,62.7,71.7,48.9,71.7,32z M56,29.7L50.5,35l1.3,7.5c0.4,2.3-2,4-4,2.9L41.1,42l-6.7,3.5c-2,1.1-4.4-0.7-4-2.9l1.3-7.5l-5.4-5.3
			c-1.7-1.6-0.7-4.4,1.5-4.8l7.5-1.1l3.4-6.8c1-2.1,4-2.1,5,0l3.4,6.8l7.5,1.1C56.7,25.3,57.6,28.1,56,29.7z M11.2,52.5L1.4,73.6
			c-1.1,2.3,1.2,4.7,3.5,3.8l11.6-4.2l0.9,0.4l4.2,11.6c0.8,2.3,4.1,2.5,5.1,0.2l8.2-17.7C25.1,66.1,16.6,60.4,11.2,52.5z"/>
	</g>
	<g>
		<path class="st1" d="M80.7,73.6l-9.8-21.1c-5.4,7.9-13.9,13.5-23.7,15.3l8.2,17.7c1,2.3,4.3,2.1,5.1-0.2l4.2-11.6l0.9-0.4
			l11.6,4.2C79.6,78.3,81.8,75.9,80.7,73.6z M71.7,32C71.7,15,58,1.2,41.1,1.2C24.2,1.2,10.4,15,10.4,32c0,17,13.8,30.8,30.7,30.8
			C58,62.7,71.7,48.9,71.7,32z M56,29.7L50.5,35l1.3,7.5c0.4,2.3-2,4-4,2.9L41.1,42l-6.7,3.5c-2,1.1-4.4-0.7-4-2.9l1.3-7.5l-5.4-5.3
			c-1.7-1.6-0.7-4.4,1.5-4.8l7.5-1.1l3.4-6.8c1-2.1,4-2.1,5,0l3.4,6.8l7.5,1.1C56.7,25.3,57.6,28.1,56,29.7z M11.2,52.5L1.4,73.6
			c-1.1,2.3,1.2,4.7,3.5,3.8l11.6-4.2l0.9,0.4l4.2,11.6c0.8,2.3,4.1,2.5,5.1,0.2l8.2-17.7C25.1,66.1,16.6,60.4,11.2,52.5z"/>
	</g>
</g>
</svg>
