<?xml version="1.0" encoding="utf-8"?>
<!-- Generator: Adobe Illustrator 21.0.0, SVG Export Plug-In . SVG Version: 6.00 Build 0)  -->
<svg version="1.1" id="Слой_1" xmlns="http://www.w3.org/2000/svg" xmlns:xlink="http://www.w3.org/1999/xlink" x="0px" y="0px"
	 viewBox="0 0 82 84" style="enable-background:new 0 0 82 84;" xml:space="preserve">
<style type="text/css">
	.st0{fill:#FFFFFF;}
	.st1{fill:none;stroke:#171920;stroke-width:2;stroke-miterlimit:10;}
</style>
<g>
	<g>
		<path class="st0" d="M58.7,2.5v21.3h20.8L58.7,2.5z M23.4,62.8c2.5-2.4,4.1-5.8,4.1-9.6c0-7.3-5.8-13.3-13-13.3
			c-7.2,0-13,6-13,13.3c0,3.8,1.6,7.2,4.1,9.6l-4,16.4c-0.2,1,0.1,2.1,0.9,2.7c0.8,0.7,1.9,0.8,2.8,0.3l9.3-4.7l9.2,4.7
			c0.4,0.2,0.8,0.3,1.2,0.3c0.6,0,1.2-0.2,1.6-0.6c0.8-0.7,1.1-1.7,0.9-2.7L23.4,62.8z M14.4,61.2c-4.3,0-7.8-3.6-7.8-8s3.5-8,7.8-8
			c4.3,0,7.8,3.6,7.8,8S18.7,61.2,14.4,61.2z M53.5,23.8V2.5H22.2c-2.9,0-5.2,2.4-5.2,5.3v26.9c8.8,1.3,15.6,9,15.6,18.4
			c0,4-1.2,7.9-3.6,11l3.2,13h42.1c2.9,0,5.2-2.4,5.2-5.3V29.2H58.7C55.8,29.2,53.5,26.8,53.5,23.8z M30,23.8
			c-1.4,0-2.6-1.2-2.6-2.7s1.2-2.7,2.6-2.7h15.6c1.4,0,2.6,1.2,2.6,2.7s-1.2,2.7-2.6,2.7H30z M66.5,55.8h-26c-1.4,0-2.6-1.2-2.6-2.7
			c0-1.5,1.2-2.7,2.6-2.7h26c1.4,0,2.6,1.2,2.6,2.7C69.1,54.6,67.9,55.8,66.5,55.8z M69.1,37.2c0,1.5-1.2,2.7-2.6,2.7H35.2
			c-1.4,0-2.6-1.2-2.6-2.7c0-1.5,1.2-2.7,2.6-2.7h31.2C67.9,34.5,69.1,35.7,69.1,37.2z"/>
	</g>
	<g>
		<path class="st1" d="M58.7,2.5v21.3h20.8L58.7,2.5z M23.4,62.8c2.5-2.4,4.1-5.8,4.1-9.6c0-7.3-5.8-13.3-13-13.3
			c-7.2,0-13,6-13,13.3c0,3.8,1.6,7.2,4.1,9.6l-4,16.4c-0.2,1,0.1,2.1,0.9,2.7c0.8,0.7,1.9,0.8,2.8,0.3l9.3-4.7l9.2,4.7
			c0.4,0.2,0.8,0.3,1.2,0.3c0.6,0,1.2-0.2,1.6-0.6c0.8-0.7,1.1-1.7,0.9-2.7L23.4,62.8z M14.4,61.2c-4.3,0-7.8-3.6-7.8-8s3.5-8,7.8-8
			c4.3,0,7.8,3.6,7.8,8S18.7,61.2,14.4,61.2z M53.5,23.8V2.5H22.2c-2.9,0-5.2,2.4-5.2,5.3v26.9c8.8,1.3,15.6,9,15.6,18.4
			c0,4-1.2,7.9-3.6,11l3.2,13h42.1c2.9,0,5.2-2.4,5.2-5.3V29.2H58.7C55.8,29.2,53.5,26.8,53.5,23.8z M30,23.8
			c-1.4,0-2.6-1.2-2.6-2.7s1.2-2.7,2.6-2.7h15.6c1.4,0,2.6,1.2,2.6,2.7s-1.2,2.7-2.6,2.7H30z M66.5,55.8h-26c-1.4,0-2.6-1.2-2.6-2.7
			c0-1.5,1.2-2.7,2.6-2.7h26c1.4,0,2.6,1.2,2.6,2.7C69.1,54.6,67.9,55.8,66.5,55.8z M69.1,37.2c0,1.5-1.2,2.7-2.6,2.7H35.2
			c-1.4,0-2.6-1.2-2.6-2.7c0-1.5,1.2-2.7,2.6-2.7h31.2C67.9,34.5,69.1,35.7,69.1,37.2z"/>
	</g>
</g>
</svg>
