<svg height="480pt" viewBox="0 0 480 480" width="480pt" xmlns="http://www.w3.org/2000/svg"><path d="m408 175.957031h-336c-39.746094.046875-71.953125 32.253907-72 72v160c.0429688 39.746094 32.253906 71.957031 72 72h336c39.746094-.042969 71.957031-32.253906 72-72v-160c-.042969-39.746093-32.253906-71.957031-72-72zm-336 16h336c30.914062.035157 55.964844 25.085938 56 56h-144c-4.417969 0-8 3.582031-8 8s3.582031 8 8 8h144v48h-448v-48h224c4.417969 0 8-3.582031 8-8s-3.582031-8-8-8h-224c.035156-30.914062 25.085938-55.964843 56-56zm392 216c-.035156 30.914063-25.085938 55.964844-56 56h-336c-30.914062-.035156-55.964844-25.085937-56-56v-80h448zm0 0"/><path d="m67.351562 403.957031c-1.386718-2.570312-4.0625-4.175781-6.980468-4.199219-2.917969-.019531-5.617188 1.546876-7.039063 4.09375-1.425781 2.550782-1.351562 5.667969.195313 8.144532 7.136718 12.296875 20.253906 19.890625 34.472656 19.960937 7.050781-.023437 13.960938-1.957031 20-5.601562 6.046875 3.617187 12.953125 5.550781 20 5.601562 14.226562-.078125 27.347656-7.6875 34.480469-20 1.609375-2.480469 1.71875-5.644531.289062-8.230469-1.433593-2.585937-4.175781-4.171874-7.128906-4.125-2.957031.046876-5.644531 1.722657-6.992187 4.355469-4.222657 7.421875-12.109376 12.003907-20.648438 12-13.253906 0-24-10.746093-24-24 0-13.253906 10.746094-24 24-24 8.539062-.007812 16.425781 4.574219 20.648438 12 2.316406 3.570313 7.027343 4.699219 10.714843 2.570313 3.6875-2.132813 5.054688-6.78125 3.117188-10.570313-7.132813-12.3125-20.253907-19.921875-34.480469-20-7.046875.046875-13.953125 1.980469-20 5.597657-6.039062-3.640626-12.949219-5.574219-20-5.597657-14.226562.078125-27.34375 7.6875-34.472656 20-2.050782 3.800781-.714844 8.542969 3.019531 10.714844 3.730469 2.171875 8.515625.988281 10.804687-2.675781 4.214844-7.4375 12.101563-12.035156 20.648438-12.039063 2.449219.015625 4.878906.421875 7.199219 1.207031-9.613281 13.679688-9.613281 31.921876 0 45.601563-2.320313.773437-4.75 1.175781-7.199219 1.191406-8.539062 0-16.421875-4.578125-20.648438-12zm0 0"/><path d="m296 431.957031h112c4.417969 0 8-3.582031 8-8s-3.582031-8-8-8h-112c-4.417969 0-8-3.582031-8-8v-16c0-4.417969 3.582031-8 8-8h112c4.417969 0 8-3.582031 8-8s-3.582031-8-8-8h-112c-13.253906 0-24 10.746094-24 24v16c0 13.253907 10.746094 24 24 24zm0 0"/><path d="m64 159.75 236-136.25c26.785156-15.460938 61.03125-6.285156 76.496094 20.496094l32 55.425781-65.183594 37.597656c-3.828125 2.210938-5.140625 7.105469-2.933594 10.933594 2.210938 3.828125 7.105469 5.140625 10.933594 2.929687l65.183594-37.636718 31.929687 55.292968c2.222657 3.796876 7.089844 5.082032 10.898438 2.882813 3.808593-2.199219 5.128906-7.058594 2.957031-10.882813l-35.9375-62.183593-36-62.34375c-19.875-34.4375-63.902344-46.246094-98.34375-26.375l-236 136.246093c-3.828125 2.210938-5.140625 7.105469-2.933594 10.933594 2.210938 3.828125 7.105469 5.140625 10.933594 2.933594zm0 0"/><path d="m350.929688 67.957031c-2.210938-3.828125-7.101563-5.136719-10.929688-2.929687l-138.550781 80c-3.828125 2.210937-5.140625 7.105468-2.933594 10.933594 2.210937 3.828124 7.105469 5.140624 10.933594 2.929687l138.550781-80c1.839844-1.058594 3.183594-2.808594 3.730469-4.859375.550781-2.050781.261719-4.238281-.800781-6.074219zm0 0"/></svg>