<svg height="480pt" viewBox="-24 0 480 480.01312" width="480pt" xmlns="http://www.w3.org/2000/svg"><path d="m200.007812 280.011719c4.417969 0 8-3.582031 8-8v-48c0-4.417969-3.582031-8-8-8h-48c-4.417968 0-8 3.582031-8 8s3.582032 8 8 8h40v32h-40c-4.417968 0-8 3.582031-8 8v48c0 4.417969 3.582032 8 8 8h48c4.417969 0 8-3.582031 8-8s-3.582031-8-8-8h-40v-32zm0 0"/><path d="m280.007812 328.011719c4.417969 0 8-3.582031 8-8v-96c0-4.417969-3.582031-8-8-8-4.417968 0-8 3.582031-8 8v40h-32v-40c0-4.417969-3.582031-8-8-8-4.417968 0-8 3.582031-8 8v48c0 4.417969 3.582032 8 8 8h40v40c0 4.417969 3.582032 8 8 8zm0 0"/><path d="m336.007812 112.011719h-240c-4.417968 0-8 3.582031-8 8v240c0 4.417969 3.582032 8 8 8h240c4.417969 0 8-3.582031 8-8v-88c0-4.417969-3.582031-8-8-8-4.417968 0-8 3.582031-8 8v80h-224v-224h72v56c.015626 3.230469 1.972657 6.132812 4.957032 7.359375 2.980468 1.253906 6.421875.59375 8.722656-1.679688l10.320312-10.398437 10.320313 10.398437c1.5 1.515625 3.546875 2.367188 5.679687 2.367188 2.132813 0 4.175782-.851563 5.679688-2.367188l10.320312-10.398437 10.320313 10.398437c1.507813 1.5 3.550781 2.332032 5.679687 2.320313 1.046876.027343 2.089844-.191407 3.039063-.640625 2.988281-1.226563 4.945313-4.128906 4.960937-7.359375v-32c0-4.417969-3.582031-8-8-8-4.417968 0-8 3.582031-8 8v12.722656l-2.320312-2.402344c-1.503906-1.511719-3.546875-2.367187-5.679688-2.367187-2.132812 0-4.179687.855468-5.679687 2.367187l-10.320313 10.402344-10.320312-10.402344c-1.503906-1.511719-3.546875-2.367187-5.679688-2.367187-2.132812 0-4.179687.855468-5.679687 2.367187l-2.320313 2.402344v-36.722656h136v104c0 4.417969 3.582032 8 8 8 4.417969 0 8-3.582031 8-8v-112c0-4.417969-3.582031-8-8-8zm0 0"/><path d="m296.007812 24.011719h-56v-16c.003907-3.105469-1.789062-5.933594-4.601562-7.253907-2.8125-1.320312-6.132812-.894531-8.519531 1.09375l-48 40c-1.835938 1.519532-2.894531 3.78125-2.894531 6.160157 0 2.382812 1.058593 4.640625 2.894531 6.160156l48 40c2.386719 1.988281 5.707031 2.414063 8.519531 1.09375 2.8125-1.316406 4.605469-4.144531 4.601562-7.253906v-16h56c48.601563 0 88 39.398437 88 88v88c0 4.417969 3.582032 8 8 8 4.417969 0 8-3.582031 8-8v-88c0-57.4375-46.5625-104-104-104h-64c-4.417968 0-8 3.582031-8 8v6.960937l-27.519531-22.960937 27.519531-22.957031v6.957031c0 4.417969 3.582032 8 8 8h64c66.273438 0 120 53.726562 120 120v88c0 4.417969 3.582032 8 8 8 4.417969 0 8-3.582031 8-8v-88c0-75.109375-60.890624-136-136-136zm0 0"/><path d="m205.125 385.851562c-2.386719-1.988281-5.707031-2.414062-8.519531-1.09375-2.8125 1.320313-4.605469 4.148438-4.597657 7.253907v16h-56c-48.601562 0-88-39.398438-88-88v-88c0-4.417969-3.582031-8-8-8-4.417968 0-8 3.582031-8 8v88c0 57.4375 46.5625 104 104 104h64c4.417969 0 8-3.582031 8-8v-6.957031l27.519532 22.957031-27.519532 22.960937v-6.960937c0-4.417969-3.582031-8-8-8h-64c-66.277343 0-120-53.722657-120-120v-88c0-4.417969-3.582031-8-8-8-4.417968 0-7.9999995 3.582031-7.9999995 8v88c0 75.113281 60.8867185 136 135.9999995 136h56v16c-.007812 3.125 1.804688 5.96875 4.640626 7.28125 1.054687.480469 2.199218.726562 3.359374.71875 1.867188.003906 3.679688-.644531 5.117188-1.839844l48-40c1.835938-1.519531 2.898438-3.777344 2.898438-6.160156 0-2.378907-1.0625-4.640625-2.898438-6.160157zm0 0"/><path d="m408.007812 280.011719c-4.417968 0-8 3.582031-8 8v32c0 4.417969 3.582032 8 8 8 4.417969 0 8-3.582031 8-8v-32c0-4.417969-3.582031-8-8-8zm0 0"/><path d="m408.007812 352.011719c-4.417968 0-8 3.582031-8 8v32c0 4.417969 3.582032 8 8 8 4.417969 0 8-3.582031 8-8v-32c0-4.417969-3.582031-8-8-8zm0 0"/><path d="m320.007812 424.011719h-32c-4.417968 0-8 3.582031-8 8s3.582032 8 8 8h32c4.417969 0 8-3.582031 8-8s-3.582031-8-8-8zm0 0"/><path d="m392.007812 424.011719h-32c-4.417968 0-8 3.582031-8 8s3.582032 8 8 8h32c4.417969 0 8-3.582031 8-8s-3.582031-8-8-8zm0 0"/><path d="m24.007812 200.011719c4.417969 0 8-3.582031 8-8v-32c0-4.417969-3.582031-8-8-8-4.417968 0-8 3.582031-8 8v32c0 4.417969 3.582032 8 8 8zm0 0"/><path d="m24.007812 128.011719c4.417969 0 8-3.582031 8-8v-32c0-4.417969-3.582031-8-8-8-4.417968 0-8 3.582031-8 8v32c0 4.417969 3.582032 8 8 8zm0 0"/><path d="m112.007812 56.011719h32c4.417969 0 8-3.582031 8-8s-3.582031-8-8-8h-32c-4.417968 0-8 3.582031-8 8s3.582032 8 8 8zm0 0"/><path d="m40.007812 56.011719h32c4.417969 0 8-3.582031 8-8s-3.582031-8-8-8h-32c-4.417968 0-8 3.582031-8 8s3.582032 8 8 8zm0 0"/></svg>