<svg height="480pt" viewBox="0 -72 480 480" width="480pt" xmlns="http://www.w3.org/2000/svg"><path d="m328 224c-4.417969 0-8 3.582031-8 8v88h-304v-224h80c4.417969 0 8-3.582031 8-8s-3.582031-8-8-8h-80v-64h104v120c-.011719 3.347656 2.0625 6.347656 5.199219 7.519531.898437.328125 1.847656.488281 2.800781.480469 2.296875-.003906 4.484375-.992188 6-2.71875l14.71875-16.800781 13.042969 16.480469c1.441406 1.992187 3.78125 3.132812 6.238281 3.039062 2.449219-.03125 4.746094-1.179688 6.238281-3.121094l12.640625-16.398437 15.121094 16.878906c2.222656 2.445313 5.71875 3.269531 8.800781 2.082031 3.109375-1.164062 5.175781-4.121094 5.199219-7.441406v-120h104v64h-80c-4.417969 0-8 3.582031-8 8s3.582031 8 8 8h80v8c0 4.417969 3.582031 8 8 8s8-3.582031 8-8v-96c0-4.417969-3.582031-8-8-8h-320c-4.417969 0-8 3.582031-8 8v320c0 4.417969 3.582031 8 8 8h320c4.417969 0 8-3.582031 8-8v-96c0-4.417969-3.582031-8-8-8zm-128-208v99.121094l-7.519531-8.480469c-1.585938-1.761719-3.871094-2.726563-6.242188-2.640625-2.390625.078125-4.621093 1.222656-6.078125 3.121094l-12.238281 16-12.640625-16c-1.476562-1.867188-3.703125-2.980469-6.082031-3.042969-2.324219-.019531-4.542969.972656-6.078125 2.722656l-6.960938 8v-98.800781zm0 0"/><path d="m136 232v-32c0-4.417969-3.582031-8-8-8h-80c-4.417969 0-8 3.582031-8 8v32c0 4.417969 3.582031 8 8 8h80c4.417969 0 8-3.582031 8-8zm-16-8h-64v-16h64zm0 0"/><path d="m104 272c4.417969 0 8-3.582031 8-8s-3.582031-8-8-8h-56c-4.417969 0-8 3.582031-8 8v32c0 4.417969 3.582031 8 8 8h56c4.417969 0 8-3.582031 8-8s-3.582031-8-8-8h-48v-16zm0 0"/><path d="m360 32h112c4.417969 0 8-3.582031 8-8s-3.582031-8-8-8h-112c-4.417969 0-8 3.582031-8 8s3.582031 8 8 8zm0 0"/><path d="m280 136c0 4.417969 3.582031 8 8 8h104c4.417969 0 8-3.582031 8-8s-3.582031-8-8-8h-104c-4.417969 0-8 3.582031-8 8zm0 0"/><path d="m424 80c4.417969 0 8-3.582031 8-8s-3.582031-8-8-8h-48c-4.417969 0-8 3.582031-8 8s3.582031 8 8 8zm0 0"/><path d="m456 200c0-4.417969-3.582031-8-8-8h-184c-4.417969 0-8 3.582031-8 8s3.582031 8 8 8h184c4.417969 0 8-3.582031 8-8zm0 0"/><path d="m472 248h-80c-4.417969 0-8 3.582031-8 8s3.582031 8 8 8h80c4.417969 0 8-3.582031 8-8s-3.582031-8-8-8zm0 0"/><path d="m408 288h-48c-4.417969 0-8 3.582031-8 8s3.582031 8 8 8h48c4.417969 0 8-3.582031 8-8s-3.582031-8-8-8zm0 0"/><path d="m296 256c0-4.417969-3.582031-8-8-8h-56c-4.417969 0-8 3.582031-8 8s3.582031 8 8 8h56c4.417969 0 8-3.582031 8-8zm0 0"/><path d="m240 288c-4.417969 0-8 3.582031-8 8s3.582031 8 8 8h32c4.417969 0 8-3.582031 8-8s-3.582031-8-8-8zm0 0"/></svg>