<svg height="480pt" viewBox="0 0 480 480.0716" width="480pt" xmlns="http://www.w3.org/2000/svg"><path d="m472.035156 384.070312h-64v-96c0-4.417968-3.582031-8-8-8-4.417968 0-8 3.582032-8 8v96h-16v-192c2.640625 0 5.28125.402344 8 .402344s5.359375 0 8-.402344v60c0 4.417969 3.582032 8 8 8 4.417969 0 8-3.582031 8-8v-63.117187c46.808594-12.085937 77.328125-57.09375 71.234375-105.050781-6.089843-47.957032-46.890625-83.902344-95.234375-83.902344-48.339844 0-89.144531 35.945312-95.234375 83.902344-6.089843 47.957031 24.425781 92.964844 71.234375 105.050781v195.117187h-88v-86c0-4.417968-3.582031-8-8-8-4.417968 0-8 3.582032-8 8v86h-192v-192h56v72c.011719 3.015626 1.710938 5.765626 4.402344 7.121094 2.707031 1.375 5.960938 1.097656 8.398438-.71875l27.199218-20.402344 27.199219 20.402344c1.386719 1.039063 3.070313 1.597656 4.800781 1.597656 1.257813.023438 2.496094-.28125 3.601563-.878906 2.6875-1.355468 4.390625-4.105468 4.398437-7.121094v-72h56v72c0 4.417969 3.582032 8 8 8 4.417969 0 8-3.582031 8-8v-80c0-4.417968-3.582031-8-8-8h-208c-4.417968 0-8 3.582032-8 8v200h-40c-4.417968 0-7.9999998 3.582032-7.9999998 8v16c0 22.09375 17.9101558 40 39.9999998 40v8c0 13.257813 10.746094 24 24 24s24-10.742187 24-24v-8h304v8c0 13.257813 10.746094 24 24 24s24-10.742187 24-24v-8c22.09375 0 40-17.90625 40-40v-16c0-4.417968-3.582031-8-8-8zm-168-280h16c4.417969 0 8-3.582031 8-8 0-4.417968-3.582031-8-8-8h-16c3.835938-37.988281 33.988282-67.972656 72-71.597656v15.597656c0 4.417969 3.582032 8 8 8 4.417969 0 8-3.582031 8-8v-15.597656c38.148438 3.65625 68.34375 33.851563 72 72h-16c-4.417968 0-8 3.582032-8 8 0 4.417969 3.582032 8 8 8h16c-3.65625 38.144532-33.851562 68.339844-72 72v-16.402344c0-4.417968-3.582031-8-8-8-4.417968 0-8 3.582032-8 8v16c-37.992187-3.835937-67.972656-33.988281-71.597656-72zm-120 144-19.199218-14.398437c-2.84375-2.132813-6.753907-2.132813-9.601563 0l-19.199219 14.398437v-56h48zm-112 208c0 4.417969-3.582031 8-8 8-4.417968 0-8-3.582031-8-8v-8h16zm352 0c0 4.417969-3.582031 8-8 8-4.417968 0-8-3.582031-8-8v-8h16zm40-48c0 13.257813-10.746094 24-24 24h-400c-13.253906 0-24-10.742187-24-24v-8h448zm0 0"/><path d="m144.035156 320.070312c0-4.417968-3.582031-8-8-8h-48c-4.417968 0-8 3.582032-8 8 0 4.417969 3.582032 8 8 8h48c4.417969 0 8-3.582031 8-8zm0 0"/><path d="m88.035156 344.070312c-4.417968 0-8 3.582032-8 8 0 4.417969 3.582032 8 8 8h16c4.417969 0 8-3.582031 8-8 0-4.417968-3.582031-8-8-8zm0 0"/><path d="m224.035156 336.070312v24c0 4.417969 3.582032 8 8 8 4.417969 0 8-3.582031 8-8v-24c0-4.417968-3.582031-8-8-8-4.417968 0-8 3.582032-8 8zm0 0"/><path d="m192.035156 328.070312v32c0 4.417969 3.582032 8 8 8 4.417969 0 8-3.582031 8-8v-32c0-4.417968-3.582031-8-8-8-4.417968 0-8 3.582032-8 8zm0 0"/><path d="m384.035156 120.070312c7.105469-.023437 13.835938-3.199218 18.375-8.664062 4.539063-5.46875 6.425782-12.664062 5.144532-19.65625l22.082031-12.71875c3.84375-2.207031 5.167969-7.117188 2.960937-10.960938-2.210937-3.84375-7.117187-5.167968-10.960937-2.957031l-22.082031 12.796875c-8.070313-6.972656-19.777344-7.78125-28.730469-1.984375-8.957031 5.796875-13.011719 16.808594-9.953125 27.027344 3.0625 10.21875 12.496094 17.195313 23.164062 17.117187zm-4-30.957031c1.84375-1.070312 4.039063-1.359375 6.097656-.800781 2.054688.554688 3.808594 1.90625 4.863282 3.757812 2.183594 3.832032.855468 8.710938-2.972656 10.902344-3.828126 2.195313-8.707032.878906-10.910157-2.945312-2.203125-3.820313-.894531-8.703125 2.921875-10.914063zm0 0"/></svg>