<svg height="479pt" viewBox="0 -16 479.43155 479" width="479pt" xmlns="http://www.w3.org/2000/svg"><g fill="#231f20"><path d="m289.511719 308.472656c-11.046875-19.132812-35.507813-25.6875-54.640625-14.640625l-13.839844 8-27.757812 16c-1.820313 1.042969-3.972657 1.328125-6 .800781-2.066407-.550781-3.824219-1.90625-4.882813-3.761718l-64-110.878906c-1.09375-1.800782-1.382813-3.976563-.800781-6 .535156-2.050782 1.859375-3.804688 3.683594-4.878907l27.757812-16 13.839844-8c9.128906-5.238281 15.828125-13.859375 18.640625-24 2.796875-10.234375 1.355469-21.164062-4-30.320312l-24-41.601563c-5.238281-9.128906-13.859375-15.824218-24-18.640625-10.238281-2.734375-21.140625-1.296875-30.320313 4l-13.839844 8-41.601562 24c-41.886719 24.367188-56.191406 78.011719-32 120l56 97.28125c1.4375 2.484375 4.09375 4.011719 6.960938 4 1.410156-.015625 2.789062-.402343 4-1.121093 3.808593-2.195313 5.132812-7.054688 2.960937-10.878907l-56-97.28125c-19.796875-34.21875-8.296875-78.003906 25.757813-98.078125l34.640624-20 32.5625 56c1.359376 2.601563 4.039063 4.25 6.980469 4.289063 2.9375.039062 5.660157-1.535157 7.09375-4.097657 1.429688-2.566406 1.339844-5.710937-.234375-8.191406l-32.5625-56 6.960938-4c5.5-3.253906 12.085937-4.121094 18.242187-2.402344 6.132813 1.636719 11.367188 5.636719 14.558594 11.121094l24 41.601563c3.191406 5.519531 4.054687 12.082031 2.398437 18.238281-1.652343 6.148438-5.683593 11.382812-11.199218 14.558594l-13.839844 8-27.757812 16c-11.464844 6.652344-15.371094 21.335937-8.722657 32.800781l64 110.800781c6.621094 11.445313 21.253907 15.382813 32.722657 8.800782l20.796874-12 34.402344 59.597656c2.207032 3.847656 7.113282 5.171875 10.957032 2.960937 3.847656-2.207031 5.171874-7.113281 2.960937-10.960937l-34.480469-59.917969 6.960938-4c5.515625-3.1875 12.070312-4.050781 18.222656-2.398437 6.152344 1.652343 11.398438 5.679687 14.578125 11.199218l24 41.519532c3.1875 5.515624 4.046875 12.070312 2.398437 18.222656-1.652343 6.152344-5.679687 11.398437-11.199218 14.578125l-13.839844 8-41.601562 24c-34.417969 19.863281-78.425782 8.082031-98.316407-26.320313l-40-69.039062c-2.210937-3.847656-7.117187-5.171875-10.960937-2.960938-3.84375 2.207032-5.171875 7.113282-2.960938 10.960938l40 69.039062c24.367188 41.886719 78.011719 56.191406 120 32l41.601563-24 13.839843-8c19.128907-11.046875 25.683594-35.507812 14.640626-54.640625zm0 0"/><path d="m189.511719 62.632812c12.808593 3.363282 20.46875 16.46875 17.121093 29.277344-.5625 2.058594-.277343 4.257813.789063 6.105469s2.828125 3.191406 4.890625 3.734375c.691406.082031 1.386719.082031 2.078125 0 3.742187.121094 7.066406-2.371094 8-6 5.585937-21.335938-7.15625-43.164062-28.480469-48.796875-2.824218-.9375-5.933594-.226563-8.074218 1.839844-2.136719 2.070312-2.953126 5.152343-2.113282 8.007812s3.191406 5.007813 6.109375 5.589844zm0 0"/><path d="m201.671875 16.472656c18.488281 4.847656 34.289063 16.84375 43.921875 33.351563 9.632812 16.507812 12.308594 36.167969 7.4375 54.648437-.535156 2.058594-.226562 4.242188.855469 6.074219 1.078125 1.832031 2.84375 3.15625 4.90625 3.683594.664062.078125 1.335937.078125 2 0 3.71875.128906 7.035156-2.324219 8-5.917969 6.03125-22.664062 2.765625-46.796875-9.070313-67.046875-11.835937-20.246094-31.261718-34.929687-53.972656-40.792969-4.417969-1.128906-8.910156 1.539063-10.039062 5.960938-1.125 4.417968 1.542968 8.910156 5.960937 10.039062zm0 0"/><path d="m455.429688 144.472656h-144c-13.253907 0-24 10.746094-24 24v80c0 13.253906 10.746093 24 24 24h16v48c.019531 3.230469 1.972656 6.132813 4.960937 7.359375.949219.449219 1.992187.667969 3.039063.640625 2.128906.011719 4.171874-.824218 5.683593-2.320312l56-56c3.136719-3.136719 3.136719-8.222656 0-11.359375-3.140625-3.136719-8.226562-3.136719-11.363281 0l-42.320312 42.398437v-36.71875c0-4.417968-3.578126-8-8-8h-24c-4.417969 0-8-3.582031-8-8v-80c0-4.417968 3.582031-8 8-8h144c4.421874 0 8 3.582032 8 8v80c0 4.417969-3.578126 8-8 8h-32c-4.417969 0-8 3.582032-8 8 0 4.417969 3.582031 8 8 8h32c13.257812 0 24-10.746094 24-24v-80c0-13.253906-10.742188-24-24-24zm0 0"/><path d="m431.429688 200.472656c4.421874 0 8-3.582031 8-8 0-4.417968-3.578126-8-8-8h-72c-4.417969 0-8 3.582032-8 8 0 4.417969 3.582031 8 8 8zm0 0"/><path d="m327.429688 224.472656c0 4.417969 3.582031 8 8 8h96c4.421874 0 8-3.582031 8-8 0-4.417968-3.578126-8-8-8h-96c-4.417969 0-8 3.582032-8 8zm0 0"/><path d="m391.429688 104.472656c22.09375 0 40-17.910156 40-40 0-22.09375-17.90625-40-40-40-22.089844 0-40 17.90625-40 40 0 22.089844 17.910156 40 40 40zm0-64c13.257812 0 24 10.746094 24 24s-10.742188 24-24 24c-13.253907 0-24-10.746094-24-24s10.746093-24 24-24zm0 0"/><path d="m415.429688 392.472656c13.257812 0 24-10.746094 24-24s-10.742188-24-24-24c-13.253907 0-24 10.746094-24 24s10.746093 24 24 24zm0-32c4.421874 0 8 3.582032 8 8 0 4.417969-3.578126 8-8 8-4.417969 0-8-3.582031-8-8 0-4.417968 3.582031-8 8-8zm0 0"/><path d="m346.152344 117.75c3.082031-.125 5.816406-2.007812 7.03125-4.84375 1.210937-2.839844.6875-6.121094-1.351563-8.433594-21.871093-21.871094-21.871093-57.332031 0-79.199218 2.71875-3.175782 2.535157-7.90625-.421875-10.863282-2.953125-2.953125-7.683594-3.136718-10.859375-.417968-28.074219 28.109374-28.074219 73.648437 0 101.757812 1.542969 1.363281 3.546875 2.078125 5.601563 2zm0 0"/><path d="m431.429688 104.472656c-2.304688 2.289063-3 5.746094-1.753907 8.746094 1.246094 3.003906 4.1875 4.953125 7.4375 4.933594 2.109375-.03125 4.121094-.894532 5.597657-2.402344 28.074218-28.109375 28.074218-73.648438 0-101.757812-3.132813-2.144532-7.339844-1.792969-10.074219.839843-2.734375 2.636719-3.238281 6.832031-1.207031 10.039063 10.628906 10.519531 16.605468 24.847656 16.605468 39.800781s-5.976562 29.28125-16.605468 39.800781zm0 0"/><path d="m435.429688 402.953125c-12.375 7.144531-27.621094 7.144531-40 0-3.84375-2.210937-8.75-.886719-10.957032 2.957031-2.210937 3.84375-.886718 8.753906 2.957032 10.960938 8.503906 4.949218 18.164062 7.570312 28 7.601562 9.878906-.152344 19.539062-2.910156 28-8 2.785156-1.257812 4.609374-3.992187 4.703124-7.042968.09375-3.050782-1.554687-5.890626-4.253906-7.320313-2.699218-1.425781-5.976562-1.195313-8.449218.601563zm0 0"/><path d="m443.429688 320.472656c-17.324219-10.003906-38.671876-10.003906-56 0-3.84375 2.207032-5.167969 7.113282-2.957032 10.960938 2.207032 3.84375 7.113282 5.167968 10.957032 2.957031 12.378906-7.144531 27.625-7.144531 40 0 2.472656 1.796875 5.75 2.03125 8.449218.601563 2.699219-1.425782 4.347656-4.265626 4.253906-7.320313-.09375-3.050781-1.917968-5.78125-4.703124-7.039063zm0 0"/></g></svg>