<?xml version="1.0"?>
<svg xmlns="http://www.w3.org/2000/svg" id="Outline" viewBox="0 0 64 64" width="512" height="512"><g><path d="M17,24a1,1,0,0,0,1-1V4h8v8a1,1,0,0,0,1.707.707l2.138-2.137,1.323,1.985a1.039,1.039,0,0,0,1.664,0l1.323-1.985,2.138,2.137A1,1,0,0,0,38,12V4h8V23a1,1,0,0,0,2,0V3a1,1,0,0,0-1-1H17a1,1,0,0,0-1,1V23A1,1,0,0,0,17,24ZM36,4V9.586L34.707,8.293a1,1,0,0,0-1.539.152L32,10.2,30.832,8.445a1,1,0,0,0-.733-.44A.831.831,0,0,0,30,8a1,1,0,0,0-.707.293L28,9.586V4Z"/><path d="M51,40a1,1,0,0,0-1,1v2H45a1,1,0,0,0-1,1v4a1,1,0,0,0,1,1h5v2H46a1,1,0,0,0,0,2h4v7H27V54.869l1.445.963a1,1,0,0,0,1.11,0L32,54.2l2.445,1.63a1,1,0,0,0,1.11,0L37,54.869V57a1,1,0,0,0,2,0V53a1,1,0,0,0-1.555-.832L35,53.8l-2.445-1.63a1,1,0,0,0-1.11,0L29,53.8l-2.445-1.63A1,1,0,0,0,25,53v7H14V58a1,1,0,0,0-2,0v3a1,1,0,0,0,1,1H51a1,1,0,0,0,1-1V41A1,1,0,0,0,51,40Zm-5,7V45h4v2Z"/><path d="M57.8,34.4l-6-8a.991.991,0,0,0-.792-.392L51,26H13l-.008.008a.992.992,0,0,0-.792.392l-6,8a1,1,0,1,0,1.6,1.2L12,30V54a1,1,0,0,0,2,0V53h4a1,1,0,0,0,0-2H14V49h5a1,1,0,0,0,1-1V44a1,1,0,0,0-1-1H14V31.236l2.105,4.211A1,1,0,0,0,17,36h2a1,1,0,0,0,0-2H17.618l-3-6H49.382l-3,6H23a1,1,0,0,0,0,2h2v5a1,1,0,0,0,1.555.832L29,40.2l2.445,1.63a1,1,0,0,0,1.11,0L35,40.2l2.445,1.63A1,1,0,0,0,39,41V36h8a1,1,0,0,0,.9-.553L50,31.236V37a1,1,0,0,0,2,0V30l4.2,5.6a1,1,0,0,0,1.6-1.2ZM37,39.131l-1.445-.963a1,1,0,0,0-1.11,0L32,39.8l-2.445-1.63a1,1,0,0,0-1.11,0L27,39.131V36H37ZM18,45v2H14V45Z"/><path d="M21,17a1,1,0,0,0-1,1v4a1,1,0,0,0,1,1h6a1,1,0,0,0,1-1V18a1,1,0,0,0-1-1Zm5,4H22V19h4Z"/><path d="M43,17H40a1,1,0,0,0,0,2h3a1,1,0,0,0,0-2Z"/><path d="M43,21H37a1,1,0,0,0,0,2h6a1,1,0,0,0,0-2Z"/></g></svg>
