<svg height="480pt" viewBox="0 0 480 480" width="480pt" xmlns="http://www.w3.org/2000/svg"><path d="m344 112v-32c0-4.417969-3.582031-8-8-8s-8 3.582031-8 8v32c0 4.417969 3.582031 8 8 8s8-3.582031 8-8zm0 0"/><path d="m410.238281 381.28125c7.585938-8.453125 18.40625-13.28125 29.761719-13.28125 4.417969 0 8-3.582031 8-8v-272c0-4.417969-3.582031-8-8-8-22.089844 0-40-17.910156-40-40 0-4.417969-3.582031-8-8-8h-112c-4.417969 0-8 3.582031-8 8 0 22.089844-17.910156 40-40 40-4.417969 0-8 3.582031-8 8v112c0 4.417969 3.582031 8 8 8s8-3.582031 8-8v-104.558594c24.585938-3.542968 43.898438-22.855468 47.441406-47.441406h97.117188c3.542968 24.585938 22.855468 43.898438 47.441406 47.441406v257.117188c-13 1.890625-24.921875 8.289062-33.679688 18.082031-2.953124 3.273437-2.703124 8.316406.558594 11.28125 1.46875 1.332031 3.378906 2.074219 5.359375 2.078125 2.300781-.003906 4.484375-.992188 6-2.71875zm0 0"/><path d="m472 0h-272c-4.417969 0-8 3.582031-8 8v192c0 4.417969 3.582031 8 8 8s8-3.582031 8-8v-184h256v416h-56c-4.417969 0-8 3.582031-8 8s3.582031 8 8 8h64c4.417969 0 8-3.582031 8-8v-432c0-4.417969-3.582031-8-8-8zm0 0"/><path d="m402.71875 196.960938c-10.074219-24.367188-32.535156-41.382813-58.71875-44.480469-32.15625-3.863281-62.886719 14.394531-74.878906 44.480469-1.679688 4.085937.273437 8.761718 4.359375 10.4375 4.085937 1.679687 8.761719-.273438 10.441406-4.359376 9.304687-23.460937 33.265625-37.691406 58.316406-34.640624 20.308594 2.453124 37.699219 15.710937 45.441407 34.640624 1.238281 3.015626 4.179687 4.976563 7.441406 4.960938 1.011718.003906 2.015625-.1875 2.957031-.558594 2.023437-.753906 3.660156-2.289062 4.53125-4.261718.875-1.972657.914063-4.21875.109375-6.21875zm0 0"/><path d="m360 224h-200c-4.417969 0-8 3.582031-8 8s3.582031 8 8 8h200c4.417969 0 8 3.582031 8 8v88h-328c-4.417969 0-8 3.582031-8 8s3.582031 8 8 8h328v104c0 4.417969-3.582031 8-8 8h-336c-4.417969 0-8-3.582031-8-8v-168h328c4.417969 0 8-3.582031 8-8s-3.582031-8-8-8h-328v-24c0-4.417969 3.582031-8 8-8h96c4.417969 0 8-3.582031 8-8s-3.582031-8-8-8h-96c-13.253906 0-24 10.746094-24 24v208c0 13.253906 10.746094 24 24 24h336c13.253906 0 24-10.746094 24-24v-208c0-13.253906-10.746094-24-24-24zm0 0"/><path d="m72 448c4.417969 0 8-3.582031 8-8v-24h24c4.417969 0 8-3.582031 8-8v-32c0-4.417969-3.582031-8-8-8h-32c-4.417969 0-8 3.582031-8 8v24h-24c-4.417969 0-8 3.582031-8 8v32c0 4.417969 3.582031 8 8 8s8-3.582031 8-8v-24h16v24c0 4.417969 3.582031 8 8 8zm8-64h16v16h-16zm0 0"/><path d="m344 408c4.417969 0 8-3.582031 8-8s-3.582031-8-8-8h-80c-4.417969 0-8 3.582031-8 8v32c0 4.417969 3.582031 8 8 8h80c4.417969 0 8-3.582031 8-8s-3.582031-8-8-8h-72v-16zm0 0"/><path d="m232 408c4.417969 0 8-3.582031 8-8s-3.582031-8-8-8h-16c-4.417969 0-8 3.582031-8 8s3.582031 8 8 8zm0 0"/><path d="m192 432c0 4.417969 3.582031 8 8 8h32c4.417969 0 8-3.582031 8-8s-3.582031-8-8-8h-32c-4.417969 0-8 3.582031-8 8zm0 0"/><path d="m42.320312 197.679688c1.5 1.515624 3.546876 2.367187 5.679688 2.367187s4.179688-.851563 5.679688-2.367187l40-40c2.269531-2.300782 2.933593-5.742188 1.679687-8.71875-1.226563-2.988282-4.128906-4.945313-7.359375-4.960938h-15.359375c3.394531-20.164062 19.195313-35.964844 39.359375-39.359375v15.359375c.015625 3.230469 1.972656 6.132812 4.960938 7.359375 2.976562 1.253906 6.417968.589844 8.71875-1.679687l40-40c1.515624-1.5 2.367187-3.546876 2.367187-5.679688s-.851563-4.179688-2.367187-5.679688l-40-40c-2.300782-2.269531-5.742188-2.933593-8.71875-1.679687-2.988282 1.226563-4.945313 4.128906-4.960938 7.359375v16c-46.949219 3.773438-84.226562 41.050781-88 88h-16c-3.230469.015625-6.132812 1.972656-7.359375 4.960938-1.253906 2.976562-.5898438 6.417968 1.679687 8.71875zm-10.320312-37.679688c4.417969 0 8-3.582031 8-8 0-44.183594 35.816406-80 80-80 4.417969 0 8-3.582031 8-8v-4.71875l20.71875 20.71875-20.71875 20.71875v-4.71875c0-4.417969-3.582031-8-8-8-35.347656 0-64 28.652344-64 64 0 4.417969 3.582031 8 8 8h4.71875l-20.71875 20.71875-20.71875-20.71875zm0 0"/></svg>