<?xml version="1.0"?>
<svg xmlns="http://www.w3.org/2000/svg" id="icons" viewBox="0 0 48 48" width="512" height="512"><path d="M46,27a3.07,3.07,0,0,0-2-2.77V18a4,4,0,0,0-3.9-4H13a5.83,5.83,0,0,1-3.71-1.29,1,1,0,0,1,1.42-1.42A3.91,3.91,0,0,0,13,12H39V7.76A4.6,4.6,0,0,0,37.63,4.5,5.19,5.19,0,0,0,34,3h-.13s-.52.06-.75.11L9.47,7.87a7.14,7.14,0,0,0-5.47,7v21.1a7.21,7.21,0,0,0,2.86,5.73A6.74,6.74,0,0,0,10.92,43H40a4,4,0,0,0,4-4s0-4.18,0-4.19a3.06,3.06,0,0,0,2-2.76V27ZM11,40a1,1,0,0,1-2,0V34a1,1,0,0,1,2,0Zm0-11a1,1,0,0,1-2,0V25a1,1,0,0,1,2,0Zm32,4H31a1,1,0,0,1-1-1V27a1,1,0,0,1,1-1H43a1,1,0,0,1,1,1v5A1,1,0,0,1,43,33Z"/><circle cx="33.5" cy="29.5" r="1.5"/></svg>
