<?xml version="1.0" encoding="utf-8"?>
<!-- Generator: Adobe Illustrator 17.1.0, SVG Export Plug-In . SVG Version: 6.00 Build 0)  -->
<!DOCTYPE svg PUBLIC "-//W3C//DTD SVG 1.1//EN" "http://www.w3.org/Graphics/SVG/1.1/DTD/svg11.dtd">
<svg version="1.1" id="Layer_1" xmlns="http://www.w3.org/2000/svg" xmlns:xlink="http://www.w3.org/1999/xlink" x="0px" y="0px"
	 viewBox="0 0 77.5 77.5" enable-background="new 0 0 77.5 77.5" xml:space="preserve">
<g>
	<g>
		<path fill="#3E475B" d="M46.5,12.9c-1.4,0-2.7,0.2-3.9,0.7V6.5c0-3.6-2.9-6.5-6.5-6.5H6.5C2.9,0,0,2.9,0,6.5v54.2
			c0,3.6,2.9,6.5,6.5,6.5h9c0,0.3,0.1,0.7,0.4,0.9l4.8,4.8v4.6h2.6v-5.2c0-0.3-0.1-0.7-0.4-0.9l-4.8-4.8v-5.7l1.2-3.7
			c0-0.1,0.1-0.3,0.1-0.4V38.8c0-0.7,0.6-1.3,1.3-1.3c0.7,0,1.3,0.6,1.3,1.3v19.4h2.6v-7.7c0-0.7,0.6-1.3,1.3-1.3
			c0.7,0,1.3,0.6,1.3,1.3v7.7h2.6v-7.7c0-0.7,0.6-1.3,1.3-1.3c0.7,0,1.3,0.6,1.3,1.3v7.7h2.6v-6.5c0-0.7,0.6-1.3,1.3-1.3
			c0.7,0,1.3,0.6,1.3,1.3v6.5h2.6v-3.9c0-0.7,0.6-1.3,1.3-1.3c0.7,0,1.3,0.6,1.3,1.3v7.5l-3.8,11.4c0,0.1-0.1,0.3-0.1,0.4v3.9h2.6
			v-3.7l3.8-11.4c0-0.1,0.1-0.3,0.1-0.4v-7.7c0-1.7-1.1-3.1-2.6-3.6V35.5c1.2,0.4,2.5,0.7,3.9,0.7c6.4,0,11.6-5.2,11.6-11.6
			C58.1,18.1,52.9,12.9,46.5,12.9z M2.6,6.5c0-2.1,1.7-3.9,3.9-3.9h29.7c2.1,0,3.9,1.7,3.9,3.9v1.3H2.6V6.5z M15.6,60.3
			c0,0.1-0.1,0.3-0.1,0.4v3.9h-9c-2.1,0-3.9-1.7-3.9-3.9v-3.9h14.1L15.6,60.3z M20.7,34.9c-2.1,0-3.9,1.7-3.9,3.9V40h-2.6
			c-0.7,0-1.3-0.6-1.3-1.3v-5.2c0-0.7,0.6-1.3,1.3-1.3h12.9c0.7,0,1.3,0.6,1.3,1.3v5.2c0,0.7-0.6,1.3-1.3,1.3h-2.6v-1.3
			C24.6,36.6,22.8,34.9,20.7,34.9z M40.1,50.6c0,0-0.1,0-0.1,0.1c0,0,0,0,0,0c-0.4-1.6-1.9-2.9-3.7-2.9c-0.7,0-1.3,0.2-1.9,0.5
			c-0.7-1.1-1.9-1.8-3.3-1.8c-1,0-1.9,0.4-2.6,1c-0.7-0.6-1.6-1-2.6-1c-0.5,0-0.9,0.1-1.3,0.2v-4.1h2.6c2.1,0,3.9-1.7,3.9-3.9v-5.2
			c0-2.1-1.7-3.9-3.9-3.9H14.2c-2.1,0-3.9,1.7-3.9,3.9v5.2c0,2.1,1.7,3.9,3.9,3.9h2.6v11.6H2.6V10.3h37.5v4.5
			c-0.4,0.3-0.7,0.5-1.1,0.8c0,0-0.1,0.1-0.1,0.1c-0.3,0.3-0.6,0.5-0.8,0.8c-0.1,0.1-0.1,0.1-0.2,0.2c-0.3,0.3-0.5,0.6-0.8,1
			c0,0,0,0,0,0c-0.5,0.8-1,1.6-1.3,2.4c0,0,0,0.1-0.1,0.1c-0.1,0.4-0.3,0.7-0.4,1.1c0,0.1,0,0.2-0.1,0.3c-0.1,0.3-0.1,0.7-0.2,1
			c0,0.1,0,0.2,0,0.3c-0.1,0.4-0.1,0.9-0.1,1.3c0,0.5,0,0.9,0.1,1.3c0,0.1,0,0.2,0,0.3c0.1,0.4,0.1,0.7,0.2,1c0,0.1,0,0.2,0.1,0.3
			c0.1,0.4,0.2,0.7,0.4,1.1c0,0,0,0.1,0.1,0.1c0.3,0.9,0.8,1.7,1.3,2.4c0,0,0,0,0,0c0.2,0.3,0.5,0.7,0.8,1c0.1,0.1,0.1,0.1,0.2,0.2
			c0.3,0.3,0.5,0.6,0.8,0.8c0,0,0.1,0.1,0.1,0.1c0.4,0.3,0.7,0.6,1.1,0.8V50.6z M46.5,33.6c-1.7,0-3.2-0.5-4.6-1.2
			c-0.3-0.2-0.6-0.4-0.9-0.6c0,0-0.1,0-0.1-0.1c-0.6-0.5-1.1-1-1.6-1.6c0,0,0,0,0-0.1c-0.2-0.3-0.4-0.6-0.6-0.9c0,0,0,0,0,0
			c-0.4-0.7-0.7-1.4-0.9-2.1c0-0.1,0-0.1,0-0.2c-0.1-0.3-0.1-0.6-0.2-0.9c0-0.1,0-0.2,0-0.2c0-0.4-0.1-0.7-0.1-1.1
			c0-0.4,0-0.7,0.1-1.1c0-0.1,0-0.2,0-0.2c0-0.3,0.1-0.6,0.2-0.9c0-0.1,0-0.1,0-0.2c0.2-0.7,0.5-1.4,0.9-2.1c0,0,0,0,0,0
			c0.2-0.3,0.4-0.6,0.6-0.9c0,0,0,0,0-0.1c0.5-0.6,1-1.1,1.6-1.6c0,0,0.1,0,0.1-0.1c0.3-0.2,0.6-0.4,0.9-0.6
			c1.3-0.8,2.9-1.2,4.6-1.2c5,0,9,4.1,9,9C55.6,29.5,51.5,33.6,46.5,33.6z M77.2,22.3L72,17.2L70.2,19l3,3H60.7v2.6h12.4l-3,3
			l1.8,1.8l5.2-5.2C77.7,23.7,77.7,22.8,77.2,22.3z M16,20.9l1.6,2.1c0.5-0.4,1.6-1,3.1-1c0.6,0,1.9,0.1,3.1,1l1.6-2.1
			c-1.8-1.3-3.7-1.5-4.7-1.5C18.4,19.4,16.8,20.3,16,20.9z M12.1,17.1l1.6,2.1c1.2-0.9,3.6-2.3,7-2.3c1.4,0,4.3,0.3,7,2.3l1.6-2.1
			c-3.3-2.5-6.8-2.8-8.5-2.8C16.6,14.2,13.6,16,12.1,17.1z M19.4,27.1H22v-2.6h-2.6V27.1z"/>
	</g>
</g>
</svg>
