<?xml version="1.0" encoding="utf-8"?>
<!-- Generator: Adobe Illustrator 17.1.0, SVG Export Plug-In . SVG Version: 6.00 Build 0)  -->
<!DOCTYPE svg PUBLIC "-//W3C//DTD SVG 1.1//EN" "http://www.w3.org/Graphics/SVG/1.1/DTD/svg11.dtd">
<svg version="1.1" id="Layer_1" xmlns="http://www.w3.org/2000/svg" xmlns:xlink="http://www.w3.org/1999/xlink" x="0px" y="0px"
	 viewBox="0 0 80 68" enable-background="new 0 0 80 68" xml:space="preserve">
<g>
	<g>
		<path fill="#3E475B" d="M13,33.4c0,0,0.2,0,0.5,0c1.6,0,7.5-0.3,15.6-3.4c5.5-2.2,11-5.3,16.2-9.2c6-4.5,11.7-10.1,17.1-16.7
			l0.5,3.3c0.1,0.6,0.6,1,1.1,1c0.1,0,0.1,0,0.2,0c0.6-0.1,1.1-0.7,1-1.3l-0.8-6c0-0.3-0.2-0.6-0.4-0.8C63.5,0.1,63.2,0,62.9,0
			l-6.6,1c-0.6,0.1-1.1,0.7-1,1.3c0.1,0.6,0.7,1.1,1.3,1l3.9-0.6C55.3,9.1,49.8,14.5,44,18.9c-5,3.8-10.3,6.8-15.6,8.9
			c-9.1,3.6-15.2,3.3-15.3,3.3c-0.6,0-1.2,0.5-1.2,1.1C11.8,32.8,12.3,33.4,13,33.4z M77.9,61.7h-9.2c0.8-0.5,1.5-1.1,2.1-1.8
			c2.6-2.6,4-6.1,4-9.7c0-3.7-1.4-7.1-4-9.7c-0.9-0.9-2-1.7-3-2.3v-4.6c0-0.6-0.5-1.1-1.1-1.1c-0.6,0-1.1,0.5-1.1,1.1v3.6
			c-3.1-1.1-6.5-1-9.6,0.3v-14c0-0.1,0.1-0.3,0.3-0.3h9c0.1,0,0.3,0.1,0.3,0.3v2.8c0,0.6,0.5,1.1,1.1,1.1c0.6,0,1.1-0.5,1.1-1.1
			v-2.8c0-1.4-1.1-2.6-2.5-2.6h-9c-1.4,0-2.5,1.1-2.5,2.6v15.2c-0.8,0.5-1.6,1.1-2.3,1.8c-2.6,2.6-4,6.1-4,9.7c0,3.7,1.4,7.1,4,9.7
			c0.7,0.7,1.4,1.2,2.1,1.8h-7.2V33.7c0-1.4-1.1-2.6-2.5-2.6h-9c-1.4,0-2.5,1.1-2.5,2.6v27.9h-7.3V43.1c0-1.4-1.1-2.6-2.5-2.6h-9
			c-1.4,0-2.5,1.1-2.5,2.6v18.5H6V2.9c0-1.2-0.9-2.1-2.1-2.1H2.1C0.9,0.8,0,1.7,0,2.9V11c0,0.6,0.5,1.1,1.1,1.1s1.1-0.5,1.1-1.1V3.1
			h1.5v58.8C3.7,63,4.7,64,5.8,64h71.9v1.7H2.3V18.2c0-0.6-0.5-1.1-1.1-1.1c-0.6,0-1.1,0.5-1.1,1.1v47.6C0,67,0.9,68,2.1,68h75.8
			c1.2,0,2.1-0.9,2.1-2.1v-2.1C80,62.6,79.1,61.7,77.9,61.7z M22.5,61.7H13V43.1c0-0.1,0.1-0.3,0.3-0.3h9c0.1,0,0.3,0.1,0.3,0.3
			V61.7z M44,61.7h-9.6V33.7c0-0.1,0.1-0.3,0.3-0.3h9c0.1,0,0.3,0.1,0.3,0.3V61.7z M66.1,60.5c-1.2,0.6-2.4,0.9-3.7,1.1
			c0,0,0,0-0.1,0c-0.1,0-0.2,0-0.3,0c-0.1,0-0.3,0-0.4,0c0,0-0.1,0-0.1,0c-0.2,0-0.3,0-0.5,0c-0.2,0-0.3,0-0.5,0c-0.1,0-0.1,0-0.2,0
			c-0.1,0-0.2,0-0.4,0c-0.1,0-0.2,0-0.3,0c-0.1,0-0.1,0-0.2,0c-0.1,0-0.2,0-0.3,0c0,0,0,0,0,0c-1.3-0.2-2.6-0.7-3.8-1.4c0,0,0,0,0,0
			c-0.9-0.5-1.6-1.1-2.4-1.8c-2.2-2.2-3.4-5.1-3.4-8.1c0-3.1,1.2-6,3.4-8.1c0.8-0.8,1.8-1.5,2.7-2c0,0,0.1,0,0.1,0
			c1.7-0.9,3.5-1.3,5.3-1.3c1.5,0,2.9,0.3,4.3,0.8c0,0,0,0,0.1,0c0.1,0.1,0.3,0.1,0.4,0.2c0.1,0,0.1,0.1,0.2,0.1
			c1.1,0.5,2.2,1.3,3.2,2.2c4.5,4.5,4.5,11.8,0,16.3C68.3,59.2,67.3,60,66.1,60.5C66.2,60.5,66.1,60.5,66.1,60.5z M61.6,49.1V45
			c1.4,0.1,1.9,0.7,2.4,0.7c0.6,0,0.9-0.8,0.9-1.1c0-1-1.9-1.4-3.3-1.4v-0.5c0-0.2-0.3-0.5-0.6-0.5c-0.3,0-0.6,0.2-0.6,0.5v0.6
			c-1.9,0.2-3.8,1.2-3.8,3.7c0,2.6,2,3.3,3.8,3.9v4.7c-2-0.2-2.6-1.6-3.2-1.6c-0.5,0-0.9,0.7-0.9,1.1c0,1,1.7,2.3,4.2,2.4h0v0.6
			c0,0.2,0.2,0.5,0.6,0.5c0.3,0,0.6-0.2,0.6-0.5v-0.7c2.2-0.3,3.6-1.7,3.6-4.1C65.3,50.6,63.4,49.7,61.6,49.1z M60.6,48.7
			c-1.1-0.4-1.9-0.8-1.9-2c0-1,0.8-1.5,1.9-1.7V48.7z M61.5,55.5v-4.2c1,0.4,1.8,1,1.8,2.2C63.3,54.7,62.6,55.3,61.5,55.5z"/>
	</g>
</g>
</svg>
