<?xml version="1.0" encoding="utf-8"?>
<!-- Generator: Adobe Illustrator 17.1.0, SVG Export Plug-In . SVG Version: 6.00 Build 0)  -->
<!DOCTYPE svg PUBLIC "-//W3C//DTD SVG 1.1//EN" "http://www.w3.org/Graphics/SVG/1.1/DTD/svg11.dtd">
<svg version="1.1" id="Layer_1" xmlns="http://www.w3.org/2000/svg" xmlns:xlink="http://www.w3.org/1999/xlink" x="0px" y="0px"
	 viewBox="0 0 81 81" enable-background="new 0 0 81 81" xml:space="preserve">
<g>
	<g>
		<path fill="#3E475B" d="M21.9,42.7l-1.8-1.8l-5.6,5.6l-1.7-1.7L11,46.6l3.5,3.5L21.9,42.7z M21.9,55.7l-1.8-1.8l-5.6,5.6l-1.7-1.7
			L11,59.6l3.5,3.5L21.9,55.7z M36.6,41.8H24.9v2.6h11.7V41.8z M36.6,47H24.9v2.6h11.7V47z M36.6,54.8H24.9v2.6h11.7V54.8z M36.6,60
			H24.9v2.6h11.7V60z M57.4,31.4h-7.8v7.8h7.8V31.4z M54.8,36.6h-2.6V34h2.6V36.6z M75.6,31.4H60V34h15.6V31.4z M70.4,36.6H60v2.6
			h10.4V36.6z M80.7,47V0.2H17.1V21h0.2c-0.8,0.7-1.4,1.6-1.9,2.6h-4.8v2.6H6.7c-3.6,0-6.5,2.9-6.5,6.5v41.5c0,3.6,2.9,6.5,6.5,6.5
			h33.8c3.6,0,6.5-2.9,6.5-6.5v-3.9h28.6c2.9,0,5.2-2.3,5.2-5.2v-0.8c0-5.3-4.3-9.6-9.6-9.6c-2.6,0-5,1-6.8,2.8l-1.7,1.7
			c-0.4,0.4-1,0.7-1.7,0.7c-1.3,0-2.4-1.1-2.4-2.4v-1.5h-2.6v1.5c0,0.9,0.2,1.7,0.6,2.4H47V47H80.7z M78.2,65.2
			c0,1.4-1.2,2.6-2.6,2.6h-9.1v-5.2h9.1C77,62.6,78.2,63.7,78.2,65.2z M66.3,59.4c1.3-1.3,3.1-2,4.9-2c2.2,0,4.2,1.1,5.5,2.7
			C76.3,60,75.9,60,75.6,60h-9.8L66.3,59.4z M49.6,62.6h14.3v5.2H49.6V62.6z M56.1,2.8h13V8h-2.6V5.4h-2.6V8h-2.6V5.4h-2.6V8h-2.6
			V2.8z M19.7,2.8h19.5v23.4h-2.6v-2.6h-4.8c-1.5-3.1-4.7-5.2-8.2-5.2c-1.4,0-2.7,0.3-3.9,0.9V2.8z M13.2,26.2h4l0.3-0.9
			c0.9-2.6,3.4-4.3,6.1-4.3c2.7,0,5.2,1.7,6.1,4.3l0.3,0.9h4V34H13.2V26.2z M36.6,36.6V34h2.6v20.8h2.6V31.4h-5.2v-2.6h3.9
			c2.1,0,3.9,1.7,3.9,3.9V61l-2.6,1.1v-4.7h-2.6v5.8l-4.6,2l4.6,2V73H8V34h2.6v2.6H36.6z M44.4,74.3c0,2.1-1.7,3.9-3.9,3.9H6.7
			c-2.1,0-3.9-1.7-3.9-3.9V32.7c0-2.1,1.7-3.9,3.9-3.9h3.9v2.6H5.4v44.1h36.4v-7.3l2.6,1.1V74.3z M47,67.7l-5.8-2.5l5.8-2.5V67.7z
			 M41.8,26.3V2.8h11.7v7.8h18.2V2.8h6.5v41.5H47V32.7C47,29.6,44.8,27,41.8,26.3z M73,39.2h2.6v-2.6H73V39.2z"/>
	</g>
</g>
</svg>
