<?xml version="1.0" encoding="utf-8"?>
<!-- Generator: Adobe Illustrator 17.1.0, SVG Export Plug-In . SVG Version: 6.00 Build 0)  -->
<!DOCTYPE svg PUBLIC "-//W3C//DTD SVG 1.1//EN" "http://www.w3.org/Graphics/SVG/1.1/DTD/svg11.dtd">
<svg version="1.1" id="Layer_1" xmlns="http://www.w3.org/2000/svg" xmlns:xlink="http://www.w3.org/1999/xlink" x="0px" y="0px"
	 viewBox="0 0 68 79" enable-background="new 0 0 68 79" xml:space="preserve">
<g>
	<g>
		<path fill="#3E475B" d="M45.5,70.3c-0.6,0.3-1.2,0.6-1.8,0.8l-11.7,4.7l-11.7-4.7c-5.4-2.2-9.9-5.8-12.8-10.5
			c-2.6-4-4-8.6-3.9-13.3V8.9c9.5,1.4,19.2-0.4,27.4-5l1.1-0.6L33,3.9c8.2,4.6,17.9,6.4,27.4,5v38.5c0,0.7,0.6,1.3,1.4,1.3
			c0.8,0,1.4-0.6,1.4-1.3v-40c0-0.7-0.6-1.3-1.4-1.3c-0.1,0-0.2,0-0.3,0c-9.3,1.7-19,0.2-27-4.4l-1.9-1.1c-0.5-0.3-1-0.3-1.5,0
			l-1.9,1.1c-8.1,4.5-17.7,6.1-27,4.4c-0.8-0.1-1.5,0.3-1.7,1c0,0.1,0,0.2,0,0.3v40C0.5,52.5,2,57.6,4.9,62
			c3.3,5.1,8.2,9.1,14.2,11.5l12.3,4.9c0.4,0.1,0.8,0.1,1.1,0l12.3-4.9c0.7-0.3,1.4-0.6,2-0.9c0.7-0.3,1-1.1,0.6-1.8
			C47,70.2,46.2,70,45.5,70.3z M31.2,12c0.7-0.3,1-1.1,0.6-1.8c-0.4-0.6-1.2-0.9-1.9-0.5c0,0-0.1,0-0.1,0.1
			c-6.6,3.5-14.3,4.7-21.8,3.4c-0.8-0.1-1.5,0.3-1.7,1c0,0.1,0,0.2,0,0.3v31.1c0,4.1,1.2,8.1,3.6,11.5c2.7,4.1,6.8,7.2,11.6,9.1
			c0.7,0.3,1.6,0,1.9-0.7c0.3-0.7,0-1.4-0.8-1.7c-4.3-1.6-7.9-4.4-10.3-8c-2.1-3.1-3.2-6.6-3.2-10.2V15.9
			C16.7,16.9,24.5,15.5,31.2,12z M67,65.9c-0.5-0.4-1.3-0.4-1.9,0l-6.8,6.2c-0.5-0.1-1-0.1-1.5,0L44.3,60.7c-0.6-0.5-1.5-0.5-2,0
			c-0.5,0.5-0.5,1.3,0,1.8L54.8,74c-0.4,1.4,0.4,2.8,1.9,3.2c0.3,0.1,0.5,0.1,0.8,0.1c1.6,0,2.9-1.2,2.9-2.6c0-0.2,0-0.4-0.1-0.7
			l6.8-6.2C67.7,67.2,67.6,66.4,67,65.9z M29,53.8c0.4,0,0.7-0.1,1-0.4l24.3-22.1c0.6-0.5,0.6-1.3,0-1.8l-5.7-5.2
			c-0.6-0.5-1.5-0.5-2,0L29,40.3L24.3,36c-0.6-0.5-1.5-0.5-2,0l-5.7,5.2c-0.6,0.5-0.6,1.3,0,1.8L28,53.4
			C28.3,53.7,28.7,53.8,29,53.8z M23.3,38.7L28,43c0.6,0.5,1.5,0.5,2,0l17.5-16l3.7,3.4L29,50.7l-9.4-8.6L23.3,38.7z"/>
	</g>
</g>
</svg>
