<?xml version="1.0" encoding="utf-8"?>
<!-- Generator: Adobe Illustrator 17.1.0, SVG Export Plug-In . SVG Version: 6.00 Build 0)  -->
<!DOCTYPE svg PUBLIC "-//W3C//DTD SVG 1.1//EN" "http://www.w3.org/Graphics/SVG/1.1/DTD/svg11.dtd">
<svg version="1.1" id="Layer_1" xmlns="http://www.w3.org/2000/svg" xmlns:xlink="http://www.w3.org/1999/xlink" x="0px" y="0px"
	 viewBox="0 0 79.5 79.5" enable-background="new 0 0 79.5 79.5" xml:space="preserve">
<g>
	<g>
		<path fill="#3E475B" d="M1.6,41.1c0.7,0,1.3-0.6,1.3-1.3c0-20.3,16.5-36.9,36.9-36.9c8.3,0,16.3,2.8,22.8,7.9h-7
			c-0.7,0-1.3,0.6-1.3,1.3s0.6,1.3,1.3,1.3H66c0.1,0,0.2,0,0.3,0h1.2V1.6c0-0.7-0.6-1.3-1.3-1.3c-0.7,0-1.3,0.6-1.3,1.3v7.7
			c-7.1-5.8-15.8-9-25-9C18,0.2,0.3,18,0.3,39.8C0.3,40.5,0.9,41.1,1.6,41.1z M39.8,10.8c-16,0-29,13-29,29s13,29,29,29s29-13,29-29
			S55.7,10.8,39.8,10.8z M39.8,66.1c-14.5,0-26.3-11.8-26.3-26.3c0-14.5,11.8-26.3,26.3-26.3c14.5,0,26.3,11.8,26.3,26.3
			C66.1,54.3,54.3,66.1,39.8,66.1z M39.8,20c0.7,0,1.3-0.6,1.3-1.3v-2.6c0-0.7-0.6-1.3-1.3-1.3c-0.7,0-1.3,0.6-1.3,1.3v2.6
			C38.4,19.4,39,20,39.8,20z M39.8,59.5c-0.7,0-1.3,0.6-1.3,1.3v2.6c0,0.7,0.6,1.3,1.3,1.3c0.7,0,1.3-0.6,1.3-1.3v-2.6
			C41.1,60.1,40.5,59.5,39.8,59.5z M60.8,41.1h2.6c0.7,0,1.3-0.6,1.3-1.3c0-0.7-0.6-1.3-1.3-1.3h-2.6c-0.7,0-1.3,0.6-1.3,1.3
			C59.5,40.5,60.1,41.1,60.8,41.1z M18.7,38.4h-2.6c-0.7,0-1.3,0.6-1.3,1.3c0,0.7,0.6,1.3,1.3,1.3h2.6c0.7,0,1.3-0.6,1.3-1.3
			C20,39,19.4,38.4,18.7,38.4z M41.1,33.4v-6.8c0-0.7-0.6-1.3-1.3-1.3c-0.7,0-1.3,0.6-1.3,1.3v6.8c-2.3,0.6-4,2.6-4,5.1
			c0,1,0.3,1.9,0.7,2.7L24.3,52c-0.5,0.5-0.5,1.3,0,1.9c0.3,0.3,0.6,0.4,0.9,0.4c0.3,0,0.7-0.1,0.9-0.4L37.1,43
			c0.8,0.5,1.7,0.7,2.7,0.7c2.9,0,5.3-2.4,5.3-5.3C45,36,43.3,33.9,41.1,33.4z M39.8,41.1c-1.5,0-2.6-1.2-2.6-2.6
			c0-1.5,1.2-2.6,2.6-2.6s2.6,1.2,2.6,2.6C42.4,39.9,41.2,41.1,39.8,41.1z M15.9,69.6c-0.4,0.6-0.3,1.4,0.3,1.8
			c0.2,0.2,0.5,0.3,0.8,0.3c0.4,0,0.8-0.2,1.1-0.5c0.4-0.6,0.3-1.4-0.3-1.8C17.2,68.9,16.4,69,15.9,69.6z M9.8,61.2
			c-0.4-0.6-1.3-0.7-1.8-0.3c-0.6,0.4-0.7,1.3-0.3,1.8c0.3,0.4,0.7,0.6,1.1,0.6c0.3,0,0.5-0.1,0.8-0.2C10.1,62.6,10.2,61.8,9.8,61.2
			z M10.3,64.1c-0.5,0.5-0.6,1.3-0.1,1.9c0.3,0.3,0.6,0.4,1,0.4c0.3,0,0.6-0.1,0.9-0.3c0.5-0.5,0.6-1.3,0.1-1.9
			C11.7,63.6,10.8,63.6,10.3,64.1z M14.8,66.9c-0.5-0.5-1.4-0.4-1.9,0.1c-0.5,0.5-0.5,1.4,0.1,1.9c0.3,0.2,0.6,0.3,0.9,0.3
			c0.4,0,0.7-0.1,1-0.4C15.4,68.2,15.4,67.4,14.8,66.9C14.8,66.9,14.8,66.9,14.8,66.9z M7.7,58C7.7,58,7.7,58,7.7,58
			c-0.4-0.6-1.2-0.9-1.8-0.5c-0.6,0.4-0.9,1.2-0.5,1.8c0.2,0.4,0.7,0.7,1.1,0.7c0.2,0,0.4-0.1,0.6-0.2C7.9,59.4,8.1,58.6,7.7,58z
			 M77.9,42.5C77.9,42.5,77.9,42.5,77.9,42.5c0.8,0,1.3-0.6,1.4-1.3c0-0.7-0.5-1.3-1.3-1.4c-0.7,0-1.3,0.5-1.4,1.3
			C76.6,41.9,77.1,42.5,77.9,42.5z M1.9,45c0.7-0.1,1.3-0.7,1.2-1.4c-0.1-0.7-0.7-1.3-1.4-1.2c-0.7,0.1-1.3,0.7-1.2,1.4
			C0.5,44.5,1.1,45,1.8,45C1.8,45,1.9,45,1.9,45z M2.7,48.9c0.7-0.1,1.2-0.8,1-1.6c-0.1-0.7-0.8-1.2-1.6-1c-0.7,0.1-1.2,0.8-1,1.6
			c0.1,0.6,0.7,1,1.3,1C2.5,48.9,2.6,48.9,2.7,48.9z M6,54.6c-0.3-0.7-1.1-1-1.7-0.7c-0.7,0.3-1,1.1-0.7,1.7
			c0.2,0.5,0.7,0.8,1.2,0.8c0.2,0,0.4,0,0.5-0.1C6,56,6.3,55.2,6,54.6z M4.6,51c-0.2-0.7-1-1.1-1.6-0.9c-0.7,0.2-1.1,1-0.9,1.7
			c0.2,0.6,0.7,0.9,1.3,0.9c0.1,0,0.3,0,0.4-0.1C4.5,52.5,4.9,51.7,4.6,51z M39.1,76.6c-0.7,0-1.3,0.6-1.3,1.3
			c0,0.7,0.6,1.3,1.3,1.3c0,0,0,0,0,0c0.7,0,1.3-0.6,1.3-1.3C40.4,77.2,39.8,76.6,39.1,76.6z M68.9,62.3c-0.4,0.6-0.3,1.4,0.2,1.8
			c0.3,0.2,0.5,0.3,0.8,0.3c0.4,0,0.8-0.2,1-0.5c0.4-0.6,0.3-1.4-0.2-1.8C70.2,61.6,69.3,61.7,68.9,62.3z M60.6,70.2
			c-0.6,0.4-0.8,1.2-0.3,1.8c0.3,0.4,0.7,0.6,1.1,0.6c0.3,0,0.5-0.1,0.8-0.2c0.6-0.4,0.8-1.2,0.3-1.8C62,69.9,61.2,69.7,60.6,70.2z
			 M63.6,67.8c-0.6,0.5-0.6,1.3-0.1,1.9c0.3,0.3,0.6,0.5,1,0.5c0.3,0,0.6-0.1,0.9-0.3c0.6-0.5,0.6-1.3,0.1-1.9
			C65,67.4,64.2,67.4,63.6,67.8z M72.9,58.8c-0.6-0.4-1.4-0.2-1.8,0.4c-0.4,0.6-0.2,1.4,0.4,1.8c0.2,0.1,0.5,0.2,0.7,0.2
			c0.4,0,0.9-0.2,1.1-0.6C73.7,60,73.5,59.2,72.9,58.8z M66.4,65.2c-0.5,0.5-0.5,1.4,0,1.9c0.3,0.2,0.6,0.4,0.9,0.4
			c0.3,0,0.7-0.1,0.9-0.4c0.5-0.5,0.5-1.4,0-1.9C67.7,64.7,66.9,64.7,66.4,65.2z M77.7,43.9c-0.7-0.1-1.4,0.4-1.5,1.1
			c-0.1,0.7,0.4,1.4,1.1,1.5c0.1,0,0.1,0,0.2,0c0.6,0,1.2-0.5,1.3-1.1C79,44.6,78.5,44,77.7,43.9z M77.1,47.7
			c-0.7-0.2-1.4,0.3-1.6,1c-0.2,0.7,0.3,1.4,1,1.6c0.1,0,0.2,0,0.3,0c0.6,0,1.1-0.4,1.3-1C78.3,48.6,77.8,47.9,77.1,47.7z
			 M20.9,71.4c-0.6-0.4-1.4-0.2-1.8,0.5c-0.4,0.6-0.2,1.4,0.4,1.8c0.2,0.1,0.4,0.2,0.7,0.2c0.4,0,0.9-0.2,1.1-0.6
			C21.8,72.6,21.6,71.8,20.9,71.4z M76.1,51.6c-0.7-0.2-1.4,0.1-1.7,0.8c-0.3,0.7,0.1,1.4,0.8,1.7c0.1,0.1,0.3,0.1,0.4,0.1
			c0.5,0,1.1-0.3,1.2-0.9C77.1,52.6,76.8,51.8,76.1,51.6z M74.7,55.3c-0.6-0.3-1.4-0.1-1.8,0.6c-0.3,0.7,0,1.4,0.6,1.8
			c0.2,0.1,0.4,0.1,0.6,0.1c0.5,0,1-0.3,1.2-0.7C75.6,56.4,75.3,55.6,74.7,55.3z M35.2,76.4c-0.7-0.1-1.4,0.4-1.5,1.1
			c-0.1,0.7,0.4,1.4,1.1,1.5v0c0.1,0,0.1,0,0.2,0c0.7,0,1.2-0.5,1.3-1.2C36.5,77.1,36,76.4,35.2,76.4z M27.8,74.7
			c-0.7-0.2-1.4,0.1-1.7,0.8c-0.2,0.7,0.1,1.4,0.8,1.7c0.1,0,0.3,0.1,0.4,0.1c0.5,0,1.1-0.3,1.2-0.9C28.9,75.6,28.5,74.9,27.8,74.7z
			 M31.5,75.7c-0.7-0.2-1.4,0.3-1.6,1c-0.2,0.7,0.3,1.4,1,1.6c0.1,0,0.2,0,0.3,0c0.6,0,1.1-0.4,1.3-1C32.7,76.6,32.2,75.9,31.5,75.7
			z M24.3,73.2c-0.7-0.3-1.4,0-1.8,0.6c-0.3,0.7,0,1.4,0.6,1.8c0.2,0.1,0.4,0.1,0.6,0.1c0.5,0,1-0.3,1.2-0.8
			C25.2,74.3,25,73.5,24.3,73.2z M46.6,76c-0.7,0.1-1.2,0.8-1.1,1.5c0.1,0.6,0.7,1.1,1.3,1.1c0.1,0,0.2,0,0.2,0
			c0.7-0.1,1.2-0.8,1.1-1.5C48,76.3,47.3,75.9,46.6,76z M50.3,75.1c-0.7,0.2-1.1,0.9-0.9,1.6c0.2,0.6,0.7,0.9,1.3,0.9
			c0.1,0,0.3,0,0.4-0.1c0.7-0.2,1.1-0.9,0.9-1.6C51.8,75.3,51,74.9,50.3,75.1z M53.9,73.8c-0.7,0.3-1,1.1-0.7,1.7
			c0.2,0.5,0.7,0.8,1.2,0.8c0.2,0,0.3,0,0.5-0.1c0.7-0.3,1-1.1,0.7-1.7C55.4,73.8,54.6,73.5,53.9,73.8z M42.9,76.5
			c-0.7,0.1-1.3,0.7-1.2,1.4c0.1,0.7,0.6,1.2,1.3,1.2c0,0,0.1,0,0.1,0v0c0.7-0.1,1.3-0.7,1.2-1.4C44.2,77,43.6,76.4,42.9,76.5z
			 M57.4,72.2c-0.6,0.3-0.9,1.1-0.5,1.8c0.2,0.4,0.7,0.7,1.2,0.7c0.2,0,0.4-0.1,0.6-0.2c0.6-0.3,0.9-1.1,0.5-1.8
			C58.8,72,58,71.8,57.4,72.2z"/>
	</g>
</g>
</svg>
