<?xml version="1.0" encoding="utf-8"?>
<!-- Generator: Adobe Illustrator 17.1.0, SVG Export Plug-In . SVG Version: 6.00 Build 0)  -->
<!DOCTYPE svg PUBLIC "-//W3C//DTD SVG 1.1//EN" "http://www.w3.org/Graphics/SVG/1.1/DTD/svg11.dtd">
<svg version="1.1" id="Layer_1" xmlns="http://www.w3.org/2000/svg" xmlns:xlink="http://www.w3.org/1999/xlink" x="0px" y="0px"
	 viewBox="0 0 87 70" enable-background="new 0 0 87 70" xml:space="preserve">
<g>
	<g>
		<path fill="#3E475B" d="M30.9,24.7c0.7,0,1.3-0.6,1.3-1.3v-9.7c0.9,0.1,1.9,0.1,2.8,0.1c0,0,0,0,0.1,0c0.7,0,1.3-0.5,1.3-1.2
			c0-0.7-0.5-1.3-1.2-1.3c-2.7-0.1-5.5-0.3-8.2-0.5c-0.7-0.1-1.3,0.5-1.4,1.2c-0.1,0.7,0.5,1.3,1.2,1.4c1,0.1,1.9,0.1,2.9,0.2v9.9
			C29.6,24.1,30.2,24.7,30.9,24.7z M66.8,23.8c0.7,0,1.3-0.6,1.3-1.3v-10c1-0.1,2-0.2,3-0.4c0.7-0.1,1.2-0.7,1.1-1.4
			c-0.1-0.7-0.7-1.2-1.5-1.1c-2.7,0.4-5.4,0.7-8.2,0.9c-0.7,0.1-1.2,0.7-1.2,1.4c0.1,0.7,0.6,1.2,1.3,1.2c0,0,0.1,0,0.1,0
			c0.9-0.1,1.8-0.2,2.7-0.3v9.7C65.6,23.2,66.1,23.8,66.8,23.8z M58.5,15.5v-0.4c0-1.1-0.4-2.1-1.2-2.9c-0.8-0.8-1.9-1.1-3-1.1
			c-1.1,0.1-2.2,0.1-3.2,0.1c-0.7,0-1.2,0.6-1.2,1.3v11.1c0,0.7,0.6,1.3,1.3,1.3s1.3-0.6,1.3-1.3v-3.8c0.9,0,1.8,0.3,2.5,1
			c0.7,0.6,1.1,1.5,1.1,2.5c0,0.7,0.6,1.3,1.3,1.3c0.7,0,1.3-0.6,1.3-1.3c0-1.7-0.7-3.2-1.8-4.4c0,0,0,0,0,0
			C57.7,18.2,58.5,16.9,58.5,15.5z M55.9,15.5c0,0.9-0.7,1.7-1.6,1.7h0c-0.6,0-1.3,0.1-1.9,0.1v-3.5c0.7,0,1.3-0.1,2-0.1
			c0.4,0,0.8,0.1,1.1,0.4c0.3,0.3,0.4,0.6,0.4,1V15.5z M45.3,25.1c0.7,0,1.3-0.6,1.3-1.3v-8.2c0-2.3-1.9-4.2-4.3-4.2
			c-1.2,0-2.2,0.4-3,1.2c-0.8,0.8-1.2,1.8-1.2,3v8.2c0,0.7,0.6,1.3,1.3,1.3c0.7,0,1.3-0.6,1.3-1.3v-3.8c0.9,0,1.9,0,2.8,0
			c0.2,0,0.4,0,0.5,0v3.8C44.1,24.5,44.6,25.1,45.3,25.1z M44.1,17.4c-1.1,0-2.2,0-3.4,0v-1.8c0-0.4,0.2-0.8,0.5-1.1
			c0.3-0.3,0.7-0.5,1.2-0.5c0.9,0,1.7,0.7,1.7,1.7V17.4z M18.7,12.5c1,0.1,2.1,0.2,3.1,0.4c0.7,0.1,1.3-0.4,1.4-1.1
			c0.1-0.7-0.4-1.3-1.1-1.4c-1-0.1-2.1-0.2-3.1-0.4c-1.1-0.1-2.2,0.2-3,0.9c-0.8,0.7-1.2,1.7-1.2,2.8c0,2.2,1.7,4.1,3.9,4.4l0.3,0
			c0.9,0.1,1.6,0.9,1.6,1.8c0,0.4-0.1,0.7-0.4,0.9c-0.2,0.2-0.6,0.3-1,0.3c-1-0.1-2.1-0.3-3.1-0.4c-0.7-0.1-1.4,0.4-1.5,1.1
			c-0.1,0.7,0.4,1.3,1.1,1.4c1,0.1,2.1,0.3,3.1,0.4c0.2,0,0.3,0,0.5,0c0.9,0,1.8-0.3,2.5-0.9c0.8-0.7,1.3-1.7,1.3-2.8
			c0-2.2-1.7-4.1-3.9-4.4l-0.3,0c-0.9-0.1-1.6-1-1.6-1.9c0-0.4,0.1-0.7,0.4-0.9C18,12.6,18.3,12.5,18.7,12.5z M86.5,0.6
			c-0.3-0.2-0.7-0.4-1-0.3c-23.8,3.4-48,3.9-72,1.4c-0.7-0.1-1.3,0.4-1.4,1.1c-0.1,0.7,0.4,1.3,1.2,1.4c23.6,2.4,47.6,2,71.1-1.3
			v24.7c-27.1,3.7-54.6,3.7-81.7,0V3c2,0.3,4,0.5,6,0.8c0.7,0.1,1.3-0.4,1.4-1.1C10.1,2,9.6,1.3,8.9,1.3C6.5,1,4,0.6,1.6,0.3
			c-0.4-0.1-0.7,0.1-1,0.3c-0.3,0.2-0.4,0.6-0.4,1v27.3c0,0.6,0.5,1.2,1.1,1.3c0.9,0.1,1.9,0.3,2.8,0.4v37.9c0,0.7,0.6,1.3,1.3,1.3
			h5.2c0.7,0,1.3-0.6,1.3-1.3v-37c10.5,1.1,21.1,1.7,31.7,1.7c10.6,0,21.2-0.6,31.7-1.7v11.4c0,0.7,0.6,1.3,1.3,1.3
			c0.7,0,1.3-0.6,1.3-1.3V31.1c0.9-0.1,1.7-0.2,2.6-0.3v36.3h-2.6v-20c0-0.7-0.6-1.3-1.3-1.3c-0.7,0-1.3,0.6-1.3,1.3v21.3
			c0,0.7,0.6,1.3,1.3,1.3h5.2c0.7,0,1.3-0.6,1.3-1.3V30.5c0.9-0.1,1.9-0.3,2.8-0.4c0.6-0.1,1.1-0.6,1.1-1.3V1.6
			C86.9,1.2,86.8,0.8,86.5,0.6z M9.2,67.1H6.6V30.8c0.9,0.1,1.7,0.2,2.6,0.3V67.1z"/>
	</g>
</g>
</svg>
