<?xml version="1.0" encoding="utf-8"?>
<!-- Generator: Adobe Illustrator 17.1.0, SVG Export Plug-In . SVG Version: 6.00 Build 0)  -->
<!DOCTYPE svg PUBLIC "-//W3C//DTD SVG 1.1//EN" "http://www.w3.org/Graphics/SVG/1.1/DTD/svg11.dtd">
<svg version="1.1" id="Layer_1" xmlns="http://www.w3.org/2000/svg" xmlns:xlink="http://www.w3.org/1999/xlink" x="0px" y="0px"
	 viewBox="0 0 75.7 75.6" enable-background="new 0 0 75.7 75.6" xml:space="preserve">
<g>
	<g>
		<path fill="#3E475B" d="M50,46.6c-0.7,0.2-1,1-0.8,1.6c0,0,0,0,0,0c1.1,3,1.2,5.3,0.2,6.3c-1.2,1.2-4.3,0.8-8.1-1
			c-5.2-2.7-9.9-6.2-13.9-10.4c-9.9-9.9-13.9-19.5-11.4-22c0.8-0.6,1.8-0.9,2.8-0.7c0.7,0.1,1.3-0.5,1.3-1.2c0-0.7-0.4-1.3-1.1-1.3
			c-1.7-0.3-3.5,0.2-4.9,1.4C9.6,24,16.7,36,25.6,45c4.3,4.4,9.2,8.1,14.6,10.9c1,0.5,2,0.9,3,1.2l-8.9,3.4
			c-11.9-4.5-20.5-15.1-22.5-27.7c-0.1-0.7-0.8-1.2-1.4-1c-0.7,0.1-1.2,0.8-1,1.4c0.2,1.3,0.5,2.5,0.8,3.7
			c2.9,11,10.5,20.1,20.8,24.9l-14.7,5.6c-0.1-0.1-0.2-0.2-0.3-0.3c-3.7-3-6.1-7.4-6.5-12.2l-0.6-7.1c0-0.7-0.6-1.2-1.3-1.2
			c0,0,0,0,0,0c-0.7,0.1-1.2,0.7-1.2,1.4c0,0,0,0,0,0L7,55c0.4,5.1,2.8,9.8,6.7,13.3l-10.5,4L5,64.5c0.2-0.7-0.2-1.4-0.9-1.5
			c-0.7-0.2-1.4,0.2-1.5,0.9L0.1,74c-0.2,0.7,0.2,1.4,0.9,1.5c0.2,0.1,0.5,0,0.7,0l46.6-17.6c0.1,0,0.1-0.1,0.2-0.1
			c1-0.2,1.9-0.6,2.7-1.3c1.2-1.2,2.3-3.8,0.3-9C51.3,46.7,50.6,46.4,50,46.6z M42.1,42.1l-4.5,0.8c-0.7,0.1-1.1,0.8-1,1.5
			c0.1,0.7,0.7,1.1,1.4,1l4.5-0.7c6.7-1.1,13.6-0.4,20,1.9c0.1,0.1,0.3,0.1,0.4,0.1c0.7,0,1.3-0.6,1.3-1.3c0-0.5-0.3-1-0.8-1.2
			C56.6,41.6,49.3,40.9,42.1,42.1z M67.9,24.7c-0.3-0.6-1-0.9-1.7-0.6L39.8,36.6c-0.6,0.3-0.9,1-0.6,1.7l0,0c0.3,0.6,1,0.9,1.7,0.6
			c0,0,0,0,0,0l26.4-12.6C68,26,68.2,25.3,67.9,24.7z M25.2,36.4c0.2,0.1,0.3,0.1,0.5,0.1c0.5,0,1-0.3,1.2-0.8l1.8-4.4
			c3-7.2,3.7-15.2,2-22.8c-0.1-0.7-0.8-1.1-1.5-1c-0.7,0.1-1.1,0.8-1,1.5c0,0,0,0,0,0c1.6,7.1,0.9,14.5-1.9,21.3l-1.8,4.4
			C24.2,35.4,24.5,36.2,25.2,36.4z M69.3,52.9c2.1,0,3.8-1.7,3.8-3.8c0-2.1-1.7-3.8-3.8-3.8c-2.1,0-3.8,1.7-3.8,3.8
			C65.5,51.2,67.2,52.9,69.3,52.9z M69.3,47.8c0.7,0,1.3,0.6,1.3,1.3c0,0.7-0.6,1.3-1.3,1.3c-0.7,0-1.3-0.6-1.3-1.3
			C68,48.4,68.6,47.8,69.3,47.8z M39.1,17.7c2.1,0,3.8-1.7,3.8-3.8c0-2.1-1.7-3.8-3.8-3.8c-2.1,0-3.8,1.7-3.8,3.8
			C35.3,16,37,17.7,39.1,17.7z M39.1,12.6c0.7,0,1.3,0.6,1.3,1.3s-0.6,1.3-1.3,1.3c-0.7,0-1.3-0.6-1.3-1.3S38.4,12.6,39.1,12.6z
			 M27.8,5.1c1.4,0,2.5-1.1,2.5-2.5c0-1.4-1.1-2.5-2.5-2.5c-1.4,0-2.5,1.1-2.5,2.5C25.3,4,26.4,5.1,27.8,5.1z M63,6.3
			c-0.7,0-1.3,0.6-1.3,1.3v1.3c0,0.7,0.6,1.3,1.3,1.3c0.7,0,1.3-0.6,1.3-1.3V7.6C64.3,6.9,63.7,6.3,63,6.3z M63,3.8
			c0.7,0,1.3-0.6,1.3-1.3V1.3C64.3,0.6,63.7,0,63,0c-0.7,0-1.3,0.6-1.3,1.3v1.3C61.8,3.3,62.3,3.8,63,3.8z M65.5,6.3h1.3
			c0.7,0,1.3-0.6,1.3-1.3c0-0.7-0.6-1.3-1.3-1.3h-1.3c-0.7,0-1.3,0.6-1.3,1.3C64.3,5.8,64.8,6.3,65.5,6.3z M59.2,6.3h1.3
			c0.7,0,1.3-0.6,1.3-1.3c0-0.7-0.6-1.3-1.3-1.3h-1.3c-0.7,0-1.3,0.6-1.3,1.3C58,5.8,58.5,6.3,59.2,6.3z M47.9,22.7h6.3
			c0.7,0,1.3-0.6,1.3-1.3v-6.3c0-0.7-0.6-1.3-1.3-1.3h-6.3c-0.7,0-1.3,0.6-1.3,1.3v6.3C46.6,22.1,47.2,22.7,47.9,22.7z M49.1,16.4
			h3.8v3.8h-3.8V16.4z M30.6,37.4c0.5,0.5,1.3,0.6,1.8,0.1L45,26.1c0.5-0.5,0.5-1.3,0.1-1.8c-0.5-0.5-1.2-0.5-1.7-0.1L30.7,35.6
			C30.2,36.1,30.2,36.9,30.6,37.4z M66.8,30.2v1.3c0,0.7,0.6,1.3,1.3,1.3c0.7,0,1.3-0.6,1.3-1.3v-1.3c0-0.7-0.6-1.3-1.3-1.3
			C67.3,29,66.8,29.5,66.8,30.2z M73.4,28.8l-0.9-0.9c-0.5-0.5-1.3-0.5-1.8,0c-0.5,0.5-0.5,1.3,0,1.7l0.9,0.9c0.5,0.5,1.3,0.5,1.8,0
			C73.9,30,73.9,29.3,73.4,28.8z M71.8,25.2c0,0.7,0.6,1.3,1.3,1.3h1.3c0.7,0,1.3-0.6,1.3-1.3c0-0.7-0.6-1.3-1.3-1.3h-1.3
			C72.4,23.9,71.8,24.5,71.8,25.2z M71.6,22.9c0.3,0,0.7-0.1,0.9-0.4l0.9-0.9c0.5-0.5,0.5-1.3,0-1.8c-0.5-0.5-1.3-0.5-1.7,0
			l-0.9,0.9c-0.5,0.5-0.5,1.3,0,1.8C70.9,22.8,71.3,22.9,71.6,22.9z M66.8,18.9v1.3c0,0.7,0.6,1.3,1.3,1.3c0.7,0,1.3-0.6,1.3-1.3
			v-1.3c0-0.7-0.6-1.3-1.3-1.3C67.3,17.7,66.8,18.2,66.8,18.9z M62.7,19.9c-0.5,0.5-0.5,1.3,0,1.7l0.9,0.9c0.5,0.5,1.3,0.5,1.8,0
			c0.5-0.5,0.5-1.3,0-1.7l-0.9-0.9C64,19.4,63.2,19.4,62.7,19.9z M3.1,9.4l-0.6,3.7c-0.1,0.7,0.3,1.3,1,1.5c0.3,0,0.6,0,0.8-0.1
			l3.3-1.7l3.3,1.7c0.6,0.3,1.4,0.1,1.7-0.5c0.1-0.2,0.2-0.5,0.1-0.8l-0.6-3.7l2.7-2.6c0.3-0.3,0.5-0.8,0.3-1.3
			c-0.1-0.5-0.5-0.8-1-0.9l-3.7-0.5L8.8,0.7C8.4,0.1,7.6-0.1,7,0.3C6.8,0.4,6.6,0.6,6.5,0.7L4.9,4.1L1.2,4.6C0.5,4.7,0,5.4,0.1,6.1
			c0,0.3,0.2,0.5,0.4,0.7L3.1,9.4z M5.9,6.5c0.4-0.1,0.8-0.3,0.9-0.7l0.8-1.7l0.8,1.7C8.6,6.2,9,6.4,9.4,6.5l1.8,0.3L9.9,8
			C9.6,8.3,9.5,8.7,9.5,9.2L9.9,11l-1.6-0.9c-0.4-0.2-0.8-0.2-1.2,0L5.4,11l0.3-1.8C5.8,8.7,5.7,8.3,5.4,8L4.1,6.8L5.9,6.5z
			 M71.3,63.1L71.3,63.1l-0.5-0.8c-2.9-4.3-7.5-7.3-12.6-8.2c-0.7-0.1-1.3,0.4-1.4,1.1c-0.1,0.7,0.3,1.3,1,1.4
			c3.7,0.6,7.1,2.5,9.6,5.4c-2.1,0.4-3.9,1.6-5,3.5c-1.4,2.4-0.5,5.5,1.9,6.8c2.4,1.4,5.5,0.5,6.8-1.9c0.5-1,0.8-2.1,0.8-3.2
			c1.3,1.9,1.4,4.5,0.3,6.5c-0.4,0.6-0.2,1.4,0.4,1.7c0.6,0.4,1.4,0.2,1.7-0.4c0,0,0,0,0-0.1C76.7,70.8,75.4,65.6,71.3,63.1z
			 M68.9,69.1c-0.7,1.2-2.2,1.7-3.4,1c-1.2-0.7-1.7-2.2-1-3.4c0,0,0,0,0,0c0.7-1.2,2-2,3.4-2.2c0.2,0,0.4,0,0.6,0.1
			C69.6,65.2,69.7,67.8,68.9,69.1z"/>
	</g>
</g>
</svg>
