<?xml version="1.0" encoding="utf-8"?>
<!-- Generator: Adobe Illustrator 17.1.0, SVG Export Plug-In . SVG Version: 6.00 Build 0)  -->
<!DOCTYPE svg PUBLIC "-//W3C//DTD SVG 1.1//EN" "http://www.w3.org/Graphics/SVG/1.1/DTD/svg11.dtd">
<svg version="1.1" id="Layer_1" xmlns="http://www.w3.org/2000/svg" xmlns:xlink="http://www.w3.org/1999/xlink" x="0px" y="0px"
	 viewBox="0 0 65 74" enable-background="new 0 0 65 74" xml:space="preserve">
<g>
	<g>
		<path fill="#3E475B" d="M64.4,21.1L44.6,0.5c-0.2-0.2-0.4-0.3-0.8-0.3H1.4c-0.7,0-1.1,0.4-1.1,1.1v71.5c0,0.7,0.4,1.1,1.1,1.1
			h62.3c0.7,0,1.1-0.4,1.1-1.1V21.9C64.7,21.7,64.6,21.4,64.4,21.1z M45,4.1l16.1,16.7H45V4.1z M62.5,71.6h-60V2.4h40.2v19.5
			c0,0.7,0.4,1.1,1.1,1.1h18.7V71.6z M21.4,5.8H7.2C6.5,5.8,6,6.3,6,7v14.3c0,0.7,0.4,1.1,1.1,1.1h14.2c0.7,0,1.1-0.4,1.1-1.1V7
			C22.5,6.3,22,5.8,21.4,5.8z M20.3,20.1h-12V8.1h12V20.1z M17.2,28.5H8c-0.7,0-1.1,0.4-1.1,1.1v8.8c0,0.7,0.4,1.1,1.1,1.1h9.1
			c0.7,0,1.1-0.4,1.1-1.1v-8.8C18.3,29,17.8,28.5,17.2,28.5z M16,37.3H9.2v-6.6H16V37.3z M17.2,42.5H8c-0.7,0-1.1,0.4-1.1,1.1v8.8
			c0,0.7,0.4,1.1,1.1,1.1h9.1c0.7,0,1.1-0.4,1.1-1.1v-8.8C18.3,43,17.8,42.5,17.2,42.5z M16,51.3H9.2v-6.6H16V51.3z M17.2,56.5H8
			c-0.7,0-1.1,0.4-1.1,1.1v8.8c0,0.7,0.4,1.1,1.1,1.1h9.1c0.7,0,1.1-0.4,1.1-1.1v-8.8C18.3,57,17.8,56.5,17.2,56.5z M16,65.4H9.2
			v-6.6H16V65.4z M27.4,9.4h10.3c0.7,0,1.1-0.4,1.1-1.1c0-0.7-0.4-1.1-1.1-1.1H27.4c-0.7,0-1.1,0.4-1.1,1.1
			C26.3,8.9,26.7,9.4,27.4,9.4z M27.4,15.2h10.3c0.7,0,1.1-0.4,1.1-1.1S38.4,13,37.7,13H27.4c-0.7,0-1.1,0.4-1.1,1.1
			C26.3,14.8,26.7,15.2,27.4,15.2z M27.4,21h10.3c0.7,0,1.1-0.4,1.1-1.1c0-0.7-0.4-1.1-1.1-1.1H27.4c-0.7,0-1.1,0.4-1.1,1.1
			C26.3,20.6,26.7,21,27.4,21z M22.7,38.5c0,0.7,0.4,1.1,1.1,1.1h29.9c0.7,0,1.1-0.4,1.1-1.1c0-0.7-0.6-1.1-1.1-1.1H23.8
			C23.2,37.3,22.7,37.8,22.7,38.5z M53.7,51.3H23.8c-0.7,0-1.1,0.4-1.1,1.1c0,0.7,0.4,1.1,1.1,1.1h29.9c0.7,0,1.1-0.4,1.1-1.1
			C54.8,51.9,54.3,51.3,53.7,51.3z M53.7,65.4H23.8c-0.7,0-1.1,0.4-1.1,1.1c0,0.7,0.4,1.1,1.1,1.1h29.9c0.7,0,1.1-0.4,1.1-1.1
			C54.8,65.8,54.3,65.4,53.7,65.4z M42.8,27.2l-8.1,6l-1.2-3.5c-0.2-0.6-0.9-0.9-1.4-0.7c-0.6,0.2-0.9,0.9-0.7,1.5l1.8,4.9
			c0.1,0.3,0.4,0.6,0.8,0.7c0.3,0.1,0.7,0,1-0.2l9.2-6.9c0.4-0.3,0.6-1.1,0.2-1.6C44.1,27,43.3,26.8,42.8,27.2z M33.9,50.4
			c0.3,0.1,0.7,0,1-0.2l9.2-6.9c0.4-0.3,0.6-1.1,0.2-1.6c-0.3-0.4-1.1-0.6-1.6-0.2l-8.1,6l-1.2-3.6c-0.2-0.6-0.9-0.9-1.4-0.7
			c-0.6,0.2-0.9,0.9-0.7,1.5l1.8,4.9C33.3,50.1,33.6,50.3,33.9,50.4z M33.9,64.1c0.3,0.1,0.7,0,1-0.2l9.2-6.9
			c0.4-0.3,0.6-1.1,0.2-1.6c-0.3-0.4-1.1-0.6-1.6-0.2l-8.1,6.1l-1.2-3.6c-0.2-0.6-0.9-0.9-1.4-0.7c-0.6,0.2-0.9,0.9-0.7,1.5l1.8,4.9
			C33.3,63.8,33.6,64,33.9,64.1z"/>
	</g>
</g>
</svg>
