<?xml version="1.0" encoding="utf-8"?>
<!-- Generator: Adobe Illustrator 17.1.0, SVG Export Plug-In . SVG Version: 6.00 Build 0)  -->
<!DOCTYPE svg PUBLIC "-//W3C//DTD SVG 1.1//EN" "http://www.w3.org/Graphics/SVG/1.1/DTD/svg11.dtd">
<svg version="1.1" id="Layer_1" xmlns="http://www.w3.org/2000/svg" xmlns:xlink="http://www.w3.org/1999/xlink" x="0px" y="0px"
	 viewBox="0 0 78 91" enable-background="new 0 0 78 91" xml:space="preserve">
<g>
	<g>
		<path fill="#3E475B" d="M31.8,30.3c0,3,2.4,5.4,5.4,5.4c3,0,5.4-2.4,5.4-5.4c0-1.1-0.4-2.2-0.9-3l13.2-16.8
			c0.7,0.3,1.4,0.5,2.2,0.5c3,0,5.4-2.4,5.4-5.4c0-3-2.4-5.4-5.4-5.4c-3,0-5.4,2.4-5.4,5.4c0,1.2,0.4,2.4,1.1,3.3L39.5,25.6
			C38.8,25.2,38,25,37.1,25c-1.3,0-2.5,0.5-3.4,1.2l-7.5-6c0.4-0.7,0.6-1.6,0.6-2.4c0-3-2.4-5.4-5.4-5.4c-3,0-5.4,2.4-5.4,5.4
			c0,1,0.3,1.9,0.7,2.7l-8.2,7.4c-0.8-0.5-1.8-0.9-2.9-0.9c-3,0-5.4,2.4-5.4,5.4c0,3,2.4,5.4,5.4,5.4c3,0,5.4-2.4,5.4-5.4
			c0-0.9-0.2-1.8-0.7-2.6l8.3-7.4c0.8,0.5,1.7,0.8,2.7,0.8c1.1,0,2.2-0.3,3-0.9l7.7,6.1C31.9,29,31.8,29.6,31.8,30.3z M56.9,2.9
			c1.5,0,2.7,1.2,2.7,2.7c0,1.5-1.2,2.7-2.7,2.7c-1.5,0-2.7-1.2-2.7-2.7C54.2,4.1,55.4,2.9,56.9,2.9z M37.1,27.6
			c1.5,0,2.7,1.2,2.7,2.7c0,1.5-1.2,2.7-2.7,2.7c-1.5,0-2.7-1.2-2.7-2.7C34.4,28.9,35.6,27.6,37.1,27.6z M5.7,35.1
			c-1.5,0-2.7-1.2-2.7-2.7c0-1.5,1.2-2.7,2.7-2.7c1.5,0,2.7,1.2,2.7,2.7C8.4,33.9,7.2,35.1,5.7,35.1z M21.4,20.5
			c-1.5,0-2.7-1.2-2.7-2.7s1.2-2.7,2.7-2.7s2.7,1.2,2.7,2.7S22.9,20.5,21.4,20.5z M75,46.9c-2.1-1.2-5.1-1.1-7.2,1.8l-5,6.6V41
			c0-0.7-0.6-1.3-1.3-1.3c-0.7,0-1.3,0.6-1.3,1.3v18.3c0,1.3,1.6,1.8,2.4,0.8l7.4-9.7c0,0,0,0,0,0c1.2-1.7,2.7-1.7,3.7-1.1
			c1,0.6,1.8,1.9,1.1,3.3c0,0,0,0,0,0l-7.7,17.5c-1.3,2.7-2.9,4-5,6.1c-1.9,1.9-2,5.1-1.9,7.8c0,1.4,0.1,2.9-0.6,3.6
			c-0.3,0.3-0.9,0.5-1.7,0.5h-6.4c-0.7,0-1.3,0.6-1.3,1.3c0,0.7,0.6,1.3,1.3,1.3h6.4c1.5,0,2.8-0.4,3.6-1.3c1.4-1.5,1.4-3.7,1.3-5.5
			c0-1.7-0.1-4.7,1.1-5.9c2.1-2.1,4.1-3.8,5.6-6.9c0,0,0,0,0,0l7.7-17.5C78.5,50.8,77.1,48.1,75,46.9z M52.4,44.7c0,6.5,0,3.6,0,9.5
			c0,0.7,0.6,1.3,1.3,1.3c0.7,0,1.3-0.6,1.3-1.3c0-32.1,0-30,0-33.2c0-1.4,1.2-2.6,2.6-2.6h0c1.4,0,2.6,1.2,2.6,2.6v13.8
			c0,0.7,0.6,1.3,1.3,1.3c0.7,0,1.3-0.6,1.3-1.3V21c0-2.9-2.3-5.2-5.2-5.2h0c-2.9,0-5.2,2.3-5.2,5.2c0,2.5,0,1.8,0,19.3
			c-0.8-0.4-1.7-0.7-2.6-0.7c-1.8,0-3.4,0.9-4.3,2.3c-0.9-0.8-2.1-1.3-3.4-1.3c-1.7,0-3.3,0.9-4.2,2.2c-0.9-0.9-2.2-1.4-3.5-1.4
			c-2.9,0-5.2,2.3-5.2,5.2c0,11,0,20.7,0,22.5c0,7.5,5.6,7.3,5.6,12.1l0,4.4c0,2.9,1.6,4.8,4.2,5.1c0,0,0.1,0,0.1,0h6.3
			c0.7,0,1.3-0.6,1.3-1.3c0-0.7-0.6-1.3-1.3-1.3H39c-1.2-0.2-1.8-0.9-1.8-2.5l0-4.4c0-6.4-5.6-5.8-5.6-12.1c0-20.3,0-15.3,0-22.5
			c0-1.4,1.1-2.6,2.6-2.6s2.6,1.1,2.6,2.6v7.6c0,0.7,0.6,1.3,1.3,1.3c0.7,0,1.3-0.6,1.3-1.3v-8.4c0-1.4,1.1-2.6,2.6-2.6
			s2.6,1.1,2.6,2.6v8.4c0,0.7,0.6,1.3,1.3,1.3c0.7,0,1.3-0.6,1.3-1.3v-9.5c0-1.4,1.1-2.6,2.6-2.6C51.2,42.2,52.4,43.3,52.4,44.7z"/>
	</g>
</g>
</svg>
