<?xml version="1.0" encoding="utf-8"?>
<!-- Generator: Adobe Illustrator 17.1.0, SVG Export Plug-In . SVG Version: 6.00 Build 0)  -->
<!DOCTYPE svg PUBLIC "-//W3C//DTD SVG 1.1//EN" "http://www.w3.org/Graphics/SVG/1.1/DTD/svg11.dtd">
<svg version="1.1" id="Layer_1" xmlns="http://www.w3.org/2000/svg" xmlns:xlink="http://www.w3.org/1999/xlink" x="0px" y="0px"
	 viewBox="0 0 80 88" enable-background="new 0 0 80 88" xml:space="preserve">
<g>
	<g>
		<path fill="#3E475B" d="M79.5,72.2L61.4,54l7.3-2.7c0.6-0.2,1-0.9,0.9-1.5l-2-11.1l5.6-9.8c0.3-0.6,0.2-1.3-0.3-1.7l-8.6-7.3
			l-2-11.1c-0.1-0.7-0.7-1.1-1.3-1.1H49.7l-8.6-7.3c-0.5-0.4-1.2-0.4-1.8,0l-8.6,7.3H19.4c-0.7,0-1.2,0.5-1.3,1.1l-2,11.1l-8.6,7.3
			c-0.5,0.4-0.6,1.2-0.3,1.7l5.6,9.8l-2,11.1c-0.1,0.7,0.3,1.3,0.9,1.5l7,2.6L0.5,72.2c-0.4,0.4-0.5,0.9-0.3,1.4
			c0.2,0.5,0.6,0.8,1.2,0.9l11.2,0.9l0.9,11.2c0,0.5,0.4,1,0.9,1.2c0.2,0.1,0.3,0.1,0.5,0.1c0.4,0,0.7-0.1,1-0.4L40,63.3l24.1,24.2
			c0.3,0.3,0.6,0.4,1,0.4c0.2,0,0.3,0,0.5-0.1c0.5-0.2,0.8-0.6,0.9-1.2l0.9-11.2l11.2-0.9c0.5,0,1-0.4,1.2-0.9
			C80,73.1,79.9,72.5,79.5,72.2z M16,83.5L15.2,74c-0.1-0.7-0.6-1.2-1.2-1.3L4.5,72l17-17l0.8,0.3L28,65c0.3,0.4,0.7,0.7,1.2,0.7
			c0.2,0,0.3,0,0.5-0.1l6.7-2.4L16,83.5z M41.3,59.3L40.7,59c-0.3-0.1-0.6-0.1-0.9,0l-1,0.3l-9,3.3l-5.3-9.2
			c-0.2-0.3-0.4-0.5-0.7-0.6l-2-0.7l-7.9-2.9l1.8-10.5c0.1-0.3,0-0.6-0.2-0.9l-5.3-9.2l8.1-6.8c0.2-0.2,0.4-0.5,0.5-0.8l1.8-10.5
			h10.6c0.3,0,0.6-0.1,0.9-0.3l8.1-6.8l8.1,6.8c0.2,0.2,0.6,0.3,0.9,0.3h10.6l1.8,10.5c0.1,0.3,0.2,0.6,0.5,0.8l8.1,6.8L65,37.8
			c-0.2,0.3-0.2,0.6-0.2,0.9l1.8,10.5l-8.3,3l-1.7,0.6c-0.3,0.1-0.6,0.3-0.7,0.6l-5.3,9.2L41.3,59.3C41.3,59.3,41.3,59.3,41.3,59.3z
			 M66,72.8c-0.7,0.1-1.2,0.6-1.2,1.3L64,83.5L43.5,63l7.3,2.7c0.2,0.1,0.3,0.1,0.5,0.1c0.5,0,0.9-0.3,1.2-0.7l5.6-9.8l0.5-0.2
			L75.5,72L66,72.8z M61.8,33.7c0-12-9.8-21.8-21.8-21.8c-12,0-21.8,9.8-21.8,21.8c0,12,9.8,21.8,21.8,21.8
			C52,55.5,61.8,45.7,61.8,33.7z M40,52.7c-10.5,0-19.1-8.6-19.1-19.1S29.5,14.6,40,14.6c10.5,0,19.1,8.6,19.1,19.1
			C59.1,44.2,50.5,52.7,40,52.7z M55.7,29.3c-0.2-0.6-0.7-0.9-1.3-0.9H44.3l-3.1-9.6c-0.2-0.6-0.7-0.9-1.3-0.9
			c-0.6,0-1.1,0.4-1.3,0.9l-3.1,9.6H25.4c-0.6,0-1.1,0.4-1.3,0.9c-0.2,0.6,0,1.2,0.5,1.5l8.2,5.9l-3.1,9.6c-0.2,0.6,0,1.2,0.5,1.5
			c0.2,0.2,0.5,0.3,0.8,0.3c0.3,0,0.6-0.1,0.8-0.3l8.2-5.9l8.2,5.9c0.5,0.3,1.1,0.3,1.6,0c0.5-0.3,0.7-1,0.5-1.5l-3.1-9.6l8.2-5.9
			C55.7,30.5,55.9,29.9,55.7,29.3z M44.7,35.1c-0.5,0.3-0.7,1-0.5,1.5l2.1,6.6l-5.6-4c-0.5-0.3-1.1-0.3-1.6,0l-5.6,4l2.1-6.6
			c0.2-0.6,0-1.2-0.5-1.5l-5.6-4h6.9c0.6,0,1.1-0.4,1.3-0.9l2.1-6.6l2.1,6.6c0.2,0.6,0.7,0.9,1.3,0.9h6.9L44.7,35.1z"/>
	</g>
</g>
</svg>
