<?xml version="1.0" encoding="utf-8"?>
<!-- Generator: Adobe Illustrator 17.1.0, SVG Export Plug-In . SVG Version: 6.00 Build 0)  -->
<!DOCTYPE svg PUBLIC "-//W3C//DTD SVG 1.1//EN" "http://www.w3.org/Graphics/SVG/1.1/DTD/svg11.dtd">
<svg version="1.1" id="Layer_1" xmlns="http://www.w3.org/2000/svg" xmlns:xlink="http://www.w3.org/1999/xlink" x="0px" y="0px"
	 viewBox="0 0 76 81" enable-background="new 0 0 76 81" xml:space="preserve">
<g>
	<g>
		<path fill="#3E475B" d="M58.6,46.6c-1,0-2,0.3-2.8,0.8c-0.2-2.7-2.4-4.8-5.2-4.8c-1.4,0-2.6,0.5-3.6,1.4c-0.9-1.5-2.6-2.4-4.4-2.4
			c-1,0-2,0.3-2.8,0.8v-9.8c0-2.9-2.3-5.2-5.2-5.2c-1.4,0-2.7,0.5-3.7,1.5c-1,1-1.5,2.3-1.5,3.7v15.9c-0.7-0.9-1.7-1.6-2.9-1.9
			c-1.5-0.4-3-0.2-4.4,0.5c-1.3,0.7-2.3,2-2.7,3.5c-0.4,1.5-0.2,3,0.5,4.4c0.8,1.5,1,5.1,1,6.3c0,0.2,0,4.8,1.8,9.6
			c2.4,6.5,6.8,9.9,12.7,9.9h11.9c5,0,9.4-2.5,12.5-6.9c0.4-0.5,0.2-1.3-0.3-1.7c-0.5-0.4-1.3-0.2-1.7,0.3
			c-1.9,2.7-5.2,5.9-10.5,5.9H35.4c-4.9,0-8.4-2.8-10.5-8.3c-1.6-4.3-1.6-8.7-1.6-8.8c0-0.5,0-5.1-1.3-7.5c-0.4-0.8-0.5-1.7-0.3-2.5
			c0.2-0.9,0.8-1.6,1.6-2c0.8-0.4,1.7-0.5,2.5-0.3c0.9,0.2,1.6,0.8,2,1.6c1.2,2.1,1.5,3.4,1.6,3.6v7.1c0,0.7,0.5,1.2,1.2,1.2
			c0.7,0,1.2-0.5,1.2-1.2V32.7c0-0.7,0.3-1.4,0.8-2c0.5-0.5,1.2-0.8,2-0.8c1.5,0,2.8,1.2,2.8,2.8v20.9c0,0.7,0.5,1.2,1.2,1.2
			s1.2-0.5,1.2-1.2v-6.7c0-1.5,1.3-2.8,2.8-2.8c1.5,0,2.8,1.3,2.8,2.8v5.4c0,0.7,0.5,1.2,1.2,1.2c0.7,0,1.2-0.5,1.2-1.2v-4.4
			c0-1.5,1.3-2.8,2.8-2.8c1.5,0,2.8,1.2,2.8,2.8v6.1c0,0.7,0.5,1.2,1.2,1.2c0.7,0,1.2-0.5,1.2-1.2v-2.1c0-1.5,1.3-2.8,2.8-2.8
			c1.5,0,2.8,1.3,2.8,2.8v9.2c0,2.8-0.6,5.7-1.7,8.3c-0.3,0.6,0,1.3,0.6,1.6c0.6,0.3,1.3,0,1.6-0.6c1.3-2.9,1.9-6.1,1.9-9.2v-9.2
			C63.8,49,61.5,46.6,58.6,46.6z M27.8,33.7c0-0.7-0.5-1.2-1.2-1.2h-17c-3.9,0-7-3.1-7-7v-16c0-3.9,3.1-7,7-7h6.5
			c0.7,0,1.2-0.5,1.2-1.2c0-0.7-0.5-1.2-1.2-1.2H9.6c-5.2,0-9.4,4.2-9.4,9.4v16c0,5.2,4.2,9.4,9.4,9.4h17
			C27.3,34.9,27.8,34.4,27.8,33.7z M66.4,0.2H20.1c-0.7,0-1.2,0.5-1.2,1.2c0,0.7,0.5,1.2,1.2,1.2h46.3c3.9,0,7,3.1,7,7v16
			c0,3.9-3.1,7-7,7H43.3c-0.7,0-1.2,0.5-1.2,1.2c0,0.7,0.5,1.2,1.2,1.2h23.1c5.2,0,9.4-4.2,9.4-9.4v-16C75.8,4.4,71.6,0.2,66.4,0.2z
			 M23.2,26.2c0.8,0,1.5-0.3,1.5-1V9.9c0-0.7-0.8-0.9-1.5-0.9c-0.8,0-1.5,0.3-1.5,0.9V16h-5.3V9.9c0-0.7-0.8-0.9-1.5-0.9
			c-0.8,0-1.5,0.3-1.5,0.9v15.3c0,0.6,0.8,1,1.5,1c0.8,0,1.5-0.3,1.5-1v-6.8h5.3v6.8C21.7,25.8,22.4,26.2,23.2,26.2z M37.3,11.6
			c0.6,0,1-0.6,1-1.4c0-0.6-0.3-1.3-1-1.3h-8.4c-0.7,0-1.3,0.3-1.3,1v15.3c0,0.6,0.7,1,1.3,1h8.4c0.7,0,1-0.7,1-1.3
			c0-0.7-0.4-1.4-1-1.4h-6.7v-4.7h3.6c0.7,0,1-0.6,1-1.2c0-0.6-0.4-1.2-1-1.2h-3.6v-4.7H37.3z M41.6,8.9c-0.8,0-1.5,0.3-1.5,0.9
			v15.3c0,0.6,0.7,1,1.3,1h7.5c0.6,0,0.9-0.7,0.9-1.3c0-0.7-0.3-1.3-0.9-1.3h-5.8V9.9C43.1,9.2,42.3,8.9,41.6,8.9z M54.5,25.2v-5.5
			h2.6c3.1,0,5.5-1.5,5.5-5.4v-0.1c0-3.9-2.4-5.3-5.4-5.3h-4.7c-0.7,0-1.2,0.4-1.2,0.9v15.3c0,0.6,0.8,1,1.5,1
			C53.8,26.2,54.5,25.8,54.5,25.2z M54.5,11.6h2.6c1.5,0,2.5,0.9,2.5,2.7v0.3c0,1.8-0.9,2.7-2.5,2.7h-2.6V11.6z"/>
	</g>
</g>
</svg>
