<?xml version="1.0" encoding="utf-8"?>
<!-- Generator: Adobe Illustrator 17.1.0, SVG Export Plug-In . SVG Version: 6.00 Build 0)  -->
<!DOCTYPE svg PUBLIC "-//W3C//DTD SVG 1.1//EN" "http://www.w3.org/Graphics/SVG/1.1/DTD/svg11.dtd">
<svg version="1.1" id="Layer_1" xmlns="http://www.w3.org/2000/svg" xmlns:xlink="http://www.w3.org/1999/xlink" x="0px" y="0px"
	 viewBox="0 0 76 81" enable-background="new 0 0 76 81" xml:space="preserve">
<g>
	<g>
		<path fill="#3E475B" d="M74.3,77.4h-3.4V27.6c0-2.3-1.9-4.2-4.2-4.2H59c-2.3,0-4.2,1.9-4.2,4.2v49.8h-8.7V50.2
			c0-2.3-1.9-4.2-4.2-4.2h-7.7c-2.3,0-4.2,1.9-4.2,4.2v27.2h-8.7V63.3c0-2.3-1.9-4.2-4.2-4.2H9.5c-2.3,0-4.2,1.9-4.2,4.2v14.1H1.7
			c-0.9,0-1.6,0.7-1.6,1.6c0,0.9,0.7,1.6,1.6,1.6h72.6c0.9,0,1.6-0.7,1.6-1.6C75.9,78.1,75.2,77.4,74.3,77.4z M18.2,77.4H8.4V63.3
			c0-0.6,0.5-1.1,1.1-1.1h7.7c0.6,0,1.1,0.5,1.1,1.1V77.4z M43,77.4h-9.8V50.2c0-0.6,0.5-1.1,1.1-1.1h7.7c0.6,0,1.1,0.5,1.1,1.1
			V77.4z M67.7,77.4h-9.8V27.6c0-0.6,0.5-1.1,1.1-1.1h7.7c0.6,0,1.1,0.5,1.1,1.1V77.4z M15.1,44c0.4,0,0.8-0.2,1.1-0.5l27-27
			l5.8,5.8c0.6,0.6,1.6,0.6,2.2,0L67.7,5.8v5.3c0,0.9,0.7,1.6,1.6,1.6c0.9,0,1.6-0.7,1.6-1.6V2.2c0,0,0-0.1,0-0.1
			c0-0.4-0.1-0.9-0.5-1.2c-0.3-0.3-0.8-0.5-1.2-0.5c0,0,0,0-0.1,0h-9.4c-0.9,0-1.6,0.7-1.6,1.6c0,0.9,0.7,1.6,1.6,1.6h5.8L50.1,19.1
			l-5.8-5.8c-0.3-0.3-0.7-0.5-1.1-0.5s-0.8,0.2-1.1,0.5L14,41.3c-0.6,0.6-0.6,1.6,0,2.2C14.3,43.9,14.7,44,15.1,44z M9.8,49.5
			c0.9,0,1.6-0.7,1.6-1.6c0-0.9-0.7-1.6-1.6-1.6c-0.9,0-1.6,0.7-1.6,1.6C8.3,48.8,9,49.5,9.8,49.5z"/>
	</g>
</g>
</svg>
