<?xml version="1.0" encoding="utf-8"?>
<!-- Generator: Adobe Illustrator 17.1.0, SVG Export Plug-In . SVG Version: 6.00 Build 0)  -->
<!DOCTYPE svg PUBLIC "-//W3C//DTD SVG 1.1//EN" "http://www.w3.org/Graphics/SVG/1.1/DTD/svg11.dtd">
<svg version="1.1" id="Layer_1" xmlns="http://www.w3.org/2000/svg" xmlns:xlink="http://www.w3.org/1999/xlink" x="0px" y="0px"
	 viewBox="0 0 78 94" enable-background="new 0 0 78 94" xml:space="preserve">
<g>
	<g>
		<path fill="#3E475B" d="M20.6,7.1l2-2.8l-3.8-2.8l-2,2.8c-1.3-0.6-2.7-1-4.1-1V1.6h1.6V0H9.6v1.6h1.6v1.6c-1.4,0.1-2.8,0.5-4.1,1
			l-2-2.8L1.3,4.3l2,2.8c-2,2.2-3.1,5.1-3.1,8.1c0,3.2,1.2,6.2,3.5,8.5c2.2,2.3,5.2,3.5,8.3,3.5c3.1,0,6.1-1.2,8.3-3.5
			c2.2-2.3,3.5-5.3,3.5-8.5C23.7,12.1,22.6,9.3,20.6,7.1z M19.2,3.7l1.3,0.9L19.5,6c-0.4-0.3-0.8-0.7-1.3-0.9L19.2,3.7z M4.7,3.7
			L5.7,5C5.2,5.3,4.8,5.6,4.4,6L3.5,4.6L4.7,3.7z M12,25.5c-5.6,0-10.2-4.7-10.2-10.4C1.7,9.4,6.3,4.8,12,4.8
			c5.6,0,10.2,4.7,10.2,10.4C22.2,20.9,17.6,25.5,12,25.5z M12,6.4c-4.8,0-8.7,3.9-8.7,8.8c0,4.8,3.9,8.8,8.7,8.8
			c4.8,0,8.7-3.9,8.7-8.8C20.6,10.3,16.7,6.4,12,6.4z M12,22.3c-3.9,0-7.1-3.2-7.1-7.2c0-4,3.2-7.2,7.1-7.2c3.6,0,6.7,2.8,7,6.4
			h-4.8c-0.3-0.9-1.2-1.6-2.2-1.6c-1,0-1.9,0.7-2.2,1.6H8v1.6h1.7c0.3,0.9,1.2,1.6,2.2,1.6c1,0,1.9-0.7,2.2-1.6H19
			C18.6,19.5,15.6,22.3,12,22.3z M12.7,15.1c0,0.4-0.4,0.8-0.8,0.8c-0.4,0-0.8-0.4-0.8-0.8c0-0.4,0.4-0.8,0.8-0.8
			C12.4,14.3,12.7,14.7,12.7,15.1z M12.7,9.6h-1.6v1.6h1.6V9.6z"/>
	</g>
</g>
<g>
	<g>
		<path fill="#3E475B" d="M71.3,16.5H41.6c-3.6,0-6.5,2.9-6.5,6.5v7.1c-1.2-0.4-2.5-0.7-3.9-0.7c-6.4,0-11.6,5.2-11.6,11.6
			c0,6.4,5.2,11.6,11.6,11.6c1.4,0,2.7-0.2,3.9-0.7v15.1c-1.5,0.5-2.6,2-2.6,3.6v7.7c0,0.1,0,0.3,0.1,0.4l3.8,11.4V94H39v-3.9
			c0-0.1,0-0.3-0.1-0.4l-3.8-11.4v-7.5c0-0.7,0.6-1.3,1.3-1.3c0.7,0,1.3,0.6,1.3,1.3v3.9h2.6v-6.5c0-0.7,0.6-1.3,1.3-1.3
			c0.7,0,1.3,0.6,1.3,1.3v6.5h2.6v-7.7c0-0.7,0.6-1.3,1.3-1.3c0.7,0,1.3,0.6,1.3,1.3v7.7h2.6v-7.7c0-0.7,0.6-1.3,1.3-1.3
			c0.7,0,1.3,0.6,1.3,1.3v7.7h2.6V55.3c0-0.7,0.6-1.3,1.3-1.3c0.7,0,1.3,0.6,1.3,1.3v18.1c0,0.1,0,0.3,0.1,0.4l1.2,3.7v5.7l-4.8,4.8
			c-0.2,0.2-0.4,0.6-0.4,0.9V94h2.6v-4.6l4.8-4.8c0.2-0.2,0.4-0.6,0.4-0.9h9c3.6,0,6.5-2.9,6.5-6.5V23
			C77.8,19.4,74.9,16.5,71.3,16.5z M36.8,48.2C36.8,48.2,36.7,48.2,36.8,48.2c-0.4,0.3-0.7,0.5-1,0.7c-1.3,0.8-2.9,1.2-4.6,1.2
			c-5,0-9-4.1-9-9c0-5,4.1-9,9-9c1.7,0,3.2,0.5,4.6,1.2c0.3,0.2,0.6,0.4,0.9,0.6c0,0,0.1,0,0.1,0.1c0.6,0.5,1.1,1,1.6,1.6
			c0,0,0,0,0,0.1c0.2,0.3,0.4,0.6,0.6,0.9c0,0,0,0,0,0c0.4,0.7,0.7,1.4,0.9,2.1c0,0.1,0,0.1,0,0.2c0.1,0.3,0.1,0.6,0.2,0.9
			c0,0.1,0,0.2,0,0.2c0,0.4,0.1,0.7,0.1,1.1c0,0.4,0,0.7-0.1,1.1c0,0.1,0,0.2,0,0.2c0,0.3-0.1,0.6-0.2,0.9c0,0.1,0,0.1,0,0.2
			c-0.2,0.7-0.5,1.4-0.9,2.1c0,0,0,0,0,0c-0.2,0.3-0.4,0.6-0.6,0.9c0,0,0,0,0,0.1C37.9,47.2,37.4,47.7,36.8,48.2z M57.1,51.4
			c-2.1,0-3.9,1.7-3.9,3.9v1.3h-2.6c-0.7,0-1.3-0.6-1.3-1.3v-5.2c0-0.7,0.6-1.3,1.3-1.3h12.9c0.7,0,1.3,0.6,1.3,1.3v5.2
			c0,0.7-0.6,1.3-1.3,1.3H61v-1.3C61,53.1,59.2,51.4,57.1,51.4z M75.2,77.2c0,2.1-1.7,3.9-3.9,3.9h-9v-3.9c0-0.1,0-0.3-0.1-0.4
			L61,73.3h14.1V77.2z M75.2,70.8H61V59.1h2.6c2.1,0,3.9-1.7,3.9-3.9v-5.2c0-2.1-1.7-3.9-3.9-3.9H50.6c-2.1,0-3.9,1.7-3.9,3.9v5.2
			c0,2.1,1.7,3.9,3.9,3.9h2.6v4.1c-0.4-0.1-0.8-0.2-1.3-0.2c-1,0-1.9,0.4-2.6,1c-0.7-0.6-1.6-1-2.6-1c-1.4,0-2.6,0.7-3.3,1.8
			c-0.6-0.3-1.2-0.5-1.9-0.5c-1.8,0-3.3,1.2-3.7,2.9c0,0,0,0,0,0c0,0-0.1,0-0.1-0.1V50.7c0.4-0.3,0.7-0.5,1.1-0.8
			c0,0,0.1-0.1,0.1-0.1c0.3-0.3,0.6-0.5,0.8-0.8c0.1-0.1,0.1-0.1,0.2-0.2c0.3-0.3,0.5-0.6,0.8-1c0,0,0,0,0,0c0.5-0.8,1-1.6,1.3-2.4
			c0,0,0-0.1,0.1-0.1c0.1-0.4,0.3-0.7,0.4-1.1c0-0.1,0-0.2,0.1-0.3c0.1-0.3,0.1-0.7,0.2-1c0-0.1,0-0.2,0-0.3
			c0.1-0.4,0.1-0.9,0.1-1.3c0-0.5,0-0.9-0.1-1.3c0-0.1,0-0.2,0-0.3c-0.1-0.4-0.1-0.7-0.2-1c0-0.1,0-0.2-0.1-0.3
			c-0.1-0.4-0.2-0.7-0.4-1.1c0,0,0-0.1-0.1-0.1c-0.3-0.9-0.8-1.7-1.3-2.4c0,0,0,0,0,0c-0.2-0.3-0.5-0.7-0.8-1
			c-0.1-0.1-0.1-0.1-0.2-0.2c-0.3-0.3-0.5-0.6-0.8-0.8c0,0-0.1-0.1-0.1-0.1c-0.4-0.3-0.7-0.6-1.1-0.8v-4.5h37.5V70.8z M75.2,24.3
			H37.7V23c0-2.1,1.7-3.9,3.9-3.9h29.7c2.1,0,3.9,1.7,3.9,3.9V24.3z M7.6,35.5l-1.8-1.8l-5.2,5.2c-0.5,0.5-0.5,1.3,0,1.8l5.2,5.2
			L7.6,44l-3-3H17v-2.6H4.6L7.6,35.5z M52.4,37.4l1.6,2.1c1.2-0.9,2.5-1,3.1-1c1.5,0,2.6,0.6,3.1,1l1.6-2.1
			c-0.8-0.6-2.4-1.5-4.7-1.5C56.1,35.9,54.2,36.1,52.4,37.4z M57.1,33.3c3.4,0,5.8,1.5,7,2.3l1.6-2.1c-1.4-1.1-4.4-2.8-8.5-2.8
			c-1.8,0-5.2,0.4-8.5,2.8l1.6,2.1C52.8,33.6,55.6,33.3,57.1,33.3z M55.8,43.6h2.6V41h-2.6V43.6z"/>
	</g>
</g>
</svg>
