<?xml version="1.0" encoding="utf-8"?>
<!-- Generator: Adobe Illustrator 17.1.0, SVG Export Plug-In . SVG Version: 6.00 Build 0)  -->
<!DOCTYPE svg PUBLIC "-//W3C//DTD SVG 1.1//EN" "http://www.w3.org/Graphics/SVG/1.1/DTD/svg11.dtd">
<svg version="1.1" id="Layer_1" xmlns="http://www.w3.org/2000/svg" xmlns:xlink="http://www.w3.org/1999/xlink" x="0px" y="0px"
	 viewBox="0 0 80 85" enable-background="new 0 0 80 85" xml:space="preserve">
<g>
	<g>
		<path fill="#3E475B" d="M79,18.8L40.6,0.2c-0.3-0.2-0.7-0.2-1.1,0L1.2,18.8c-0.4,0.2-0.7,0.6-0.7,1.1v45.1c0,0.5,0.3,0.9,0.7,1.1
			l38.4,18.6c0.2,0.1,0.4,0.1,0.5,0.1c0.2,0,0.4,0,0.5-0.1L79,66.2c0.4-0.2,0.7-0.6,0.7-1.1V19.9C79.7,19.5,79.4,19,79,18.8z
			 M40.1,2.7l35.5,17.2l-10.3,5c-0.1,0-0.1-0.1-0.2-0.1L29.8,7.7L40.1,2.7z M27,9.1l35.5,17.2l-7.3,3.5L19.8,12.6L27,9.1z
			 M63.3,28.6v13l-6.8,3.3v-13L63.3,28.6z M77.2,64.3L41.3,81.7V39.3l8.6-4.1c0.6-0.3,0.9-1,0.6-1.7c-0.3-0.6-1-0.9-1.7-0.6
			l-8.7,4.2l-3.4-1.7c-0.6-0.3-1.4,0-1.7,0.6c-0.3,0.6,0,1.4,0.6,1.7l3.3,1.6v42.4L3,64.3V21.9l27.3,13.2c0.2,0.1,0.4,0.1,0.5,0.1
			c0.5,0,0.9-0.3,1.1-0.7c0.3-0.6,0-1.4-0.6-1.7l-26.8-13l12.3-6L54,32c0,0,0,0,0,0v14.9c0,0.4,0.2,0.8,0.6,1.1
			c0.2,0.1,0.4,0.2,0.7,0.2c0.2,0,0.4,0,0.5-0.1l9.3-4.5c0.4-0.2,0.7-0.6,0.7-1.1v-15l11.4-5.5V64.3z M13.2,59.5l-5.6-2.7
			c-0.6-0.3-1.4,0-1.7,0.6c-0.3,0.6,0,1.4,0.6,1.7l5.6,2.7c0.2,0.1,0.4,0.1,0.5,0.1c0.5,0,0.9-0.3,1.1-0.7
			C14.1,60.5,13.8,59.8,13.2,59.5z M18.4,56.1L7.6,50.9c-0.6-0.3-1.4,0-1.7,0.6c-0.3,0.6,0,1.4,0.6,1.7l10.8,5.2
			c0.2,0.1,0.4,0.1,0.5,0.1c0.5,0,0.9-0.3,1.1-0.7C19.2,57.1,19,56.4,18.4,56.1z"/>
	</g>
</g>
</svg>
