<?xml version="1.0" standalone="no"?>
<!DOCTYPE svg PUBLIC "-//W3C//DTD SVG 1.1//EN" "http://www.w3.org/Graphics/SVG/1.1/DTD/svg11.dtd" >
<svg xmlns="http://www.w3.org/2000/svg">
<metadata></metadata>
<defs>
<font id="neuronblack_italic" horiz-adv-x="952" >
<font-face units-per-em="2048" ascent="1638" descent="-410" />
<missing-glyph horiz-adv-x="444" />
<glyph horiz-adv-x="0" />
<glyph horiz-adv-x="682" />
<glyph unicode="&#xd;" horiz-adv-x="868" />
<glyph unicode=" "  horiz-adv-x="444" />
<glyph unicode="&#x09;" horiz-adv-x="444" />
<glyph unicode="&#xa0;" horiz-adv-x="444" />
<glyph unicode="!" horiz-adv-x="471" d="M12 74q0 40 8 108q9 78 41.5 98.5t145.5 20.5q96 0 130 -15.5t34 -58.5q0 -31 -9 -108q-9 -78 -41 -98.5t-145 -20.5q-96 0 -130 15.5t-34 58.5zM80 461q0 31 6 117l39 620q4 59 42 75.5t142 16.5q97 0 130.5 -13t33.5 -60q0 -22 -14 -123l-88 -625q-9 -60 -37.5 -76 t-114.5 -16q-77 0 -108 15.5t-31 68.5z" />
<glyph unicode="&#x22;" horiz-adv-x="788" d="M86 778q0 336 8 410q6 63 40 82.5t145 19.5q92 0 124.5 -16t32.5 -60q0 -37 -29.5 -184.5t-58.5 -251.5q-11 -42 -38.5 -56.5t-98.5 -14.5q-72 0 -98.5 15t-26.5 56zM483 778q0 327 9 410q6 63 40 82.5t144 19.5q92 0 125 -16t33 -60q0 -37 -30 -184t-59 -252 q-11 -42 -38.5 -56.5t-98.5 -14.5q-72 0 -98.5 15t-26.5 56z" />
<glyph unicode="#" d="M14 373q0 88 19 131q22 39 67 39h54l24 225h-61q-30 0 -43 12t-13 43q0 88 19 131q18 39 67 39h54l16 144q6 59 34 75.5t107 16.5q72 0 99.5 -13t27.5 -57q0 -17 -8 -90l-8 -76h121l16 144q6 59 34.5 75.5t107.5 16.5q72 0 99 -13t27 -57q0 -16 -8 -74l-10 -92h62 q31 0 43 -11.5t12 -43.5q0 -88 -19 -131q-22 -39 -67 -39h-56l-22 -225h61q30 0 43 -12.5t13 -43.5q0 -88 -19 -131q-18 -39 -67 -39h-56l-14 -143q-6 -59 -34 -75.5t-107 -16.5q-72 0 -99.5 13t-27.5 57q0 15 8 73l10 92h-125l-14 -143q-6 -59 -34 -75.5t-107 -16.5 q-72 0 -99.5 13t-27.5 57q0 11 8 84l10 81h-61q-31 0 -43.5 12t-12.5 44zM420 543h123l24 225h-125z" />
<glyph unicode="$" d="M8 123q0 79 23 137.5t57 58.5q14 0 89.5 -11t146.5 -11q130 0 168 25q45 28 45 102q0 30 -16.5 49.5t-65.5 40.5l-185 78q-161 66 -161 272q0 83 23.5 164t60.5 133q76 105 227 129l10 96q6 51 39 65.5t125 14.5q83 0 114 -12t31 -51q0 -17 -6 -64l-6 -51q71 -7 147 -26 q20 -5 28.5 -20.5t8.5 -57.5q0 -79 -12 -129t-26.5 -67t-32.5 -17q-6 0 -82 11t-160 11q-115 0 -141 -37q-13 -20 -13 -45q0 -27 15.5 -41.5t52.5 -29.5l174 -76q96 -41 141 -98.5t45 -169.5q0 -317 -204 -437q-48 -29 -113 -45l-14 -139q-6 -51 -39 -65.5t-125 -14.5 q-83 0 -114.5 12.5t-31.5 51.5q0 9 7 63l8 72q-114 9 -183 31q-30 8 -42.5 27.5t-12.5 70.5z" />
<glyph unicode="%" horiz-adv-x="1169" d="M51 39q0 29 45 96l359 527q-57 -13 -125 -13q-145 0 -199.5 43t-54.5 172q0 104 13.5 178t38 122t65 76t89 39t115.5 11q70 0 114 -8.5t77.5 -31.5t48 -66t14.5 -111q0 -75 -6 -133l197 289q25 35 60 48t128 13q115 0 115 -41q0 -25 -47 -94l-357 -524q55 10 113 10 q70 0 114.5 -8.5t78 -32t48.5 -67t15 -111.5q0 -125 -17.5 -206t-57.5 -129.5t-98.5 -67.5t-148.5 -19q-144 0 -200 43t-56 168q0 32 5 119l-183 -269q-25 -36 -60 -48.5t-128 -12.5q-60 0 -87.5 9t-27.5 30zM301 901q0 -36 10 -47.5t39 -11.5q28 0 43.5 13.5t25 58 t9.5 128.5q0 33 -11 43.5t-40 10.5q-27 0 -42 -12.5t-24.5 -56.5t-9.5 -126zM758 248q0 -33 11 -44t38 -11t42.5 13t25.5 57.5t10 127.5q0 34 -10.5 44.5t-40.5 10.5q-26 0 -41 -12.5t-25 -57t-10 -128.5z" />
<glyph unicode="&#x26;" horiz-adv-x="1067" d="M18 272q0 88 23 168t63 123q74 77 220 80q-98 10 -145.5 78t-47.5 164q0 108 23 191t65 126q93 98 311 98q192 0 344 -36q26 -7 37 -21.5t11 -56.5q0 -76 -12.5 -124t-28 -63.5t-35.5 -15.5q-13 0 -107 10.5t-151 10.5q-66 0 -86 -29q-27 -39 -27 -117q0 -50 25 -74 t90 -24h72l6 51q6 61 30 76.5t115 15.5q78 0 102.5 -11t24.5 -48q0 -10 -6 -78l-2 -6h59q33 0 45.5 -12.5t12.5 -47.5q0 -109 -18.5 -145.5t-63.5 -36.5h-45l-25 -242q-8 -72 -35 -124t-66 -83t-98.5 -49t-120.5 -24t-143 -6q-108 0 -180 11.5t-128 42t-82 86.5t-26 142z M379 356q0 -45 24 -62.5t84 -17.5q76 0 100 22t29 77l15 143h-82q-103 0 -135 -37q-35 -38 -35 -125z" />
<glyph unicode="'" horiz-adv-x="391" d="M86 778q0 336 8 410q6 63 40 82.5t145 19.5q92 0 124.5 -16t32.5 -60q0 -37 -29.5 -184.5t-58.5 -251.5q-11 -42 -38.5 -56.5t-98.5 -14.5q-72 0 -98.5 15t-26.5 56z" />
<glyph unicode="(" horiz-adv-x="522" d="M57 451q0 189 43 392.5t125 379.5q47 99 92.5 134.5t133.5 35.5q77 0 103 -14.5t26 -39.5q0 -23 -19 -78.5t-46 -137t-53.5 -185t-45.5 -254.5t-19 -315q0 -133 18.5 -261t18.5 -139q0 -71 -141 -71q-89 0 -129.5 36.5t-65.5 133.5q-41 169 -41 383z" />
<glyph unicode=")" horiz-adv-x="522" d="M-39 -49q0 23 18.5 78.5t45.5 137t54 185.5t45.5 255t18.5 315q0 133 -18.5 260.5t-18.5 138.5q0 72 142 72q89 0 129 -36.5t65 -133.5q41 -169 41 -383q0 -189 -43 -392.5t-125 -379.5q-47 -99 -92 -134.5t-133 -35.5q-77 0 -103 14t-26 39z" />
<glyph unicode="*" horiz-adv-x="786" d="M66 942q0 28 30 102q24 58 43 80.5t41 22.5q24 0 121 -37q12 -5 27 -16v18q0 14 12 125q3 36 30 49.5t107 13.5q71 0 96 -11t25 -40q0 -8 -10 -114q-2 -18 -10 -41q17 10 38 18q98 33 115 33q28 0 43 -41q33 -91 33 -146q0 -28 -11 -41.5t-36 -19.5l-92 -27 q-28 -8 -35 -8q10 -10 24 -31l45 -75q13 -22 13 -35q0 -32 -82 -90q-77 -56 -109 -56q-22 0 -39 27l-51 86q-11 18 -14 37q-11 -22 -25 -39l-69 -84q-21 -27 -45 -27q-32 0 -97 54.5t-65 85.5q0 21 24 49l60 70q13 16 26 26l-127 41q-20 6 -28 14.5t-8 26.5z" />
<glyph unicode="+" d="M104 483q0 116 20 155.5t69 39.5h147l18 168q6 53 35 67.5t123 14.5q85 0 113 -11.5t28 -50.5q0 -16 -10 -116l-8 -72h147q35 0 48.5 -13.5t13.5 -50.5q0 -80 -10 -122.5t-27.5 -57t-50.5 -14.5h-148l-18 -168q-6 -53 -35 -67.5t-123 -14.5q-86 0 -113.5 11t-27.5 50 q0 27 8 103l8 86h-145q-35 0 -48.5 13t-13.5 50z" />
<glyph unicode="," horiz-adv-x="430" d="M-66 -248q0 27 23 124t27 138l16 160q9 79 43 102t145 23q99 0 130.5 -16.5t31.5 -71.5q0 -35 -6 -90q-4 -61 -26.5 -121.5t-79.5 -173.5q-44 -86 -80.5 -108.5t-130.5 -22.5q-57 0 -75 13.5t-18 43.5z" />
<glyph unicode="-" horiz-adv-x="681" d="M29 430q0 40 7.5 95t18.5 79q24 51 88 51h437q41 0 57 -15t16 -58q0 -40 -7.5 -95t-18.5 -79q-24 -52 -88 -52h-437q-41 0 -57 15.5t-16 58.5z" />
<glyph unicode="." horiz-adv-x="432" d="M-4 88q0 18 12 129q9 79 42.5 102t144.5 23q98 0 130.5 -17t32.5 -71q0 -18 -12 -129q-9 -79 -42 -102t-144 -23q-98 0 -131 17.5t-33 70.5z" />
<glyph unicode="/" horiz-adv-x="694" d="M-131 -33q0 34 53 146l545 1177q28 60 71 81.5t134 21.5q49 0 82 -6t47 -17.5t19 -21.5t5 -23q0 -20 -9 -46.5t-42 -100.5l-547 -1192q-26 -56 -71 -72t-144 -16q-48 0 -79 5.5t-43.5 17t-16.5 21.5t-4 25z" />
<glyph unicode="0" d="M8 332q0 55 45 477q11 105 30.5 182.5t51 131.5t69 89t92.5 54.5t114 26.5t141 7q98 0 166.5 -14t125.5 -50.5t85 -105.5t28 -172q0 -55 -45 -477q-11 -105 -30.5 -182.5t-50.5 -131.5t-68.5 -89t-92.5 -54.5t-114 -26.5t-141 -7q-77 0 -135.5 8.5t-111.5 31t-86.5 60 t-53 98.5t-19.5 144zM360 381q0 -53 19.5 -73.5t64.5 -20.5q31 0 47 4.5t32 23.5t24.5 58t15.5 108q41 394 41 428q0 53 -19.5 74t-64.5 21q-31 0 -47 -4.5t-32 -24t-24.5 -58.5t-15.5 -108q-41 -394 -41 -428z" />
<glyph unicode="1" d="M63 88q0 123 26 169t77 46h133l63 612l-96 -18q-41 -8 -63 -8q-13 0 -20.5 3.5t-15 22t-7.5 52.5q0 125 24 179.5t80 70.5l191 51q86 22 123 22q97 0 130 -13t33 -60q0 -16 -20 -207l-74 -707h137q38 0 54 -18.5t16 -69.5q0 -124 -25.5 -169.5t-76.5 -45.5h-619 q-38 0 -54 18.5t-16 69.5z" />
<glyph unicode="2" d="M14 59q0 3 13 136q11 110 64 196t147 166l266 227q69 61 69 162q0 34 -20 46t-78 12q-73 0 -169.5 -14.5t-117.5 -14.5q-18 0 -27 16.5t-9 59.5q0 187 79 213q113 36 383 36q57 0 96 -3.5t85 -18t73.5 -40t46.5 -73t19 -114.5q0 -203 -80 -324q-52 -77 -166 -166 l-203 -158q-29 -21 -36 -71l-5 -29h365q38 0 54 -18.5t16 -69.5q0 -123 -26 -169t-77 -46h-676q-47 0 -66.5 11.5t-19.5 47.5z" />
<glyph unicode="3" d="M8 106q0 203 70 203q14 0 120.5 -11t176.5 -11q92 0 127 37t35 112q0 58 -46 75t-167 17q-40 0 -56 17.5t-16 56.5q0 104 20.5 146.5t77.5 42.5q115 0 164 28t49 115q0 36 -19 53t-69 17q-62 0 -177.5 -10.5t-125.5 -10.5q-19 0 -28 16.5t-9 59.5q0 191 62 205 q160 36 397 36q79 0 136 -11.5t103 -39.5t69.5 -81.5t23.5 -131.5q0 -115 -35.5 -198.5t-97.5 -126.5q-52 -36 -125 -43q110 -5 164.5 -59t54.5 -171q0 -126 -34 -214.5t-99.5 -139t-149 -72.5t-194.5 -22q-92 0 -194 10.5t-153 24.5q-32 8 -43.5 23t-11.5 58z" />
<glyph unicode="4" d="M-2 342q0 70 16 131.5t64 151.5l305 575q33 62 89 76t204 14q135 0 180 -14t45 -64q0 -23 -4 -51l-68 -626h33q39 0 55.5 -16t16.5 -66q0 -64 -7 -105.5t-22 -61.5t-32 -27t-42 -7h-30l-17 -160q-6 -59 -42.5 -75.5t-139.5 -16.5q-97 0 -132.5 13.5t-35.5 60.5 q0 16 10 98l9 80h-355q-59 0 -79.5 16t-20.5 74zM338 535h170q29 184 51 434h-14z" />
<glyph unicode="5" d="M20 106q0 203 70 203q11 0 83.5 -11t160.5 -11q99 0 139.5 26.5t46.5 85.5q8 76 8 90q0 33 -18 47.5t-61 14.5q-50 0 -153.5 -9.5t-125.5 -9.5t-34.5 2.5t-23 14.5t-10.5 35q0 12 17 166l49 458q6 52 26 67t74 15h572q38 0 53.5 -18.5t15.5 -69.5q0 -124 -25 -169.5 t-77 -45.5h-356l-17 -164q11 4 65 9.5t95 5.5q32 0 54 -1t54.5 -6.5t55 -16t47.5 -30t40.5 -47t25.5 -69.5t10 -95q0 -61 -17 -215q-9 -80 -33 -141t-62 -100.5t-81.5 -65.5t-102 -39t-111 -17.5t-120.5 -4.5q-150 0 -278 35q-32 8 -44 23t-12 58z" />
<glyph unicode="6" d="M29 358q0 116 27 334.5t67 327.5q22 61 53 108.5t70 77t78 49.5t87.5 29t88 12.5t88.5 3.5q159 0 291 -38q21 -5 30 -18t9 -52q0 -78 -12 -128t-27 -66.5t-33 -16.5q-6 0 -82 11.5t-160 11.5q-65 0 -99.5 -7t-58.5 -34.5t-33.5 -69.5t-17.5 -123l-8 -74q73 125 258 125 q69 0 114 -10t81 -37t52.5 -78.5t16.5 -132.5q0 -157 -36.5 -290.5t-112.5 -198.5q-57 -48 -136.5 -66t-199.5 -18q-74 0 -126 6.5t-106.5 28.5t-87.5 61t-54 107.5t-21 164.5zM354 367q0 -45 23 -62.5t86 -17.5q64 0 90 26q33 36 33 150q0 46 -22 64t-83 18 q-40 0 -66.5 -14t-39 -40.5t-17 -55t-4.5 -68.5z" />
<glyph unicode="7" d="M121 1075q0 124 25 169.5t77 45.5h641q58 0 78.5 -16t20.5 -74q0 -77 -14.5 -143t-55.5 -152l-395 -817q-28 -57 -71.5 -72.5t-145.5 -15.5q-138 0 -138 68q0 26 10.5 52.5t43.5 94.5l385 772h-392q-38 0 -53.5 18.5t-15.5 69.5z" />
<glyph unicode="8" d="M0 283q0 173 56.5 269t181.5 134q-69 25 -106.5 77.5t-37.5 145.5q0 115 28 191.5t89.5 120t145.5 61.5t208 18q66 0 117 -6t101.5 -23t83 -46t53 -78t20.5 -115q0 -149 -47.5 -230.5t-151.5 -115.5q168 -55 168 -256q0 -247 -111 -343.5t-384 -96.5q-58 0 -98.5 2 t-87 8.5t-78 19t-62 34t-48.5 52.5t-29 75.5t-11 101.5zM346 362q0 -44 20 -63.5t72 -19.5q66 0 90 22q41 38 41 172q0 48 -20.5 65t-71.5 17q-71 0 -98 -37q-33 -44 -33 -156zM428 879q0 -36 15.5 -49t56.5 -13q58 0 76 30t18 109q0 42 -17 55t-51 13q-59 0 -78.5 -32 t-19.5 -113z" />
<glyph unicode="9" d="M39 102q0 77 11.5 125.5t26.5 65t34 16.5q5 0 81 -11t160 -11q71 0 110 8t65.5 36t37.5 71t19 124l6 60q-74 -121 -252 -121q-71 0 -117.5 10t-83.5 38.5t-54 82t-17 137.5q0 133 20 230t57 162t98 104t135.5 55t176.5 16q74 0 126 -6.5t106 -29t86.5 -62t53.5 -108.5 t21 -166q0 -61 -37 -408q-11 -101 -35 -181.5t-54.5 -135t-73 -94.5t-84 -62.5t-95 -35.5t-98 -17t-100.5 -4q-139 0 -279 37q-21 6 -29.5 10.5t-15 20t-6.5 44.5zM389 821q0 -45 23 -62.5t82 -17.5q77 0 103 51.5t26 147.5q0 41 -20 57.5t-77 16.5q-84 0 -110.5 -42.5 t-26.5 -150.5z" />
<glyph unicode=":" horiz-adv-x="432" d="M-4 88q0 18 12 129q9 79 42.5 102t144.5 23q98 0 130.5 -17t32.5 -71q0 -18 -12 -129q-9 -79 -42 -102t-144 -23q-98 0 -131 17.5t-33 70.5zM63 739q0 9 13 129q9 79 42 102t144 23q98 0 131 -17.5t33 -70.5q0 -18 -12 -129q-9 -79 -42.5 -102t-144.5 -23 q-98 0 -131 17.5t-33 70.5z" />
<glyph unicode=";" horiz-adv-x="430" d="M-66 -248q0 27 23 124t27 138l16 160q9 79 43 102t145 23q99 0 130.5 -16.5t31.5 -71.5q0 -35 -6 -90q-4 -61 -26.5 -121.5t-79.5 -173.5q-44 -86 -80.5 -108.5t-130.5 -22.5q-57 0 -75 13.5t-18 43.5zM61 739q0 9 13 129q9 79 42 102t144 23q98 0 131 -17.5t33 -70.5 q0 -18 -12 -129q-9 -79 -42.5 -102t-144.5 -23q-98 0 -131 17.5t-33 70.5z" />
<glyph unicode="&#x3c;" d="M106 444q0 103 9.5 169.5t31.5 103t47 53t66 27.5l488 133q27 8 53 8q24 0 36.5 -15.5t12.5 -58.5q0 -93 -12.5 -143.5t-31 -66.5t-54.5 -23l-371 -76l-2 -12l354 -76q37 -8 51.5 -25t14.5 -59q0 -69 -6.5 -115.5t-19 -68.5t-25 -30.5t-29.5 -8.5q-27 0 -51 8l-459 133 q-58 16 -80.5 44t-22.5 99z" />
<glyph unicode="=" d="M127 307q0 97 20 144q21 47 82 47h516q38 0 53 -15t15 -55q0 -94 -20 -141q-21 -47 -82 -47h-516q-38 0 -53 13.5t-15 53.5zM166 676q0 96 20 143q21 47 82 47h516q38 0 53 -14.5t15 -54.5q0 -30 -5.5 -75t-15.5 -67q-21 -47 -81 -47h-517q-38 0 -52.5 14t-14.5 54z" />
<glyph unicode="&#x3e;" d="M90 233q0 93 12.5 143.5t31.5 67t54 23.5l371 76l2 12l-354 76q-37 8 -51.5 25t-14.5 59q0 69 6.5 115.5t19 68.5t25 30.5t29.5 8.5q27 0 51 -8l459 -133q58 -16 80.5 -44.5t22.5 -99.5q0 -103 -9.5 -169t-31.5 -102.5t-46.5 -53t-66.5 -27.5l-487 -133q-27 -8 -54 -8 q-24 0 -36.5 15t-12.5 58z" />
<glyph unicode="?" horiz-adv-x="757" d="M78 1053q0 71 21 134.5t59 76.5q104 36 307 36q321 0 321 -231q0 -101 -30.5 -179t-112.5 -165l-102 -107q-40 -43 -45 -98l-4 -51q-4 -58 -39 -75t-125 -17q-80 0 -113 14t-33 58q0 6 13 120q6 51 21 82t48 66l101 104q63 63 63 125q0 34 -18.5 46t-59.5 12 q-59 0 -134.5 -11.5t-96.5 -11.5q-41 0 -41 72zM125 74q0 40 8 108q9 78 41 98.5t145 20.5q96 0 130 -15.5t34 -58.5q0 -40 -8 -108q-9 -78 -41 -98.5t-145 -20.5q-96 0 -130 15.5t-34 58.5z" />
<glyph unicode="@" horiz-adv-x="2039" d="M43 111q0 99 51 575q9 82 19.5 146.5t27.5 131t40.5 117t56 100.5t75.5 86.5t99 70t126 55.5t156 39t191 24.5t229 7.5q213 0 367 -24.5t254.5 -69t160 -118t83.5 -161.5t24 -208q0 -75 -14 -197l-25 -250q-11 -114 -46.5 -198.5t-81.5 -133t-111 -77.5t-124 -38t-131 -9 q-155 0 -231 38.5t-98 122.5l-8 31q-86 -192 -306 -192q-76 0 -124.5 12.5t-82 44t-47.5 85.5t-14 138q0 105 24 288.5t60 282.5q43 118 119 160.5t209 42.5q178 0 227 -139l4 27q6 61 35 76.5t129 15.5q88 0 116.5 -12t28.5 -54q0 -25 -32 -325q-31 -287 -31 -314 q0 -55 17 -72.5t59 -17.5q55 0 75 28.5t29 119.5l41 381q8 94 8 129q0 68 -14.5 115.5t-52.5 86.5t-105.5 62t-171 35t-250.5 12q-87 0 -158.5 -3.5t-129.5 -13t-103 -20t-80.5 -30t-61 -38t-44.5 -48.5t-31.5 -56t-21.5 -67.5t-14 -76t-11 -87.5q-55 -525 -55 -580 q0 -147 67 -217q65 -69 198.5 -92t389.5 -23q39 0 55.5 -16t16.5 -66q0 -92 -17 -145q-11 -32 -31.5 -43.5t-52.5 -11.5q-289 0 -467 25.5t-290 88.5q-110 62 -154.5 168.5t-44.5 274.5zM920 367q0 -66 16.5 -83.5t60.5 -17.5q36 0 55.5 7.5t34 36t22.5 71.5t17 127 q11 102 11 143q0 61 -20 79t-75 18q-33 0 -51.5 -14t-32.5 -60q-16 -49 -27 -145t-11 -162z" />
<glyph unicode="A" horiz-adv-x="1138" d="M-29 61q0 37 27 123l307 942q15 45 32 73t40 47t62 28t85.5 12.5t122.5 3.5t122 -3.5t83.5 -12.5t56.5 -28t30.5 -47t16.5 -73l107 -942q6 -52 6 -84t-4 -47.5t-21.5 -29.5t-52 -18.5t-96.5 -4.5q-116 0 -149 18t-39 84l-17 185h-299l-53 -185q-20 -66 -57 -84t-152 -18 q-94 0 -126 13.5t-32 47.5zM467 543h203l-37 465h-29z" />
<glyph unicode="B" horiz-adv-x="1046" d="M25 61q0 19 6 68l110 1055q6 58 25 77t72 25q126 14 301 14q101 0 171 -6.5t130.5 -23.5t95.5 -47.5t54.5 -79t19.5 -117.5q0 -153 -49.5 -243t-163.5 -115q99 -18 144.5 -74.5t45.5 -169.5q0 -128 -25 -208.5t-89 -132.5t-165.5 -72.5t-263.5 -20.5q-216 0 -348 14 q-42 5 -56.5 16.5t-14.5 40.5zM391 252q43 -6 103 -6t89 16t42.5 62t13.5 141q0 44 -20 62t-76 18h-121zM446 776h78q70 0 94 31q27 32 27 141q0 38 -17.5 54t-62.5 16q-48 0 -94 -4z" />
<glyph unicode="C" horiz-adv-x="931" d="M39 352q0 164 29.5 378.5t78.5 322.5q36 80 88.5 132.5t116.5 76t118.5 31t125.5 7.5q176 0 311 -38q20 -5 28.5 -20.5t8.5 -57.5q0 -71 -10 -121t-23.5 -71t-29.5 -21q-8 0 -83.5 11t-146.5 11q-76 0 -119 -18t-69 -70q-26 -54 -47 -210t-21 -267q0 -82 39.5 -106.5 t143.5 -24.5q75 0 147.5 11t85.5 11q19 0 27 -14t8 -49q0 -209 -70 -227q-146 -39 -327 -39q-74 0 -132 9.5t-111.5 34t-89 64.5t-56.5 104t-21 150z" />
<glyph unicode="D" horiz-adv-x="1083" d="M25 61q0 19 6 68l110 1055q6 58 25 77t72 25q106 14 305 14q73 0 124.5 -3t109 -12t96.5 -26t76.5 -46t59.5 -70.5t35 -100.5t13 -135q0 -48 -5.5 -130.5t-19 -202.5t-45 -235t-74.5 -179q-39 -57 -92 -93.5t-121.5 -52t-124.5 -20t-141 -4.5q-208 0 -338 14 q-42 5 -56.5 16.5t-14.5 40.5zM395 295q46 -4 72 -4q75 0 113.5 13.5t60.5 57.5q25 52 45.5 239.5t20.5 252.5q0 91 -39 127.5t-140 36.5q-33 0 -57 -4z" />
<glyph unicode="E" horiz-adv-x="925" d="M27 59q0 17 4 41l116 1108q6 51 27 66.5t74 15.5h624q38 0 54 -18t16 -68q0 -86 -12.5 -135t-33 -65.5t-54.5 -16.5h-369l-18 -168h225q41 0 56.5 -15.5t15.5 -58.5q0 -134 -23 -179.5t-80 -45.5h-225l-23 -217h390q38 0 53.5 -18.5t15.5 -69.5q0 -124 -25.5 -169.5 t-76.5 -45.5h-645q-47 0 -66.5 11.5t-19.5 47.5z" />
<glyph unicode="F" horiz-adv-x="903" d="M27 72q0 11 4 47l114 1089q6 51 27 66.5t74 15.5h624q38 0 54 -18t16 -68q0 -86 -12.5 -135t-33 -65.5t-54.5 -16.5h-369l-18 -168h225q41 0 56.5 -15.5t15.5 -58.5q0 -134 -23 -179.5t-80 -45.5h-225l-45 -428q-6 -59 -43.5 -75.5t-140.5 -16.5q-95 0 -130.5 13.5 t-35.5 58.5z" />
<glyph unicode="G" horiz-adv-x="1046" d="M39 352q0 86 10.5 216.5t43 296.5t79.5 243q31 51 72 87.5t81.5 56.5t93 31t92.5 14t93 3q185 0 336 -36q25 -7 35 -22t10 -58q0 -71 -10 -121t-23.5 -71t-29.5 -21q-14 0 -99 11t-161 11q-84 0 -130.5 -21t-74.5 -83q-24 -53 -43 -214.5t-19 -246.5q0 -44 8.5 -72 t27.5 -40t37 -15.5t48 -3.5q67 0 101.5 12.5t37.5 44.5l15 121h-62q-28 0 -39.5 15t-11.5 55q0 119 20 166t62 47h256q56 0 75 -15t19 -49q0 -22 -4 -57l-43 -387q-15 -134 -127 -197t-342 -63q-79 0 -138 7.5t-117.5 30t-95.5 61.5t-60 105.5t-23 157.5z" />
<glyph unicode="H" horiz-adv-x="1120" d="M27 72q0 11 4 47l112 1079q6 59 44 75.5t141 16.5q96 0 131 -13t35 -58q0 -3 -5 -48l-40 -385h266l43 412q6 59 43.5 75.5t140.5 16.5q96 0 131 -13t35 -58q0 -12 -4 -48l-113 -1079q-6 -59 -43.5 -75.5t-140.5 -16.5q-95 0 -130.5 13.5t-35.5 58.5q0 11 4 47l41 385 h-266l-43 -412q-6 -59 -43.5 -75.5t-140.5 -16.5q-95 0 -130.5 13.5t-35.5 58.5z" />
<glyph unicode="I" horiz-adv-x="505" d="M27 72q0 11 4 47l112 1079q6 59 44 75.5t141 16.5q96 0 131 -13t35 -58q0 -3 -5 -48l-112 -1079q-6 -59 -43.5 -75.5t-140.5 -16.5q-95 0 -130.5 13.5t-35.5 58.5z" />
<glyph unicode="J" horiz-adv-x="778" d="M-8 115q0 83 10 127.5t22 54.5t33 10t74 -5t90 -5q61 0 83.5 19t29.5 83l86 799q6 59 43.5 75.5t140.5 16.5q96 0 131 -13t35 -58q0 -12 -4 -48l-82 -755q-25 -235 -113.5 -330.5t-279.5 -95.5q-133 0 -248 35q-28 8 -39.5 25.5t-11.5 64.5z" />
<glyph unicode="K" horiz-adv-x="1052" d="M27 72q0 11 4 47l112 1079q6 59 44 75.5t141 16.5q96 0 131 -13t35 -58q0 -3 -5 -48l-45 -417h39l222 452q27 56 66.5 70t156.5 14q97 0 127 -12t30 -45q0 -30 -36 -96l-275 -488l195 -489q18 -43 18 -74q0 -29 -11.5 -45.5t-57.5 -28.5t-132 -12q-89 0 -124.5 15.5 t-53.5 68.5l-143 453h-43l-45 -445q-6 -59 -43.5 -75.5t-140.5 -16.5q-95 0 -130.5 13.5t-35.5 58.5z" />
<glyph unicode="L" horiz-adv-x="876" d="M23 59q0 22 14 136l106 1003q6 59 44 75.5t141 16.5q96 0 131 -13t35 -58q0 -3 -5 -48l-92 -868h348q38 0 54 -18.5t16 -69.5q0 -124 -25 -169.5t-77 -45.5h-604q-47 0 -66.5 11.5t-19.5 47.5z" />
<glyph unicode="M" horiz-adv-x="1394" d="M27 72q0 11 4 47l110 1052q8 68 41.5 93.5t120.5 25.5q49 0 74.5 -1t57 -3.5t47 -10t33.5 -18.5t28.5 -30t21.5 -44t21 -61l125 -434h8l221 440q24 47 46 76t43 47t54 26.5t63 10.5t85 2q86 0 118.5 -19.5t32.5 -70.5q0 -31 -4 -63l-108 -1045q-6 -59 -44 -75.5 t-141 -16.5q-95 0 -130 13.5t-35 58.5q0 11 4 47l61 583h-8l-129 -274q-23 -41 -33.5 -57.5t-30.5 -32.5t-44.5 -19.5t-67.5 -3.5t-66.5 3.5t-40.5 19.5t-24 32.5t-21 57.5l-71 274h-9l-63 -610q-6 -59 -43.5 -75.5t-140.5 -16.5q-95 0 -130.5 13.5t-35.5 58.5z" />
<glyph unicode="N" horiz-adv-x="1155" d="M27 72q0 11 4 47l112 1079q6 58 41 75t121 17q82 0 118.5 -15.5t57.5 -53.5q52 -97 132.5 -265t121.5 -241h21q14 265 39 483q6 59 43 75.5t139 16.5q96 0 131 -13t35 -58q0 -19 -8 -95l-109 -1032q-6 -58 -41.5 -75t-126.5 -17q-66 0 -99 15t-54 57l-265 549h-20 q-5 -179 -45 -529q-6 -59 -43 -75.5t-139 -16.5q-95 0 -130.5 13.5t-35.5 58.5z" />
<glyph unicode="O" horiz-adv-x="1081" d="M41 377q0 123 27 353t71 337q24 60 58 102t73.5 67.5t96 40t113.5 19t138 4.5q94 0 157 -7.5t120.5 -31t90.5 -65.5t52 -112t19 -171q0 -122 -27.5 -352.5t-71.5 -337.5q-24 -60 -58 -102t-73.5 -67.5t-96 -40t-113.5 -19t-138 -4.5q-94 0 -156.5 7.5t-120.5 31 t-90.5 65.5t-51.5 112t-19 171zM393 414q0 -80 24.5 -103.5t92.5 -23.5q62 0 93.5 19.5t47.5 78.5q16 58 35 245t19 247q0 80 -24.5 103.5t-92.5 23.5q-62 0 -94 -19.5t-48 -79.5q-16 -57 -34.5 -243.5t-18.5 -247.5z" />
<glyph unicode="P" horiz-adv-x="1040" d="M27 72q0 11 4 47l110 1061q6 58 25.5 77t73.5 25q156 18 417 18q92 0 155.5 -15t113.5 -53.5t74 -109.5t24 -178q0 -136 -28 -236.5t-76.5 -163t-124.5 -100t-161 -51.5t-198 -14h-30l-29 -287q-6 -59 -43.5 -75.5t-140.5 -16.5q-95 0 -130.5 13.5t-35.5 58.5zM434 655 h64q42 0 73.5 16t48.5 40t27.5 60t13.5 67.5t3 70.5q0 61 -25 85t-74 24q-52 0 -92 -4z" />
<glyph unicode="Q" horiz-adv-x="1081" d="M41 377q0 123 27 353t71 337q24 60 58 102t73.5 67.5t96 40t113.5 19t138 4.5q94 0 157 -7.5t120.5 -31t90.5 -65.5t52 -112t19 -171q0 -122 -27.5 -352.5t-71.5 -337.5q-52 -128 -153 -182l86 -123q43 -62 43 -96q0 -38 -33.5 -56t-112.5 -18q-95 0 -132 19.5t-72 82.5 l-80 140h-25q-94 0 -156.5 7.5t-120.5 31t-90.5 65.5t-51.5 112t-19 171zM393 414q0 -80 24.5 -103.5t92.5 -23.5q62 0 93.5 19.5t47.5 78.5q16 58 35 245t19 247q0 80 -24.5 103.5t-92.5 23.5q-62 0 -94 -19.5t-48 -79.5q-16 -57 -34.5 -243.5t-18.5 -247.5z" />
<glyph unicode="R" horiz-adv-x="1042" d="M27 72q0 11 4 47l110 1061q6 58 25.5 77t73.5 25q156 18 403 18q96 0 162 -13.5t118.5 -48t77.5 -98.5t25 -161q0 -182 -56 -291t-163 -162l143 -391q15 -41 15 -65q0 -26 -9 -39.5t-42.5 -22t-100.5 -8.5q-57 0 -86.5 1.5t-56 6t-38 16t-20.5 27.5t-16 45l-92 365h-88 l-39 -369q-6 -59 -43.5 -75.5t-140.5 -16.5q-95 0 -130.5 13.5t-35.5 58.5zM440 696h31q110 0 151.5 40.5t41.5 160.5q0 121 -99 121q-52 0 -92 -4z" />
<glyph unicode="S" horiz-adv-x="925" d="M-8 123q0 79 23 137.5t57 58.5q14 0 89 -11t146 -11q130 0 168 25q45 28 45 102q0 30 -16.5 49.5t-65.5 40.5l-184 78q-162 67 -162 272q0 83 23.5 164t60.5 133q101 139 350 139q197 0 332 -38q20 -5 28.5 -20.5t8.5 -57.5q0 -60 -6.5 -103.5t-18 -66.5t-23 -33 t-24.5 -10q-5 0 -81 11t-160 11q-116 0 -142 -37q-12 -18 -12 -45t15.5 -41.5t52.5 -29.5l174 -76q96 -41 141 -98.5t45 -169.5q0 -316 -205 -437q-118 -69 -325 -69q-151 0 -279 35q-30 8 -42.5 27.5t-12.5 70.5z" />
<glyph unicode="T" horiz-adv-x="950" d="M80 1077q0 84 13.5 132.5t34.5 64.5t54 16h733q38 0 54 -18t16 -68q0 -86 -12.5 -135t-33 -65.5t-54.5 -16.5h-193l-94 -895q-6 -59 -43.5 -75.5t-140.5 -16.5q-95 0 -130.5 13.5t-35.5 58.5q0 10 10 100l86 815h-192q-39 0 -55.5 19t-16.5 71z" />
<glyph unicode="U" horiz-adv-x="1089" d="M53 303q0 35 13 152l79 743q6 59 44 75.5t141 16.5q96 0 131 -13t35 -58q0 -12 -4 -48l-84 -772q-5 -41 -5 -55q0 -41 22.5 -54.5t88.5 -13.5q76 0 98.5 19t30.5 84l88 819q6 59 43.5 75.5t140.5 16.5q96 0 131 -13t35 -58q0 -12 -4 -48l-84 -772q-17 -156 -71 -243.5 t-158 -126.5t-281 -39q-234 0 -332 70t-98 243z" />
<glyph unicode="V" horiz-adv-x="1105" d="M78 1190q0 40 10 59t48 30t118 11q118 0 156.5 -18.5t42.5 -83.5l53 -905h29l245 905q18 65 59.5 83.5t159.5 18.5q96 0 127 -13.5t31 -47.5q0 -35 -27 -123l-313 -963q-30 -93 -88 -118t-237 -25t-232 25t-63 118l-113 963q-6 50 -6 84z" />
<glyph unicode="W" horiz-adv-x="1640" d="M94 1190q0 58 33.5 79t146.5 21q115 0 149 -18.5t34 -83.5q0 -7 -3.5 -158.5t-8 -370.5t-7.5 -340h23l207 848q17 64 63 83.5t158 19.5q108 0 153 -20t48 -83l36 -848h23l158 869q12 65 52.5 83.5t158.5 18.5q95 0 126 -13.5t31 -47.5q0 -27 -22 -123l-217 -963 q-21 -90 -85 -116.5t-216 -26.5q-145 0 -207 31t-66 121l-24 530h-21l-125 -530q-21 -89 -91.5 -120.5t-213.5 -31.5q-152 0 -212 26.5t-60 116.5q0 17 -3.5 181t-8.5 403t-7 365q0 26 -1 58t-1 40z" />
<glyph unicode="X" horiz-adv-x="1001" d="M-41 61q0 53 61 142l312 459l-189 417q-34 75 -34 119q0 35 13.5 53.5t53.5 28.5t117 10t114.5 -10t52 -28.5t32.5 -63.5l63 -176h8l82 172q21 46 41 66t60 30t118 10q99 0 133.5 -15t34.5 -56q0 -46 -63 -140l-269 -389l207 -483q39 -91 39 -125q0 -19 -5.5 -32 t-22.5 -25.5t-54 -18.5t-94 -6q-108 0 -146 20t-59 82l-76 230h-8l-139 -230q-25 -42 -48 -62t-63.5 -30t-113.5 -10q-94 0 -126 13.5t-32 47.5z" />
<glyph unicode="Y" horiz-adv-x="1003" d="M72 1196q0 37 11 55.5t49 28.5t116 10q114 0 150 -18.5t48 -83.5l76 -393h13l157 393q26 65 65 83.5t154 18.5q96 0 127 -13.5t31 -47.5q0 -47 -39 -123l-364 -666l-37 -348q-6 -59 -44 -75.5t-141 -16.5q-95 0 -130 13.5t-35 58.5q0 11 4 47l34 321l-225 666 q-20 62 -20 90z" />
<glyph unicode="Z" horiz-adv-x="880" d="M-18 78q0 65 19 122t91 173l387 614h-293q-38 0 -54.5 19t-16.5 71q0 84 13.5 132.5t34.5 64.5t54 16h617q40 0 55.5 -15.5t15.5 -55.5q0 -133 -69 -244l-428 -672h340q38 0 53.5 -18.5t15.5 -69.5q0 -124 -25.5 -169.5t-76.5 -45.5h-664q-41 0 -55 16.5t-14 61.5z" />
<glyph unicode="[" horiz-adv-x="614" d="M27 -12q0 14 14 147l119 1147q6 53 32.5 75.5t77.5 22.5h330q35 0 49.5 -16.5t14.5 -60.5q0 -78 -11.5 -121.5t-30 -58.5t-49.5 -15h-90l-96 -926h80q35 0 49 -16.5t14 -61.5q0 -78 -11 -121.5t-29.5 -58t-49.5 -14.5h-323q-46 0 -68 18t-22 60z" />
<glyph unicode="\" horiz-adv-x="575" d="M35 1323q0 70 151 70q82 0 112 -17t40 -80l190 -1163q23 -144 23 -166q0 -69 -152 -69q-82 0 -111.5 16.5t-39.5 79.5l-191 1163q-22 138 -22 166z" />
<glyph unicode="]" horiz-adv-x="614" d="M-31 -12q0 78 11 121.5t29.5 58t49.5 14.5h91l96 926h-80q-35 0 -49.5 16.5t-14.5 61.5q0 113 22 153.5t69 40.5h323q46 0 68 -17.5t22 -59.5q0 -15 -14 -148l-119 -1147q-6 -53 -33 -75.5t-78 -22.5h-329q-35 0 -49.5 16.5t-14.5 61.5z" />
<glyph unicode="^" horiz-adv-x="993" d="M125 770q0 10 20 55l170 351q20 40 33 58.5t41 36t70.5 22.5t115.5 5t115 -5.5t66.5 -22t34 -35.5t20.5 -59l90 -328q21 -75 21 -86q0 -15 -8 -24t-39.5 -16t-88.5 -7q-60 0 -90 2t-49 14.5t-24 25.5t-13 48l-49 209h-12l-100 -221q-15 -35 -33 -50t-54 -21.5t-112 -6.5 q-75 0 -100 14t-25 41z" />
<glyph unicode="_" horiz-adv-x="1069" d="M-68 -266q0 39 8 94t19 80q24 51 88 51h850q41 0 57.5 -15.5t16.5 -58.5q0 -39 -8 -94t-19 -80q-24 -51 -88 -51h-850q-41 0 -57.5 15.5t-16.5 58.5z" />
<glyph unicode="`" horiz-adv-x="557" d="M133 1405q0 52 36.5 66t143.5 14q106 0 143 -24t46 -97q20 -149 20 -178q0 -50 -38 -67t-107 -17t-107 11t-52 27.5t-25 51.5l-35 100q-25 90 -25 113z" />
<glyph unicode="a" horiz-adv-x="1062" d="M51 227q0 160 39 406q19 120 49.5 199.5t75.5 123.5t98 61t127 17q192 0 248 -149l4 24q9 63 43 84t137 21q90 0 119 -13t29 -57q0 -25 -31 -317t-31 -351q0 -24 10.5 -103.5t10.5 -94.5q0 -41 -37 -59.5t-135 -18.5q-49 0 -75.5 3.5t-42.5 16.5t-22 29t-12 49l-16 86 q-60 -110 -147.5 -157t-206.5 -47q-234 0 -234 247zM410 338q0 -43 16.5 -57.5t50.5 -14.5q124 0 152 236q18 154 18 194q0 29 -19 40.5t-63 11.5q-61 0 -88 -29.5t-39 -110.5q-28 -173 -28 -270z" />
<glyph unicode="b" horiz-adv-x="1042" d="M57 209q0 53 13 178l92 873q6 59 43 75.5t141 16.5q96 0 130 -13.5t34 -60.5v-18l-35 -342q105 116 293 116q233 0 233 -248q0 -166 -38 -405q-18 -117 -58 -194t-110.5 -123t-166.5 -65t-237 -19q-172 0 -253 53t-81 176zM403 297q0 -23 16 -31t54 -8q69 0 97.5 30 t43.5 118q29 179 29 270q0 43 -17 57.5t-51 14.5q-123 0 -151 -236q-21 -180 -21 -215z" />
<glyph unicode="c" horiz-adv-x="841" d="M51 307q0 146 21.5 290t52.5 224q24 62 64.5 105.5t94.5 66t112 32t130 9.5q146 0 240 -30q27 -8 40 -27.5t13 -65.5q0 -52 -6.5 -89.5t-14.5 -55.5t-21 -28t-20.5 -11.5t-17.5 -1.5q-13 0 -87 8t-107 8q-56 0 -83 -19.5t-38 -62.5q-15 -62 -25 -149t-10 -148 q0 -49 18 -69.5t72 -20.5q49 0 143.5 16.5t100.5 16.5q26 0 40.5 -16.5t14.5 -61.5q0 -94 -17.5 -138t-55.5 -62q-92 -45 -308 -45q-88 0 -149 15t-107 51t-68 100t-22 159z" />
<glyph unicode="d" horiz-adv-x="1062" d="M51 227q0 160 39 406q19 120 49.5 199.5t75.5 123.5t98 61t127 17q183 0 244 -137l35 363q6 59 40 75.5t136 16.5q93 0 124.5 -13t31.5 -59q0 -25 -4 -61l-72 -719q-17 -163 -17 -224q0 -24 10.5 -103.5t10.5 -94.5q0 -41 -37 -59.5t-135 -18.5q-49 0 -75.5 3.5 t-42.5 16.5t-22 29t-12 49l-16 86q-60 -110 -147.5 -157t-206.5 -47q-234 0 -234 247zM410 338q0 -43 16.5 -57.5t50.5 -14.5q124 0 152 236q18 154 18 194q0 29 -19 40.5t-63 11.5q-61 0 -88 -29.5t-39 -110.5q-28 -173 -28 -270z" />
<glyph unicode="e" horiz-adv-x="948" d="M51 307q0 146 21.5 290t52.5 224q47 122 151.5 167.5t284.5 45.5q102 0 172 -17.5t108 -52.5t54 -79.5t16 -106.5q0 -279 -141 -356q-119 -67 -381 -70q0 -46 20 -65t70 -19q78 0 184.5 22.5t114.5 22.5q60 0 60 -94q0 -47 -5.5 -79t-18 -51t-23 -28t-29.5 -20 q-45 -25 -134.5 -42t-189.5 -17q-103 0 -172.5 15t-119.5 51.5t-72.5 100t-22.5 158.5zM403 553q88 3 134 22q55 22 55 121q0 52 -62 52q-49 0 -72.5 -21t-35.5 -74q-10 -38 -19 -100z" />
<glyph unicode="f" horiz-adv-x="669" d="M-174 -299q0 46 5 85t23.5 73.5t49.5 34.5q14 0 49 -4.5t59 -4.5q38 0 51 17.5t19 79.5l78 757h-56q-29 0 -41 14t-12 44q0 32 7 86.5t18 83.5q14 37 57 37h55q23 204 62 272q67 117 256 117q132 0 209 -25q33 -10 45 -31t12 -67q0 -94 -20.5 -129t-59.5 -35q-14 0 -51 5 t-57 5q-26 0 -39 -14t-17 -51l-6 -47h140q29 0 41 -14t12 -44q0 -32 -7 -86.5t-18 -83.5q-14 -37 -57 -37h-123l-86 -817q-19 -181 -110.5 -256.5t-241.5 -75.5q-129 0 -199 23q-47 16 -47 88z" />
<glyph unicode="g" horiz-adv-x="1050" d="M2 -285q0 46 5 85t23.5 73.5t49.5 34.5q4 0 94 -11.5t160 -11.5q80 0 123.5 7.5t71.5 34t38.5 64.5t18.5 113q-105 -124 -301 -124q-234 0 -234 247q0 160 39 406q19 120 49.5 199.5t75.5 123.5t98 61t127 17q192 0 248 -149l4 24q9 63 43 84t137 21q90 0 119 -13t29 -57 q0 -14 -12 -131l-72 -692q-10 -100 -32.5 -178.5t-52 -134t-72.5 -95t-87.5 -63.5t-104 -37.5t-114.5 -18t-127 -4.5q-73 0 -160 10.5t-137 26.5q-47 16 -47 88zM410 338q0 -43 16.5 -57.5t50.5 -14.5q124 0 152 236q18 154 18 194q0 29 -19 40.5t-63 11.5q-61 0 -88 -29.5 t-39 -110.5q-28 -173 -28 -270z" />
<glyph unicode="h" horiz-adv-x="1060" d="M37 70q0 14 12 131l111 1059q6 59 44 75.5t146 16.5q92 0 125 -13.5t33 -56.5q0 -14 -12 -131l-25 -240q95 123 291 123q246 0 246 -186q0 -44 -30 -306t-30 -302q0 -36 5 -85t5 -57q0 -20 -3 -31.5t-16.5 -29.5t-50.5 -27.5t-95 -9.5q-84 0 -118.5 12t-51.5 49 q-10 22 -16.5 65t-6.5 71q0 54 22.5 263t22.5 226q0 26 -11 38.5t-44 12.5q-71 0 -109.5 -40t-44.5 -109l-51 -496q-6 -59 -44 -75.5t-146 -16.5q-92 0 -125 13.5t-33 56.5z" />
<glyph unicode="i" horiz-adv-x="514" d="M51 197q0 29 23 245l51 480q6 59 44 75.5t146 16.5q92 0 125 -13.5t33 -56.5q0 -27 -37 -357t-37 -347q0 -36 5.5 -85t5.5 -57q0 -19 -3 -31t-17 -30t-51 -27.5t-95 -9.5q-84 0 -118.5 12t-51.5 49q-10 22 -16.5 65t-6.5 71zM150 1180q0 108 38 139q22 20 62.5 26.5 t120.5 6.5q90 0 122.5 -22t32.5 -77q0 -107 -39 -139q-22 -20 -62 -26.5t-120 -6.5q-90 0 -122.5 22t-32.5 77z" />
<glyph unicode="j" horiz-adv-x="505" d="M-229 -299q0 193 77 193q13 0 48.5 -4.5t64.5 -4.5t41.5 12t17.5 40q9 58 15 116l90 869q6 59 44 75.5t146 16.5q93 0 126.5 -13.5t33.5 -56.5q0 -13 -22 -235l-84 -787q-19 -181 -111 -256.5t-242 -75.5q-128 0 -198 23q-47 16 -47 88zM150 1180q0 108 38 139 q22 20 62.5 26.5t120.5 6.5q90 0 122.5 -22t32.5 -77q0 -107 -39 -139q-22 -20 -62 -26.5t-120 -6.5q-90 0 -122.5 22t-32.5 77z" />
<glyph unicode="k" horiz-adv-x="995" d="M37 70q0 14 12 131l111 1059q6 59 44 75.5t146 16.5q92 0 125 -13.5t33 -56.5q0 -14 -12 -131l-56 -518h45q69 90 160 295q16 36 30 51t54 25t117 10q55 0 90.5 -6t51 -18t20 -24t4.5 -30q0 -72 -78.5 -191.5t-171.5 -214.5q50 -133 178 -364q29 -52 29 -80 q0 -86 -191 -86q-99 0 -139 20.5t-76 92.5q-26 51 -100 313h-43l-35 -334q-6 -59 -44 -75.5t-146 -16.5q-92 0 -125 13.5t-33 56.5z" />
<glyph unicode="l" horiz-adv-x="514" d="M51 197q0 29 23 245l86 818q6 59 44 75.5t146 16.5q92 0 125 -13.5t33 -56.5q0 -14 -12 -131l-70 -651l-27 -260q0 -36 5.5 -85t5.5 -57q0 -19 -3 -31t-17 -30t-51 -27.5t-95 -9.5q-84 0 -118.5 12t-51.5 49q-10 22 -16.5 65t-6.5 71z" />
<glyph unicode="m" horiz-adv-x="1554" d="M41 66q0 14 12 131q53 509 53 555q0 14 -5 82t-5 79q0 53 36.5 75t133.5 22q100 0 130 -15t34 -69l6 -72q88 180 293 180q109 0 165 -38t71 -126q99 164 290 164q246 0 246 -186q0 -44 -29.5 -306t-29.5 -302q0 -36 5 -85t5 -57q0 -19 -3 -31t-17 -30t-51 -27.5t-95 -9.5 q-84 0 -118.5 12t-51.5 49q-10 21 -16 64t-6 72q0 54 22.5 263t22.5 226q0 26 -11.5 38.5t-44.5 12.5q-110 0 -127 -168l-51 -481q-6 -59 -44 -75.5t-146 -16.5q-92 0 -125 13.5t-33 56.5q0 10 6 75q5 54 20 196t25 238.5t10 110.5q0 27 -9.5 39t-43.5 12q-107 0 -125 -168 l-51 -481q-6 -59 -44 -75.5t-146 -16.5q-92 0 -125 13.5t-33 56.5z" />
<glyph unicode="n" horiz-adv-x="1062" d="M41 70q0 14 12 131q53 469 53 555q0 14 -5 82.5t-5 79.5q0 52 36.5 74t133.5 22q100 0 130 -15t34 -69l6 -76q92 180 328 180q246 0 246 -186q0 -44 -30 -306t-30 -302q0 -36 5.5 -85t5.5 -57q0 -19 -3 -31t-17 -30t-51 -27.5t-95 -9.5q-84 0 -118.5 12t-51.5 49 q-10 22 -16.5 65t-6.5 71q0 54 22.5 263t22.5 226q0 26 -11 38.5t-44 12.5q-133 0 -152 -164l-51 -481q-6 -59 -44 -75.5t-146 -16.5q-92 0 -125 13.5t-33 56.5z" />
<glyph unicode="o" horiz-adv-x="993" d="M51 307q0 116 21.5 274.5t52.5 239.5q47 121 148.5 167t267.5 46q109 0 181 -15t123.5 -51.5t74 -99.5t22.5 -159q0 -116 -21.5 -274.5t-52.5 -239.5q-47 -121 -148 -167t-267 -46q-109 0 -181.5 15t-123.5 51.5t-74 99.5t-23 159zM393 369q0 -58 15.5 -76.5t62.5 -18.5 q49 0 68.5 19.5t29.5 64.5q12 52 21.5 151t9.5 138q0 58 -15 76t-63 18q-49 0 -68.5 -19.5t-29.5 -64.5q-12 -52 -21.5 -150.5t-9.5 -137.5z" />
<glyph unicode="p" horiz-adv-x="1048" d="M6 -289q0 19 6 68l82 790q15 154 15 187q0 25 -5.5 86t-5.5 76q0 52 36.5 74t133.5 22q103 0 136 -30.5t38 -127.5q94 178 324 178q132 0 187 -64.5t55 -207.5q0 -116 -33.5 -334t-95.5 -313q-53 -81 -123.5 -108t-165.5 -27q-125 0 -199 81l-35 -337q-7 -66 -43.5 -84.5 t-140.5 -18.5q-85 0 -125.5 19t-40.5 71zM410 297q0 -24 15.5 -31.5t53.5 -7.5q91 0 119 57q20 39 35.5 170t15.5 191q0 43 -16.5 57.5t-50.5 14.5q-124 0 -152 -236q-20 -171 -20 -215z" />
<glyph unicode="q" horiz-adv-x="1050" d="M51 227q0 160 39 406q19 120 49.5 199.5t75.5 123.5t98 61t127 17q192 0 248 -149l4 24q9 63 43 84t137 21q90 0 119 -13t29 -57q0 -14 -12 -131l-111 -1089q-7 -66 -43.5 -84.5t-140.5 -18.5q-85 0 -125.5 19t-40.5 71q0 19 6 68l33 325q-105 -124 -301 -124 q-234 0 -234 247zM410 338q0 -43 16.5 -57.5t50.5 -14.5q124 0 152 236q18 154 18 194q0 29 -19 40.5t-63 11.5q-61 0 -88 -29.5t-39 -110.5q-28 -173 -28 -270z" />
<glyph unicode="r" horiz-adv-x="788" d="M41 70q0 14 12 131l39 368q14 143 14 183q0 14 -5 82t-5 79q0 53 36.5 75t133.5 22q100 0 130 -15t34 -69l4 -64q99 162 258 162q81 0 107 -29q16 -19 16 -69q0 -49 -11 -104.5t-24 -78.5q-17 -32 -53 -32q-3 0 -41.5 3t-69.5 3q-90 0 -132.5 -65t-59.5 -232l-35 -328 q-6 -59 -44 -75.5t-146 -16.5q-92 0 -125 13.5t-33 56.5z" />
<glyph unicode="s" horiz-adv-x="854" d="M18 104q0 85 19.5 139t58.5 54q6 0 94 -11.5t156 -11.5q98 0 98 50q0 14 -9 23.5t-34 19.5l-147 61q-94 38 -136 88t-42 135q0 88 32.5 177t88.5 133q92 73 282 73q193 0 291 -30q25 -7 39 -27t14 -66q0 -52 -6.5 -89.5t-14.5 -55.5t-21 -28t-20.5 -11.5t-17.5 -1.5 q-19 0 -121 12.5t-143 12.5q-19 0 -30 -11q-13 -13 -13 -32q0 -12 8 -20t31 -17l137 -56q104 -42 145.5 -101t41.5 -138q0 -105 -31.5 -191t-93.5 -131q-100 -73 -316 -73q-71 0 -156.5 9.5t-125.5 22.5q-32 11 -45 31t-13 61z" />
<glyph unicode="t" horiz-adv-x="724" d="M59 797q0 32 7 86.5t18 83.5q14 37 57 37h62l14 133q6 60 37.5 76t136.5 16q93 0 127.5 -13.5t34.5 -56.5q0 -25 -14 -155h131q29 0 41 -14t12 -44q0 -32 -7 -86.5t-18 -83.5q-14 -37 -57 -37h-119l-35 -350q-8 -79 -8 -86q0 -18 43 -18q14 0 42.5 5t39.5 5q60 0 60 -94 q0 -89 -19 -124.5t-57 -53.5q-38 -19 -106.5 -31t-131.5 -12q-116 0 -173.5 43t-57.5 149q0 24 6 92l49 475h-61q-54 0 -54 58z" />
<glyph unicode="u" horiz-adv-x="1052" d="M51 156q0 46 29 284q33 263 33 316q0 25 -5.5 86t-5.5 76q0 52 36.5 74t133.5 22q94 0 124 -17t42 -73q17 -80 17 -154q0 -32 -22.5 -230t-22.5 -223q0 -30 15 -40.5t48 -10.5q68 0 100.5 60.5t42.5 169.5l46 426q6 59 44 75.5t146 16.5q92 0 125 -13.5t33 -56.5 q0 -25 -31 -317t-31 -351q0 -24 10.5 -103.5t10.5 -94.5q0 -41 -37 -59.5t-135 -18.5q-49 0 -75.5 3.5t-42.5 16.5t-22 29t-12 49l-16 84q-50 -102 -133.5 -152t-208.5 -50q-46 0 -85 8t-74.5 26.5t-56 54.5t-20.5 87z" />
<glyph unicode="v" horiz-adv-x="970" d="M57 905q0 31 9 52t21.5 32.5t41 17t52.5 6.5t71 1q74 0 109 -7t49.5 -25t17.5 -58q2 -28 9 -287t12 -354h20q23 88 81.5 354.5t63.5 286.5q13 56 51 73t146 17q102 0 139 -14.5t37 -63.5q0 -45 -61 -225q-169 -501 -219 -598q-22 -42 -48.5 -63.5t-90 -35.5t-173.5 -14 q-149 0 -199 28.5t-59 118.5l-67 629q-13 106 -13 129z" />
<glyph unicode="w" horiz-adv-x="1536" d="M80 891q0 67 37.5 95t146.5 28q114 0 145 -20t31 -93q0 -70 -6 -337t-6 -281h27l155 624q13 52 56 69t147 17q101 0 140 -19.5t42 -72.5q2 -36 6.5 -319t4.5 -299h24q17 59 133 641q12 57 51 73.5t156 16.5q59 0 89.5 -4t51.5 -21.5t21 -52.5q0 -36 -82 -322 q-118 -409 -158 -491q-18 -38 -34 -58t-49 -36.5t-85 -22.5t-137 -6q-55 0 -91 5.5t-59.5 15t-35.5 30t-17 43.5t-8 62l-20 303h-19q-58 -212 -98 -334q-16 -47 -42 -72t-86.5 -39t-168.5 -14q-138 0 -187.5 25t-52.5 98l-18 555q-4 172 -4 213z" />
<glyph unicode="x" horiz-adv-x="946" d="M-31 78q0 44 49 115l218 325l-109 285q-31 85 -31 123q0 57 40 72.5t143 15.5q102 0 138.5 -19t53.5 -90l39 -166h8l86 187q27 59 59.5 73.5t127.5 14.5q108 0 144 -13t36 -65q0 -48 -41 -107l-221 -321l145 -305q35 -71 35 -119q0 -27 -14.5 -44.5t-42.5 -25.5t-57 -11 t-68 -3q-103 0 -140 17.5t-59 86.5l-62 195h-10l-94 -211q-26 -57 -61.5 -72.5t-130.5 -15.5q-42 0 -68 2t-55 9t-43.5 24t-14.5 43z" />
<glyph unicode="y" horiz-adv-x="989" d="M-27 -291q0 28 4 58t12 61t25.5 50.5t40.5 19.5q10 0 76 -6.5t96 -6.5q62 0 98 13t52 35.5t29 66.5q-153 0 -206.5 29t-60.5 118l-55 623q-2 18 -5 49t-5 53t-2 33q0 69 43 90q40 19 151 19q74 0 109 -7t49.5 -25t17.5 -58q2 -24 5.5 -282t7.5 -359h20q43 175 154 641 q13 57 51.5 73.5t153.5 16.5q95 0 128 -15.5t33 -58.5q0 -28 -53 -229q-133 -507 -198 -700.5t-119 -264.5q-61 -82 -157.5 -119t-244.5 -37q-44 0 -104.5 7.5t-95.5 19.5q-50 17 -50 92z" />
<glyph unicode="z" horiz-adv-x="829" d="M2 68q0 31 7 80t18 79q12 30 53 84q272 351 309 412h-211q-74 0 -74 61q0 102 23 172q16 48 74 48h555q30 0 41.5 -14t11.5 -44q0 -121 -35 -184q-72 -131 -332 -471h236q74 0 74 -62q0 -102 -23 -172q-16 -47 -74 -47h-600q-29 0 -41 14t-12 44z" />
<glyph unicode="{" horiz-adv-x="716" d="M35 584q0 69 18 125q11 36 28.5 49.5t55.5 13.5q54 0 62 76l22 242q29 303 293 303q115 0 213 -25q41 -11 41 -82q0 -23 -2.5 -49.5t-9.5 -59.5t-22.5 -54t-37.5 -21q-16 0 -53 1t-49 1q-16 0 -24.5 -10.5t-11 -22.5t-5.5 -35q-9 -68 -21 -192q-14 -143 -129 -191l-2 -10 q46 -20 67 -51.5t21 -93.5q0 -45 -13 -139t-13 -138q0 -37 29 -37q12 0 49 1t53 1q23 0 34 -17t11 -58q0 -173 -70 -191q-99 -24 -217 -24q-233 0 -233 241q0 49 17.5 165t17.5 165q0 57 -48 57q-37 0 -54 14t-17 46z" />
<glyph unicode="|" horiz-adv-x="442" d="M-14 -324q0 14 6 68l166 1577q4 45 34 58.5t109 13.5q74 0 101.5 -10.5t27.5 -45.5q0 -13 -6 -67l-166 -1577q-4 -45 -34 -58.5t-109 -13.5q-74 0 -101.5 10t-27.5 45z" />
<glyph unicode="}" horiz-adv-x="716" d="M-39 2q0 23 2.5 49.5t9.5 59.5t22.5 54t37.5 21q16 0 53 -1t49 -1q16 0 24.5 10.5t11 22.5t5.5 35q9 67 21 192q14 143 129 191l2 10q-46 20 -67 51.5t-21 94.5q0 45 13 138.5t13 137.5q0 37 -28 37q-12 0 -49.5 -1t-53.5 -1q-45 0 -45 76q0 172 70 190q103 25 217 25 q233 0 233 -242q0 -49 -17.5 -165t-17.5 -165q0 -57 48 -57q37 0 54 -13.5t17 -45.5q0 -69 -18 -125q-11 -36 -28.5 -50t-55.5 -14q-54 0 -62 -76l-22 -241q-29 -303 -293 -303q-119 0 -213 24q-41 11 -41 82z" />
<glyph unicode="~" d="M129 504q0 40 13.5 91.5t41.5 84.5q58 65 187 65q59 0 139.5 -23.5t132.5 -23.5q49 0 99 18.5t59 18.5q22 0 33.5 -15t11.5 -56q0 -40 -13.5 -92t-41.5 -85q-58 -65 -187 -65q-59 0 -139.5 23.5t-132.5 23.5q-49 0 -99 -18.5t-59 -18.5q-22 0 -33.5 15.5t-11.5 56.5z" />
<glyph unicode="&#xa2;" d="M94 547q0 117 22.5 222t61.5 167q80 125 264 151l15 134q4 45 33 57t110 12q74 0 100.5 -10t26.5 -45q0 -19 -14 -148q88 -11 145 -30q26 -10 36.5 -26t10.5 -56q0 -94 -20.5 -140.5t-50.5 -46.5q-7 0 -92 11.5t-130 11.5q-58 0 -91.5 -10t-51.5 -37q-29 -45 -29 -160 q0 -68 31 -91.5t115 -23.5q72 0 145.5 11.5t75.5 11.5q43 0 43 -84q0 -69 -11.5 -110t-26 -54t-38.5 -20q-80 -25 -151 -33l-15 -141q-4 -45 -33.5 -57.5t-109.5 -12.5q-74 0 -100.5 10t-26.5 45q0 21 16 160q-127 22 -193.5 97.5t-66.5 234.5z" />
<glyph unicode="&#xa3;" d="M53 63q0 55 19.5 114.5t44 104t48 106t28.5 116.5l4 39h-72q-27 0 -38 10.5t-11 38.5q0 76 16 113q14 34 60 34h65l19 176q9 78 25.5 138.5t35.5 101t48.5 68.5t54.5 43t63 23t64.5 9.5t68.5 1.5q136 0 309 -38q21 -5 30 -19.5t9 -54.5q0 -74 -18.5 -141.5t-57.5 -67.5 q-25 0 -80 7t-88 7q-38 0 -56.5 -2t-36.5 -12.5t-25 -31.5t-11 -58l-14 -150h117q27 0 37 -10t10 -39q0 -80 -14 -112q-18 -35 -60 -35h-112q-11 -73 -33 -142.5t-45 -97.5h362q38 0 54 -18.5t16 -69.5q0 -123 -26 -169t-77 -46h-647q-45 0 -65.5 13t-20.5 50z" />
<glyph unicode="&#xa5;" d="M88 1206q0 49 43 66.5t131 17.5q80 0 115.5 -8t50 -27.5t21.5 -66.5l59 -350h12l133 350q19 47 38 66.5t56 27.5t117 8q96 0 128 -13.5t32 -47.5q0 -49 -59 -152l-250 -434h73q27 0 37.5 -10.5t10.5 -40.5q0 -82 -15 -117q-18 -37 -61 -37h-115l-6 -73h121q27 0 37 -11 t10 -41q0 -84 -14 -116q-18 -37 -62 -37h-115l-6 -68q-6 -59 -43.5 -75.5t-140.5 -16.5q-95 0 -130.5 13.5t-35.5 58.5q0 11 4 47l4 41h-118q-27 0 -38.5 10.5t-11.5 40.5q0 78 17 117q14 37 61 37h111l8 73h-119q-27 0 -38 10.5t-11 40.5q0 80 16 117q14 37 62 37h65 l-155 434q-29 85 -29 129z" />
<glyph unicode="&#xa8;" horiz-adv-x="874" d="M121 1180q0 109 39 141q22 20 56 25.5t114 5.5q89 0 116 -21t27 -78q0 -109 -39 -141q-22 -20 -56 -25.5t-114 -5.5q-89 0 -116 21t-27 78zM530 1180q0 109 39 141q22 20 56 25.5t114 5.5q89 0 116.5 -21t27.5 -78q0 -109 -39 -141q-22 -20 -56 -25.5t-114 -5.5 q-89 0 -116.5 21t-27.5 78z" />
<glyph unicode="&#xa9;" horiz-adv-x="1855" d="M61 645q0 102 5 183.5t17.5 165t34.5 148t56.5 127.5t82.5 108.5t113.5 85t148 63.5t188 37.5t231.5 13.5t231.5 -13.5t188 -37.5t148 -63.5t113.5 -85t82.5 -108.5t56.5 -127.5t34.5 -148t17.5 -165t5 -183.5t-5 -183.5t-17.5 -165t-34.5 -148t-56.5 -127.5 t-82.5 -108.5t-113.5 -85t-148 -63.5t-188 -37.5t-231.5 -13.5t-231.5 13.5t-188 37.5t-148 63.5t-113.5 85t-82.5 108.5t-56.5 127.5t-34.5 148t-17.5 165t-5 183.5zM328 651q0 -100 4 -174t15.5 -147t31.5 -123.5t52 -97.5t77 -76.5t107 -52t142 -32t181 -9.5t181 9.5 t142 32t107 52t77 76.5t52 97.5t31.5 123.5t15.5 147t4 174q0 98 -4 170t-15.5 143.5t-31.5 122t-52 96.5t-77 75.5t-107 52t-142 32t-181 9.5t-181 -9.5t-142 -32t-107 -52t-77 -75.5t-52 -96.5t-31.5 -122t-15.5 -143.5t-4 -170zM522 645q0 114 12 199.5t38 144t60 96 t86 58t107.5 28t132.5 7.5q75 0 155 -12t124 -27q32 -11 45.5 -40t13.5 -100q0 -139 -55 -139q-7 0 -92.5 11.5t-130.5 11.5q-34 0 -52 -1.5t-38.5 -7.5t-30 -19t-18.5 -36t-12 -57.5t-3 -85.5q0 -121 13 -173.5t43.5 -68.5t103.5 -16q72 0 144.5 11t74.5 11q55 0 55 -139 q0 -71 -14 -100t-45 -39q-112 -39 -254 -39q-64 0 -112.5 4.5t-98.5 18.5t-86.5 38t-69 63t-53 93.5t-32 131t-11.5 173.5z" />
<glyph unicode="&#xab;" horiz-adv-x="1318" d="M35 438q0 50 10.5 120t26.5 101q13 25 32.5 45t37 31t48.5 27l371 194q30 15 53 15q54 0 54 -68q0 -55 -5.5 -93t-30 -84t-69.5 -77l-190 -127l-2 -16l164 -135q35 -29 47 -51t12 -68q0 -77 -11 -122t-26.5 -59t-38.5 -14q-21 0 -51 15l-330 194q-39 23 -57.5 39 t-31.5 49t-13 84zM668 438q0 50 10.5 120t26.5 101q27 51 112 101l377 217q28 14 53 14q53 0 53 -67q0 -83 -20 -144t-82 -110l-192 -148l-2 -16l159 -156q24 -23 34 -34.5t18 -33t8 -51.5q0 -112 -20 -153t-56 -41q-31 0 -68 24l-309 205q-61 41 -81.5 71.5t-20.5 100.5z " />
<glyph unicode="&#xad;" horiz-adv-x="681" d="M29 430q0 40 7.5 95t18.5 79q24 51 88 51h437q41 0 57 -15t16 -58q0 -40 -7.5 -95t-18.5 -79q-24 -52 -88 -52h-437q-41 0 -57 15.5t-16 58.5z" />
<glyph unicode="&#xae;" horiz-adv-x="1855" d="M61 645q0 102 5 183.5t17.5 165t34.5 148t56.5 127.5t82.5 108.5t113.5 85t148 63.5t188 37.5t231.5 13.5t231.5 -13.5t188 -37.5t148 -63.5t113.5 -85t82.5 -108.5t56.5 -127.5t34.5 -148t17.5 -165t5 -183.5t-5 -183.5t-17.5 -165t-34.5 -148t-56.5 -127.5 t-82.5 -108.5t-113.5 -85t-148 -63.5t-188 -37.5t-231.5 -13.5t-231.5 13.5t-188 37.5t-148 63.5t-113.5 85t-82.5 108.5t-56.5 127.5t-34.5 148t-17.5 165t-5 183.5zM328 651q0 -100 4 -174t15.5 -147t31.5 -123.5t52 -97.5t77 -76.5t107 -52t142 -32t181 -9.5t181 9.5 t142 32t107 52t77 76.5t52 97.5t31.5 123.5t15.5 147t4 174q0 98 -4 170t-15.5 143.5t-31.5 122t-52 96.5t-77 75.5t-107 52t-142 32t-181 9.5t-181 -9.5t-142 -32t-107 -52t-77 -75.5t-52 -96.5t-31.5 -122t-15.5 -143.5t-4 -170zM530 236v821q0 58 16.5 77t69.5 25 q165 19 381 19q105 0 173 -16t117 -58.5t70 -116t21 -188.5q0 -190 -118 -258l112 -248q33 -67 33 -92q0 -31 -31.5 -44.5t-120.5 -13.5q-130 0 -164.5 14.5t-52.5 82.5l-65 241h-92v-245q0 -59 -35.5 -76t-138.5 -17t-139 17t-36 76zM879 707h61q60 0 79 21t19 83 q0 54 -12 71t-59 17q-42 0 -88 -4v-188z" />
<glyph unicode="&#xb4;" horiz-adv-x="528" d="M156 1159q0 30 24 105l33 100q18 53 35.5 75.5t58.5 34t123 11.5q73 0 110 -7.5t46.5 -19t9.5 -33.5q0 -40 -51 -133l-56 -100q-27 -51 -65.5 -70.5t-138.5 -19.5q-75 0 -102 13t-27 44z" />
<glyph unicode="&#xb8;" horiz-adv-x="577" d="M-72 -420q0 24 2.5 47.5t9.5 51.5t23.5 45.5t40.5 17.5q13 0 53.5 -5t63.5 -5q32 0 35 16q0 18 -47 37q-37 16 -51.5 35t-14.5 57q0 19 6 68l12 104h240l-4 -45q-4 -36 -4 -47q0 -17 22 -27q69 -35 97 -71t28 -97q0 -271 -305 -274q-91 0 -151 14q-31 7 -43.5 21.5 t-12.5 56.5z" />
<glyph unicode="&#xbb;" horiz-adv-x="1318" d="M18 104q0 82 20.5 143.5t82.5 110.5l192 148l2 16l-159 156q-24 23 -34 34.5t-18 33t-8 51.5q0 112 20 153t56 41q31 0 68 -24l309 -205q61 -41 81.5 -71.5t20.5 -100.5q0 -50 -10.5 -120t-26.5 -101q-27 -51 -112 -101l-377 -217q-28 -14 -53 -14q-54 0 -54 67zM651 125 q0 55 5.5 93t30 84t69.5 77l190 127l2 16l-164 135q-35 29 -47 51t-12 68q0 77 11 122t26.5 59t38.5 14q21 0 51 -15l330 -194q39 -23 57.5 -39t31.5 -49t13 -84q0 -50 -10.5 -120t-26.5 -101q-13 -25 -33 -45t-37 -30.5t-49 -27.5l-370 -194q-30 -15 -53 -15q-54 0 -54 68z " />
<glyph unicode="&#x2c6;" horiz-adv-x="733" d="M104 1147q0 24 66 113l117 157q28 39 57.5 53.5t85.5 14.5h78q49 0 75.5 -15.5t47.5 -52.5l92 -162q41 -72 41 -100q0 -34 -23 -43.5t-94 -9.5q-46 0 -70 6.5t-39.5 20.5t-37.5 47l-47 71h-13l-61 -71q-42 -51 -67.5 -62.5t-90.5 -11.5q-67 0 -92 9t-25 36z" />
<glyph unicode="&#x2da;" horiz-adv-x="757" d="M147 1323q0 157 87.5 228t252.5 71q140 0 212.5 -51t72.5 -172q0 -157 -87.5 -227t-254.5 -70q-138 0 -210.5 51.5t-72.5 169.5zM379 1348q0 -23 15 -31t59 -8q56 0 72 13.5t16 53.5q0 23 -15.5 31t-60.5 8q-55 0 -70.5 -13.5t-15.5 -53.5z" />
<glyph unicode="&#x2dc;" horiz-adv-x="815" d="M152 1186q0 91 17 140t54 71q67 37 158 37q61 0 141 -17.5t119 -17.5q45 0 93.5 11t58.5 11q18 0 25 -10t7 -41q0 -91 -17 -140t-54 -71q-67 -37 -158 -37q-61 0 -141 17.5t-119 17.5q-46 0 -94.5 -11t-57.5 -11q-18 0 -25 10t-7 41z" />
<glyph unicode="&#x401;" horiz-adv-x="925" d="M27 59q0 17 4 41l116 1108q6 51 27 66.5t74 15.5h624q38 0 54 -18t16 -68q0 -86 -12.5 -135t-33 -65.5t-54.5 -16.5h-369l-18 -168h225q41 0 56.5 -15.5t15.5 -58.5q0 -134 -23 -179.5t-80 -45.5h-225l-23 -217h390q38 0 53.5 -18.5t15.5 -69.5q0 -124 -25.5 -169.5 t-76.5 -45.5h-645q-47 0 -66.5 11.5t-19.5 47.5zM188 1456q0 109 39 141q22 20 56 25.5t114 5.5q89 0 116.5 -20.5t27.5 -77.5q0 -109 -39 -141q-22 -20 -56 -25.5t-114 -5.5q-89 0 -116.5 20.5t-27.5 77.5zM598 1456q0 109 39 141q22 20 56 25.5t114 5.5q89 0 116 -20.5 t27 -77.5q0 -109 -39 -141q-22 -20 -56 -25.5t-114 -5.5q-89 0 -116 20.5t-27 77.5z" />
<glyph unicode="&#x402;" horiz-adv-x="1214" d="M41 1077q0 84 13.5 132.5t34.5 64.5t54 16h734q38 0 53.5 -18t15.5 -68q0 -86 -12.5 -135t-33 -65.5t-54.5 -16.5h-193l-20 -203q99 127 282 127q246 0 246 -186q0 -38 -14 -164l-27 -250q-11 -100 -41 -169t-74 -102.5t-87 -46.5t-95 -13q-93 0 -157 22q-48 17 -48 88 q0 46 5 85t23.5 73.5t49.5 34.5q8 0 25 -2t24 -2q19 0 24.5 9.5t8.5 41.5l13 133q8 94 8 100q0 26 -11.5 38.5t-44.5 12.5q-58 0 -96.5 -41t-46.5 -108l-41 -373q-6 -59 -43.5 -75.5t-140.5 -16.5q-95 0 -130.5 13.5t-35.5 58.5q0 11 4 47l92 868h-192q-39 0 -55.5 19 t-16.5 71z" />
<glyph unicode="&#x403;" horiz-adv-x="870" d="M27 72q0 11 4 47l114 1089q6 51 27 66.5t74 15.5h592q38 0 53.5 -18t15.5 -68q0 -86 -12.5 -135t-33 -65.5t-54.5 -16.5h-336l-94 -895q-6 -59 -43.5 -75.5t-140.5 -16.5q-95 0 -130.5 13.5t-35.5 58.5zM373 1436q0 29 24 104l33 100q18 53 35.5 75.5t58.5 34t123 11.5 q105 0 135.5 -13t30.5 -46q0 -40 -51 -133l-55 -101q-27 -51 -66 -70.5t-139 -19.5q-75 0 -102 13.5t-27 44.5z" />
<glyph unicode="&#x404;" horiz-adv-x="933" d="M39 352q0 90 31 375q12 111 36.5 199t55 147.5t73.5 102.5t83 66.5t92 37t93 17t93 3.5q176 0 311 -38q20 -5 28.5 -20.5t8.5 -57.5q0 -71 -10 -121t-23.5 -71t-29.5 -21q-8 0 -83.5 11t-146.5 11q-53 0 -87 -7t-64 -27t-49 -59.5t-31 -102.5h266q41 0 56.5 -15.5 t15.5 -58.5q0 -119 -23.5 -161t-79.5 -42h-266q-4 -39 -4 -92q0 -81 43.5 -106t149.5 -25q75 0 147.5 11t85.5 11q19 0 27 -14t8 -49q0 -209 -70 -227q-146 -39 -327 -39q-74 0 -132 9.5t-111.5 34t-89 64.5t-56.5 104t-21 150z" />
<glyph unicode="&#x405;" horiz-adv-x="925" d="M-8 123q0 79 23 137.5t57 58.5q14 0 89 -11t146 -11q130 0 168 25q45 28 45 102q0 30 -16.5 49.5t-65.5 40.5l-184 78q-162 67 -162 272q0 83 23.5 164t60.5 133q101 139 350 139q197 0 332 -38q20 -5 28.5 -20.5t8.5 -57.5q0 -60 -6.5 -103.5t-18 -66.5t-23 -33 t-24.5 -10q-5 0 -81 11t-160 11q-116 0 -142 -37q-12 -18 -12 -45t15.5 -41.5t52.5 -29.5l174 -76q96 -41 141 -98.5t45 -169.5q0 -316 -205 -437q-118 -69 -325 -69q-151 0 -279 35q-30 8 -42.5 27.5t-12.5 70.5z" />
<glyph unicode="&#x406;" horiz-adv-x="505" d="M27 72q0 11 4 47l112 1079q6 59 44 75.5t141 16.5q96 0 131 -13t35 -58q0 -3 -5 -48l-112 -1079q-6 -59 -43.5 -75.5t-140.5 -16.5q-95 0 -130.5 13.5t-35.5 58.5z" />
<glyph unicode="&#x407;" horiz-adv-x="505" d="M-27 1456q0 109 39 141q22 20 56 25.5t114 5.5q89 0 116.5 -20.5t27.5 -77.5q0 -109 -39 -141q-22 -20 -56 -25.5t-114 -5.5q-89 0 -116.5 20.5t-27.5 77.5zM27 72q0 11 4 47l112 1079q6 59 44 75.5t141 16.5q96 0 131 -13t35 -58q0 -3 -5 -48l-112 -1079 q-6 -59 -43.5 -75.5t-140.5 -16.5q-95 0 -130.5 13.5t-35.5 58.5zM383 1456q0 109 39 141q22 20 56 25.5t114 5.5q89 0 116 -20.5t27 -77.5q0 -109 -39 -141q-22 -20 -56 -25.5t-114 -5.5q-89 0 -116 20.5t-27 77.5z" />
<glyph unicode="&#x408;" horiz-adv-x="778" d="M-8 115q0 83 10 127.5t22 54.5t33 10t74 -5t90 -5q61 0 83.5 19t29.5 83l86 799q6 59 43.5 75.5t140.5 16.5q96 0 131 -13t35 -58q0 -12 -4 -48l-82 -755q-25 -235 -113.5 -330.5t-279.5 -95.5q-133 0 -248 35q-28 8 -39.5 25.5t-11.5 64.5z" />
<glyph unicode="&#x409;" horiz-adv-x="1636" d="M-29 96q0 65 6 106t17.5 58t21 22t23.5 5q10 0 25.5 -2t25.5 -2q27 0 41.5 12.5t24.5 54.5l186 864q9 44 30 60t72 16h615q47 0 66.5 -11.5t19.5 -47.5q0 -15 -6 -64l-37 -346q120 10 231 10q156 0 220.5 -68.5t64.5 -221.5q0 -94 -12.5 -180.5t-47.5 -168.5t-88 -120 q-113 -82 -395 -82q-198 0 -330 14q-42 5 -56.5 16.5t-14.5 40.5q0 19 6 68l90 858h-152l-182 -817q-22 -101 -82.5 -140.5t-163.5 -39.5q-96 0 -165 14q-29 6 -41.5 25.5t-12.5 66.5zM1042 260q54 -4 82 -4q68 0 93 25q21 20 32 77t11 119q0 49 -21.5 68.5t-77.5 19.5 q-53 0 -88 -2z" />
<glyph unicode="&#x40a;" horiz-adv-x="1615" d="M27 72q0 11 4 47l112 1079q6 59 44 75.5t141 16.5q96 0 131 -13t35 -58q0 -3 -5 -48l-40 -385h256l43 412q6 59 43.5 75.5t140.5 16.5q96 0 131 -13t35 -58q0 -12 -4 -48l-37 -350q123 10 233 10q156 0 220.5 -68.5t64.5 -221.5q0 -94 -12.5 -180.5t-47.5 -168.5 t-88 -120q-113 -82 -395 -82q-198 0 -330 14q-42 5 -56.5 16.5t-14.5 40.5q0 19 6 68l39 375h-256l-43 -412q-6 -59 -43.5 -75.5t-140.5 -16.5q-95 0 -130.5 13.5t-35.5 58.5zM999 260q54 -4 82 -4q68 0 93 25q21 20 32 77t11 119q0 49 -21.5 68.5t-77.5 19.5q-53 0 -88 -2z " />
<glyph unicode="&#x40b;" horiz-adv-x="1204" d="M41 1077q0 84 13.5 132.5t34.5 64.5t54 16h734q38 0 53.5 -18t15.5 -68q0 -86 -12.5 -135t-33 -65.5t-54.5 -16.5h-193l-20 -196q90 120 272 120q246 0 246 -186q0 -43 -22.5 -244t-22.5 -241q0 -36 5 -85t5 -57q0 -19 -3 -31t-17 -30t-51 -27.5t-95 -9.5 q-84 0 -118.5 12t-51.5 49q-10 21 -16 64t-6 72q0 54 15 201.5t15 164.5q0 26 -11 38.5t-44 12.5q-57 0 -91 -40.5t-42 -108.5l-41 -373q-6 -59 -43.5 -75.5t-140.5 -16.5q-95 0 -130.5 13.5t-35.5 58.5q0 11 4 47l92 868h-192q-39 0 -55.5 19t-16.5 71z" />
<glyph unicode="&#x40c;" horiz-adv-x="1052" d="M27 72q0 11 4 47l112 1079q6 59 44 75.5t141 16.5q96 0 131 -13t35 -58q0 -3 -5 -48l-45 -417h39l222 452q27 56 66.5 70t156.5 14q97 0 127 -12t30 -45q0 -30 -36 -96l-275 -488l195 -489q18 -43 18 -74q0 -29 -11.5 -45.5t-57.5 -28.5t-132 -12q-89 0 -124.5 15.5 t-53.5 68.5l-143 453h-43l-45 -445q-6 -59 -43.5 -75.5t-140.5 -16.5q-95 0 -130.5 13.5t-35.5 58.5zM449 1436q0 29 24 104l33 100q18 53 35.5 75.5t58.5 34t123 11.5q105 0 135.5 -13t30.5 -46q0 -40 -51 -133l-56 -101q-27 -51 -65.5 -70.5t-138.5 -19.5q-75 0 -102 13.5 t-27 44.5z" />
<glyph unicode="&#x40e;" horiz-adv-x="1044" d="M20 96q0 197 70 197q21 0 73 -5t89 -5q82 0 123 16t67 68h-36q-87 0 -123 27.5t-50 94.5l-118 566q-25 123 -25 143q0 21 4 33.5t19.5 28t54.5 23t102 7.5q74 0 108 -8t46.5 -25t17.5 -57l72 -553h27l184 541q22 64 61 83t150 19q93 0 126.5 -17t33.5 -46q0 -25 -54 -158 l-344 -833q-56 -135 -154 -190.5t-249 -55.5q-118 0 -197 20q-38 10 -58 29.5t-20 56.5zM299 1593q0 53 6 90q6 39 33 52.5t100 13.5q58 0 76 -13t18 -44v-23q1 -15 3 -22.5t9.5 -15t24 -10.5t43.5 -3q52 0 67.5 13t25.5 52q9 41 32 53.5t90 12.5q62 0 83.5 -11.5 t21.5 -51.5q0 -168 -78 -246q-38 -38 -96 -55t-172 -17q-155 0 -221 51t-66 174z" />
<glyph unicode="&#x40f;" horiz-adv-x="1103" d="M27 59q0 15 6 64l114 1075q6 59 44 75.5t141 16.5q96 0 131 -13t35 -58q0 -12 -4 -48l-93 -868h246l94 895q6 59 44 75.5t141 16.5q96 0 131 -13t35 -58q0 -3 -5 -48l-116 -1089q-6 -51 -27 -66.5t-74 -15.5h-256l-20 -113q-5 -27 -9 -41.5t-11 -26t-21 -16t-32 -6.5 t-50 -2q-67 0 -84.5 11.5t-17.5 60.5q0 9 1 64t1 69h-258q-47 0 -66.5 11.5t-19.5 47.5z" />
<glyph unicode="&#x410;" horiz-adv-x="1138" d="M-29 61q0 37 27 123l307 942q15 45 32 73t40 47t62 28t85.5 12.5t122.5 3.5t122 -3.5t83.5 -12.5t56.5 -28t30.5 -47t16.5 -73l107 -942q6 -52 6 -84t-4 -47.5t-21.5 -29.5t-52 -18.5t-96.5 -4.5q-116 0 -149 18t-39 84l-17 185h-299l-53 -185q-20 -66 -57 -84t-152 -18 q-94 0 -126 13.5t-32 47.5zM467 543h203l-37 465h-29z" />
<glyph unicode="&#x411;" horiz-adv-x="1046" d="M27 61q0 19 6 68l114 1079q6 51 27 66.5t74 15.5h665q38 0 54 -18t16 -68q0 -86 -12.5 -135t-33 -65.5t-54.5 -16.5h-412l-20 -190q151 14 266 14q156 0 220 -65t64 -216q0 -69 -8 -143t-36.5 -163t-73.5 -134q-59 -59 -156.5 -79.5t-277.5 -20.5q-219 0 -351 14 q-42 5 -56.5 16.5t-14.5 40.5zM395 262q43 -6 103 -6q50 0 78 8.5t42 34.5q25 46 25 166q0 44 -20.5 62t-77.5 18q-19 0 -121 -4z" />
<glyph unicode="&#x412;" horiz-adv-x="1048" d="M27 61q0 19 6 68l110 1055q6 58 25 77t72 25q126 14 301 14q101 0 171 -6.5t130.5 -23.5t95.5 -47.5t54.5 -79t19.5 -117.5q0 -153 -49.5 -243t-163.5 -115q99 -18 144.5 -74.5t45.5 -169.5q0 -128 -25 -208.5t-89 -132.5t-165.5 -72.5t-263.5 -20.5q-216 0 -348 14 q-42 5 -56.5 16.5t-14.5 40.5zM393 252q43 -6 103 -6t89 16t42.5 62t13.5 141q0 44 -20 62t-76 18h-121zM449 776h77q71 0 95 31q26 31 26 141q0 38 -17.5 54t-62.5 16q-48 0 -94 -4z" />
<glyph unicode="&#x413;" horiz-adv-x="870" d="M27 72q0 11 4 47l114 1089q6 51 27 66.5t74 15.5h592q38 0 53.5 -18t15.5 -68q0 -86 -12.5 -135t-33 -65.5t-54.5 -16.5h-336l-94 -895q-6 -59 -43.5 -75.5t-140.5 -16.5q-95 0 -130.5 13.5t-35.5 58.5z" />
<glyph unicode="&#x414;" horiz-adv-x="1210" d="M-55 -137q0 18 8 88l27 260q6 59 33 75.5t100 16.5h28l209 911q11 45 31.5 60.5t71.5 15.5h624q47 0 66.5 -11.5t19.5 -47.5q0 -15 -6 -64l-92 -864h20q65 0 90 -11.5t25 -51.5q0 -18 -6 -78l-29 -275q-6 -59 -35 -75.5t-108 -16.5q-76 0 -100 16.5t-39 75.5l-29 113 h-571l-54 -113q-29 -59 -56 -75.5t-103 -16.5q-72 0 -98.5 13t-26.5 55zM473 303h244l71 684h-161z" />
<glyph unicode="&#x415;" horiz-adv-x="925" d="M27 59q0 17 4 41l116 1108q6 51 27 66.5t74 15.5h624q38 0 54 -18t16 -68q0 -86 -12.5 -135t-33 -65.5t-54.5 -16.5h-369l-18 -168h225q41 0 56.5 -15.5t15.5 -58.5q0 -134 -23 -179.5t-80 -45.5h-225l-23 -217h390q38 0 53.5 -18.5t15.5 -69.5q0 -124 -25.5 -169.5 t-76.5 -45.5h-645q-47 0 -66.5 11.5t-19.5 47.5z" />
<glyph unicode="&#x416;" horiz-adv-x="1544" d="M-41 68q0 23 11.5 48t58.5 101l262 426l-172 494q-19 53 -19 77q0 25 10.5 40t48.5 25.5t107 10.5q124 0 160 -14t51 -70l123 -461h33l47 453q6 59 43.5 75.5t140.5 16.5q96 0 131 -13t35 -58q0 -12 -4 -48l-45 -426h39l209 461q26 56 66.5 70t164.5 14q89 0 123.5 -14.5 t34.5 -42.5q0 -36 -35 -96l-274 -494l172 -426q41 -102 41 -131q0 -19 -5.5 -31.5t-24 -26.5t-60 -21t-105.5 -7q-93 0 -129.5 15t-54.5 69l-146 444h-39l-45 -436q-6 -59 -43.5 -75.5t-140.5 -16.5q-95 0 -130.5 13.5t-35.5 58.5q0 11 4 47l43 409h-32l-232 -444 q-28 -54 -67 -69t-134 -15q-186 0 -186 68z" />
<glyph unicode="&#x417;" horiz-adv-x="948" d="M0 98q0 203 70 203q14 0 120.5 -7t176.5 -7q95 0 129 40.5t34 123.5q0 51 -32 66t-131 15h-113q-40 0 -56 17.5t-16 56.5q0 104 21 146.5t78 42.5h110q99 0 131.5 29.5t32.5 109.5q0 36 -19 53t-69 17q-71 0 -175 -7.5t-112 -7.5q-19 0 -28 16.5t-9 59.5q0 191 62 205 q138 30 381 30q79 0 136 -11.5t103 -39.5t69.5 -81.5t23.5 -131.5q0 -148 -64.5 -248.5t-194.5 -119.5q110 -5 165 -59t55 -171q0 -126 -34 -214.5t-99.5 -139t-149.5 -72.5t-195 -22q-247 0 -346 26q-32 8 -43.5 23.5t-11.5 58.5z" />
<glyph unicode="&#x418;" horiz-adv-x="1157" d="M29 59q0 45 14 164l102 975q6 59 44 75.5t141 16.5q96 0 131 -13t35 -58q0 -12 -4 -48l-52 -487h17l352 518q39 58 74 73t112 15q84 0 117 -11.5t33 -47.5q0 -37 -15 -164l-104 -975q-6 -59 -43.5 -75.5t-140.5 -16.5q-95 0 -130.5 13.5t-35.5 58.5q0 11 4 47l53 487h-16 l-369 -520q-41 -57 -75 -71.5t-111 -14.5q-80 0 -106.5 11t-26.5 48z" />
<glyph unicode="&#x419;" horiz-adv-x="1157" d="M29 59q0 45 14 164l102 975q6 59 44 75.5t141 16.5q96 0 131 -13t35 -58q0 -12 -4 -48l-52 -487h17l352 518q39 58 74 73t112 15q84 0 117 -11.5t33 -47.5q0 -37 -15 -164l-104 -975q-6 -59 -43.5 -75.5t-140.5 -16.5q-95 0 -130.5 13.5t-35.5 58.5q0 11 4 47l53 487h-16 l-369 -520q-41 -57 -75 -71.5t-111 -14.5q-80 0 -106.5 11t-26.5 48zM381 1593q0 53 6 90q6 39 33 52.5t100 13.5q58 0 76 -13t18 -44v-23q1 -15 3 -22.5t9.5 -15t24 -10.5t43.5 -3q52 0 67 13t25 52q9 41 32 53.5t91 12.5q62 0 83.5 -11.5t21.5 -51.5q0 -168 -78 -246 q-38 -38 -96 -55t-172 -17q-155 0 -221 51t-66 174z" />
<glyph unicode="&#x41a;" horiz-adv-x="1052" d="M27 72q0 11 4 47l112 1079q6 59 44 75.5t141 16.5q96 0 131 -13t35 -58q0 -3 -5 -48l-45 -417h39l222 452q27 56 66.5 70t156.5 14q97 0 127 -12t30 -45q0 -30 -36 -96l-275 -488l195 -489q18 -43 18 -74q0 -29 -11.5 -45.5t-57.5 -28.5t-132 -12q-89 0 -124.5 15.5 t-53.5 68.5l-143 453h-43l-45 -445q-6 -59 -43.5 -75.5t-140.5 -16.5q-95 0 -130.5 13.5t-35.5 58.5z" />
<glyph unicode="&#x41b;" horiz-adv-x="1167" d="M-29 96q0 65 6 106t17.5 58t21 22t23.5 5q10 0 25.5 -2t25.5 -2q27 0 41.5 12.5t24.5 54.5l186 864q9 44 30 60t72 16h625q47 0 66.5 -11.5t19.5 -47.5q0 -15 -6 -64l-115 -1075q-6 -59 -43.5 -75.5t-140.5 -16.5q-95 0 -130.5 13.5t-35.5 58.5q0 11 4 47l92 868h-162 l-182 -817q-22 -101 -82.5 -140.5t-163.5 -39.5q-96 0 -165 14q-29 6 -41.5 25.5t-12.5 66.5z" />
<glyph unicode="&#x41c;" horiz-adv-x="1394" d="M27 72q0 11 4 47l110 1052q8 68 41.5 93.5t120.5 25.5q49 0 74.5 -1t57 -3.5t47 -10t33.5 -18.5t28.5 -30t21.5 -44t21 -61l125 -434h8l221 440q24 47 46 76t43 47t54 26.5t63 10.5t85 2q86 0 118.5 -19.5t32.5 -70.5q0 -31 -4 -63l-108 -1045q-6 -59 -44 -75.5 t-141 -16.5q-95 0 -130 13.5t-35 58.5q0 11 4 47l61 583h-8l-129 -274q-23 -41 -33.5 -57.5t-30.5 -32.5t-44.5 -19.5t-67.5 -3.5t-66.5 3.5t-40.5 19.5t-24 32.5t-21 57.5l-71 274h-9l-63 -610q-6 -59 -43.5 -75.5t-140.5 -16.5q-95 0 -130.5 13.5t-35.5 58.5z" />
<glyph unicode="&#x41d;" horiz-adv-x="1120" d="M27 72q0 11 4 47l112 1079q6 59 44 75.5t141 16.5q96 0 131 -13t35 -58q0 -3 -5 -48l-40 -385h266l43 412q6 59 43.5 75.5t140.5 16.5q96 0 131 -13t35 -58q0 -12 -4 -48l-113 -1079q-6 -59 -43.5 -75.5t-140.5 -16.5q-95 0 -130.5 13.5t-35.5 58.5q0 11 4 47l41 385 h-266l-43 -412q-6 -59 -43.5 -75.5t-140.5 -16.5q-95 0 -130.5 13.5t-35.5 58.5z" />
<glyph unicode="&#x41e;" horiz-adv-x="1089" d="M41 377q0 123 27 353t71 337q24 60 58 102t73.5 67.5t96 40t113.5 19t138 4.5q94 0 157 -7.5t120.5 -31t90.5 -65.5t52 -112t19 -171q0 -122 -27.5 -352.5t-71.5 -337.5q-24 -60 -58 -102t-73.5 -67.5t-96 -40t-113.5 -19t-138 -4.5q-94 0 -156.5 7.5t-120.5 31 t-90.5 65.5t-51.5 112t-19 171zM393 414q0 -80 24.5 -103.5t92.5 -23.5q62 0 93.5 19.5t47.5 78.5q16 58 35 245t19 247q0 80 -24.5 103.5t-92.5 23.5q-62 0 -94 -19.5t-48 -79.5q-16 -57 -34.5 -243.5t-18.5 -247.5z" />
<glyph unicode="&#x41f;" horiz-adv-x="1103" d="M27 72q0 11 4 47l116 1089q6 51 27 66.5t74 15.5h758q47 0 66.5 -11.5t19.5 -47.5q0 -6 -7 -64l-114 -1075q-6 -59 -44 -75.5t-141 -16.5q-95 0 -130 13.5t-35 58.5q0 11 4 47l92 868h-246l-94 -895q-6 -59 -43.5 -75.5t-140.5 -16.5q-95 0 -130.5 13.5t-35.5 58.5z" />
<glyph unicode="&#x420;" horiz-adv-x="1040" d="M27 72q0 11 4 47l110 1061q6 58 25.5 77t73.5 25q156 18 417 18q92 0 155.5 -15t113.5 -53.5t74 -109.5t24 -178q0 -136 -28 -236.5t-76.5 -163t-124.5 -100t-161 -51.5t-198 -14h-30l-29 -287q-6 -59 -43.5 -75.5t-140.5 -16.5q-95 0 -130.5 13.5t-35.5 58.5zM434 655 h64q42 0 73.5 16t48.5 40t27.5 60t13.5 67.5t3 70.5q0 61 -25 85t-74 24q-52 0 -92 -4z" />
<glyph unicode="&#x421;" horiz-adv-x="931" d="M39 352q0 164 29.5 378.5t78.5 322.5q36 80 88.5 132.5t116.5 76t118.5 31t125.5 7.5q176 0 311 -38q20 -5 28.5 -20.5t8.5 -57.5q0 -71 -10 -121t-23.5 -71t-29.5 -21q-8 0 -83.5 11t-146.5 11q-76 0 -119 -18t-69 -70q-26 -54 -47 -210t-21 -267q0 -82 39.5 -106.5 t143.5 -24.5q75 0 147.5 11t85.5 11q19 0 27 -14t8 -49q0 -209 -70 -227q-146 -39 -327 -39q-74 0 -132 9.5t-111.5 34t-89 64.5t-56.5 104t-21 150z" />
<glyph unicode="&#x422;" horiz-adv-x="950" d="M80 1077q0 84 13.5 132.5t34.5 64.5t54 16h733q38 0 54 -18t16 -68q0 -86 -12.5 -135t-33 -65.5t-54.5 -16.5h-193l-94 -895q-6 -59 -43.5 -75.5t-140.5 -16.5q-95 0 -130.5 13.5t-35.5 58.5q0 10 10 100l86 815h-192q-39 0 -55.5 19t-16.5 71z" />
<glyph unicode="&#x423;" horiz-adv-x="1044" d="M20 96q0 197 70 197q21 0 73 -5t89 -5q82 0 123 16t67 68h-36q-87 0 -123 27.5t-50 94.5l-118 566q-25 123 -25 143q0 21 4 33.5t19.5 28t54.5 23t102 7.5q74 0 108 -8t46.5 -25t17.5 -57l72 -553h27l184 541q22 64 61 83t150 19q93 0 126.5 -17t33.5 -46q0 -25 -54 -158 l-344 -833q-56 -135 -154 -190.5t-249 -55.5q-118 0 -197 20q-38 10 -58 29.5t-20 56.5z" />
<glyph unicode="&#x424;" horiz-adv-x="1423" d="M41 537q0 109 26 231t68 186q36 54 85.5 91t111 55.5t122 25.5t136.5 7l10 86q7 59 44.5 75.5t139.5 16.5q95 0 130.5 -13.5t35.5 -58.5q0 -9 -10 -106q87 0 149 -7.5t122 -31t97 -64t59 -108.5t22 -162q0 -109 -26.5 -231t-68.5 -187q-36 -54 -86 -90.5t-111.5 -55 t-121.5 -25.5t-137 -7l-9 -92q-6 -59 -43.5 -75.5t-140.5 -16.5q-96 0 -131 13t-35 58q0 8 10 113q-86 0 -148.5 7.5t-122.5 31t-96.5 64t-58.5 108.5t-22 162zM379 563q0 -79 29 -101t110 -22l43 416q-60 0 -94.5 -13.5t-54.5 -56.5q-14 -30 -23.5 -101.5t-9.5 -121.5z M868 440q61 0 95.5 13.5t54.5 56.5q14 30 23.5 101.5t9.5 121.5q0 79 -29.5 101t-110.5 22z" />
<glyph unicode="&#x425;" horiz-adv-x="1001" d="M-41 61q0 53 61 142l312 459l-189 417q-34 75 -34 119q0 35 13.5 53.5t53.5 28.5t117 10t114.5 -10t52 -28.5t32.5 -63.5l63 -176h8l82 172q21 46 41 66t60 30t118 10q99 0 133.5 -15t34.5 -56q0 -46 -63 -140l-269 -389l207 -483q39 -91 39 -125q0 -19 -5.5 -32 t-22.5 -25.5t-54 -18.5t-94 -6q-108 0 -146 20t-59 82l-76 230h-8l-139 -230q-25 -42 -48 -62t-63.5 -30t-113.5 -10q-94 0 -126 13.5t-32 47.5z" />
<glyph unicode="&#x426;" horiz-adv-x="1179" d="M27 59q0 17 4 41l114 1098q6 59 44 75.5t141 16.5q96 0 131 -13t35 -58q0 -12 -4 -48l-93 -868h246l94 895q6 59 44 75.5t141 16.5q96 0 131 -13t35 -58q0 -3 -5 -48l-92 -868h41q65 0 90 -11.5t25 -51.5q0 -18 -6 -78l-29 -275q-6 -58 -37 -75t-112 -17t-106 16.5 t-40 75.5l-28 113h-678q-47 0 -66.5 11.5t-19.5 47.5z" />
<glyph unicode="&#x427;" horiz-adv-x="1026" d="M41 700q0 66 10 168l35 330q6 59 43.5 75.5t140.5 16.5q96 0 131 -13t35 -58q0 -12 -4 -48l-33 -297q-4 -36 -4 -77q0 -52 20.5 -72t76.5 -20q67 0 118 2l54 491q6 59 43.5 75.5t140.5 16.5q96 0 131 -13t35 -58q0 -12 -4 -48l-115 -1079q-6 -59 -43.5 -75.5 t-140.5 -16.5q-95 0 -130.5 13.5t-35.5 58.5q0 11 4 47l33 315q-118 -16 -228 -16q-173 0 -243 62t-70 220z" />
<glyph unicode="&#x428;" horiz-adv-x="1654" d="M27 59q0 23 4 47l114 1092q6 59 44 75.5t141 16.5q96 0 131 -13t35 -58q0 -12 -4 -48l-93 -868h226l94 895q6 59 43.5 75.5t140.5 16.5q96 0 131 -13t35 -58q0 -12 -4 -48l-92 -868h225l94 895q6 59 44 75.5t141 16.5q95 0 130 -13t35 -58q0 -12 -4 -48l-114 -1089 q-6 -51 -27 -66.5t-74 -15.5h-1310q-47 0 -66.5 11.5t-19.5 47.5z" />
<glyph unicode="&#x429;" horiz-adv-x="1732" d="M27 59q0 23 4 47l114 1092q6 59 44 75.5t141 16.5q96 0 131 -13t35 -58q0 -12 -4 -48l-93 -868h226l94 895q6 59 43.5 75.5t140.5 16.5q96 0 131 -13t35 -58q0 -12 -4 -48l-92 -868h225l94 895q6 59 44 75.5t141 16.5q95 0 130 -13t35 -58q0 -12 -4 -48l-92 -868h41 q65 0 90 -11.5t25 -51.5q0 -18 -6 -78l-29 -275q-6 -58 -37 -75t-112 -17t-106 16.5t-40 75.5l-29 113h-1230q-47 0 -66.5 11.5t-19.5 47.5z" />
<glyph unicode="&#x42a;" horiz-adv-x="1116" d="M41 1073q0 86 12.5 135t33 65.5t54.5 16.5h363q47 0 66.5 -11.5t19.5 -47.5q0 -15 -6 -64l-37 -348q117 12 244 12q156 0 220 -68t64 -222q0 -382 -166 -482q-64 -39 -153.5 -54t-223.5 -15q-207 0 -339 14q-42 5 -57 16.5t-15 40.5q0 19 6 68l90 858h-106 q-38 0 -54 18.5t-16 67.5zM489 260q54 -4 93 -4q61 0 90 20q45 34 45 201q0 49 -21.5 68.5t-77.5 19.5q-57 0 -98 -2z" />
<glyph unicode="&#x42b;" horiz-adv-x="1529" d="M27 61q0 19 6 68l112 1069q6 59 44 75.5t141 16.5q96 0 131 -13t35 -58q0 -12 -4 -48l-37 -352q114 12 241 12q156 0 220.5 -68.5t64.5 -221.5q0 -382 -166 -482q-64 -39 -153.5 -54t-223.5 -15q-208 0 -340 14q-42 5 -56.5 16.5t-14.5 40.5zM395 260q54 -4 92 -4 q62 0 91 20q45 34 45 201q0 49 -21.5 68.5t-77.5 19.5q-57 0 -98 -2zM1051 72q0 11 4 47l112 1079q6 59 44 75.5t141 16.5q96 0 131 -13t35 -58q0 -3 -5 -48l-112 -1079q-6 -59 -43.5 -75.5t-140.5 -16.5q-95 0 -130.5 13.5t-35.5 58.5z" />
<glyph unicode="&#x42c;" horiz-adv-x="1021" d="M27 61q0 19 6 68l112 1069q6 59 44 75.5t141 16.5q96 0 131 -13t35 -58q0 -12 -4 -48l-37 -352q114 12 241 12q156 0 220.5 -68.5t64.5 -221.5q0 -382 -166 -482q-64 -39 -153.5 -54t-223.5 -15q-208 0 -340 14q-42 5 -56.5 16.5t-14.5 40.5zM395 260q54 -4 92 -4 q62 0 91 20q45 34 45 201q0 49 -21.5 68.5t-77.5 19.5q-57 0 -98 -2z" />
<glyph unicode="&#x42d;" horiz-adv-x="964" d="M31 106q0 71 10 121t23.5 71t29.5 21q8 0 83.5 -11t146.5 -11q44 0 73.5 4.5t58 17.5t46.5 37.5t33 64.5t24 99h-342q-41 0 -56.5 15.5t-15.5 58.5q0 119 23.5 161t79.5 42h340q2 25 2 65q0 81 -43.5 106t-149.5 25q-75 0 -147.5 -11t-85.5 -11q-19 0 -27 14t-8 49 q0 210 70 228q142 38 327 38q75 0 132 -9t111.5 -34t89.5 -66.5t56 -110.5t21 -162q0 -83 -9 -200.5t-45 -289.5t-94 -268q-27 -45 -66.5 -78t-78.5 -50.5t-89.5 -27t-88 -12t-86.5 -2.5q-172 0 -311 39q-20 5 -28.5 20t-8.5 57z" />
<glyph unicode="&#x42e;" horiz-adv-x="1607" d="M27 72q0 11 4 47l112 1079q6 59 44 75.5t141 16.5q96 0 131 -13t35 -58q0 -3 -5 -48l-36 -352h145q24 171 57 248q20 50 46 87.5t60 63t71 42t87 25.5t99.5 12t116.5 3q94 0 156.5 -7.5t120.5 -31t90.5 -65.5t51.5 -112t19 -171q0 -123 -27 -353t-71 -337 q-20 -50 -46 -87.5t-60 -63t-71 -42t-87 -25.5t-99.5 -12t-116.5 -3q-94 0 -156.5 7.5t-120.5 31t-90.5 65.5t-51.5 112t-19 171q0 51 6 143h-141l-45 -428q-6 -59 -43.5 -75.5t-140.5 -16.5q-95 0 -130.5 13.5t-35.5 58.5zM909 414q0 -80 24.5 -103.5t92.5 -23.5 q62 0 93.5 19.5t47.5 78.5q16 58 35 245t19 247q0 80 -24.5 103.5t-92.5 23.5q-61 0 -93 -19.5t-48 -79.5q-16 -58 -35 -244.5t-19 -246.5z" />
<glyph unicode="&#x42f;" horiz-adv-x="1034" d="M-41 55q0 29 49 115l203 358q-137 79 -137 279q0 82 20 181t60 159q58 85 155 119t234 34q215 0 399 -18q45 -5 62.5 -16.5t17.5 -40.5q0 -19 -6 -68l-113 -1065q-6 -59 -43.5 -75.5t-140.5 -16.5q-95 0 -130.5 13.5t-35.5 58.5q0 11 4 47l37 342h-10q-57 0 -84 2 l-164 -367q-30 -67 -68 -81.5t-176 -14.5q-133 0 -133 55zM428 807q0 -65 34.5 -88t125.5 -23h30l35 318q-40 4 -86 4q-70 0 -102 -37q-18 -21 -27.5 -73.5t-9.5 -100.5z" />
<glyph unicode="&#x430;" horiz-adv-x="1062" d="M51 227q0 160 39 406q19 120 49.5 199.5t75.5 123.5t98 61t127 17q192 0 248 -149l4 24q9 63 43 84t137 21q90 0 119 -13t29 -57q0 -25 -31 -317t-31 -351q0 -24 10.5 -103.5t10.5 -94.5q0 -41 -37 -59.5t-135 -18.5q-49 0 -75.5 3.5t-42.5 16.5t-22 29t-12 49l-16 86 q-60 -110 -147.5 -157t-206.5 -47q-234 0 -234 247zM410 338q0 -43 16.5 -57.5t50.5 -14.5q124 0 152 236q18 154 18 194q0 29 -19 40.5t-63 11.5q-61 0 -88 -29.5t-39 -110.5q-28 -173 -28 -270z" />
<glyph unicode="&#x431;" horiz-adv-x="1083" d="M51 338q0 64 45 489q18 169 55 276t106.5 170.5t163 88t236.5 24.5q198 0 338 -24q24 -5 35.5 -24.5t11.5 -63.5q0 -180 -71 -180q-23 0 -114.5 4t-143.5 4q-57 0 -90 -2t-62.5 -10.5t-43.5 -19.5t-26 -36.5t-17.5 -54t-10.5 -78.5q39 67 109 100t182 33 q73 0 118.5 -11.5t79 -43.5t48 -89.5t14.5 -148.5q0 -58 -4.5 -127t-16 -163.5t-38 -182.5t-64.5 -143q-57 -82 -154.5 -113.5t-253.5 -31.5q-114 0 -190.5 16t-133 55.5t-82.5 109.5t-26 177zM401 389q0 -77 25.5 -100t87.5 -23q40 0 62 10t38 43q19 39 31 156.5t12 165.5 q0 69 -21 88t-77 19q-47 0 -74 -20t-46.5 -78.5t-30.5 -168.5q-7 -65 -7 -92z" />
<glyph unicode="&#x432;" horiz-adv-x="1013" d="M37 68q0 24 8 86l80 753q6 59 25 78t71 25q126 14 350 14q92 0 149 -3.5t110.5 -15.5t81.5 -35t44.5 -61t16.5 -94q0 -154 -62.5 -223t-189.5 -80q117 -8 170 -49t53 -144q0 -57 -7.5 -101.5t-25 -78t-38.5 -58t-56 -41t-70 -26.5t-87 -15.5t-100.5 -7t-117.5 -1.5 q-187 0 -331 20q-44 6 -59 17t-15 41zM408 291q36 -4 96 -4q66 0 91.5 16.5t25.5 61.5q0 32 -25.5 42.5t-97.5 10.5h-76zM442 608h70q63 0 89 14.5t26 59.5q0 27 -16 36t-60 9q-46 0 -96 -4z" />
<glyph unicode="&#x433;" horiz-adv-x="868" d="M20 229q0 115 50 195.5t159 140.5l199 111q43 22 43 45q0 22 -86 22q-58 0 -128.5 -6t-78.5 -6q-49 0 -49 92q0 73 12.5 115.5t27 54.5t38.5 17q117 24 295 24q65 0 112 -5.5t89.5 -20.5t68 -41t40.5 -68t15 -100q0 -116 -50.5 -187.5t-155.5 -136.5l-197 -121 q-27 -16 -38 -26.5t-11 -26.5q0 -18 25.5 -22.5t103.5 -4.5q68 0 149 7.5t95 7.5q43 0 43 -84q0 -176 -78 -195q-123 -30 -322 -30q-67 0 -116 4.5t-100 20t-82.5 42t-52 72.5t-20.5 110z" />
<glyph unicode="&#x434;" horiz-adv-x="1042" d="M51 352q0 89 18 232.5t46 238.5q36 122 107.5 166.5t197.5 44.5q117 0 177.5 -34t84.5 -107q8 94 8 115q0 61 -25.5 77.5t-103.5 16.5q-52 0 -130 -4t-101 -4q-49 0 -49 77q0 180 77 191q148 24 320 24q98 0 163.5 -17.5t112 -60t67.5 -116t21 -184.5q0 -68 -10 -181 l-39 -362q-16 -146 -54 -241t-105.5 -149t-154 -74.5t-214.5 -20.5q-111 0 -183.5 15t-127 55t-79 113.5t-24.5 188.5zM403 383q0 -74 21 -95.5t72 -21.5q32 0 51 4t38 18t30.5 42t20.5 74.5t15 117.5q6 55 6 94q0 76 -24 104t-80 28q-52 0 -78.5 -15.5t-40.5 -66.5 q-10 -37 -20.5 -130.5t-10.5 -152.5z" />
<glyph unicode="&#x435;" horiz-adv-x="948" d="M51 307q0 146 21.5 290t52.5 224q47 122 151.5 167.5t284.5 45.5q102 0 172 -17.5t108 -52.5t54 -79.5t16 -106.5q0 -279 -141 -356q-119 -67 -381 -70q0 -46 20 -65t70 -19q78 0 184.5 22.5t114.5 22.5q60 0 60 -94q0 -47 -5.5 -79t-18 -51t-23 -28t-29.5 -20 q-45 -25 -134.5 -42t-189.5 -17q-103 0 -172.5 15t-119.5 51.5t-72.5 100t-22.5 158.5zM403 553q88 3 134 22q55 22 55 121q0 52 -62 52q-49 0 -72.5 -21t-35.5 -74q-10 -38 -19 -100z" />
<glyph unicode="&#x436;" horiz-adv-x="1454" d="M-31 78q0 73 85 214.5t173 235.5q-44 132 -161 320q-35 56 -35 80q0 86 192 86q56 0 89 -5t56.5 -21.5t36.5 -36.5t33 -62q13 -26 26 -59.5t35.5 -97.5t35.5 -99h28l31 289q6 59 44 75.5t146 16.5q92 0 125 -13.5t33 -56.5q0 -14 -12 -131l-21 -180h39q69 90 160 295 q16 36 30 51t54 25t117 10q55 0 90.5 -6t51 -18t20 -24t4.5 -30q0 -72 -78.5 -191.5t-171.5 -214.5q50 -133 178 -364q29 -52 29 -80q0 -86 -191 -86q-99 0 -139 20.5t-76 92.5q-26 51 -100 313h-37l-35 -334q-6 -59 -44 -75.5t-146 -16.5q-92 0 -125 13.5t-33 56.5 q0 14 12 131l23 225h-29q-68 -95 -176 -340q-16 -36 -30 -51t-54 -25t-117 -10q-55 0 -90.5 6t-51 18t-20 24t-4.5 30z" />
<glyph unicode="&#x437;" horiz-adv-x="884" d="M0 96q0 205 70 205q14 0 89.5 -7t145.5 -7q97 0 125.5 12t28.5 53q0 27 -25.5 36t-97.5 9h-76q-41 0 -56.5 17t-15.5 55q0 84 20 122t77 38h69q64 0 88.5 11t24.5 50q0 22 -18.5 29.5t-71.5 7.5q-71 0 -144 -7t-81 -7q-43 0 -43 67q0 104 15 153.5t52 59.5q107 31 320 31 q65 0 112 -4.5t92 -17t73 -35t44.5 -59.5t16.5 -89q0 -91 -17 -151t-53 -91.5t-77 -45t-105 -19.5q121 -8 173 -44.5t52 -141.5q0 -65 -11.5 -116t-30.5 -86t-51.5 -60t-66.5 -39t-84 -22t-94 -10.5t-107 -2.5q-153 0 -309 26q-30 5 -41.5 20t-11.5 60z" />
<glyph unicode="&#x438;" horiz-adv-x="1052" d="M51 156q0 46 29 284q33 263 33 316q0 25 -5.5 86t-5.5 76q0 52 36.5 74t133.5 22q94 0 124 -17t42 -73q17 -80 17 -154q0 -32 -22.5 -230t-22.5 -223q0 -30 15 -40.5t48 -10.5q68 0 100.5 60.5t42.5 169.5l46 426q6 59 44 75.5t146 16.5q92 0 125 -13.5t33 -56.5 q0 -25 -31 -317t-31 -351q0 -24 10.5 -103.5t10.5 -94.5q0 -41 -37 -59.5t-135 -18.5q-49 0 -75.5 3.5t-42.5 16.5t-22 29t-12 49l-16 84q-50 -102 -133.5 -152t-208.5 -50q-46 0 -85 8t-74.5 26.5t-56 54.5t-20.5 87z" />
<glyph unicode="&#x439;" horiz-adv-x="1052" d="M51 156q0 46 29 284q33 263 33 316q0 25 -5.5 86t-5.5 76q0 52 36.5 74t133.5 22q94 0 124 -17t42 -73q17 -80 17 -154q0 -32 -22.5 -230t-22.5 -223q0 -30 15 -40.5t48 -10.5q68 0 100.5 60.5t42.5 169.5l46 426q6 59 44 75.5t146 16.5q92 0 125 -13.5t33 -56.5 q0 -25 -31 -317t-31 -351q0 -24 10.5 -103.5t10.5 -94.5q0 -41 -37 -59.5t-135 -18.5q-49 0 -75.5 3.5t-42.5 16.5t-22 29t-12 49l-16 84q-50 -102 -133.5 -152t-208.5 -50q-46 0 -85 8t-74.5 26.5t-56 54.5t-20.5 87zM254 1327q0 53 6 90q6 39 33 52.5t100 13.5 q57 0 75.5 -13.5t18.5 -44.5v-22q1 -15 3 -22.5t9.5 -15t24 -10.5t43.5 -3q52 0 67 13t25 52q9 41 32 53.5t91 12.5q61 0 83 -12t22 -52q0 -167 -78 -245q-38 -38 -96 -55t-172 -17q-155 0 -221 51t-66 174z" />
<glyph unicode="&#x43a;" horiz-adv-x="999" d="M41 70q0 33 32.5 325.5t32.5 360.5q0 14 -5 82.5t-5 79.5q0 52 36.5 74t133.5 22q96 0 130 -17.5t46 -72.5q17 -80 17 -154q0 -28 -13 -147h43q70 110 140 305q13 35 27.5 50.5t55 25.5t117.5 10q55 0 90.5 -6t51 -18t20 -24t4.5 -30q0 -75 -72.5 -202.5t-156.5 -213.5 q38 -102 178 -354q29 -52 29 -80q0 -86 -191 -86q-99 0 -139 20.5t-76 92.5q-32 64 -100 303h-45l-33 -324q-6 -59 -44 -75.5t-146 -16.5q-92 0 -125 13.5t-33 56.5z" />
<glyph unicode="&#x43b;" horiz-adv-x="993" d="M-20 78q0 14 7 35.5t23 59.5t23 56q126 341 200 613q12 45 24 71t33 48t56 32t85.5 15.5t129.5 5.5q124 0 184.5 -13t85.5 -43t31 -92l56 -579q14 -154 14 -178q0 -31 -9 -52t-21.5 -32.5t-41 -17t-52.5 -6.5t-71 -1q-74 0 -109 7t-49.5 25t-17.5 58q-2 27 -9 286 t-11 355h-21q-22 -130 -78 -354t-82 -287q-23 -57 -60 -73.5t-144 -16.5q-102 0 -139 14.5t-37 63.5z" />
<glyph unicode="&#x43c;" horiz-adv-x="1525" d="M-20 78q0 17 40 151q109 375 148 613q17 103 75 137.5t214 34.5q116 0 175.5 -15t81.5 -46.5t23 -92.5q2 -95 2.5 -274t1.5 -236q19 82 52 251.5t49 240.5q10 46 21 72.5t29 48.5t49 31.5t74.5 14.5t112.5 5q110 0 166 -12.5t80 -43t29 -92.5l51 -579q10 -127 10 -178 q0 -31 -9 -52t-21.5 -32.5t-40.5 -17t-52 -6.5t-71 -1q-74 0 -108 7t-47.5 25t-16.5 58q-2 28 -5 287.5t-6 353.5h-14q-23 -111 -74.5 -323.5t-80.5 -305.5q-9 -31 -22 -46t-57 -25.5t-128 -10.5q-51 0 -85 4.5t-53.5 11t-31 21.5t-15.5 27.5t-8 38.5q-10 65 -20.5 269 t-10.5 339h-20q-3 -15 -32.5 -203.5t-49 -294t-33.5 -143.5q-20 -58 -55 -74t-141 -16q-102 0 -139 14.5t-37 63.5z" />
<glyph unicode="&#x43d;" horiz-adv-x="1036" d="M41 70q0 38 32.5 341t32.5 345q0 14 -5 82.5t-5 79.5q0 52 36.5 74t133.5 22q96 0 130 -17.5t46 -72.5q17 -80 17 -154q0 -17 -8 -111h178l28 263q6 59 44.5 75.5t146.5 16.5q92 0 125 -13.5t33 -56.5q0 -27 -37 -357t-37 -347q0 -36 5 -85t5 -57q0 -19 -3 -31t-17 -30 t-51 -27.5t-95 -9.5q-84 0 -118.5 12t-51.5 49q-10 21 -16 64t-6 72q0 39 16 190h-180l-31 -295q-6 -59 -44 -75.5t-146 -16.5q-92 0 -125 13.5t-33 56.5z" />
<glyph unicode="&#x43e;" horiz-adv-x="993" d="M51 307q0 116 21.5 274.5t52.5 239.5q47 121 148.5 167t267.5 46q109 0 181 -15t123.5 -51.5t74 -99.5t22.5 -159q0 -116 -21.5 -274.5t-52.5 -239.5q-47 -121 -148 -167t-267 -46q-109 0 -181.5 15t-123.5 51.5t-74 99.5t-23 159zM393 369q0 -58 15.5 -76.5t62.5 -18.5 q49 0 68.5 19.5t29.5 64.5q12 52 21.5 151t9.5 138q0 58 -15 76t-63 18q-49 0 -68.5 -19.5t-29.5 -64.5q-12 -52 -21.5 -150.5t-9.5 -137.5z" />
<glyph unicode="&#x43f;" horiz-adv-x="1062" d="M41 70q0 14 12 131q53 469 53 555q0 14 -5 82.5t-5 79.5q0 52 36.5 74t133.5 22q100 0 130 -15t34 -69l6 -76q92 180 328 180q246 0 246 -186q0 -44 -30 -306t-30 -302q0 -36 5.5 -85t5.5 -57q0 -19 -3 -31t-17 -30t-51 -27.5t-95 -9.5q-84 0 -118.5 12t-51.5 49 q-10 22 -16.5 65t-6.5 71q0 54 22.5 263t22.5 226q0 26 -11 38.5t-44 12.5q-133 0 -152 -164l-51 -481q-6 -59 -44 -75.5t-146 -16.5q-92 0 -125 13.5t-33 56.5z" />
<glyph unicode="&#x440;" horiz-adv-x="1048" d="M6 -289q0 19 6 68l82 790q15 154 15 187q0 25 -5.5 86t-5.5 76q0 52 36.5 74t133.5 22q103 0 136 -30.5t38 -127.5q94 178 324 178q132 0 187 -64.5t55 -207.5q0 -116 -33.5 -334t-95.5 -313q-53 -81 -123.5 -108t-165.5 -27q-125 0 -199 81l-35 -337q-7 -66 -43.5 -84.5 t-140.5 -18.5q-85 0 -125.5 19t-40.5 71zM410 297q0 -24 15.5 -31.5t53.5 -7.5q91 0 119 57q20 39 35.5 170t15.5 191q0 43 -16.5 57.5t-50.5 14.5q-124 0 -152 -236q-20 -171 -20 -215z" />
<glyph unicode="&#x441;" horiz-adv-x="841" d="M51 307q0 146 21.5 290t52.5 224q24 62 64.5 105.5t94.5 66t112 32t130 9.5q146 0 240 -30q27 -8 40 -27.5t13 -65.5q0 -52 -6.5 -89.5t-14.5 -55.5t-21 -28t-20.5 -11.5t-17.5 -1.5q-13 0 -87 8t-107 8q-56 0 -83 -19.5t-38 -62.5q-15 -62 -25 -149t-10 -148 q0 -49 18 -69.5t72 -20.5q49 0 143.5 16.5t100.5 16.5q26 0 40.5 -16.5t14.5 -61.5q0 -94 -17.5 -138t-55.5 -62q-92 -45 -308 -45q-88 0 -149 15t-107 51t-68 100t-22 159z" />
<glyph unicode="&#x442;" horiz-adv-x="1554" d="M41 66q0 14 12 131q53 509 53 555q0 14 -5 82t-5 79q0 53 36.5 75t133.5 22q100 0 130 -15t34 -69l6 -72q88 180 293 180q109 0 165 -38t71 -126q99 164 290 164q246 0 246 -186q0 -44 -29.5 -306t-29.5 -302q0 -36 5 -85t5 -57q0 -19 -3 -31t-17 -30t-51 -27.5t-95 -9.5 q-84 0 -118.5 12t-51.5 49q-10 21 -16 64t-6 72q0 54 22.5 263t22.5 226q0 26 -11.5 38.5t-44.5 12.5q-110 0 -127 -168l-51 -481q-6 -59 -44 -75.5t-146 -16.5q-92 0 -125 13.5t-33 56.5q0 10 6 75q5 54 20 196t25 238.5t10 110.5q0 27 -9.5 39t-43.5 12q-107 0 -125 -168 l-51 -481q-6 -59 -44 -75.5t-146 -16.5q-92 0 -125 13.5t-33 56.5z" />
<glyph unicode="&#x443;" horiz-adv-x="989" d="M-27 -291q0 28 4 58t12 61t25.5 50.5t40.5 19.5q10 0 76 -6.5t96 -6.5q62 0 98 13t52 35.5t29 66.5q-153 0 -206.5 29t-60.5 118l-55 623q-2 18 -5 49t-5 53t-2 33q0 69 43 90q40 19 151 19q74 0 109 -7t49.5 -25t17.5 -58q2 -24 5.5 -282t7.5 -359h20q43 175 154 641 q13 57 51.5 73.5t153.5 16.5q95 0 128 -15.5t33 -58.5q0 -28 -53 -229q-133 -507 -198 -700.5t-119 -264.5q-61 -82 -157.5 -119t-244.5 -37q-44 0 -104.5 7.5t-95.5 19.5q-50 17 -50 92z" />
<glyph unicode="&#x444;" horiz-adv-x="1593" d="M51 227q0 160 39 406q19 120 49.5 199.5t75.5 123.5t98 61t127 17q183 0 244 -137l35 363q6 59 40 75.5t136 16.5q93 0 124.5 -13t31.5 -59q0 -25 -4 -61l-33 -316q97 131 297 131q132 0 186.5 -64.5t54.5 -207.5q0 -52 -11 -165t-30 -216q-21 -120 -59.5 -202.5 t-91 -124t-106 -58t-119.5 -16.5q-125 0 -199 81l-35 -337q-7 -66 -43.5 -84.5t-140.5 -18.5q-85 0 -125.5 19t-40.5 71q0 19 6 68l35 332q-107 -131 -307 -131q-234 0 -234 247zM410 338q0 -43 16.5 -57.5t50.5 -14.5q124 0 152 236q18 154 18 194q0 29 -19 40.5t-63 11.5 q-61 0 -88 -29.5t-39 -110.5q-28 -173 -28 -270zM954 297q0 -23 16 -31t54 -8q69 0 97.5 30t43.5 118q29 179 29 270q0 43 -17 57.5t-51 14.5q-38 0 -66.5 -22t-45.5 -59.5t-26 -75t-13 -79.5q-21 -202 -21 -215z" />
<glyph unicode="&#x445;" horiz-adv-x="946" d="M-31 78q0 44 49 115l218 325l-109 285q-31 85 -31 123q0 57 40 72.5t143 15.5q102 0 138.5 -19t53.5 -90l39 -166h8l86 187q27 59 59.5 73.5t127.5 14.5q108 0 144 -13t36 -65q0 -48 -41 -107l-221 -321l145 -305q35 -71 35 -119q0 -27 -14.5 -44.5t-42.5 -25.5t-57 -11 t-68 -3q-103 0 -140 17.5t-59 86.5l-62 195h-10l-94 -211q-26 -57 -61.5 -72.5t-130.5 -15.5q-42 0 -68 2t-55 9t-43.5 24t-14.5 43z" />
<glyph unicode="&#x446;" horiz-adv-x="1099" d="M51 156q0 46 29 284q33 263 33 316q0 25 -5.5 86t-5.5 76q0 52 36.5 74t133.5 22q94 0 124 -17t42 -73q17 -80 17 -154q0 -32 -22.5 -230t-22.5 -223q0 -30 15 -40.5t48 -10.5q68 0 100.5 60.5t42.5 169.5l46 426q6 59 44 75.5t146 16.5q92 0 125 -13.5t33 -56.5 q0 -25 -31 -317t-31 -351q0 -44 10 -65.5t31 -36.5q3 -3 19 -14.5t20 -15t14.5 -14.5t14 -20t7 -24t3.5 -33q0 -36 -9 -102.5t-18 -104.5q-14 -59 -36 -75.5t-95 -16.5q-81 0 -110 17.5t-29 74.5v105q0 39 -16.5 62t-59.5 55q-56 39 -71 102q-99 -190 -336 -190q-46 0 -85 8 t-74.5 26.5t-56 54.5t-20.5 87z" />
<glyph unicode="&#x447;" horiz-adv-x="997" d="M31 481q0 42 15 146t15 129t-5 86t-5 76q0 52 36.5 74t133.5 22q94 0 124 -17t42 -73q16 -75 16 -154q0 -23 -5 -68t-5 -59q0 -26 11.5 -38.5t44.5 -12.5q61 0 97 40.5t42 108.5l18 181q6 59 44.5 75.5t146.5 16.5q92 0 124.5 -13.5t32.5 -56.5q0 -27 -36.5 -357 t-36.5 -347q0 -36 5 -85t5 -57q0 -19 -3 -31t-17 -30t-51 -27.5t-95 -9.5q-84 0 -118.5 12t-51.5 49q-10 22 -16.5 65t-6.5 71q0 32 19 215q-93 -117 -275 -117q-245 0 -245 186z" />
<glyph unicode="&#x448;" horiz-adv-x="1583" d="M51 156q0 46 29 284q33 263 33 316q0 25 -5.5 86t-5.5 76q0 52 36.5 74t133.5 22q94 0 124 -17t42 -73q17 -80 17 -154q0 -32 -22.5 -230t-22.5 -223q0 -30 15 -40.5t48 -10.5q125 0 143 230l35 426q4 59 43 75.5t148 16.5q92 0 124.5 -13.5t32.5 -56.5q0 -33 -30.5 -321 t-30.5 -306q0 -30 16 -40.5t50 -10.5q68 0 100.5 60.5t42.5 169.5l45 426q6 59 44 75.5t146 16.5q92 0 125 -13.5t33 -56.5q0 -25 -30.5 -317t-30.5 -351q0 -24 10 -103.5t10 -94.5q0 -41 -37 -59.5t-135 -18.5q-64 0 -93.5 9.5t-39.5 27t-18 61.5l-17 84 q-50 -102 -133.5 -152t-208.5 -50q-109 0 -153 40t-54 127q-100 -167 -323 -167q-46 0 -85 8t-74.5 26.5t-56 54.5t-20.5 87z" />
<glyph unicode="&#x449;" horiz-adv-x="1630" d="M51 156q0 46 29 284q33 263 33 316q0 25 -5.5 86t-5.5 76q0 52 36.5 74t133.5 22q94 0 124 -17t42 -73q17 -80 17 -154q0 -32 -22.5 -230t-22.5 -223q0 -30 15 -40.5t48 -10.5q125 0 143 230l35 426q4 59 43 75.5t148 16.5q92 0 124.5 -13.5t32.5 -56.5q0 -33 -30.5 -321 t-30.5 -306q0 -30 16 -40.5t50 -10.5q68 0 100.5 60.5t42.5 169.5l45 426q6 59 44 75.5t146 16.5q92 0 125 -13.5t33 -56.5q0 -25 -30.5 -317t-30.5 -351q0 -44 10 -65.5t31 -36.5q4 -3 16.5 -12t17 -13t13.5 -12.5t13 -15t9 -17t6.5 -23.5t1.5 -28q0 -36 -8.5 -103 t-17.5 -104q-14 -59 -36 -75.5t-95 -16.5q-81 0 -110.5 17.5t-29.5 74.5v105q0 39 -16 62t-59 55q-58 40 -72 102q-99 -190 -336 -190q-109 0 -153 40t-54 127q-100 -167 -323 -167q-46 0 -85 8t-74.5 26.5t-56 54.5t-20.5 87z" />
<glyph unicode="&#x44a;" horiz-adv-x="1038" d="M20 788q0 92 11.5 141.5t33 67t60.5 17.5h356q41 0 59.5 -14t18.5 -56q0 -23 -12 -125l-19 -178q126 18 213 18q58 0 93.5 -3.5t74.5 -17.5t60 -41t35 -75.5t14 -118.5q0 -108 -36 -207t-108 -143q-64 -38 -150 -50.5t-218 -12.5q-161 0 -309 20q-44 6 -59 17t-15 41 q0 18 4 51l68 596h-101q-41 0 -57.5 15t-16.5 58zM489 274q1 0 10.5 -1t27 -2t38.5 -1q53 0 76 17q25 17 25 73q0 24 -15.5 33.5t-48.5 9.5q-18 0 -51 -1t-49 -1z" />
<glyph unicode="&#x44b;" horiz-adv-x="1468" d="M41 68q0 18 4 51l47 432q14 133 14 205q0 14 -5 82.5t-5 79.5q0 52 36.5 74t133.5 22q96 0 130 -17.5t46 -72.5q17 -80 17 -154q0 -29 -10 -127q140 16 210 16q58 0 93.5 -3.5t74.5 -17.5t60 -41t35 -75.5t14 -118.5q0 -108 -35.5 -207t-107.5 -143q-64 -38 -150.5 -50.5 t-218.5 -12.5q-161 0 -309 20q-44 6 -59 17t-15 41zM408 274q1 0 10.5 -1t26.5 -2t38 -1q53 0 76 17q25 17 25 73q0 24 -15.5 33.5t-48.5 9.5q-17 0 -50 -1t-48 -1zM1006 197q0 39 22 245l51 480q6 59 44.5 75.5t146.5 16.5q92 0 124.5 -13.5t32.5 -56.5q0 -27 -36.5 -357 t-36.5 -347q0 -36 5 -85t5 -57q0 -19 -3 -31t-17 -30t-51 -27.5t-95 -9.5q-84 0 -118.5 12t-51.5 49q-10 21 -16 64t-6 72z" />
<glyph unicode="&#x44c;" horiz-adv-x="956" d="M41 68q0 18 4 51l47 432q14 133 14 205q0 14 -5 82.5t-5 79.5q0 52 36.5 74t133.5 22q96 0 130 -17.5t46 -72.5q17 -80 17 -154q0 -29 -10 -127q140 16 210 16q58 0 93.5 -3.5t74.5 -17.5t60 -41t35 -75.5t14 -118.5q0 -108 -35.5 -207t-107.5 -143q-64 -38 -150.5 -50.5 t-218.5 -12.5q-161 0 -309 20q-44 6 -59 17t-15 41zM408 274q1 0 10.5 -1t26.5 -2t38 -1q53 0 76 17q25 17 25 73q0 24 -15.5 33.5t-48.5 9.5q-17 0 -50 -1t-48 -1z" />
<glyph unicode="&#x44d;" horiz-adv-x="839" d="M6 104q0 52 6.5 89.5t14.5 56t21 28.5t20.5 11.5t17.5 1.5q13 0 87.5 -8.5t107.5 -8.5q74 0 104 19t41 63l6 31h-192q-33 0 -46.5 12.5t-13.5 46.5q0 106 19 142.5t65 36.5h197v28q0 49 -18 69.5t-72 20.5q-49 0 -140.5 -10t-97.5 -10q-26 0 -40.5 16.5t-14.5 61.5 q0 175 74 200q42 14 127 23.5t174 9.5q88 0 149 -15t107 -51t68 -100t22 -159q0 -146 -21.5 -290t-52.5 -224q-24 -63 -64.5 -105.5t-97 -65.5t-119 -32.5t-145.5 -9.5q-145 0 -240 30q-28 8 -40.5 27t-12.5 65z" />
<glyph unicode="&#x44e;" horiz-adv-x="1474" d="M41 70q0 38 32.5 341t32.5 345q0 14 -5 82.5t-5 79.5q0 52 36.5 74t133.5 22q96 0 130 -17.5t46 -72.5q17 -80 17 -154q0 -14 -8 -104h337l-32 -279h-336l-31 -295q-6 -59 -44 -75.5t-146 -16.5q-92 0 -125 13.5t-33 56.5zM543 307q0 117 21 275.5t52 238.5 q47 121 148.5 167t267.5 46q109 0 181.5 -15t123.5 -51.5t74 -99.5t23 -159q0 -116 -21.5 -274.5t-52.5 -239.5q-47 -121 -148.5 -167t-267.5 -46q-109 0 -181 15t-123.5 51.5t-74 99.5t-22.5 159zM885 369q0 -58 15.5 -76.5t62.5 -18.5q49 0 68.5 19.5t29.5 64.5 q12 52 21.5 151t9.5 138q0 58 -15 76t-63 18q-49 0 -69 -19.5t-30 -64.5q-12 -52 -21 -150t-9 -138z" />
<glyph unicode="&#x44f;" horiz-adv-x="1009" d="M0 53q0 32 61 117l144 205q-67 28 -95 81.5t-28 139.5q0 88 24 184.5t68 145.5q54 58 150 78t272 20q118 0 303 -20q45 -5 62.5 -17t17.5 -41q0 -31 -37 -360.5t-37 -345.5q0 -36 5 -85t5 -57q0 -20 -3 -31.5t-16.5 -29.5t-50.5 -27.5t-95 -9.5q-84 0 -118.5 12t-51.5 49 q-10 22 -16.5 65t-6.5 71q0 43 10 143q-20 -2 -59 -2l-133 -242q-26 -47 -46 -64.5t-59 -24.5t-129 -7q-65 0 -97.5 8t-38 17.5t-5.5 27.5zM434 631q0 -29 17 -37t65 -8h78l14 137q-1 0 -10 1t-25.5 2t-37.5 1q-39 0 -57.5 -4.5t-28.5 -20.5q-15 -26 -15 -71z" />
<glyph unicode="&#x451;" horiz-adv-x="948" d="M51 307q0 146 21.5 290t52.5 224q47 122 151.5 167.5t284.5 45.5q102 0 172 -17.5t108 -52.5t54 -79.5t16 -106.5q0 -279 -141 -356q-119 -67 -381 -70q0 -46 20 -65t70 -19q78 0 184.5 22.5t114.5 22.5q60 0 60 -94q0 -47 -5.5 -79t-18 -51t-23 -28t-29.5 -20 q-45 -25 -134.5 -42t-189.5 -17q-103 0 -172.5 15t-119.5 51.5t-72.5 100t-22.5 158.5zM176 1180q0 109 39 141q22 20 56 25.5t114 5.5q89 0 116 -21t27 -78q0 -109 -39 -141q-22 -20 -56 -25.5t-114 -5.5q-89 0 -116 21t-27 78zM403 553q88 3 134 22q55 22 55 121 q0 52 -62 52q-49 0 -72.5 -21t-35.5 -74q-10 -38 -19 -100zM586 1180q0 109 39 141q22 20 56 25.5t114 5.5q89 0 116 -21t27 -78q0 -109 -39 -141q-22 -20 -56 -25.5t-114 -5.5q-89 0 -116 21t-27 78z" />
<glyph unicode="&#x452;" horiz-adv-x="1060" d="M37 70q0 14 12 131l86 835h-35q-27 0 -37 11t-10 43q0 31 4.5 58.5t18.5 51t37 23.5h43l4 37q6 59 44 75.5t146 16.5q92 0 125 -13.5t33 -56.5q0 -5 -0.5 -12.5t-1.5 -21t-2 -25.5h235q27 0 37 -11t10 -43t-4 -59t-18 -50.5t-37 -23.5h-244l-18 -194q95 123 291 123 q245 0 245 -187q0 -51 -12 -153l-76 -703q-19 -181 -110.5 -256.5t-241.5 -75.5q-129 0 -199 23q-47 16 -47 88q0 46 5 85t23.5 73.5t49.5 34.5q13 0 48.5 -4.5t64.5 -4.5t41.5 12t17.5 40q9 58 15 116l49 447q10 92 10 116q0 26 -11 39t-44 13q-71 0 -109.5 -40.5 t-44.5 -109.5l-45 -426q-6 -59 -44 -75.5t-146 -16.5q-92 0 -125 13.5t-33 56.5z" />
<glyph unicode="&#x453;" horiz-adv-x="868" d="M20 229q0 115 50 195.5t159 140.5l199 111q43 22 43 45q0 22 -86 22q-58 0 -128.5 -6t-78.5 -6q-49 0 -49 92q0 73 12.5 115.5t27 54.5t38.5 17q117 24 295 24q65 0 112 -5.5t89.5 -20.5t68 -41t40.5 -68t15 -100q0 -116 -50.5 -187.5t-155.5 -136.5l-197 -121 q-27 -16 -38 -26.5t-11 -26.5q0 -18 25.5 -22.5t103.5 -4.5q68 0 149 7.5t95 7.5q43 0 43 -84q0 -176 -78 -195q-123 -30 -322 -30q-67 0 -116 4.5t-100 20t-82.5 42t-52 72.5t-20.5 110zM332 1159q0 30 24 105l33 100q18 53 35.5 75.5t58.5 34t123 11.5q73 0 110 -7.5 t46.5 -19t9.5 -33.5q0 -40 -51 -133l-55 -100q-27 -51 -66 -70.5t-139 -19.5q-75 0 -102 13t-27 44z" />
<glyph unicode="&#x454;" horiz-adv-x="841" d="M51 307q0 146 21.5 290t52.5 224q24 63 64.5 105.5t96 65.5t115.5 32.5t136 9.5q145 0 239 -30q27 -8 40 -27.5t13 -65.5q0 -52 -6.5 -89.5t-14.5 -55.5t-20.5 -28t-20 -11.5t-17.5 -1.5q-13 0 -87.5 8t-107.5 8q-63 0 -91.5 -19.5t-39.5 -62.5q-5 -14 -8 -34h194 q33 0 46.5 -13t13.5 -47q0 -106 -19 -142t-65 -36h-197v-25q0 -49 18 -69.5t72 -20.5q49 0 143.5 16.5t100.5 16.5q26 0 40.5 -16.5t14.5 -61.5q0 -94 -17.5 -138t-55.5 -62q-92 -45 -308 -45q-88 0 -149 15t-107 51t-68 100t-22 159z" />
<glyph unicode="&#x455;" horiz-adv-x="854" d="M18 104q0 85 19.5 139t58.5 54q6 0 94 -11.5t156 -11.5q98 0 98 50q0 14 -9 23.5t-34 19.5l-147 61q-94 38 -136 88t-42 135q0 88 32.5 177t88.5 133q92 73 282 73q193 0 291 -30q25 -7 39 -27t14 -66q0 -52 -6.5 -89.5t-14.5 -55.5t-21 -28t-20.5 -11.5t-17.5 -1.5 q-19 0 -121 12.5t-143 12.5q-19 0 -30 -11q-13 -13 -13 -32q0 -12 8 -20t31 -17l137 -56q104 -42 145.5 -101t41.5 -138q0 -105 -31.5 -191t-93.5 -131q-100 -73 -316 -73q-71 0 -156.5 9.5t-125.5 22.5q-32 11 -45 31t-13 61z" />
<glyph unicode="&#x456;" horiz-adv-x="514" d="M51 197q0 29 23 245l51 480q6 59 44 75.5t146 16.5q92 0 125 -13.5t33 -56.5q0 -27 -37 -357t-37 -347q0 -36 5.5 -85t5.5 -57q0 -19 -3 -31t-17 -30t-51 -27.5t-95 -9.5q-84 0 -118.5 12t-51.5 49q-10 22 -16.5 65t-6.5 71zM150 1180q0 108 38 139q22 20 62.5 26.5 t120.5 6.5q90 0 122.5 -22t32.5 -77q0 -107 -39 -139q-22 -20 -62 -26.5t-120 -6.5q-90 0 -122.5 22t-32.5 77z" />
<glyph unicode="&#x457;" horiz-adv-x="514" d="M-43 1180q0 109 39 141q22 20 56 25.5t114 5.5q89 0 116 -21t27 -78q0 -109 -39 -141q-22 -20 -56 -25.5t-114 -5.5q-89 0 -116 21t-27 78zM51 197q0 29 23 245l51 480q6 59 44 75.5t146 16.5q92 0 125 -13.5t33 -56.5q0 -27 -37 -357t-37 -347q0 -36 5.5 -85t5.5 -57 q0 -19 -3 -31t-17 -30t-51 -27.5t-95 -9.5q-84 0 -118.5 12t-51.5 49q-10 22 -16.5 65t-6.5 71zM367 1180q0 109 39 141q22 20 55.5 25.5t113.5 5.5q89 0 116.5 -21t27.5 -78q0 -109 -39 -141q-22 -20 -56 -25.5t-114 -5.5q-89 0 -116 21t-27 78z" />
<glyph unicode="&#x458;" horiz-adv-x="505" d="M-229 -299q0 193 77 193q13 0 48.5 -4.5t64.5 -4.5t41.5 12t17.5 40q9 58 15 116l90 869q6 59 44 75.5t146 16.5q93 0 126.5 -13.5t33.5 -56.5q0 -13 -22 -235l-84 -787q-19 -181 -111 -256.5t-242 -75.5q-128 0 -198 23q-47 16 -47 88zM150 1180q0 108 38 139 q22 20 62.5 26.5t120.5 6.5q90 0 122.5 -22t32.5 -77q0 -107 -39 -139q-22 -20 -62 -26.5t-120 -6.5q-90 0 -122.5 22t-32.5 77z" />
<glyph unicode="&#x459;" horiz-adv-x="1445" d="M-20 78q0 14 7 35.5t23 59.5t23 56q126 341 200 613q12 45 24 71t33 48t56 32t85.5 15.5t129.5 5.5q124 0 185 -13t86 -43t30 -92l19 -229q147 22 249 22q58 0 93.5 -3.5t74.5 -17t60 -39t35 -72t14 -113.5q0 -104 -32 -200t-99 -148q-61 -47 -148.5 -61.5t-232.5 -14.5 q-157 0 -268 18q-34 6 -48.5 25t-17.5 57q-2 27 -9 286t-11 355h-21q-22 -130 -78 -354t-82 -287q-23 -57 -60 -73.5t-144 -16.5q-102 0 -139 14.5t-37 63.5zM901 401l10 -127q16 -4 43 -4q55 0 78 17q23 15 23 73q0 24 -15.5 33.5t-48.5 9.5q-61 0 -90 -2z" />
<glyph unicode="&#x45a;" horiz-adv-x="1488" d="M41 70q0 38 32.5 341t32.5 345q0 14 -5 82.5t-5 79.5q0 52 36.5 74t133.5 22q96 0 130 -17.5t46 -72.5q17 -80 17 -154q0 -17 -8 -111h178l28 263q6 59 44.5 75.5t146.5 16.5q92 0 125 -13.5t33 -56.5q0 -32 -31 -301q140 16 211 16q48 0 79 -2.5t66 -10t56 -24t39.5 -43 t27 -68t8.5 -97.5q0 -104 -32 -200t-99 -148q-61 -47 -148.5 -61.5t-232.5 -14.5q-161 0 -309 20q-44 6 -59 17t-15 41q0 18 4 51l29 268h-180l-31 -295q-6 -59 -44 -75.5t-146 -16.5q-92 0 -125 13.5t-33 56.5zM934 274q1 0 10.5 -1t27 -2t38.5 -1q54 0 77 17t23 73 q0 24 -15 33.5t-48 9.5q-17 0 -50.5 -1t-48.5 -1q0 -4 -5 -46.5t-9 -80.5z" />
<glyph unicode="&#x45b;" horiz-adv-x="1060" d="M37 70q0 14 12 131l86 835h-35q-27 0 -37 11t-10 43q0 31 4.5 58.5t18.5 51t37 23.5h43l4 37q6 59 44 75.5t146 16.5q92 0 125 -13.5t33 -56.5q0 -5 -0.5 -12.5t-1.5 -21t-2 -25.5h235q27 0 37 -11t10 -43t-4 -59t-18 -50.5t-37 -23.5h-244l-18 -194q95 123 291 123 q245 0 245 -187q0 -44 -26.5 -271t-26.5 -267q0 -36 5 -85t5 -57q0 -20 -3 -31.5t-16.5 -29.5t-50.5 -27.5t-95 -9.5q-84 0 -118.5 12t-51.5 49q-10 22 -16.5 65t-6.5 71q0 54 19.5 228t19.5 191q0 26 -11 39t-44 13q-71 0 -109.5 -40.5t-44.5 -109.5l-45 -426 q-6 -59 -44 -75.5t-146 -16.5q-92 0 -125 13.5t-33 56.5z" />
<glyph unicode="&#x45c;" horiz-adv-x="999" d="M41 70q0 38 32.5 341t32.5 345q0 14 -5 82.5t-5 79.5q0 52 36.5 74t133.5 22q96 0 130 -17.5t46 -72.5q17 -80 17 -154q0 -14 -5.5 -66t-7.5 -81h43q70 110 140 305q13 35 27.5 50.5t55 25.5t117.5 10q55 0 90.5 -6t51 -18t20 -24t4.5 -30q0 -75 -72.5 -202.5 t-156.5 -213.5q38 -102 178 -354q29 -52 29 -80q0 -86 -191 -86q-99 0 -139 20.5t-76 92.5q-32 64 -100 303h-45l-33 -324q-6 -59 -44 -75.5t-146 -16.5q-92 0 -125 13.5t-33 56.5zM381 1159q0 27 25 105l32 100q18 53 35.5 75.5t58.5 34t123 11.5q73 0 110 -7.5t46.5 -19 t9.5 -33.5q0 -40 -51 -133l-55 -100q-27 -51 -66 -70.5t-139 -19.5q-75 0 -102 13t-27 44z" />
<glyph unicode="&#x45e;" horiz-adv-x="989" d="M-27 -291q0 28 4 58t12 61t25.5 50.5t40.5 19.5q10 0 76 -6.5t96 -6.5q62 0 98 13t52 35.5t29 66.5q-153 0 -206.5 29t-60.5 118l-55 623q-2 18 -5 49t-5 53t-2 33q0 69 43 90q40 19 151 19q74 0 109 -7t49.5 -25t17.5 -58q2 -24 5.5 -282t7.5 -359h20q43 175 154 641 q13 57 51.5 73.5t153.5 16.5q95 0 128 -15.5t33 -58.5q0 -28 -53 -229q-133 -507 -198 -700.5t-119 -264.5q-61 -82 -157.5 -119t-244.5 -37q-44 0 -104.5 7.5t-95.5 19.5q-50 17 -50 92zM252 1327q0 53 6 90q6 39 33 52.5t100 13.5q57 0 75.5 -13.5t18.5 -44.5v-22 q1 -15 3 -22.5t9.5 -15t24 -10.5t43.5 -3q52 0 67 13t25 52q9 41 32 53.5t91 12.5q61 0 83 -12t22 -52q0 -167 -78 -245q-38 -38 -96 -55t-172 -17q-155 0 -221 51t-66 174z" />
<glyph unicode="&#x45f;" horiz-adv-x="1052" d="M51 156q0 46 29 284q33 263 33 316q0 25 -5.5 86t-5.5 76q0 52 36.5 74t133.5 22q94 0 124 -17t42 -73q17 -80 17 -154q0 -32 -22.5 -230t-22.5 -223q0 -30 15 -40.5t48 -10.5q68 0 100.5 60.5t42.5 169.5l46 426q6 59 44 75.5t146 16.5q92 0 125 -13.5t33 -56.5 q0 -25 -31 -317t-31 -351q0 -24 10.5 -103.5t10.5 -94.5q0 -41 -37 -59.5t-135 -18.5q-49 0 -75.5 3.5t-42.5 16.5t-22 29t-12 49l-16 84q-50 -102 -133.5 -152t-208.5 -50q-46 0 -85 8t-74.5 26.5t-56 54.5t-20.5 87zM225 -453q0 18 20.5 114.5t20.5 139.5q0 66 38 87.5 t151 21.5q99 0 130 -15.5t31 -66.5q0 -42 -20.5 -97.5t-67.5 -148.5q-29 -59 -64 -75.5t-120 -16.5q-75 0 -97 13.5t-22 43.5z" />
<glyph unicode="&#x490;" horiz-adv-x="876" d="M27 72q0 11 4 47l114 1089q6 51 27 66.5t74 15.5h346l53 113q29 59 56.5 75.5t103.5 16.5q72 0 98.5 -13t26.5 -55q0 -18 -8 -88l-27 -260q-6 -59 -33 -75.5t-100 -16.5h-291l-94 -895q-6 -59 -43.5 -75.5t-140.5 -16.5q-95 0 -130.5 13.5t-35.5 58.5z" />
<glyph unicode="&#x491;" horiz-adv-x="868" d="M20 229q0 115 50 195.5t159 140.5l199 111q43 22 43 45q0 22 -86 22q-58 0 -128.5 -6t-78.5 -6q-49 0 -49 92q0 29 24 92t49 148t27 166q1 45 10 64t39 28.5t95 9.5q74 0 95 -15t21 -61q0 -106 -83 -223q31 2 96 2t112 -5.5t89.5 -20.5t68 -41t40.5 -68t15 -100 q0 -116 -50.5 -187.5t-155.5 -136.5l-197 -121q-27 -16 -38 -26.5t-11 -26.5q0 -18 25.5 -22.5t103.5 -4.5q68 0 149 7.5t95 7.5q43 0 43 -84q0 -176 -78 -195q-123 -30 -322 -30q-67 0 -116 4.5t-100 20t-82.5 42t-52 72.5t-20.5 110z" />
<glyph unicode="&#x2000;" horiz-adv-x="880" />
<glyph unicode="&#x2001;" horiz-adv-x="1761" />
<glyph unicode="&#x2002;" horiz-adv-x="880" />
<glyph unicode="&#x2003;" horiz-adv-x="1761" />
<glyph unicode="&#x2004;" horiz-adv-x="587" />
<glyph unicode="&#x2005;" horiz-adv-x="440" />
<glyph unicode="&#x2006;" horiz-adv-x="293" />
<glyph unicode="&#x2007;" horiz-adv-x="293" />
<glyph unicode="&#x2008;" horiz-adv-x="220" />
<glyph unicode="&#x2009;" horiz-adv-x="352" />
<glyph unicode="&#x200a;" horiz-adv-x="97" />
<glyph unicode="&#x2010;" horiz-adv-x="681" d="M29 430q0 40 7.5 95t18.5 79q24 51 88 51h437q41 0 57 -15t16 -58q0 -40 -7.5 -95t-18.5 -79q-24 -52 -88 -52h-437q-41 0 -57 15.5t-16 58.5z" />
<glyph unicode="&#x2011;" horiz-adv-x="681" d="M29 430q0 40 7.5 95t18.5 79q24 51 88 51h437q41 0 57 -15t16 -58q0 -40 -7.5 -95t-18.5 -79q-24 -52 -88 -52h-437q-41 0 -57 15.5t-16 58.5z" />
<glyph unicode="&#x2012;" horiz-adv-x="681" d="M29 430q0 40 7.5 95t18.5 79q24 51 88 51h437q41 0 57 -15t16 -58q0 -40 -7.5 -95t-18.5 -79q-24 -52 -88 -52h-437q-41 0 -57 15.5t-16 58.5z" />
<glyph unicode="&#x2013;" horiz-adv-x="864" d="M23 430q0 40 7.5 95t18.5 79q24 51 88 51h621q41 0 57 -15t16 -58q0 -40 -7.5 -95t-18.5 -79q-24 -52 -88 -52h-621q-41 0 -57 15.5t-16 58.5z" />
<glyph unicode="&#x2014;" horiz-adv-x="1376" d="M23 430q0 40 7.5 95t18.5 79q24 51 88 51h1133q41 0 57 -15t16 -58q0 -40 -7.5 -95t-18.5 -79q-24 -52 -88 -52h-1133q-41 0 -57 15.5t-16 58.5z" />
<glyph unicode="&#x2018;" horiz-adv-x="423" d="M82 930q0 34 6 90q4 60 27 120.5t80 174.5q44 86 80.5 108.5t130.5 22.5q57 0 74.5 -13.5t17.5 -43.5q0 -27 -22.5 -124.5t-26.5 -138.5l-17 -159q-9 -79 -43 -102t-145 -23q-99 0 -130.5 16.5t-31.5 71.5z" />
<glyph unicode="&#x2019;" horiz-adv-x="423" d="M74 899q0 27 22.5 124t26.5 138l16 160q9 79 43.5 102t145.5 23q99 0 130 -16.5t31 -71.5q0 -34 -6 -90q-4 -61 -26.5 -121.5t-79.5 -173.5q-44 -86 -80.5 -108.5t-130.5 -22.5q-57 0 -74.5 13.5t-17.5 43.5z" />
<glyph unicode="&#x201a;" horiz-adv-x="430" d="M-66 -248q0 27 23 124t27 138l16 160q9 79 43 102t145 23q99 0 130.5 -16.5t31.5 -71.5q0 -35 -6 -90q-4 -61 -26.5 -121.5t-79.5 -173.5q-44 -86 -80.5 -108.5t-130.5 -22.5q-57 0 -75 13.5t-18 43.5z" />
<glyph unicode="&#x201c;" horiz-adv-x="874" d="M82 930q0 34 6 90q4 60 27 120.5t80 174.5q44 86 80.5 108.5t130.5 22.5q57 0 74.5 -13.5t17.5 -43.5q0 -27 -22.5 -124.5t-26.5 -138.5l-17 -159q-9 -79 -43 -102t-145 -23q-99 0 -130.5 16.5t-31.5 71.5zM532 930q0 25 7 90q4 61 26.5 121.5t79.5 173.5 q44 86 80.5 108.5t130.5 22.5q57 0 74.5 -13.5t17.5 -43.5q0 -27 -22.5 -124.5t-26.5 -138.5l-16 -159q-9 -79 -43.5 -102t-145.5 -23q-99 0 -130.5 16.5t-31.5 71.5z" />
<glyph unicode="&#x201d;" horiz-adv-x="874" d="M74 899q0 27 22.5 124t26.5 138l16 160q9 79 43.5 102t145.5 23q99 0 130 -16.5t31 -71.5q0 -34 -6 -90q-4 -61 -26.5 -121.5t-79.5 -173.5q-44 -86 -80.5 -108.5t-130.5 -22.5q-57 0 -74.5 13.5t-17.5 43.5zM524 899q0 27 22.5 124t26.5 138l17 160q9 79 43 102t145 23 q99 0 130.5 -16.5t31.5 -71.5q0 -34 -6 -90q-4 -60 -27 -120.5t-80 -174.5q-44 -86 -80.5 -108.5t-130.5 -22.5q-57 0 -74.5 13.5t-17.5 43.5z" />
<glyph unicode="&#x201e;" horiz-adv-x="860" d="M-66 -248q0 27 23 124t27 138l16 160q9 79 43 102t145 23q99 0 130.5 -16.5t31.5 -71.5q0 -35 -6 -90q-4 -61 -26.5 -121.5t-79.5 -173.5q-44 -86 -80.5 -108.5t-130.5 -22.5q-57 0 -75 13.5t-18 43.5zM365 -248q0 27 22.5 124t26.5 138l16 160q9 79 43 102t145 23 q99 0 130.5 -16.5t31.5 -71.5q0 -35 -6 -90q-4 -61 -26.5 -121.5t-79.5 -173.5q-44 -86 -80.5 -108.5t-130.5 -22.5q-57 0 -74.5 13.5t-17.5 43.5z" />
<glyph unicode="&#x2026;" horiz-adv-x="1230" d="M-4 88q0 18 12 129q9 79 42.5 102t144.5 23q98 0 130.5 -17t32.5 -71q0 -18 -12 -129q-9 -79 -42 -102t-144 -23q-98 0 -131 17.5t-33 70.5zM395 88q0 9 13 129q9 79 42 102t144 23q98 0 131 -17.5t33 -70.5q0 -9 -13 -129q-9 -79 -42 -102t-144 -23q-98 0 -131 17.5 t-33 70.5zM795 88q0 18 12 129q9 79 42 102t144 23q98 0 131 -17.5t33 -70.5q0 -18 -12 -129q-9 -79 -42.5 -102t-144.5 -23q-98 0 -130.5 17t-32.5 71z" />
<glyph unicode="&#x202f;" horiz-adv-x="352" />
<glyph unicode="&#x2039;" horiz-adv-x="686" d="M35 438q0 50 10.5 120t26.5 101q13 25 32.5 45t37 31t48.5 27l371 194q30 15 53 15q54 0 54 -68q0 -55 -5.5 -93t-30 -84t-69.5 -77l-190 -127l-2 -16l164 -135q35 -29 47 -51t12 -68q0 -77 -11 -122t-26.5 -59t-38.5 -14q-21 0 -51 15l-330 194q-39 23 -57.5 39 t-31.5 49t-13 84z" />
<glyph unicode="&#x203a;" horiz-adv-x="686" d="M18 125q0 55 5.5 93t30 84t69.5 77l190 127l2 16l-163 135q-35 30 -47.5 51.5t-12.5 67.5q0 77 11 122t26.5 59t38.5 14q21 0 51 -15l330 -194q39 -23 57.5 -39t31.5 -49t13 -84q0 -50 -10.5 -120t-26.5 -101q-13 -25 -32.5 -45t-37 -31t-48.5 -27l-371 -194 q-30 -15 -53 -15q-54 0 -54 68z" />
<glyph unicode="&#x205f;" horiz-adv-x="440" />
<glyph unicode="&#x20ac;" d="M35 440q0 31 35 133q11 35 45 35h30q1 7 4.5 31t4.5 39h-64q-35 0 -35 29q0 31 35 133q11 34 45 34h47q18 81 45.5 146.5t58.5 109.5t71 76t77.5 49.5t84 28t83.5 13.5t84 3q144 0 281 -30q20 -5 28.5 -20.5t8.5 -57.5q0 -54 -6 -96.5t-15.5 -67t-20.5 -37t-22 -12.5 q-8 0 -68 7t-131 7q-86 0 -131.5 -24t-70.5 -95h202q35 0 35 -28q0 -30 -35 -133q-11 -35 -45 -35h-192q-2 -17 -4 -41t-2 -29h198q35 0 35 -28q0 -32 -35 -134q-11 -34 -45 -34h-166q4 -69 49 -92t134 -23q58 0 121.5 8t80.5 8q19 0 27 -14t8 -49q0 -209 -69 -227 q-123 -33 -297 -33q-76 0 -132 7.5t-111 30t-90 61.5t-56 105.5t-21 157.5v60h-59q-35 0 -35 28z" />
<glyph unicode="&#x2122;" horiz-adv-x="1892" d="M84 1102q0 110 20.5 149t65.5 39h592q33 0 46 -15.5t13 -57.5q0 -111 -20.5 -150t-65.5 -39h-143l-49 -465q-6 -61 -34.5 -76.5t-127.5 -15.5q-91 0 -119.5 11.5t-28.5 54.5q0 7 9 86l43 405h-142q-33 0 -46 16t-13 58zM836 537q0 15 8 86l59 548q5 53 22.5 76.5t60 33 t134.5 9.5q107 0 143.5 -21t57.5 -102l49 -196l88 186q40 84 87.5 108.5t160.5 24.5q104 0 139 -16.5t35 -69.5q0 -34 -6 -84l-62 -557q-6 -61 -34 -76.5t-127 -15.5q-91 0 -119.5 11.5t-28.5 54.5q0 15 8 86q4 39 16.5 111.5t14.5 92.5h-14l-66 -118q-32 -56 -54 -70 t-83 -14q-48 0 -64 14.5t-38 77.5l-39 110h-15l-24 -264q-6 -61 -34.5 -76.5t-127.5 -15.5q-91 0 -119 11.5t-28 54.5z" />
<glyph unicode="&#x25fc;" horiz-adv-x="1013" d="M0 0v1014h1014v-1014h-1014z" />
</font>
</defs>
</svg>
