<?xml version="1.0" standalone="no"?>
<!DOCTYPE svg PUBLIC "-//W3C//DTD SVG 1.1//EN" "http://www.w3.org/Graphics/SVG/1.1/DTD/svg11.dtd" >
<svg xmlns="http://www.w3.org/2000/svg">
<metadata></metadata>
<defs>
<font id="neuronextrabold_italic" horiz-adv-x="948" >
<font-face units-per-em="2048" ascent="1536" descent="-512" />
<missing-glyph horiz-adv-x="436" />
<glyph horiz-adv-x="0" />
<glyph horiz-adv-x="682" />
<glyph unicode="&#xd;" horiz-adv-x="868" />
<glyph unicode=" "  horiz-adv-x="436" />
<glyph unicode="&#x09;" horiz-adv-x="436" />
<glyph unicode="&#xa0;" horiz-adv-x="436" />
<glyph unicode="!" horiz-adv-x="434" d="M37 59q0 36 8 95q7 61 33.5 77.5t114.5 16.5q75 0 102 -12.5t27 -47.5q0 -25 -7 -94q-7 -61 -33 -77.5t-114 -16.5q-77 0 -104 12t-27 47zM98 410q0 24 6 110l48 682q3 48 32.5 62t110.5 14q74 0 101.5 -12.5t27.5 -51.5q0 -14 -14 -118l-86 -678q-6 -48 -28.5 -62 t-90.5 -14q-60 0 -83.5 13t-23.5 55z" />
<glyph unicode="&#x22;" horiz-adv-x="669" d="M96 821q0 268 10 373q6 51 32.5 67.5t111.5 16.5q73 0 99 -13.5t26 -50.5q0 -83 -78 -393q-8 -33 -29 -45t-75 -12q-55 0 -76 12.5t-21 44.5zM432 821q0 268 10 373q6 51 32.5 67.5t111.5 16.5q73 0 99 -13.5t26 -50.5q0 -83 -78 -393q-8 -33 -29 -45t-76 -12t-75.5 12.5 t-20.5 44.5z" />
<glyph unicode="#" d="M39 387q0 67 14 107q14 32 56 32h88l26 254h-94q-25 0 -35 9.5t-10 35.5q0 67 14 107q15 33 56 33h90l18 174q4 48 27 61.5t88 13.5q58 0 79 -11t21 -46q0 -3 -1 -14t-2.5 -26.5t-2.5 -26.5l-14 -125h149l19 174q6 48 27.5 61.5t86.5 13.5q58 0 79.5 -11t21.5 -46 q0 -27 -6 -67l-15 -125h99q25 0 35 -9.5t10 -35.5q0 -73 -17 -107q-16 -33 -55 -33h-90l-27 -254h98q24 0 35 -10t11 -35q0 -67 -17 -106q-16 -33 -55 -33h-92l-19 -186q-4 -48 -26.5 -62t-87.5 -14q-59 0 -81 10.5t-22 44.5q0 15 12 111l11 96h-150l-18 -186 q-4 -48 -27 -62t-88 -14q-58 0 -80 10.5t-22 44.5q0 15 12 111l10 96h-94q-25 0 -35 9.5t-10 35.5zM412 526h147l27 254h-148z" />
<glyph unicode="$" d="M29 102q0 64 17.5 109t47.5 45q9 0 94 -15.5t164 -15.5q73 0 118 7t73 30q25 20 40 61.5t15 86.5q0 38 -18 63.5t-66 46.5l-211 92q-84 36 -126 95.5t-42 164.5q0 77 21 154t55 127q73 108 248 129l12 111q4 43 30.5 55t98.5 12q66 0 90.5 -10t24.5 -41q0 -21 -6 -61 l-9 -70q71 -7 166 -31q21 -5 30 -18t9 -47q0 -164 -59 -164q-3 0 -88 15.5t-170 15.5q-70 0 -110 -10t-60 -40q-21 -35 -21 -92q0 -35 17 -54.5t59 -39.5l213 -94q93 -40 134.5 -96.5t41.5 -157.5q0 -138 -46 -242t-130 -160q-60 -42 -149 -61l-15 -139q-4 -43 -31.5 -55.5 t-99.5 -12.5q-64 0 -88 10t-24 41q0 22 6 62l8 80q-128 9 -213 35q-29 8 -40 23.5t-11 55.5z" />
<glyph unicode="%" horiz-adv-x="1128" d="M63 33q0 27 35 78l410 600q-62 -37 -178 -37q-133 0 -182.5 42t-49.5 161q0 121 17 199.5t56 123t91.5 61.5t132.5 17q130 0 182 -42.5t52 -160.5q0 -129 -23 -223l256 375q20 30 48 40.5t100 10.5q92 0 92 -37q0 -22 -37 -76l-408 -596q57 33 168 33q129 0 181.5 -42 t52.5 -163q0 -156 -30.5 -242t-93.5 -120.5t-175 -34.5q-132 0 -183 42t-51 157q0 123 19 207l-242 -355q-21 -31 -48 -41t-99 -10q-93 0 -93 33zM283 901q0 -41 13.5 -55.5t51.5 -14.5q37 0 56.5 16.5t29.5 65t10 142.5q0 38 -13.5 50.5t-51.5 12.5q-37 0 -56.5 -16 t-29.5 -63t-10 -138zM711 223q0 -38 14 -51.5t51 -13.5q38 0 57.5 16t30 64t10.5 141q0 38 -14 51.5t-53 13.5q-36 0 -55.5 -16t-30 -64t-10.5 -141z" />
<glyph unicode="&#x26;" horiz-adv-x="1042" d="M31 260q0 93 24 180t68 129q68 68 211 74q-95 12 -143 74t-48 155q0 102 23 189.5t63 130.5q49 55 120.5 75.5t172.5 20.5q168 0 328 -39q24 -7 32.5 -18.5t8.5 -44.5q0 -82 -17.5 -120t-44.5 -38q-11 0 -108 13.5t-162 13.5q-47 0 -74 -8t-41 -33q-14 -22 -23 -68.5 t-9 -87.5q0 -64 37.5 -93.5t136.5 -29.5h102l8 84q5 50 25.5 63t93.5 13q62 0 81 -8.5t19 -38.5q0 -16 -6 -72l-4 -41h84q26 0 35.5 -10t9.5 -39q0 -87 -14 -115t-51 -28h-76l-27 -264q-7 -72 -32 -124.5t-62 -85t-93 -51.5t-115.5 -25.5t-139.5 -6.5q-212 0 -302.5 59 t-90.5 215zM311 315q0 -54 30.5 -78t117.5 -24q102 0 139 26.5t45 100.5l21 203h-109q-77 0 -122.5 -9t-70.5 -34q-51 -46 -51 -185z" />
<glyph unicode="'" horiz-adv-x="333" d="M96 821q0 268 10 373q6 51 32.5 67.5t111.5 16.5q73 0 99 -13.5t26 -50.5q0 -83 -78 -393q-8 -33 -29 -45t-75 -12q-55 0 -76 12.5t-21 44.5z" />
<glyph unicode="(" horiz-adv-x="483" d="M74 436q0 220 54 438t136 388q33 71 67 96.5t101 25.5q59 0 79.5 -11.5t20.5 -31.5q0 -22 -30.5 -106.5t-66.5 -190t-66.5 -287.5t-30.5 -376q0 -109 12 -204.5t23.5 -155t11.5 -78.5q0 -58 -111 -58q-68 0 -98 26t-49 97q-53 180 -53 428z" />
<glyph unicode=")" horiz-adv-x="483" d="M-20 -74q0 23 30.5 108t66.5 191t66.5 288t30.5 376q0 109 -12 204.5t-23.5 155t-11.5 78.5q0 57 111 57q66 0 96 -26t49 -96q53 -212 53 -431q0 -220 -53 -437t-135 -386q-35 -71 -68.5 -97t-99.5 -26q-100 0 -100 41z" />
<glyph unicode="*" horiz-adv-x="770" d="M76 954q0 24 24 82q20 46 35 63t33 17t141 -45q21 -7 37 -20q-2 6 -2 22q0 19 16 158q3 33 25 45t86 12q57 0 76.5 -10t19.5 -35q0 -14 -14 -147q-3 -27 -12 -45q12 10 43 20q129 43 145 43q20 0 33 -29q29 -73 29 -118q0 -24 -10 -35t-33 -17l-123 -36q-24 -9 -41 -9 q12 -10 28 -32l66 -107q10 -16 10 -31q0 -24 -65 -71q-61 -45 -86 -45q-19 0 -35 26l-68 111q-14 20 -18 45q-6 -22 -25 -45l-90 -111q-20 -26 -43 -26q-26 0 -76.5 43.5t-50.5 68.5q0 17 21 41l86 103q16 19 28 28q-9 0 -33 9l-122 41q-20 7 -27.5 13.5t-7.5 22.5z" />
<glyph unicode="+" d="M121 500q0 91 16.5 122t55.5 31h178l22 199q6 44 29.5 57t95.5 13q66 0 88.5 -10t22.5 -42q0 -3 -6 -84l-15 -133h180q27 0 38.5 -10.5t11.5 -40.5q0 -92 -16.5 -124t-55.5 -32h-180l-21 -198q-4 -42 -28 -55t-97 -13q-66 0 -88 9.5t-22 41.5q0 4 1 18t2.5 34.5t2.5 31.5 l14 131h-180q-27 0 -38 11.5t-11 42.5z" />
<glyph unicode="," horiz-adv-x="391" d="M-43 -250q0 22 23.5 118.5t27.5 143.5l15 138q6 60 33 78t114 18q76 0 100.5 -13.5t24.5 -54.5q0 -26 -6 -84q-7 -78 -60 -198l-39 -91q-32 -64 -59.5 -81t-99.5 -17q-44 0 -59 10.5t-15 32.5z" />
<glyph unicode="-" horiz-adv-x="657" d="M45 461q0 31 6 73.5t15 61.5q21 43 69 43h426q32 0 44.5 -12.5t12.5 -46.5q0 -31 -6 -74t-14 -62q-19 -41 -70 -41h-426q-31 0 -44 12.5t-13 45.5z" />
<glyph unicode="." horiz-adv-x="397" d="M18 70q0 3 1.5 16t4.5 39.5t5 52.5q8 62 34 80t113 18q78 0 104.5 -13.5t26.5 -55.5q0 -4 -10 -109q-8 -62 -34 -80t-113 -18q-78 0 -105 14t-27 56z" />
<glyph unicode="/" horiz-adv-x="620" d="M-100 -59q0 19 39 112l518 1247q20 49 54 66.5t105 17.5q119 0 119 -53q0 -10 -1.5 -19t-5.5 -21t-7 -19.5t-11 -26t-12 -28.5l-520 -1258q-19 -47 -54.5 -60.5t-111.5 -13.5q-69 0 -90.5 14.5t-21.5 41.5z" />
<glyph unicode="0" d="M33 328q0 107 25 333.5t55 342.5q43 163 145 223.5t299 60.5q76 0 132 -8t106.5 -30.5t81.5 -60t49 -98.5t18 -145q0 -107 -25 -333.5t-55 -342.5q-43 -163 -145 -223.5t-299 -60.5q-76 0 -132 8t-106.5 30.5t-81.5 60t-49 98.5t-18 145zM305 371q0 -90 31 -122t108 -32 q79 0 115.5 27t54.5 112q13 63 35.5 269.5t22.5 277.5q0 90 -31.5 122t-108.5 32q-79 0 -115.5 -27t-54.5 -112q-13 -62 -35 -269t-22 -278z" />
<glyph unicode="1" d="M109 70q0 96 20 132t59 36h160l78 751l-119 -28q-58 -15 -71 -15q-35 0 -35 64q0 91 19 134.5t61 55.5l204 60q63 18 107 18q75 0 101 -11.5t26 -49.5q0 -3 -1.5 -18t-7 -67t-12.5 -122l-80 -772h162q30 0 43 -15t13 -55q0 -96 -20.5 -132t-59.5 -36h-592q-30 0 -42.5 15 t-12.5 55z" />
<glyph unicode="2" d="M47 51q0 34 14 144q15 113 64 192t147 156l281 223q88 71 88 205q0 53 -27.5 68.5t-109.5 15.5q-78 0 -174 -16.5t-109 -16.5q-17 0 -25 12.5t-8 46.5q0 147 72 168q57 17 154.5 28t193.5 11q39 0 68 -1.5t64 -7.5t59.5 -16t49 -28t39.5 -43t24.5 -61.5t9.5 -83.5 q0 -182 -68 -295q-48 -80 -164 -166l-241 -180q-32 -24 -48 -51t-20 -70l-4 -47h420q30 0 42.5 -15t12.5 -55q0 -96 -20.5 -132t-61.5 -36h-651q-39 0 -55.5 10t-16.5 41z" />
<glyph unicode="3" d="M31 94q0 62 8 97.5t19.5 46t27.5 10.5q10 0 118.5 -14.5t186.5 -14.5q114 0 157.5 51t43.5 152q0 70 -56 98.5t-200 28.5q-34 0 -47 13.5t-13 45.5q0 84 17.5 117t64.5 33q143 0 199 39q68 46 68 164q0 54 -27.5 74t-93.5 20q-70 0 -185 -14.5t-122 -14.5q-33 0 -33 59 q0 150 59 164q163 39 371 39q75 0 128 -10.5t96.5 -38t65 -79t21.5 -128.5q0 -111 -35.5 -196.5t-97.5 -128.5q-56 -38 -131 -48q116 -6 169.5 -63.5t53.5 -171.5q0 -233 -115.5 -335.5t-330.5 -102.5q-86 0 -184.5 11t-151.5 26q-30 8 -40.5 21.5t-10.5 49.5z" />
<glyph unicode="4" d="M27 356q0 60 11 107t48 108l375 629q32 52 78.5 65t160.5 13q104 0 140.5 -13t36.5 -57q0 -16 -5 -51l-67 -649h53q33 0 46.5 -13.5t13.5 -52.5q0 -51 -5.5 -83t-17.5 -48t-26 -21t-35 -5h-54l-20 -209q-4 -48 -33.5 -62t-110.5 -14q-74 0 -101.5 11t-27.5 48q0 1 9 84 l14 142h-404q-46 0 -62.5 13t-16.5 58zM299 508h252q36 269 59 522h-14z" />
<glyph unicode="5" d="M53 92q0 156 58 156q6 0 84.5 -15.5t164.5 -15.5q123 0 168.5 33.5t57.5 128.5q10 93 10 115q0 53 -26 72.5t-87 19.5q-63 0 -166.5 -13.5t-121.5 -13.5q-20 0 -31 2t-21 13.5t-10 33.5q0 23 14 152l50 448q4 43 21.5 56.5t64.5 13.5h557q30 0 42.5 -15t12.5 -55 q0 -98 -20 -133t-60 -35h-395l-27 -249q25 7 86 13.5t105 6.5q47 0 78.5 -3t74 -17t68.5 -40t44.5 -76t18.5 -120q0 -65 -16 -201q-8 -69 -26 -123.5t-43 -93t-60.5 -66t-71.5 -44t-84 -26t-90.5 -12.5t-97.5 -3q-142 0 -275 37q-29 8 -40 20.5t-11 48.5z" />
<glyph unicode="6" d="M61 338q0 52 13 176l26 248q11 101 33.5 181t50.5 134.5t68 94t78 61.5t88 35t90 16.5t92 3.5q130 0 262 -35q24 -5 32.5 -15.5t8.5 -43.5q0 -60 -9.5 -98.5t-22 -51t-27.5 -12.5q-5 0 -84 12.5t-152 12.5q-46 0 -74.5 -3t-57 -13.5t-45.5 -30t-33 -53.5t-26 -82.5 t-18 -118.5l-8 -80q75 123 277 123q71 0 117.5 -10t83.5 -38t54 -80.5t17 -133.5q0 -131 -19.5 -227t-55.5 -158t-95 -99t-129 -52t-166 -15q-59 0 -102.5 4.5t-88.5 17t-75 37t-54.5 62.5t-36.5 96t-12 135zM315 342q0 -75 31.5 -100t114.5 -25q100 0 141 51.5t41 198.5 q0 66 -30.5 90.5t-112.5 24.5q-106 0 -145.5 -57t-39.5 -183z" />
<glyph unicode="7" d="M152 1108q0 98 19.5 134t59.5 36h639q46 0 62 -13.5t16 -60.5q0 -112 -53 -223l-440 -911q-21 -44 -55.5 -57t-112.5 -13q-109 0 -109 53q0 36 39 113l432 874h-442q-30 0 -42.5 14.5t-12.5 53.5z" />
<glyph unicode="8" d="M33 270q0 181 54 275.5t167 130.5q-127 50 -127 217q0 100 20.5 171t55 114t92 68t120.5 33.5t152 8.5q63 0 109 -4.5t95.5 -20.5t80 -44t50.5 -76.5t20 -116.5q0 -153 -45 -235t-140 -115q152 -51 152 -248q0 -128 -24.5 -212t-82 -135.5t-143.5 -73t-217 -21.5 q-80 0 -134.5 5.5t-106.5 22.5t-82 48t-48 82.5t-18 125.5zM301 328q0 -67 30 -91t109 -24q100 0 135 33q52 52 52 211q0 68 -32.5 91t-109.5 23q-55 0 -89 -10.5t-56 -40.5q-39 -56 -39 -192zM387 872q0 -58 24.5 -75t92.5 -17q59 0 89 14.5t45 56.5t15 124q0 60 -25.5 77 t-90.5 17q-89 0 -119.5 -39t-30.5 -158z" />
<glyph unicode="9" d="M59 84q0 158 60 158q5 0 83.5 -12.5t151.5 -12.5q51 0 84 3.5t64 14.5t49.5 31t34.5 54.5t26 83t17 118.5l6 68q-74 -119 -268 -119q-72 0 -119 10.5t-84 39t-53.5 82t-16.5 136.5q0 159 27 266t86 169t141.5 88t202.5 26q72 0 122 -6.5t100.5 -28t80.5 -59.5t49 -103.5 t19 -158.5q0 -64 -9 -141l-28 -275q-11 -102 -34 -183t-51.5 -136t-69 -94.5t-79.5 -62t-91 -35t-94.5 -16t-98.5 -3.5q-140 0 -258 32q-21 6 -29.5 10.5t-14.5 17.5t-6 38zM346 799q0 -63 30 -87t109 -24q106 0 145.5 61t39.5 197q0 70 -30 93.5t-110 23.5 q-107 0 -145.5 -53t-38.5 -211z" />
<glyph unicode=":" horiz-adv-x="393" d="M18 70q0 3 1.5 16t4.5 39.5t5 52.5q8 62 34 80t113 18q78 0 104.5 -13.5t26.5 -55.5q0 -4 -10 -109q-8 -62 -34 -80t-113 -18q-78 0 -105 14t-27 56zM94 797q0 3 10 108q8 62 34.5 80.5t113.5 18.5q77 0 104 -14t27 -56q0 -4 -10 -109q-8 -62 -34.5 -80t-113.5 -18 q-77 0 -104 14t-27 56z" />
<glyph unicode=";" horiz-adv-x="391" d="M-43 -250q0 22 23.5 118.5t27.5 143.5l15 138q6 60 33 78t114 18q76 0 100.5 -13.5t24.5 -54.5q0 -26 -6 -84q-7 -78 -60 -198l-39 -91q-32 -64 -59.5 -81t-99.5 -17q-44 0 -59 10.5t-15 32.5zM92 797q0 3 10 108q8 62 34.5 80.5t113.5 18.5q77 0 104 -14t27 -56 q0 -4 -10 -109q-8 -62 -34.5 -80t-113.5 -18q-77 0 -104 14t-27 56z" />
<glyph unicode="&#x3c;" d="M127 467q0 102 14.5 160.5t38 81t66.5 36.5l497 162q27 8 52 8q21 0 31 -11.5t10 -43.5q0 -76 -11 -116.5t-28 -54.5t-52 -23l-397 -111l-2 -14l375 -109q36 -11 48.5 -25.5t12.5 -48.5q0 -176 -65 -176q-14 0 -47 11l-463 159q-46 14 -63 36.5t-17 78.5z" />
<glyph unicode="=" d="M147 340q0 75 17 113q16 39 63 39h521q30 0 41.5 -12.5t11.5 -45.5q0 -72 -17 -110q-15 -39 -63 -39h-520q-30 0 -42 11t-12 44zM182 676q0 74 17 112q16 39 63 39h520q30 0 42 -12t12 -45q0 -73 -17 -111q-15 -38 -63 -38h-520q-30 0 -42 11t-12 44z" />
<glyph unicode="&#x3e;" d="M115 240q0 75 10 115t27 54t51 23l399 111l2 14l-375 111q-38 11 -50.5 24.5t-12.5 48.5q0 174 65 174q27 0 50 -10l460 -160q46 -13 64 -35.5t18 -78.5q0 -102 -14 -160t-37.5 -81.5t-66.5 -37.5l-500 -159q-27 -11 -51 -11q-39 0 -39 58z" />
<glyph unicode="?" horiz-adv-x="745" d="M90 1081q0 59 17 107.5t47 58.5q121 41 305 41q68 0 119 -9t98 -32t72.5 -70t25.5 -116q0 -104 -30 -180.5t-113 -159.5l-125 -125q-25 -25 -37 -51.5t-18 -73.5l-7 -53q-3 -47 -30.5 -61.5t-98.5 -14.5q-64 0 -89 11t-25 46q0 8 12 113q7 58 25 94t57 76l129 131 q74 74 74 164q0 48 -27 63t-96 15t-152 -14.5t-96 -14.5q-19 0 -28 11.5t-9 43.5zM152 59q0 36 6 95q7 61 34 77.5t115 16.5q75 0 102 -12.5t27 -47.5q0 -15 -8 -94q-7 -61 -33 -77.5t-114 -16.5q-76 0 -102.5 12t-26.5 47z" />
<glyph unicode="@" horiz-adv-x="1894" d="M51 133q0 115 45 533q11 107 28.5 191.5t46 160t67 131t93 102t122.5 77t157.5 51.5t196.5 30.5t240 9.5q231 0 384.5 -29.5t251.5 -97.5t139.5 -173.5t41.5 -264.5q0 -18 -15 -188l-24 -254q-11 -108 -42 -188t-72 -125.5t-97 -73.5t-106.5 -36.5t-110.5 -8.5 q-135 0 -201.5 38.5t-85.5 122.5l-6 25q-86 -186 -318 -186q-153 0 -213.5 61t-60.5 227q0 68 14 215q15 140 38 236t54 157.5t79 95t102 46t133 12.5q102 0 157 -37t78 -106l7 47q6 51 27.5 63.5t101.5 12.5q68 0 90 -10t22 -44q0 -24 -35 -356q-32 -291 -32 -324 q0 -58 20.5 -81t65.5 -23q42 0 65 14t39 56t25 123l36 342q9 80 9 143q0 84 -18 141.5t-57 99t-109 65t-166 34t-236 10.5q-135 0 -230 -9t-168 -33.5t-118 -58.5t-76.5 -93t-47 -127.5t-26.5 -171.5q-49 -457 -49 -533q0 -90 23.5 -153t67.5 -103.5t122.5 -63.5t173 -31.5 t234.5 -8.5q34 0 47.5 -13t13.5 -53q0 -84 -18 -121t-64 -37q-159 0 -277.5 10.5t-217 35t-164.5 64.5t-111 101t-65.5 142.5t-20.5 189.5zM791 342q0 -85 24.5 -111t91.5 -26q51 0 81.5 9.5t55 40.5t38 86t22.5 148q14 155 14 181q0 79 -30 108t-109 29q-60 0 -90.5 -20 t-52 -87.5t-35.5 -207.5q-10 -102 -10 -150z" />
<glyph unicode="A" horiz-adv-x="1105" d="M-16 49q0 30 22 94l367 1010q29 82 76 103.5t188 21.5q140 0 184 -22t56 -103l149 -999q8 -49 8 -78q0 -45 -24 -60.5t-111 -15.5q-88 0 -112.5 13.5t-32.5 66.5l-37 246h-365l-84 -248q-17 -50 -45.5 -64t-116.5 -14q-72 0 -97 11t-25 38zM422 530h274l-67 523h-29z" />
<glyph unicode="B" horiz-adv-x="1046" d="M53 55q0 6 4 60l113 1071q4 48 21.5 64.5t62.5 21.5q131 16 299 16q95 0 159 -5t121 -21t89 -44t50.5 -74.5t18.5 -113.5q0 -148 -47 -239.5t-153 -122.5q93 -19 135.5 -76t42.5 -166q0 -128 -24 -210t-84.5 -134.5t-155.5 -74t-244 -21.5q-183 0 -340 16q-40 4 -54 15.5 t-14 37.5zM336 199q61 -9 162 -9q119 0 158.5 51.5t39.5 209.5q0 65 -30.5 90.5t-116.5 25.5h-174zM395 754h129q63 0 97.5 9.5t52.5 37.5q35 53 35 176q0 51 -29.5 69.5t-112.5 18.5q-89 0 -141 -6z" />
<glyph unicode="C" horiz-adv-x="931" d="M61 350q0 70 31 365q9 87 25 159.5t35 127.5t45 98t52 73t60 51.5t64.5 33.5t70.5 19t72.5 9t75.5 2q166 0 305 -39q21 -7 30 -19t9 -46q0 -81 -15.5 -122.5t-37.5 -41.5q-5 0 -91 14.5t-161 14.5q-58 0 -93 -6t-67.5 -25.5t-51.5 -58.5t-33.5 -101.5t-25.5 -159.5 q-22 -225 -22 -295q0 -60 11.5 -96t40.5 -54t63.5 -23t95.5 -5q83 0 163 14.5t91 14.5q15 0 21.5 -11t6.5 -38q0 -67 -9 -106.5t-21.5 -53t-32.5 -20.5q-134 -39 -313 -39q-72 0 -126 8t-106.5 31t-86.5 62.5t-54.5 105.5t-20.5 157z" />
<glyph unicode="D" horiz-adv-x="1073" d="M53 55q0 19 6 68l111 1063q4 46 22.5 63.5t61.5 22.5q121 16 303 16q70 0 119.5 -3t103.5 -12t90 -26t70.5 -45.5t54 -69t31.5 -98.5t12 -133q0 -89 -24 -328q-9 -91 -25 -166t-35.5 -131.5t-47 -100.5t-55 -74.5t-66 -52t-72.5 -33.5t-81.5 -18.5t-86.5 -8.5t-94 -2 q-182 0 -330 16q-40 4 -54 15.5t-14 37.5zM338 227q59 -6 137 -6q51 0 81.5 3t61 15.5t47.5 34.5t33.5 62t26.5 96.5t18 140.5q25 227 25 287q0 123 -47 164t-176 41q-75 0 -119 -6z" />
<glyph unicode="E" horiz-adv-x="927" d="M53 49q0 3 1 12.5t2.5 23t2.5 21.5l115 1102q4 43 23 56.5t65 13.5h619q29 0 41 -14.5t12 -53.5q0 -100 -19 -135t-59 -35h-428l-29 -256h299q32 0 44 -12t12 -47q0 -104 -18 -139t-62 -35h-297l-33 -313h447q30 0 42.5 -15t12.5 -55q0 -96 -20.5 -132t-59.5 -36h-639 q-41 0 -57.5 10t-16.5 39z" />
<glyph unicode="F" horiz-adv-x="890" d="M53 57q0 3 1 12.5t2.5 24.5l2.5 25l115 1089q4 43 22 56.5t64 13.5h612q30 0 42 -14.5t12 -53.5q0 -100 -19 -135t-59 -35h-422l-27 -256h291q31 0 43 -12t12 -47q0 -104 -17.5 -139t-61.5 -35h-291l-49 -475q-4 -47 -34.5 -61.5t-109.5 -14.5q-74 0 -101.5 11t-27.5 46z " />
<glyph unicode="G" horiz-adv-x="1028" d="M63 350q0 89 29 365q12 112 34.5 199.5t49.5 147t66.5 102t77 66.5t90 37.5t95.5 17t103 3.5q171 0 310 -39q26 -7 35.5 -19t9.5 -46q0 -82 -15.5 -123t-38.5 -41q-9 0 -97.5 14.5t-166.5 14.5q-51 0 -83 -4t-64 -16.5t-51.5 -35.5t-37.5 -62.5t-29 -95.5t-20 -137 q-22 -225 -22 -295q0 -61 11 -98t36.5 -54t52.5 -21.5t74 -4.5q94 0 135 30.5t51 123.5l13 123h-119q-24 0 -33.5 11.5t-9.5 43.5q0 94 16 131t49 37h269q48 0 65 -12.5t17 -40.5q0 -22 -4 -51l-35 -314q-20 -179 -121.5 -250t-329.5 -71q-79 0 -134.5 6.5t-111.5 28 t-90 60.5t-55 106.5t-21 162.5z" />
<glyph unicode="H" horiz-adv-x="1097" d="M53 57q0 13 4 49l115 1096q4 48 33.5 62t109.5 14q73 0 100 -11t27 -46q0 -16 -4 -52l-43 -409h357l47 442q4 48 33.5 62t109.5 14q73 0 100 -11t27 -46q0 -16 -4 -52l-115 -1093q-4 -48 -33.5 -62t-109.5 -14q-73 0 -100 11t-27 46q0 13 4 49l45 431h-356l-47 -461 q-4 -47 -34.5 -61.5t-109.5 -14.5q-74 0 -101.5 11t-27.5 46z" />
<glyph unicode="I" horiz-adv-x="468" d="M53 57q0 13 4 49l115 1096q4 48 33.5 62t109.5 14q73 0 100 -11t27 -46q0 -16 -4 -52l-112 -1093q-4 -47 -34.5 -61.5t-109.5 -14.5q-74 0 -101.5 11t-27.5 46z" />
<glyph unicode="J" horiz-adv-x="753" d="M4 90q0 65 8.5 99.5t19 42.5t27.5 8q15 0 71 -7.5t97 -7.5q76 0 105.5 27t38.5 110l90 840q4 48 33.5 62t109.5 14q73 0 100 -11t27 -46q0 -19 -6 -72l-84 -780q-23 -209 -108 -296t-257 -87q-124 0 -223 30q-27 8 -38 23t-11 51z" />
<glyph unicode="K" horiz-adv-x="997" d="M53 57q0 13 4 49l115 1096q4 48 33.5 62t109.5 14q73 0 100 -11t27 -46q0 -16 -4 -52l-45 -438h33l311 481q27 42 58 54t118 12q74 0 98.5 -10t24.5 -37q0 -26 -35 -82l-352 -504l271 -516q18 -41 18 -63q0 -23 -10.5 -36t-45.5 -21.5t-100 -8.5q-68 0 -95 12t-46 51 l-231 496h-35l-49 -483q-4 -47 -34.5 -61.5t-109.5 -14.5q-74 0 -101.5 11t-27.5 46z" />
<glyph unicode="L" horiz-adv-x="870" d="M51 49q0 27 6 57l115 1096q4 48 33.5 62t109.5 14q73 0 100 -11t27 -46q0 -16 -4 -52l-98 -931h412q30 0 42.5 -15t12.5 -55q0 -97 -20 -132.5t-60 -35.5h-602q-41 0 -57.5 10t-16.5 39z" />
<glyph unicode="M" horiz-adv-x="1353" d="M53 57q0 13 4 49l113 1078q6 54 35.5 74t111.5 20q53 0 80.5 -2t55.5 -8.5t42 -21.5t26.5 -39t23.5 -64l141 -527h10l258 531q43 88 87 109.5t149 21.5q78 0 107.5 -16t29.5 -56q0 -27 -4 -59l-111 -1071q-4 -48 -34.5 -62t-110.5 -14q-73 0 -100 11t-27 46q0 13 4 49 l78 738h-12l-205 -432q-32 -57 -57 -73.5t-89 -16.5q-65 0 -86 16t-41 74l-116 432h-10l-80 -768q-4 -47 -34.5 -61.5t-109.5 -14.5q-74 0 -101.5 11t-27.5 46z" />
<glyph unicode="N" horiz-adv-x="1138" d="M53 57q0 13 4 49l115 1096q4 47 34 61.5t109 14.5q73 0 103.5 -13t48.5 -48q57 -131 150.5 -362.5t140.5 -336.5h20q4 41 14.5 169.5t22 257.5t25.5 257q6 48 34.5 62t108.5 14q73 0 100 -11t27 -46q0 -25 -6 -82l-113 -1063q-4 -48 -34.5 -62t-112.5 -14q-62 0 -89.5 12 t-45.5 49l-297 727h-21q-16 -243 -67 -712q-4 -48 -33.5 -62t-108.5 -14q-74 0 -101.5 11t-27.5 46z" />
<glyph unicode="O" horiz-adv-x="1067" d="M63 371q0 91 23.5 307t56.5 326q22 74 53.5 125.5t69 82.5t94 48t114.5 22.5t144 5.5q73 0 124.5 -5t102.5 -19t83.5 -40.5t58.5 -68.5t37.5 -104.5t11.5 -147.5q0 -91 -23.5 -307t-56.5 -326q-22 -74 -53.5 -125.5t-69 -82.5t-94 -48t-114.5 -22.5t-144 -5.5 q-73 0 -124.5 5t-102.5 19t-83.5 40.5t-58.5 68.5t-37.5 104.5t-11.5 147.5zM336 389q0 -56 8.5 -90t30 -52t50.5 -24t79 -6q94 0 137.5 26t65.5 109q21 80 39 251.5t18 281.5q0 108 -35.5 140t-134.5 32q-92 0 -135.5 -26t-65.5 -109q-21 -80 -39 -251.5t-18 -281.5z" />
<glyph unicode="P" horiz-adv-x="1024" d="M53 57q0 13 4 49l113 1076q4 48 22.5 65.5t61.5 22.5q150 18 377 18q96 0 160 -13t114 -47.5t73 -98.5t23 -162q0 -157 -34.5 -263.5t-106.5 -167.5t-168.5 -86.5t-234.5 -25.5h-97l-34 -348q-4 -47 -34.5 -61.5t-109.5 -14.5q-74 0 -101.5 11t-27.5 46zM383 643h119 q65 0 109 21t67.5 62t33 91.5t9.5 120.5q0 74 -35 100.5t-121 26.5q-87 0 -137 -6z" />
<glyph unicode="Q" horiz-adv-x="1067" d="M63 371q0 91 23.5 307t56.5 326q22 74 53.5 125.5t69 82.5t94 48t114.5 22.5t144 5.5q73 0 124.5 -5t102.5 -19t83.5 -40.5t58.5 -68.5t37.5 -104.5t11.5 -147.5q0 -91 -23.5 -307t-56.5 -326q-29 -97 -71.5 -154t-104.5 -87l80 -138q41 -68 41 -92q0 -43 -123 -43 q-74 0 -102.5 14.5t-52.5 61.5l-78 156q-20 -2 -64 -2q-73 0 -124.5 5t-102.5 19t-83.5 40.5t-58.5 68.5t-37.5 104.5t-11.5 147.5zM336 389q0 -56 8.5 -90t30 -52t50.5 -24t79 -6q94 0 137.5 26t65.5 109q21 80 39 251.5t18 281.5q0 108 -35.5 140t-134.5 32 q-92 0 -135.5 -26t-65.5 -109q-21 -80 -39 -251.5t-18 -281.5z" />
<glyph unicode="R" horiz-adv-x="1030" d="M53 57q0 13 4 49l113 1076q4 48 22.5 65.5t61.5 22.5q191 18 367 18q99 0 164.5 -12t118 -43.5t76.5 -91t24 -150.5q0 -186 -59 -293.5t-175 -156.5l154 -424q14 -41 14 -62q0 -31 -23.5 -43t-97.5 -12q-98 0 -125.5 12t-40.5 62l-119 422q-27 -2 -83 -2h-80l-43 -418 q-4 -47 -34.5 -61.5t-109.5 -14.5q-74 0 -101.5 11t-27.5 46zM389 684h94q137 0 188.5 49t51.5 197q0 77 -36.5 106t-121.5 29q-87 0 -137 -6z" />
<glyph unicode="S" horiz-adv-x="917" d="M8 102q0 64 18 109t48 45q9 0 94 -15.5t164 -15.5q73 0 117.5 7t72.5 30q25 20 40.5 62t15.5 86q0 39 -17.5 64t-64.5 46l-213 92q-84 36 -126 95.5t-42 164.5q0 78 20.5 154.5t54.5 126.5q93 135 336 135q189 0 320 -41q22 -5 30.5 -17.5t8.5 -47.5q0 -164 -60 -164 q-1 0 -87 15.5t-171 15.5q-70 0 -109.5 -10t-58.5 -40q-22 -31 -22 -92q0 -35 17.5 -54.5t60.5 -39.5l211 -94q93 -40 134.5 -96.5t41.5 -157.5q0 -138 -46 -242t-130 -160q-107 -74 -320 -77q-157 0 -287 37q-29 8 -40 23.5t-11 55.5z" />
<glyph unicode="T" horiz-adv-x="923" d="M94 1110q0 97 20 132.5t60 35.5h733q30 0 42 -14.5t12 -53.5q0 -100 -19 -135t-59 -35h-232l-102 -964q-4 -48 -33.5 -62t-109.5 -14q-73 0 -100 11t-27 46q0 13 4 49l98 934h-231q-30 0 -43 15t-13 55z" />
<glyph unicode="U" horiz-adv-x="1075" d="M78 293q0 37 6 108l86 801q4 48 33.5 62t109.5 14q73 0 100 -11t27 -46q0 -16 -4 -52l-82 -768q-6 -70 -6 -77q0 -62 33.5 -85.5t124.5 -23.5q104 0 140.5 31.5t45.5 122.5l88 833q4 48 34 62t110 14q73 0 100 -11t27 -46q0 -16 -4 -52l-82 -786q-23 -220 -132 -308.5 t-352 -88.5q-217 0 -310 69.5t-93 237.5z" />
<glyph unicode="V" horiz-adv-x="1079" d="M98 1202q0 30 8.5 45t37.5 23t89 8q90 0 119 -14.5t35 -63.5l109 -977h28l314 977q15 49 47 63.5t121 14.5q74 0 99 -11t25 -38q-5 -42 -24 -101l-365 -1017q-26 -72 -71.5 -91.5t-182.5 -19.5t-178 19.5t-51 91.5l-152 1011q-8 66 -8 80z" />
<glyph unicode="W" horiz-adv-x="1634" d="M109 1198q0 44 27 61t112 17q87 0 113.5 -14.5t27.5 -63.5l37 -950h23l262 926q14 52 52 67.5t132 15.5q89 0 125.5 -16t40.5 -67l74 -926h22l232 950q9 49 40.5 63.5t120.5 14.5q74 0 98.5 -11t24.5 -40q0 -19 -20 -101q-43 -165 -136 -502.5t-139 -510.5 q-18 -70 -67 -90.5t-170 -20.5q-117 0 -162.5 23t-52.5 94l-68 706h-20l-207 -706q-21 -69 -74 -93t-166 -24q-120 0 -165.5 20.5t-49.5 90.5l-65 1009q0 21 -1 46t-1 32z" />
<glyph unicode="X" horiz-adv-x="974" d="M-23 49q0 42 48 109l337 495l-208 457q-29 60 -29 96q0 40 28.5 56t114.5 16q83 0 109.5 -15t46.5 -63l113 -278h8l157 274q24 50 55 66t115 16q76 0 104 -12.5t28 -44.5q0 -33 -50 -107l-301 -440l230 -512q28 -69 28 -99q0 -32 -27.5 -47.5t-109.5 -15.5 q-84 0 -113 15.5t-47 62.5l-125 323h-10l-205 -323q-29 -47 -61 -62.5t-113 -15.5q-73 0 -98 11t-25 38z" />
<glyph unicode="Y" horiz-adv-x="978" d="M92 1206q0 41 26 56.5t111 15.5q88 0 116 -14t40 -64l121 -463h12l217 463q23 50 54 64t118 14q74 0 98.5 -11t24.5 -38q0 -35 -33 -99l-379 -671l-40 -383q-4 -48 -34 -62t-110 -14q-73 0 -100 11t-27 46q0 13 4 49l37 353l-239 671q-17 49 -17 76z" />
<glyph unicode="Z" horiz-adv-x="876" d="M-6 70q0 52 15.5 96.5t70.5 128.5l491 745h-376q-30 0 -43 15t-13 55q0 97 20 132.5t60 35.5h623q34 0 46.5 -15t12.5 -53q0 -105 -57 -190l-520 -782h424q30 0 42.5 -15t12.5 -55q0 -96 -20.5 -132t-59.5 -36h-670q-36 0 -47.5 14.5t-11.5 55.5z" />
<glyph unicode="[" horiz-adv-x="563" d="M53 -43q0 15 13 121l124 1214q4 43 26.5 61.5t66.5 18.5h301q27 0 38 -12.5t11 -48.5q0 -89 -17.5 -121.5t-54.5 -32.5h-119l-110 -1046h121q27 0 39 -13t12 -49q0 -88 -17.5 -120.5t-54.5 -32.5h-303q-39 0 -57.5 14t-18.5 47z" />
<glyph unicode="\" horiz-adv-x="546" d="M39 1329q0 55 119 55q65 0 88.5 -13.5t32.5 -65.5l229 -1237q18 -99 18 -127q0 -56 -118 -56q-66 0 -90 14t-33 64l-230 1239q-16 88 -16 127z" />
<glyph unicode="]" horiz-adv-x="563" d="M-39 -41q0 88 17.5 120t54.5 32h121l108 1046h-121q-27 0 -38 14t-11 50q0 89 17 120t55 31h301q41 0 58.5 -13.5t17.5 -47.5q0 -4 -2 -23t-4.5 -48.5t-4.5 -49.5l-127 -1215q-4 -42 -25.5 -60.5t-66.5 -18.5h-301q-27 0 -38 13.5t-11 49.5z" />
<glyph unicode="^" horiz-adv-x="976" d="M147 758q0 11 23 57l197 371q22 42 38.5 59t55 27t114.5 10q58 0 90.5 -4t52.5 -17t28 -28t18 -47l108 -357q4 -12 9.5 -30t8.5 -28.5t3 -16.5q0 -20 -22 -30.5t-87 -10.5q-61 0 -86.5 6t-35 18.5t-19.5 48.5l-80 273h-12l-143 -281q-19 -42 -46.5 -53.5t-113.5 -11.5 q-60 0 -80.5 11t-20.5 34z" />
<glyph unicode="_" horiz-adv-x="1017" d="M-37 -213q0 29 6.5 71.5t14.5 63.5q18 39 67 39h809q32 0 45 -12t13 -47q0 -29 -6.5 -71.5t-14.5 -63.5q-18 -39 -68 -39h-809q-32 0 -44.5 12t-12.5 47z" />
<glyph unicode="`" horiz-adv-x="507" d="M133 1405q0 30 29 42.5t110 12.5q43 0 68 -4t41.5 -17.5t23.5 -26.5t19 -44q65 -171 65 -203q0 -37 -28.5 -49t-83.5 -12q-54 0 -83.5 9t-40 21t-24.5 40l-55 114q-41 84 -41 117z" />
<glyph unicode="a" horiz-adv-x="1038" d="M66 231q0 172 32 387q18 121 49.5 202t78.5 126.5t104 64.5t135 19q202 0 252 -137l6 37q8 48 34.5 64t106.5 16q69 0 91 -11t22 -45q0 -23 -32 -327t-32 -359q0 -25 8.5 -108t8.5 -99q0 -32 -28 -46.5t-103 -14.5q-70 0 -91.5 15t-27.5 61l-16 108q-108 -204 -355 -204 q-119 0 -181 57.5t-62 193.5zM342 309q0 -60 25 -82t79 -22q95 0 150 78.5t68 199.5q22 194 22 232q0 46 -30.5 69t-102.5 23q-86 0 -126 -43t-58 -164q-27 -193 -27 -291z" />
<glyph unicode="b" horiz-adv-x="1044" d="M78 190q0 53 12 168l96 912q4 48 33.5 62t110.5 14q74 0 100.5 -11.5t26.5 -48.5q0 -27 -4 -59l-35 -322q104 125 311 125q62 0 106 -12t78 -40.5t51 -80.5t17 -129q0 -124 -31 -346q-18 -130 -55.5 -215t-104 -135.5t-156 -71t-222.5 -20.5q-178 0 -256 51t-78 159z M346 258q0 -33 26.5 -46t98.5 -13q103 0 145 46.5t62 186.5q24 159 24 260q0 69 -25 92t-87 23q-187 0 -217 -289l-19 -160q-8 -74 -8 -100z" />
<glyph unicode="c" horiz-adv-x="841" d="M66 301q0 143 19.5 282.5t53.5 229.5q25 67 64.5 111.5t93 66.5t107.5 30.5t124 8.5q146 0 234 -31q28 -8 39.5 -23.5t11.5 -51.5q0 -40 -5 -68t-11 -42t-16 -22t-16.5 -9t-14.5 -1t-86 10.5t-127 10.5q-73 0 -109 -23t-53 -82q-45 -151 -45 -360q0 -75 27.5 -103 t107.5 -28q61 0 154 20.5t96 20.5q43 0 43 -62q0 -74 -15.5 -109.5t-48.5 -49.5q-98 -45 -293 -45q-88 0 -146.5 13.5t-103 48.5t-65 98t-20.5 159z" />
<glyph unicode="d" horiz-adv-x="1042" d="M66 231q0 172 32 387q18 121 49.5 202t78.5 126.5t104 64.5t135 19q192 0 250 -127l35 367q4 48 31 62t106 14q73 0 98 -11t25 -47q0 -16 -9 -88l-69 -686q-19 -182 -19 -246q0 -25 8.5 -108t8.5 -99q0 -32 -28 -46.5t-103 -14.5q-70 0 -91.5 15t-27.5 61l-16 108 q-108 -204 -355 -204q-119 0 -181 57.5t-62 193.5zM342 309q0 -60 25 -82t79 -22q95 0 150 78.5t68 199.5q22 194 22 232q0 46 -30.5 69t-102.5 23q-86 0 -126 -43t-58 -164q-27 -193 -27 -291z" />
<glyph unicode="e" horiz-adv-x="931" d="M66 301q0 143 19.5 282.5t53.5 229.5q25 67 64 111t94.5 66.5t115 31t142.5 8.5q97 0 162 -15.5t100.5 -47.5t49.5 -72.5t14 -97.5q0 -276 -140 -348q-129 -66 -411 -66v-55q0 -72 29.5 -97.5t109.5 -25.5t183.5 23.5t107.5 23.5q45 0 45 -72q0 -50 -9 -79.5t-21.5 -41 t-35.5 -22.5q-47 -23 -131.5 -39t-175.5 -16q-100 0 -164.5 13.5t-112 48.5t-68.5 97.5t-21 159.5zM344 549q156 2 227 33q32 15 47 51.5t15 103.5q0 34 -20.5 52t-82.5 18q-68 0 -102.5 -24t-52.5 -89q-19 -61 -31 -145z" />
<glyph unicode="f" horiz-adv-x="643" d="M-162 -313q0 60 14.5 104.5t47.5 44.5q11 0 49 -4t65 -4q48 0 64.5 21t23.5 100l88 846h-86q-23 0 -32 10.5t-9 34.5q0 80 19 135q12 29 45 29h84q12 114 25 173t34 95q59 108 232 108q110 0 178 -20q31 -11 42 -27t11 -51q0 -131 -63 -131q-12 0 -51 5t-64 5 q-40 0 -55.5 -18t-22.5 -80l-6 -59h160q43 0 43 -46q0 -82 -21 -135q-10 -28 -45 -28h-149l-92 -893q-18 -164 -96 -234.5t-218 -70.5q-106 0 -170 18q-23 8 -34 24t-11 48z" />
<glyph unicode="g" horiz-adv-x="1028" d="M12 -299q0 57 14.5 103t49.5 46q3 0 93.5 -11t174.5 -11q82 0 131 11.5t79.5 46t44 83t22.5 135.5l2 15q-110 -139 -314 -139q-119 0 -181 57.5t-62 193.5q0 172 32 387q18 121 49.5 202t78.5 126.5t104 64.5t135 19q202 0 252 -137l6 37q8 48 34.5 64t106.5 16 q69 0 91 -11t22 -45q0 -32 -16 -182l-70 -672q-9 -92 -29.5 -165t-48 -125.5t-67 -90.5t-81 -61.5t-95.5 -37t-105.5 -18.5t-116.5 -5q-171 0 -289 32q-24 7 -35.5 22.5t-11.5 49.5zM342 309q0 -60 25 -82t79 -22q95 0 150 78.5t68 199.5q22 194 22 232q0 46 -30.5 69 t-102.5 23q-86 0 -126 -43t-58 -164q-27 -193 -27 -291z" />
<glyph unicode="h" horiz-adv-x="1050" d="M59 55q0 8 2.5 28t6.5 51.5t6 58.5l110 1077q4 48 34.5 62t113.5 14q72 0 97.5 -11t25.5 -45l-13 -137l-26 -256q91 133 309 133q129 0 187.5 -48t58.5 -146q0 -42 -29 -299t-29 -310q0 -39 7.5 -92t7.5 -57q0 -17 -2.5 -27t-13.5 -23.5t-39 -20.5t-72 -7q-66 0 -93 10.5 t-40 42.5q-10 23 -16.5 69t-6.5 75q0 56 23.5 275.5t23.5 250.5q0 40 -19 58t-71 18q-104 0 -157 -56t-64 -170l-51 -497q-4 -49 -33 -62.5t-115 -13.5q-72 0 -97.5 10.5t-25.5 44.5z" />
<glyph unicode="i" horiz-adv-x="483" d="M78 197q0 60 22 260l50 477q6 49 35 62.5t112 13.5q71 0 97 -11t26 -45q0 -23 -37 -354t-37 -373q0 -39 7 -92t7 -57q0 -17 -2.5 -27t-13.5 -23.5t-39 -20.5t-72 -7q-66 0 -93 10.5t-40 42.5q-10 23 -16 69t-6 75zM174 1194q0 81 27 117q17 21 48 28t97 7q71 0 98 -17.5 t27 -60.5q0 -77 -29 -115q-17 -21 -47.5 -28t-97.5 -7q-71 0 -97 16.5t-26 59.5z" />
<glyph unicode="j" horiz-adv-x="473" d="M-215 -311q0 58 13.5 102.5t45.5 44.5q11 0 50 -4t71 -4q34 0 49 10.5t23 38.5q7 30 16 119l97 938q4 49 33.5 62.5t113.5 13.5q72 0 98.5 -11t26.5 -45q0 -15 -27 -260l-84 -792q-18 -164 -95 -234.5t-214 -70.5q-100 0 -172 20q-24 8 -34.5 23.5t-10.5 48.5zM174 1194 q0 81 27 117q17 21 48 28t97 7q71 0 98 -17.5t27 -60.5q0 -77 -29 -115q-17 -21 -47.5 -28t-97.5 -7q-71 0 -97 16.5t-26 59.5z" />
<glyph unicode="k" horiz-adv-x="946" d="M59 55q0 8 2.5 28t6.5 51.5t6 58.5l110 1077q4 48 34.5 62t113.5 14q72 0 97.5 -11t25.5 -45q0 -9 -2 -27.5t-5.5 -51t-5.5 -58.5l-57 -543h33q56 60 124.5 159t104.5 167q18 33 30 45.5t42 20.5t90 8q79 0 104 -15.5t25 -44.5q0 -64 -100 -195t-203 -229 q66 -141 221 -372q46 -62 50 -79q1 -5 1 -9q0 -66 -143 -66q-56 0 -85 7t-48 23.5t-45 55.5q-43 64 -97.5 166.5t-87.5 189.5h-34l-37 -366q-4 -49 -33 -62.5t-115 -13.5q-72 0 -97.5 10.5t-25.5 44.5z" />
<glyph unicode="l" horiz-adv-x="483" d="M78 197q0 60 22 260l84 813q4 48 34.5 62t113.5 14q71 0 97 -11t26 -45q0 -9 -2 -27.5t-5.5 -51t-5.5 -58.5l-69 -639q-5 -49 -12.5 -114.5t-11 -102.5t-3.5 -70q0 -39 7 -92t7 -57q0 -17 -2.5 -27t-13.5 -23.5t-39 -20.5t-72 -7q-66 0 -93 10.5t-40 42.5q-10 23 -16 69 t-6 75z" />
<glyph unicode="m" horiz-adv-x="1560" d="M66 53q0 12 14 152q53 501 53 549q0 19 -7 93.5t-7 84.5q0 40 28 58t103 18q78 0 101 -12.5t28 -55.5l10 -96q89 186 309 186q113 0 169 -38.5t71 -125.5q97 164 299 164q128 0 187 -48.5t59 -145.5q0 -42 -30 -299t-30 -310q0 -39 7.5 -92t7.5 -57q0 -17 -2.5 -27 t-13.5 -23.5t-39 -20.5t-72 -7q-66 0 -93 10.5t-40 42.5q-10 23 -16.5 69t-6.5 75q0 56 24.5 275.5t24.5 250.5q0 40 -19 58t-71 18q-91 0 -134.5 -58t-55.5 -180l-52 -487q-4 -49 -33.5 -62.5t-113.5 -13.5q-72 0 -97.5 10.5t-25.5 44.5q0 19 6 72q62 554 62 598 q0 41 -18 58.5t-70 17.5q-91 0 -137 -59t-58 -179l-51 -487q-6 -49 -35 -62.5t-113 -13.5q-72 0 -97 10.5t-25 44.5z" />
<glyph unicode="n" horiz-adv-x="1052" d="M66 55q0 14 12 125q55 527 55 576q0 19 -7 94t-7 86q0 40 28 57t103 17q78 0 101.5 -12t27.5 -56l10 -96q44 91 126 137.5t214 46.5q128 0 187 -48.5t59 -145.5q0 -42 -30 -299t-30 -310q0 -39 7.5 -92t7.5 -57q0 -17 -2.5 -27t-13.5 -23.5t-39 -20.5t-72 -7 q-66 0 -93 10.5t-40 42.5q-10 23 -16.5 69t-6.5 75q0 56 24.5 275.5t24.5 250.5q0 40 -19 58t-71 18q-105 0 -155.5 -59t-63.5 -177l-51 -487q-6 -49 -35 -62.5t-113 -13.5q-72 0 -97 10.5t-25 44.5z" />
<glyph unicode="o" horiz-adv-x="987" d="M66 301q0 98 19.5 249t59.5 257q50 125 145 174t255 49q102 0 169.5 -14t116 -49.5t70 -97.5t21.5 -158q0 -97 -20 -248.5t-60 -257.5q-50 -125 -145 -174t-255 -49q-102 0 -169 14t-115.5 49.5t-70 97.5t-21.5 158zM332 342q0 -81 25.5 -107t99.5 -26q68 0 101 22.5 t52 79.5q21 66 33 173.5t12 185.5q0 81 -25.5 107t-99.5 26q-68 0 -101 -23t-52 -80q-21 -66 -33 -173t-12 -185z" />
<glyph unicode="p" horiz-adv-x="1040" d="M29 -313q0 24 8 94l78 754q18 166 18 221q0 25 -5 94.5t-5 85.5q0 40 27.5 57t101.5 17q78 0 104 -22t29 -91l2 -51q54 103 136.5 143.5t203.5 40.5q142 0 199 -62t57 -216q0 -127 -31 -330q-16 -106 -43.5 -184.5t-62.5 -127.5t-82.5 -78.5t-96 -40.5t-110.5 -11 q-149 0 -221 90l-37 -369q-6 -54 -34 -69t-109 -15q-66 0 -96.5 14.5t-30.5 55.5zM354 283q0 -44 28.5 -64t100.5 -20q97 0 138 47t61 186q25 189 25 260q0 69 -25.5 92t-87.5 23q-183 0 -217 -289q-23 -212 -23 -235z" />
<glyph unicode="q" horiz-adv-x="1028" d="M66 231q0 172 32 387q18 121 49.5 202t78.5 126.5t104 64.5t135 19q202 0 252 -137l6 37q8 48 34.5 64t106.5 16q69 0 91 -11t22 -45q0 -24 -12 -135l-115 -1118q-6 -53 -34.5 -68.5t-108.5 -15.5q-66 0 -97.5 15t-31.5 55q0 7 10 94l35 340q-109 -141 -314 -141 q-119 0 -181 57.5t-62 193.5zM342 309q0 -60 25 -82t79 -22q95 0 150 78.5t68 199.5q22 194 22 232q0 46 -30.5 69t-102.5 23q-86 0 -126 -43t-58 -164q-27 -193 -27 -291z" />
<glyph unicode="r" horiz-adv-x="755" d="M66 55q0 13 10 111l45 440q12 126 12 148q0 19 -7 93.5t-7 84.5q0 40 28 58t103 18q78 0 101 -12.5t28 -55.5l8 -88q100 172 281 172q65 0 88 -23q12 -14 12 -55q0 -38 -8 -80t-19 -59q-15 -27 -43 -27q-3 0 -34 3t-56 3q-104 0 -159.5 -74t-73.5 -253l-39 -383 q-6 -49 -35 -62.5t-113 -13.5q-72 0 -97 10.5t-25 44.5z" />
<glyph unicode="s" horiz-adv-x="839" d="M25 88q0 150 59 150q5 0 92 -14.5t160 -14.5q86 0 121 25.5t35 80.5q0 27 -13 43t-47 29l-170 72q-93 39 -133.5 89.5t-40.5 133.5q0 78 28 156t74 118q86 74 273 74q172 0 270 -31q26 -6 37.5 -22t11.5 -53q0 -40 -4.5 -68t-11 -42t-16 -22t-15.5 -9t-14 -1 q-13 0 -110 13.5t-150 13.5q-44 0 -64 -14q-13 -9 -21.5 -30.5t-8.5 -43.5q0 -46 55 -66l164 -67q102 -41 142 -96t40 -134q0 -212 -119 -303q-101 -75 -307 -75q-158 0 -266 32q-30 9 -40.5 25.5t-10.5 50.5z" />
<glyph unicode="t" horiz-adv-x="694" d="M70 840q0 85 20 135q9 29 45 29h86l17 143q4 49 29 62.5t106 13.5q73 0 99 -12t26 -50q0 -16 -15 -157h156q23 0 32 -11t9 -35q0 -82 -18 -135q-12 -28 -46 -28h-147l-47 -451q-6 -53 -6 -88q0 -24 11.5 -31.5t45.5 -7.5q21 0 54.5 5t41.5 5q49 0 49 -73 q0 -70 -16.5 -98.5t-52.5 -43.5q-72 -32 -199 -32q-109 0 -161 42t-52 142q0 36 8 104l56 527h-88q-43 0 -43 45z" />
<glyph unicode="u" horiz-adv-x="1040" d="M78 168q0 27 4 62.5t13.5 107.5t15.5 127q30 252 30 307q0 30 -7 91t-7 71q0 42 27.5 59t103.5 17q72 0 95 -13.5t34 -58.5q21 -94 21 -156q0 -42 -27 -253.5t-27 -247.5q0 -44 22 -60t75 -16q101 0 149 69.5t62 210.5l47 449q4 49 33 62.5t114 13.5q71 0 97 -11t26 -45 q0 -27 -33 -331.5t-33 -354.5q0 -25 9.5 -108t9.5 -99q0 -32 -28 -46.5t-103 -14.5q-70 0 -90.5 14.5t-28.5 61.5l-16 108q-95 -204 -349 -204q-239 0 -239 188z" />
<glyph unicode="v" horiz-adv-x="929" d="M66 928q0 54 32 68t117 14t110 -14t31 -66q10 -69 32 -339t32 -368h20q39 109 117 386.5t92 320.5q15 52 43.5 66t114.5 14q78 0 106.5 -12t28.5 -50q0 -42 -61 -205q-12 -33 -56 -152.5t-71 -191t-64.5 -164.5t-64.5 -145q-25 -50 -72.5 -70t-169.5 -20q-114 0 -154 22 t-49 91l-102 706q-12 82 -12 109z" />
<glyph unicode="w" horiz-adv-x="1482" d="M84 918q0 50 29.5 71t113.5 21q89 0 114.5 -15.5t25.5 -74.5q4 -73 11.5 -351t14.5 -346h25l198 688q13 47 48.5 62.5t121.5 15.5q85 0 117 -17.5t35 -64.5q3 -36 23.5 -343.5t23.5 -340.5h23q23 70 58 208.5t72.5 297.5t49.5 205q12 50 42.5 63t121.5 13q69 0 97 -11.5 t28 -48.5q0 -28 -70 -270q-116 -387 -197 -582q-18 -40 -39 -59t-66.5 -29t-131.5 -10q-72 0 -107 11.5t-48.5 34.5t-18.5 73l-54 471h-16q-90 -299 -160 -492q-21 -57 -66.5 -77.5t-168.5 -20.5q-107 0 -147 19t-44 77l-53 656q-6 68 -6 166z" />
<glyph unicode="x" horiz-adv-x="915" d="M-23 61q0 34 41 93l256 368l-143 322q-27 63 -27 98q0 43 31.5 55.5t110.5 12.5q80 0 108 -14t41 -66l88 -232h9l139 242q26 46 51.5 58t97.5 12q83 0 111.5 -10.5t28.5 -49.5q0 -35 -39 -92l-246 -346l178 -352q27 -53 27 -92t-38 -53.5t-104 -14.5q-76 0 -104 14 t-49 66l-111 264h-8l-158 -274q-21 -45 -50 -57.5t-101 -12.5q-32 0 -54 2t-43.5 8t-32 18.5t-10.5 32.5z" />
<glyph unicode="y" horiz-adv-x="950" d="M-33 -305q0 54 16 99.5t50 45.5q8 0 67.5 -6t94.5 -6q82 0 118 27t60 100q1 5 6.5 20.5t7.5 24.5q-108 0 -147 24.5t-50 96.5l-100 684q-14 96 -14 123q0 51 33 67q30 15 116 15q83 0 107.5 -12.5t29.5 -55.5q1 -12 13.5 -151.5t29 -305t29.5 -262.5h23q152 495 211 719 q12 43 41.5 55.5t115.5 12.5q74 0 100.5 -12.5t26.5 -45.5q0 -24 -45 -184q-222 -784 -358 -1004q-52 -86 -138.5 -126.5t-217.5 -40.5q-111 0 -179 22q-47 16 -47 76z" />
<glyph unicode="z" horiz-adv-x="813" d="M2 61q0 77 21 129q8 25 55 82q275 336 389 510h-291q-57 0 -57 49q0 77 18 136q13 37 58 37h548q28 0 39 -11.5t11 -38.5q0 -102 -35 -159q-160 -253 -420 -564h330q55 0 55 -49q0 -85 -18 -135q-7 -21 -20.5 -29t-37.5 -8h-598q-27 0 -37 12t-10 39z" />
<glyph unicode="{" horiz-adv-x="647" d="M49 586q0 51 17 104q9 26 23 36.5t42 10.5q38 0 55.5 22.5t22.5 65.5l29 301q13 126 71.5 192t179.5 66q99 0 191 -20q22 -6 30.5 -20.5t8.5 -43.5q0 -18 -2.5 -39.5t-8 -47t-18.5 -42t-31 -16.5q-16 0 -57.5 2t-60.5 2q-23 0 -32.5 -18t-12.5 -56q-9 -82 -25 -262 q-8 -71 -40.5 -118t-84.5 -62l-2 -10q86 -27 86 -141q0 -38 -17.5 -168.5t-17.5 -171.5t31 -41q23 0 64 1t55 1q39 0 39 -60q0 -135 -58 -149q-89 -21 -198 -21q-105 0 -153 52.5t-48 152.5q0 51 20.5 193.5t20.5 189.5q0 66 -62 66q-57 0 -57 49z" />
<glyph unicode="|" horiz-adv-x="395" d="M-2 -336q0 10 6 64l168 1595q4 38 27.5 49.5t87.5 11.5q58 0 79 -8.5t21 -38.5q0 -27 -4 -63l-168 -1593q-4 -39 -28 -51.5t-87 -12.5q-59 0 -80.5 9t-21.5 38z" />
<glyph unicode="}" horiz-adv-x="647" d="M-49 -33q0 18 2.5 40t8.5 47t18.5 42t29.5 17q16 0 58 -1t61 -1q23 0 32.5 17t12.5 54q2 17 12 120t15 142q15 148 125 183l2 8q-45 14 -66.5 47.5t-21.5 93.5q0 40 17 169.5t17 170.5q0 43 -30 43q-23 0 -64 -2t-55 -2q-39 0 -39 59q0 137 59 150q81 20 197 20 q105 0 153 -52t48 -152q0 -50 -20.5 -192t-20.5 -191q0 -66 63 -66q56 0 56 -49q0 -51 -17 -104q-9 -27 -22.5 -37.5t-42.5 -10.5q-68 0 -78 -88l-29 -301q-13 -126 -71.5 -192t-178.5 -66q-110 0 -192 21q-39 9 -39 63z" />
<glyph unicode="~" d="M150 510q0 34 10.5 74.5t34.5 66.5q25 26 71.5 42t100.5 16q52 0 139 -22.5t133 -22.5q45 0 92.5 18t54.5 18q19 0 28 -12t9 -45q0 -32 -11.5 -73.5t-33.5 -67.5q-58 -58 -174 -58q-51 0 -137.5 22.5t-132.5 22.5q-45 0 -93.5 -18t-56.5 -18q-17 0 -25.5 12t-8.5 45z" />
<glyph unicode="&#xa2;" d="M115 520q0 107 19 214t56 177q41 79 110 117.5t167 48.5l14 140q4 38 27.5 49.5t89.5 11.5q58 0 79 -8.5t21 -38.5q0 -22 -8 -84l-8 -70q113 -14 156 -30q26 -10 35.5 -23t9.5 -47q0 -73 -16.5 -108t-41.5 -35q-3 0 -88 13t-143 13q-73 0 -113 -16t-61 -60 q-37 -78 -37 -227q0 -76 36.5 -102.5t137.5 -26.5q56 0 108.5 8t85 15.5t40.5 7.5q34 0 34 -64q0 -81 -15.5 -110t-49.5 -39q-89 -29 -170 -37l-17 -148q-4 -39 -27.5 -50t-88.5 -11q-59 0 -80 9t-21 38q0 10 9 80l10 84q-130 18 -195 87.5t-65 221.5z" />
<glyph unicode="&#xa3;" d="M84 51q0 45 18.5 96.5t41 93.5t45 104.5t28.5 123.5l8 82h-90q-23 0 -32 8.5t-9 32.5q0 58 15 92q12 31 49 31h84l22 213q10 93 33 159.5t52.5 105t73.5 60.5t87 28.5t104 6.5q139 0 283 -35q23 -6 31 -18t8 -43q0 -56 -14 -109t-45 -53q-18 0 -81.5 9.5t-109.5 9.5 q-88 0 -120 -26.5t-42 -119.5l-18 -188h135q22 0 30.5 -8.5t8.5 -32.5q0 -67 -12 -94q-15 -29 -50 -29h-129l-2 -19q-10 -90 -35.5 -173t-52.5 -121h424q29 0 41.5 -15t12.5 -55q0 -97 -20 -132.5t-60 -35.5h-639q-40 0 -57 10.5t-17 40.5z" />
<glyph unicode="&#xa5;" d="M115 1212q0 37 34.5 51.5t102.5 14.5q59 0 87 -7t38.5 -21.5t19.5 -49.5l113 -418h10l199 418q24 51 52 64.5t114 13.5q74 0 99.5 -11t25.5 -38q0 -41 -47 -117l-295 -489h116q22 0 30.5 -8.5t8.5 -32.5q0 -69 -12 -99q-14 -30 -51 -30h-146l-10 -91h154q22 0 30.5 -9 t8.5 -34q0 -67 -13 -96q-16 -33 -51 -33h-145l-13 -114q-6 -48 -35 -62t-108 -14q-74 0 -101.5 11t-27.5 46q0 13 4 49l8 84h-149q-22 0 -31.5 9.5t-9.5 33.5q0 65 14 97q12 32 49 32h146l10 91h-151q-23 0 -32 9t-9 34q0 64 14 96q11 31 51 31h109l-185 485q-26 72 -26 104 z" />
<glyph unicode="&#xa8;" horiz-adv-x="751" d="M133 1194q0 79 29 117q17 21 44.5 28t92.5 7q69 0 91 -16.5t22 -61.5q0 -82 -29 -115q-14 -22 -41.5 -28.5t-93.5 -6.5q-69 0 -92 16.5t-23 59.5zM489 1194q0 79 29 117q17 21 44 28t91 7q71 0 93 -16.5t22 -61.5q0 -79 -29 -115q-17 -22 -43 -28.5t-92 -6.5 q-69 0 -92 16.5t-23 59.5z" />
<glyph unicode="&#xa9;" horiz-adv-x="1851" d="M76 645q0 103 5 185t17.5 165t34.5 147t56 125.5t81 106t111.5 83t146 61.5t185 36t227.5 13q125 0 228.5 -13t185 -36t146 -61.5t112 -83t81.5 -106t56 -125.5t34.5 -147t17.5 -165t5 -185t-5 -185t-17.5 -165t-34.5 -147t-56 -125.5t-81.5 -106t-112 -82.5t-146 -61 t-185 -36t-228.5 -13q-159 0 -284.5 21.5t-216 59t-155.5 100t-105 133.5t-63 171.5t-31.5 201t-8.5 234.5zM291 651q0 -105 5 -184.5t17.5 -154.5t34.5 -128.5t57 -101t83 -78t114 -53t149 -32t189 -9.5q85 0 155 6t128.5 20t105 33.5t83 49t64 63t47.5 80t32.5 95.5 t20 113.5t10.5 130.5t3 150q0 103 -5 180.5t-17.5 151.5t-34.5 126.5t-56.5 99.5t-82.5 77t-114 52.5t-149.5 32t-189.5 9.5t-189 -9.5t-149 -32t-114 -52.5t-83 -77t-57 -99.5t-34.5 -126.5t-17.5 -151.5t-5 -180.5zM541 641q0 100 9.5 178.5t26.5 134.5t46 95.5t61 63.5 t78 38t91.5 18.5t107.5 4.5q141 0 266 -37q31 -9 43 -32t12 -81q0 -109 -45 -109q-6 0 -95.5 14.5t-142.5 14.5q-40 0 -64 -2.5t-48.5 -12t-36.5 -27t-23 -49t-14.5 -76.5t-3.5 -111q0 -74 2.5 -120.5t11 -84t20 -56.5t35.5 -31.5t52 -16t74 -3.5q77 0 155 15.5t80 15.5 q22 0 32.5 -25t10.5 -84q0 -58 -12 -80.5t-43 -31.5q-115 -41 -254 -41q-74 0 -127 7t-105.5 26t-86.5 55t-61 92.5t-39.5 140.5t-12.5 197z" />
<glyph unicode="&#xab;" horiz-adv-x="1255" d="M49 453q0 36 9 92t20 82q14 29 34 46t58 38l383 221q36 16 51 16q41 0 41 -57q0 -71 -15.5 -120t-68.5 -83l-246 -166l-2 -16l211 -172q29 -24 39 -42t10 -54q0 -156 -59 -156q-23 0 -49 16l-336 219q-44 29 -62 55t-18 81zM639 453q0 36 9 92t20 82q23 44 88 84l387 241 q34 17 51 17q41 0 41 -58q0 -69 -16 -117t-66 -85l-248 -187l-2 -16l207 -193q21 -19 28.5 -28t14 -26t6.5 -42q0 -156 -59 -156q-28 0 -60 23l-321 233q-46 33 -63 58t-17 78z" />
<glyph unicode="&#xad;" horiz-adv-x="657" d="M45 461q0 31 6 73.5t15 61.5q21 43 69 43h426q32 0 44.5 -12.5t12.5 -46.5q0 -31 -6 -74t-14 -62q-19 -41 -70 -41h-426q-31 0 -44 12.5t-13 45.5z" />
<glyph unicode="&#xae;" horiz-adv-x="1851" d="M76 645q0 103 5 185t17.5 165t34.5 147t56 125.5t81 106t111.5 83t146 61.5t185 36t227.5 13q125 0 228.5 -13t185 -36t146 -61.5t112 -83t81.5 -106t56 -125.5t34.5 -147t17.5 -165t5 -185t-5 -185t-17.5 -165t-34.5 -147t-56 -125.5t-81.5 -106t-112 -82.5t-146 -61 t-185 -36t-228.5 -13q-159 0 -284.5 21.5t-216 59t-155.5 100t-105 133.5t-63 171.5t-31.5 201t-8.5 234.5zM291 651q0 -105 5 -184.5t17.5 -154.5t34.5 -128.5t57 -101t83 -78t114 -53t149 -32t189 -9.5q85 0 155 6t128.5 20t105 33.5t83 49t64 63t47.5 80t32.5 95.5 t20 113.5t10.5 130.5t3 150q0 103 -5 180.5t-17.5 151.5t-34.5 126.5t-56.5 99.5t-82.5 77t-114 52.5t-149.5 32t-189.5 9.5t-189 -9.5t-149 -32t-114 -52.5t-83 -77t-57 -99.5t-34.5 -126.5t-17.5 -151.5t-5 -180.5zM555 219v854q0 46 16.5 63.5t57.5 22.5q165 19 344 19 q110 0 178.5 -14t117 -52t68 -105.5t19.5 -175.5q0 -113 -35 -179t-111 -99l148 -289q26 -53 26 -74q0 -26 -24.5 -36.5t-95.5 -10.5q-68 0 -96 5t-42.5 19t-27.5 50l-111 297h-162v-295q0 -48 -27 -62t-108 -14t-108 14t-27 62zM825 696h109q98 0 127 27t29 117 q0 73 -25 94.5t-113 21.5q-74 0 -127 -6v-254z" />
<glyph unicode="&#xb4;" horiz-adv-x="481" d="M154 1149q0 8 4.5 21.5t9 24t13.5 30.5t12 28l51 115q15 32 23.5 45.5t29 26.5t51 16.5t84.5 3.5q70 0 95.5 -11.5t25.5 -35.5q0 -31 -47 -104l-84 -135q-24 -39 -56 -54.5t-110 -15.5q-59 0 -80.5 10.5t-21.5 34.5z" />
<glyph unicode="&#xb8;" horiz-adv-x="497" d="M-61 -395q0 27 4 53t19 50t38 24q10 0 46.5 -4t62.5 -4q17 0 24.5 1t13.5 7t7 18q0 16 -48 41q-35 18 -48 36t-13 54q0 31 4 62l12 100h189l-6 -53q-4 -32 -4 -43q0 -19 24 -33q67 -37 92 -68t25 -86q0 -230 -258 -233q-69 0 -137 14q-26 7 -36.5 19t-10.5 45z" />
<glyph unicode="&#xbb;" horiz-adv-x="1255" d="M39 117q0 69 16 117.5t66 87.5l246 186l2 16l-205 193q-29 24 -39 41.5t-10 52.5q0 158 59 158q21 0 59 -25l320 -231q34 -24 47.5 -37.5t23 -37t9.5 -60.5q0 -39 -8 -95t-19 -82q-12 -24 -32.5 -42t-55.5 -40l-387 -241q-31 -17 -51 -17q-41 0 -41 56zM627 137 q0 70 16 119.5t68 85.5l245 166l2 16l-210 172q-28 25 -38 42.5t-10 52.5q0 157 60 157q19 0 47 -16l336 -219q46 -30 63 -55t17 -80q0 -40 -8 -95.5t-21 -81.5q-12 -28 -33 -46t-57 -38l-385 -219q-26 -16 -51 -16q-41 0 -41 55z" />
<glyph unicode="&#x2c6;" horiz-adv-x="669" d="M106 1141q0 22 50 88l129 174q24 33 48.5 45t74.5 12h65q43 0 65 -13t40 -44l96 -176q33 -64 33 -80q0 -27 -19 -35t-76 -8q-55 0 -75.5 10.5t-44.5 48.5l-64 107h-12l-84 -107q-31 -40 -54 -49.5t-81 -9.5q-53 0 -72 7.5t-19 29.5z" />
<glyph unicode="&#x2da;" horiz-adv-x="671" d="M150 1303q0 134 72 201t222 67q129 0 189.5 -45t60.5 -146q0 -133 -72.5 -199.5t-224.5 -66.5q-127 0 -187 45t-60 144zM336 1325q0 -26 16 -34.5t62 -8.5q58 0 76 16.5t18 63.5q0 25 -16.5 34t-63.5 9q-56 0 -74 -17t-18 -63z" />
<glyph unicode="&#x2dc;" horiz-adv-x="737" d="M147 1188q0 71 15 109.5t51 58.5q66 37 143 37q54 0 127.5 -19.5t110.5 -19.5q43 0 89 14t54 14q15 0 22 -8t7 -33q0 -72 -15.5 -110.5t-50.5 -59.5q-61 -34 -145 -34q-53 0 -126.5 18.5t-109.5 18.5q-44 0 -91 -14.5t-54 -14.5q-14 0 -20.5 9t-6.5 34z" />
<glyph unicode="&#x401;" horiz-adv-x="927" d="M53 49q0 3 1 12.5t2.5 23t2.5 21.5l115 1102q4 43 23 56.5t65 13.5h619q29 0 41 -14.5t12 -53.5q0 -100 -19 -135t-59 -35h-428l-29 -256h299q32 0 44 -12t12 -47q0 -104 -18 -139t-62 -35h-297l-33 -313h447q30 0 42.5 -15t12.5 -55q0 -96 -20.5 -132t-59.5 -36h-639 q-41 0 -57.5 10t-16.5 39zM262 1458q0 79 29 117q17 21 44.5 28t92.5 7q69 0 91 -16.5t22 -61.5q0 -82 -29 -115q-14 -22 -41.5 -28.5t-93.5 -6.5q-69 0 -92 16.5t-23 59.5zM618 1458q0 79 29 117q17 21 44 28t91 7q71 0 93 -16.5t22 -61.5q0 -79 -29 -115 q-17 -22 -43 -28.5t-92 -6.5q-69 0 -92 16.5t-23 59.5z" />
<glyph unicode="&#x402;" horiz-adv-x="1157" d="M35 1110q0 96 20.5 132t59.5 36h721q30 0 41.5 -14.5t11.5 -53.5q0 -100 -19 -135t-59 -35h-225l-27 -247q96 135 291 135q128 0 187 -49t59 -146q0 -11 -13 -158l-30 -290q-9 -89 -34 -151t-63 -94.5t-80 -46t-96 -13.5q-81 0 -143 20q-24 6 -34.5 22t-10.5 50 q0 58 13.5 102.5t45.5 44.5q8 0 34 -3t42 -3q35 0 45 15.5t16 74.5q29 288 29 318q0 40 -19 57.5t-71 17.5q-177 0 -201 -227l-41 -393q-4 -48 -34.5 -62t-110.5 -14q-73 0 -100 11t-27 46q0 13 4 49l98 934h-225q-29 0 -42 15t-13 55z" />
<glyph unicode="&#x403;" horiz-adv-x="847" d="M53 57q0 3 1 12.5t2.5 24.5l2.5 25l115 1089q4 43 22 56.5t64 13.5h569q30 0 43 -14.5t13 -53.5q0 -100 -19 -135t-61 -35h-379l-100 -964q-4 -47 -34.5 -61.5t-109.5 -14.5q-74 0 -101.5 11t-27.5 46zM399 1413q0 8 4.5 22t8.5 24t13.5 31t12.5 28l51 114q15 32 24 45.5 t29 26.5t51 16.5t85 3.5q70 0 95.5 -11.5t25.5 -35.5q0 -31 -47 -104l-84 -135q-24 -39 -56 -54.5t-110 -15.5q-59 0 -81 10.5t-22 34.5z" />
<glyph unicode="&#x404;" horiz-adv-x="933" d="M61 350q0 70 31 365q9 87 25 159.5t35 127.5t45 98t52 73t60 51.5t64.5 33.5t70.5 19t72.5 9t75.5 2q166 0 305 -39q21 -7 30 -19t9 -46q0 -81 -15.5 -122.5t-37.5 -41.5q-5 0 -91 14.5t-161 14.5q-68 0 -107 -8t-74 -37t-54.5 -85t-33.5 -151h324q33 0 45 -12t12 -47 q0 -95 -18 -128.5t-61 -33.5h-326q-8 -72 -8 -144q0 -48 9.5 -80.5t25 -52t45.5 -29.5t60 -13t79 -3q83 0 163 14.5t91 14.5q15 0 21.5 -11t6.5 -38q0 -97 -16 -134t-47 -46q-124 -39 -313 -39q-72 0 -126 8t-106.5 31t-86.5 62.5t-54.5 105.5t-20.5 157z" />
<glyph unicode="&#x405;" horiz-adv-x="917" d="M8 102q0 64 18 109t48 45q9 0 94 -15.5t164 -15.5q73 0 117.5 7t72.5 30q25 20 40.5 62t15.5 86q0 39 -17.5 64t-64.5 46l-213 92q-84 36 -126 95.5t-42 164.5q0 78 20.5 154.5t54.5 126.5q93 135 336 135q189 0 320 -41q22 -5 30.5 -17.5t8.5 -47.5q0 -164 -60 -164 q-1 0 -87 15.5t-171 15.5q-70 0 -109.5 -10t-58.5 -40q-22 -31 -22 -92q0 -35 17.5 -54.5t60.5 -39.5l211 -94q93 -40 134.5 -96.5t41.5 -157.5q0 -138 -46 -242t-130 -160q-107 -74 -320 -77q-157 0 -287 37q-29 8 -40 23.5t-11 55.5z" />
<glyph unicode="&#x406;" horiz-adv-x="468" d="M53 57q0 13 4 49l115 1096q4 48 33.5 62t109.5 14q73 0 100 -11t27 -46q0 -16 -4 -52l-112 -1093q-4 -47 -34.5 -61.5t-109.5 -14.5q-74 0 -101.5 11t-27.5 46z" />
<glyph unicode="&#x407;" horiz-adv-x="468" d="M25 1458q0 80 28 117q17 21 44.5 28t92.5 7q69 0 91 -16.5t22 -61.5q0 -82 -29 -115q-14 -22 -41.5 -28.5t-93.5 -6.5q-69 0 -91.5 16.5t-22.5 59.5zM53 57q0 13 4 49l115 1096q4 48 33.5 62t109.5 14q73 0 100 -11t27 -46q0 -16 -4 -52l-112 -1093q-4 -47 -34.5 -61.5 t-109.5 -14.5q-74 0 -101.5 11t-27.5 46zM381 1458q0 79 29 117q17 21 44 28t91 7q71 0 92.5 -16.5t21.5 -61.5q0 -80 -28 -115q-17 -22 -43 -28.5t-92 -6.5q-69 0 -92 16.5t-23 59.5z" />
<glyph unicode="&#x408;" horiz-adv-x="753" d="M4 90q0 65 8.5 99.5t19 42.5t27.5 8q15 0 71 -7.5t97 -7.5q76 0 105.5 27t38.5 110l90 840q4 48 33.5 62t109.5 14q73 0 100 -11t27 -46q0 -19 -6 -72l-84 -780q-23 -209 -108 -296t-257 -87q-124 0 -223 30q-27 8 -38 23t-11 51z" />
<glyph unicode="&#x409;" horiz-adv-x="1660" d="M-20 76q0 48 4.5 79t14 44.5t18 17.5t20.5 4q11 0 30 -3t33 -3q32 0 46.5 14.5t25.5 67.5l195 915q8 39 25.5 52.5t62.5 13.5h589q39 0 55.5 -10t16.5 -39q0 -21 -6 -82l-39 -369q120 15 258 15q164 0 230.5 -67t66.5 -222q0 -366 -170 -459q-107 -59 -340 -59 q-165 0 -325 16q-38 3 -52 14.5t-14 38.5q0 6 4 60l98 925h-243l-189 -874q-22 -96 -74 -138t-149 -42q-72 0 -141 14q-28 6 -39.5 22t-11.5 54zM1010 205q58 -6 143 -6q113 0 147 39q48 53 48 223q0 73 -32 96t-120 23q-15 0 -36.5 -1t-54 -2t-56.5 -2z" />
<glyph unicode="&#x40a;" horiz-adv-x="1624" d="M53 57q0 13 4 49l115 1096q4 48 33.5 62t109.5 14q73 0 100 -11t27 -46q0 -16 -4 -52l-43 -409h350l46 442q4 48 33.5 62t109.5 14q73 0 100 -11t27 -46q0 -16 -4 -52l-41 -391q154 15 262 15q164 0 229.5 -67t65.5 -222q0 -366 -170 -459q-107 -59 -340 -59 q-170 0 -324 16q-38 4 -50.5 19t-12.5 45q0 31 10 129l35 342h-348l-47 -461q-4 -47 -34.5 -61.5t-109.5 -14.5q-74 0 -101.5 11t-27.5 46zM956 205q58 -6 144 -6q113 0 147 39q47 52 47 223q0 73 -31.5 96t-119.5 23q-15 0 -37 -1t-54.5 -2t-56.5 -2z" />
<glyph unicode="&#x40b;" horiz-adv-x="1167" d="M35 1110q0 96 20.5 132t59.5 36h721q30 0 41.5 -14.5t11.5 -53.5q0 -100 -19 -135t-59 -35h-225l-25 -243q89 131 283 131q128 0 187 -49t59 -146q0 -41 -23 -247t-23 -259q0 -39 7.5 -92t7.5 -57q0 -17 -2.5 -27t-13.5 -23.5t-39.5 -20.5t-73.5 -7q-66 0 -93 10.5 t-40 42.5q-9 24 -16 71t-7 73q0 57 18.5 226t18.5 198q0 40 -20 57.5t-72 17.5q-89 0 -135 -56t-58 -171l-41 -393q-4 -48 -34.5 -62t-110.5 -14q-73 0 -100 11t-27 46q0 13 4 49l98 934h-225q-29 0 -42 15t-13 55z" />
<glyph unicode="&#x40c;" horiz-adv-x="997" d="M53 57q0 13 4 49l115 1096q4 48 33.5 62t109.5 14q73 0 100 -11t27 -46q0 -16 -4 -52l-45 -438h33l311 481q27 42 58 54t118 12q74 0 98.5 -10t24.5 -37q0 -26 -35 -82l-352 -504l271 -516q18 -41 18 -63q0 -23 -10.5 -36t-45.5 -21.5t-100 -8.5q-68 0 -95 12t-46 51 l-231 496h-35l-49 -483q-4 -47 -34.5 -61.5t-109.5 -14.5q-74 0 -101.5 11t-27.5 46zM465 1413q0 8 4.5 22t8.5 24t13.5 31t12.5 28l51 114q15 32 23.5 45.5t29 26.5t51 16.5t84.5 3.5q70 0 95.5 -11.5t25.5 -35.5q0 -31 -47 -104l-84 -135q-24 -39 -56 -54.5t-110 -15.5 q-59 0 -80.5 10.5t-21.5 34.5z" />
<glyph unicode="&#x40e;" horiz-adv-x="1007" d="M31 82q0 147 57 147q15 0 68.5 -5t93.5 -5q83 0 122.5 23t69.5 98l2 8h-26q-68 0 -95 22t-40 76l-162 648q-21 82 -21 112q0 17 4 27.5t16.5 22t42.5 17t77 5.5q81 0 103 -13t30 -57l127 -641h28l244 633q19 50 47.5 64t112.5 14q72 0 99.5 -13.5t27.5 -37.5 q0 -27 -43 -127l-385 -887q-51 -117 -135.5 -170t-216.5 -53q-107 0 -183 18q-33 8 -49 25t-16 49zM332 1559q0 37 4 77q6 35 27 46.5t81 11.5q48 0 63 -10t15 -37v-29q0 -28 15 -38.5t67 -10.5q55 0 69.5 12.5t22.5 54.5q8 37 26 47.5t75 10.5q50 0 68 -10t18 -42 q0 -142 -66 -208q-33 -33 -86 -47.5t-149 -14.5q-137 0 -193.5 42.5t-56.5 144.5z" />
<glyph unicode="&#x40f;" horiz-adv-x="1087" d="M53 49q0 19 6 62l117 1091q4 48 33.5 62t109.5 14q73 0 100 -11t27 -46q0 -16 -4 -52l-98 -931h342l102 964q4 48 34 62t110 14q73 0 100 -11t27 -46q0 -16 -4 -52l-117 -1099q-4 -43 -22 -56.5t-64 -13.5h-262l-23 -141q-8 -48 -23.5 -60t-74.5 -12q-47 0 -62.5 9.5 t-15.5 49.5v154h-264q-41 0 -57.5 10t-16.5 39z" />
<glyph unicode="&#x410;" horiz-adv-x="1105" d="M-16 49q0 30 22 94l367 1010q29 82 76 103.5t188 21.5q140 0 184 -22t56 -103l149 -999q8 -49 8 -78q0 -45 -24 -60.5t-111 -15.5q-88 0 -112.5 13.5t-32.5 66.5l-37 246h-365l-84 -248q-17 -50 -45.5 -64t-116.5 -14q-72 0 -97 11t-25 38zM422 530h274l-67 523h-29z" />
<glyph unicode="&#x411;" horiz-adv-x="1036" d="M53 55q0 3 1 12t2.5 23t2.5 25l117 1093q4 43 22 56.5t64 13.5h639q30 0 42.5 -14.5t12.5 -53.5q0 -100 -19 -135t-60 -35h-451l-29 -276q157 14 279 14q174 0 238.5 -64t64.5 -216q0 -59 -6.5 -116t-21.5 -121.5t-47 -119t-77 -86.5q-55 -38 -140.5 -53.5t-223.5 -15.5 q-182 0 -342 16q-40 4 -54 15.5t-14 37.5zM338 205q82 -8 162 -8q115 0 151 41q49 56 49 213q0 72 -29 94t-120 22q-74 0 -176 -6z" />
<glyph unicode="&#x412;" horiz-adv-x="1048" d="M55 55q0 6 4 60l113 1071q4 48 21.5 64.5t62.5 21.5q131 16 299 16q95 0 159 -5t121 -21t89 -44t50.5 -74.5t18.5 -113.5q0 -148 -47 -239.5t-153 -122.5q93 -19 135.5 -76t42.5 -166q0 -128 -24 -210t-84.5 -134.5t-155.5 -74t-244 -21.5q-183 0 -340 16q-40 4 -54 15.5 t-14 37.5zM338 199q62 -9 162 -9q119 0 158.5 51.5t39.5 209.5q0 65 -30.5 90.5t-116.5 25.5h-174zM397 754h129q63 0 97.5 9.5t52.5 37.5q35 53 35 176q0 51 -29.5 69.5t-112.5 18.5q-89 0 -141 -6z" />
<glyph unicode="&#x413;" horiz-adv-x="847" d="M53 57q0 3 1 12.5t2.5 24.5l2.5 25l115 1089q4 43 22 56.5t64 13.5h569q30 0 43 -14.5t13 -53.5q0 -100 -19 -135t-61 -35h-379l-100 -964q-4 -47 -34.5 -61.5t-109.5 -14.5q-74 0 -101.5 11t-27.5 46z" />
<glyph unicode="&#x414;" horiz-adv-x="1153" d="M-45 -158.5q0 2.5 0.5 7.5t1.5 12.5t2.5 20.5t3 29t4 41t5.5 53.5t7 69t9 85.5q6 49 27 63.5t79 14.5h33l213 974q9 39 26 52.5t62 13.5h600q41 0 57.5 -10t16.5 -39q0 -19 -6 -62l-101 -929h35q51 0 70.5 -10.5t19.5 -43.5q0 -13 -6 -73l-27 -254q-4 -44 -25.5 -57 t-82.5 -13q-63 0 -84 13t-27 57l-18 143h-623l-51 -143q-15 -44 -38.5 -57t-86.5 -13q-56 0 -76 9.5t-20 41.5v3.5zM385 238h342l84 802h-254z" />
<glyph unicode="&#x415;" horiz-adv-x="927" d="M53 49q0 3 1 12.5t2.5 23t2.5 21.5l115 1102q4 43 23 56.5t65 13.5h619q29 0 41 -14.5t12 -53.5q0 -100 -19 -135t-59 -35h-428l-29 -256h299q32 0 44 -12t12 -47q0 -104 -18 -139t-62 -35h-297l-33 -313h447q30 0 42.5 -15t12.5 -55q0 -96 -20.5 -132t-59.5 -36h-639 q-41 0 -57.5 10t-16.5 39z" />
<glyph unicode="&#x416;" horiz-adv-x="1482" d="M-20 53q0 22 9.5 43.5t47.5 75.5l340 473l-250 508q-18 37 -18 66q0 31 26.5 45t104.5 14q90 0 117 -11.5t46 -54.5l213 -485h29l49 475q4 48 34 62t110 14q73 0 100 -11t27 -46q0 -16 -4 -52l-46 -442h33l297 485q25 42 57 54t123 12q125 0 125 -47q0 -34 -34 -82 l-347 -506l248 -475q35 -66 35 -102q0 -31 -30.5 -48.5t-121.5 -17.5q-71 0 -98.5 12t-46.5 51l-225 490h-33l-49 -477q-4 -47 -34 -61.5t-109 -14.5q-74 0 -102 11t-28 46q0 4 5 49l47 447h-29l-315 -490q-26 -39 -57 -51t-103 -12q-143 0 -143 53z" />
<glyph unicode="&#x417;" horiz-adv-x="942" d="M16 88q0 156 58 156q10 0 118 -12.5t185 -12.5q118 0 160.5 53t42.5 160q0 45 -14.5 69t-60 37t-134.5 13h-123q-34 0 -47 13.5t-13 47.5q0 83 17.5 115.5t64.5 32.5h121q120 0 169.5 45.5t49.5 155.5q0 54 -27 74t-94 20q-75 0 -181.5 -11.5t-112.5 -11.5 q-16 0 -24.5 13t-8.5 47q0 147 59 161q137 35 361 35q74 0 126.5 -10.5t96 -38t65 -79t21.5 -128.5q0 -150 -64 -250.5t-198 -122.5q115 -6 169 -64t54 -171q0 -232 -116 -335t-330 -103q-232 0 -338 32q-30 8 -41 21t-11 49z" />
<glyph unicode="&#x418;" horiz-adv-x="1140" d="M55 51q0 11 13 135l106 1016q4 48 33.5 62t109.5 14q73 0 100 -11t27 -46q0 -16 -4 -52l-69 -671h16l428 706q29 49 60 61.5t104 12.5q75 0 104 -10t29 -41q0 -21 -12 -135l-109 -1016q-4 -48 -33.5 -62t-109.5 -14q-73 0 -100 11t-27 46q0 13 4 49l72 672h-19l-436 -706 q-29 -48 -60 -60t-106 -12q-73 0 -97 9.5t-24 41.5z" />
<glyph unicode="&#x419;" horiz-adv-x="1140" d="M55 51q0 11 13 135l106 1016q4 48 33.5 62t109.5 14q73 0 100 -11t27 -46q0 -16 -4 -52l-69 -671h16l428 706q29 49 60 61.5t104 12.5q75 0 104 -10t29 -41q0 -21 -12 -135l-109 -1016q-4 -48 -33.5 -62t-109.5 -14q-73 0 -100 11t-27 46q0 13 4 49l72 672h-19l-436 -706 q-29 -48 -60 -60t-106 -12q-73 0 -97 9.5t-24 41.5zM408 1559q0 37 4 77q6 35 27 46.5t81 11.5q48 0 63 -10t15 -37v-29q0 -28 15 -38.5t67 -10.5q55 0 69.5 12.5t22.5 54.5q8 37 25.5 47.5t74.5 10.5q50 0 68 -10t18 -42q0 -143 -65 -208q-33 -33 -86.5 -47.5t-149.5 -14.5 q-137 0 -193 42.5t-56 144.5z" />
<glyph unicode="&#x41a;" horiz-adv-x="997" d="M53 57q0 13 4 49l115 1096q4 48 33.5 62t109.5 14q73 0 100 -11t27 -46q0 -16 -4 -52l-45 -438h33l311 481q27 42 58 54t118 12q74 0 98.5 -10t24.5 -37q0 -26 -35 -82l-352 -504l271 -516q18 -41 18 -63q0 -23 -10.5 -36t-45.5 -21.5t-100 -8.5q-68 0 -95 12t-46 51 l-231 496h-35l-49 -483q-4 -47 -34.5 -61.5t-109.5 -14.5q-74 0 -101.5 11t-27.5 46z" />
<glyph unicode="&#x41b;" horiz-adv-x="1157" d="M-20 76q0 48 4.5 79t14 44.5t18 17.5t20.5 4q11 0 30 -3t33 -3q32 0 46.5 14.5t25.5 67.5l195 915q8 39 25.5 52.5t62.5 13.5h600q39 0 55 -10t16 -39q0 -13 -6 -72l-114 -1081q-4 -48 -34 -62t-110 -14q-73 0 -100 11t-27 46q0 13 4 49l99 934h-254l-189 -874 q-22 -96 -74 -138t-149 -42q-72 0 -141 14q-28 6 -39.5 22t-11.5 54z" />
<glyph unicode="&#x41c;" horiz-adv-x="1355" d="M53 57q0 13 4 49l113 1078q6 54 35.5 74t111.5 20q53 0 80.5 -2t55.5 -8.5t42 -21.5t26.5 -39t23.5 -64l141 -527h10l258 531q43 88 87 109.5t149 21.5q78 0 107.5 -16t29.5 -56q0 -27 -4 -59l-111 -1071q-4 -48 -34.5 -62t-110.5 -14q-73 0 -100 11t-27 46q0 13 4 49 l78 738h-12l-205 -432q-32 -57 -57 -73.5t-89 -16.5q-65 0 -86 16t-41 74l-116 432h-10l-80 -768q-4 -47 -34.5 -61.5t-109.5 -14.5q-74 0 -101.5 11t-27.5 46z" />
<glyph unicode="&#x41d;" horiz-adv-x="1097" d="M53 57q0 13 4 49l115 1096q4 48 33.5 62t109.5 14q73 0 100 -11t27 -46q0 -16 -4 -52l-43 -409h357l47 442q4 48 33.5 62t109.5 14q73 0 100 -11t27 -46q0 -16 -4 -52l-115 -1093q-4 -48 -33.5 -62t-109.5 -14q-73 0 -100 11t-27 46q0 13 4 49l45 431h-356l-47 -461 q-4 -47 -34.5 -61.5t-109.5 -14.5q-74 0 -101.5 11t-27.5 46z" />
<glyph unicode="&#x41e;" horiz-adv-x="1073" d="M63 371q0 91 23.5 307t56.5 326q22 74 53.5 125.5t69 82.5t94 48t114.5 22.5t144 5.5q73 0 124.5 -5t102.5 -19t83.5 -40.5t58.5 -68.5t37.5 -104.5t11.5 -147.5q0 -91 -23.5 -307t-56.5 -326q-22 -74 -53.5 -125.5t-69 -82.5t-94 -48t-114.5 -22.5t-144 -5.5 q-73 0 -124.5 5t-102.5 19t-83.5 40.5t-58.5 68.5t-37.5 104.5t-11.5 147.5zM336 389q0 -56 8.5 -90t30 -52t50.5 -24t79 -6q94 0 137.5 26t65.5 109q21 80 39 251.5t18 281.5q0 108 -35.5 140t-134.5 32q-92 0 -135.5 -26t-65.5 -109q-21 -80 -39 -251.5t-18 -281.5z" />
<glyph unicode="&#x41f;" horiz-adv-x="1087" d="M53 57q0 13 4 49l119 1102q4 43 22 56.5t64 13.5h723q39 0 55.5 -10t16.5 -39q0 -13 -6 -72l-113 -1081q-4 -47 -34 -61.5t-109 -14.5q-74 0 -101.5 11t-27.5 46q0 13 4 49l100 934h-344l-100 -964q-4 -47 -34.5 -61.5t-109.5 -14.5q-74 0 -101.5 11t-27.5 46z" />
<glyph unicode="&#x420;" horiz-adv-x="1024" d="M53 57q0 13 4 49l113 1076q4 48 22.5 65.5t61.5 22.5q150 18 377 18q96 0 160 -13t114 -47.5t73 -98.5t23 -162q0 -157 -34.5 -263.5t-106.5 -167.5t-168.5 -86.5t-234.5 -25.5h-97l-34 -348q-4 -47 -34.5 -61.5t-109.5 -14.5q-74 0 -101.5 11t-27.5 46zM383 643h119 q65 0 109 21t67.5 62t33 91.5t9.5 120.5q0 74 -35 100.5t-121 26.5q-87 0 -137 -6z" />
<glyph unicode="&#x421;" horiz-adv-x="931" d="M61 350q0 70 31 365q9 87 25 159.5t35 127.5t45 98t52 73t60 51.5t64.5 33.5t70.5 19t72.5 9t75.5 2q166 0 305 -39q21 -7 30 -19t9 -46q0 -81 -15.5 -122.5t-37.5 -41.5q-5 0 -91 14.5t-161 14.5q-58 0 -93 -6t-67.5 -25.5t-51.5 -58.5t-33.5 -101.5t-25.5 -159.5 q-22 -225 -22 -295q0 -60 11.5 -96t40.5 -54t63.5 -23t95.5 -5q83 0 163 14.5t91 14.5q15 0 21.5 -11t6.5 -38q0 -67 -9 -106.5t-21.5 -53t-32.5 -20.5q-134 -39 -313 -39q-72 0 -126 8t-106.5 31t-86.5 62.5t-54.5 105.5t-20.5 157z" />
<glyph unicode="&#x422;" horiz-adv-x="923" d="M94 1110q0 97 20 132.5t60 35.5h733q30 0 42 -14.5t12 -53.5q0 -100 -19 -135t-59 -35h-232l-102 -964q-4 -48 -33.5 -62t-109.5 -14q-73 0 -100 11t-27 46q0 13 4 49l98 934h-231q-30 0 -43 15t-13 55z" />
<glyph unicode="&#x423;" horiz-adv-x="1007" d="M31 82q0 147 57 147q15 0 68.5 -5t93.5 -5q83 0 122.5 23t69.5 98l2 8h-26q-68 0 -95 22t-40 76l-162 648q-21 82 -21 112q0 17 4 27.5t16.5 22t42.5 17t77 5.5q81 0 103 -13t30 -57l127 -641h28l244 633q19 50 47.5 64t112.5 14q72 0 99.5 -13.5t27.5 -37.5 q0 -27 -43 -127l-385 -887q-51 -117 -135.5 -170t-216.5 -53q-107 0 -183 18q-33 8 -49 25t-16 49z" />
<glyph unicode="&#x424;" horiz-adv-x="1361" d="M57 537q0 92 11 175.5t49.5 174.5t101.5 137q109 82 350 82h31l12 108q4 48 34 62t110 14q74 0 100.5 -10.5t26.5 -46.5q0 -13 -4 -49l-9 -78h35q82 0 140 -7t113.5 -28.5t89 -58.5t53.5 -98.5t20 -147.5q0 -92 -11 -175.5t-49.5 -174.5t-101.5 -137q-109 -82 -350 -82 h-33l-14 -136q-4 -47 -33.5 -61t-110.5 -14q-73 0 -99.5 11t-26.5 46q0 13 4 49l10 105h-33q-82 0 -140 7t-113.5 28t-89 58t-53.5 98.5t-20 148.5zM322 557q0 -89 35.5 -115t138.5 -26h32l50 471h-31q-62 0 -101.5 -11.5t-64.5 -41.5q-31 -38 -45 -121.5t-14 -155.5z M799 416h32q62 0 101.5 11.5t64.5 41.5q31 38 45.5 121.5t14.5 154.5q0 88 -36.5 115t-139.5 27h-33z" />
<glyph unicode="&#x425;" horiz-adv-x="974" d="M-23 49q0 42 48 109l337 495l-208 457q-29 60 -29 96q0 40 28.5 56t114.5 16q83 0 109.5 -15t46.5 -63l113 -278h8l157 274q24 50 55 66t115 16q76 0 104 -12.5t28 -44.5q0 -33 -50 -107l-301 -440l230 -512q28 -69 28 -99q0 -32 -27.5 -47.5t-109.5 -15.5 q-84 0 -113 15.5t-47 62.5l-125 323h-10l-205 -323q-29 -47 -61 -62.5t-113 -15.5q-73 0 -98 11t-25 38z" />
<glyph unicode="&#x426;" horiz-adv-x="1138" d="M53 49q0 17 4 45l117 1108q4 48 33.5 62t109.5 14q73 0 100 -11t27 -46q0 -16 -4 -52l-98 -931h344l100 964q4 48 34 62t110 14q73 0 100 -11t27 -46q0 -16 -4 -52l-99 -931h52q49 0 68.5 -10.5t19.5 -43.5q0 -3 -7 -73l-26 -254q-4 -44 -27.5 -57t-85.5 -13 q-66 0 -87 13t-27 57l-19 143h-688q-41 0 -57.5 10t-16.5 39z" />
<glyph unicode="&#x427;" horiz-adv-x="1009" d="M76 709q0 67 12 182l33 311q4 48 33.5 62t109.5 14q73 0 100 -11t27 -46q0 -16 -4 -52l-29 -264q-10 -85 -10 -127q0 -54 27.5 -75t109.5 -21q69 0 168 6l56 514q6 48 35.5 62t109.5 14q73 0 100 -11t27 -46q0 -16 -4 -52l-117 -1093q-4 -48 -33.5 -62t-109.5 -14 q-73 0 -100 11t-27 46q0 13 4 49l37 367q-117 -18 -246 -18q-170 0 -239.5 55.5t-69.5 198.5z" />
<glyph unicode="&#x428;" horiz-adv-x="1650" d="M53 49q0 21 4 49l117 1104q4 48 33.5 62t109.5 14q73 0 100 -11t27 -46q0 -24 -34 -351l-68 -632h320l100 964q4 48 34.5 62t110.5 14q73 0 100 -11t27 -46q0 -16 -4 -52l-98 -931h317l103 964q4 48 33.5 62t109.5 14q73 0 100 -11t27 -46q0 -16 -4 -52l-117 -1099 q-4 -43 -22 -56.5t-64 -13.5h-1288q-41 0 -57.5 10t-16.5 39z" />
<glyph unicode="&#x429;" horiz-adv-x="1703" d="M53 49q0 21 4 49l117 1104q4 48 33.5 62t109.5 14q73 0 100 -11t27 -46q0 -16 -4 -52l-98 -931h320l100 964q4 48 34.5 62t110.5 14q73 0 100 -11t27 -46q0 -16 -4 -52l-98 -931h317l103 964q4 48 33.5 62t109.5 14q73 0 100 -11t27 -46q0 -16 -4 -52l-98 -931h51 q50 0 70 -10.5t20 -43.5q0 -13 -6 -73l-29 -254q-4 -44 -27.5 -57t-85.5 -13q-66 0 -87 13t-27 57l-19 143h-1253q-41 0 -57.5 10t-16.5 39z" />
<glyph unicode="&#x42a;" horiz-adv-x="1091" d="M66 1108q0 99 18.5 134.5t58.5 35.5h303q41 0 57.5 -10t16.5 -39q0 -19 -6 -62l-41 -389q161 15 272 15q164 0 229.5 -67t65.5 -222q0 -339 -155 -451q-94 -67 -355 -67q-173 0 -333 16q-39 3 -53.5 14.5t-14.5 38.5q0 3 1 12t2.5 23t2.5 25l96 925h-112q-29 0 -41 14.5 t-12 53.5zM414 205q61 -6 153 -6q102 0 140 30q55 43 55 232q0 73 -31.5 96t-120.5 23q-15 0 -38.5 -1t-58 -2t-60.5 -2z" />
<glyph unicode="&#x42b;" horiz-adv-x="1486" d="M53 55q0 3 1 12t2.5 23t2.5 25l115 1087q4 48 33.5 62t109.5 14q73 0 100 -11t27 -46q0 -16 -4 -52l-43 -391q161 15 273 15q164 0 229.5 -67t65.5 -222q0 -338 -156 -451q-94 -67 -354 -67q-174 0 -334 16q-39 3 -53.5 14.5t-14.5 38.5zM338 205q61 -6 156 -6 q99 0 137 30q55 43 55 232q0 73 -31 96t-118 23q-41 0 -160 -7zM1071 57q0 13 4 49l115 1096q4 48 33.5 62t109.5 14q73 0 100 -11t27 -46q0 -16 -4 -52l-113 -1093q-4 -47 -34 -61.5t-109 -14.5q-74 0 -101.5 11t-27.5 46z" />
<glyph unicode="&#x42c;" horiz-adv-x="1015" d="M53 55q0 3 1 12t2.5 23t2.5 25l115 1087q4 48 33.5 62t109.5 14q73 0 100 -11t27 -46q0 -16 -4 -52l-43 -391q161 15 273 15q164 0 229.5 -67t65.5 -222q0 -338 -156 -451q-94 -67 -354 -67q-174 0 -334 16q-39 3 -53.5 14.5t-14.5 38.5zM338 205q61 -6 156 -6 q99 0 137 30q55 43 55 232q0 73 -31 96t-118 23q-41 0 -160 -7z" />
<glyph unicode="&#x42d;" horiz-adv-x="940" d="M31 90q0 81 15.5 122.5t37.5 41.5q5 0 90.5 -14.5t159.5 -14.5q57 0 92 5.5t68 23.5t52.5 53.5t35 93.5t26.5 146h-377q-31 0 -43 12t-12 47q0 95 18.5 128.5t61.5 33.5h375q4 90 4 102q0 48 -9 80.5t-24 52t-43 30t-58.5 13.5t-78.5 3q-85 0 -167 -14.5t-91 -14.5 q-15 0 -22 11t-7 38q0 97 16.5 134t47.5 46q124 39 317 39q72 0 125.5 -8t105.5 -31t85 -62.5t53 -105.5t20 -157q0 -70 -31 -365q-10 -98 -28 -177.5t-43 -136.5t-52.5 -100.5t-63.5 -71.5t-69.5 -46t-78 -26.5t-80.5 -11.5t-84 -3q-166 0 -305 39q-21 7 -30 19t-9 46z" />
<glyph unicode="&#x42e;" horiz-adv-x="1560" d="M53 57q0 13 4 49l115 1096q4 48 33.5 62t109.5 14q73 0 100 -11t27 -46q0 -16 -4 -52l-41 -387h187q20 140 43 222q22 74 53.5 125.5t69 82.5t94 48t114.5 22.5t144 5.5q73 0 124.5 -5t102.5 -19t83.5 -40.5t58.5 -68.5t37.5 -104.5t11.5 -147.5q0 -91 -23.5 -307 t-56.5 -326q-22 -74 -53.5 -125.5t-69 -82.5t-94 -48t-114.5 -22.5t-144 -5.5q-73 0 -124.5 5t-102.5 19t-83.5 40.5t-58.5 68.5t-37.5 104.5t-11.5 147.5q0 76 10 176h-184l-47 -471q-4 -47 -34.5 -61.5t-109.5 -14.5q-74 0 -101.5 11t-27.5 46zM819 389q0 -56 8.5 -90 t30 -52t50.5 -24t79 -6q94 0 137.5 26t65.5 109q21 80 39 251.5t18 281.5q0 108 -35.5 140t-134.5 32q-92 0 -135 -26t-65 -109q-21 -80 -39.5 -251.5t-18.5 -281.5z" />
<glyph unicode="&#x42f;" horiz-adv-x="1024" d="M-14 45q0 23 37 88l233 410q-154 72 -154 274q0 77 19 176t63 160q55 77 147 106t232 29q179 0 363 -18q39 -5 54 -16t15 -37q0 -18 -8 -91l-110 -1050q-4 -48 -34 -62t-110 -14q-73 0 -100 11t-27 46q0 13 4 49l41 388h-84q-57 0 -84 2l-204 -422q-17 -36 -34.5 -50 t-48.5 -19t-104 -5q-61 0 -83.5 12t-22.5 33zM379 819q0 -74 43 -104.5t151 -30.5h99l39 373q-66 8 -133 8q-112 0 -152 -43q-23 -26 -35 -86t-12 -117z" />
<glyph unicode="&#x430;" horiz-adv-x="1038" d="M66 231q0 172 32 387q18 121 49.5 202t78.5 126.5t104 64.5t135 19q202 0 252 -137l6 37q8 48 34.5 64t106.5 16q69 0 91 -11t22 -45q0 -23 -32 -327t-32 -359q0 -25 8.5 -108t8.5 -99q0 -32 -28 -46.5t-103 -14.5q-70 0 -91.5 15t-27.5 61l-16 108q-108 -204 -355 -204 q-119 0 -181 57.5t-62 193.5zM342 309q0 -60 25 -82t79 -22q95 0 150 78.5t68 199.5q22 194 22 232q0 46 -30.5 69t-102.5 23q-86 0 -126 -43t-58 -164q-27 -193 -27 -291z" />
<glyph unicode="&#x431;" horiz-adv-x="1069" d="M76 322q0 76 10 174l39 374q16 152 51.5 250t100.5 155t150 79t214 22q172 0 328 -26q22 -5 31.5 -20.5t9.5 -51.5q0 -141 -58 -141q-16 0 -112.5 8t-163.5 8q-83 0 -125.5 -6t-75 -32t-45.5 -70t-22 -127l-2 -21q80 133 303 133q75 0 122 -12.5t83 -47.5t51.5 -100.5 t15.5 -169.5q0 -95 -14 -221q-21 -188 -78 -297t-156.5 -155.5t-259.5 -46.5q-107 0 -178.5 16t-122 54.5t-73.5 105t-23 166.5zM346 354q0 -89 32.5 -119t117.5 -30q71 0 106 19.5t56 77t34 179.5q15 141 15 185q0 88 -31 114.5t-111 26.5q-70 0 -108 -23.5t-63 -91 t-38 -200.5q-10 -85 -10 -138z" />
<glyph unicode="&#x432;" horiz-adv-x="995" d="M49 59q0 19 12 117l78 746q4 48 21.5 64.5t62.5 21.5q131 16 340 16q84 0 138.5 -4t103.5 -16t75.5 -34.5t42 -59t15.5 -89.5q0 -154 -61.5 -223t-184.5 -82q113 -10 165 -50.5t52 -141.5q0 -63 -10 -112t-28 -85t-49 -61t-66.5 -40.5t-87.5 -24.5t-105.5 -12t-126.5 -3 q-177 0 -317 20q-41 5 -55.5 14.5t-14.5 38.5zM336 225q50 -6 145 -6q102 0 137 26t35 103q0 51 -37 69.5t-137 18.5h-121zM375 596h121q95 0 133.5 26.5t38.5 100.5q0 43 -26 55.5t-101 12.5q-81 0 -146 -7z" />
<glyph unicode="&#x433;" horiz-adv-x="862" d="M41 209q0 109 45.5 183.5t151.5 137.5l235 140q39 24 53.5 44t14.5 48q0 25 -26 34t-95 9q-66 0 -146 -10.5t-86 -10.5q-41 0 -41 72q0 82 18 111.5t54 36.5q117 26 285 26q62 0 105.5 -4.5t84.5 -18t66 -36.5t40 -62t15 -94q0 -112 -48 -179.5t-146 -127.5l-238 -150 q-38 -25 -54 -46t-16 -52q0 -33 33 -41t133 -8q74 0 160.5 10t97.5 10q33 0 33 -65q0 -79 -17.5 -112.5t-52.5 -43.5q-123 -30 -301 -30q-67 0 -115.5 4.5t-97 18.5t-78.5 38.5t-48.5 66.5t-18.5 101z" />
<glyph unicode="&#x434;" horiz-adv-x="1026" d="M66 332q0 85 8 166q18 165 44.5 266t73.5 161.5t109.5 82.5t161.5 22q115 0 174.5 -36.5t83.5 -112.5l4 28q8 71 8 125q0 75 -31 97t-124 22q-59 0 -138.5 -5t-97.5 -5q-39 0 -39 59q0 140 64 150q127 24 295 24q91 0 152 -15.5t106 -54t65.5 -106t20.5 -168.5 q0 -60 -11 -176l-41 -377q-16 -148 -52 -245t-100 -153.5t-146.5 -78.5t-204.5 -22q-104 0 -171 14t-118 52t-73.5 107.5t-22.5 178.5zM338 350q0 -91 29.5 -118t107.5 -27q56 0 88.5 10t59 43t41 92.5t24.5 161.5q8 65 8 123q0 100 -33 136t-112 36q-56 0 -86.5 -8.5 t-55 -40t-37 -86.5t-22.5 -154q-12 -105 -12 -168z" />
<glyph unicode="&#x435;" horiz-adv-x="931" d="M66 301q0 143 19.5 282.5t53.5 229.5q25 67 64 111t94.5 66.5t115 31t142.5 8.5q97 0 162 -15.5t100.5 -47.5t49.5 -72.5t14 -97.5q0 -276 -140 -348q-129 -66 -411 -66v-55q0 -72 29.5 -97.5t109.5 -25.5t183.5 23.5t107.5 23.5q45 0 45 -72q0 -50 -9 -79.5t-21.5 -41 t-35.5 -22.5q-47 -23 -131.5 -39t-175.5 -16q-100 0 -164.5 13.5t-112 48.5t-68.5 97.5t-21 159.5zM344 549q156 2 227 33q32 15 47 51.5t15 103.5q0 34 -20.5 52t-82.5 18q-68 0 -102.5 -24t-52.5 -89q-19 -61 -31 -145z" />
<glyph unicode="&#x436;" horiz-adv-x="1372" d="M-23 61q0 62 111.5 216t210.5 251q-74 150 -207 328q-4 6 -11 14.5t-10 13t-8 11.5l-7.5 10.5t-6 9t-5 8.5t-3 7t-2 7.5t-0.5 6.5q0 66 143 66q45 0 72 -3.5t47.5 -18t31 -27.5t32.5 -46q90 -138 167 -305h23l35 324q4 49 33.5 62.5t113.5 13.5q71 0 97 -11t26 -45 q0 -9 -12 -135l-23 -209h29q53 59 121.5 158t107.5 168q19 34 31.5 46t42.5 20t90 8q78 0 102.5 -15t24.5 -45q0 -62 -100.5 -192.5t-204.5 -231.5q36 -78 101 -185.5t120 -186.5q49 -67 49 -88q0 -66 -143 -66q-56 0 -85 7t-48 23.5t-45 55.5q-42 65 -95.5 167.5 t-86.5 188.5h-29l-37 -366q-4 -49 -33.5 -62.5t-113.5 -13.5q-72 0 -97.5 10.5t-25.5 44.5q0 6 12 138l27 249h-23q-51 -58 -126.5 -173.5t-119.5 -194.5q-19 -34 -31.5 -46t-42.5 -20t-90 -8q-79 0 -104 15.5t-25 45.5z" />
<glyph unicode="&#x437;" horiz-adv-x="886" d="M6 84q0 158 57 158q10 0 97.5 -11.5t167.5 -11.5q120 0 156 23t36 100q0 46 -37 63t-139 17h-78q-35 0 -48 13t-13 46q0 69 17 99t65 30h73q99 0 137 24.5t38 96.5q0 37 -25.5 48.5t-101.5 11.5q-79 0 -161 -9.5t-87 -9.5q-39 0 -39 57q0 80 14.5 118.5t48.5 47.5 q108 29 316 29q62 0 107 -4.5t87 -17t68 -34.5t41.5 -58.5t15.5 -86.5q0 -89 -17 -148t-52.5 -91.5t-76 -46.5t-100.5 -21q117 -11 167.5 -48.5t50.5 -137.5q0 -89 -20.5 -152.5t-54 -100.5t-90 -57.5t-114 -27t-141.5 -6.5q-171 0 -314 30q-29 5 -40 18t-11 50z" />
<glyph unicode="&#x438;" horiz-adv-x="1040" d="M78 168q0 27 4 62.5t13.5 107.5t15.5 127q30 252 30 307q0 30 -7 91t-7 71q0 42 27.5 59t103.5 17q72 0 95 -13.5t34 -58.5q21 -94 21 -156q0 -42 -27 -253.5t-27 -247.5q0 -44 22 -60t75 -16q101 0 149 69.5t62 210.5l47 449q4 49 33 62.5t114 13.5q71 0 97 -11t26 -45 q0 -27 -33 -331.5t-33 -354.5q0 -25 9.5 -108t9.5 -99q0 -32 -28 -46.5t-103 -14.5q-70 0 -90.5 14.5t-28.5 61.5l-16 108q-95 -204 -349 -204q-239 0 -239 188z" />
<glyph unicode="&#x439;" horiz-adv-x="1040" d="M78 168q0 27 4 62.5t13.5 107.5t15.5 127q30 252 30 307q0 30 -7 91t-7 71q0 42 27.5 59t103.5 17q72 0 95 -13.5t34 -58.5q21 -94 21 -156q0 -42 -27 -253.5t-27 -247.5q0 -44 22 -60t75 -16q101 0 149 69.5t62 210.5l47 449q4 49 33 62.5t114 13.5q71 0 97 -11t26 -45 q0 -27 -33 -331.5t-33 -354.5q0 -25 9.5 -108t9.5 -99q0 -32 -28 -46.5t-103 -14.5q-70 0 -90.5 14.5t-28.5 61.5l-16 108q-95 -204 -349 -204q-239 0 -239 188zM295 1303q0 37 4 77q6 35 27.5 46.5t81.5 11.5q48 0 62.5 -10t14.5 -37v-29q0 -28 14.5 -38.5t67.5 -10.5 q55 0 69.5 12.5t22.5 54.5q8 37 26 47.5t75 10.5q50 0 68 -10t18 -42q0 -142 -66 -208q-33 -33 -86 -47.5t-149 -14.5q-137 0 -193.5 42.5t-56.5 144.5z" />
<glyph unicode="&#x43a;" horiz-adv-x="950" d="M66 55q0 28 33.5 342.5t33.5 358.5q0 19 -7 94t-7 86q0 40 28 57t103 17t101.5 -14t35.5 -58q19 -107 19 -162q0 -41 -15 -172h33q49 59 125.5 174.5t97.5 157.5q16 33 26.5 45t42 20.5t93.5 8.5q79 0 104 -15.5t25 -44.5q0 -65 -100.5 -201.5t-198.5 -228.5 q59 -124 227 -366q49 -67 49 -88q0 -66 -143 -66q-56 0 -85 7t-48 23.5t-45 55.5q-133 203 -188 350h-35l-35 -360q-4 -49 -34 -62.5t-114 -13.5q-72 0 -97 10.5t-25 44.5z" />
<glyph unicode="&#x43b;" horiz-adv-x="960" d="M-8 61q0 11 8 30.5t25.5 57t29.5 68.5q147 358 236 666q17 57 39 82.5t70.5 37t146.5 11.5q135 0 178.5 -21.5t52.5 -91.5l94 -676q13 -110 13 -141q0 -56 -32 -70t-118 -14q-85 0 -110 14t-29 68q-11 71 -32.5 345t-31.5 364h-20q-132 -529 -217 -709q-23 -53 -53 -67.5 t-115 -14.5q-77 0 -106 12t-29 49z" />
<glyph unicode="&#x43c;" horiz-adv-x="1492" d="M-8 61q0 7 6 26t24 70t29 85q123 368 174 641q13 79 61 105t171 26q128 0 169.5 -22.5t47.5 -90.5l49 -631q72 246 170 613q15 58 35.5 83.5t63 36.5t130.5 11q86 0 128.5 -9.5t62 -32.5t24.5 -71l70 -668q10 -98 10 -149q0 -56 -31.5 -70t-117.5 -14q-85 0 -108.5 14 t-29.5 68q-8 73 -20 360t-16 349h-17q-39 -150 -104 -365t-111 -342q-7 -20 -13.5 -30t-23.5 -20t-47 -14t-80 -4q-66 0 -98.5 10t-41.5 25t-15 49q-41 222 -68 691h-20q-104 -554 -168 -709q-22 -54 -48.5 -68t-111.5 -14q-77 0 -106 12t-29 49z" />
<glyph unicode="&#x43d;" horiz-adv-x="1021" d="M66 55q0 28 33.5 342.5t33.5 358.5q0 19 -7 94t-7 86q0 40 28 57t103 17t101.5 -14t35.5 -58q19 -107 19 -162q0 -26 -13 -145h264l33 303q4 49 32.5 62.5t115.5 13.5q71 0 97 -11t26 -45q0 -23 -37 -354t-37 -373q0 -39 7 -92t7 -57q0 -17 -2.5 -27t-13.5 -23.5 t-39.5 -20.5t-73.5 -7q-65 0 -92 10.5t-39 42.5q-10 23 -17.5 70t-7.5 74q0 19 19 217h-266l-33 -338q-4 -49 -34.5 -62.5t-113.5 -13.5q-72 0 -97 10.5t-25 44.5z" />
<glyph unicode="&#x43e;" horiz-adv-x="987" d="M66 301q0 98 19.5 249t59.5 257q50 125 145 174t255 49q102 0 169.5 -14t116 -49.5t70 -97.5t21.5 -158q0 -97 -20 -248.5t-60 -257.5q-50 -125 -145 -174t-255 -49q-102 0 -169 14t-115.5 49.5t-70 97.5t-21.5 158zM332 342q0 -81 25.5 -107t99.5 -26q68 0 101 22.5 t52 79.5q21 66 33 173.5t12 185.5q0 81 -25.5 107t-99.5 26q-68 0 -101 -23t-52 -80q-21 -66 -33 -173t-12 -185z" />
<glyph unicode="&#x43f;" horiz-adv-x="1052" d="M66 55q0 14 12 125q55 527 55 576q0 19 -7 94t-7 86q0 40 28 57t103 17q78 0 101.5 -12t27.5 -56l10 -96q44 91 126 137.5t214 46.5q128 0 187 -48.5t59 -145.5q0 -42 -30 -299t-30 -310q0 -39 7.5 -92t7.5 -57q0 -17 -2.5 -27t-13.5 -23.5t-39 -20.5t-72 -7 q-66 0 -93 10.5t-40 42.5q-10 23 -16.5 69t-6.5 75q0 56 24.5 275.5t24.5 250.5q0 40 -19 58t-71 18q-105 0 -155.5 -59t-63.5 -177l-51 -487q-6 -49 -35 -62.5t-113 -13.5q-72 0 -97 10.5t-25 44.5z" />
<glyph unicode="&#x440;" horiz-adv-x="1040" d="M29 -313q0 24 8 94l78 754q18 166 18 221q0 25 -5 94.5t-5 85.5q0 40 27.5 57t101.5 17q78 0 104 -22t29 -91l2 -51q54 103 136.5 143.5t203.5 40.5q142 0 199 -62t57 -216q0 -127 -31 -330q-16 -106 -43.5 -184.5t-62.5 -127.5t-82.5 -78.5t-96 -40.5t-110.5 -11 q-149 0 -221 90l-37 -369q-6 -54 -34 -69t-109 -15q-66 0 -96.5 14.5t-30.5 55.5zM354 283q0 -44 28.5 -64t100.5 -20q97 0 138 47t61 186q25 189 25 260q0 69 -25.5 92t-87.5 23q-183 0 -217 -289q-23 -212 -23 -235z" />
<glyph unicode="&#x441;" horiz-adv-x="841" d="M66 301q0 143 19.5 282.5t53.5 229.5q25 67 64.5 111.5t93 66.5t107.5 30.5t124 8.5q146 0 234 -31q28 -8 39.5 -23.5t11.5 -51.5q0 -40 -5 -68t-11 -42t-16 -22t-16.5 -9t-14.5 -1t-86 10.5t-127 10.5q-73 0 -109 -23t-53 -82q-45 -151 -45 -360q0 -75 27.5 -103 t107.5 -28q61 0 154 20.5t96 20.5q43 0 43 -62q0 -74 -15.5 -109.5t-48.5 -49.5q-98 -45 -293 -45q-88 0 -146.5 13.5t-103 48.5t-65 98t-20.5 159z" />
<glyph unicode="&#x442;" horiz-adv-x="1560" d="M66 53q0 12 14 152q53 501 53 549q0 19 -7 93.5t-7 84.5q0 40 28 58t103 18q78 0 101 -12.5t28 -55.5l10 -96q89 186 309 186q113 0 169 -38.5t71 -125.5q97 164 299 164q128 0 187 -48.5t59 -145.5q0 -42 -30 -299t-30 -310q0 -39 7.5 -92t7.5 -57q0 -17 -2.5 -27 t-13.5 -23.5t-39 -20.5t-72 -7q-66 0 -93 10.5t-40 42.5q-10 23 -16.5 69t-6.5 75q0 56 24.5 275.5t24.5 250.5q0 40 -19 58t-71 18q-91 0 -134.5 -58t-55.5 -180l-52 -487q-4 -49 -33.5 -62.5t-113.5 -13.5q-72 0 -97.5 10.5t-25.5 44.5q0 19 6 72q62 554 62 598 q0 41 -18 58.5t-70 17.5q-91 0 -137 -59t-58 -179l-51 -487q-6 -49 -35 -62.5t-113 -13.5q-72 0 -97 10.5t-25 44.5z" />
<glyph unicode="&#x443;" horiz-adv-x="950" d="M-33 -305q0 54 16 99.5t50 45.5q8 0 67.5 -6t94.5 -6q82 0 118 27t60 100q1 5 6.5 20.5t7.5 24.5q-108 0 -147 24.5t-50 96.5l-100 684q-14 96 -14 123q0 51 33 67q30 15 116 15q83 0 107.5 -12.5t29.5 -55.5q1 -12 13.5 -151.5t29 -305t29.5 -262.5h23q152 495 211 719 q12 43 41.5 55.5t115.5 12.5q74 0 100.5 -12.5t26.5 -45.5q0 -24 -45 -184q-222 -784 -358 -1004q-52 -86 -138.5 -126.5t-217.5 -40.5q-111 0 -179 22q-47 16 -47 76z" />
<glyph unicode="&#x444;" horiz-adv-x="1585" d="M66 231q0 172 34 404q17 114 48 191.5t78 122t104 63t135 18.5q190 0 244 -127l34 367q4 48 31.5 62t106.5 14q72 0 97.5 -11t25.5 -47q0 -9 -4 -44t-5 -44l-30 -305q51 74 125.5 104.5t179.5 30.5q142 0 199 -62t57 -216q0 -118 -35 -355q-19 -123 -55 -207t-88.5 -129 t-112 -63t-137.5 -18q-144 0 -213 88l-37 -367q-6 -53 -34.5 -68.5t-108.5 -15.5q-67 0 -98.5 15t-31.5 55q0 8 2 23t5 37t4 34l35 344q-107 -145 -312 -145q-119 0 -181 57.5t-62 193.5zM342 309q0 -60 25 -82t79 -22q64 0 110.5 40t69 100t31.5 138l13 117q8 79 8 115 q0 47 -27 69.5t-98 22.5q-86 0 -125.5 -41t-56.5 -150q-29 -210 -29 -307zM903 283q0 -45 26 -64.5t97 -19.5q96 0 137 45t58 168q28 198 28 280q0 69 -25 92t-87 23q-54 0 -93 -22.5t-62.5 -65.5t-36 -90t-19.5 -111l-15 -123q-8 -86 -8 -112z" />
<glyph unicode="&#x445;" horiz-adv-x="915" d="M-23 61q0 34 41 93l256 368l-143 322q-27 63 -27 98q0 43 31.5 55.5t110.5 12.5q80 0 108 -14t41 -66l88 -232h9l139 242q26 46 51.5 58t97.5 12q83 0 111.5 -10.5t28.5 -49.5q0 -35 -39 -92l-246 -346l178 -352q27 -53 27 -92t-38 -53.5t-104 -14.5q-76 0 -104 14 t-49 66l-111 264h-8l-158 -274q-21 -45 -50 -57.5t-101 -12.5q-32 0 -54 2t-43.5 8t-32 18.5t-10.5 32.5z" />
<glyph unicode="&#x446;" horiz-adv-x="1077" d="M78 168q0 73 31.5 304t31.5 300q0 30 -7 91t-7 71q0 42 27.5 59t103.5 17q72 0 95 -13.5t34 -58.5q21 -94 21 -156q0 -42 -27 -253.5t-27 -247.5q0 -44 22 -60t75 -16q101 0 149 69.5t62 210.5l47 449q4 49 33 62.5t114 13.5q71 0 97 -11t26 -45q0 -26 -34 -339.5 t-34 -368.5q0 -42 9.5 -64t33.5 -41q29 -22 40 -32t22.5 -31t11.5 -47q0 -71 -24 -203q-9 -44 -27 -57t-76 -13q-63 0 -85.5 14t-22.5 56v123q0 35 -13.5 55t-54.5 49q-54 40 -66 115q-96 -190 -342 -190q-239 0 -239 188z" />
<glyph unicode="&#x447;" horiz-adv-x="985" d="M53 502q0 41 14.5 144.5t14.5 125.5q0 30 -7 91t-7 71q0 42 28 59t103 17q73 0 96.5 -13.5t34.5 -58.5q18 -81 18 -156q0 -20 -7 -85t-7 -85q0 -33 19.5 -49t70.5 -16q97 0 144 50.5t59 164.5l18 172q4 49 33 62.5t113 13.5q72 0 97 -11t25 -45q0 -23 -35.5 -354 t-35.5 -373q0 -39 7 -92t7 -57q0 -17 -2.5 -27t-13.5 -23.5t-39.5 -20.5t-73.5 -7q-66 0 -92.5 10.5t-38.5 42.5q-10 23 -17.5 70t-7.5 74q0 64 23 247q-93 -129 -293 -129q-248 0 -248 187z" />
<glyph unicode="&#x448;" horiz-adv-x="1579" d="M78 168q0 32 31.5 292.5t31.5 311.5q0 30 -7 91t-7 71q0 42 28 59t103 17q74 0 97 -13.5t34 -58.5q19 -85 19 -156q0 -42 -27 -253.5t-27 -247.5q0 -44 22 -60t75 -16q97 0 142 69.5t58 210.5l41 449q4 49 33 62.5t115 13.5q71 0 97 -11t26 -45q0 -32 -34 -340t-34 -333 q0 -44 21.5 -60t74.5 -16q98 0 145.5 69.5t61.5 210.5l47 449q4 49 34 62.5t114 13.5q71 0 97 -11t26 -45q0 -27 -32 -331.5t-32 -354.5q0 -27 10.5 -110t10.5 -95q0 -34 -28.5 -48.5t-105.5 -14.5q-70 0 -91 14.5t-29 63.5l-17 102q-95 -200 -344 -200q-115 0 -162.5 39.5 t-56.5 127.5q-99 -167 -322 -167q-239 0 -239 188z" />
<glyph unicode="&#x449;" horiz-adv-x="1613" d="M78 168q0 40 33 297q30 255 30 307q0 30 -7 91t-7 71q0 42 28 59t103 17q74 0 97 -13.5t34 -58.5q19 -85 19 -156q0 -42 -27 -253.5t-27 -247.5q0 -44 22 -60t75 -16q97 0 142 69.5t58 210.5l41 449q4 49 33 62.5t115 13.5q71 0 97 -11t26 -45q0 -32 -34 -340t-34 -333 q0 -44 21.5 -60t74.5 -16q97 0 145 70t62 210l47 449q6 49 35 62.5t113 13.5q71 0 97 -11t26 -45q0 -26 -33 -339.5t-33 -368.5q0 -42 9.5 -64t33.5 -41q27 -21 39 -32t22.5 -31.5t10.5 -46.5q0 -31 -7 -97.5t-16 -105.5q-9 -44 -27 -57t-75 -13q-63 0 -86 14t-23 56v123 q0 35 -13.5 55t-53.5 49q-56 39 -68 115q-94 -190 -338 -190q-115 0 -162.5 39.5t-56.5 127.5q-99 -167 -322 -167q-239 0 -239 188z" />
<glyph unicode="&#x44a;" horiz-adv-x="1026" d="M47 836q0 104 18.5 139t63.5 35h293q36 0 51.5 -11.5t15.5 -44.5q0 -21 -12 -123l-22 -217q151 21 229 21q80 0 129.5 -9t90 -35t58 -76.5t17.5 -131.5q0 -251 -127 -332q-57 -37 -140 -51t-210 -14q-162 0 -305 20q-40 5 -54 14.5t-14 38.5q0 27 4 58l74 659h-103 q-32 0 -44.5 12t-12.5 48zM412 215q81 -6 133 -6q100 0 129 27q33 30 33 114q0 43 -26.5 60.5t-90.5 17.5q-58 0 -156 -4z" />
<glyph unicode="&#x44b;" horiz-adv-x="1435" d="M66 59q0 27 4 58l51 475q10 122 10 164q0 19 -6 94t-6 86q0 40 27 57t104 17q74 0 100 -14t35 -58q18 -81 18 -162q0 -57 -12 -162q151 21 227 21q81 0 131 -9t90.5 -35t58 -76.5t17.5 -131.5q0 -251 -127 -332q-57 -37 -140 -51t-210 -14q-162 0 -305 20q-41 5 -54 14.5 t-13 38.5zM348 215q81 -6 133 -6q100 0 129 27q31 29 31 114q0 43 -25.5 60.5t-89.5 17.5q-57 0 -155 -4zM1030 197q0 51 23 260l49 477q6 49 35 62.5t112 13.5q71 0 97 -11t26 -45q0 -23 -37 -354t-37 -373q0 -39 7.5 -92t7.5 -57q0 -17 -2.5 -27t-13.5 -23.5t-39 -20.5 t-72 -7q-66 0 -93 10.5t-40 42.5q-10 23 -16.5 69t-6.5 75z" />
<glyph unicode="&#x44c;" horiz-adv-x="962" d="M66 59q0 27 4 58l51 475q10 122 10 164q0 19 -6 94t-6 86q0 40 27 57t104 17q74 0 100 -14t35 -58q18 -81 18 -162q0 -57 -12 -162q151 21 227 21q81 0 131 -9t90.5 -35t58 -76.5t17.5 -131.5q0 -251 -127 -332q-57 -37 -140 -51t-210 -14q-162 0 -305 20q-41 5 -54 14.5 t-13 38.5zM348 215q81 -6 133 -6q100 0 129 27q31 29 31 114q0 43 -25.5 60.5t-89.5 17.5q-57 0 -155 -4z" />
<glyph unicode="&#x44d;" horiz-adv-x="835" d="M23 88q0 143 61 143q9 0 87 -11t128 -11q85 0 123 21t55 79q17 70 23 109h-248q-27 0 -37 10.5t-10 40.5q0 84 15 112.5t52 28.5h248q2 23 2 66q0 77 -26 103t-109 26q-61 0 -152 -15.5t-94 -15.5q-20 0 -31.5 12.5t-11.5 47.5q0 76 16 112t48 47q46 16 127 26.5 t162 10.5q89 0 147.5 -13t103 -47t64.5 -97t20 -160q0 -141 -20 -283t-53 -235q-25 -67 -64.5 -110.5t-95 -65t-112 -29.5t-134.5 -8q-147 0 -235 30q-27 8 -38 23.5t-11 52.5z" />
<glyph unicode="&#x44e;" horiz-adv-x="1439" d="M66 55q0 28 33.5 342.5t33.5 358.5q0 19 -7 94t-7 86q0 40 28 57t103 17t101.5 -14t35.5 -58q19 -107 19 -162q0 -13 -13 -141h166q21 105 47 172q50 125 145 174t255 49q102 0 169 -14t115.5 -49.5t70 -97.5t21.5 -158q0 -98 -19.5 -249t-59.5 -257q-50 -125 -145 -174 t-255 -49q-102 0 -169.5 14t-116 49.5t-70 97.5t-21.5 158q0 23 4 113h-161l-33 -338q-4 -49 -34 -62.5t-114 -13.5q-72 0 -97 10.5t-25 44.5zM793 342q0 -81 25.5 -107t99.5 -26q68 0 101 22.5t52 79.5q21 66 33 173.5t12 185.5q0 81 -25.5 107t-99.5 26q-68 0 -101 -23 t-52 -80q-21 -66 -33 -173t-12 -185z" />
<glyph unicode="&#x44f;" horiz-adv-x="1007" d="M23 43q0 18 35 72t107 150t91 124q-88 26 -125 81.5t-37 152.5q0 94 22 180.5t68 130.5q57 54 143.5 72t245.5 18q52 0 103 -3t113.5 -8.5t84.5 -6.5q39 -3 55.5 -15t16.5 -39q0 -32 -36 -359t-36 -366t7.5 -92t7.5 -57q0 -17 -2.5 -27t-13.5 -23.5t-39.5 -20.5t-73.5 -7 q-67 0 -94 10.5t-39 42.5q-9 22 -16 69.5t-7 74.5q0 50 12 176q-82 -4 -120 -4q-106 -189 -179 -295q-26 -36 -39 -48t-44 -19t-97 -7q-71 0 -92.5 10.5t-21.5 32.5zM369 649q0 -49 27 -65.5t102 -16.5q92 0 139 2l22 215q-44 7 -131 7q-57 0 -85 -5.5t-44 -21.5 q-30 -30 -30 -115z" />
<glyph unicode="&#x451;" horiz-adv-x="931" d="M66 301q0 143 19.5 282.5t53.5 229.5q25 67 64 111t94.5 66.5t115 31t142.5 8.5q97 0 162 -15.5t100.5 -47.5t49.5 -72.5t14 -97.5q0 -276 -140 -348q-129 -66 -411 -66v-55q0 -72 29.5 -97.5t109.5 -25.5t183.5 23.5t107.5 23.5q45 0 45 -72q0 -50 -9 -79.5t-21.5 -41 t-35.5 -22.5q-47 -23 -131.5 -39t-175.5 -16q-100 0 -164.5 13.5t-112 48.5t-68.5 97.5t-21 159.5zM244 1194q0 80 28 117q17 21 44.5 28t93.5 7q69 0 90.5 -16.5t21.5 -61.5q0 -83 -28 -115q-14 -22 -41.5 -28.5t-94.5 -6.5q-69 0 -91.5 16.5t-22.5 59.5zM344 549 q156 2 227 33q32 15 47 51.5t15 103.5q0 34 -20.5 52t-82.5 18q-68 0 -102.5 -24t-52.5 -89q-19 -61 -31 -145zM600 1194q0 79 29 117q17 21 44 28t91 7q71 0 93 -16.5t22 -61.5q0 -79 -29 -115q-17 -22 -43 -28.5t-92 -6.5q-69 0 -92 16.5t-23 59.5z" />
<glyph unicode="&#x452;" horiz-adv-x="1048" d="M59 55q0 4 21 205l82 801h-49q-22 0 -30.5 9.5t-8.5 35.5q0 111 49 111h55l6 53q6 48 35.5 62t112.5 14q72 0 97.5 -11t25.5 -45q0 -14 -6 -73h258q22 0 30 -9.5t8 -36.5q0 -110 -51 -110h-262l-22 -225q96 135 309 135q129 0 188.5 -49t59.5 -148q0 -24 -13 -151 l-75 -721q-18 -164 -95.5 -234.5t-214.5 -70.5q-100 0 -172 20q-24 8 -34.5 23.5t-10.5 48.5q0 58 14 102.5t46 44.5q11 0 49.5 -4t70.5 -4q34 0 49 10.5t23 38.5q8 38 17 119l45 444q20 195 20 222q0 42 -19 59.5t-71 17.5q-104 0 -156.5 -56t-64.5 -171l-45 -436 q-4 -49 -33 -62.5t-115 -13.5q-72 0 -97.5 10.5t-25.5 44.5z" />
<glyph unicode="&#x453;" horiz-adv-x="862" d="M41 209q0 109 45.5 183.5t151.5 137.5l235 140q39 24 53.5 44t14.5 48q0 25 -26 34t-95 9q-66 0 -146 -10.5t-86 -10.5q-41 0 -41 72q0 82 18 111.5t54 36.5q117 26 285 26q62 0 105.5 -4.5t84.5 -18t66 -36.5t40 -62t15 -94q0 -112 -48 -179.5t-146 -127.5l-238 -150 q-38 -25 -54 -46t-16 -52q0 -33 33 -41t133 -8q74 0 160.5 10t97.5 10q33 0 33 -65q0 -79 -17.5 -112.5t-52.5 -43.5q-123 -30 -301 -30q-67 0 -115.5 4.5t-97 18.5t-78.5 38.5t-48.5 66.5t-18.5 101zM354 1149q0 8 4.5 21.5t9 24t13.5 30.5t12 28l51 115q15 32 24 45.5 t29 26.5t51 16.5t85 3.5q70 0 95.5 -11.5t25.5 -35.5q0 -31 -47 -104l-84 -135q-24 -39 -56 -54.5t-110 -15.5q-59 0 -81 10.5t-22 34.5z" />
<glyph unicode="&#x454;" horiz-adv-x="841" d="M66 301q0 143 19.5 282.5t53.5 229.5q25 67 65 111.5t94 66.5t110 30.5t129 8.5q142 0 233 -31q28 -8 39.5 -23.5t11.5 -51.5q0 -40 -5 -68t-11 -42t-16 -22t-16.5 -9t-14.5 -1q-9 0 -86.5 10.5t-126.5 10.5q-78 0 -114.5 -22.5t-55.5 -82.5q-11 -39 -21 -88h252 q27 0 37 -10.5t10 -40.5q0 -84 -15 -112.5t-52 -28.5h-254q-2 -29 -2 -80q0 -75 27.5 -103t107.5 -28q61 0 154 20.5t96 20.5q43 0 43 -62q0 -74 -15.5 -109.5t-48.5 -49.5q-98 -45 -293 -45q-88 0 -146.5 13.5t-103 48.5t-65 98t-20.5 159z" />
<glyph unicode="&#x455;" horiz-adv-x="839" d="M25 88q0 150 59 150q5 0 92 -14.5t160 -14.5q86 0 121 25.5t35 80.5q0 27 -13 43t-47 29l-170 72q-93 39 -133.5 89.5t-40.5 133.5q0 78 28 156t74 118q86 74 273 74q172 0 270 -31q26 -6 37.5 -22t11.5 -53q0 -40 -4.5 -68t-11 -42t-16 -22t-15.5 -9t-14 -1 q-13 0 -110 13.5t-150 13.5q-44 0 -64 -14q-13 -9 -21.5 -30.5t-8.5 -43.5q0 -46 55 -66l164 -67q102 -41 142 -96t40 -134q0 -212 -119 -303q-101 -75 -307 -75q-158 0 -266 32q-30 9 -40.5 25.5t-10.5 50.5z" />
<glyph unicode="&#x456;" horiz-adv-x="483" d="M78 197q0 60 22 260l50 477q6 49 35 62.5t112 13.5q71 0 97 -11t26 -45q0 -23 -37 -354t-37 -373q0 -39 7 -92t7 -57q0 -17 -2.5 -27t-13.5 -23.5t-39 -20.5t-72 -7q-66 0 -93 10.5t-40 42.5q-10 23 -16 69t-6 75zM174 1194q0 81 27 117q17 21 48 28t97 7q71 0 98 -17.5 t27 -60.5q0 -77 -29 -115q-17 -21 -47.5 -28t-97.5 -7q-71 0 -97 16.5t-26 59.5z" />
<glyph unicode="&#x457;" horiz-adv-x="483" d="M-2 1194q0 79 29 117q17 21 44.5 28t92.5 7q69 0 90.5 -16.5t21.5 -61.5q0 -83 -28 -115q-14 -22 -41.5 -28.5t-93.5 -6.5q-69 0 -92 16.5t-23 59.5zM78 197q0 60 22 260l50 477q6 49 35 62.5t112 13.5q71 0 97 -11t26 -45q0 -23 -37 -354t-37 -373q0 -39 7 -92t7 -57 q0 -17 -2.5 -27t-13.5 -23.5t-39 -20.5t-72 -7q-66 0 -93 10.5t-40 42.5q-10 23 -16 69t-6 75zM354 1194q0 79 29 117q17 21 44 28t91 7q71 0 93 -16.5t22 -61.5q0 -79 -29 -115q-17 -22 -43 -28.5t-92 -6.5q-69 0 -92 16.5t-23 59.5z" />
<glyph unicode="&#x458;" horiz-adv-x="473" d="M-215 -311q0 58 13.5 102.5t45.5 44.5q11 0 50 -4t71 -4q34 0 49 10.5t23 38.5q7 30 16 119l97 938q4 49 33.5 62.5t113.5 13.5q72 0 98.5 -11t26.5 -45q0 -15 -27 -260l-84 -792q-18 -164 -95 -234.5t-214 -70.5q-100 0 -172 20q-24 8 -34.5 23.5t-10.5 48.5zM174 1194 q0 81 27 117q17 21 48 28t97 7q71 0 98 -17.5t27 -60.5q0 -77 -29 -115q-17 -21 -47.5 -28t-97.5 -7q-71 0 -97 16.5t-26 59.5z" />
<glyph unicode="&#x459;" horiz-adv-x="1427" d="M-8 61q0 11 8 30t25 56t30 70q157 391 236 666q17 57 39 82.5t70.5 37t146.5 11.5q135 0 178.5 -21.5t52.5 -91.5l37 -289q184 23 256 23q80 0 130 -9t90.5 -35t58.5 -76.5t18 -131.5q0 -251 -127 -332q-57 -37 -141 -51t-211 -14q-113 0 -227 16q-35 6 -47.5 22.5 t-18.5 57.5q-11 71 -32.5 345t-31.5 364h-20q-46 -183 -110 -398.5t-107 -310.5q-25 -53 -54.5 -67.5t-113.5 -14.5q-77 0 -106 12t-29 49zM840 424l28 -213q16 -2 64 -2q100 0 129 27q33 30 33 114q0 43 -25.5 60.5t-91.5 17.5q-47 0 -137 -4z" />
<glyph unicode="&#x45a;" horiz-adv-x="1501" d="M66 55q0 28 33.5 342.5t33.5 358.5q0 19 -7 94t-7 86q0 40 28 57t103 17t101.5 -14t35.5 -58q19 -107 19 -162q0 -49 -13 -145h264l33 303q4 49 33 62.5t115 13.5q71 0 97 -11t26 -45q0 -12 -5 -59t-14.5 -134t-15.5 -145q137 19 227 19q80 0 130 -9t90.5 -35t58.5 -76.5 t18 -131.5q0 -251 -127 -332q-57 -37 -141 -51t-211 -14q-160 0 -303 20q-41 5 -55.5 14.5t-14.5 38.5q0 11 6 58l31 297h-266l-33 -338q-4 -49 -34 -62.5t-114 -13.5q-72 0 -97 10.5t-25 44.5zM883 215q81 -6 133 -6q98 0 127 27q33 30 33 114q0 43 -25.5 60.5t-91.5 17.5 q-58 0 -156 -4z" />
<glyph unicode="&#x45b;" horiz-adv-x="1048" d="M59 55q0 8 2.5 28t6.5 51.5t6 58.5l88 868h-49q-22 0 -30.5 9.5t-8.5 35.5q0 111 49 111h55l6 53q6 48 35.5 62t112.5 14q72 0 97.5 -11t25.5 -45q0 -14 -6 -73h258q22 0 30 -9.5t8 -36.5q0 -110 -51 -110h-262l-22 -225q96 135 309 135q129 0 188.5 -49t59.5 -148 q0 -43 -27 -270.5t-27 -276.5q0 -39 7.5 -92t7.5 -57q0 -17 -2.5 -27t-13.5 -23.5t-39 -20.5t-72 -7q-66 0 -93 10.5t-40 42.5q-10 23 -16.5 69t-6.5 75q0 53 20.5 244t20.5 221q0 42 -19 59.5t-71 17.5q-104 0 -156.5 -56t-64.5 -171l-45 -436q-4 -49 -33 -62.5t-115 -13.5 q-72 0 -97.5 10.5t-25.5 44.5z" />
<glyph unicode="&#x45c;" horiz-adv-x="950" d="M66 55q0 28 33.5 342.5t33.5 358.5q0 19 -7 94t-7 86q0 40 28 57t103 17t101.5 -14t35.5 -58q19 -107 19 -162q0 -41 -15 -172h33q55 66 124.5 168t98.5 164q15 32 27.5 45t43.5 21t91 8q79 0 104 -15.5t25 -44.5q0 -65 -100.5 -201.5t-198.5 -228.5q59 -124 227 -366 q49 -67 49 -88q0 -66 -143 -66q-81 0 -113 15.5t-69 70.5q-123 189 -184 350h-35l-35 -360q-4 -49 -34 -62.5t-114 -13.5q-72 0 -97 10.5t-25 44.5zM379 1149q0 8 4.5 21.5t9 24t13.5 30.5t12 28l51 115q15 32 23.5 45.5t29 26.5t51 16.5t84.5 3.5q70 0 95.5 -11.5 t25.5 -35.5q0 -31 -47 -104l-84 -135q-24 -39 -56 -54.5t-110 -15.5q-59 0 -80.5 10.5t-21.5 34.5z" />
<glyph unicode="&#x45e;" horiz-adv-x="950" d="M-33 -305q0 54 16 99.5t50 45.5q8 0 67.5 -6t94.5 -6q82 0 118 27t60 100q1 5 6.5 20.5t7.5 24.5q-108 0 -147 24.5t-50 96.5l-100 684q-14 96 -14 123q0 51 33 67q30 15 116 15q83 0 107.5 -12.5t29.5 -55.5q1 -12 13.5 -151.5t29 -305t29.5 -262.5h23q152 495 211 719 q12 43 41.5 55.5t115.5 12.5q74 0 100.5 -12.5t26.5 -45.5q0 -24 -45 -184q-222 -784 -358 -1004q-52 -86 -138.5 -126.5t-217.5 -40.5q-111 0 -179 22q-47 16 -47 76zM274 1303q0 27 5 77q6 35 27 46.5t81 11.5q48 0 63 -10t15 -37v-29q0 -28 14.5 -38.5t67.5 -10.5 q55 0 69.5 12.5t22.5 54.5q8 37 25.5 47.5t74.5 10.5q50 0 68 -10t18 -42q0 -143 -65 -208q-33 -33 -86.5 -47.5t-149.5 -14.5q-137 0 -193.5 42.5t-56.5 144.5z" />
<glyph unicode="&#x45f;" horiz-adv-x="1040" d="M78 168q0 27 4 62.5t13.5 107.5t15.5 127q30 252 30 307q0 30 -7 91t-7 71q0 42 27.5 59t103.5 17q72 0 95 -13.5t34 -58.5q21 -94 21 -156q0 -42 -27 -253.5t-27 -247.5q0 -44 22 -60t75 -16q101 0 149 69.5t62 210.5l47 449q4 49 33 62.5t114 13.5q71 0 97 -11t26 -45 q0 -27 -33 -331.5t-33 -354.5q0 -25 9.5 -108t9.5 -99q0 -32 -28 -46.5t-103 -14.5q-70 0 -90.5 14.5t-28.5 61.5l-16 108q-95 -204 -349 -204q-239 0 -239 188zM262 -446q0 15 22.5 116.5t22.5 153.5t30 69t118 17q76 0 101.5 -13t25.5 -53q0 -50 -20.5 -110t-65.5 -154 q-21 -45 -48.5 -58.5t-93.5 -13.5q-57 0 -74.5 11t-17.5 35z" />
<glyph unicode="&#x490;" horiz-adv-x="845" d="M53 57q0 3 1 12.5t2.5 24.5l2.5 25l115 1089q4 43 22 56.5t64 13.5h377l51 143q21 44 42.5 57t82.5 13q55 0 74.5 -9.5t19.5 -41.5q0 -22 -10 -115l-20 -207q-6 -50 -27 -64t-80 -14h-344l-100 -964q-4 -47 -34.5 -61.5t-109.5 -14.5q-74 0 -101.5 11t-27.5 46z" />
<glyph unicode="&#x491;" horiz-adv-x="862" d="M41 209q0 109 46 184.5t151 136.5l235 140q39 24 53.5 44t14.5 48q0 25 -26 34t-95 9q-66 0 -146 -10.5t-86 -10.5q-41 0 -41 72q0 25 25.5 84.5t53 143.5t30.5 165q1 36 8.5 51.5t31 23t75.5 7.5q60 0 77 -11.5t17 -47.5q0 -113 -96 -248q67 6 135 6q62 0 105.5 -4.5 t84.5 -18t66 -36.5t40 -62t15 -94q0 -112 -48 -179.5t-146 -127.5l-238 -150q-38 -25 -54 -46t-16 -52q0 -33 33 -41t133 -8q74 0 160.5 10t97.5 10q33 0 33 -65q0 -79 -17.5 -112.5t-52.5 -43.5q-123 -30 -301 -30q-67 0 -115.5 4.5t-97 18.5t-78.5 38.5t-48.5 66.5 t-18.5 101z" />
<glyph unicode="&#x2000;" horiz-adv-x="862" />
<glyph unicode="&#x2001;" horiz-adv-x="1724" />
<glyph unicode="&#x2002;" horiz-adv-x="862" />
<glyph unicode="&#x2003;" horiz-adv-x="1724" />
<glyph unicode="&#x2004;" horiz-adv-x="574" />
<glyph unicode="&#x2005;" horiz-adv-x="431" />
<glyph unicode="&#x2006;" horiz-adv-x="287" />
<glyph unicode="&#x2007;" horiz-adv-x="287" />
<glyph unicode="&#x2008;" horiz-adv-x="215" />
<glyph unicode="&#x2009;" horiz-adv-x="344" />
<glyph unicode="&#x200a;" horiz-adv-x="95" />
<glyph unicode="&#x2010;" horiz-adv-x="657" d="M45 461q0 31 6 73.5t15 61.5q21 43 69 43h426q32 0 44.5 -12.5t12.5 -46.5q0 -31 -6 -74t-14 -62q-19 -41 -70 -41h-426q-31 0 -44 12.5t-13 45.5z" />
<glyph unicode="&#x2011;" horiz-adv-x="657" d="M45 461q0 31 6 73.5t15 61.5q21 43 69 43h426q32 0 44.5 -12.5t12.5 -46.5q0 -31 -6 -74t-14 -62q-19 -41 -70 -41h-426q-31 0 -44 12.5t-13 45.5z" />
<glyph unicode="&#x2012;" horiz-adv-x="657" d="M45 461q0 31 6 73.5t15 61.5q21 43 69 43h426q32 0 44.5 -12.5t12.5 -46.5q0 -31 -6 -74t-14 -62q-19 -41 -70 -41h-426q-31 0 -44 12.5t-13 45.5z" />
<glyph unicode="&#x2013;" horiz-adv-x="851" d="M41 461q0 90 20 135q18 43 70 43h621q32 0 44.5 -12.5t12.5 -46.5q0 -30 -6.5 -73.5t-14.5 -62.5q-19 -41 -69 -41h-621q-31 0 -44 12.5t-13 45.5z" />
<glyph unicode="&#x2014;" horiz-adv-x="1366" d="M41 461q0 90 20 135q18 43 70 43h1135q32 0 44.5 -12.5t12.5 -46.5q0 -31 -6 -74t-14 -62q-19 -41 -70 -41h-1135q-31 0 -44 12.5t-13 45.5z" />
<glyph unicode="&#x2018;" horiz-adv-x="385" d="M100 926q0 91 13.5 147t50.5 141l35 80q31 73 63.5 94t102.5 21q44 0 59.5 -9t15.5 -30q0 -17 -24 -116.5t-29 -149.5l-14 -137q-6 -61 -33 -80t-113 -19q-76 0 -101.5 12t-25.5 46z" />
<glyph unicode="&#x2019;" horiz-adv-x="385" d="M94 907q0 17 24 117t29 150l15 137q6 61 32.5 79.5t112.5 18.5q76 0 101.5 -11.5t25.5 -45.5q0 -92 -13.5 -148.5t-49.5 -140.5l-35 -80q-31 -73 -63.5 -94t-102.5 -21q-44 0 -60 9t-16 30z" />
<glyph unicode="&#x201a;" horiz-adv-x="391" d="M-43 -250q0 23 23 120t28 142l15 138q6 60 33.5 78t113.5 18q76 0 100.5 -13.5t24.5 -54.5q0 -130 -41 -223l-64 -150q-27 -64 -56 -81t-103 -17q-44 0 -59 10.5t-15 32.5z" />
<glyph unicode="&#x201c;" horiz-adv-x="770" d="M100 926q0 91 13.5 147t50.5 141l35 80q31 73 63.5 94t102.5 21q44 0 59.5 -9t15.5 -30q0 -17 -24 -116.5t-29 -149.5l-14 -137q-6 -61 -33 -80t-113 -19q-76 0 -101.5 12t-25.5 46zM485 926q0 91 13.5 147t50.5 141l35 80q31 73 63.5 94t102.5 21q44 0 59.5 -9t15.5 -30 q0 -17 -24 -116.5t-29 -149.5l-14 -137q-6 -61 -33 -80t-113 -19q-76 0 -101.5 12t-25.5 46z" />
<glyph unicode="&#x201d;" horiz-adv-x="770" d="M94 907q0 17 24 117t29 150l15 137q6 61 32.5 79.5t112.5 18.5q76 0 101.5 -11.5t25.5 -45.5q0 -92 -13.5 -148.5t-49.5 -140.5l-35 -80q-31 -73 -63.5 -94t-102.5 -21q-44 0 -60 9t-16 30zM479 907q0 17 24 117t29 150l15 137q6 61 32.5 79.5t112.5 18.5 q76 0 101.5 -11.5t25.5 -45.5q0 -92 -13.5 -148.5t-49.5 -140.5l-35 -80q-31 -73 -63.5 -94t-102.5 -21q-44 0 -60 9t-16 30z" />
<glyph unicode="&#x201e;" horiz-adv-x="763" d="M-43 -250q0 23 23 120t28 142l15 138q6 60 33 78t114 18q76 0 100.5 -13.5t24.5 -54.5q0 -132 -66 -282l-39 -91q-29 -65 -57 -81.5t-102 -16.5q-44 0 -59 10.5t-15 32.5zM328 -250q0 23 23 120t28 142l14 138q6 60 33.5 78t114.5 18q76 0 100.5 -13.5t24.5 -54.5 q0 -132 -66 -282l-39 -91q-29 -64 -57.5 -81t-102.5 -17q-44 0 -58.5 10.5t-14.5 32.5z" />
<glyph unicode="&#x2026;" horiz-adv-x="1196" d="M18 70q0 3 1.5 16t4.5 39.5t5 52.5q8 62 34 80t113 18q78 0 104.5 -13.5t26.5 -55.5q0 -4 -10 -109q-8 -62 -34 -80t-113 -18q-78 0 -105 14t-27 56zM412 70q0 3 10 108q8 62 34 80t113 18q78 0 104.5 -13.5t26.5 -55.5q0 -4 -10 -109q-8 -62 -34 -80t-113 -18 q-77 0 -104 14t-27 56zM805 70q0 3 10 108q8 62 34.5 80t113.5 18q78 0 104.5 -13.5t26.5 -55.5q0 -3 -1.5 -16t-4.5 -40t-5 -53q-8 -62 -34 -80t-113 -18q-77 0 -104 14t-27 56z" />
<glyph unicode="&#x202f;" horiz-adv-x="344" />
<glyph unicode="&#x2039;" horiz-adv-x="665" d="M49 453q0 36 9 92t20 82q14 29 34 46t58 38l383 221q36 16 51 16q41 0 41 -57q0 -71 -15.5 -120t-68.5 -83l-246 -166l-2 -16l211 -172q29 -24 39 -42t10 -54q0 -156 -59 -156q-23 0 -49 16l-336 219q-44 29 -62 55t-18 81z" />
<glyph unicode="&#x203a;" horiz-adv-x="665" d="M37 137q0 70 16 119.5t68 85.5l246 166l2 16l-209 172q-29 24 -39 41.5t-10 53.5q0 157 59 157q19 0 47 -16l336 -219q46 -30 63 -55t17 -80q0 -39 -8 -95t-19 -82q-14 -28 -35 -46t-57 -38l-385 -219q-26 -16 -49 -16q-43 0 -43 55z" />
<glyph unicode="&#x205f;" horiz-adv-x="431" />
<glyph unicode="&#x20ac;" d="M55 459q0 26 29 106q5 18 14 23.5t23 5.5h41q2 17 5.5 51t4.5 45h-68q-28 0 -28 25q0 31 28 108q5 17 14 22t23 5h54q16 84 40.5 151t52 112.5t64 78t70.5 51t79 29t82.5 13.5t86.5 3q164 0 284 -35q20 -5 27.5 -17t7.5 -46q0 -79 -14.5 -121.5t-36.5 -42.5 q-5 0 -79.5 11.5t-149.5 11.5q-58 0 -92.5 -6t-66 -26.5t-50.5 -60.5t-33 -106h266q29 0 29 -23q0 -28 -29 -108q-9 -29 -37 -29h-254l-8 -96h254q29 0 29 -23q0 -28 -29 -108q-9 -29 -37 -29h-229v-31q0 -59 13.5 -96t44 -54t64 -22.5t89.5 -5.5q71 0 145.5 12.5t87.5 12.5 q15 0 22 -11t7 -38q0 -67 -9.5 -106.5t-22.5 -52.5t-34 -19q-127 -37 -290 -37q-52 0 -91.5 3t-82 12t-73.5 25.5t-60.5 43.5t-47.5 65t-28.5 92.5t-10.5 122.5q0 49 2 84h-63q-29 0 -29 25z" />
<glyph unicode="&#x2122;" horiz-adv-x="1724" d="M96 1130q0 85 17.5 116.5t52.5 31.5h539q26 0 36.5 -12.5t10.5 -46.5q0 -87 -16.5 -117.5t-51.5 -30.5h-152l-51 -481q-4 -47 -27 -60.5t-98 -13.5q-70 0 -92 9.5t-22 43.5q0 3 5 46l48 456h-152q-25 0 -36 13t-11 46zM780 569q0 3 6 68l60 547q6 60 37 77t141 17 q90 0 120.5 -17.5t47.5 -86.5l61 -259l115 252q32 71 70.5 91t132.5 20q89 0 118 -13.5t29 -56.5q0 -9 -4 -67l-59 -549q-6 -49 -28.5 -62.5t-98.5 -13.5q-69 0 -91 10t-22 43q0 25 6 68q3 28 18.5 141.5t18.5 155.5h-16l-109 -225q-22 -46 -41.5 -58t-72.5 -12 q-44 0 -60 12.5t-29 63.5l-61 219h-16l-33 -342q-4 -49 -27.5 -62.5t-99.5 -13.5q-69 0 -91 10t-22 43z" />
<glyph unicode="&#x25fc;" horiz-adv-x="1013" d="M0 0v1014h1014v-1014h-1014z" />
</font>
</defs>
</svg>
