<?xml version="1.0" standalone="no"?>
<!DOCTYPE svg PUBLIC "-//W3C//DTD SVG 1.1//EN" "http://www.w3.org/Graphics/SVG/1.1/DTD/svg11.dtd" >
<svg xmlns="http://www.w3.org/2000/svg">
<metadata></metadata>
<defs>
<font id="neuronextralight_italic" horiz-adv-x="942" >
<font-face units-per-em="2048" ascent="1638" descent="-410" />
<missing-glyph horiz-adv-x="419" />
<glyph horiz-adv-x="0" />
<glyph horiz-adv-x="682" />
<glyph unicode="&#xd;" horiz-adv-x="868" />
<glyph unicode=" "  horiz-adv-x="419" />
<glyph unicode="&#x09;" horiz-adv-x="419" />
<glyph unicode="&#xa0;" horiz-adv-x="419" />
<glyph unicode="!" horiz-adv-x="358" d="M90 31q0 2 6 63q3 26 16.5 33.5t49.5 7.5q33 0 45 -6t12 -25q0 -2 -6 -63q-3 -26 -16.5 -33.5t-49.5 -7.5q-33 0 -45 6t-12 25zM135 301q0 13 6 96l66 811q2 24 14 32.5t45 8.5q32 0 41.5 -8.5t9.5 -30.5q0 -10 -10 -112l-82 -791q-3 -25 -12 -33t-37 -8q-27 0 -34 7.5 t-7 27.5z" />
<glyph unicode="&#x22;" horiz-adv-x="417" d="M121 911q0 229 10 297q3 24 14 32.5t45 8.5q32 0 42 -6.5t10 -25.5q0 -43 -54 -304q-3 -15 -9.5 -19.5t-26.5 -4.5q-19 0 -25 4.5t-6 17.5zM326 911q0 229 10 297q3 24 14 32.5t45 8.5q32 0 41.5 -6.5t9.5 -25.5q0 -48 -53 -304q-3 -15 -10 -19.5t-27 -4.5q-19 0 -24.5 4 t-5.5 18z" />
<glyph unicode="#" d="M90 420q0 33 8 53q8 21 29 21h162l33 311h-168q-23 0 -23 24q0 34 8 54q7 20 29 20h164l26 238q3 25 13 33t45 8q27 0 36 -6t9 -21q0 -19 -4 -55l-23 -197h205l27 238q3 25 12.5 33t44.5 8q27 0 36 -6t9 -21q0 -19 -4 -55l-23 -197h174q23 0 23 -24q0 -34 -8 -54t-29 -20 h-170l-33 -311h176q23 0 23 -25q0 -33 -8 -53q-8 -21 -29 -21h-172l-29 -278q-3 -25 -12.5 -33t-44.5 -8q-27 0 -36 5.5t-9 20.5q0 20 4 56l25 237h-205l-29 -278q-3 -25 -12.5 -33t-44.5 -8q-27 0 -36 5.5t-9 20.5q0 20 4 56l25 237h-166q-23 0 -23 25zM391 494h205l33 311 h-205z" />
<glyph unicode="$" d="M70 59q0 60 34 60q10 0 55 -11.5t114.5 -23.5t138.5 -12q91 0 147.5 13t93.5 50q34 34 55 105.5t21 136.5q0 60 -20 95.5t-66 57.5l-268 123q-106 48 -145.5 96.5t-39.5 137.5q0 67 16.5 135t43.5 113q37 64 106 93.5t185 31.5l16 147q3 24 13.5 32.5t43.5 8.5 q27 0 36 -6t9 -21q0 -19 -4 -55l-12 -111q130 -11 207 -36q23 -6 32 -15t9 -24q0 -60 -31 -60q-6 0 -50 12t-112.5 23.5t-134.5 11.5q-100 0 -149.5 -15t-75.5 -60q-41 -67 -41 -195q0 -52 20.5 -82.5t75.5 -56.5l293 -133q86 -40 119 -92.5t33 -135.5q0 -87 -30.5 -181.5 t-84.5 -145.5q-72 -70 -225 -86l-17 -148q-3 -24 -13.5 -32.5t-43.5 -8.5q-27 0 -36 6t-9 21q0 19 4 55l10 103q-167 3 -278 38q-28 8 -36.5 17t-8.5 24z" />
<glyph unicode="%" horiz-adv-x="1040" d="M88 23q0 14 16 36l801 1162q11 17 23 22.5t41 5.5q28 0 34.5 -4.5t6.5 -17.5q0 -16 -15 -37l-800 -1161q-13 -18 -23.5 -23.5t-38.5 -5.5t-36.5 5.5t-8.5 17.5zM143 901q0 136 24.5 211t77 106t148.5 31q110 0 149.5 -39t39.5 -133q0 -136 -24.5 -211t-77 -106 t-148.5 -31q-110 0 -149.5 39t-39.5 133zM244 899q0 -49 21 -68.5t79 -19.5q56 0 84.5 22t40.5 78t12 168q0 49 -21 68.5t-79 19.5q-56 0 -84.5 -22t-40.5 -78t-12 -168zM512 172q0 136 24.5 211t77 106t148.5 31q110 0 149 -38.5t39 -133.5q0 -136 -24.5 -211t-77 -106 t-148.5 -31q-110 0 -149 38.5t-39 133.5zM612 170q0 -49 21 -68.5t80 -19.5q56 0 84.5 22t40.5 78t12 168q0 49 -21 68.5t-79 19.5q-83 0 -110.5 -52.5t-27.5 -215.5z" />
<glyph unicode="&#x26;" horiz-adv-x="993" d="M57 236q0 99 27.5 202.5t77.5 145.5q56 48 194 61q-186 30 -186 199q0 88 22 184t58 143q41 54 101 71.5t155 17.5q138 0 291 -43q28 -7 28 -33q0 -62 -32 -62q-4 0 -110.5 20.5t-184.5 20.5q-76 0 -115.5 -12t-63.5 -53q-20 -34 -31.5 -108t-11.5 -134q0 -61 24 -96.5 t90.5 -55.5t184.5 -20h168l17 156q2 24 13 32.5t44 8.5q27 0 36 -6t9 -21q0 -19 -4 -55l-12 -115h139q21 0 21 -27q0 -39 -7 -51t-24 -12h-141l-31 -313q-9 -90 -38.5 -149.5t-82 -92.5t-119 -46t-162.5 -13q-106 0 -174 15.5t-105 49.5t-51 78.5t-14 112.5zM166 229 q0 -33 6.5 -56t28 -47.5t70.5 -37t124 -12.5q84 0 133.5 6.5t88.5 27t57 57.5t24 99l33 328h-166q-129 0 -199.5 -11.5t-111.5 -45.5q-36 -29 -57 -93.5t-26 -115t-5 -99.5z" />
<glyph unicode="'" horiz-adv-x="212" d="M121 911q0 229 10 297q3 24 14 32.5t45 8.5q32 0 42 -6.5t10 -25.5q0 -43 -54 -304q-3 -15 -9.5 -19.5t-26.5 -4.5q-19 0 -25 4.5t-6 17.5z" />
<glyph unicode="(" horiz-adv-x="399" d="M111 408q0 161 25 317t66 278.5t74 200t68 142.5q11 20 49 20q39 0 39 -18q0 -13 -23 -67t-55 -138.5t-64.5 -190t-55.5 -251t-23 -293.5q0 -130 17 -248.5t34 -190t17 -86.5q0 -14 -9 -19t-34 -5q-40 0 -46 20q-79 234 -79 529z" />
<glyph unicode=")" horiz-adv-x="399" d="M16 -123q0 13 23 67t55.5 138.5t65 190t55.5 251t23 293.5q0 130 -17 248t-34 189.5t-17 86.5q0 14 9.5 19.5t33.5 5.5q39 0 45 -20q80 -237 80 -529q0 -161 -25 -317t-66.5 -278.5t-74.5 -200t-68 -142.5q-11 -20 -49 -20q-39 0 -39 18z" />
<glyph unicode="*" horiz-adv-x="737" d="M98 979q0 15 13 41q15 31 32 31q6 0 199 -64q31 -10 53 -41q-14 28 -14 47q0 32 22 226q3 24 13.5 32.5t40.5 8.5q25 0 35 -6.5t10 -22.5l-23 -219q-4 -38 -24 -66q25 32 59 41q204 64 209 64q7 0 14 -7q6 -6 12.5 -25.5t6.5 -33.5t-7 -20t-26 -13l-188 -59 q-32 -8 -37 -8q-3 0 -39 8q27 -10 37.5 -17t21.5 -26l105 -168q8 -13 8 -23q0 -13 -29 -36q-25 -19 -41 -19q-10 0 -22 21l-107 168q-16 26 -16 53v16q-3 -23 -9 -35.5t-24 -33.5l-135 -164q-22 -25 -35 -25q-15 0 -36 19.5t-21 31.5t12 27l141 168q16 19 28 26t40 17 q-36 -8 -39 -8q-5 0 -37 8l-176 59q-27 10 -27 27z" />
<glyph unicode="+" d="M158 532q0 40 8 55t24 15h250l29 264q3 24 13 32.5t40 8.5q26 0 35.5 -6.5t9.5 -21.5q0 -6 -4 -52l-24 -225h252q12 0 17 -6t5 -23q0 -40 -8 -54.5t-25 -14.5h-252l-26 -262q-3 -24 -13 -32.5t-40 -8.5q-26 0 -36 6.5t-10 21.5q0 3 1 10.5t2 20t2 21.5l22 223h-250 q-12 0 -17 5.5t-5 22.5z" />
<glyph unicode="," horiz-adv-x="311" d="M6 -252q0 12 24.5 107t30.5 153l9 86q3 24 14 32.5t45 8.5q30 0 40.5 -6.5t10.5 -22.5q0 -5 -6 -69q-6 -63 -33 -135l-51 -142q-6 -16 -16.5 -22t-32.5 -6q-21 0 -28 3t-7 13z" />
<glyph unicode="-" horiz-adv-x="608" d="M82 528q0 34 8 54t29 20h401q23 0 23 -24q0 -34 -8 -54q-7 -20 -29 -20h-402q-22 0 -22 24z" />
<glyph unicode="." horiz-adv-x="321" d="M68 31q0 2 6 63q3 26 16 33.5t49 7.5q33 0 45.5 -6t12.5 -25q0 -2 -1 -8.5t-2.5 -21.5t-3.5 -33q-3 -26 -16 -33.5t-49 -7.5q-33 0 -45 6t-12 25z" />
<glyph unicode="/" horiz-adv-x="464" d="M-37 -119q0 9 12 45l461 1399q9 26 21 33.5t43 7.5q47 0 47 -23q0 -9 -12 -45l-461 -1398q-9 -26 -21 -33.5t-43 -7.5q-26 0 -36.5 4.5t-10.5 17.5z" />
<glyph unicode="0" d="M88 301q0 130 37 447q13 108 28.5 184t40 135t55.5 94.5t78 58.5t103.5 31.5t136.5 8.5q91 0 150.5 -12.5t105.5 -47t67 -98.5t21 -164q0 -129 -37 -446q-13 -108 -28.5 -184t-40 -135t-55.5 -94.5t-78 -58.5t-103.5 -31.5t-136.5 -8.5q-91 0 -150.5 12.5t-105.5 46.5 t-67 98t-21 164zM190 317q0 -147 54 -196t198 -49q50 0 86 3.5t68 14t53 24t39.5 40.5t30 56.5t22 77.5t18 98.5t15.5 125.5q35 309 35 410q0 147 -54 196t-198 49q-50 0 -86 -3.5t-68 -14t-53 -24t-39.5 -40.5t-30 -56.5t-22 -77.5t-18 -98.5t-15.5 -125.5 q-35 -309 -35 -410z" />
<glyph unicode="1" d="M205 29q0 40 8 54.5t25 14.5h215l108 1047l-213 -68q-24 -8 -41 -8q-18 0 -18 31q0 56 26 63l238 76q31 10 72 10q28 0 36.5 -6t8.5 -24q0 -16 -19 -207l-96 -914h217q13 0 18 -5.5t5 -22.5q0 -40 -8.5 -55t-24.5 -15h-535q-12 0 -17 6t-5 23z" />
<glyph unicode="2" d="M119 37q0 18 14 158q12 112 55.5 174.5t155.5 140.5l313 219q70 49 99.5 121.5t29.5 173.5q0 48 -10.5 75.5t-40 41.5t-66.5 18t-106 4q-66 0 -129 -10.5t-101 -21.5t-44 -11q-14 0 -19.5 4.5t-5.5 20.5q0 32 11.5 48.5t43.5 25.5q141 41 275 41q55 0 93 -3.5t80.5 -16.5 t67.5 -36t41.5 -65t16.5 -101q0 -141 -41 -231q-22 -51 -58 -88t-102 -84l-323 -227q-62 -43 -91.5 -89.5t-37.5 -134.5l-9 -86h539q13 0 18 -5.5t5 -22.5q0 -40 -8.5 -55t-24.5 -15h-604q-21 0 -29 8t-8 29z" />
<glyph unicode="3" d="M76 68q0 34 6.5 42.5t23.5 8.5q1 0 113 -21.5t207 -21.5q85 0 142 21.5t87 65.5t42 97.5t12 130.5q0 37 -8 65t-30 54.5t-59.5 43t-99.5 26.5t-147 10q-21 0 -30 7t-9 26q0 39 11 52t38 13q197 0 276 60q103 75 103 268q0 49 -11.5 79t-38.5 44.5t-57.5 19t-83.5 4.5 q-85 0 -198.5 -21.5t-116.5 -21.5q-14 0 -19.5 4.5t-5.5 20.5q0 32 11.5 48.5t44.5 25.5q141 41 317 41q65 0 109.5 -9t81.5 -34t55 -73.5t18 -121.5q0 -102 -33.5 -192t-95.5 -132q-63 -42 -145 -55q231 -21 231 -250q0 -413 -381 -413q-78 0 -170 10.5t-147 29.5 q-24 8 -33.5 17.5t-9.5 30.5z" />
<glyph unicode="4" d="M86 389q0 45 18 70l521 741q23 31 47 40t78 9q46 0 60.5 -8.5t14.5 -38.5q0 -23 -4 -55l-73 -698h100q21 0 28 -5.5t7 -25.5q0 -40 -9.5 -52t-35.5 -12h-101l-32 -313q-3 -24 -14 -32.5t-44 -8.5q-27 0 -36 6t-9 21q0 19 4 55l29 272h-510q-21 0 -30 7t-9 28zM219 449 h426l74 710h-12z" />
<glyph unicode="5" d="M125 63q0 34 7 43t24 9q6 0 43.5 -10.5t98 -21.5t122.5 -11q89 0 139 8.5t85.5 38.5t52 78.5t28.5 136.5q14 109 14 168q0 52 -11.5 84t-37.5 47.5t-55.5 20.5t-77.5 5q-89 0 -193.5 -21.5t-113.5 -21.5q-17 0 -26 2t-17 11.5t-8 27.5q0 13 12 131l45 420q3 25 13 33 t42 8h531q12 0 17 -5.5t5 -22.5q0 -40 -8.5 -55t-24.5 -15h-479l-47 -430q155 31 254 31q50 0 84.5 -3.5t75 -17t65 -38t41.5 -70t17 -109.5q0 -46 -15 -166q-12 -96 -38 -164t-59.5 -107.5t-84 -61.5t-98.5 -28.5t-117 -6.5q-134 0 -262 40q-25 6 -34 14t-9 29z" />
<glyph unicode="6" d="M131 297q0 93 10 180l27 252q11 101 31 181.5t45 135.5t60 95t69.5 62.5t80 35.5t84 17t89.5 4q98 0 202 -23q27 -6 34 -13t7 -28q0 -57 -30 -57q-4 0 -89 14t-133 14q-33 0 -53.5 -1t-50.5 -5t-49 -12.5t-44 -24t-41 -38t-35 -56t-31.5 -76.5t-24 -101.5t-19.5 -129.5 l-10 -86q80 117 315 117q76 0 126 -11t88 -41t55.5 -84.5t17.5 -138.5q0 -142 -26 -239t-80 -154t-129.5 -81.5t-182.5 -24.5q-68 0 -112.5 6t-86 24.5t-64.5 53.5t-36.5 92.5t-13.5 140.5zM231 293q0 -60 10 -101t26 -64.5t46.5 -36t61 -16t80.5 -3.5q65 0 107 6.5 t83.5 29.5t64.5 66t37.5 117t14.5 182q0 111 -47.5 150t-175.5 39q-88 0 -143 -15.5t-94 -57t-55 -112.5t-16 -184z" />
<glyph unicode="7" d="M217 1180q0 40 8 54.5t25 14.5h631q21 0 29 -7t8 -28q0 -28 -19 -71l-534 -1114q-13 -29 -64 -29t-51 20q0 19 12 39l529 1092h-551q-12 0 -17.5 6t-5.5 23z" />
<glyph unicode="8" d="M100 244q0 190 48 284.5t137 126.5q-90 47 -90 201q0 84 12.5 149t29.5 107.5t50 71.5t59 44t72.5 22.5t74 8.5t78.5 1q63 0 95 -1.5t80.5 -14t72.5 -37t43 -72.5t19 -119q0 -159 -38 -243t-114 -118q119 -48 119 -229q0 -132 -22 -217.5t-73.5 -136.5t-126.5 -71.5 t-190 -20.5q-189 0 -262.5 56.5t-73.5 207.5zM203 256q0 -61 12 -97t44 -55.5t73.5 -25.5t113.5 -6q87 0 141.5 12.5t88.5 46.5q69 72 69 291q0 59 -14 95.5t-47 55.5t-73 25t-107 6q-96 0 -154 -16.5t-92 -65.5q-55 -76 -55 -266zM297 858q0 -44 9 -73t23.5 -45.5t44.5 -25 t59 -10.5t81 -2q34 0 56 1t48 4t43 9.5t35.5 17.5t29.5 27.5t22.5 39t17 53t9 70t3.5 88.5q0 52 -11 83t-40 47t-65 20.5t-101 4.5q-53 0 -86 -3t-66 -14t-51.5 -31.5t-33.5 -55t-21 -84.5t-6 -121z" />
<glyph unicode="9" d="M104 43q0 57 31 57q4 0 88.5 -14t132.5 -14q64 0 98.5 3t80 15.5t70 40.5t51.5 76.5t43 125t28 183.5l8 84q-37 -59 -110 -87t-195 -28q-75 0 -123 11t-84.5 39.5t-52.5 81.5t-16 135q0 193 42.5 304.5t126.5 157.5t226 46q69 0 113.5 -6t86.5 -24.5t65.5 -53.5 t37.5 -93.5t14 -142.5q0 -65 -10 -178l-27 -252q-9 -83 -23 -151.5t-31 -119.5t-41 -91t-46.5 -67t-55.5 -46.5t-60 -30t-66.5 -16t-70.5 -7t-75 -1.5q-41 0 -111 7t-104 15q-27 6 -34 13t-7 28zM256 754q0 -103 44.5 -139.5t166.5 -36.5q116 0 178.5 31t92.5 113.5 t30 238.5q0 70 -12 111.5t-43 62t-68.5 26.5t-105.5 6q-53 0 -87.5 -4.5t-69.5 -19t-56 -42.5t-38.5 -73.5t-24.5 -113t-7 -160.5z" />
<glyph unicode=":" horiz-adv-x="309" d="M68 31q0 2 6 63q3 26 16 33.5t49 7.5q33 0 45.5 -6t12.5 -25q0 -2 -1 -8.5t-2.5 -21.5t-3.5 -33q-3 -26 -16 -33.5t-49 -7.5q-33 0 -45 6t-12 25zM160 920q0 2 6 63q3 26 16 33.5t49 7.5q33 0 45.5 -6t12.5 -25q0 -1 -6 -63q-3 -26 -16.5 -33.5t-49.5 -7.5q-33 0 -45 6 t-12 25z" />
<glyph unicode=";" horiz-adv-x="309" d="M6 -252q0 12 24.5 107t30.5 153l9 86q3 24 14 32.5t45 8.5q30 0 40.5 -6.5t10.5 -22.5q0 -5 -6 -69q-6 -63 -33 -135l-51 -142q-6 -16 -16.5 -22t-32.5 -6q-21 0 -28 3t-7 13zM160 920q0 2 6 63q3 26 16 33.5t49 7.5q33 0 45.5 -6t12.5 -25q0 -1 -6 -63 q-3 -26 -16.5 -33.5t-49.5 -7.5q-33 0 -45 6t-12 25z" />
<glyph unicode="&#x3c;" d="M168 514q0 104 47 123l520 221q30 12 49 12q21 0 21 -20q0 -55 -12.5 -73t-57.5 -36l-459 -186l-2 -18l420 -181q36 -15 46 -24t10 -29q0 -13 -2 -27t-11 -29.5t-24 -15.5q-12 0 -41 13l-469 217q-19 9 -27 20.5t-8 32.5z" />
<glyph unicode="=" d="M190 408q0 24 7 49q5 20 26 20h529q12 0 17 -5.5t5 -22.5q0 -29 -6 -50q-5 -20 -27 -20h-528q-12 0 -17.5 6t-5.5 23zM217 674q0 28 6 49q5 20 27 20h528q13 0 18 -5.5t5 -22.5q0 -28 -6 -49q-5 -21 -27 -21h-528q-12 0 -17.5 6t-5.5 23z" />
<glyph unicode="&#x3e;" d="M164 250q0 55 12 72.5t57 35.5l459 187l2 18l-420 180q-36 15 -45.5 24.5t-9.5 29.5q0 13 2 27t11 29t24 15q14 0 41 -12l469 -217q19 -9 27 -20.5t8 -32.5q0 -104 -47 -123l-521 -221q-33 -13 -49 -13q-20 0 -20 21z" />
<glyph unicode="?" horiz-adv-x="718" d="M119 1145q0 56 28 65q145 50 302 50q55 0 93.5 -3.5t81 -16t67.5 -35.5t42 -64t17 -99q0 -106 -32 -178.5t-114 -148.5l-174 -168q-34 -32 -52 -68.5t-26 -109.5l-6 -62q-2 -24 -12 -32.5t-43 -8.5q-29 0 -39 6.5t-10 24.5q0 7 10 92q9 75 33.5 122.5t72.5 94.5l195 193 q47 47 68.5 103t21.5 138q0 79 -43.5 101t-169.5 22q-64 0 -130 -10.5t-108.5 -21.5t-48.5 -11q-13 0 -18.5 4.5t-5.5 20.5zM207 31q0 2 6 63q3 26 16.5 33.5t49.5 7.5q33 0 45 -6t12 -25q0 -2 -6 -63q-3 -26 -16.5 -33.5t-49.5 -7.5q-33 0 -45 6t-12 25z" />
<glyph unicode="@" horiz-adv-x="1587" d="M68 178q0 136 32 443q11 107 31.5 195t46.5 155t64.5 119.5t78 89.5t93.5 63t104 41t118 23.5t127 11t138 2.5q71 0 124.5 -2t114 -8.5t105 -18t91.5 -31t79.5 -47.5t62.5 -67.5t48 -89.5t28.5 -116t10.5 -146q0 -59 -11 -174l-26 -261q-38 -380 -291 -380 q-91 0 -134.5 38.5t-55.5 122.5l-3 11q-88 -172 -342 -172q-164 0 -226 66.5t-62 238.5q0 101 14 227q13 128 38 218.5t59 147.5t85 89.5t107 44.5t135 12q111 0 169 -35t81 -106l8 80q3 26 13 33.5t42 7.5q29 0 38 -5.5t9 -23.5q0 -6 -43 -422q-32 -305 -32 -348 q0 -133 104 -133q38 0 63.5 9t51 37.5t42.5 88t27 153.5l27 261q10 110 10 174q0 84 -12.5 148t-34.5 110t-60.5 78t-80.5 51t-106 29.5t-125.5 14t-149.5 3.5q-77 0 -133 -2.5t-116.5 -10t-104 -21.5t-88 -36.5t-76 -55t-61.5 -77.5t-50 -103.5t-36 -133.5t-25 -168 q-33 -314 -33 -435q0 -200 90 -295q67 -69 177 -98t280 -29q22 0 29.5 -5.5t7.5 -24.5q0 -25 -6 -43q-4 -13 -12.5 -17t-26.5 -4q-180 0 -305 29t-207 108q-129 126 -129 371zM518 289q0 -127 43 -172t154 -45q84 0 138 14t98 54.5t69 115.5t37 195q20 207 20 258 q0 120 -50.5 171.5t-180.5 51.5q-85 0 -135 -15.5t-87.5 -65t-57 -132.5t-34.5 -227q-14 -144 -14 -203z" />
<glyph unicode="A" horiz-adv-x="1034" d="M10 23q0 11 10 36l494 1149q12 28 28.5 34.5t71.5 6.5q54 0 69.5 -6.5t21.5 -34.5l243 -1118q13 -56 13 -63q0 -27 -54 -27q-31 0 -41 5.5t-14 27.5l-80 377h-489l-162 -385q-9 -25 -60 -25t-51 23zM322 502h432l-136 649h-24z" />
<glyph unicode="B" horiz-adv-x="1048" d="M113 43q0 15 4 39l116 1106q3 26 16 38t40 15q168 19 295 19q61 0 97.5 -1t80.5 -5.5t68.5 -13.5t51 -25t39 -39.5t21 -57t8.5 -78.5q0 -288 -170 -372q79 -22 114.5 -79t35.5 -159q0 -253 -97 -351.5t-337 -98.5q-175 0 -326 16q-33 3 -45 14t-12 33zM217 84 q102 -12 287 -12q98 0 158.5 17t96.5 60t49 105.5t13 163.5q0 110 -55 153t-205 43h-287zM285 709h241q121 0 180.5 15t86.5 67q49 90 49 245q0 82 -52.5 106.5t-216.5 24.5q-149 0 -241 -12z" />
<glyph unicode="C" horiz-adv-x="933" d="M111 344q0 83 28 342q8 80 18.5 145.5t24 118.5t28.5 94.5t35 73.5t39.5 54.5t46.5 38.5t52 25.5t60 15t66.5 7t74.5 1.5q163 0 288 -39q25 -7 35.5 -14t10.5 -21q0 -33 -7.5 -47.5t-25.5 -14.5q-6 0 -52 11t-114 21.5t-129 10.5q-50 0 -81.5 -2t-66 -10t-55 -22 t-42.5 -40t-35 -61.5t-27 -89t-23.5 -119.5t-19.5 -157q-25 -225 -25 -314q0 -55 6 -97t16 -72t28.5 -50.5t37.5 -32.5t50.5 -18t60.5 -8t73 -2q73 0 138.5 11t105.5 21.5t51 10.5q21 0 21 -21q0 -32 -10.5 -48.5t-44.5 -27.5q-105 -38 -281 -38q-43 0 -71.5 1.5t-65.5 6.5 t-61.5 15.5t-52 28t-44.5 44.5t-32 64t-22 88.5t-7 115.5z" />
<glyph unicode="D" horiz-adv-x="1050" d="M113 45q0 19 6 66l114 1077q6 46 56 53q144 19 299 19q64 0 108 -2.5t90.5 -11.5t77 -25t59 -43t44 -66t25 -94t9.5 -127q0 -78 -24 -318q-11 -104 -25 -184.5t-34.5 -141.5t-42 -104.5t-54.5 -73.5t-63.5 -47.5t-78 -26.5t-89.5 -12t-105 -3q-162 0 -313 16 q-33 4 -46 16t-13 33zM219 84q102 -12 277 -12q52 0 85.5 2t70.5 10t59.5 22.5t47 39.5t39.5 61t30.5 89t26 120.5t19.5 156.5q23 222 23 299q0 69 -6.5 116.5t-24 81t-39 52.5t-61.5 29t-80 13t-106 3q-126 0 -248 -12z" />
<glyph unicode="E" horiz-adv-x="929" d="M113 27q0 12 8 94l112 1087q3 24 14 32.5t44 8.5h604q13 0 18 -5.5t5 -22.5q0 -40 -8.5 -55t-24.5 -15h-553l-47 -440h450q12 0 17.5 -6t5.5 -23q0 -40 -8 -53t-25 -13h-451l-53 -518h572q12 0 17 -5.5t5 -22.5q0 -40 -8.5 -55t-24.5 -15h-624q-26 0 -35.5 6.5t-9.5 20.5 z" />
<glyph unicode="F" horiz-adv-x="864" d="M113 27q0 12 8 94l112 1087q3 24 14 32.5t44 8.5h583q13 0 18 -5.5t5 -22.5q0 -40 -8.5 -55t-24.5 -15h-532l-47 -440h430q12 0 17 -6t5 -23q0 -40 -7.5 -53t-24.5 -13h-431l-59 -575q-3 -24 -13.5 -32.5t-43.5 -8.5q-26 0 -35.5 6.5t-9.5 20.5z" />
<glyph unicode="G" horiz-adv-x="991" d="M113 344q0 101 26 342q8 80 18.5 145.5t24.5 118.5t28.5 94.5t35.5 73.5t41.5 54.5t49.5 38.5t56 25.5t65.5 15t73 7t82.5 1.5q133 0 258 -39q25 -7 35.5 -14t10.5 -21q0 -33 -7.5 -47.5t-25.5 -14.5q-6 0 -47 11t-104.5 21.5t-123.5 10.5q-55 0 -89 -2t-71 -10 t-58.5 -22t-44.5 -40t-36.5 -61t-27.5 -89t-23.5 -120t-19.5 -157q-25 -225 -25 -314q0 -56 6 -97.5t16 -71.5t29.5 -50.5t40 -32.5t54 -18t64.5 -8t79 -2q62 0 101.5 8t72.5 29t52.5 63t33.5 102.5t24 155.5l13 127h-246q-12 0 -17.5 6t-5.5 23q0 40 8 54.5t25 14.5h293 q29 0 40 -6.5t11 -23.5q0 -21 -2 -37l-16 -158q-15 -142 -39.5 -226.5t-74 -136t-118 -69.5t-180.5 -18q-44 0 -73 1t-64.5 5t-58.5 11t-49.5 20t-43 32t-33 46t-25 62.5t-14 82.5t-5.5 104z" />
<glyph unicode="H" horiz-adv-x="1050" d="M113 27q0 19 4 55l116 1126q3 24 14 32.5t44 8.5q27 0 36 -5.5t9 -20.5q0 -20 -4 -56l-49 -462h546l54 503q3 24 13.5 32.5t43.5 8.5q27 0 36 -5.5t9 -20.5q0 -20 -4 -56l-117 -1126q-3 -24 -13.5 -32.5t-43.5 -8.5q-27 0 -36 6t-9 21q0 19 4 55l53 524h-547l-57 -565 q-3 -24 -13.5 -32.5t-43.5 -8.5q-27 0 -36 6t-9 21z" />
<glyph unicode="I" horiz-adv-x="393" d="M113 27q0 19 4 55l116 1126q3 24 14 32.5t44 8.5q27 0 36 -5.5t9 -20.5q0 -20 -4 -56l-117 -1126q-3 -24 -13.5 -32.5t-43.5 -8.5q-27 0 -36 6t-9 21z" />
<glyph unicode="J" horiz-adv-x="698" d="M31 41q0 18 2.5 29.5t8 16t9.5 6t12 1.5q3 0 65 -11t114 -11q110 0 151.5 43.5t55.5 171.5l98 921q3 24 13.5 32.5t43.5 8.5q27 0 36 -5.5t9 -20.5q0 -20 -4 -56l-96 -901q-17 -150 -93.5 -218t-211.5 -68q-96 0 -170 22q-43 11 -43 39z" />
<glyph unicode="K" horiz-adv-x="880" d="M113 27q0 19 4 55l116 1126q3 24 14 32.5t44 8.5q27 0 36 -5.5t9 -20.5q0 -20 -4 -56l-51 -481h24l504 541q12 13 27.5 17.5t46.5 4.5q28 0 39.5 -5t11.5 -19q0 -18 -31 -49l-518 -537l428 -576q21 -28 21 -38q0 -25 -60 -25q-30 0 -43 4.5t-22 18.5l-414 583h-23 l-57 -565q-3 -24 -13.5 -32.5t-43.5 -8.5q-27 0 -36 6t-9 21z" />
<glyph unicode="L" horiz-adv-x="860" d="M113 27q0 12 8 94l112 1087q3 24 14 32.5t44 8.5q27 0 36 -5.5t9 -20.5q0 -20 -4 -56l-111 -1069h545q12 0 17 -5.5t5 -22.5q0 -40 -8 -55t-24 -15h-598q-26 0 -35.5 6.5t-9.5 20.5z" />
<glyph unicode="M" horiz-adv-x="1265" d="M113 27q0 19 4 55l116 1126q3 25 22.5 33t92.5 8q56 0 76.5 -10.5t30.5 -50.5l182 -725h12l334 725q19 40 42.5 50.5t80.5 10.5q43 0 65.5 -3.5t29.5 -9t7 -15.5q0 -20 -4 -52l-117 -1128q-3 -24 -13.5 -32.5t-43.5 -8.5q-27 0 -36 6t-9 21q0 19 4 55l111 1065h-19 l-370 -770q-13 -26 -29.5 -33.5t-50.5 -7.5t-49.5 7.5t-22.5 33.5l-211 770h-18l-115 -1106q-3 -24 -13.5 -32.5t-43.5 -8.5q-27 0 -36 6t-9 21z" />
<glyph unicode="N" horiz-adv-x="1105" d="M113 27q0 19 4 55l116 1126q3 24 22.5 32.5t82.5 8.5q55 0 71 -7t25 -34l369 -1106h20l115 1106q3 24 13.5 32.5t43.5 8.5q27 0 36 -5.5t9 -20.5q0 -20 -4 -56l-116 -1126q-3 -24 -22.5 -32.5t-82.5 -8.5q-55 0 -71 7t-25 34l-369 1106h-20l-115 -1106 q-3 -24 -13.5 -32.5t-43.5 -8.5q-27 0 -36 6t-9 21z" />
<glyph unicode="O" horiz-adv-x="1038" d="M113 358q0 127 29 349.5t61 322.5q20 60 47 101t60 66.5t81.5 39.5t99 18.5t125.5 4.5q54 0 92.5 -2.5t80 -11.5t69 -25.5t54.5 -44.5t42 -68t24 -96.5t9 -130.5q0 -127 -29 -349.5t-61 -322.5q-20 -60 -47.5 -101t-60 -66.5t-81.5 -39t-99.5 -18t-125.5 -4.5 q-55 0 -92.5 2.5t-79.5 11.5t-69.5 25t-54 44t-41.5 68t-24 96.5t-9 130.5zM213 340q0 -89 14 -141.5t50.5 -81t84 -37t130.5 -8.5q143 0 209 30.5t100 128.5q30 87 58 315t28 353q0 89 -14 141.5t-50.5 81t-84 37t-130.5 8.5q-143 0 -209 -30.5t-100 -128.5 q-30 -87 -58 -315t-28 -353z" />
<glyph unicode="P" horiz-adv-x="989" d="M113 27q0 19 4 55l112 1106q3 22 20 36t38 17q144 19 288 19q84 0 139.5 -5t104.5 -19.5t76.5 -41.5t43 -71t15.5 -107q0 -132 -22.5 -222t-75 -152.5t-140.5 -91t-218 -28.5h-234l-49 -481q-3 -24 -13.5 -32.5t-43.5 -8.5q-27 0 -36 6t-9 21zM272 614h236 q95 0 156.5 17.5t102.5 62t58 118t17 189.5q0 100 -57 133t-222 33q-107 0 -233 -12z" />
<glyph unicode="Q" horiz-adv-x="1038" d="M113 358q0 127 29 349.5t61 322.5q20 60 47 101t60 66.5t81.5 39.5t99 18.5t125.5 4.5q54 0 92.5 -2.5t80 -11.5t69 -25.5t54.5 -44.5t42 -68t24 -96.5t9 -130.5q0 -127 -29 -349.5t-61 -322.5q-27 -83 -68 -130t-102 -71l68 -172q12 -28 12 -41q0 -22 -51 -22 q-26 0 -36 4t-15 16l-72 195q-60 -8 -150 -8q-55 0 -92.5 2.5t-79.5 11.5t-69.5 25t-54 44t-41.5 68t-24 96.5t-9 130.5zM213 340q0 -89 14 -141.5t50.5 -81t84 -37t130.5 -8.5q143 0 209 30.5t100 128.5q30 87 58 315t28 353q0 89 -14 141.5t-50.5 81t-84 37t-130.5 8.5 q-143 0 -209 -30.5t-100 -128.5q-30 -87 -58 -315t-28 -353z" />
<glyph unicode="R" horiz-adv-x="1003" d="M113 27q0 19 4 55l112 1106q3 22 20 36t38 17q144 19 288 19q84 0 139.5 -5t104.5 -19.5t76.5 -41.5t43 -71t15.5 -107q0 -200 -59.5 -302.5t-206.5 -133.5l178 -500q17 -47 17 -55q0 -25 -58 -25q-29 0 -39.5 6t-15.5 19l-182 540q-27 -2 -86 -2h-234l-53 -522 q-3 -24 -13.5 -32.5t-43.5 -8.5q-27 0 -36 6t-9 21zM276 655h236q77 0 129 8.5t94.5 30t66 61t36 99.5t12.5 147q0 100 -59.5 133t-225.5 33q-109 0 -235 -12z" />
<glyph unicode="S" horiz-adv-x="899" d="M41 59q0 60 35 60q10 0 55 -11.5t114 -23.5t138 -12q91 0 148 13t94 50q34 34 54.5 105t20.5 137q0 60 -20 95.5t-66 57.5l-268 123q-106 48 -145 96.5t-39 137.5q0 67 16.5 135.5t42.5 112.5q38 66 110.5 95.5t192.5 29.5q68 0 154.5 -11t142.5 -30q23 -6 32 -15t9 -24 q0 -60 -31 -60q-6 0 -49.5 12t-112 23.5t-134.5 11.5q-100 0 -150 -15t-76 -60q-41 -67 -41 -195q0 -52 21 -82.5t76 -56.5l292 -133q86 -40 119 -92.5t33 -135.5q0 -87 -30.5 -181.5t-84.5 -145.5q-92 -87 -303 -90q-183 0 -305 38q-28 8 -36.5 17t-8.5 24z" />
<glyph unicode="T" horiz-adv-x="864" d="M123 1180q0 40 8 54.5t25 14.5h733q12 0 17 -5.5t5 -22.5q0 -40 -8 -55t-24 -15h-316l-117 -1110q-3 -24 -13.5 -32.5t-43.5 -8.5q-27 0 -36 6t-9 21q0 19 4 55l113 1069h-316q-12 0 -17 6t-5 23z" />
<glyph unicode="U" horiz-adv-x="1044" d="M127 270q0 44 20 240l74 698q3 24 14 32.5t44 8.5q27 0 36 -5.5t9 -20.5q0 -11 -5 -56l-65 -667q-21 -217 -21 -221q0 -107 55.5 -152t198.5 -45q112 0 176 28.5t93 83.5t39 154l90 860q3 24 13.5 32.5t43.5 8.5q27 0 36 -5.5t9 -20.5q0 -20 -4 -56l-82 -819 q-20 -197 -121 -282.5t-303 -85.5q-182 0 -266 67.5t-84 222.5z" />
<glyph unicode="V" horiz-adv-x="1024" d="M139 1229q0 13 12.5 16.5t41.5 3.5q30 0 40 -5t13 -19l229 -1127h25l458 1127q6 14 19 19t43 5q29 0 40 -3.5t11 -16.5q-4 -16 -18 -51l-475 -1137q-12 -27 -29 -34t-70 -7t-68.5 7t-21.5 34l-237 1114q-13 57 -13 74z" />
<glyph unicode="W" horiz-adv-x="1622" d="M137 1219q1 15 12.5 20.5t38.5 5.5q53 0 56 -24l153 -1123h25l379 1090q9 25 32 33t72 8t69 -8t23 -33l154 -1090h25l387 1123q9 24 59 24q26 0 36.5 -5.5t10.5 -20.5q0 -6 -16 -56q-70 -207 -214 -604.5t-186 -517.5q-10 -27 -27.5 -34t-72.5 -7t-71.5 7t-20.5 34 l-158 1081h-20l-383 -1081q-10 -27 -28 -34t-73 -7t-71.5 7t-20.5 34l-166 1143q-4 20 -4 35z" />
<glyph unicode="X" horiz-adv-x="919" d="M14 25q0 13 19 38l397 576l-254 539q-16 33 -16 45q0 15 12.5 20.5t42.5 5.5q32 0 45.5 -4.5t20.5 -19.5l217 -496h8l317 494q18 26 66 26q55 0 55 -24q0 -15 -18 -39l-371 -547l272 -576q13 -26 13 -38q0 -25 -60 -25q-31 0 -43 5t-20 20l-230 526h-10l-344 -524 q-11 -16 -24 -21.5t-43 -5.5q-52 0 -52 25z" />
<glyph unicode="Y" horiz-adv-x="925" d="M133 1227q0 22 57 22q32 0 45 -4.5t19 -19.5l219 -607h8l346 607q9 14 24.5 19t47.5 5q47 0 47 -22q0 -15 -16 -41l-414 -686l-47 -459q-3 -24 -13.5 -32.5t-43.5 -8.5q-27 0 -36 6t-9 21q0 19 4 55l43 418l-271 686q-10 27 -10 41z" />
<glyph unicode="Z" horiz-adv-x="866" d="M20 53q0 23 6.5 37.5t26.5 40.5l715 1020h-557q-12 0 -17.5 6t-5.5 23q0 40 8 54.5t25 14.5h635q23 0 29 -10t6 -43q0 -34 -31 -78l-713 -1020h603q11 0 15.5 -5.5t4.5 -22.5q0 -40 -8.5 -55t-24.5 -15h-682q-23 0 -29 10t-6 43z" />
<glyph unicode="[" horiz-adv-x="456" d="M109 -106q0 16 6 65l141 1358q3 25 13 33t42 8h236q12 0 17 -6t5 -23q0 -37 -8 -51t-24 -14h-185l-135 -1303h205q12 0 17 -6t5 -23q0 -37 -8 -51t-24 -14h-256q-27 0 -37 6t-10 21z" />
<glyph unicode="\" horiz-adv-x="483" d="M45 1343q0 23 49 23q31 0 42.5 -7.5t17.5 -33.5l311 -1399q8 -35 8 -45q0 -22 -49 -22q-31 0 -42 7.5t-17 33.5l-312 1398q-8 35 -8 45z" />
<glyph unicode="]" horiz-adv-x="456" d="M-57 -104q0 38 8 51.5t24 13.5h185l135 1303h-205q-12 0 -17 5.5t-5 22.5q0 38 8 52t24 14h256q27 0 37 -6t10 -21t-6 -65l-141 -1358q-3 -25 -13 -33t-42 -8h-236q-12 0 -17 6t-5 23z" />
<glyph unicode="^" d="M195 729q0 14 28 64l252 415q15 26 33.5 33.5t66.5 7.5q47 0 62.5 -7.5t24.5 -33.5l149 -415q18 -52 18 -58q0 -14 -11 -21t-40 -7q-33 0 -43.5 6.5t-19.5 31.5l-146 408h-12l-233 -408q-13 -24 -27.5 -31t-50.5 -7q-51 0 -51 22z" />
<glyph unicode="_" horiz-adv-x="909" d="M29 -102q0 36 8 55q6 14 24 14h719q13 0 18 -5.5t5 -22.5q0 -37 -8 -56q-6 -14 -25 -14h-719q-12 0 -17 6t-5 23z" />
<glyph unicode="`" horiz-adv-x="403" d="M131 1382q0 12 11 17.5t46 5.5q34 0 48 -6t24 -21q76 -114 111.5 -169t42 -67t6.5 -18q0 -18 -41 -18q-31 0 -43.5 6t-26.5 23l-151 198q-27 36 -27 49z" />
<glyph unicode="a" horiz-adv-x="989" d="M94 242q0 118 21.5 295t52.5 258q46 121 132 175t216 54q89 0 146.5 -15.5t81.5 -37.5t38 -56l6 56q3 20 14.5 26.5t41.5 6.5q18 0 28 -4t12.5 -9.5t2.5 -13.5q0 -21 -36 -350.5t-36 -376.5q0 -26 6 -114.5t6 -106.5q0 -15 -8.5 -22t-34.5 -7q-27 0 -37 6.5t-12 22.5 l-14 164q-106 -213 -363 -213q-141 0 -202.5 61t-61.5 201zM197 250q0 -100 43.5 -139t140.5 -39q149 0 243 94.5t115 279.5q27 243 27 308q0 87 -51.5 132.5t-188.5 45.5q-104 0 -167 -35.5t-97 -126.5q-24 -66 -44.5 -234.5t-20.5 -285.5z" />
<glyph unicode="b" horiz-adv-x="1048" d="M123 152q0 33 12 143l103 995q3 26 13 33.5t42 7.5q29 0 39 -4.5t10 -21.5t-14 -146l-33 -299q56 94 137.5 129t212.5 35q84 0 136 -12t88.5 -44.5t51.5 -89t15 -147.5q0 -78 -10.5 -184.5t-41 -236.5t-75.5 -193q-57 -79 -140.5 -108t-213.5 -29q-100 0 -168.5 14 t-102.5 39.5t-47.5 53.5t-13.5 65zM225 176q0 -36 16.5 -57t71 -34t154.5 -13q103 0 165.5 23.5t100.5 84.5q47 73 71.5 251t24.5 294q0 125 -43 166t-163 41q-174 0 -256.5 -96.5t-104.5 -303.5q-37 -345 -37 -356z" />
<glyph unicode="c" horiz-adv-x="843" d="M96 287q0 113 20.5 262.5t55.5 249.5q21 61 52 103.5t63 66t77 36.5t81.5 16t89.5 3q48 0 116.5 -9.5t104.5 -21.5q29 -9 37 -17t8 -26q0 -30 -7 -39.5t-20 -9.5q-7 0 -43 8.5t-93.5 16.5t-117.5 8q-108 0 -162 -30t-86 -122q-31 -86 -51 -237t-20 -262q0 -129 48.5 -171 t184.5 -42q62 0 123 13t98.5 26.5t42.5 13.5q15 0 15 -23q0 -37 -8.5 -50.5t-34.5 -22.5q-124 -47 -262 -47q-57 0 -97.5 4.5t-78 16t-61 33t-41.5 55.5t-26 83t-8 115z" />
<glyph unicode="d" horiz-adv-x="999" d="M94 242q0 118 21.5 295t52.5 258q46 121 132 175t216 54q129 0 186 -27t78 -79l37 372q3 26 13 33.5t42 7.5q29 0 39.5 -4.5t10.5 -21.5q0 -7 -15 -146l-65 -614q-3 -33 -11.5 -102t-12 -111.5t-3.5 -81.5q0 -26 6 -114.5t6 -106.5q0 -15 -8.5 -22t-34.5 -7 q-27 0 -37 6.5t-12 22.5l-14 164q-106 -213 -363 -213q-141 0 -202.5 61t-61.5 201zM197 250q0 -100 43.5 -139t140.5 -39q150 0 244 94.5t114 279.5q27 237 27 308q0 87 -51.5 132.5t-188.5 45.5q-104 0 -167 -35.5t-97 -126.5q-24 -66 -44.5 -234.5t-20.5 -285.5z" />
<glyph unicode="e" horiz-adv-x="899" d="M96 287q0 291 76 512q21 61 52 103.5t63.5 66t79 36.5t84.5 16t94 3q85 0 140 -12.5t83 -39t38.5 -58.5t10.5 -80q0 -134 -30.5 -213.5t-108.5 -114.5q-60 -28 -139.5 -41.5t-259.5 -13.5h-72q-6 -86 -6 -168q0 -129 50 -171t193 -42q62 0 126 13t104 26.5t45 13.5 q14 0 14 -23q0 -37 -8.5 -50.5t-34.5 -22.5q-124 -47 -272 -47q-91 0 -145.5 10.5t-97.5 43t-61 93.5t-18 160zM217 543h49q181 0 260.5 13.5t118.5 37.5q24 15 37 30t25 65t12 132q0 30 -6 48t-24.5 34t-57.5 23.5t-101 7.5q-110 0 -168 -30.5t-90 -121.5 q-39 -108 -55 -239z" />
<glyph unicode="f" horiz-adv-x="585" d="M-135 -342q0 27 7.5 40t16.5 13q7 0 51 -4t76 -4q49 0 72 11.5t36 48t21 118.5l107 1032h-146q-18 0 -18 21q0 36 8 57q5 13 21 13h145l10 102q9 100 39 158q49 88 181 88q56 0 114 -13q26 -6 34.5 -11.5t8.5 -18.5q0 -62 -28 -62q-7 0 -50.5 6.5t-78.5 6.5 q-47 0 -68 -10t-34 -46t-21 -117l-11 -83h209q19 0 19 -21q0 -36 -8 -57q-5 -13 -21 -13h-205l-110 -1056q-14 -131 -63 -188.5t-167 -57.5q-56 0 -104 10q-24 4 -33.5 13t-9.5 24z" />
<glyph unicode="g" horiz-adv-x="980" d="M37 -328q0 20 7.5 40t23.5 20q11 0 48 -6t103.5 -11.5t149.5 -5.5q158 0 229.5 77.5t89.5 250.5l12 119q-112 -176 -342 -176q-141 0 -202.5 61t-61.5 201q0 118 21.5 295t52.5 258q46 121 132 175t216 54q89 0 146.5 -15.5t81.5 -37.5t38 -56l6 56q3 20 14.5 26.5 t41.5 6.5q18 0 28 -4t12.5 -9.5t2.5 -13.5q0 -15 -29 -295l-65 -625q-13 -130 -51 -219.5t-98 -138t-130 -68.5t-162 -20q-129 0 -272 20q-23 3 -33 11t-10 30zM197 250q0 -100 43.5 -139t140.5 -39q149 0 243 94.5t115 279.5q27 243 27 308q0 87 -51.5 132.5t-188.5 45.5 q-104 0 -167 -35.5t-97 -126.5q-24 -66 -44.5 -234.5t-20.5 -285.5z" />
<glyph unicode="h" horiz-adv-x="1028" d="M109 27q0 16 14 145l117 1118q3 26 13 33.5t42 7.5q29 0 39 -4.5t10 -21.5q0 -14 -14 -146l-31 -297q47 87 128.5 124.5t219.5 37.5q143 0 195.5 -51t52.5 -164q0 -39 -26.5 -283.5t-26.5 -326.5q0 -39 11 -101.5t11 -64.5q0 -21 -8.5 -27t-38.5 -6q-28 0 -38 6.5 t-15 26.5q-9 32 -17 85.5t-8 78.5q0 63 27 305t27 299q0 73 -37 102t-129 29q-175 0 -258 -90t-105 -301l-51 -500q-3 -26 -13 -33.5t-42 -7.5q-29 0 -39 5t-10 22z" />
<glyph unicode="i" horiz-adv-x="419" d="M133 197q0 58 23 288l47 478q3 26 13 33.5t42 7.5q29 0 39 -5t10 -22t-35.5 -348t-35.5 -430q0 -39 11 -101.5t11 -64.5q0 -21 -8.5 -27t-38.5 -6q-28 0 -38 6.5t-15 26.5q-9 32 -17 85.5t-8 78.5zM223 1227q0 1 6 63q3 26 16.5 33.5t49.5 7.5q33 0 45 -6t12 -25 q0 -2 -6 -63q-3 -26 -16 -33.5t-49 -7.5q-33 0 -45.5 6t-12.5 25z" />
<glyph unicode="j" horiz-adv-x="401" d="M-186 -338q0 27 7.5 40t16.5 13q7 0 52.5 -6t80.5 -6q44 0 66.5 10.5t32.5 36.5q10 24 22 127l111 1086q3 26 13 33.5t42 7.5q29 0 39 -5t10 -22q0 -8 -31 -313l-83 -807q-12 -130 -61 -188t-161 -58q-51 0 -114 14q-25 6 -34 14t-9 23zM223 1227q0 1 6 63 q3 26 16.5 33.5t49.5 7.5q33 0 45 -6t12 -25q0 -2 -6 -63q-3 -26 -16 -33.5t-49 -7.5q-33 0 -45.5 6t-12.5 25z" />
<glyph unicode="k" horiz-adv-x="841" d="M109 27q0 16 14 145l117 1118q3 26 13 33.5t42 7.5q29 0 39 -4.5t10 -21.5t-14 -146l-64 -594h10q79 64 197 185t180 206q25 34 36 41t42 7q49 0 49 -25q0 -33 -82.5 -128t-173.5 -182.5t-162 -148.5q62 -94 156.5 -209t161.5 -182q14 -14 30.5 -29.5t26.5 -24.5 t19.5 -19t13.5 -17t4 -14q0 -25 -41 -25q-47 0 -61.5 4.5t-36.5 24.5q-84 76 -194 214.5t-171 233.5h-12l-45 -436q-3 -26 -13 -33.5t-42 -7.5q-29 0 -39 5t-10 22z" />
<glyph unicode="l" horiz-adv-x="419" d="M133 197q0 58 23 288l82 805q3 26 13 33.5t42 7.5q29 0 39 -4.5t10 -21.5t-14 -146l-66 -614q-3 -29 -9 -77.5t-9 -77.5t-5.5 -80t-2.5 -111q0 -39 11 -101.5t11 -64.5q0 -21 -8.5 -27t-38.5 -6q-28 0 -38 6.5t-15 26.5q-9 32 -17 85.5t-8 78.5z" />
<glyph unicode="m" horiz-adv-x="1574" d="M117 27q0 7 20 194q51 489 51 535q0 31 -11 119.5t-11 97.5q0 15 9.5 23t41.5 8q30 0 39 -6t12 -27l21 -144q88 197 346 197q124 0 179.5 -39.5t64.5 -122.5q92 162 319 162q143 0 195.5 -51t52.5 -164q0 -39 -30 -283.5t-30 -326.5q0 -39 11.5 -101.5t11.5 -64.5 q0 -21 -8.5 -27t-38.5 -6q-28 0 -38 6.5t-15 26.5q-9 32 -17 85.5t-8 78.5q0 63 29.5 305t29.5 299q0 73 -36.5 102t-128.5 29q-158 0 -230 -89t-94 -302l-51 -500q-3 -26 -13 -33.5t-42 -7.5q-29 0 -39.5 5t-10.5 22l7 63q75 668 75 711q0 73 -37 102t-129 29 q-160 0 -240 -90.5t-102 -300.5l-51 -500q-3 -26 -13 -33.5t-42 -7.5q-29 0 -39 5t-10 22z" />
<glyph unicode="n" horiz-adv-x="1032" d="M117 27q0 3 10 108q61 615 61 621q0 31 -11 119.5t-11 97.5q0 15 9.5 23t41.5 8q30 0 39 -6t12 -27l21 -146q46 107 130.5 153t235.5 46q143 0 195.5 -51t52.5 -164q0 -39 -29.5 -283.5t-29.5 -326.5q0 -39 11 -101.5t11 -64.5q0 -21 -8.5 -27t-38.5 -6q-28 0 -38 6.5 t-15 26.5q-9 32 -17 85.5t-8 78.5q0 63 30 305t30 299q0 73 -37 102t-129 29q-175 0 -258 -90t-105 -301l-51 -500q-3 -26 -13 -33.5t-42 -7.5q-29 0 -39 5t-10 22z" />
<glyph unicode="o" horiz-adv-x="976" d="M94 287q0 115 22 277t58 249q49 116 137 163.5t244 47.5q89 0 146 -12.5t100 -46t61.5 -93.5t18.5 -155q0 -115 -22 -277.5t-58 -249.5q-49 -115 -137 -162.5t-244 -47.5q-89 0 -146 12.5t-100 46t-61.5 93.5t-18.5 155zM199 283q0 -128 47 -169.5t182 -41.5 q119 0 181 29.5t96 111.5q32 74 51.5 240.5t19.5 267.5q0 128 -47.5 170.5t-183.5 42.5q-117 0 -179 -30.5t-96 -112.5q-32 -74 -51.5 -240.5t-19.5 -267.5z" />
<glyph unicode="p" horiz-adv-x="1026" d="M74 -362q0 16 14 145l72 676q3 31 9 81.5t9 79.5t5.5 66.5t2.5 67.5q0 26 -6 114.5t-6 106.5q0 15 8.5 22t34.5 7q27 0 37 -6.5t12 -22.5l13 -146q56 113 139.5 154t224.5 41q84 0 136 -12t88.5 -44.5t51.5 -89t15 -147.5q0 -116 -24 -292t-74 -275q-52 -102 -135.5 -143 t-215.5 -41q-199 0 -264 110l-43 -438q-3 -26 -13 -33.5t-42 -7.5q-29 0 -39 5t-10 22zM238 250q0 -87 55 -132.5t201 -45.5q99 0 158 29.5t96 105.5q39 81 59 246t20 272q0 125 -43 166t-163 41q-173 0 -254 -96t-105 -304l-14 -126q-10 -85 -10 -156z" />
<glyph unicode="q" horiz-adv-x="980" d="M94 242q0 118 21.5 295t52.5 258q46 121 132 175t216 54q89 0 146.5 -15.5t81.5 -37.5t38 -56l6 56q3 20 14.5 26.5t41.5 6.5q18 0 28 -4t12.5 -9.5t2.5 -13.5q0 -17 -15 -148l-122 -1177q-3 -26 -13.5 -33.5t-42.5 -7.5q-29 0 -39 5t-10 22q0 16 14 145l41 373 q-112 -176 -342 -176q-141 0 -202.5 61t-61.5 201zM197 250q0 -100 43.5 -139t140.5 -39q308 0 358 374q27 218 27 308q0 87 -51.5 132.5t-188.5 45.5q-104 0 -167 -35.5t-97 -126.5q-24 -66 -44.5 -234.5t-20.5 -285.5z" />
<glyph unicode="r" horiz-adv-x="688" d="M117 27q0 9 6 63l61 592q4 58 4 74q0 31 -11 119.5t-11 97.5q0 15 9.5 23t41.5 8q30 0 39 -6t12 -27l21 -148q46 103 124 152t199 49q40 0 52 -12q6 -6 6 -21q0 -27 -8 -47q-7 -14 -23 -14q-4 0 -20.5 1t-30.5 1q-276 0 -316 -389l-51 -502q-3 -26 -13 -33.5t-42 -7.5 q-29 0 -39 5t-10 22z" />
<glyph unicode="s" horiz-adv-x="806" d="M37 53q0 58 22 58q3 0 87 -20.5t169 -20.5q143 0 211 51.5t68 175.5q0 54 -20 83t-74 52l-224 94q-88 38 -125.5 90.5t-37.5 133.5q0 55 18.5 109t48.5 87q69 78 250 78q112 0 227 -31q26 -7 33.5 -15.5t7.5 -25.5q0 -31 -7 -41t-19 -10q-7 0 -43 8.5t-92.5 16.5 t-114.5 8q-90 0 -135 -23q-30 -15 -49 -60t-19 -101q0 -45 19 -75.5t69 -51.5l219 -91q101 -42 137.5 -87t36.5 -121q0 -179 -100 -263q-97 -81 -293 -81q-117 0 -229 32q-26 7 -33.5 16t-7.5 25z" />
<glyph unicode="t" horiz-adv-x="628" d="M92 934q0 36 8 57q5 13 21 13h139l19 163q3 26 13.5 33.5t43.5 7.5q31 0 38 -7.5t7 -33.5q0 -11 -3.5 -38.5t-8.5 -66t-7 -58.5h209q19 0 19 -21q0 -36 -8 -57q-5 -13 -21 -13h-205l-71 -667q-6 -56 -6 -88q0 -54 18.5 -70t71.5 -16q36 0 80 6t49 6q14 0 18 -6.5t4 -24.5 q0 -29 -9 -40.5t-44 -20.5q-54 -12 -119 -12q-95 0 -133.5 40t-38.5 130q0 24 10 126l66 637h-141q-19 0 -19 21z" />
<glyph unicode="u" horiz-adv-x="1015" d="M135 195q0 18 4 55t8.5 71.5t13 98t13.5 98.5q29 230 29 287q0 39 -11.5 101.5t-11.5 64.5q0 21 8.5 27t38.5 6q28 0 38.5 -7t15.5 -26q9 -31 16.5 -84.5t7.5 -79.5q0 -63 -33.5 -305t-33.5 -299q0 -73 36.5 -102t128.5 -29q173 0 252 89t101 302l51 500q3 26 13 33.5 t42 7.5q29 0 39 -5t10 -22q0 -29 -35.5 -361t-35.5 -366q0 -26 6 -114.5t6 -106.5q0 -15 -8.5 -22t-34.5 -7q-27 0 -37 6.5t-12 22.5l-15 159q-42 -105 -129 -156.5t-233 -51.5q-143 0 -195.5 51t-52.5 164z" />
<glyph unicode="v" horiz-adv-x="845" d="M86 973q0 17 11.5 24t41.5 7q36 0 47.5 -10t18.5 -52q17 -93 47.5 -265t56.5 -314t51 -269h21q153 332 342 848q17 43 29.5 52.5t48.5 9.5q45 0 45 -27q0 -17 -60 -162q-4 -9 -69.5 -171.5t-132.5 -317.5t-131 -285q-13 -26 -33 -33.5t-64 -7.5q-43 0 -59.5 7.5 t-22.5 33.5l-178 870q-10 42 -10 62z" />
<glyph unicode="w" horiz-adv-x="1372" d="M92 973q0 31 55 31q37 0 49 -8.5t15 -39.5q50 -436 111 -862h20l289 828q12 36 31 48.5t69 12.5q48 0 64 -12t22 -49l123 -828h21q109 290 282 862q9 31 22.5 39.5t49.5 8.5q28 0 36.5 -6t8.5 -19q0 -21 -45 -160q-125 -390 -277 -776q-10 -26 -31.5 -34.5t-64.5 -8.5 q-50 0 -71 7.5t-25 33.5l-123 825h-10q-197 -587 -291 -823q-10 -26 -33 -34.5t-72 -8.5q-44 0 -63 7.5t-23 33.5l-131 870q-8 50 -8 62z" />
<glyph unicode="x" horiz-adv-x="847" d="M-4 25q0 17 22 45l336 458l-215 402q-18 37 -18 47q0 27 57 27q28 0 39 -5t19 -20l188 -367h8l258 359q13 20 26.5 26.5t39.5 6.5q57 0 57 -23q0 -10 -35 -59l-299 -400l244 -452q14 -25 14 -39q0 -31 -55 -31q-46 0 -59 27l-213 411h-9l-286 -409q-13 -18 -27.5 -23.5 t-40.5 -5.5q-51 0 -51 25z" />
<glyph unicode="y" horiz-adv-x="868" d="M-47 -334q0 28 7.5 38.5t23.5 10.5q4 0 48 -6t91 -6q59 0 100 29t78 112l68 156q-32 2 -48.5 15.5t-23.5 47.5l-193 818q-18 81 -18 92q0 17 12 24q14 7 43 7q28 0 38 -4.5t14 -20.5q3 -11 37 -170t80.5 -369t78.5 -342h21q184 450 338 881q6 16 18 20.5t41 4.5 q32 0 41.5 -6.5t9.5 -20.5q0 -15 -27 -84q-91 -244 -225 -573t-219 -515q-45 -98 -106 -146t-156 -48q-77 0 -131 14q-23 6 -32 14.5t-9 26.5z" />
<glyph unicode="z" horiz-adv-x="776" d="M0 47q0 44 12 66q5 11 62 77q325 374 561 719h-463q-20 0 -20 21q0 38 10 61q5 13 20 13h537q23 0 30 -6.5t7 -28.5q0 -59 -33 -103q-313 -434 -604 -762h524q21 0 21 -20q0 -36 -11 -61q-5 -13 -20 -13h-596q-22 0 -29.5 8t-7.5 29z" />
<glyph unicode="{" horiz-adv-x="501" d="M82 590q0 41 12 61q8 13 25 13q55 0 81 25.5t33 90.5q6 54 19.5 202t21.5 220q8 87 41.5 125.5t118.5 38.5q70 0 148 -12q19 -3 25.5 -8t6.5 -17q0 -20 -8.5 -40.5t-23.5 -20.5q-14 0 -67 3t-87 3q-26 0 -37.5 -17.5t-15.5 -66.5q-8 -71 -19 -210.5t-18 -197.5 q-20 -154 -117 -164l-2 -8q44 -4 65 -39.5t21 -89.5q0 -27 -26.5 -234t-26.5 -245q0 -51 35 -51q49 0 97 3t56 3q15 0 21 -5.5t6 -21.5q0 -52 -35 -59q-67 -12 -156 -12q-72 0 -100.5 29t-28.5 96q0 55 27 252.5t27 242.5q0 46 -23.5 66t-73.5 20q-22 0 -22 25z" />
<glyph unicode="|" horiz-adv-x="294" d="M27 -362q0 19 4 55l172 1632q3 25 12 33t41 8q26 0 33.5 -5.5t7.5 -21.5q0 -19 -4 -55l-172 -1632q-3 -25 -12 -33t-41 -8q-24 0 -32.5 6t-8.5 21z" />
<glyph unicode="}" horiz-adv-x="501" d="M-70 -104q0 19 9 40t24 21q14 0 67 -3t87 -3q26 0 37.5 17.5t15.5 66.5q8 71 19 210t18 197q20 154 117 164l2 8q-44 4 -65 39.5t-21 89.5q0 27 26.5 234.5t26.5 245.5q0 51 -35 51q-49 0 -97.5 -3t-56.5 -3q-15 0 -20.5 5t-5.5 21q0 53 35 60q68 12 155 12 q72 0 100.5 -29t28.5 -96q0 -55 -26.5 -252.5t-26.5 -243.5q0 -47 23 -66.5t73 -19.5q23 0 23 -24q0 -42 -12 -62q-7 -12 -25 -12q-55 0 -81.5 -26t-33.5 -91q-6 -54 -19.5 -201.5t-21.5 -219.5q-8 -87 -41 -125.5t-118 -38.5q-70 0 -148 12q-19 3 -26 8t-7 17z" />
<glyph unicode="~" d="M193 520q0 48 22 68q24 21 65 33t80 12q37 0 137 -22.5t132 -22.5q39 0 82.5 20.5t46.5 20.5q16 0 16 -27q0 -47 -22 -67q-24 -21 -65.5 -33.5t-80.5 -12.5q-37 0 -136.5 23t-131.5 23q-39 0 -82.5 -20.5t-46.5 -20.5q-16 0 -16 26z" />
<glyph unicode="&#xa2;" d="M156 461q0 82 16.5 194t46.5 201q37 108 109 150t188 47l19 155q3 24 13.5 32.5t43.5 8.5q27 0 36 -5.5t9 -20.5q0 -20 -4 -56l-15 -114q103 -7 175 -29q29 -9 37 -17t8 -26q0 -30 -7 -39.5t-20 -9.5q-7 0 -43 8t-93.5 16.5t-117.5 8.5q-108 0 -163 -27.5t-81 -108.5 q-53 -162 -53 -370q0 -94 50 -127t184 -33q62 0 123 12.5t98.5 24.5t42.5 12q14 0 14 -22q0 -37 -8.5 -51t-34.5 -23q-96 -36 -211 -45l-18 -166q-3 -24 -14 -32.5t-44 -8.5q-27 0 -36 6t-9 21q0 19 4 55l13 123q-136 8 -197 65.5t-61 190.5z" />
<glyph unicode="&#xa3;" d="M133 590q0 33 8 53q8 21 29 21h123l31 288q18 162 89.5 235t241.5 73q126 0 224 -27q27 -7 34 -14t7 -19q0 -59 -25 -59q-1 0 -84 13t-156 13q-124 0 -170 -46.5t-61 -188.5l-29 -268h174q23 0 23 -25q0 -33 -8 -53q-8 -21 -29 -21h-170l-12 -127q-22 -207 -97 -340h553 q13 0 18 -5.5t5 -22.5q0 -40 -8.5 -55t-24.5 -15h-622q-27 0 -37 6t-10 21q0 23 15 57.5t34 70.5t39 101t28 139l17 170h-127q-23 0 -23 25z" />
<glyph unicode="&#xa5;" d="M174 1225q0 14 12.5 19t40.5 5q32 0 45 -4.5t19 -19.5l221 -557h8l340 557q9 15 23.5 19.5t46.5 4.5q47 0 47 -22q0 -15 -16 -41l-394 -604h209q23 0 23 -25q0 -33 -8 -53q-8 -21 -29 -21h-217l-13 -127h220q22 0 22 -24q0 -33 -8 -53q-8 -21 -29 -21h-215l-22 -217 q-3 -24 -14 -32.5t-44 -8.5q-27 0 -36 6t-9 21q0 19 4 55l19 176h-221q-23 0 -23 25q0 33 8 53t29 20h217l12 127h-219q-22 0 -22 25q0 33 8 53q8 21 29 21h204l-252 594q-16 41 -16 49z" />
<glyph unicode="&#xa8;" horiz-adv-x="491" d="M162 1227q0 1 6 63q3 26 15 33.5t48 7.5q31 0 41.5 -6t10.5 -25q0 -2 -1 -8.5t-2.5 -21.5t-3.5 -33q-3 -26 -15 -33.5t-48 -7.5q-31 0 -41 6t-10 25zM403 1227q0 2 1 8.5t2.5 21.5t3.5 33q3 26 15 33.5t48 7.5q31 0 41 -6t10 -25q0 -2 -6 -63q-3 -26 -15 -33.5t-48 -7.5 q-31 0 -41.5 6t-10.5 25z" />
<glyph unicode="&#xa9;" horiz-adv-x="1843" d="M106 645q0 105 5 188t17.5 165t34 144.5t55 121.5t80 101t108.5 77.5t141.5 57t179 33t219.5 11.5t219.5 -11.5t179 -33t141.5 -57t108.5 -77.5t80 -101t55 -121.5t34 -144.5t17.5 -165t5 -188t-5 -188t-17.5 -165t-34 -144.5t-55 -121.5t-80 -101t-108.5 -77.5 t-141.5 -57t-179 -33t-219.5 -11.5t-219.5 11.5t-179 33t-141.5 57t-108.5 77.5t-80 101t-55 121.5t-34 144.5t-17.5 165t-5 188zM213 651q0 -158 11.5 -269t42.5 -205.5t82.5 -153.5t134.5 -101t195 -59t267 -17t267 17t195 59t134.5 101t82.5 153.5t42.5 205.5t11.5 269 q0 115 -6.5 203t-22.5 168.5t-41.5 138t-66.5 107t-95 81t-128 54t-165.5 32t-207.5 9.5t-207.5 -9.5t-165.5 -32t-128 -54t-95 -81t-66.5 -107t-41.5 -138t-22.5 -168.5t-6.5 -203zM582 633q0 105 10 187t26.5 138t45 95t57 61t72 34.5t80 15.5t90.5 3q106 0 239 -34 q29 -7 38 -18.5t9 -39.5q0 -27 -5 -34t-17 -7q-1 0 -99.5 21.5t-169.5 21.5q-66 0 -106 -8.5t-74.5 -33t-51.5 -73.5t-26.5 -125t-9.5 -192q0 -75 1.5 -125t7 -97t13 -75.5t23 -54.5t34 -38.5t48 -22t64 -12.5t82.5 -3q64 0 123.5 12.5t97 24.5t47.5 12q6 0 9.5 -2t6 -11.5 t2.5 -27.5q0 -26 -8.5 -36t-38.5 -21q-49 -19 -124 -32t-132 -13q-73 0 -121.5 6.5t-92.5 26t-69.5 53.5t-45.5 91.5t-27.5 138t-7.5 194.5z" />
<glyph unicode="&#xab;" horiz-adv-x="1122" d="M82 481q0 48 10 78q9 27 35 45l412 275q33 22 45 22q16 0 16 -35q0 -37 -8 -58.5t-33 -39.5l-362 -248l-2 -16l309 -248q26 -21 26 -47q0 -78 -26 -78q-14 0 -41 23l-348 270q-33 24 -33 57zM580 481q0 48 10 78q9 27 35 45l409 295q34 23 45 23q17 0 17 -35 q0 -37 -8 -59t-33 -40l-361 -268l-2 -16l305 -268q27 -22 27 -48q0 -24 -6 -50.5t-21 -26.5t-41 22l-344 291q-18 16 -25 27.5t-7 29.5z" />
<glyph unicode="&#xad;" horiz-adv-x="608" d="M82 528q0 34 8 54t29 20h401q23 0 23 -24q0 -34 -8 -54q-7 -20 -29 -20h-402q-22 0 -22 24z" />
<glyph unicode="&#xae;" horiz-adv-x="1843" d="M106 645q0 105 5 188t17.5 165t34 144.5t55 121.5t80 101t108.5 77.5t141.5 57t179 33t219.5 11.5t219.5 -11.5t179 -33t141.5 -57t108.5 -77.5t80 -101t55 -121.5t34 -144.5t17.5 -165t5 -188t-5 -188t-17.5 -165t-34 -144.5t-55 -121.5t-80 -101t-108.5 -77.5 t-141.5 -57t-179 -33t-219.5 -11.5t-219.5 11.5t-179 33t-141.5 57t-108.5 77.5t-80 101t-55 121.5t-34 144.5t-17.5 165t-5 188zM213 651q0 -158 11.5 -269t42.5 -205.5t82.5 -153.5t134.5 -101t195 -59t267 -17t267 17t195 59t134.5 101t82.5 153.5t42.5 205.5t11.5 269 q0 115 -6.5 203t-22.5 168.5t-41.5 138t-66.5 107t-95 81t-128 54t-165.5 32t-207.5 9.5t-207.5 -9.5t-165.5 -32t-128 -54t-95 -81t-66.5 -107t-41.5 -138t-22.5 -168.5t-6.5 -203zM606 184v922q0 22 15 36t36 17q141 19 267 19q81 0 133 -3.5t99.5 -14t74 -28.5t46 -50 t27 -75t7.5 -106q0 -147 -44.5 -216t-172.5 -91l235 -393q12 -20 12 -31q0 -15 -12 -21t-41 -6t-41 5.5t-20 19.5l-232 416h-282v-400q0 -24 -10.5 -32.5t-43.5 -8.5t-43 8.5t-10 32.5zM713 676h211q65 0 103 2t72.5 11t51.5 22.5t29.5 40.5t16 61t3.5 88q0 41 -4.5 68.5 t-17 48.5t-30.5 32.5t-51.5 19t-72.5 9.5t-100 2q-89 0 -211 -12v-393z" />
<glyph unicode="&#xb4;" horiz-adv-x="380" d="M152 1124q0 12 18 39l141 215q10 15 24 21t48 6q35 0 46 -5t11 -16q0 -16 -16 -38l-162 -211q-10 -12 -15.5 -17t-18.5 -8.5t-35 -3.5q-41 0 -41 18z" />
<glyph unicode="&#xb8;" horiz-adv-x="327" d="M-39 -344q0 22 8.5 37.5t20.5 15.5q6 0 32.5 -3t57.5 -3q24 0 36.5 2t23 13.5t10.5 33.5q0 18 -48 53q-31 23 -43 40t-12 44q0 23 4 52l10 88h78l-8 -68q-4 -28 -4 -37q0 -23 29 -43q60 -43 79 -65t19 -62q0 -72 -42.5 -107.5t-117.5 -35.5q-51 0 -102 14q-31 8 -31 31z " />
<glyph unicode="&#xbb;" horiz-adv-x="1122" d="M80 145q0 37 8 59t33 40l360 268l2 16l-305 269q-26 21 -26 47q0 78 26 78q14 0 41 -23l344 -291q19 -16 26 -27.5t7 -29.5q0 -48 -10 -78q-9 -27 -35 -45l-410 -295q-33 -22 -45 -22q-16 0 -16 34zM575 166q0 37 8 58.5t33 39.5l363 248l2 16l-309 248q-27 22 -27 47 q0 24 6 51t21 27t41 -22l348 -271q33 -24 33 -57q0 -45 -11 -78q-9 -28 -34 -45l-412 -274q-35 -23 -45 -23q-17 0 -17 35z" />
<glyph unicode="&#x2c6;" horiz-adv-x="532" d="M109 1126q0 13 18 39l152 205q16 21 30 28t49 7h39q35 0 46.5 -6.5t21.5 -26.5l106 -209q13 -29 13 -37q0 -20 -43 -20q-32 0 -46 6.5t-24 22.5l-98 182h-8l-136 -182q-20 -29 -84 -29q-23 0 -29.5 5t-6.5 15z" />
<glyph unicode="&#x2da;" horiz-adv-x="491" d="M154 1262q0 42 6 72t25 62t61.5 49t107.5 17q57 0 93.5 -8.5t54 -26t23 -36.5t5.5 -48q0 -42 -6 -72t-25 -62t-61.5 -49t-107.5 -17q-57 0 -93.5 8.5t-54 26t-23 36.5t-5.5 48zM246 1276q0 -31 17.5 -42t70.5 -11q62 0 83 23t21 83q0 31 -17.5 42t-70.5 11q-62 0 -83 -23 t-21 -83z" />
<glyph unicode="&#x2dc;" horiz-adv-x="573" d="M137 1190q0 32 10 48.5t41 33.5q62 31 117 31q39 0 98.5 -21.5t88.5 -21.5q39 0 82.5 20t46.5 20q16 0 16 -20q0 -32 -10 -48.5t-41 -33.5q-62 -31 -117 -31q-39 0 -98 21.5t-88 21.5q-39 0 -82.5 -20.5t-46.5 -20.5q-17 0 -17 21z" />
<glyph unicode="&#x401;" horiz-adv-x="929" d="M113 27q0 12 8 94l112 1087q3 24 14 32.5t44 8.5h604q13 0 18 -5.5t5 -22.5q0 -40 -8.5 -55t-24.5 -15h-553l-47 -440h450q12 0 17.5 -6t5.5 -23q0 -40 -8 -53t-25 -13h-451l-53 -518h572q12 0 17 -5.5t5 -22.5q0 -40 -8.5 -55t-24.5 -15h-624q-26 0 -35.5 6.5t-9.5 20.5 zM422 1462q0 2 6 64q3 26 15.5 33.5t48.5 7.5q31 0 41 -6t10 -25q0 -2 -6 -63q-3 -26 -15.5 -33.5t-48.5 -7.5q-31 0 -41 5.5t-10 24.5zM664 1462q0 2 6 64q3 26 15 33.5t48 7.5q31 0 41 -6t10 -25q0 -2 -6 -63q-3 -26 -15 -33.5t-48 -7.5q-31 0 -41 5.5t-10 24.5z" />
<glyph unicode="&#x402;" horiz-adv-x="1036" d="M23 1180q0 40 8 54.5t24 14.5h693q12 0 17 -5.5t5 -22.5q0 -40 -8.5 -55t-24.5 -15h-295l-39 -346q44 84 118 121t190 37q143 0 195 -50.5t52 -164.5q0 -27 -20 -250l-27 -273q-12 -130 -60.5 -187.5t-160.5 -57.5q-52 0 -115 14q-25 6 -34 14t-9 23q0 26 8 39.5t17 13.5 q7 0 52.5 -6t80.5 -6q47 0 67.5 10.5t33 46t20.5 117.5l33 334q12 114 12 159q0 73 -37 102t-129 29q-158 0 -228.5 -88.5t-92.5 -302.5l-43 -438q-3 -24 -14 -32.5t-44 -8.5q-27 0 -36 6t-9 21q0 19 4 55l113 1069h-295q-12 0 -17 6t-5 23z" />
<glyph unicode="&#x403;" horiz-adv-x="802" d="M113 27q0 12 8 94l112 1087q3 24 14 32.5t44 8.5h522q13 0 18 -5.5t5 -22.5q0 -40 -8.5 -55t-24.5 -15h-471l-117 -1110q-3 -24 -13.5 -32.5t-43.5 -8.5q-26 0 -35.5 6.5t-9.5 20.5zM461 1360q0 12 18 39l142 215q10 15 23.5 20.5t47.5 5.5q35 0 46.5 -5t11.5 -15 q0 -15 -17 -39l-162 -211q-10 -12 -15.5 -17t-18.5 -8.5t-35 -3.5q-41 0 -41 19z" />
<glyph unicode="&#x404;" horiz-adv-x="933" d="M111 344q0 83 28 342q8 80 18.5 145.5t24 118.5t28.5 94.5t35 73.5t39.5 54.5t46.5 38.5t52 25.5t60 15t66.5 7t74.5 1.5q163 0 288 -39q25 -7 35.5 -14t10.5 -21q0 -33 -7.5 -47.5t-25.5 -14.5q-6 0 -52 11t-114 21.5t-129 10.5q-49 0 -79.5 -2t-64.5 -9.5t-54.5 -20.5 t-42.5 -36.5t-35.5 -56.5t-27 -82t-23.5 -110.5t-19 -144.5h444q12 0 17.5 -6t5.5 -23q0 -40 -8.5 -55t-24.5 -15h-447q-16 -157 -16 -254q0 -55 6 -97t16 -72t28.5 -50.5t37.5 -32.5t50.5 -18t60.5 -8t73 -2q73 0 138.5 11t105.5 21.5t51 10.5q21 0 21 -21 q0 -32 -10.5 -48.5t-44.5 -27.5q-105 -38 -281 -38q-43 0 -71.5 1.5t-65.5 6.5t-61.5 15.5t-52 28t-44.5 44.5t-32 64t-22 88.5t-7 115.5z" />
<glyph unicode="&#x405;" horiz-adv-x="899" d="M41 59q0 60 35 60q10 0 55 -11.5t114 -23.5t138 -12q91 0 148 13t94 50q34 34 54.5 105t20.5 137q0 60 -20 95.5t-66 57.5l-268 123q-106 48 -145 96.5t-39 137.5q0 67 16.5 135.5t42.5 112.5q38 66 110.5 95.5t192.5 29.5q68 0 154.5 -11t142.5 -30q23 -6 32 -15t9 -24 q0 -60 -31 -60q-6 0 -49.5 12t-112 23.5t-134.5 11.5q-100 0 -150 -15t-76 -60q-41 -67 -41 -195q0 -52 21 -82.5t76 -56.5l292 -133q86 -40 119 -92.5t33 -135.5q0 -87 -30.5 -181.5t-84.5 -145.5q-92 -87 -303 -90q-183 0 -305 38q-28 8 -36.5 17t-8.5 24z" />
<glyph unicode="&#x406;" horiz-adv-x="393" d="M113 27q0 19 4 55l116 1126q3 24 14 32.5t44 8.5q27 0 36 -5.5t9 -20.5q0 -20 -4 -56l-117 -1126q-3 -24 -13.5 -32.5t-43.5 -8.5q-27 0 -36 6t-9 21z" />
<glyph unicode="&#x407;" horiz-adv-x="393" d="M113 27q0 19 4 55l116 1126q3 24 14 32.5t44 8.5q27 0 36 -5.5t9 -20.5q0 -20 -4 -56l-117 -1126q-3 -24 -13.5 -32.5t-43.5 -8.5q-27 0 -36 6t-9 21zM137 1462q0 2 6 64q3 26 15.5 33.5t48.5 7.5q31 0 41 -6t10 -25q0 -2 -6 -63q-3 -26 -15.5 -33.5t-48.5 -7.5 q-31 0 -41 5.5t-10 24.5zM379 1462q0 2 6 64q3 26 15.5 33.5t48.5 7.5q31 0 41 -6t10 -25q0 -2 -6 -63q-3 -26 -15.5 -33.5t-48.5 -7.5q-31 0 -41 5.5t-10 24.5z" />
<glyph unicode="&#x408;" horiz-adv-x="698" d="M31 41q0 18 2.5 29.5t8 16t9.5 6t12 1.5q3 0 65 -11t114 -11q110 0 151.5 43.5t55.5 171.5l98 921q3 24 13.5 32.5t43.5 8.5q27 0 36 -5.5t9 -20.5q0 -20 -4 -56l-96 -901q-17 -150 -93.5 -218t-211.5 -68q-96 0 -170 22q-43 11 -43 39z" />
<glyph unicode="&#x409;" horiz-adv-x="1712" d="M0 31q0 49 33 49q13 0 40.5 -4t49.5 -4q40 0 55.5 19.5t30.5 90.5l211 1026q5 25 14 33t41 8h537q27 0 36 -5.5t9 -20.5q0 -20 -4 -56l-52 -479q179 21 320 21q185 0 252 -62t67 -221q0 -59 -6.5 -116t-32 -131t-67.5 -116q-48 -48 -129.5 -65.5t-202.5 -17.5 q-132 0 -313 16q-33 3 -45.5 14t-12.5 33q0 9 5 39l112 1069h-436l-207 -995q-9 -44 -18 -70t-27 -53.5t-50 -40t-79 -12.5q-43 0 -88 10q-27 6 -35 13t-8 28zM938 88q102 -12 274 -12q168 0 230 45q35 25 56.5 84.5t27.5 112.5t6 108q0 52 -9 85.5t-25 54t-51 30.5 t-72.5 13t-104.5 3q-112 0 -279 -12z" />
<glyph unicode="&#x40a;" horiz-adv-x="1642" d="M113 27q0 19 4 55l116 1126q3 24 14 32.5t44 8.5q27 0 36 -5.5t9 -20.5q0 -20 -4 -56l-49 -462h546l54 503q3 24 13.5 32.5t43.5 8.5q27 0 36 -5.5t9 -20.5q0 -20 -4 -56l-51 -479q182 21 321 21q185 0 252.5 -62t67.5 -221q0 -97 -23 -199.5t-84 -163.5 q-48 -48 -129 -65.5t-202 -17.5q-133 0 -314 16q-33 3 -45 14t-12 33q0 15 4 39l53 524h-547l-57 -565q-3 -24 -13.5 -32.5t-43.5 -8.5q-27 0 -36 6t-9 21zM868 88q102 -12 275 -12q167 0 229 45q35 25 56.5 84.5t27.5 112.5t6 108q0 52 -9 85.5t-25 54t-51 30.5t-72.5 13 t-104.5 3q-112 0 -278 -12z" />
<glyph unicode="&#x40b;" horiz-adv-x="1091" d="M23 1180q0 40 8 54.5t24 14.5h693q12 0 17 -5.5t5 -22.5q0 -40 -8.5 -55t-24.5 -15h-295l-39 -346q44 84 118 121t190 37q143 0 195 -50.5t52 -164.5q0 -35 -23.5 -250.5t-23.5 -298.5q0 -39 11.5 -101.5t11.5 -64.5q0 -21 -8.5 -27t-38.5 -6q-28 0 -38 6.5t-15 26.5 q-9 32 -17 85.5t-8 78.5q0 64 23.5 277.5t23.5 264.5q0 73 -37 102t-129 29q-158 0 -228.5 -88.5t-92.5 -302.5l-43 -438q-3 -24 -14 -32.5t-44 -8.5q-27 0 -36 6t-9 21q0 19 4 55l113 1069h-295q-12 0 -17 6t-5 23z" />
<glyph unicode="&#x40c;" horiz-adv-x="880" d="M113 27q0 19 4 55l116 1126q3 24 14 32.5t44 8.5q27 0 36 -5.5t9 -20.5q0 -20 -4 -56l-51 -481h24l504 541q12 13 27.5 17.5t46.5 4.5q28 0 39.5 -5t11.5 -19q0 -18 -31 -49l-518 -537l428 -576q21 -28 21 -38q0 -25 -60 -25q-30 0 -43 4.5t-22 18.5l-414 583h-23 l-57 -565q-3 -24 -13.5 -32.5t-43.5 -8.5q-27 0 -36 6t-9 21zM500 1360q0 12 18 39l141 215q10 15 23.5 20.5t48.5 5.5t46 -5t11 -15q0 -17 -16 -39l-162 -211q-10 -12 -15.5 -17t-18.5 -8.5t-35 -3.5q-41 0 -41 19z" />
<glyph unicode="&#x40e;" horiz-adv-x="931" d="M51 49q0 27 7.5 37t23.5 10q3 0 60 -7t102 -7q73 0 104.5 27t71.5 120l35 78h-11q-51 0 -59 45l-250 826q-10 30 -10 45q0 16 11 21t38 5q29 0 38.5 -5t14.5 -19l242 -830h27l376 830q7 17 15.5 20.5t38.5 3.5q57 0 57 -20q0 -11 -27 -66l-469 -997q-19 -41 -36.5 -67.5 t-45.5 -54t-68 -41t-93 -13.5q-82 0 -150 14q-23 5 -33 15t-10 30zM399 1487q0 27 4 51q5 27 13.5 34t40.5 7q26 0 35.5 -5t9.5 -20q0 -5 -2 -22.5t-2 -22.5q0 -28 16.5 -36.5t69.5 -8.5q33 0 50.5 2.5t27.5 12.5t12.5 21.5t5.5 37.5q3 27 11.5 34t39.5 7q26 0 35.5 -5 t9.5 -20q0 -96 -39 -135q-37 -37 -164 -37q-102 0 -138 24.5t-36 80.5z" />
<glyph unicode="&#x40f;" horiz-adv-x="1054" d="M113 27q0 19 4 55l119 1126q3 24 13.5 32.5t43.5 8.5q27 0 36 -5.5t9 -20.5q0 -20 -4 -56l-113 -1069h549l117 1110q3 24 13.5 32.5t43.5 8.5q27 0 36 -5.5t9 -20.5q0 -20 -4 -56l-119 -1126q-3 -25 -13 -33t-42 -8h-272l-29 -203q-3 -18 -10 -23t-35 -5t-34.5 5t-6.5 23 q0 27 12 203h-278q-27 0 -36 6t-9 21z" />
<glyph unicode="&#x410;" horiz-adv-x="1034" d="M10 23q0 11 10 36l494 1149q12 28 28.5 34.5t71.5 6.5q54 0 69.5 -6.5t21.5 -34.5l243 -1118q13 -56 13 -63q0 -27 -54 -27q-31 0 -41 5.5t-14 27.5l-80 377h-489l-162 -385q-9 -25 -60 -25t-51 23zM322 502h432l-136 649h-24z" />
<glyph unicode="&#x411;" horiz-adv-x="1011" d="M113 43q0 15 4 39l119 1126q3 24 13.5 32.5t43.5 8.5h584q12 0 17 -5.5t5 -22.5q0 -40 -8.5 -55t-24.5 -15h-534l-51 -465q184 23 307 23q87 0 148 -11.5t99 -31.5t59 -56t28.5 -77.5t7.5 -102.5q0 -261 -103 -364q-86 -86 -331 -86q-175 0 -326 16q-33 3 -45 14t-12 33z M217 84q102 -12 287 -12q161 0 231 51q86 62 86 295q0 55 -7 89t-21.5 56.5t-47 33t-72 14t-108.5 3.5q-135 0 -293 -14z" />
<glyph unicode="&#x412;" horiz-adv-x="1048" d="M113 43q0 15 4 39l116 1106q3 26 16 38t40 15q168 19 295 19q61 0 97.5 -1t80.5 -5.5t68.5 -13.5t51 -25t39 -39.5t21 -57t8.5 -78.5q0 -288 -170 -372q79 -22 114.5 -79t35.5 -159q0 -253 -97 -351.5t-337 -98.5q-175 0 -326 16q-33 3 -45 14t-12 33zM217 84 q102 -12 287 -12q98 0 158.5 17t96.5 60t49 105.5t13 163.5q0 110 -55 153t-205 43h-287zM285 709h241q121 0 180.5 15t86.5 67q49 90 49 245q0 82 -52.5 106.5t-216.5 24.5q-149 0 -241 -12z" />
<glyph unicode="&#x413;" horiz-adv-x="802" d="M113 27q0 12 8 94l112 1087q3 24 14 32.5t44 8.5h522q13 0 18 -5.5t5 -22.5q0 -40 -8.5 -55t-24.5 -15h-471l-117 -1110q-3 -24 -13.5 -32.5t-43.5 -8.5q-26 0 -35.5 6.5t-9.5 20.5z" />
<glyph unicode="&#x414;" horiz-adv-x="1034" d="M-20 -215q0 26 26 264q3 30 13 39.5t34 9.5h43l221 1110q5 25 14.5 33t41.5 8h551q27 0 36 -5.5t9 -20.5q0 -20 -4 -56l-113 -1069h63q20 0 28.5 -6t8.5 -24q0 -6 -6 -66l-22 -211q-2 -14 -9 -18t-30 -4q-28 0 -36.5 4t-8.5 18v209h-731l-46 -209q-3 -14 -12 -18t-37 -4 q-20 0 -27 3.5t-7 12.5zM197 98h553l110 1053h-452z" />
<glyph unicode="&#x415;" horiz-adv-x="929" d="M113 27q0 12 8 94l112 1087q3 24 14 32.5t44 8.5h604q13 0 18 -5.5t5 -22.5q0 -40 -8.5 -55t-24.5 -15h-553l-47 -440h450q12 0 17.5 -6t5.5 -23q0 -40 -8 -53t-25 -13h-451l-53 -518h572q12 0 17 -5.5t5 -22.5q0 -40 -8.5 -55t-24.5 -15h-624q-26 0 -35.5 6.5t-9.5 20.5 z" />
<glyph unicode="&#x416;" horiz-adv-x="1351" d="M23 23q0 16 30 51l508 573l-418 539q-20 26 -20 41q0 22 59 22q31 0 43 -4t23 -18l401 -541h21l55 522q3 24 13.5 32.5t43.5 8.5q27 0 36 -5.5t9 -20.5q0 -20 -4 -56l-51 -481h25l483 541q12 13 27 17.5t47 4.5q28 0 39.5 -5t11.5 -19q0 -18 -31 -49l-504 -535l414 -578 q21 -30 21 -40q0 -23 -60 -23q-30 0 -43 4.5t-22 18.5l-394 583h-22l-57 -565q-3 -24 -14 -32.5t-44 -8.5q-27 0 -36 6t-9 21q0 19 4 55l54 524h-23l-492 -583q-20 -23 -73 -23q-51 0 -51 23z" />
<glyph unicode="&#x417;" horiz-adv-x="927" d="M51 68q0 34 7 42.5t24 8.5q1 0 112.5 -21.5t206.5 -21.5q85 0 142 21.5t87 65.5t42 97.5t12 130.5q0 41 -3.5 65.5t-20 53.5t-48 44t-89.5 25.5t-142 10.5h-143q-21 0 -30 7t-9 26q0 39 11 52t38 13h143q167 0 252.5 78t85.5 250q0 49 -11 79t-38 44.5t-57.5 19 t-83.5 4.5q-85 0 -199 -19.5t-117 -19.5q-13 0 -18.5 4.5t-5.5 20.5q0 32 11 46.5t44 23.5q141 41 317 41q65 0 109.5 -9.5t82 -34t55.5 -73t18 -121.5q0 -326 -275 -379q232 -21 232 -250q0 -413 -381 -413q-79 0 -171 10.5t-147 29.5q-24 8 -33.5 17.5t-9.5 30.5z" />
<glyph unicode="&#x418;" horiz-adv-x="1105" d="M113 31q0 23 6 78l117 1099q3 24 13.5 32.5t43.5 8.5q27 0 36 -5.5t9 -20.5q0 -20 -4 -56l-113 -1065h21l585 1106q13 27 33.5 34t83.5 7q60 0 78 -6t18 -24q0 -23 -6 -78l-114 -1100q-3 -24 -14 -32.5t-44 -8.5q-27 0 -36 6t-9 21q0 19 4 55l111 1065h-21l-583 -1106 q-15 -27 -35.5 -34t-83.5 -7q-59 0 -77.5 6.5t-18.5 24.5z" />
<glyph unicode="&#x419;" horiz-adv-x="1105" d="M113 31q0 23 6 78l117 1099q3 24 13.5 32.5t43.5 8.5q27 0 36 -5.5t9 -20.5q0 -20 -4 -56l-113 -1065h21l585 1106q13 27 33.5 34t83.5 7q60 0 78 -6t18 -24q0 -23 -6 -78l-114 -1100q-3 -24 -14 -32.5t-44 -8.5q-27 0 -36 6t-9 21q0 19 4 55l111 1065h-21l-583 -1106 q-15 -27 -35.5 -34t-83.5 -7q-59 0 -77.5 6.5t-18.5 24.5zM461 1487q0 27 4 51q5 27 13.5 34t39.5 7q26 0 35.5 -5t9.5 -20q0 -5 -2 -22.5t-2 -22.5q0 -28 16.5 -36.5t69.5 -8.5q33 0 50.5 2.5t27.5 12.5t12.5 21.5t5.5 37.5q3 27 11.5 34t40.5 7q26 0 35.5 -5t9.5 -20 q0 -96 -39 -135q-37 -37 -164 -37q-102 0 -138 24.5t-36 80.5z" />
<glyph unicode="&#x41a;" horiz-adv-x="880" d="M113 27q0 19 4 55l116 1126q3 24 14 32.5t44 8.5q27 0 36 -5.5t9 -20.5q0 -20 -4 -56l-51 -481h24l504 541q12 13 27.5 17.5t46.5 4.5q28 0 39.5 -5t11.5 -19q0 -18 -31 -49l-518 -537l428 -576q21 -28 21 -38q0 -25 -60 -25q-30 0 -43 4.5t-22 18.5l-414 583h-23 l-57 -565q-3 -24 -13.5 -32.5t-43.5 -8.5q-27 0 -36 6t-9 21z" />
<glyph unicode="&#x41b;" horiz-adv-x="1132" d="M0 31q0 49 33 49q13 0 40.5 -4t49.5 -4q40 0 55.5 19.5t30.5 90.5l211 1026q5 25 14 33t41 8h547q27 0 36 -5.5t9 -20.5q0 -20 -4 -56l-119 -1126q-3 -24 -13.5 -32.5t-43.5 -8.5q-27 0 -36 6t-9 21q0 19 4 55l112 1069h-446l-207 -995q-9 -44 -18 -70t-27 -53.5t-50 -40 t-79 -12.5q-43 0 -88 10q-27 6 -35 13t-8 28z" />
<glyph unicode="&#x41c;" horiz-adv-x="1273" d="M113 27q0 19 4 55l116 1126q3 25 22.5 33t92.5 8q56 0 76.5 -10.5t30.5 -50.5l182 -725h12l334 725q19 40 42.5 50.5t80.5 10.5q43 0 65.5 -3.5t29.5 -9t7 -15.5q0 -20 -4 -52l-117 -1128q-3 -24 -13.5 -32.5t-43.5 -8.5q-27 0 -36 6t-9 21q0 19 4 55l111 1065h-19 l-370 -770q-13 -26 -29.5 -33.5t-50.5 -7.5t-49.5 7.5t-22.5 33.5l-211 770h-18l-115 -1106q-3 -24 -13.5 -32.5t-43.5 -8.5q-27 0 -36 6t-9 21z" />
<glyph unicode="&#x41d;" horiz-adv-x="1050" d="M113 27q0 19 4 55l116 1126q3 24 14 32.5t44 8.5q27 0 36 -5.5t9 -20.5q0 -20 -4 -56l-49 -462h546l54 503q3 24 13.5 32.5t43.5 8.5q27 0 36 -5.5t9 -20.5q0 -20 -4 -56l-117 -1126q-3 -24 -13.5 -32.5t-43.5 -8.5q-27 0 -36 6t-9 21q0 19 4 55l53 524h-547l-57 -565 q-3 -24 -13.5 -32.5t-43.5 -8.5q-27 0 -36 6t-9 21z" />
<glyph unicode="&#x41e;" horiz-adv-x="1038" d="M113 358q0 127 29 349.5t61 322.5q20 60 47 101t60 66.5t81.5 39.5t99 18.5t125.5 4.5q54 0 92.5 -2.5t80 -11.5t69 -25.5t54.5 -44.5t42 -68t24 -96.5t9 -130.5q0 -127 -29 -349.5t-61 -322.5q-20 -60 -47.5 -101t-60 -66.5t-81.5 -39t-99.5 -18t-125.5 -4.5 q-55 0 -92.5 2.5t-79.5 11.5t-69.5 25t-54 44t-41.5 68t-24 96.5t-9 130.5zM213 340q0 -89 14 -141.5t50.5 -81t84 -37t130.5 -8.5q143 0 209 30.5t100 128.5q30 87 58 315t28 353q0 89 -14 141.5t-50.5 81t-84 37t-130.5 8.5q-143 0 -209 -30.5t-100 -128.5 q-30 -87 -58 -315t-28 -353z" />
<glyph unicode="&#x41f;" horiz-adv-x="1054" d="M113 27q0 19 4 55l119 1126q3 25 13 33t42 8h653q27 0 36 -5.5t9 -20.5q0 -20 -4 -56l-119 -1126q-3 -24 -13.5 -32.5t-43.5 -8.5q-27 0 -36 6t-9 21q0 19 4 55l113 1069h-549l-117 -1110q-3 -24 -13.5 -32.5t-43.5 -8.5q-27 0 -36 6t-9 21z" />
<glyph unicode="&#x420;" horiz-adv-x="989" d="M113 27q0 19 4 55l112 1106q3 22 20 36t38 17q144 19 288 19q84 0 139.5 -5t104.5 -19.5t76.5 -41.5t43 -71t15.5 -107q0 -132 -22.5 -222t-75 -152.5t-140.5 -91t-218 -28.5h-234l-49 -481q-3 -24 -13.5 -32.5t-43.5 -8.5q-27 0 -36 6t-9 21zM272 614h236 q95 0 156.5 17.5t102.5 62t58 118t17 189.5q0 100 -57 133t-222 33q-107 0 -233 -12z" />
<glyph unicode="&#x421;" horiz-adv-x="933" d="M111 344q0 83 28 342q8 80 18.5 145.5t24 118.5t28.5 94.5t35 73.5t39.5 54.5t46.5 38.5t52 25.5t60 15t66.5 7t74.5 1.5q163 0 288 -39q25 -7 35.5 -14t10.5 -21q0 -33 -7.5 -47.5t-25.5 -14.5q-6 0 -52 11t-114 21.5t-129 10.5q-50 0 -81.5 -2t-66 -10t-55 -22 t-42.5 -40t-35 -61.5t-27 -89t-23.5 -119.5t-19.5 -157q-25 -225 -25 -314q0 -55 6 -97t16 -72t28.5 -50.5t37.5 -32.5t50.5 -18t60.5 -8t73 -2q73 0 138.5 11t105.5 21.5t51 10.5q21 0 21 -21q0 -32 -10.5 -48.5t-44.5 -27.5q-105 -38 -281 -38q-43 0 -71.5 1.5t-65.5 6.5 t-61.5 15.5t-52 28t-44.5 44.5t-32 64t-22 88.5t-7 115.5z" />
<glyph unicode="&#x422;" horiz-adv-x="864" d="M123 1180q0 40 8 54.5t25 14.5h733q12 0 17 -5.5t5 -22.5q0 -40 -8 -55t-24 -15h-316l-117 -1110q-3 -24 -13.5 -32.5t-43.5 -8.5q-27 0 -36 6t-9 21q0 19 4 55l113 1069h-316q-12 0 -17 6t-5 23z" />
<glyph unicode="&#x423;" horiz-adv-x="931" d="M51 49q0 27 7.5 37t23.5 10q3 0 60 -7t102 -7q73 0 104.5 27t71.5 120l35 78h-11q-51 0 -59 45l-250 826q-10 30 -10 45q0 16 11 21t38 5q29 0 38.5 -5t14.5 -19l242 -830h27l376 830q7 17 15.5 20.5t38.5 3.5q57 0 57 -20q0 -11 -27 -66l-469 -997q-19 -41 -36.5 -67.5 t-45.5 -54t-68 -41t-93 -13.5q-82 0 -150 14q-23 5 -33 15t-10 30z" />
<glyph unicode="&#x424;" horiz-adv-x="1230" d="M92 539q0 126 26.5 231t76.5 164q52 61 132.5 87t200.5 26h93l16 161q2 24 13 32.5t44 8.5q27 0 36 -5.5t9 -20.5q0 -20 -4 -56l-12 -120h92q74 0 124 -5.5t97 -21.5t74 -45.5t43 -79t16 -119.5q0 -127 -26 -232t-76 -163q-52 -61 -133 -87t-201 -26h-92l-23 -227 q-3 -24 -13.5 -32.5t-43.5 -8.5q-27 0 -36 6t-9 21q0 19 4 55l19 186h-93q-74 0 -124 5.5t-97 21.5t-74 45.5t-43 79t-16 119.5zM203 547q0 -114 48.5 -148t205.5 -34h92l61 585h-92q-102 0 -161.5 -20.5t-92.5 -71.5q-30 -48 -45.5 -133.5t-15.5 -177.5zM651 365h92 q102 0 161.5 20.5t92.5 71.5q31 48 46.5 134t15.5 177q0 114 -48.5 148t-205.5 34h-92z" />
<glyph unicode="&#x425;" horiz-adv-x="919" d="M14 25q0 13 19 38l397 576l-254 539q-16 33 -16 45q0 15 12.5 20.5t42.5 5.5q32 0 45.5 -4.5t20.5 -19.5l217 -496h8l317 494q18 26 66 26q55 0 55 -24q0 -15 -18 -39l-371 -547l272 -576q13 -26 13 -38q0 -25 -60 -25q-31 0 -43 5t-20 20l-230 526h-10l-344 -524 q-11 -16 -24 -21.5t-43 -5.5q-52 0 -52 25z" />
<glyph unicode="&#x426;" horiz-adv-x="1054" d="M113 27q0 19 4 55l119 1126q3 24 13.5 32.5t43.5 8.5q27 0 36 -5.5t9 -20.5q0 -20 -4 -56l-113 -1069h549l117 1110q3 24 13.5 32.5t43.5 8.5q27 0 36 -5.5t9 -20.5q0 -20 -4 -56l-115 -1069h72q20 0 28.5 -6t8.5 -24q0 -9 -29 -277q-2 -14 -9 -18t-30 -4q-28 0 -36.5 4 t-8.5 18v209h-708q-27 0 -36 6t-9 21z" />
<glyph unicode="&#x427;" horiz-adv-x="974" d="M147 723q0 46 46 485q3 24 13.5 32.5t43.5 8.5q27 0 36 -5.5t9 -20.5q0 -11 -23 -230q-22 -198 -22 -252q0 -41 16 -62t64 -32.5t141 -11.5q123 0 279 16l57 557q3 24 13.5 32.5t43.5 8.5q27 0 36 -5.5t9 -20.5q0 -20 -4 -56l-117 -1126q-3 -24 -13.5 -32.5t-43.5 -8.5 q-27 0 -36 6t-9 21q0 19 4 55l49 475q-158 -25 -288 -25q-163 0 -233.5 42t-70.5 149z" />
<glyph unicode="&#x428;" horiz-adv-x="1644" d="M113 27q0 19 4 55l119 1126q3 24 13.5 32.5t43.5 8.5q27 0 36 -5.5t9 -20.5q0 -20 -4 -56l-113 -1069h518l117 1110q3 24 13.5 32.5t43.5 8.5q27 0 36 -5.5t9 -20.5q0 -20 -4 -56l-112 -1069h518l117 1110q3 24 13.5 32.5t43.5 8.5q27 0 36 -5.5t9 -20.5q0 -20 -4 -56 l-119 -1126q-3 -25 -13 -33t-42 -8h-1243q-27 0 -36 6t-9 21z" />
<glyph unicode="&#x429;" horiz-adv-x="1644" d="M113 27q0 19 4 55l119 1126q3 24 13.5 32.5t43.5 8.5q27 0 36 -5.5t9 -20.5q0 -20 -4 -56l-113 -1069h518l117 1110q3 24 13.5 32.5t43.5 8.5q27 0 36 -5.5t9 -20.5q0 -20 -4 -56l-112 -1069h518l117 1110q3 24 13.5 32.5t43.5 8.5q27 0 36 -5.5t9 -20.5q0 -20 -4 -56 l-113 -1069h72q20 0 28.5 -6t8.5 -24q0 -6 -6 -66l-23 -211q-2 -14 -9 -18t-30 -4q-28 0 -36.5 4t-8.5 18v209h-1300q-27 0 -36 6t-9 21z" />
<glyph unicode="&#x42a;" horiz-adv-x="1038" d="M117 1180q0 40 8 54.5t25 14.5h178q27 0 36 -5.5t9 -20.5q0 -10 -11 -109l-45 -426q178 21 330 21q185 0 252.5 -61t67.5 -214q0 -113 -29.5 -218.5t-83.5 -152.5q-99 -83 -326 -83q-142 0 -323 16q-33 3 -45.5 14t-12.5 33q0 9 5 39l112 1069h-125q-12 0 -17 6t-5 23z M254 88q102 -12 285 -12q96 0 153 13.5t92 45.5q38 34 56 121t18 170q0 52 -9 85.5t-25 54t-51 30.5t-72.5 13t-104.5 3q-120 0 -289 -12z" />
<glyph unicode="&#x42b;" horiz-adv-x="1396" d="M113 43q0 15 4 39l119 1126q3 24 13.5 32.5t43.5 8.5q27 0 36 -5.5t9 -20.5q0 -25 -12 -136l-43 -399q178 21 329 21q185 0 252.5 -61t67.5 -214q0 -113 -29.5 -218.5t-83.5 -152.5q-99 -83 -325 -83q-143 0 -324 16q-33 3 -45 14t-12 33zM219 88q102 -12 285 -12 q96 0 153.5 13.5t92.5 45.5q38 34 55.5 120.5t17.5 170.5q0 52 -9 85.5t-25 54t-51 30.5t-72.5 13t-104.5 3q-119 0 -289 -12zM1116 27q0 19 4 55l117 1126q3 24 13.5 32.5t43.5 8.5q27 0 36 -5.5t9 -20.5q0 -20 -4 -56l-116 -1126q-3 -24 -14 -32.5t-44 -8.5q-27 0 -36 6 t-9 21z" />
<glyph unicode="&#x42c;" horiz-adv-x="1003" d="M113 43q0 15 4 39l119 1126q3 24 13.5 32.5t43.5 8.5q27 0 36 -5.5t9 -20.5q0 -25 -12 -136l-43 -399q178 21 329 21q185 0 252.5 -61t67.5 -214q0 -113 -29.5 -218.5t-83.5 -152.5q-99 -83 -325 -83q-143 0 -324 16q-33 3 -45 14t-12 33zM219 88q102 -12 285 -12 q96 0 153.5 13.5t92.5 45.5q38 34 55.5 120.5t17.5 170.5q0 52 -9 85.5t-25 54t-51 30.5t-72.5 13t-104.5 3q-119 0 -289 -12z" />
<glyph unicode="&#x42d;" horiz-adv-x="886" d="M31 53q0 33 7 47.5t25 14.5q6 0 52 -10.5t114 -21.5t129 -11q117 0 175.5 20.5t95.5 91.5q57 112 84 422h-451q-12 0 -17 6t-5 23q0 40 8 55t24 15h451q10 110 10 182q0 78 -10.5 129t-27.5 81.5t-52.5 45.5t-72 19.5t-99.5 4.5q-78 0 -146 -10.5t-108 -21.5t-51 -11 q-21 0 -21 21q0 32 11 48t45 28q108 39 291 39q38 0 63.5 -1t58.5 -5t55 -11.5t47.5 -20.5t42 -31.5t33 -46t25.5 -63t15 -82.5t6 -104q0 -67 -10.5 -202t-39.5 -307.5t-69 -244.5q-54 -98 -135 -129.5t-219 -31.5q-167 0 -289 38q-24 7 -34.5 14t-10.5 21z" />
<glyph unicode="&#x42e;" horiz-adv-x="1462" d="M113 27q0 19 4 55l116 1126q3 24 14 32.5t44 8.5q27 0 36 -5.5t9 -20.5q0 -20 -4 -56l-49 -462h268q28 224 61 325q20 60 47.5 101t60 66.5t81.5 39.5t99.5 18.5t125.5 4.5q54 0 92.5 -2.5t80 -11.5t69 -25.5t54.5 -44.5t42 -68t24 -96.5t9 -130.5q0 -127 -29 -349.5 t-61 -322.5q-20 -60 -47.5 -101t-60 -66.5t-81.5 -39t-99.5 -18t-125.5 -4.5q-55 0 -92.5 2.5t-79.5 11.5t-69.5 25t-54.5 44t-42 68t-24 96.5t-9 130.5q0 85 17 248h-267l-57 -565q-3 -24 -13.5 -32.5t-43.5 -8.5q-27 0 -36 6t-9 21zM623 340q0 -89 14 -141.5t50 -81 t83.5 -37t130.5 -8.5q143 0 209 30.5t100 128.5q30 87 58 315t28 353q0 89 -14 141.5t-50 81t-83.5 37t-130.5 8.5q-143 0 -209 -30.5t-100 -128.5q-30 -87 -58 -315t-28 -353z" />
<glyph unicode="&#x42f;" horiz-adv-x="1003" d="M41 20q0 14 14 37l303 525q-105 28 -150.5 93.5t-45.5 166.5q0 90 22 176.5t62 134.5q51 58 137 82.5t225 24.5q147 0 285 -19q45 -6 45 -45q0 -11 -4 -51l-115 -1104q-3 -24 -13.5 -32.5t-43.5 -8.5q-27 0 -36 6t-9 21q0 19 4 55l51 481h-237q-55 0 -80 2l-299 -540 q-12 -25 -62 -25q-53 0 -53 20zM272 846q0 -95 63 -143t210 -48h235l54 496q-122 12 -236 12q-112 0 -172.5 -15t-93.5 -54q-30 -34 -45 -105t-15 -143z" />
<glyph unicode="&#x430;" horiz-adv-x="989" d="M94 242q0 118 21.5 295t52.5 258q46 121 132 175t216 54q89 0 146.5 -15.5t81.5 -37.5t38 -56l6 56q3 20 14.5 26.5t41.5 6.5q18 0 28 -4t12.5 -9.5t2.5 -13.5q0 -21 -36 -350.5t-36 -376.5q0 -26 6 -114.5t6 -106.5q0 -15 -8.5 -22t-34.5 -7q-27 0 -37 6.5t-12 22.5 l-14 164q-106 -213 -363 -213q-141 0 -202.5 61t-61.5 201zM197 250q0 -100 43.5 -139t140.5 -39q149 0 243 94.5t115 279.5q27 243 27 308q0 87 -51.5 132.5t-188.5 45.5q-104 0 -167 -35.5t-97 -126.5q-24 -66 -44.5 -234.5t-20.5 -285.5z" />
<glyph unicode="&#x431;" horiz-adv-x="1036" d="M125 274q0 80 22 330q24 269 40.5 380.5t45.5 180.5q43 102 133 144.5t238 42.5q152 0 305 -29q19 -3 26 -11.5t7 -27.5q0 -53 -29 -53q-1 0 -108.5 14.5t-206.5 14.5q-57 0 -94 -4t-73.5 -16.5t-61.5 -37.5t-41 -65q-27 -60 -47 -256q42 77 121 110t212 33q77 0 129 -13 t92 -46.5t59 -95.5t19 -156q0 -109 -22.5 -279t-63.5 -256q-50 -108 -138.5 -153t-237.5 -45q-183 0 -254.5 65t-71.5 229zM231 283q0 -120 48 -165.5t180 -45.5q118 0 180 30t96 111q34 80 54 243.5t20 258.5q0 130 -51 173.5t-183 43.5q-87 0 -139 -15t-92.5 -60.5 t-62 -126t-35.5 -214.5q-15 -161 -15 -233z" />
<glyph unicode="&#x432;" horiz-adv-x="954" d="M76 39q0 7 1 19t2.5 28.5t2.5 26.5l88 839q5 48 57 54q159 18 316 18q173 0 246 -38t73 -152q0 -81 -16.5 -138.5t-49 -92t-72.5 -52.5t-95 -25q110 -16 157.5 -57t47.5 -139q0 -106 -23 -174t-75.5 -107t-125.5 -54t-184 -15q-142 0 -293 16q-32 3 -44.5 11t-12.5 32z M182 88q102 -12 254 -12q94 0 146.5 8.5t86.5 36t45 72t11 122.5q0 87 -62 122.5t-221 35.5h-219zM233 571h226q167 0 231 51t64 187q0 76 -47.5 97.5t-186.5 21.5q-150 0 -252 -13z" />
<glyph unicode="&#x433;" horiz-adv-x="851" d="M82 168q0 95 38 160t134 127l315 204q64 41 90.5 81.5t26.5 105.5q0 57 -39.5 72.5t-150.5 15.5q-60 0 -126 -8.5t-110 -17.5t-51 -9q-12 0 -16.5 5t-4.5 22q0 32 11.5 45.5t44.5 21.5q138 31 264 31q55 0 91 -2.5t76 -12.5t63 -28t38 -51.5t15 -81.5q0 -98 -43 -158 t-127 -115l-322 -210q-64 -41 -89.5 -84.5t-25.5 -108.5q0 -64 52 -81t194 -17q85 0 182.5 18.5t100.5 18.5q14 0 14 -25q0 -36 -10 -50.5t-43 -23.5q-118 -32 -256 -32q-69 0 -116 4t-91.5 15t-71 31.5t-42 55t-15.5 82.5z" />
<glyph unicode="&#x434;" horiz-adv-x="993" d="M94 287q0 121 23 280.5t53 235.5q47 121 136.5 171t248.5 50q204 0 254 -160q18 182 18 230q0 55 -10.5 87.5t-38.5 50t-65 23t-101 5.5q-74 0 -154.5 -6.5t-86.5 -6.5q-21 0 -21 21q0 28 6.5 43.5t26.5 19.5q117 21 244 21q154 0 227.5 -56t73.5 -209q0 -69 -54 -575 q-22 -205 -74.5 -321t-142 -163.5t-237.5 -47.5q-89 0 -146 12.5t-100 46t-61.5 93.5t-18.5 155zM199 283q0 -128 47.5 -169.5t185.5 -41.5q93 0 148 16.5t94 66t58.5 126.5t33.5 211q12 108 12 184q0 80 -12.5 130t-43 78t-71.5 38t-106 10q-121 0 -183.5 -33t-95.5 -121 q-26 -69 -46.5 -224.5t-20.5 -270.5z" />
<glyph unicode="&#x435;" horiz-adv-x="899" d="M96 287q0 291 76 512q21 61 52 103.5t63.5 66t79 36.5t84.5 16t94 3q85 0 140 -12.5t83 -39t38.5 -58.5t10.5 -80q0 -134 -30.5 -213.5t-108.5 -114.5q-60 -28 -139.5 -41.5t-259.5 -13.5h-72q-6 -86 -6 -168q0 -129 50 -171t193 -42q62 0 126 13t104 26.5t45 13.5 q14 0 14 -23q0 -37 -8.5 -50.5t-34.5 -22.5q-124 -47 -272 -47q-91 0 -145.5 10.5t-97.5 43t-61 93.5t-18 160zM217 543h49q181 0 260.5 13.5t118.5 37.5q24 15 37 30t25 65t12 132q0 30 -6 48t-24.5 34t-57.5 23.5t-101 7.5q-110 0 -168 -30.5t-90 -121.5 q-39 -108 -55 -239z" />
<glyph unicode="&#x436;" horiz-adv-x="1198" d="M-4 25q0 41 173 225.5t282 275.5q-69 91 -154 190t-145 158q-14 14 -31 29.5t-27 25t-19.5 19t-13.5 17t-4 14.5q0 25 41 25q47 0 62 -4.5t37 -24.5q128 -124 331 -410h13l41 398q3 26 13 33.5t42 7.5q29 0 39 -5t10 -22q0 -5 -14 -146l-29 -266h10q78 65 197 185.5 t184 205.5q27 34 38.5 41t41.5 7q49 0 49 -25q0 -42 -153.5 -200t-274.5 -261q62 -95 155.5 -209.5t158.5 -179.5q14 -14 30.5 -29.5t26.5 -24.5t19.5 -19t13.5 -17t4 -14q0 -25 -41 -25q-47 0 -61.5 4.5t-36.5 24.5q-82 74 -186.5 209.5t-170.5 238.5h-12l-45 -436 q-3 -26 -13 -33.5t-42 -7.5q-29 0 -39.5 5t-10.5 22q0 6 1 14.5t5 44.5t9 86l30 305h-8q-73 -62 -198 -200t-195 -230q-26 -33 -38.5 -40t-43.5 -7q-51 0 -51 25z" />
<glyph unicode="&#x437;" horiz-adv-x="888" d="M20 57q0 56 31 56q10 0 56.5 -9.5t119.5 -18.5t148 -9q88 0 137.5 8.5t82.5 36.5t43.5 73t10.5 125q0 86 -60.5 120t-226.5 34h-81q-21 0 -30 7t-9 26q0 39 11 52t38 13h82q178 0 241.5 52t63.5 194q0 72 -40.5 91.5t-166.5 19.5q-95 0 -195.5 -13.5t-101.5 -13.5 q-16 0 -21.5 6t-5.5 25q0 34 13 46t45 19q129 27 303 27q71 0 118.5 -7.5t85.5 -27.5t56 -58t18 -97q0 -83 -16.5 -141t-49.5 -91.5t-72 -50.5t-95 -25q112 -20 158.5 -59t46.5 -131q0 -107 -24 -178t-74.5 -109.5t-115 -53.5t-159.5 -15q-200 0 -322 34q-27 7 -35 16t-8 27 z" />
<glyph unicode="&#x438;" horiz-adv-x="1015" d="M135 195q0 18 4 55t8.5 71.5t13 98t13.5 98.5q29 230 29 287q0 39 -11.5 101.5t-11.5 64.5q0 21 8.5 27t38.5 6q28 0 38.5 -7t15.5 -26q9 -31 16.5 -84.5t7.5 -79.5q0 -63 -33.5 -305t-33.5 -299q0 -73 36.5 -102t128.5 -29q173 0 252 89t101 302l51 500q3 26 13 33.5 t42 7.5q29 0 39 -5t10 -22q0 -29 -35.5 -361t-35.5 -366q0 -26 6 -114.5t6 -106.5q0 -15 -8.5 -22t-34.5 -7q-27 0 -37 6.5t-12 22.5l-15 159q-42 -105 -129 -156.5t-233 -51.5q-143 0 -195.5 51t-52.5 164z" />
<glyph unicode="&#x439;" horiz-adv-x="1015" d="M135 195q0 18 4 55t8.5 71.5t13 98t13.5 98.5q29 230 29 287q0 39 -11.5 101.5t-11.5 64.5q0 21 8.5 27t38.5 6q28 0 38.5 -7t15.5 -26q9 -31 16.5 -84.5t7.5 -79.5q0 -63 -33.5 -305t-33.5 -299q0 -73 36.5 -102t128.5 -29q173 0 252 89t101 302l51 500q3 26 13 33.5 t42 7.5q29 0 39 -5t10 -22q0 -29 -35.5 -361t-35.5 -366q0 -26 6 -114.5t6 -106.5q0 -15 -8.5 -22t-34.5 -7q-27 0 -37 6.5t-12 22.5l-15 159q-42 -105 -129 -156.5t-233 -51.5q-143 0 -195.5 51t-52.5 164zM381 1251q0 28 4 52q5 27 13 33.5t40 6.5q27 0 36 -4.5t9 -19.5 q0 -5 -2 -22.5t-2 -22.5q0 -28 16.5 -36.5t69.5 -8.5q62 0 77 13t20 61q3 27 11 33.5t40 6.5q27 0 36 -4.5t9 -19.5q0 -96 -39 -135q-37 -37 -164 -37q-102 0 -138 24t-36 80z" />
<glyph unicode="&#x43a;" horiz-adv-x="847" d="M117 27q0 7 35.5 344.5t35.5 384.5q0 31 -11 119.5t-11 97.5q0 15 9.5 23t41.5 8q30 0 39 -6t12 -27q23 -124 23 -180q0 -41 -19 -226h11q90 69 216 189t185 202q25 34 37 41t43 7q49 0 49 -25q0 -33 -87.5 -128t-184.5 -183t-172 -148q59 -91 156 -203t173 -188 q14 -14 30.5 -29.5t27 -24.5t19.5 -19t13.5 -17t4.5 -14q0 -25 -41 -25q-47 0 -62 4.5t-37 24.5q-87 78 -204 219.5t-173 228.5h-12l-43 -436q-3 -26 -13 -33.5t-42 -7.5q-29 0 -39 5t-10 22z" />
<glyph unicode="&#x43b;" horiz-adv-x="888" d="M20 27q0 4 2.5 10t9.5 18t15 27.5t22.5 44t30.5 61.5q146 309 310 785q10 27 32.5 34t73.5 7q44 0 62 -7.5t24 -33.5l174 -881q1 -9 4 -23t4.5 -23.5t1.5 -14.5q0 -17 -11.5 -24t-41.5 -7q-36 0 -47 9.5t-18 51.5q-7 37 -64.5 363.5t-91.5 495.5h-20 q-63 -183 -103 -294.5t-107 -277t-128 -287.5q-21 -40 -36.5 -50.5t-51.5 -10.5q-46 0 -46 27z" />
<glyph unicode="&#x43c;" horiz-adv-x="1421" d="M20 27q0 6 5.5 17.5t19.5 39.5t27 57q66 152 148 390.5t128 441.5q7 28 30 34.5t77 6.5q44 0 63 -7.5t23 -33.5l141 -856q100 230 322 856q10 27 32.5 34t73.5 7q44 0 63.5 -7.5t22.5 -33.5l115 -869q8 -50 8 -73q0 -17 -11.5 -24t-41.5 -7q-36 0 -47 9.5t-17 51.5 q-13 95 -27.5 219t-23.5 211.5t-24 231.5t-21 197h-21q-140 -412 -340 -875q-9 -22 -22.5 -28.5t-50.5 -6.5q-44 0 -57 7.5t-19 37.5q-90 503 -145 865h-21q-124 -509 -283 -859q-19 -41 -32.5 -51t-48.5 -10q-46 0 -46 27z" />
<glyph unicode="&#x43d;" horiz-adv-x="991" d="M117 27q0 7 35.5 344.5t35.5 384.5q0 31 -11 119.5t-11 97.5q0 15 9.5 23t41.5 8q30 0 39 -6t12 -27q23 -124 23 -180q0 -39 -19 -224h447l39 396q3 26 13 33.5t42 7.5q29 0 39 -5t10 -22t-35.5 -348t-35.5 -430q0 -39 11 -101.5t11 -64.5q0 -21 -8.5 -27t-38.5 -6 q-28 0 -38 6.5t-15 26.5q-9 32 -17 85.5t-8 78.5q0 66 21 276h-445l-43 -432q-3 -26 -13 -33.5t-42 -7.5q-29 0 -39 5t-10 22z" />
<glyph unicode="&#x43e;" horiz-adv-x="976" d="M94 287q0 115 22 277t58 249q49 116 137 163.5t244 47.5q89 0 146 -12.5t100 -46t61.5 -93.5t18.5 -155q0 -115 -22 -277.5t-58 -249.5q-49 -115 -137 -162.5t-244 -47.5q-89 0 -146 12.5t-100 46t-61.5 93.5t-18.5 155zM199 283q0 -128 47 -169.5t182 -41.5 q119 0 181 29.5t96 111.5q32 74 51.5 240.5t19.5 267.5q0 128 -47.5 170.5t-183.5 42.5q-117 0 -179 -30.5t-96 -112.5q-32 -74 -51.5 -240.5t-19.5 -267.5z" />
<glyph unicode="&#x43f;" horiz-adv-x="1032" d="M117 27q0 3 10 108q61 615 61 621q0 31 -11 119.5t-11 97.5q0 15 9.5 23t41.5 8q30 0 39 -6t12 -27l21 -146q46 107 130.5 153t235.5 46q143 0 195.5 -51t52.5 -164q0 -39 -29.5 -283.5t-29.5 -326.5q0 -39 11 -101.5t11 -64.5q0 -21 -8.5 -27t-38.5 -6q-28 0 -38 6.5 t-15 26.5q-9 32 -17 85.5t-8 78.5q0 63 30 305t30 299q0 73 -37 102t-129 29q-175 0 -258 -90t-105 -301l-51 -500q-3 -26 -13 -33.5t-42 -7.5q-29 0 -39 5t-10 22z" />
<glyph unicode="&#x440;" horiz-adv-x="1026" d="M74 -362q0 16 14 145l72 676q3 31 9 81.5t9 79.5t5.5 66.5t2.5 67.5q0 26 -6 114.5t-6 106.5q0 15 8.5 22t34.5 7q27 0 37 -6.5t12 -22.5l13 -146q56 113 139.5 154t224.5 41q84 0 136 -12t88.5 -44.5t51.5 -89t15 -147.5q0 -116 -24 -292t-74 -275q-52 -102 -135.5 -143 t-215.5 -41q-199 0 -264 110l-43 -438q-3 -26 -13 -33.5t-42 -7.5q-29 0 -39 5t-10 22zM238 250q0 -87 55 -132.5t201 -45.5q99 0 158 29.5t96 105.5q39 81 59 246t20 272q0 125 -43 166t-163 41q-173 0 -254 -96t-105 -304l-14 -126q-10 -85 -10 -156z" />
<glyph unicode="&#x441;" horiz-adv-x="843" d="M96 287q0 113 20.5 262.5t55.5 249.5q21 61 52 103.5t63 66t77 36.5t81.5 16t89.5 3q48 0 116.5 -9.5t104.5 -21.5q29 -9 37 -17t8 -26q0 -30 -7 -39.5t-20 -9.5q-7 0 -43 8.5t-93.5 16.5t-117.5 8q-108 0 -162 -30t-86 -122q-31 -86 -51 -237t-20 -262q0 -129 48.5 -171 t184.5 -42q62 0 123 13t98.5 26.5t42.5 13.5q15 0 15 -23q0 -37 -8.5 -50.5t-34.5 -22.5q-124 -47 -262 -47q-57 0 -97.5 4.5t-78 16t-61 33t-41.5 55.5t-26 83t-8 115z" />
<glyph unicode="&#x442;" horiz-adv-x="1574" d="M117 27q0 7 20 194q51 489 51 535q0 31 -11 119.5t-11 97.5q0 15 9.5 23t41.5 8q30 0 39 -6t12 -27l21 -144q88 197 346 197q124 0 179.5 -39.5t64.5 -122.5q92 162 319 162q143 0 195.5 -51t52.5 -164q0 -39 -30 -283.5t-30 -326.5q0 -39 11.5 -101.5t11.5 -64.5 q0 -21 -8.5 -27t-38.5 -6q-28 0 -38 6.5t-15 26.5q-9 32 -17 85.5t-8 78.5q0 63 29.5 305t29.5 299q0 73 -36.5 102t-128.5 29q-158 0 -230 -89t-94 -302l-51 -500q-3 -26 -13 -33.5t-42 -7.5q-29 0 -39.5 5t-10.5 22l7 63q75 668 75 711q0 73 -37 102t-129 29 q-160 0 -240 -90.5t-102 -300.5l-51 -500q-3 -26 -13 -33.5t-42 -7.5q-29 0 -39 5t-10 22z" />
<glyph unicode="&#x443;" horiz-adv-x="868" d="M-47 -334q0 28 7.5 38.5t23.5 10.5q4 0 48 -6t91 -6q59 0 100 29t78 112l68 156q-32 2 -48.5 15.5t-23.5 47.5l-193 818q-18 81 -18 92q0 17 12 24q14 7 43 7q28 0 38 -4.5t14 -20.5q3 -11 37 -170t80.5 -369t78.5 -342h21q184 450 338 881q6 16 18 20.5t41 4.5 q32 0 41.5 -6.5t9.5 -20.5q0 -15 -27 -84q-91 -244 -225 -573t-219 -515q-45 -98 -106 -146t-156 -48q-77 0 -131 14q-23 6 -32 14.5t-9 26.5z" />
<glyph unicode="&#x444;" horiz-adv-x="1564" d="M94 242q0 118 21.5 295t52.5 258q46 121 132 175t216 54q126 0 176.5 -25.5t67.5 -76.5l37 368q3 26 13 33.5t42 7.5q29 0 39 -4.5t10 -21.5t-14 -146l-33 -282q52 84 126.5 115.5t199.5 31.5q84 0 136 -12t88.5 -44.5t51 -89t14.5 -147.5q0 -116 -24 -292t-74 -275 q-52 -102 -135 -143t-215 -41q-192 0 -246 106l-41 -434q-3 -26 -13 -33.5t-42 -7.5q-29 0 -39 5t-10 22q0 16 14 145l41 371q-101 -174 -328 -174q-141 0 -202.5 61t-61.5 201zM197 250q0 -100 43.5 -139t140.5 -39q298 0 338 374q26 228 26 308q0 44 -7 72.5t-29 54.5 t-67 38.5t-116 12.5q-104 0 -167 -35.5t-97 -126.5q-24 -66 -44.5 -234.5t-20.5 -285.5zM795 250q0 -44 7.5 -72.5t31 -54.5t72 -38.5t124.5 -12.5q99 0 158 29.5t96 105.5q39 81 59.5 247t20.5 271q0 125 -43.5 166t-163.5 41q-88 0 -148.5 -24t-98.5 -76.5t-58.5 -123 t-32.5 -176.5q-24 -203 -24 -282z" />
<glyph unicode="&#x445;" horiz-adv-x="847" d="M-4 25q0 17 22 45l336 458l-215 402q-18 37 -18 47q0 27 57 27q28 0 39 -5t19 -20l188 -367h8l258 359q13 20 26.5 26.5t39.5 6.5q57 0 57 -23q0 -10 -35 -59l-299 -400l244 -452q14 -25 14 -39q0 -31 -55 -31q-46 0 -59 27l-213 411h-9l-286 -409q-13 -18 -27.5 -23.5 t-40.5 -5.5q-51 0 -51 25z" />
<glyph unicode="&#x446;" horiz-adv-x="1028" d="M135 195q0 18 4 55t8.5 71.5t13 98t13.5 98.5q29 230 29 287q0 39 -11.5 101.5t-11.5 64.5q0 21 8.5 27t38.5 6q28 0 38.5 -7t15.5 -26q9 -31 16.5 -84.5t7.5 -79.5q0 -63 -33.5 -305t-33.5 -299q0 -73 36.5 -102t128.5 -29q173 0 252 89t101 302l51 500q3 26 13 33.5 t42 7.5q29 0 39 -5t10 -22q0 -26 -38.5 -386.5t-38.5 -408.5q0 -39 9 -61t38 -47q40 -34 51.5 -49t11.5 -41q0 -45 -18 -193q-2 -14 -9 -18t-30 -4q-28 0 -36.5 4t-8.5 18v158q0 29 -7.5 41.5t-41.5 40.5q-29 22 -40 54t-14 89q-44 -98 -129 -146t-227 -48q-143 0 -195.5 51 t-52.5 164z" />
<glyph unicode="&#x447;" horiz-adv-x="958" d="M102 543q0 40 12.5 143.5t12.5 118.5q0 39 -11.5 101.5t-11.5 64.5q0 21 9 27t39 6q28 0 38 -6.5t15 -26.5q9 -31 16.5 -84.5t7.5 -79.5q0 -13 -12 -118t-12 -140q0 -51 38 -74.5t128 -23.5q120 0 187.5 30.5t103.5 106t49 217.5l14 158q3 26 13 33.5t42 7.5q29 0 39 -5 t10 -22t-35.5 -348t-35.5 -430q0 -39 11 -101.5t11 -64.5q0 -21 -8.5 -27t-38.5 -6q-28 0 -38 6.5t-15 26.5q-9 32 -17 85.5t-8 78.5q0 111 27 315q-91 -154 -332 -154q-141 0 -194.5 46.5t-53.5 138.5z" />
<glyph unicode="&#x448;" horiz-adv-x="1568" d="M135 195q0 18 4 55t8.5 71.5t13 98t13.5 98.5q3 24 10.5 79.5t11 83t6.5 64t3 60.5q0 39 -11.5 101.5t-11.5 64.5q0 21 8.5 27t38.5 6q28 0 38.5 -7t15.5 -26q9 -31 16.5 -84.5t7.5 -79.5q0 -63 -34.5 -305t-34.5 -299q0 -73 36.5 -102t128.5 -29q158 0 230 89t94 302 l51 500q3 26 13.5 33.5t42.5 7.5q29 0 39 -5t10 -22q0 -27 -41 -380.5t-41 -393.5q0 -73 37 -102t129 -29q160 0 240 90.5t102 300.5l51 500q3 26 13 33.5t42 7.5q29 0 39 -5t10 -22q0 -29 -35.5 -361t-35.5 -366q0 -32 11 -121t11 -98q0 -15 -9.5 -23t-41.5 -8q-30 0 -39 6 t-12 27l-21 141q-90 -194 -346 -194q-125 0 -180 38t-66 123q-90 -161 -317 -161q-143 0 -195.5 51t-52.5 164z" />
<glyph unicode="&#x449;" horiz-adv-x="1581" d="M135 195q0 18 4 55t8.5 71.5t13 98t13.5 98.5q3 24 10.5 79.5t11 83t6.5 64t3 60.5q0 39 -11.5 101.5t-11.5 64.5q0 21 8.5 27t38.5 6q28 0 38.5 -7t15.5 -26q9 -31 16.5 -84.5t7.5 -79.5q0 -63 -34.5 -305t-34.5 -299q0 -73 36.5 -102t128.5 -29q158 0 230 89t94 302 l51 500q3 26 13.5 33.5t42.5 7.5q29 0 39 -5t10 -22q0 -27 -41 -380.5t-41 -393.5q0 -73 37 -102t129 -29q160 0 240 90.5t102 300.5l51 500q3 26 13 33.5t42 7.5q29 0 39 -5t10 -22q0 -26 -39 -386.5t-39 -408.5q0 -39 9 -61t39 -47q40 -34 51.5 -49t11.5 -41 q0 -45 -18 -193q-2 -14 -9 -18t-30 -4q-28 0 -36.5 4t-8.5 18v158q0 29 -7.5 41.5t-41.5 40.5q-29 22 -40.5 55.5t-13.5 87.5q-90 -194 -346 -194q-125 0 -180 38t-66 123q-90 -161 -317 -161q-143 0 -195.5 51t-52.5 164z" />
<glyph unicode="&#x44a;" horiz-adv-x="1001" d="M102 934q0 40 8.5 55t24.5 15h158q29 0 39 -5t10 -22t-14 -146l-29 -272q146 23 260 23q189 0 264.5 -55.5t75.5 -186.5q0 -222 -100 -297q-48 -36 -122 -49.5t-185 -13.5q-142 0 -293 16q-32 3 -45 11t-13 32q0 7 1 19t2.5 28.5t2.5 26.5l84 792h-106q-12 0 -17.5 6 t-5.5 23zM248 88q102 -12 254 -12q169 0 223 39q36 25 51 86t15 125q0 88 -48 122.5t-182 34.5q-140 0 -272 -12z" />
<glyph unicode="&#x44b;" horiz-adv-x="1366" d="M117 39q0 7 1 19t2.5 28.5t2.5 26.5l59 569q4 58 4 74q0 31 -11 119.5t-11 97.5q0 15 9.5 23t41.5 8q30 0 39 -6t12 -27q23 -124 23 -180q0 -42 -19 -232q175 23 265 23q189 0 264 -55.5t75 -186.5q0 -222 -100 -297q-48 -36 -122 -49.5t-185 -13.5q-142 0 -293 16 q-32 3 -44.5 11t-12.5 32zM223 88q102 -12 254 -12q169 0 223 39q36 25 51 86t15 125q0 88 -47.5 122.5t-181.5 34.5q-142 0 -277 -12zM1079 197q0 58 23 288l47 478q3 26 13 33.5t42 7.5q29 0 39 -5t10 -22t-35.5 -348t-35.5 -430q0 -39 11 -101.5t11 -64.5q0 -21 -8.5 -27 t-38.5 -6q-28 0 -38 6.5t-15 26.5q-9 32 -17 85.5t-8 78.5z" />
<glyph unicode="&#x44c;" horiz-adv-x="976" d="M117 39q0 7 1 19t2.5 28.5t2.5 26.5l59 569q4 58 4 74q0 31 -11 119.5t-11 97.5q0 15 9.5 23t41.5 8q30 0 39 -6t12 -27q23 -124 23 -180q0 -42 -19 -232q175 23 265 23q189 0 264 -55.5t75 -186.5q0 -222 -100 -297q-48 -36 -122 -49.5t-185 -13.5q-142 0 -293 16 q-32 3 -44.5 11t-12.5 32zM223 88q102 -12 254 -12q169 0 223 39q36 25 51 86t15 125q0 88 -47.5 122.5t-181.5 34.5q-142 0 -277 -12z" />
<glyph unicode="&#x44d;" horiz-adv-x="825" d="M55 53q0 30 7 39.5t20 9.5q7 0 43 -8t93.5 -16t117.5 -8q57 0 90.5 4t66 18t53.5 42.5t38 76.5q42 123 57 274h-362q-12 0 -17.5 6t-5.5 23q0 64 33 64h360q6 73 6 145q0 48 -3.5 80.5t-15 57t-26.5 38t-43.5 22t-61 11t-83.5 2.5q-62 0 -123 -13t-98.5 -26.5 t-42.5 -13.5q-15 0 -15 22q0 37 8.5 51t34.5 23q124 47 263 47q61 0 101 -3.5t78.5 -14.5t60.5 -31t39.5 -54t24.5 -83.5t7 -118.5q0 -303 -76 -524q-15 -44 -35.5 -78t-41 -56.5t-49.5 -38t-52.5 -23.5t-59 -12.5t-60 -5.5t-64.5 -1q-48 0 -117 9t-105 21q-29 9 -37 17 t-8 26z" />
<glyph unicode="&#x44e;" horiz-adv-x="1368" d="M117 27q0 7 35.5 344.5t35.5 384.5q0 31 -11 119.5t-11 97.5q0 15 9.5 23t41.5 8q30 0 39 -6t12 -27q23 -124 23 -180q0 -39 -19 -224h234q25 170 59 246q49 116 137 163.5t244 47.5q89 0 146 -12.5t100 -46t61.5 -93.5t18.5 -155q0 -115 -22 -277.5t-58 -249.5 q-49 -115 -137 -162.5t-244 -47.5q-89 0 -146 12.5t-100 46t-61.5 93.5t-18.5 155q0 87 11 186h-232l-43 -432q-3 -26 -13 -33.5t-42 -7.5q-29 0 -39 5t-10 22zM590 283q0 -128 47 -169.5t182 -41.5q119 0 181 29.5t96 111.5q32 74 51.5 240.5t19.5 267.5q0 128 -47.5 170.5 t-183.5 42.5q-117 0 -178.5 -30.5t-95.5 -112.5q-32 -75 -52 -241.5t-20 -266.5z" />
<glyph unicode="&#x44f;" horiz-adv-x="1005" d="M72 23q0 15 14 32q17 22 90 113.5t120 153.5t79 112q-139 12 -197.5 71.5t-58.5 176.5q0 67 16.5 134t44.5 104q44 60 124.5 82t221.5 22q142 0 293 -16q32 -3 45 -11t13 -32q0 -29 -35 -351t-35 -415q0 -39 11 -101.5t11 -64.5q0 -21 -8.5 -27t-38.5 -6q-28 0 -38 6.5 t-15 26.5q-9 31 -16.5 84.5t-7.5 79.5q0 69 18 249q-140 -14 -252 -14q-139 -238 -274 -407q-11 -14 -24 -19.5t-42 -5.5q-59 0 -59 23zM227 688q0 -88 48 -123t182 -35q164 0 274 5l39 380q-110 13 -254 13q-113 0 -169 -13.5t-81 -50.5q-18 -26 -28.5 -78t-10.5 -98z" />
<glyph unicode="&#x451;" horiz-adv-x="899" d="M96 287q0 291 76 512q21 61 52 103.5t63.5 66t79 36.5t84.5 16t94 3q85 0 140 -12.5t83 -39t38.5 -58.5t10.5 -80q0 -134 -30.5 -213.5t-108.5 -114.5q-60 -28 -139.5 -41.5t-259.5 -13.5h-72q-6 -86 -6 -168q0 -129 50 -171t193 -42q62 0 126 13t104 26.5t45 13.5 q14 0 14 -23q0 -37 -8.5 -50.5t-34.5 -22.5q-124 -47 -272 -47q-91 0 -145.5 10.5t-97.5 43t-61 93.5t-18 160zM217 543h49q181 0 260.5 13.5t118.5 37.5q24 15 37 30t25 65t12 132q0 30 -6 48t-24.5 34t-57.5 23.5t-101 7.5q-110 0 -168 -30.5t-90 -121.5 q-39 -108 -55 -239zM389 1227q0 1 6 63q3 26 15.5 33.5t48.5 7.5q31 0 41 -6t10 -25q0 -2 -6 -63q-3 -26 -15.5 -33.5t-48.5 -7.5q-31 0 -41 6t-10 25zM631 1227q0 1 6 63q3 26 15 33.5t48 7.5q31 0 41.5 -6t10.5 -25q0 -2 -1 -8.5t-2.5 -21.5t-3.5 -33q-3 -26 -15 -33.5 t-48 -7.5q-31 0 -41 6t-10 25z" />
<glyph unicode="&#x452;" horiz-adv-x="1024" d="M109 27q0 16 14 145l98 942h-84q-12 0 -17 6t-5 23q0 35 8 48t24 13h82l11 86q3 26 13 33.5t42 7.5q29 0 39 -4.5t10 -21.5q0 -4 -1 -15t-4 -36.5t-5 -49.5h301q12 0 17 -5.5t5 -22.5q0 -62 -32 -62h-301l-31 -293q47 87 129.5 124.5t220.5 37.5q143 0 195.5 -51 t52.5 -164q0 -48 -10 -150l-78 -761q-13 -130 -61 -188t-160 -58q-52 0 -115 14q-25 6 -34 14t-9 23q0 26 8 39.5t17 13.5q7 0 52.5 -6t80.5 -6q44 0 65.5 10.5t32.5 36.5q10 24 22 127l70 694q14 144 14 189q0 74 -35.5 102.5t-127.5 28.5q-175 0 -258 -90t-105 -301 l-47 -459q-3 -26 -13 -33.5t-42 -7.5q-29 0 -39 5t-10 22z" />
<glyph unicode="&#x453;" horiz-adv-x="851" d="M82 168q0 95 38 160t134 127l315 204q64 41 90.5 81.5t26.5 105.5q0 57 -39.5 72.5t-150.5 15.5q-60 0 -126 -8.5t-110 -17.5t-51 -9q-12 0 -16.5 5t-4.5 22q0 32 11.5 45.5t44.5 21.5q138 31 264 31q55 0 91 -2.5t76 -12.5t63 -28t38 -51.5t15 -81.5q0 -98 -43 -158 t-127 -115l-322 -210q-64 -41 -89.5 -84.5t-25.5 -108.5q0 -64 52 -81t194 -17q85 0 182.5 18.5t100.5 18.5q14 0 14 -25q0 -36 -10 -50.5t-43 -23.5q-118 -32 -256 -32q-69 0 -116 4t-91.5 15t-71 31.5t-42 55t-15.5 82.5zM403 1124q0 10 19 39l141 215q10 15 24 21t48 6 q35 0 46 -5t11 -16q0 -16 -16 -38l-162 -211q-9 -12 -15.5 -17t-19.5 -8.5t-35 -3.5q-41 0 -41 18z" />
<glyph unicode="&#x454;" horiz-adv-x="843" d="M96 287q0 291 76 512q21 61 52 103.5t63 66t77 36.5t81.5 16t89.5 3q48 0 116.5 -9.5t104.5 -21.5q29 -9 37 -17t8 -26q0 -30 -7 -39.5t-20 -9.5q-7 0 -43 8.5t-93.5 16.5t-117.5 8q-108 0 -162 -30t-86 -122q-33 -91 -49 -204h373q12 0 17 -6t5 -23q0 -64 -32 -64h-375 q-10 -88 -10 -202q0 -129 48.5 -171t184.5 -42q62 0 123 13t98.5 26.5t42.5 13.5q15 0 15 -23q0 -37 -8.5 -50.5t-34.5 -22.5q-124 -47 -262 -47q-57 0 -97.5 4.5t-78 16t-61 33t-41.5 55.5t-26 83t-8 115z" />
<glyph unicode="&#x455;" horiz-adv-x="806" d="M37 53q0 58 22 58q3 0 87 -20.5t169 -20.5q143 0 211 51.5t68 175.5q0 54 -20 83t-74 52l-224 94q-88 38 -125.5 90.5t-37.5 133.5q0 55 18.5 109t48.5 87q69 78 250 78q112 0 227 -31q26 -7 33.5 -15.5t7.5 -25.5q0 -31 -7 -41t-19 -10q-7 0 -43 8.5t-92.5 16.5 t-114.5 8q-90 0 -135 -23q-30 -15 -49 -60t-19 -101q0 -45 19 -75.5t69 -51.5l219 -91q101 -42 137.5 -87t36.5 -121q0 -179 -100 -263q-97 -81 -293 -81q-117 0 -229 32q-26 7 -33.5 16t-7.5 25z" />
<glyph unicode="&#x456;" horiz-adv-x="419" d="M133 197q0 58 23 288l47 478q3 26 13 33.5t42 7.5q29 0 39 -5t10 -22t-35.5 -348t-35.5 -430q0 -39 11 -101.5t11 -64.5q0 -21 -8.5 -27t-38.5 -6q-28 0 -38 6.5t-15 26.5q-9 32 -17 85.5t-8 78.5zM223 1227q0 1 6 63q3 26 16.5 33.5t49.5 7.5q33 0 45 -6t12 -25 q0 -2 -6 -63q-3 -26 -16 -33.5t-49 -7.5q-33 0 -45.5 6t-12.5 25z" />
<glyph unicode="&#x457;" horiz-adv-x="419" d="M88 1227q0 1 6 63q3 26 15.5 33.5t48.5 7.5q31 0 41 -6t10 -25q0 -2 -6 -63q-3 -26 -15.5 -33.5t-48.5 -7.5q-31 0 -41 6t-10 25zM133 197q0 58 23 288l47 478q3 26 13 33.5t42 7.5q29 0 39 -5t10 -22t-35.5 -348t-35.5 -430q0 -39 11 -101.5t11 -64.5q0 -21 -8.5 -27 t-38.5 -6q-28 0 -38 6.5t-15 26.5q-9 32 -17 85.5t-8 78.5zM330 1227q0 1 6 63q3 26 15 33.5t48 7.5q31 0 41.5 -6t10.5 -25q0 -2 -1 -8.5t-2.5 -21.5t-3.5 -33q-3 -26 -15 -33.5t-48 -7.5q-31 0 -41 6t-10 25z" />
<glyph unicode="&#x458;" horiz-adv-x="401" d="M-186 -338q0 27 7.5 40t16.5 13q7 0 52.5 -6t80.5 -6q44 0 66.5 10.5t32.5 36.5q10 24 22 127l111 1086q3 26 13 33.5t42 7.5q29 0 39 -5t10 -22q0 -8 -31 -313l-83 -807q-12 -130 -61 -188t-161 -58q-51 0 -114 14q-25 6 -34 14t-9 23zM223 1227q0 1 6 63 q3 26 16.5 33.5t49.5 7.5q33 0 45 -6t12 -25q0 -2 -6 -63q-3 -26 -16 -33.5t-49 -7.5q-33 0 -45.5 6t-12.5 25z" />
<glyph unicode="&#x459;" horiz-adv-x="1386" d="M20 27q0 4 2.5 10t9.5 18t15 27.5t22.5 44t30.5 61.5q138 293 310 785q10 27 32.5 34t73.5 7q44 0 62 -7.5t24 -33.5l80 -414q179 23 262 23q189 0 264.5 -55.5t75.5 -186.5q0 -222 -100 -297q-48 -36 -122 -49.5t-185 -13.5q-94 0 -152 10q-27 5 -38.5 18.5t-18.5 52.5 q-7 37 -64.5 363.5t-91.5 495.5h-20q-63 -183 -103 -294.5t-107 -277t-128 -287.5q-21 -40 -36.5 -50.5t-51.5 -10.5q-46 0 -46 27zM700 473l78 -395q33 -2 109 -2q169 0 223 39q36 25 51 86t15 125q0 88 -48 122.5t-182 34.5q-113 0 -246 -10z" />
<glyph unicode="&#x45a;" horiz-adv-x="1525" d="M117 27q0 7 35.5 344.5t35.5 384.5q0 31 -11 119.5t-11 97.5q0 15 9.5 23t41.5 8q30 0 39 -6t12 -27q23 -124 23 -180q0 -39 -19 -224h445l41 396q3 26 13 33.5t42 7.5q29 0 39 -5t10 -22t-43 -418q175 23 264 23q189 0 264.5 -55.5t75.5 -186.5q0 -222 -100 -297 q-48 -36 -122 -49.5t-185 -13.5q-142 0 -293 16q-32 3 -44.5 11t-12.5 32q0 7 1 19t2.5 28.5t2.5 26.5l37 360h-445l-43 -432q-3 -26 -13 -33.5t-42 -7.5q-29 0 -39 5t-10 22zM772 88q102 -12 254 -12q169 0 223 39q36 25 51 86t15 125q0 88 -48 122.5t-182 34.5 q-141 0 -276 -12q-3 -31 -8.5 -92.5t-7.5 -85.5z" />
<glyph unicode="&#x45b;" horiz-adv-x="1024" d="M109 27q0 16 14 145l98 942h-84q-12 0 -17 6t-5 23q0 35 8 48t24 13h82l11 86q3 26 13 33.5t42 7.5q29 0 39 -4.5t10 -21.5q0 -4 -1 -15t-4 -36.5t-5 -49.5h301q12 0 17 -5.5t5 -22.5q0 -62 -32 -62h-301l-31 -293q47 87 129.5 124.5t220.5 37.5q143 0 195.5 -51 t52.5 -164q0 -41 -24.5 -270.5t-24.5 -298.5q0 -39 11 -101.5t11 -64.5q0 -21 -8.5 -27t-38.5 -6q-28 0 -38 6.5t-15 26.5q-9 32 -17 85.5t-8 78.5q0 49 24.5 276.5t24.5 286.5q0 73 -36.5 102t-128.5 29q-175 0 -258 -90t-105 -301l-47 -459q-3 -26 -13 -33.5t-42 -7.5 q-29 0 -39 5t-10 22z" />
<glyph unicode="&#x45c;" horiz-adv-x="847" d="M117 27q0 7 35.5 344.5t35.5 384.5q0 31 -11 119.5t-11 97.5q0 15 9.5 23t41.5 8q30 0 39 -6t12 -27q23 -124 23 -180q0 -41 -19 -226h11q90 69 216 189t185 202q25 34 37 41t43 7q49 0 49 -25q0 -33 -87.5 -128t-184.5 -183t-172 -148q59 -91 156 -203t173 -188 q14 -14 30.5 -29.5t27 -24.5t19.5 -19t13.5 -17t4.5 -14q0 -25 -41 -25q-47 0 -62 4.5t-37 24.5q-87 78 -204 219.5t-173 228.5h-12l-43 -436q-3 -26 -13 -33.5t-42 -7.5q-29 0 -39 5t-10 22zM381 1124q0 12 18 39l142 215q10 15 23.5 21t47.5 6q35 0 46.5 -5.5t11.5 -15.5 q0 -14 -17 -38l-161 -211q-9 -12 -15.5 -17t-19.5 -8.5t-35 -3.5q-41 0 -41 18z" />
<glyph unicode="&#x45e;" horiz-adv-x="868" d="M-47 -334q0 28 7.5 38.5t23.5 10.5q4 0 48 -6t91 -6q59 0 100 29t78 112l68 156q-32 2 -48.5 15.5t-23.5 47.5l-193 818q-18 81 -18 92q0 17 12 24q14 7 43 7q28 0 38 -4.5t14 -20.5q3 -11 37 -170t80.5 -369t78.5 -342h21q184 450 338 881q6 16 18 20.5t41 4.5 q32 0 41.5 -6.5t9.5 -20.5q0 -15 -27 -84q-91 -244 -225 -573t-219 -515q-45 -98 -106 -146t-156 -48q-77 0 -131 14q-23 6 -32 14.5t-9 26.5zM322 1251q0 28 4 52q5 27 13 33.5t40 6.5q27 0 36 -4.5t9 -19.5q0 -5 -2 -22.5t-2 -22.5q0 -28 16.5 -36.5t69.5 -8.5 q33 0 50.5 2.5t27.5 12.5t12.5 21.5t5.5 37.5q3 27 11 33.5t40 6.5q27 0 36 -4.5t9 -19.5q0 -96 -39 -135q-37 -37 -163 -37q-102 0 -138 24t-36 80z" />
<glyph unicode="&#x45f;" horiz-adv-x="1015" d="M135 195q0 18 4 55t8.5 71.5t13 98t13.5 98.5q29 230 29 287q0 39 -11.5 101.5t-11.5 64.5q0 21 8.5 27t38.5 6q28 0 38.5 -7t15.5 -26q9 -31 16.5 -84.5t7.5 -79.5q0 -63 -33.5 -305t-33.5 -299q0 -73 36.5 -102t128.5 -29q173 0 252 89t101 302l51 500q3 26 13 33.5 t42 7.5q29 0 39 -5t10 -22q0 -29 -35.5 -361t-35.5 -366q0 -26 6 -114.5t6 -106.5q0 -15 -8.5 -22t-34.5 -7q-27 0 -37 6.5t-12 22.5l-15 159q-42 -105 -129 -156.5t-233 -51.5q-143 0 -195.5 51t-52.5 164zM338 -436q0 12 26.5 123.5t26.5 181.5q0 23 12.5 32t47.5 9 q30 0 40.5 -6.5t10.5 -22.5q0 -108 -80 -305q-6 -16 -16.5 -22.5t-32.5 -6.5q-21 0 -28 3.5t-7 13.5z" />
<glyph unicode="&#x490;" horiz-adv-x="780" d="M113 27q0 12 8 94l112 1087q3 24 14 32.5t44 8.5h442l45 209q3 14 12.5 18.5t36.5 4.5q20 0 27.5 -3t7.5 -12q0 -21 -26 -266q-3 -30 -13.5 -39.5t-34.5 -9.5h-456l-117 -1110q-3 -24 -13.5 -32.5t-43.5 -8.5q-26 0 -35.5 6.5t-9.5 20.5z" />
<glyph unicode="&#x491;" horiz-adv-x="851" d="M82 168q0 95 38 160t134 127l315 204q64 41 90.5 81.5t26.5 105.5q0 57 -39.5 72.5t-150.5 15.5q-60 0 -126 -8.5t-110 -17.5t-51 -9q-12 0 -16.5 5t-4.5 22q0 16 26.5 68t57.5 133t39 163q3 26 13.5 33.5t42.5 7.5q29 0 39 -4.5t10 -21.5q0 -120 -105 -299 q110 18 197 18q55 0 91 -2.5t76 -12.5t63 -28t38 -51.5t15 -81.5q0 -98 -43 -158t-127 -115l-322 -210q-64 -41 -89.5 -84.5t-25.5 -108.5q0 -64 52 -81t194 -17q85 0 182.5 18.5t100.5 18.5q14 0 14 -25q0 -36 -10 -50.5t-43 -23.5q-118 -32 -256 -32q-69 0 -116 4 t-91.5 15t-71 31.5t-42 55t-15.5 82.5z" />
<glyph unicode="&#x2000;" horiz-adv-x="820" />
<glyph unicode="&#x2001;" horiz-adv-x="1640" />
<glyph unicode="&#x2002;" horiz-adv-x="820" />
<glyph unicode="&#x2003;" horiz-adv-x="1640" />
<glyph unicode="&#x2004;" horiz-adv-x="546" />
<glyph unicode="&#x2005;" horiz-adv-x="410" />
<glyph unicode="&#x2006;" horiz-adv-x="273" />
<glyph unicode="&#x2007;" horiz-adv-x="273" />
<glyph unicode="&#x2008;" horiz-adv-x="205" />
<glyph unicode="&#x2009;" horiz-adv-x="328" />
<glyph unicode="&#x200a;" horiz-adv-x="91" />
<glyph unicode="&#x2010;" horiz-adv-x="608" d="M82 528q0 34 8 54t29 20h401q23 0 23 -24q0 -34 -8 -54q-7 -20 -29 -20h-402q-22 0 -22 24z" />
<glyph unicode="&#x2011;" horiz-adv-x="608" d="M82 528q0 34 8 54t29 20h401q23 0 23 -24q0 -34 -8 -54q-7 -20 -29 -20h-402q-22 0 -22 24z" />
<glyph unicode="&#x2012;" horiz-adv-x="608" d="M82 528q0 34 8 54t29 20h401q23 0 23 -24q0 -34 -8 -54q-7 -20 -29 -20h-402q-22 0 -22 24z" />
<glyph unicode="&#x2013;" horiz-adv-x="827" d="M82 528q0 34 8 54t29 20h620q23 0 23 -24q0 -34 -8 -54t-29 -20h-621q-22 0 -22 24z" />
<glyph unicode="&#x2014;" horiz-adv-x="1345" d="M82 528q0 34 8 54t29 20h1138q23 0 23 -24q0 -34 -8 -54t-29 -20h-1139q-22 0 -22 24z" />
<glyph unicode="&#x2018;" horiz-adv-x="305" d="M141 956q0 6 6 70q6 63 33 135l51 142q6 15 16.5 21.5t33.5 6.5q21 0 27.5 -3t6.5 -13q0 -12 -24.5 -107t-30.5 -153l-8 -86q-3 -24 -14 -32.5t-45 -8.5q-30 0 -41 6.5t-11 21.5z" />
<glyph unicode="&#x2019;" horiz-adv-x="305" d="M147 944q0 12 25 106.5t31 153.5l8 86q3 24 14 32.5t45 8.5q30 0 41 -6.5t11 -21.5q0 -2 -1 -9.5t-2.5 -25t-3.5 -35.5q-7 -66 -32 -135l-52 -142q-6 -16 -16.5 -22t-32.5 -6q-21 0 -28 3t-7 13z" />
<glyph unicode="&#x201a;" horiz-adv-x="311" d="M6 -252q0 12 24.5 107t30.5 153l9 86q3 24 14 32.5t45 8.5q30 0 40.5 -6.5t10.5 -22.5q0 -5 -6 -69q-6 -63 -33 -135l-51 -142q-6 -16 -16.5 -22t-32.5 -6q-21 0 -28 3t-7 13z" />
<glyph unicode="&#x201c;" horiz-adv-x="550" d="M141 956q0 6 6 70q6 63 33 135l51 142q6 15 16.5 21.5t33.5 6.5q21 0 27.5 -3t6.5 -13q0 -12 -24.5 -107t-30.5 -153l-8 -86q-3 -24 -14 -32.5t-45 -8.5q-30 0 -41 6.5t-11 21.5zM387 956q0 6 6 70q6 63 33 135l51 142q6 16 16.5 22t32.5 6q21 0 28 -3t7 -13 q0 -12 -24.5 -107t-30.5 -153l-8 -86q-3 -24 -14.5 -32.5t-45.5 -8.5q-30 0 -40.5 6t-10.5 22z" />
<glyph unicode="&#x201d;" horiz-adv-x="550" d="M147 944q0 12 25 106.5t31 153.5l8 86q3 24 14 32.5t45 8.5q30 0 41 -6.5t11 -21.5q0 -2 -1 -9.5t-2.5 -25t-3.5 -35.5q-7 -66 -32 -135l-52 -142q-6 -16 -16.5 -22t-32.5 -6q-21 0 -28 3t-7 13zM393 944q0 12 25 106.5t31 153.5l8 86q3 24 14 32.5t45 8.5q30 0 40.5 -6 t10.5 -22q0 -5 -6 -70q-6 -63 -33 -135l-51 -142q-6 -16 -16.5 -22t-32.5 -6q-21 0 -28 3t-7 13z" />
<glyph unicode="&#x201e;" horiz-adv-x="557" d="M6 -252q0 12 24.5 107t30.5 153l9 86q3 24 14 32.5t45 8.5q30 0 40.5 -6.5t10.5 -22.5q0 -5 -6 -69q-6 -63 -33 -135l-51 -142q-6 -16 -16.5 -22t-32.5 -6q-21 0 -28 3t-7 13zM252 -252q0 12 24.5 107t30.5 153l8 86q3 24 14.5 32.5t45.5 8.5q30 0 40.5 -6.5t10.5 -22.5 q0 -5 -6 -69q-6 -63 -33 -135l-51 -142q-6 -16 -16.5 -22t-32.5 -6q-21 0 -28 3t-7 13z" />
<glyph unicode="&#x2026;" horiz-adv-x="1120" d="M68 31q0 2 6 63q3 26 16 33.5t49 7.5q33 0 45.5 -6t12.5 -25q0 -2 -1 -8.5t-2.5 -21.5t-3.5 -33q-3 -26 -16 -33.5t-49 -7.5q-33 0 -45 6t-12 25zM446 31q0 2 1 8.5t2.5 21.5t3.5 33q3 26 16 33.5t49 7.5q33 0 45 -6t12 -25q0 -2 -6 -63q-3 -26 -16 -33.5t-49 -7.5 q-33 0 -45.5 6t-12.5 25zM825 31q0 2 6 63q3 26 16.5 33.5t49.5 7.5q33 0 45 -6t12 -25q0 -2 -6 -63q-3 -26 -16 -33.5t-49 -7.5q-33 0 -45.5 6t-12.5 25z" />
<glyph unicode="&#x202f;" horiz-adv-x="328" />
<glyph unicode="&#x2039;" horiz-adv-x="624" d="M82 481q0 48 10 78q9 27 35 45l412 275q33 22 45 22q16 0 16 -35q0 -37 -8 -58.5t-33 -39.5l-362 -248l-2 -16l309 -248q26 -21 26 -47q0 -78 -26 -78q-14 0 -41 23l-348 270q-33 24 -33 57z" />
<glyph unicode="&#x203a;" horiz-adv-x="624" d="M78 166q0 37 8 58.5t33 39.5l362 248l2 16l-309 248q-27 22 -27 47q0 24 6 51t21 27t41 -22l348 -271q33 -24 33 -57q0 -48 -10 -78q-9 -27 -35 -45l-412 -274q-35 -23 -45 -23q-16 0 -16 35z" />
<glyph unicode="&#x205f;" horiz-adv-x="410" />
<glyph unicode="&#x20ac;" d="M100 496q0 15 15 55q5 14 18 14h64l18 154h-80q-14 0 -14 12q0 18 14 55q5 15 19 15h71q10 70 22.5 127t27 101.5t33 78.5t37 58.5t44.5 41.5t50 27t58 15.5t64.5 7.5t73.5 2q157 0 293 -43q19 -6 24.5 -13t5.5 -20q0 -60 -24 -60q-6 0 -51.5 10t-114 19.5t-131.5 9.5 q-57 0 -90.5 -3t-68.5 -15.5t-54 -35t-38.5 -64t-32 -99.5t-25.5 -145h387q14 0 14 -13q0 -18 -14 -55q-5 -14 -19 -14h-379l-18 -154h371q14 0 14 -12q0 -18 -14 -55q-5 -15 -19 -15h-358q-6 -59 -6 -145q0 -61 7 -104.5t23.5 -73t36.5 -47t54 -26.5t67 -12t84 -3 q99 0 197 21.5t102 21.5q16 0 16 -21q0 -33 -10 -46t-45 -25q-59 -21 -139 -32t-141 -11q-50 0 -82 2t-73.5 9.5t-67.5 22t-54 41t-44 65t-26 95t-10 129.5q0 48 8 139h-75q-15 0 -15 13z" />
<glyph unicode="&#x2122;" horiz-adv-x="1366" d="M125 1190q0 35 8 47t23 12h430q20 0 20 -26q0 -35 -8 -47.5t-23 -12.5h-169l-54 -514q-2 -21 -11.5 -28t-39.5 -7q-23 0 -31 5.5t-8 19.5q0 15 4 47l49 477h-170q-20 0 -20 27zM662 641q0 9 2 29l57 538q3 25 19 33t81 8q54 0 69.5 -10t24.5 -51l89 -391l170 391 q19 41 37.5 51t72.5 10q59 0 75.5 -6t16.5 -24q0 -15 -2 -33l-57 -531q-3 -25 -11.5 -33t-37.5 -8q-24 0 -32.5 6.5t-8.5 20.5q0 9 2 29l51 489h-18l-203 -448q-12 -27 -24 -34t-44 -7t-42.5 7t-16.5 34l-109 448h-18l-53 -504q-3 -25 -12 -33t-38 -8q-24 0 -32 6.5t-8 20.5 z" />
<glyph unicode="&#x25fc;" horiz-adv-x="1003" d="M0 0v1004h1004v-1004h-1004z" />
</font>
</defs>
</svg>
