<?xml version="1.0" standalone="no"?>
<!DOCTYPE svg PUBLIC "-//W3C//DTD SVG 1.1//EN" "http://www.w3.org/Graphics/SVG/1.1/DTD/svg11.dtd" >
<svg xmlns="http://www.w3.org/2000/svg">
<metadata></metadata>
<defs>
<font id="neuronbold" horiz-adv-x="952" >
<font-face units-per-em="2048" ascent="1536" descent="-512" />
<missing-glyph horiz-adv-x="428" />
<glyph horiz-adv-x="0" />
<glyph horiz-adv-x="682" />
<glyph unicode="&#xd;" horiz-adv-x="868" />
<glyph unicode=" "  horiz-adv-x="428" />
<glyph unicode="&#x09;" horiz-adv-x="428" />
<glyph unicode="&#xa0;" horiz-adv-x="428" />
<glyph unicode="!" horiz-adv-x="436" d="M96 88v51q0 56 22.5 72t100.5 16q77 0 100 -16.5t23 -71.5v-51q0 -55 -23 -71.5t-100 -16.5q-78 0 -100.5 16t-22.5 72zM98 1202q0 43 24 56.5t95 13.5q72 0 96.5 -13.5t24.5 -56.5q0 -136 -7 -416.5t-7 -390.5q0 -43 -19.5 -55t-87.5 -12q-66 0 -85 12t-19 55 q0 110 -7.5 390.5t-7.5 416.5z" />
<glyph unicode="&#x22;" horiz-adv-x="647" d="M47 1196q0 45 23 60.5t98 15.5q76 0 98.5 -15t22.5 -61q0 -88 -33 -354q-5 -33 -22 -43.5t-66 -10.5t-66 10.5t-22 43.5q-33 266 -33 354zM358 1196q0 46 22.5 61t98.5 15q75 0 98 -15.5t23 -60.5q0 -88 -33 -354q-4 -32 -22.5 -43t-65.5 -11q-49 0 -66 10.5t-22 43.5 q-33 266 -33 354z" />
<glyph unicode="#" d="M47 436q0 55 12.5 69.5t55.5 14.5h88v260h-88q-43 0 -55.5 15t-12.5 69q0 55 12.5 70.5t55.5 15.5h88v189q0 44 18.5 56.5t77.5 12.5q58 0 77 -12.5t19 -56.5v-189h160v189q0 44 18.5 56.5t77.5 12.5q58 0 77.5 -12.5t19.5 -56.5v-189h90q43 0 55 -15.5t12 -70.5 q0 -54 -12 -69t-55 -15h-90v-260h90q43 0 55 -14.5t12 -69.5t-12 -69.5t-55 -14.5h-90v-205q0 -43 -19.5 -55t-77.5 -12q-59 0 -77.5 12t-18.5 55v205h-160v-205q0 -43 -19 -55t-77 -12q-59 0 -77.5 12t-18.5 55v205h-88q-43 0 -55.5 14.5t-12.5 69.5zM395 520h160v260h-160 v-260z" />
<glyph unicode="$" d="M82 129q0 57 9 75.5t32 18.5q6 0 94.5 -15t179.5 -15q127 0 184.5 35t57.5 124q0 69 -19 105t-79 61l-236 100q-104 44 -151.5 114.5t-47.5 205.5q0 90 22 155t63.5 102.5t90 57t111.5 25.5v129q0 45 19.5 57.5t89.5 12.5q68 0 87 -12.5t19 -57.5v-133q79 -7 180 -31 q27 -7 38.5 -28t11.5 -82q0 -55 -10 -75t-31 -20q-1 0 -92.5 15.5t-178.5 15.5q-44 0 -70 -2t-51.5 -9.5t-38 -21.5t-20.5 -38.5t-8 -61.5q0 -55 18.5 -80.5t67.5 -48.5l246 -107q109 -47 154.5 -120t45.5 -213q0 -323 -299 -375v-146q0 -45 -19 -57t-89 -12q-69 0 -88 12 t-19 57v136q-130 9 -217 34q-32 10 -44.5 32t-12.5 81z" />
<glyph unicode="%" horiz-adv-x="1069" d="M41 981q0 121 23.5 182.5t75.5 85t153 23.5t152.5 -23.5t74.5 -85t23 -182.5q0 -110 -17 -168l242 412q16 28 40 37.5t89 9.5q44 0 63 -8t19 -27q0 -23 -27 -66l-368 -632q52 47 190 47q102 0 153.5 -23t75 -84.5t23.5 -183.5q0 -93 -10 -147t-39.5 -89t-76 -47 t-126.5 -12q-64 0 -105 8.5t-71 26.5t-45.5 53.5t-22 84t-6.5 122.5q0 114 19 170l-244 -418q-16 -27 -40.5 -37t-88.5 -10q-82 0 -82 33q0 21 25 67l366 629q-51 -43 -186 -43q-80 0 -126.5 12t-76 47t-39.5 89t-10 147zM209 977q0 -96 14 -123t70 -27t70 27t14 123 q0 97 -14 124t-70 27q-57 0 -70.5 -26.5t-13.5 -124.5zM690 293q0 -96 14 -123t70 -27t70 27t14 123q0 98 -13.5 123.5t-70.5 25.5q-56 0 -70 -26t-14 -123z" />
<glyph unicode="&#x26;" horiz-adv-x="1060" d="M76 338q0 149 62 222.5t202 82.5q-108 17 -160.5 100.5t-52.5 214.5q0 78 15.5 135.5t42.5 93.5t69.5 57.5t89.5 29.5t109 8q181 0 327 -39q28 -8 37.5 -26t9.5 -78q0 -54 -11 -73t-34 -19q-8 0 -108.5 14t-171.5 14q-79 0 -106 -31t-27 -131q0 -47 7.5 -78t28.5 -58 t64 -39.5t109 -12.5h112v98q0 46 17 58t81 12q63 0 80 -12t17 -58v-98h98q39 0 51.5 -17t12.5 -69t-12.5 -69t-51.5 -17h-86v-274q0 -90 -26 -149t-81 -90t-122.5 -42.5t-167.5 -11.5q-227 0 -325.5 77t-98.5 275zM317 362q0 -98 37.5 -137t153.5 -39q103 0 142.5 30.5 t39.5 109.5v227h-121q-79 0 -130 -12t-77 -38t-35.5 -58.5t-9.5 -82.5z" />
<glyph unicode="'" horiz-adv-x="335" d="M47 1196q0 45 23 60.5t98 15.5q76 0 98.5 -15t22.5 -61q0 -88 -33 -354q-5 -33 -22 -43.5t-66 -10.5t-66 10.5t-22 43.5q-33 266 -33 354z" />
<glyph unicode="(" horiz-adv-x="446" d="M74 631q0 211 42 392t97 296q18 36 43 48.5t84 12.5q82 0 82 -49q0 -18 -17 -79t-37.5 -136.5t-37.5 -208t-17 -276.5q0 -145 17 -278t37.5 -208t37.5 -136t17 -79q0 -51 -82 -51q-58 0 -83.5 13.5t-43.5 48.5q-55 115 -97 296.5t-42 393.5z" />
<glyph unicode=")" horiz-adv-x="446" d="M25 -70q0 18 17 79t37 136t37 208t17 278t-17 277.5t-37 208t-37 136t-17 78.5q0 25 19 37t62 12q59 0 84 -12.5t43 -48.5q56 -116 98 -296.5t42 -391.5t-42 -392.5t-98 -297.5q-18 -35 -43.5 -48.5t-83.5 -13.5q-81 0 -81 51z" />
<glyph unicode="*" horiz-adv-x="808" d="M52.5 952.5q-4.5 19.5 13.5 75.5q17 54 32.5 67.5t44.5 4.5l136 -43q25 -9 38 -21q-4 10 -4 43v150q0 30 18 41.5t75 11.5q56 0 74 -11t18 -42v-150q0 -25 -6 -43q18 14 38 21l136 43q28 9 43.5 -4.5t33.5 -67.5q18 -56 13.5 -75.5t-33.5 -28.5l-135 -43q-27 -9 -43 -9 q15 -9 30 -30l89 -121q19 -24 10.5 -43.5t-56.5 -52.5q-45 -33 -65.5 -35.5t-38.5 22.5l-88 121q-16 19 -23 39q-2 -10 -20 -39l-88 -121q-16 -26 -37.5 -23.5t-67.5 36.5q-46 33 -55 53.5t10 42.5l88 121q14 20 31 30q-17 0 -41 9l-137 43q-29 9 -33.5 28.5z" />
<glyph unicode="+" d="M125 551q0 63 11 77.5t52 14.5h185v211q0 40 19.5 52t84.5 12t85 -12t20 -52v-211h184q41 0 52 -14.5t11 -77.5t-11 -78.5t-52 -15.5h-184v-209q0 -40 -20 -52t-85 -12t-84.5 12t-19.5 52v209h-185q-41 0 -52 15.5t-11 78.5z" />
<glyph unicode="," horiz-adv-x="360" d="M35 -223q0 15 13 108.5t13 149.5v127q0 54 22.5 71t98.5 17q77 0 99 -16.5t22 -71.5v-56q0 -88 -35 -188l-32 -98q-18 -56 -42 -71t-88 -15q-42 0 -56.5 10t-14.5 33z" />
<glyph unicode="-" horiz-adv-x="667" d="M61 526q0 65 12 85t52 20h418q39 0 51 -20t12 -85t-11.5 -84.5t-51.5 -19.5h-418q-40 0 -52 19.5t-12 84.5z" />
<glyph unicode="." horiz-adv-x="385" d="M72 88v74q0 56 22.5 72t100.5 16q77 0 99.5 -16.5t22.5 -71.5v-74q0 -55 -22.5 -71.5t-99.5 -16.5q-78 0 -100.5 16t-22.5 72z" />
<glyph unicode="/" horiz-adv-x="563" d="M18 -74q0 9 19 99l291 1294q7 34 35 47.5t83 13.5t77 -11t22 -34q0 -18 -17 -98l-290 -1294q-7 -34 -35.5 -48t-83.5 -14q-101 0 -101 45z" />
<glyph unicode="0" d="M53 453v327q0 128 17 217t48 145t85.5 87t117.5 42t156 11q97 0 162.5 -12t118 -43.5t82 -88.5t44.5 -144t15 -214v-325q0 -117 -19 -201t-52 -135.5t-88 -81.5t-116 -40.5t-147 -10.5q-90 0 -154 11.5t-118 41.5t-85.5 82.5t-49 134.5t-17.5 197zM291 481 q0 -95 6.5 -148t28 -87.5t56 -45t95.5 -10.5q76 0 113.5 23t54.5 84t17 184v291q0 83 -5 134.5t-15.5 87.5t-33.5 53t-52.5 23.5t-78.5 6.5q-47 0 -75.5 -6.5t-52 -24t-35 -52.5t-17.5 -88t-6 -134v-291z" />
<glyph unicode="1" d="M121 1071q0 66 10.5 89t42.5 32l205 63q53 17 98 17q71 0 95 -13.5t24 -56.5v-991h172q36 0 49.5 -22t13.5 -85q0 -62 -13.5 -83t-49.5 -21h-580q-36 0 -49.5 21t-13.5 83q0 63 13.5 85t49.5 22h170v807l-145 -39q-33 -8 -51 -8q-12 0 -20 5t-14.5 28.5t-6.5 66.5z" />
<glyph unicode="2" d="M88 70v125q0 107 39.5 175.5t134.5 161.5l266 263q40 40 56 69t16 80q0 85 -32.5 108t-133.5 23q-80 0 -174 -17.5t-104 -17.5q-20 0 -28.5 19t-8.5 76q0 59 11.5 78.5t43.5 29.5q129 39 330 39q62 0 103 -4t90 -22t77.5 -50t48 -91.5t19.5 -143.5q0 -61 -10 -105 t-40 -89t-60.5 -77.5t-96.5 -95.5l-211 -201q-25 -24 -36.5 -38t-20.5 -39.5t-9 -59.5v-55h443q36 0 49.5 -22t13.5 -85q0 -62 -13.5 -83t-49.5 -21h-645q-39 0 -53.5 13.5t-14.5 56.5z" />
<glyph unicode="3" d="M76 129q0 57 9 75.5t32 18.5q9 0 120 -15t191 -15q116 0 155.5 43.5t39.5 140.5q0 65 -21 102t-85.5 58.5t-182.5 21.5q-39 0 -51.5 19.5t-12.5 74.5q0 54 12.5 74.5t51.5 20.5q148 0 206 44t58 136q0 88 -30.5 117.5t-127.5 29.5q-76 0 -177 -15.5t-107 -15.5 q-22 0 -32.5 20t-10.5 75q0 59 11 78t38 26q142 39 344 39q65 0 113.5 -8t91.5 -29.5t70.5 -57.5t43 -93.5t15.5 -135.5q0 -126 -59 -205t-171 -96q137 -9 195.5 -81.5t58.5 -221.5q0 -196 -97 -282t-294 -86q-90 0 -187 10t-151 27q-34 10 -46.5 28.5t-12.5 77.5z" />
<glyph unicode="4" d="M39 416q0 42 5.5 68.5t27.5 66.5l346 649q25 47 64.5 59.5t140.5 12.5q100 0 132.5 -13t32.5 -57v-706h64q37 0 50 -18.5t13 -80.5t-13 -81t-50 -19h-64v-227q0 -43 -23.5 -56.5t-94.5 -13.5t-95 13.5t-24 56.5v227h-432q-49 0 -64.5 21t-15.5 98zM270 496h293l4 559h-12 z" />
<glyph unicode="5" d="M98 129q0 57 9 74.5t32 17.5q5 0 87.5 -15.5t168.5 -15.5q133 0 177 37t44 150v67q0 97 -31.5 126.5t-119.5 29.5q-68 0 -163.5 -15.5t-113.5 -15.5q-21 0 -33 2.5t-22 15.5t-10 38v583q0 39 15 51.5t59 12.5h553q36 0 49.5 -22t13.5 -85t-13.5 -83.5t-49.5 -20.5h-412 v-285q76 23 192 23q40 0 66 -1.5t63.5 -8.5t62 -19.5t52 -37.5t43.5 -60.5t26.5 -89t10.5 -121.5v-107q0 -80 -15 -141t-44.5 -100.5t-65.5 -65.5t-87.5 -39t-99 -17.5t-110.5 -4.5q-135 0 -276 37q-34 10 -46 28t-12 78z" />
<glyph unicode="6" d="M72 481v275q0 101 13.5 181t35.5 134.5t57 94t70.5 61.5t83 35t87 16.5t91.5 3.5q126 0 254 -31q20 -5 29 -11t14.5 -27.5t5.5 -65.5q0 -54 -10.5 -74t-30.5 -20q-5 0 -86 12t-149 12q-39 0 -64.5 -2t-53 -9.5t-44.5 -21.5t-33 -37.5t-24.5 -58.5t-13.5 -84t-5 -114v-80 q64 121 270 121q67 0 112.5 -8.5t85.5 -32.5t63 -66.5t36 -110.5t13 -165q0 -125 -23 -207t-74.5 -129.5t-124.5 -66.5t-184 -19q-58 0 -99.5 4t-86 16t-75 34t-59 59t-45 89t-26.5 125.5t-10 167.5zM299 420q0 -101 17.5 -150t53 -64.5t109.5 -15.5q101 0 139.5 39.5 t38.5 161.5q0 125 -33 166t-141 41q-102 0 -143 -38.5t-41 -139.5z" />
<glyph unicode="7" d="M76 1165q0 64 13 85.5t50 21.5h635q51 0 66.5 -21t15.5 -98q0 -23 -4.5 -46t-9 -37.5t-17.5 -51.5l-346 -957q-13 -37 -43.5 -49t-89.5 -12q-60 0 -82 13t-22 38q0 31 24 94l338 916h-465q-37 0 -50 20.5t-13 83.5z" />
<glyph unicode="8" d="M63 365q0 248 179 309q-73 31 -111.5 99.5t-38.5 191.5q0 79 18.5 136t50 91.5t82 55t105 27.5t127.5 7q74 0 128.5 -7t104.5 -27.5t81.5 -55t50 -91.5t18.5 -136q0 -123 -38 -191.5t-111 -99.5q182 -61 182 -309q0 -107 -18.5 -176t-66 -116.5t-127 -67t-204.5 -19.5 t-204 19.5t-125.5 67t-64.5 116t-18 176.5zM299 387q0 -125 34 -163t142 -38t142 38t34 163q0 64 -8.5 101.5t-32 57.5t-53 26t-82.5 6q-52 0 -81.5 -6t-53 -26t-32.5 -57.5t-9 -101.5zM326 934q0 -58 6.5 -91t26 -50.5t44 -22t72.5 -4.5q49 0 74 4.5t44.5 22t25.5 50 t6 91.5q0 52 -7.5 83t-28.5 46.5t-45 19.5t-69 4t-69 -4t-44.5 -19.5t-28 -46t-7.5 -83.5z" />
<glyph unicode="9" d="M78 864q0 121 21.5 201t70.5 128.5t120.5 68.5t180.5 20q50 0 87.5 -3t78 -12t69.5 -25t57.5 -41.5t47.5 -63t34 -87.5t22 -116.5t7 -149.5v-268q0 -81 -8.5 -148.5t-22 -118t-36 -90.5t-46.5 -67.5t-57 -47t-63 -31t-70 -17.5t-73 -8t-76 -2q-117 0 -244 30 q-34 7 -44.5 24t-10.5 81q0 54 9.5 74t31.5 20q4 0 79 -12.5t146 -12.5q54 0 87 3t66 15t50 33t31 58.5t19 91t5 131.5v68q-62 -117 -262 -117q-85 0 -138 14.5t-93.5 56t-58 119.5t-17.5 201zM297 877q0 -128 31 -168.5t137 -40.5q103 0 142.5 38t39.5 140q0 81 -6 125 t-27 70.5t-52 34t-89 7.5q-107 0 -141.5 -40t-34.5 -166z" />
<glyph unicode=":" horiz-adv-x="385" d="M72 88v74q0 56 22.5 72t100.5 16q77 0 99.5 -16.5t22.5 -71.5v-74q0 -55 -22.5 -71.5t-99.5 -16.5q-78 0 -100.5 16t-22.5 72zM72 858v74q0 56 22.5 72t100.5 16q77 0 99.5 -16.5t22.5 -71.5v-74q0 -55 -22.5 -71.5t-99.5 -16.5q-78 0 -100.5 16t-22.5 72z" />
<glyph unicode=";" horiz-adv-x="360" d="M23 -223q0 15 13 108.5t13 149.5v127q0 54 22.5 71t98.5 17q77 0 99 -16.5t22 -71.5v-56q0 -88 -35 -188l-33 -98q-18 -56 -41.5 -71t-87.5 -15q-42 0 -56.5 10t-14.5 33zM47 858v74q0 56 22.5 72t100.5 16q77 0 100 -16.5t23 -71.5v-74q0 -55 -23 -71.5t-100 -16.5 q-78 0 -100.5 16t-22.5 72z" />
<glyph unicode="&#x3c;" d="M127 551q0 64 8.5 97.5t25 48t52.5 28.5l481 172q30 10 47 10q24 0 34.5 -18.5t10.5 -73.5q0 -77 -10.5 -98.5t-56.5 -34.5l-397 -125v-14l397 -125q45 -13 56 -35t11 -98q0 -56 -10.5 -74t-34.5 -18q-25 0 -47 10l-481 170q-53 18 -69.5 50t-16.5 128z" />
<glyph unicode="=" d="M154 395q0 63 11 77.5t52 14.5h518q41 0 52.5 -15t11.5 -77t-11.5 -77t-52.5 -15h-518q-41 0 -52 14.5t-11 77.5zM154 719q0 63 11 77.5t52 14.5h518q41 0 52.5 -15t11.5 -77q0 -63 -11.5 -78.5t-52.5 -15.5h-518q-41 0 -52 15.5t-11 78.5z" />
<glyph unicode="&#x3e;" d="M166 285q0 76 11 98t56 35l398 125v14l-398 125q-46 13 -56.5 34.5t-10.5 98.5q0 55 10.5 73.5t34.5 18.5q17 0 47 -10l481 -172q36 -14 52.5 -28.5t25 -48t8.5 -97.5q0 -96 -16.5 -128t-69.5 -50l-481 -170q-22 -10 -47 -10q-24 0 -34.5 18t-10.5 74z" />
<glyph unicode="?" horiz-adv-x="749" d="M29 1137q0 60 11 78t44 28q129 39 297 39q58 0 102.5 -5t91 -22t76.5 -46t49 -79.5t19 -119.5q0 -98 -25.5 -156t-81.5 -121l-133 -147q-24 -27 -34.5 -55t-10.5 -78v-58q0 -42 -22 -54.5t-86 -12.5q-62 0 -84.5 13t-22.5 54v82q0 69 15.5 109t54.5 82l133 143 q55 58 55 150q0 72 -30.5 93t-122.5 21q-74 0 -159 -15.5t-95 -15.5q-22 0 -31.5 19t-9.5 74zM203 88v51q0 55 23 71.5t100 16.5q78 0 101.5 -16.5t23.5 -71.5v-51q0 -55 -23.5 -71.5t-101.5 -16.5q-77 0 -100 16.5t-23 71.5z" />
<glyph unicode="@" horiz-adv-x="1775" d="M49 406v159q0 177 24.5 306t82 230.5t154 163t237.5 93t336 31.5t336 -27.5t239 -82t156.5 -145t84 -208t25.5 -279.5v-168q0 -126 -21 -219t-54 -145.5t-83.5 -84t-98 -41t-109.5 -9.5q-111 0 -174.5 43.5t-93.5 144.5q-69 -188 -306 -188q-80 0 -133 15t-90.5 47.5 t-57 95.5t-28 147.5t-8.5 214.5q0 134 13.5 226.5t38.5 152.5t69.5 93t98 45.5t132.5 12.5q100 0 162 -35.5t92 -115.5v61q0 45 19.5 57.5t87.5 12.5q69 0 88.5 -12.5t19.5 -57.5v-618q0 -89 24.5 -128.5t76.5 -39.5q44 0 69 24.5t38 94t13 198.5v166q0 116 -11 197.5 t-39 147.5t-72 107t-116 68t-165 38t-223 11q-129 0 -223 -13.5t-164 -45t-114 -77t-70.5 -118.5t-37 -159t-10.5 -207v-197q0 -124 15 -214.5t50 -156t83.5 -107t126 -66t166.5 -33.5t215 -9q36 0 49.5 -18t13.5 -74q0 -58 -16.5 -76t-67.5 -18q-164 0 -286 16.5t-219 54.5 t-161 97.5t-106 149t-60 204t-18 267.5zM709 492q0 -138 13.5 -203t44 -88t95.5 -23q55 0 88 9.5t58.5 38t36 81.5t10.5 139v123q0 156 -33 208t-143 52q-43 0 -68.5 -6.5t-47.5 -25.5t-32.5 -57.5t-16 -97.5t-5.5 -150z" />
<glyph unicode="A" horiz-adv-x="1089" d="M29 55q0 14 14 72l279 1036q18 71 58.5 90t164.5 19q123 0 162 -19t59 -90l281 -1036q12 -50 12 -72q0 -31 -21.5 -43t-91.5 -12q-75 0 -99.5 13t-35.5 55l-74 274h-391l-67 -274q-9 -42 -34.5 -55t-101.5 -13q-71 0 -92.5 11.5t-21.5 43.5zM393 524h303l-139 547h-27z " />
<glyph unicode="B" horiz-adv-x="1058" d="M109 76v1110q0 43 15.5 59t55.5 21q134 16 295 16q72 0 123 -2.5t102 -10.5t84.5 -22.5t63.5 -37.5t46.5 -57t26 -81t9.5 -108q0 -128 -34.5 -198.5t-123.5 -96.5q109 -24 156 -97.5t47 -226.5q0 -104 -20 -169t-72 -109t-139 -62t-224 -18q-219 0 -338 14 q-46 6 -59.5 21t-13.5 55zM346 184q78 -10 186 -10q70 0 106 6t59 30t28.5 61t5.5 110q0 119 -35.5 156.5t-152.5 37.5h-197v-391zM346 745h152q120 0 154 34.5t34 150.5q0 69 -12 98.5t-48 42t-118 12.5q-80 0 -162 -8v-330z" />
<glyph unicode="C" horiz-adv-x="927" d="M84 528v181q0 98 8.5 177t26 137t39 101t54 71t64 46t76.5 26.5t83 11.5t91 3q151 0 293 -39q28 -7 38.5 -27t10.5 -83q0 -93 -37 -93q-3 0 -87 15.5t-162 15.5q-55 0 -89 -4t-66.5 -17.5t-49.5 -37.5t-31 -67t-19 -104t-5 -149v-112q0 -78 4.5 -135t12.5 -99.5 t24.5 -69.5t34 -43.5t48.5 -24.5t60 -10.5t76 -2.5q82 0 162.5 16t86.5 16q22 0 29.5 -18.5t7.5 -75.5q0 -60 -11 -80.5t-38 -27.5q-131 -39 -297 -39q-47 0 -82 2t-75 9t-69 18.5t-60 32t-52.5 49t-41.5 69t-32 92.5t-19 120t-7 150z" />
<glyph unicode="D" horiz-adv-x="1081" d="M109 76v1110q0 41 16.5 58t54.5 22q119 16 299 16q56 0 96.5 -1.5t86 -6.5t78 -14.5t67 -24.5t58 -37.5t46.5 -53t37.5 -70.5t26.5 -91t17 -114.5t5 -139.5v-149q0 -102 -8.5 -184t-27.5 -142t-42 -104.5t-58.5 -74t-70 -47.5t-84 -27t-92.5 -12t-104 -3q-196 0 -328 14 q-45 6 -59 21.5t-14 54.5zM346 203q57 -8 164 -8q55 0 87.5 3.5t64.5 17.5t47.5 38t28.5 68t17.5 105.5t4.5 152.5v141q0 120 -11.5 189t-45.5 109t-81.5 52t-132.5 12q-73 0 -143 -8v-872z" />
<glyph unicode="E" horiz-adv-x="931" d="M109 63v1145q0 39 15.5 51.5t57.5 12.5h617q36 0 49.5 -22t13.5 -85t-13.5 -83.5t-49.5 -20.5h-453v-291h328q40 0 51.5 -19t11.5 -83q0 -65 -12 -85t-51 -20h-328v-352h473q36 0 50 -22t14 -85q0 -61 -14 -82.5t-50 -21.5h-637q-43 0 -58 12t-15 51z" />
<glyph unicode="F" horiz-adv-x="878" d="M109 70v1138q0 39 15.5 51.5t57.5 12.5h606q37 0 50.5 -21.5t13.5 -85.5q0 -63 -13 -83.5t-51 -20.5h-442v-291h318q40 0 51.5 -19t11.5 -83q0 -65 -12 -85t-51 -20h-318v-493q0 -43 -23.5 -56.5t-95.5 -13.5q-71 0 -94.5 13.5t-23.5 56.5z" />
<glyph unicode="G" horiz-adv-x="1017" d="M80 528v181q0 87 7 159.5t19.5 127.5t33 98t42 73t53.5 51t62 33.5t71 19.5t76.5 9t83.5 2q170 0 312 -39q28 -7 38.5 -27t10.5 -83q0 -51 -9 -72t-28 -21q-3 0 -100 15.5t-174 15.5q-55 0 -88.5 -4t-66 -17t-50 -37.5t-32 -67.5t-19.5 -104t-5 -149v-112q0 -90 5.5 -154 t19.5 -106.5t29.5 -67.5t44.5 -37.5t55 -16t70 -3.5q99 0 140.5 37.5t41.5 148.5v131h-143q-33 0 -43.5 20t-10.5 84q0 57 11 76t43 19h268q52 0 68 -14.5t16 -49.5v-319q0 -189 -95.5 -265.5t-316.5 -76.5q-61 0 -104.5 3.5t-93 16.5t-83 36t-66 63t-51.5 97t-30.5 139 t-11.5 187z" />
<glyph unicode="H" horiz-adv-x="1087" d="M109 70v1132q0 43 23.5 56.5t94.5 13.5q72 0 95.5 -13.5t23.5 -56.5v-452h395v452q0 43 23.5 56.5t95.5 13.5q71 0 95 -13.5t24 -56.5v-1132q0 -43 -24 -56.5t-95 -13.5q-72 0 -95.5 13.5t-23.5 56.5v479h-395v-479q0 -43 -23.5 -56.5t-95.5 -13.5q-71 0 -94.5 13.5 t-23.5 56.5z" />
<glyph unicode="I" horiz-adv-x="456" d="M109 70v1132q0 43 23.5 56.5t94.5 13.5q72 0 95.5 -13.5t23.5 -56.5v-1132q0 -43 -23.5 -56.5t-95.5 -13.5q-71 0 -94.5 13.5t-23.5 56.5z" />
<glyph unicode="J" horiz-adv-x="712" d="M14 125q0 56 8.5 71t32.5 15q12 0 70 -8t102 -8q83 0 111.5 30t28.5 123v854q0 43 23.5 56.5t94.5 13.5t95 -13.5t24 -56.5v-854q0 -196 -74.5 -279t-240.5 -83q-115 0 -217 28q-33 10 -45.5 30.5t-12.5 80.5z" />
<glyph unicode="K" horiz-adv-x="991" d="M109 70v1132q0 43 23.5 56.5t94.5 13.5q72 0 95.5 -13.5t23.5 -56.5v-483h33l293 495q22 37 48.5 47.5t104.5 10.5q65 0 88 -11.5t23 -37.5q0 -23 -27 -68l-323 -512l334 -496q41 -62 41 -94q0 -26 -24.5 -39.5t-100.5 -13.5q-63 0 -90.5 10.5t-49.5 44.5l-317 508h-33 v-493q0 -43 -23.5 -56.5t-95.5 -13.5q-71 0 -94.5 13.5t-23.5 56.5z" />
<glyph unicode="L" horiz-adv-x="870" d="M109 63v1139q0 43 23.5 56.5t94.5 13.5q72 0 95.5 -13.5t23.5 -56.5v-991h432q36 0 50 -22t14 -85q0 -61 -14 -82.5t-50 -21.5h-596q-43 0 -58 12t-15 51z" />
<glyph unicode="M" horiz-adv-x="1329" d="M109 70v1118q0 49 28.5 66.5t116.5 17.5q94 0 129 -14.5t57 -69.5l219 -567h11l219 567q22 55 57 69.5t129 14.5q88 0 116 -17.5t28 -66.5v-1118q0 -44 -23 -57t-94 -13q-70 0 -93.5 13.5t-23.5 56.5l2 841h-12l-187 -505q-19 -53 -41 -67.5t-83 -14.5q-60 0 -82 15 t-41 67l-187 505h-12v-841q0 -44 -23 -57t-94 -13q-70 0 -93 13t-23 57z" />
<glyph unicode="N" horiz-adv-x="1130" d="M109 70v1132q0 44 28 57t115 13q67 0 97.5 -12.5t51.5 -55.5l365 -782h18v780q0 43 24 56.5t95 13.5t95 -13.5t24 -56.5v-1132q0 -44 -26 -57t-111 -13q-64 0 -91 11.5t-51 54.5l-378 784h-19v-780q0 -43 -23.5 -56.5t-95.5 -13.5q-71 0 -94.5 13.5t-23.5 56.5z" />
<glyph unicode="O" horiz-adv-x="1083" d="M84 557v141q0 99 6 177t21 138t33.5 103t49 73t62.5 48t79.5 28t94 13.5t111.5 3.5q69 0 118 -3.5t97 -14.5t80 -29.5t61.5 -49t47 -73t30.5 -103t18.5 -136.5t5.5 -175v-141q0 -111 -9.5 -195.5t-26.5 -145t-47.5 -102.5t-64 -67t-85.5 -38.5t-102 -18t-123 -4.5 q-66 0 -114 3.5t-95.5 14t-79.5 28.5t-62 48t-48 72t-32 100.5t-20 133.5t-6 171zM322 580q0 -92 3 -151t12.5 -105.5t23 -70.5t40.5 -39.5t58 -19.5t82 -4q49 0 80 4.5t58 19.5t41 39.5t24.5 70t14 105.5t3.5 151v108q0 92 -3 150t-12.5 105t-23 70.5t-41 39.5t-59 20 t-82.5 4q-42 0 -69.5 -3.5t-52.5 -12.5t-40 -28t-27.5 -45.5t-18 -70t-8.5 -98t-3 -131.5v-108z" />
<glyph unicode="P" horiz-adv-x="1009" d="M109 70v1114q0 41 16.5 58t54.5 22q156 18 350 18q76 0 130 -5.5t104 -21t81.5 -43t55.5 -71t34.5 -106.5t10.5 -148q0 -130 -29 -216.5t-92 -136.5t-150.5 -71t-215.5 -21h-113v-372q0 -43 -23.5 -56.5t-95.5 -13.5q-71 0 -94.5 13.5t-23.5 56.5zM346 637h123 q138 0 183.5 47.5t45.5 189.5q0 67 -8.5 107t-32 63.5t-58.5 31t-95 7.5q-76 0 -158 -8v-438z" />
<glyph unicode="Q" horiz-adv-x="1083" d="M84 557v141q0 99 6 177t21 138t33.5 103t49 73t62.5 48t79.5 28t94 13.5t111.5 3.5q69 0 118 -3.5t97 -14.5t80 -29.5t61.5 -49t47 -73t30.5 -103t18.5 -136.5t5.5 -175v-141q0 -236 -42 -356.5t-132 -167.5l95 -152q34 -56 34 -74q0 -49 -110 -49q-58 0 -81.5 13 t-47.5 55l-92 162h-15q-14 -1 -34 -1.5t-33 -0.5q-66 0 -114 3.5t-95.5 14t-79.5 28.5t-62 48t-48 72t-32 100.5t-20 133.5t-6 171zM322 580q0 -92 3 -151t12.5 -105.5t23 -70.5t40.5 -39.5t58 -19.5t82 -4q49 0 80 4.5t58 19.5t41 39.5t24.5 70t14 105.5t3.5 151v108 q0 92 -3 150t-12.5 105t-23 70.5t-41 39.5t-59 20t-82.5 4q-42 0 -69.5 -3.5t-52.5 -12.5t-40 -28t-27.5 -45.5t-18 -70t-8.5 -98t-3 -131.5v-108z" />
<glyph unicode="R" horiz-adv-x="1036" d="M109 70v1114q0 41 16.5 58t54.5 22q156 18 350 18q92 0 153.5 -8t115 -31t84 -65t47 -108.5t16.5 -162.5q0 -148 -48.5 -234.5t-147.5 -127.5l200 -426q23 -52 23 -72q0 -21 -20 -34t-79 -13q-87 0 -112.5 10.5t-42.5 52.5l-176 445q-18 -2 -60 -2h-137v-436 q0 -43 -23.5 -56.5t-95.5 -13.5q-71 0 -94.5 13.5t-23.5 56.5zM346 678h143q124 0 166.5 43t42.5 174q0 113 -39.5 150.5t-154.5 37.5q-80 0 -158 -8v-397z" />
<glyph unicode="S" horiz-adv-x="935" d="M74 135q0 57 9 75.5t32 18.5q6 0 94.5 -16t179.5 -16q126 0 184 36t58 125q0 66 -19 98t-80 60l-235 105q-105 47 -152 115t-47 202q0 83 20.5 145.5t53.5 100t81.5 60t97.5 30.5t110 8q177 0 319 -39q27 -7 38 -28t11 -82q0 -55 -10 -75t-31 -20q-1 0 -92 15.5 t-178 15.5q-44 0 -70 -2t-51.5 -9.5t-38 -21.5t-20.5 -38.5t-8 -61.5q0 -55 20.5 -79.5t77.5 -49.5l234 -105q111 -49 155.5 -119.5t44.5 -211.5q0 -385 -436 -385q-174 0 -293 37q-33 10 -46 31t-13 81z" />
<glyph unicode="T" horiz-adv-x="901" d="M20 1165q0 63 14 85t50 22h733q36 0 50 -22t14 -85t-13.5 -83.5t-50.5 -20.5h-248v-991q0 -43 -23.5 -56.5t-94.5 -13.5t-95 13.5t-24 56.5v991h-248q-37 0 -50.5 20.5t-13.5 83.5z" />
<glyph unicode="U" horiz-adv-x="1079" d="M109 377v825q0 43 23.5 56.5t94.5 13.5q72 0 95.5 -13.5t23.5 -56.5v-837q0 -101 39 -139t154 -38t153.5 38t38.5 139v837q0 43 24 56.5t95 13.5q72 0 95.5 -13.5t23.5 -56.5v-825q0 -216 -97.5 -303.5t-332.5 -87.5t-332.5 87.5t-97.5 303.5z" />
<glyph unicode="V" horiz-adv-x="1071" d="M29 1219q0 31 21.5 42t92.5 11q78 0 105.5 -13t36.5 -55l237 -1005h27l237 1005q7 42 35 55t107 13q70 0 91 -11t21 -42t-14 -80l-276 -1043q-17 -63 -55 -79.5t-160 -16.5t-159 16.5t-54 79.5l-277 1043q-16 56 -16 80z" />
<glyph unicode="W" horiz-adv-x="1642" d="M29 1217q0 32 21.5 43.5t92.5 11.5q77 0 104.5 -13.5t31.5 -54.5l163 -985h25l195 957q9 47 42.5 61t116.5 14t116.5 -14t43.5 -61l197 -957h22l164 985q4 41 31 54.5t104 13.5q71 0 93 -11.5t22 -43.5q0 -10 -2.5 -37t-3.5 -35l-201 -1049q-11 -61 -53 -78.5t-150 -17.5 q-102 0 -144.5 20t-55.5 82l-173 822h-20l-170 -822q-13 -62 -56 -82t-147 -20q-108 0 -148.5 17t-51.5 79l-201 1049q-8 54 -8 72z" />
<glyph unicode="X" horiz-adv-x="1017" d="M35 57q0 28 37 84l311 512l-287 471q-37 59 -37 90q0 29 26.5 43.5t94.5 14.5q70 0 96 -12.5t50 -55.5l180 -327h8l176 327q20 44 47.5 56t100.5 12q68 0 93 -14.5t25 -43.5q0 -32 -34 -88l-289 -473l313 -508q35 -53 35 -88q0 -29 -25 -43t-92 -14q-70 0 -95.5 12.5 t-49.5 55.5l-209 374h-8l-203 -374q-24 -44 -49 -56t-96 -12q-68 0 -93.5 14t-25.5 43z" />
<glyph unicode="Y" horiz-adv-x="970" d="M29 1217q0 26 22 40.5t82 14.5q85 0 111.5 -12.5t44.5 -55.5l192 -489h11l190 489q13 31 25.5 43.5t40 18.5t86.5 6q65 0 87.5 -14t22.5 -39q0 -30 -33 -97l-307 -655v-397q0 -43 -24 -56.5t-95 -13.5t-94.5 13.5t-23.5 56.5v397l-308 655q-30 61 -30 95z" />
<glyph unicode="Z" horiz-adv-x="847" d="M29 98q0 34 11.5 67.5t45.5 94.5l446 801h-401q-37 0 -50 20.5t-13 83.5q0 64 13 85.5t50 21.5h614q39 0 51.5 -20t12.5 -78q0 -36 -10 -66.5t-41 -87.5l-451 -809h447q36 0 49.5 -22t13.5 -85q0 -62 -13.5 -83t-49.5 -21h-662q-39 0 -51 19.5t-12 78.5z" />
<glyph unicode="[" horiz-adv-x="538" d="M86 -37v1335q0 39 18.5 55.5t61.5 16.5h274q37 0 50.5 -18t13.5 -76q0 -60 -13.5 -79t-50.5 -19h-127v-1096h138q37 0 50 -18.5t13 -77.5q0 -58 -13 -76.5t-50 -18.5h-285q-43 0 -61.5 16.5t-18.5 55.5z" />
<glyph unicode="\" horiz-adv-x="563" d="M20 1335q0 45 101 45q53 0 81.5 -13.5t35.5 -47.5l290 -1296q19 -86 19 -99q0 -45 -101 -45q-54 0 -82.5 15t-35.5 49l-291 1294q-17 77 -17 98z" />
<glyph unicode="]" horiz-adv-x="538" d="M27 -14q0 60 12.5 78t50.5 18h137v1096h-129q-36 0 -49.5 19t-13.5 79q0 58 13 76t50 18h277q42 0 60 -16.5t18 -55.5v-1335q0 -39 -18 -55.5t-60 -16.5h-285q-38 0 -50.5 18t-12.5 77z" />
<glyph unicode="^" d="M117 756q0 14 18 55l166 379q16 37 30.5 52.5t48.5 24.5t101 9t99.5 -8.5t46.5 -24t30 -53.5l160 -379q19 -47 19 -55q0 -22 -20 -33.5t-75 -11.5q-52 0 -76 5.5t-34 16.5t-21 39l-127 305h-12l-129 -305q-14 -39 -36.5 -50t-94.5 -11q-55 0 -74.5 11.5t-19.5 33.5z" />
<glyph unicode="_" horiz-adv-x="1013" d="M47 -141q0 65 12 84.5t52 19.5h792q40 0 52 -19.5t12 -84.5t-12 -85t-52 -20h-792q-40 0 -52 20t-12 85z" />
<glyph unicode="`" horiz-adv-x="446" d="M49 1403q0 25 24.5 35t98.5 10q53 0 79.5 -8t37 -21.5t26.5 -48.5l68 -151q20 -46 20 -72q0 -22 -22.5 -32.5t-75.5 -10.5q-48 0 -75 8t-37 18t-25 35l-88 152q-31 53 -31 86z" />
<glyph unicode="a" horiz-adv-x="995" d="M68 279q0 163 86 233t303 70h178v102q0 50 -7.5 78.5t-30.5 43t-50 18t-80 3.5q-88 0 -188.5 -16t-108.5 -16q-43 0 -43 94q0 51 11 71t40 29q54 16 143.5 28.5t176.5 12.5q102 0 165.5 -10.5t113.5 -40.5t71.5 -87.5t21.5 -148.5v-323q0 -104 10 -185t20.5 -124 t10.5 -56q0 -30 -21.5 -42.5t-86.5 -12.5q-62 0 -82.5 11t-30.5 50l-31 115q-40 -99 -125 -147.5t-202 -48.5q-137 0 -200.5 70t-63.5 229zM295 303q0 -82 26.5 -107.5t94.5 -25.5q93 0 156 54t63 161v55l-178 -6q-96 -3 -129 -30t-33 -101z" />
<glyph unicode="b" horiz-adv-x="1046" d="M104 231v1043q0 43 23.5 55t95.5 12q71 0 95 -12t24 -55v-395q80 151 293 151q79 0 130 -12.5t90.5 -43.5t60 -90.5t30.5 -146.5t10 -219q0 -113 -10 -195t-33 -142.5t-56.5 -98.5t-87 -61.5t-116 -32t-151.5 -8.5q-120 0 -199.5 16t-122.5 49.5t-59.5 77t-16.5 108.5z M338 268q0 -34 11 -51.5t50.5 -28t116.5 -10.5q85 0 126 26.5t57 92.5t16 203q0 149 -13.5 216t-45.5 90t-105 23q-124 0 -168.5 -69.5t-44.5 -261.5v-230z" />
<glyph unicode="c" horiz-adv-x="880" d="M88 496q0 118 12 205.5t38.5 146t59 95t83 55.5t99.5 25.5t120 6.5q126 0 262 -37q30 -9 41.5 -29.5t11.5 -72.5q0 -96 -41 -96q-4 0 -95.5 16t-148.5 16q-43 0 -69 -3t-51.5 -14t-39.5 -31t-25 -55t-15 -84.5t-4 -121.5q0 -67 2.5 -111.5t7 -83t15.5 -61t25 -39.5 t38.5 -24.5t52.5 -11t70 -3.5q78 0 158.5 17.5t82.5 17.5q39 0 39 -96q0 -50 -12 -71t-43 -32q-109 -40 -254 -40q-74 0 -126 6.5t-103 26t-83.5 55t-58.5 92t-37.5 140t-11.5 196.5z" />
<glyph unicode="d" horiz-adv-x="1067" d="M88 489q0 137 15 232t42 155.5t75 94.5t104.5 46.5t138.5 12.5q98 0 158 -26.5t92 -88.5v359q0 43 23.5 55t94.5 12q72 0 95.5 -12t23.5 -55v-854q0 -104 11 -185t21.5 -124t10.5 -56q0 -30 -21.5 -42.5t-88.5 -12.5q-62 0 -81.5 10.5t-29.5 50.5l-27 97 q-36 -89 -113 -133.5t-204 -44.5q-105 0 -168 21.5t-103 81.5t-54.5 154.5t-14.5 251.5zM330 492q0 -139 14.5 -203.5t50 -87.5t111.5 -23q58 0 95 11t64.5 40t39.5 82.5t12 137.5v110q0 161 -39 215.5t-158 54.5q-82 0 -119 -22.5t-54 -92.5t-17 -222z" />
<glyph unicode="e" horiz-adv-x="972" d="M88 496q0 102 9.5 180.5t26.5 135t46 96t60.5 63.5t79 37t93 17.5t109.5 4.5q100 0 168 -19.5t110 -53.5t65 -96.5t30.5 -132t7.5 -175.5q0 -60 -18 -85.5t-72 -25.5h-477q2 -88 10.5 -136.5t35 -77t64.5 -36.5t109 -8q70 0 137 9t108.5 17.5t49.5 8.5q39 0 39 -96 q0 -50 -12.5 -71t-43.5 -32q-48 -18 -135.5 -29t-159.5 -11q-80 0 -135 6.5t-108.5 26t-87 55t-60 92.5t-38 140t-11.5 196zM326 590h344q0 60 -2 92.5t-10.5 66t-26 48.5t-47.5 24.5t-76 9.5q-53 0 -82.5 -7.5t-53 -32.5t-33.5 -72.5t-13 -128.5z" />
<glyph unicode="f" horiz-adv-x="655" d="M47 909q0 57 10.5 76t42.5 19h80v122q0 139 60 193.5t186 54.5q87 0 164 -18q34 -8 44.5 -23.5t10.5 -66.5q0 -95 -41 -95q-7 0 -48.5 4.5t-74.5 4.5q-45 0 -60 -20t-15 -87v-69h161q32 0 43 -19t11 -76q0 -55 -11 -73.5t-43 -18.5h-149v-747q0 -44 -23.5 -57t-95.5 -13 t-95.5 13t-23.5 57v747h-80q-32 0 -42.5 18t-10.5 74z" />
<glyph unicode="g" horiz-adv-x="1058" d="M88 512q0 162 21.5 264t71.5 158t117.5 76t174.5 20q109 0 175 -33.5t100 -113.5l16 65q11 40 30 51t80 11q66 0 88.5 -13.5t22.5 -42.5q0 -13 -10.5 -56.5t-21.5 -124.5t-11 -183v-498q0 -89 -12 -159.5t-33.5 -122t-55 -89t-71.5 -61t-89 -37.5t-101.5 -19t-114.5 -5 q-164 0 -285 28q-29 6 -42 28.5t-13 76.5q0 53 9.5 74.5t33.5 21.5q9 0 49 -6t103.5 -11.5t130.5 -5.5q66 0 109.5 9.5t72.5 28t44.5 54t21.5 80t6 113.5v12q-75 -122 -291 -122q-80 0 -133.5 15t-92.5 48.5t-60 97t-30.5 151.5t-9.5 220zM330 492q0 -139 14.5 -203.5 t50 -87.5t111.5 -23q58 0 95 11t64.5 40t39.5 82.5t12 137.5v110q0 161 -39 215.5t-158 54.5q-82 0 -119 -22.5t-54 -92.5t-17 -222z" />
<glyph unicode="h" horiz-adv-x="1032" d="M104 70v1204q0 43 23.5 55t95.5 12q71 0 95 -12t24 -55v-379q80 135 299 135q161 0 221 -65t60 -217v-678q0 -44 -23.5 -57t-95.5 -13q-71 0 -95 13t-24 57v620q0 77 -26.5 106t-102.5 29q-119 0 -166 -75t-47 -258v-422q0 -44 -24 -57t-95 -13q-72 0 -95.5 13t-23.5 57z " />
<glyph unicode="i" horiz-adv-x="454" d="M94 1221v32q0 57 21.5 72.5t107.5 15.5q85 0 107 -15.5t22 -72.5v-32q0 -55 -22.5 -71.5t-106.5 -16.5q-85 0 -107 16t-22 72zM104 70v870q0 44 23.5 57t95.5 13q71 0 95 -13t24 -57v-870q0 -44 -24 -57t-95 -13q-72 0 -95.5 13t-23.5 57z" />
<glyph unicode="j" horiz-adv-x="454" d="M-119 -279q0 58 10 75.5t33 17.5q7 0 44.5 -5.5t60.5 -5.5q46 0 60.5 19t14.5 86v1032q0 44 23.5 57t95.5 13q71 0 95 -13t24 -57v-1081q0 -140 -58.5 -200t-177.5 -60q-82 0 -165 22q-33 10 -46.5 29.5t-13.5 70.5zM94 1221v32q0 57 21.5 72.5t107.5 15.5 q85 0 107 -15.5t22 -72.5v-32q0 -55 -22.5 -71.5t-106.5 -16.5q-85 0 -107 16t-22 72z" />
<glyph unicode="k" horiz-adv-x="935" d="M104 70v1204q0 43 23.5 55t95.5 12q71 0 95 -12t24 -55v-672h23l247 348q28 37 54.5 48.5t99.5 11.5q65 0 90 -9.5t25 -31.5q0 -34 -27 -68l-281 -373l308 -422q24 -34 24 -59q0 -47 -123 -47q-66 0 -92 10.5t-51 46.5l-277 396h-20v-383q0 -44 -24 -57t-95 -13 q-72 0 -95.5 13t-23.5 57z" />
<glyph unicode="l" horiz-adv-x="450" d="M104 70v1204q0 43 23.5 55t95.5 12q71 0 95 -12t24 -55v-1204q0 -44 -24 -57t-95 -13q-72 0 -95.5 13t-23.5 57z" />
<glyph unicode="m" horiz-adv-x="1593" d="M84 954q0 29 22 42.5t87 13.5q61 0 81 -11t31 -51l25 -100q36 92 111.5 137t201.5 45q119 0 181.5 -36.5t84.5 -114.5q37 76 108.5 113.5t186.5 37.5q159 0 219 -65t60 -217v-678q0 -44 -23.5 -57t-95.5 -13q-71 0 -95 13t-24 57v620q0 77 -26.5 106t-102.5 29 q-114 0 -153 -72.5t-39 -260.5v-422q0 -44 -24 -57t-95 -13q-72 0 -95.5 13t-23.5 57v620q0 77 -26.5 106t-102.5 29q-114 0 -154.5 -73t-40.5 -260v-422q0 -44 -23.5 -57t-94.5 -13t-95 13t-24 57v520q0 102 -10.5 183t-20.5 124.5t-10 56.5z" />
<glyph unicode="n" horiz-adv-x="1052" d="M84 954q0 29 22 42.5t87 13.5q61 0 81 -11t31 -51l29 -110q81 192 330 192q161 0 220.5 -65t59.5 -217v-678q0 -44 -24 -57t-95 -13t-94.5 13t-23.5 57v620q0 77 -26.5 106t-102.5 29q-119 0 -167.5 -75.5t-48.5 -257.5v-422q0 -44 -23.5 -57t-94.5 -13t-95 13t-24 57 v520q0 102 -10.5 183t-20.5 124.5t-10 56.5z" />
<glyph unicode="o" horiz-adv-x="1030" d="M88 498q0 164 23 267t79 162.5t135 81t205 21.5q81 0 138 -8t105.5 -29.5t78 -57t50.5 -93.5t29.5 -136.5t8.5 -187.5q0 -132 -15.5 -224t-46.5 -154t-86 -97t-124 -49t-170 -14q-122 0 -195.5 20t-124.5 78t-70.5 157.5t-19.5 262.5zM330 514q0 -91 4.5 -146.5t14 -96 t31 -59t50 -26.5t76.5 -8q64 0 99.5 12t57.5 50.5t28.5 96.5t6.5 163q0 91 -4.5 145.5t-14 94t-31 57.5t-50 25t-76.5 7q-52 0 -83.5 -8t-54.5 -26t-34 -56.5t-15.5 -89.5t-4.5 -135z" />
<glyph unicode="p" horiz-adv-x="1077" d="M84 954q0 29 22 42.5t87 13.5q61 0 81 -11t31 -51l23 -90q82 172 321 172q83 0 138.5 -14.5t96 -47.5t62 -94t31.5 -144.5t10 -209.5q0 -137 -15 -232t-42 -155.5t-74.5 -94t-103.5 -46t-138 -12.5q-194 0 -252 108v-403q0 -43 -23.5 -55.5t-94.5 -12.5q-70 0 -94.5 12.5 t-24.5 55.5v905q0 102 -10.5 183t-20.5 124.5t-10 56.5zM358 449q0 -161 39.5 -216t157.5 -55q49 0 78.5 7t53.5 26t35.5 58.5t17 98t5.5 150.5q0 139 -14.5 202.5t-49 86t-110.5 22.5q-58 0 -94.5 -11t-65 -41t-41 -86t-12.5 -144v-98z" />
<glyph unicode="q" horiz-adv-x="1058" d="M88 512q0 162 21.5 264t71.5 158t117.5 76t174.5 20q109 0 175 -33.5t100 -113.5l16 65q11 40 30 51t80 11q66 0 88.5 -13.5t22.5 -42.5q0 -13 -10.5 -56.5t-21.5 -124.5t-11 -183v-905q0 -43 -24 -55.5t-95 -12.5q-70 0 -94 12.5t-24 55.5v417q-75 -122 -291 -122 q-80 0 -133.5 15t-92.5 48.5t-60 97t-30.5 151.5t-9.5 220zM322 508q0 -146 14.5 -214t48.5 -92t107 -24q60 0 96.5 9t65.5 36.5t41 81t12 139.5v115q0 159 -39 214.5t-154 55.5q-42 0 -68.5 -4t-50 -16.5t-36 -33t-22 -58t-12.5 -86.5t-3 -123z" />
<glyph unicode="r" horiz-adv-x="733" d="M84 954q0 29 22 42.5t87 13.5q61 0 81 -11t31 -51l25 -94q77 170 250 170q64 0 92 -12q25 -8 35 -30t10 -81q0 -96 -45 -96q-3 0 -40.5 4t-68.5 4q-104 0 -152.5 -89t-48.5 -267v-387q0 -44 -23.5 -57t-94.5 -13t-95 13t-24 57v520q0 102 -10.5 183t-20.5 124.5t-10 56.5 z" />
<glyph unicode="s" horiz-adv-x="894" d="M80 119q0 96 39 96q2 0 96.5 -15.5t171.5 -15.5q103 0 145.5 27.5t42.5 89.5q0 35 -15.5 54.5t-49.5 31.5l-244 105q-153 64 -153 253q0 67 20 118t52 82t78 51t92 27t100 7q151 0 288 -35q31 -8 42.5 -28.5t11.5 -79.5q0 -40 -7.5 -61.5t-15.5 -26t-20 -4.5q-5 0 -95 17 t-159 17q-81 0 -113.5 -21.5t-32.5 -68.5q0 -35 13.5 -54t50.5 -34l237 -96q89 -36 124.5 -93t35.5 -153q0 -329 -403 -329q-166 0 -279 36q-30 9 -41.5 30t-11.5 73z" />
<glyph unicode="t" horiz-adv-x="675" d="M39 909q0 57 10 76t41 19h90v147q0 43 24 55.5t95 12.5t95 -12.5t24 -55.5v-147h160q31 0 41 -19t10 -76q0 -55 -10 -73.5t-41 -18.5h-160v-530q0 -63 12.5 -81t58.5 -18q27 0 61 5.5t42 5.5q23 0 33 -17t10 -71q0 -51 -12 -70t-43 -31q-68 -30 -172 -30 q-122 0 -175 58.5t-53 201.5v577h-90q-31 0 -41 18.5t-10 73.5z" />
<glyph unicode="u" horiz-adv-x="1036" d="M104 250v690q0 44 23.5 57t95.5 13q71 0 95 -13t24 -57v-631q0 -74 26 -99.5t103 -25.5q119 0 165 75t46 257v424q0 44 23.5 57t95.5 13t95.5 -13t23.5 -57v-520q0 -104 11 -185t21.5 -124t10.5 -56q0 -30 -22 -42.5t-89 -12.5q-62 0 -81.5 10.5t-29.5 50.5l-26 103 q-82 -184 -334 -184q-155 0 -216 61t-61 209z" />
<glyph unicode="v" horiz-adv-x="966" d="M39 942q0 40 21.5 54t97.5 14q78 0 102.5 -13.5t36.5 -64.5l174 -719h23l178 719q12 51 36.5 64.5t102.5 13.5q75 0 96 -14t21 -54q0 -30 -17 -88l-231 -768q-15 -52 -53.5 -69t-147.5 -17q-75 0 -113 8t-56 25t-27 53l-226 768q-18 62 -18 88z" />
<glyph unicode="w" horiz-adv-x="1452" d="M39 942q0 40 21.5 54t97.5 14q78 0 102.5 -13t28.5 -59l123 -725h22l144 700q9 45 39.5 60.5t109.5 15.5q77 0 107.5 -15.5t39.5 -60.5l144 -700h22l123 725q8 46 31.5 59t101.5 13q75 0 96 -14t21 -54q0 -39 -10 -88l-154 -768q-10 -52 -47 -69t-139 -17 q-111 0 -155 17.5t-54 68.5l-119 557h-16l-121 -557q-10 -51 -53.5 -68.5t-153.5 -17.5q-102 0 -140 17t-48 69l-154 768q-10 49 -10 88z" />
<glyph unicode="x" horiz-adv-x="927" d="M39 49q0 18 24 57l259 414l-230 363q-31 54 -31 71q0 31 27.5 43.5t97.5 12.5q75 0 99 -10t45 -48l133 -239h8l129 239q20 39 43.5 48.5t97.5 9.5q70 0 97.5 -12.5t27.5 -43.5q0 -21 -28 -67l-236 -355l260 -421q27 -44 27 -62q0 -25 -25 -37t-90 -12q-76 0 -104.5 14 t-55.5 62l-147 274h-8l-148 -274q-18 -33 -33.5 -47.5t-43 -21.5t-80.5 -7q-65 0 -90 11.5t-25 37.5z" />
<glyph unicode="y" horiz-adv-x="964" d="M39 948q0 32 23 47t100 15q72 0 96 -12t33 -50l176 -749h22l185 749q9 38 33 50t94 12q77 0 102 -14t25 -46q0 -40 -33 -149l-256 -873q-23 -80 -42.5 -130t-46 -92t-60.5 -63.5t-80.5 -32.5t-112.5 -11q-117 0 -199 28q-30 10 -42.5 29.5t-12.5 69.5q0 53 10.5 74.5 t32.5 21.5q3 0 63 -9.5t121 -9.5q77 0 104.5 22t45.5 89l20 86q-87 0 -120.5 23t-51.5 86l-192 665q-37 125 -37 174z" />
<glyph unicode="z" horiz-adv-x="819" d="M43 92q0 58 11.5 93t49.5 85l402 537h-369q-30 0 -41.5 24.5t-11.5 75.5q0 52 11.5 77.5t41.5 25.5h582q29 0 40 -22t11 -70q0 -98 -47 -160l-416 -555h412q29 0 40 -26t11 -77t-11 -75.5t-40 -24.5h-623q-31 0 -42 21t-11 71z" />
<glyph unicode="{" horiz-adv-x="655" d="M59 631q0 63 12 80.5t52 17.5q78 0 78 94q0 55 -2 157t-2 163q0 121 44.5 180t157.5 59q105 0 185 -18q27 -4 36 -25t9 -73q0 -51 -10.5 -69.5t-34.5 -18.5q-14 0 -60 2t-65 2q-22 0 -29.5 -16.5t-7.5 -55.5q0 -45 2 -143.5t2 -143.5q0 -158 -107 -188v-8 q107 -30 107 -189q0 -45 -2 -143t-2 -143q0 -39 7.5 -55.5t29.5 -16.5q19 0 65 2t60 2q24 0 34.5 -18.5t10.5 -67.5q0 -52 -9 -73t-36 -27q-84 -19 -185 -19q-113 0 -157.5 59.5t-44.5 180.5q0 61 2 162.5t2 154.5q0 47 -18 70.5t-60 23.5q-40 0 -52 18.5t-12 82.5z" />
<glyph unicode="|" horiz-adv-x="368" d="M88 -305v1605q0 52 16.5 66t79.5 14t79 -13.5t16 -66.5v-1605q0 -52 -16 -65t-79 -13t-79.5 13t-16.5 65z" />
<glyph unicode="}" horiz-adv-x="655" d="M25 -2q0 49 11 67.5t34 18.5q15 0 61.5 -2t65.5 -2q22 0 29 16t7 56q0 45 -2 143t-2 143q0 160 105 189v8q-105 29 -105 188q0 45 2 143.5t2 143.5q0 40 -7 56t-29 16q-19 0 -65.5 -2t-61.5 -2q-23 0 -34 19t-11 69q0 52 9 73t36 25q79 18 186 18q113 0 157 -59t44 -180 q0 -61 -1 -163t-1 -157q0 -47 17.5 -70.5t59.5 -23.5q40 0 52 -17.5t12 -80.5q0 -64 -12 -82.5t-52 -18.5q-43 0 -60 -23t-17 -71q0 -53 1 -154.5t1 -162.5q0 -122 -44 -181t-157 -59q-102 0 -186 19q-27 6 -36 27t-9 73z" />
<glyph unicode="~" d="M154 543q0 44 11.5 67.5t41.5 44.5q63 39 137 39q49 0 140.5 -22.5t133.5 -22.5q44 0 90 19.5t52 19.5q20 0 29.5 -17t9.5 -67q0 -43 -12.5 -67t-43.5 -45q-59 -39 -135 -39q-49 0 -141.5 22.5t-134.5 22.5q-44 0 -89.5 -19.5t-52.5 -19.5q-19 0 -27.5 17.5t-8.5 66.5z " />
<glyph unicode="&#xa2;" d="M113 635q0 125 20 209t61 132t93 69.5t127 27.5v129q0 44 20 57t82 13t82 -13t20 -57v-131q79 -8 166 -31q32 -10 43 -27.5t11 -68.5q0 -53 -9 -73.5t-30 -20.5q-3 0 -98 15.5t-164 15.5q-55 0 -86.5 -7t-56.5 -30.5t-34.5 -67.5t-9.5 -119q0 -57 2.5 -92.5t10.5 -65.5 t20.5 -45.5t36 -26.5t53 -14t74.5 -3q87 0 171 17l83 17q39 0 39 -96q0 -50 -11.5 -68t-42.5 -28q-69 -24 -168 -37v-145q0 -44 -20 -57t-82 -13t-82 13t-20 57v145q-78 6 -130.5 27.5t-92.5 67.5t-59 126t-19 199z" />
<glyph unicode="&#xa3;" d="M43 629q0 49 11 62.5t48 13.5h88v227q0 108 24 179.5t71 107.5t100.5 49.5t128.5 13.5q129 0 281 -31q27 -7 38 -27.5t11 -80.5q0 -54 -9.5 -72t-29.5 -18q-11 0 -87 9t-124 9q-101 0 -136.5 -31t-35.5 -133v-202h143q37 0 48.5 -13.5t11.5 -62.5t-11.5 -62.5 t-48.5 -13.5h-143v-76q0 -150 -57 -266h452q36 0 50 -22t14 -85q0 -61 -14 -82.5t-50 -21.5h-641q-43 0 -58.5 12t-15.5 51q0 45 22 101.5t44 130.5t22 160v98h-88q-37 0 -48 13.5t-11 62.5z" />
<glyph unicode="&#xa5;" d="M37 1217q0 32 22 43.5t93 11.5q74 0 97.5 -12.5t41.5 -55.5l180 -465h10l181 465q18 43 41.5 55.5t97.5 12.5q71 0 92.5 -11.5t21.5 -43.5q0 -25 -28 -91l-248 -512h123q35 0 47 -14t12 -63q0 -48 -12 -63t-47 -15h-166v-101h164q35 0 46 -13.5t11 -63.5q0 -48 -11 -62 t-46 -14h-164v-135q0 -43 -24 -56.5t-95 -13.5t-95 13.5t-24 56.5v135h-163q-35 0 -47.5 14t-12.5 62q0 49 12 63t48 14h163v101h-165q-36 0 -48 15t-12 63q0 49 11.5 63t48.5 14h120l-247 512q-29 68 -29 91z" />
<glyph unicode="&#xa8;" horiz-adv-x="692" d="M51 1221v32q0 56 22 72t101 16t101 -16t22 -72v-32q0 -55 -22.5 -71.5t-100.5 -16.5t-100.5 16.5t-22.5 71.5zM395 1221v32q0 56 21 72t100 16t101 -16t22 -72v-32q0 -55 -22.5 -71.5t-100.5 -16.5t-99.5 16.5t-21.5 71.5z" />
<glyph unicode="&#xa9;" horiz-adv-x="1820" d="M49 645q0 103 5 185t17.5 165t34 147t55.5 125t81.5 105t111.5 82t145 61t183.5 35.5t226.5 12.5t226.5 -12.5t183.5 -35.5t145 -61t111.5 -82t81.5 -105t55.5 -125t34 -147t17.5 -165t5 -185t-5 -185.5t-17.5 -165.5t-34 -146.5t-55.5 -124.5t-81.5 -105t-111.5 -81.5 t-145 -60.5t-183.5 -35.5t-226.5 -12.5t-226.5 12.5t-183.5 35.5t-145 60.5t-111.5 81.5t-81.5 105t-55.5 124.5t-34 146.5t-17.5 165.5t-5 185.5zM244 651q0 -145 9.5 -246t36 -190.5t72.5 -145t120.5 -96.5t178.5 -58t248 -17q108 0 193 9.5t152.5 32t117 53t85.5 78.5 t58.5 102t36 131t18.5 158t5 189q0 141 -9.5 239.5t-36 187.5t-72.5 144t-120.5 95.5t-179 58t-248.5 17.5q-108 0 -193 -9.5t-152 -32t-116.5 -53t-85 -78t-58.5 -101.5t-36.5 -129t-18.5 -154.5t-5 -184.5zM518 639q0 79 6 144.5t16 116.5t27.5 90.5t37 68.5t47.5 49.5 t56 33t65.5 20t73 10t81.5 2.5q132 0 262 -37q30 -9 41.5 -30t11.5 -73q0 -96 -41 -96q-4 0 -94 16.5t-147 16.5q-51 0 -81 -5t-57.5 -22t-40.5 -51.5t-20.5 -89.5t-7.5 -141q0 -67 2.5 -111.5t7 -83t15.5 -61t25 -39.5t38.5 -24.5t52.5 -11t70 -3.5q78 0 158.5 17t82.5 17 q39 0 39 -96q0 -50 -12 -70.5t-43 -31.5q-112 -41 -254 -41q-74 0 -126 6.5t-102.5 26t-83 55t-58 92t-37 140t-11.5 196.5z" />
<glyph unicode="&#xab;" horiz-adv-x="1245" d="M59 506q0 58 10 91.5t25.5 49.5t50.5 37l363 227q30 19 47 19q21 0 31 -16t10 -64q0 -72 -9.5 -96.5t-45.5 -51.5l-250 -188v-16l250 -189q36 -27 45.5 -51t9.5 -96q0 -48 -10 -64t-31 -16q-15 0 -47 16l-363 230q-36 23 -51 38t-25 48.5t-10 91.5zM664 506q0 63 10 98.5 t25.5 52t50.5 37.5l346 238q29 18 49 18t30.5 -16.5t10.5 -63.5q0 -66 -10.5 -90.5t-47.5 -56.5l-239 -209v-16l239 -209q37 -32 47.5 -57t10.5 -91q0 -47 -10.5 -63.5t-30.5 -16.5q-15 0 -49 17l-346 239q-35 21 -50.5 37.5t-25.5 52.5t-10 99z" />
<glyph unicode="&#xad;" horiz-adv-x="667" d="M61 526q0 65 12 85t52 20h418q39 0 51 -20t12 -85t-11.5 -84.5t-51.5 -19.5h-418q-40 0 -52 19.5t-12 84.5z" />
<glyph unicode="&#xae;" horiz-adv-x="1820" d="M49 645q0 103 5 185t17.5 165t34 147t55.5 125t81.5 105t111.5 82t145 61t183.5 35.5t226.5 12.5t226.5 -12.5t183.5 -35.5t145 -61t111.5 -82t81.5 -105t55.5 -125t34 -147t17.5 -165t5 -185t-5 -185.5t-17.5 -165.5t-34 -146.5t-55.5 -124.5t-81.5 -105t-111.5 -81.5 t-145 -60.5t-183.5 -35.5t-226.5 -12.5t-226.5 12.5t-183.5 35.5t-145 60.5t-111.5 81.5t-81.5 105t-55.5 124.5t-34 146.5t-17.5 165.5t-5 185.5zM244 651q0 -145 9.5 -246t36 -190.5t72.5 -145t120.5 -96.5t178.5 -58t248 -17q108 0 193 9.5t152.5 32t117 53t85.5 78.5 t58.5 102t36 131t18.5 158t5 189q0 141 -9.5 239.5t-36 187.5t-72.5 144t-120.5 95.5t-179 58t-248.5 17.5q-108 0 -193 -9.5t-152 -32t-116.5 -53t-85 -78t-58.5 -101.5t-36.5 -129t-18.5 -154.5t-5 -184.5zM532 213v866q0 41 16.5 58t55.5 22q165 19 328 19 q113 0 181 -12.5t116.5 -49t68 -101.5t19.5 -171q0 -120 -37.5 -187t-120.5 -98l162 -307q25 -48 25 -66q0 -24 -23 -33.5t-86 -9.5q-58 0 -83.5 4.5t-37.5 16.5t-26 43l-132 319h-186v-313q0 -43 -24 -56.5t-95 -13.5t-96 13.5t-25 56.5zM772 692h129q114 0 146 28.5 t32 131.5q0 82 -30 105.5t-134 23.5q-61 0 -143 -8v-281z" />
<glyph unicode="&#xb4;" horiz-adv-x="446" d="M43 1147q0 19 23 72l67 151q24 54 44.5 66t96.5 12q73 0 98 -13.5t25 -41.5q0 -25 -28 -76l-90 -152q-15 -25 -25.5 -35t-37.5 -18t-75 -8q-53 0 -75.5 10.5t-22.5 32.5z" />
<glyph unicode="&#xb8;" horiz-adv-x="499" d="M49 -358q0 50 11 68t36 18q8 0 42.5 -4.5t62.5 -4.5q25 0 36 5t11 22q0 5 -1 9t-2 7t-4.5 6t-6 5t-8 5.5t-9 5.5t-11.5 6.5t-13 6.5q-39 19 -53.5 44t-14.5 79v119h168v-86q0 -18 5.5 -26.5t23.5 -18.5q77 -43 103 -78.5t26 -108.5q0 -178 -220 -178q-62 0 -125 13 q-32 7 -44.5 22.5t-12.5 63.5z" />
<glyph unicode="&#xbb;" horiz-adv-x="1245" d="M59 141q0 66 10.5 91t47.5 57l239 209v16l-239 209q-37 32 -47.5 56.5t-10.5 90.5q0 47 10.5 63.5t30.5 16.5q21 0 50 -18l346 -238q35 -21 50.5 -37.5t25.5 -52t10 -98.5t-10 -99t-25.5 -52.5t-50.5 -37.5l-346 -239q-34 -17 -50 -17q-20 0 -30.5 16.5t-10.5 63.5z M647 162q0 71 10.5 95t47.5 52l249 189v16l-249 188q-37 28 -47.5 52.5t-10.5 95.5q0 47 11 63.5t32 16.5q17 0 47 -19l363 -227q35 -21 50.5 -37t25.5 -49.5t10 -91.5t-10 -91.5t-25 -48.5t-51 -38l-363 -230q-32 -16 -47 -16q-21 0 -32 16.5t-11 63.5z" />
<glyph unicode="&#x2c6;" horiz-adv-x="684" d="M82 1145q0 19 27 69l108 185q16 28 36.5 38.5t70.5 10.5h98q50 0 70 -10.5t36 -38.5l109 -185q27 -50 27 -69q0 -41 -78 -41q-55 0 -78.5 10t-46.5 43l-82 123h-12l-80 -123q-21 -33 -46.5 -43t-80.5 -10q-78 0 -78 41z" />
<glyph unicode="&#x2da;" horiz-adv-x="606" d="M49 1335q0 124 56 169.5t196 45.5q142 0 198 -45.5t56 -169.5q0 -125 -55.5 -170t-198.5 -45q-140 0 -196 45t-56 170zM217 1335q0 -41 14 -54t70 -13q57 0 72.5 13t15.5 54t-15.5 54.5t-72.5 13.5q-55 0 -69.5 -13.5t-14.5 -54.5z" />
<glyph unicode="&#x2dc;" horiz-adv-x="686" d="M49 1225q0 48 11 68t42 40q64 39 134 39q50 0 123 -20.5t108 -20.5q42 0 86 17.5t51 17.5q20 0 26.5 -14.5t6.5 -65.5q0 -48 -10.5 -68t-42.5 -42q-62 -37 -133 -37q-51 0 -123.5 20.5t-106.5 20.5q-43 0 -88 -17.5t-51 -17.5q-20 0 -26.5 14.5t-6.5 65.5z" />
<glyph unicode="&#x401;" horiz-adv-x="931" d="M109 63v1145q0 39 15.5 51.5t57.5 12.5h617q36 0 49.5 -22t13.5 -85t-13.5 -83.5t-49.5 -20.5h-453v-291h328q40 0 51.5 -19t11.5 -83q0 -65 -12 -85t-51 -20h-328v-352h473q36 0 50 -22t14 -85q0 -61 -14 -82.5t-50 -21.5h-637q-43 0 -58 12t-15 51zM186 1483v33 q0 56 22 72t101 16t101 -16t22 -72v-33q0 -55 -22.5 -71.5t-100.5 -16.5t-100.5 16.5t-22.5 71.5zM530 1483v33q0 56 21 72t100 16t101 -16t22 -72v-33q0 -55 -22.5 -71.5t-100.5 -16.5t-99.5 16.5t-21.5 71.5z" />
<glyph unicode="&#x402;" horiz-adv-x="1198" d="M20 1165q0 63 14 85t50 22h702q37 0 50.5 -21.5t13.5 -85.5q0 -63 -13 -83.5t-51 -20.5h-237v-270q81 143 280 143q145 0 201.5 -65t56.5 -216v-424q0 -132 -54.5 -185.5t-162.5 -53.5q-65 0 -133 14q-36 9 -49.5 31.5t-13.5 75.5q0 59 9.5 75.5t33.5 16.5q5 0 31 -4 t45 -4q36 0 46.5 18t10.5 86v297q0 75 -26.5 104t-102.5 29q-89 0 -130.5 -65t-41.5 -215v-379q0 -44 -23.5 -57t-95.5 -13t-95.5 13t-23.5 57v991h-227q-37 0 -50.5 20.5t-13.5 83.5z" />
<glyph unicode="&#x403;" horiz-adv-x="829" d="M109 70v1138q0 39 15.5 51.5t57.5 12.5h555q36 0 50 -22t14 -85t-13.5 -83.5t-50.5 -20.5h-391v-991q0 -43 -23.5 -56.5t-95.5 -13.5q-71 0 -94.5 13.5t-23.5 56.5zM283 1423q0 21 22 72l68 152q14 30 20.5 41.5t22 22t36 12t62.5 1.5q73 0 98 -13.5t25 -41.5 q0 -23 -29 -76l-90 -151q-15 -25 -25 -35.5t-37 -18.5t-75 -8q-53 0 -75.5 10.5t-22.5 32.5z" />
<glyph unicode="&#x404;" horiz-adv-x="927" d="M84 528v181q0 87 7.5 159.5t19.5 127.5t33 98t43 73t53.5 51t60.5 33.5t69 19.5t74 9t80 2q157 0 295 -37q19 -5 28 -12.5t15 -29.5t6 -64q0 -95 -37 -95q-3 0 -87 13.5t-162 13.5q-58 0 -93 -3.5t-68.5 -15t-51 -32t-31.5 -57.5t-19.5 -87.5t-7.5 -125.5h394 q40 0 51.5 -17.5t11.5 -77.5t-11.5 -77t-51.5 -17h-394q1 -88 5.5 -147t18 -101t29 -64.5t48 -35t64 -15.5t87.5 -3q89 0 176.5 15t91.5 15q22 0 29.5 -19.5t7.5 -74.5q0 -59 -11 -80t-38 -28q-142 -37 -307 -37q-57 0 -98 3.5t-88.5 16.5t-80.5 36t-65.5 63t-52 96.5 t-31.5 139t-12 187.5z" />
<glyph unicode="&#x405;" horiz-adv-x="935" d="M74 135q0 57 9 75.5t32 18.5q6 0 94.5 -16t179.5 -16q126 0 184 36t58 125q0 66 -19 98t-80 60l-235 105q-105 47 -152 115t-47 202q0 83 20.5 145.5t53.5 100t81.5 60t97.5 30.5t110 8q177 0 319 -39q27 -7 38 -28t11 -82q0 -55 -10 -75t-31 -20q-1 0 -92 15.5 t-178 15.5q-44 0 -70 -2t-51.5 -9.5t-38 -21.5t-20.5 -38.5t-8 -61.5q0 -55 20.5 -79.5t77.5 -49.5l234 -105q111 -49 155.5 -119.5t44.5 -211.5q0 -385 -436 -385q-174 0 -293 37q-33 10 -46 31t-13 81z" />
<glyph unicode="&#x406;" horiz-adv-x="456" d="M109 70v1132q0 43 23.5 56.5t94.5 13.5q72 0 95.5 -13.5t23.5 -56.5v-1132q0 -43 -23.5 -56.5t-95.5 -13.5q-71 0 -94.5 13.5t-23.5 56.5z" />
<glyph unicode="&#x407;" horiz-adv-x="456" d="M-66 1479v32q0 56 22 72t101 16t101 -16t22 -72v-32q0 -55 -22.5 -71.5t-100.5 -16.5t-100.5 16.5t-22.5 71.5zM109 70v1132q0 43 23.5 56.5t94.5 13.5q72 0 95.5 -13.5t23.5 -56.5v-1132q0 -43 -23.5 -56.5t-95.5 -13.5q-71 0 -94.5 13.5t-23.5 56.5zM279 1479v32 q0 56 21 72t99 16q79 0 101 -16t22 -72v-32q0 -55 -22.5 -71.5t-100.5 -16.5t-99 16.5t-21 71.5z" />
<glyph unicode="&#x408;" horiz-adv-x="712" d="M14 125q0 56 8.5 71t32.5 15q12 0 70 -8t102 -8q83 0 111.5 30t28.5 123v854q0 43 23.5 56.5t94.5 13.5t95 -13.5t24 -56.5v-854q0 -196 -74.5 -279t-240.5 -83q-115 0 -217 28q-33 10 -45.5 30.5t-12.5 80.5z" />
<glyph unicode="&#x409;" horiz-adv-x="1708" d="M20 111q0 54 9 69t32 15q11 0 32 -3.5t38 -3.5q33 0 46.5 15.5t19.5 70.5l98 938q3 35 17.5 47.5t56.5 12.5h577q44 0 59 -12.5t15 -51.5v-448q138 16 280 16q103 0 168 -22t102 -73t50.5 -121.5t13.5 -180.5q0 -116 -18.5 -187.5t-69 -119.5t-135.5 -67t-223 -19 q-213 0 -334 14q-44 4 -58 20t-14 56v985h-278l-98 -897q-11 -94 -55.5 -136t-139.5 -42q-79 0 -133 12q-32 6 -45 29t-13 84zM1020 182q90 -8 180 -8q45 0 73.5 3t51.5 12.5t34.5 23t19.5 39.5t10 56t2 79q0 124 -36 161.5t-153 37.5q-65 0 -182 -6v-398z" />
<glyph unicode="&#x40a;" horiz-adv-x="1665" d="M109 70v1132q0 43 23.5 56.5t94.5 13.5q72 0 95.5 -13.5t23.5 -56.5v-452h395v452q0 43 23.5 56.5t95.5 13.5q71 0 95 -13.5t24 -56.5v-442q138 16 278 16q103 0 169 -22t103 -73t50.5 -121.5t13.5 -180.5q0 -116 -18.5 -187.5t-69.5 -119.5t-136 -67t-222 -19 q-213 0 -334 14q-44 4 -58 20t-14 56v473h-395v-479q0 -43 -23.5 -56.5t-95.5 -13.5q-71 0 -94.5 13.5t-23.5 56.5zM979 182q90 -8 178 -8q45 0 74 3t52 12.5t35 23t20 39.5t10 56t2 79q0 124 -36.5 161.5t-154.5 37.5q-63 0 -180 -6v-398z" />
<glyph unicode="&#x40b;" horiz-adv-x="1198" d="M20 1165q0 63 14 85t50 22h702q37 0 50.5 -21.5t13.5 -85.5q0 -63 -13 -83.5t-51 -20.5h-237v-270q81 143 280 143q145 0 201.5 -65t56.5 -216v-583q0 -44 -23 -57t-93 -13q-72 0 -96.5 13t-24.5 57v526q0 75 -26.5 104t-102.5 29q-89 0 -130.5 -65t-41.5 -215v-379 q0 -44 -23.5 -57t-95.5 -13t-95.5 13t-23.5 57v991h-227q-37 0 -50.5 20.5t-13.5 83.5z" />
<glyph unicode="&#x40c;" horiz-adv-x="991" d="M109 70v1132q0 43 23.5 56.5t94.5 13.5q72 0 95.5 -13.5t23.5 -56.5v-483h33l293 495q22 37 48.5 47.5t104.5 10.5q65 0 88 -11.5t23 -37.5q0 -23 -27 -68l-323 -512l334 -496q41 -62 41 -94q0 -26 -24.5 -39.5t-100.5 -13.5q-63 0 -90.5 10.5t-49.5 44.5l-317 508h-33 v-493q0 -43 -23.5 -56.5t-95.5 -13.5q-71 0 -94.5 13.5t-23.5 56.5zM332 1423q0 21 22 72l68 152q14 30 20.5 41.5t22 22t36 12t62.5 1.5q73 0 98 -13.5t25 -41.5q0 -23 -29 -76l-90 -151q-15 -25 -25 -35.5t-37 -18.5t-75 -8q-53 0 -75.5 10.5t-22.5 32.5z" />
<glyph unicode="&#x40e;" horiz-adv-x="999" d="M29 1223q0 24 24 36.5t92 12.5q72 0 97.5 -12.5t36.5 -49.5l215 -675h20l205 669q12 43 36.5 55.5t102.5 12.5q66 0 89.5 -13t23.5 -36q0 -28 -29 -111l-330 -907q-40 -111 -106 -163t-182 -52q-120 0 -191 18q-33 8 -45 29t-12 80q0 57 8.5 72.5t30.5 15.5q14 0 69 -6 t95 -6q75 0 111.5 24t58.5 100l6 23h-13q-61 0 -89 21t-44 67l-252 682q-28 76 -28 113zM244 1628q0 44 15.5 56t68.5 12q52 0 66.5 -10t17.5 -44q3 -43 17 -56t71 -13t71 13t17 56q3 34 18 44t66 10q53 0 68.5 -12t15.5 -56q0 -128 -56 -178.5t-200 -50.5t-200 50.5 t-56 178.5z" />
<glyph unicode="&#x40f;" horiz-adv-x="1077" d="M109 63v1139q0 43 23.5 56.5t94.5 13.5q72 0 95.5 -13.5t23.5 -56.5v-991h383v991q0 43 24 56.5t95 13.5t95 -13.5t24 -56.5v-1139q0 -39 -15 -51t-59 -12h-266l-9 -154q-2 -42 -14 -52.5t-65 -10.5q-54 0 -66.5 10.5t-15.5 52.5l-11 154h-264q-43 0 -58 12t-15 51z" />
<glyph unicode="&#x410;" horiz-adv-x="1089" d="M29 55q0 14 14 72l279 1036q18 71 58.5 90t164.5 19q123 0 162 -19t59 -90l281 -1036q12 -50 12 -72q0 -31 -21.5 -43t-91.5 -12q-75 0 -99.5 13t-35.5 55l-74 274h-391l-67 -274q-9 -42 -34.5 -55t-101.5 -13q-71 0 -92.5 11.5t-21.5 43.5zM393 524h303l-139 547h-27z " />
<glyph unicode="&#x411;" horiz-adv-x="1052" d="M109 76v1132q0 39 15.5 51.5t57.5 12.5h643q36 0 50 -22t14 -85t-13.5 -83.5t-50.5 -20.5h-479v-313q147 16 293 16q104 0 169 -21t102.5 -71t51 -119.5t13.5 -179.5q0 -115 -20 -186t-72.5 -117.5t-138.5 -65t-224 -18.5q-219 0 -338 14q-46 6 -59.5 21t-13.5 55z M346 184q78 -10 186 -10q70 0 106 6t59 30t28.5 61t5.5 110q0 122 -34.5 158t-153.5 36q-85 0 -197 -8v-383z" />
<glyph unicode="&#x412;" horiz-adv-x="1058" d="M109 76v1110q0 43 15.5 59t55.5 21q134 16 295 16q72 0 123 -2.5t102 -10.5t84.5 -22.5t63.5 -37.5t46.5 -57t26 -81t9.5 -108q0 -128 -34.5 -198.5t-123.5 -96.5q109 -24 156 -97.5t47 -226.5q0 -104 -20 -169t-72 -109t-139 -62t-224 -18q-219 0 -338 14 q-46 6 -59.5 21t-13.5 55zM346 184q78 -10 186 -10q70 0 106 6t59 30t28.5 61t5.5 110q0 119 -35.5 156.5t-152.5 37.5h-197v-391zM346 745h152q120 0 154 34.5t34 150.5q0 69 -12 98.5t-48 42t-118 12.5q-80 0 -162 -8v-330z" />
<glyph unicode="&#x413;" horiz-adv-x="829" d="M109 70v1138q0 39 15.5 51.5t57.5 12.5h555q36 0 50 -22t14 -85t-13.5 -83.5t-50.5 -20.5h-391v-991q0 -43 -23.5 -56.5t-95.5 -13.5q-71 0 -94.5 13.5t-23.5 56.5z" />
<glyph unicode="&#x414;" horiz-adv-x="1142" d="M29 137q0 46 18.5 60t67.5 14h35l110 1001q3 35 17.5 47.5t56.5 12.5h592q42 0 57.5 -12.5t15.5 -51.5v-997h29q49 0 67.5 -14t18.5 -60v-293q0 -39 -18 -50t-72 -11q-57 0 -77 11t-27 50l-33 156h-631l-33 -156q-7 -39 -26.5 -50t-77.5 -11q-53 0 -71.5 11.5t-18.5 49.5 v293zM379 211h383v850h-293z" />
<glyph unicode="&#x415;" horiz-adv-x="931" d="M109 63v1145q0 39 15.5 51.5t57.5 12.5h617q36 0 49.5 -22t13.5 -85t-13.5 -83.5t-49.5 -20.5h-453v-291h328q40 0 51.5 -19t11.5 -83q0 -65 -12 -85t-51 -20h-328v-352h473q36 0 50 -22t14 -85q0 -61 -14 -82.5t-50 -21.5h-637q-43 0 -58 12t-15 51z" />
<glyph unicode="&#x416;" horiz-adv-x="1480" d="M31 53q0 31 39 94l317 496l-307 512q-27 47 -27 68q0 26 23 37.5t88 11.5q56 0 83 -4.5t41.5 -16t28.5 -37.5l275 -495h26v483q0 43 24 56.5t95 13.5t95 -13.5t24 -56.5v-483h33l274 495q14 26 28.5 37.5t42 16t83.5 4.5q65 0 87.5 -11.5t22.5 -37.5q0 -23 -26 -68 l-307 -512l317 -496q39 -63 39 -94q0 -26 -23.5 -39.5t-99.5 -13.5q-64 0 -91.5 11t-47.5 44l-299 508h-33v-493q0 -43 -24 -56.5t-95 -13.5t-95 13.5t-24 56.5v493h-26l-299 -508q-20 -33 -47.5 -44t-91.5 -11q-76 0 -99.5 13.5t-23.5 39.5z" />
<glyph unicode="&#x417;" horiz-adv-x="927" d="M49 123q0 57 10 75.5t33 18.5q7 0 117.5 -12t191.5 -12q61 0 100.5 11.5t59.5 36.5t27.5 56.5t7.5 79.5q0 50 -7.5 79.5t-32.5 53.5t-73.5 33.5t-128.5 9.5h-108q-39 0 -51.5 20t-12.5 74q0 55 12.5 74.5t51.5 19.5h106q70 0 114.5 12t66.5 38.5t30 57.5t8 79 q0 88 -30 117.5t-127 29.5q-81 0 -180.5 -11t-104.5 -11q-22 0 -32.5 19.5t-10.5 74.5q0 61 9.5 78.5t39.5 25.5q127 31 344 31q65 0 113.5 -8t91.5 -29.5t70.5 -57.5t43 -93.5t15.5 -135.5q0 -125 -57 -204.5t-162 -96.5q131 -9 187.5 -81.5t56.5 -221.5q0 -196 -97.5 -282 t-294.5 -86q-207 0 -337 30q-34 8 -47 28t-13 79z" />
<glyph unicode="&#x418;" horiz-adv-x="1130" d="M109 70v1132q0 43 23.5 56.5t94.5 13.5q72 0 95.5 -13.5t23.5 -56.5v-780h19l380 782q22 45 48 56.5t88 11.5q87 0 114 -13t27 -57v-1132q0 -43 -24 -56.5t-95 -13.5t-95 13.5t-24 56.5v780h-18l-389 -784q-22 -44 -46.5 -55t-84.5 -11q-86 0 -111.5 13t-25.5 57z" />
<glyph unicode="&#x419;" horiz-adv-x="1130" d="M109 70v1132q0 43 23.5 56.5t94.5 13.5q72 0 95.5 -13.5t23.5 -56.5v-780h19l380 782q22 45 48 56.5t88 11.5q87 0 114 -13t27 -57v-1132q0 -43 -24 -56.5t-95 -13.5t-95 13.5t-24 56.5v780h-18l-389 -784q-22 -44 -46.5 -55t-84.5 -11q-86 0 -111.5 13t-25.5 57z M311 1628q0 44 15.5 56t68.5 12q52 0 66.5 -10t17.5 -44q3 -43 17 -56t71 -13t71 13t17 56q3 34 18 44t66 10q53 0 68.5 -12t15.5 -56q0 -128 -56 -178.5t-200 -50.5t-200 50.5t-56 178.5z" />
<glyph unicode="&#x41a;" horiz-adv-x="991" d="M109 70v1132q0 43 23.5 56.5t94.5 13.5q72 0 95.5 -13.5t23.5 -56.5v-483h33l293 495q22 37 48.5 47.5t104.5 10.5q65 0 88 -11.5t23 -37.5q0 -23 -27 -68l-323 -512l334 -496q41 -62 41 -94q0 -26 -24.5 -39.5t-100.5 -13.5q-63 0 -90.5 10.5t-49.5 44.5l-317 508h-33 v-493q0 -43 -23.5 -56.5t-95.5 -13.5q-71 0 -94.5 13.5t-23.5 56.5z" />
<glyph unicode="&#x41b;" horiz-adv-x="1150" d="M29 111q0 54 9.5 69t31.5 15q12 0 33 -3.5t36 -3.5q33 0 46.5 15.5t19.5 70.5l98 938q3 34 18.5 47t57.5 13h588q43 0 58 -12.5t15 -51.5v-1138q0 -43 -23.5 -56.5t-94.5 -13.5t-95 13.5t-24 56.5v991h-289l-98 -897q-11 -94 -55.5 -136t-141.5 -42q-77 0 -133 12 q-32 6 -44.5 29t-12.5 84z" />
<glyph unicode="&#x41c;" horiz-adv-x="1329" d="M109 70v1118q0 49 28.5 66.5t116.5 17.5q94 0 129 -14.5t57 -69.5l219 -567h11l219 567q22 55 57 69.5t129 14.5q88 0 116 -17.5t28 -66.5v-1118q0 -44 -23 -57t-94 -13q-70 0 -93.5 13.5t-23.5 56.5l2 841h-12l-187 -505q-19 -53 -41 -67.5t-83 -14.5q-60 0 -82 15 t-41 67l-187 505h-12v-841q0 -44 -23 -57t-94 -13q-70 0 -93 13t-23 57z" />
<glyph unicode="&#x41d;" horiz-adv-x="1087" d="M109 70v1132q0 43 23.5 56.5t94.5 13.5q72 0 95.5 -13.5t23.5 -56.5v-452h395v452q0 43 23.5 56.5t95.5 13.5q71 0 95 -13.5t24 -56.5v-1132q0 -43 -24 -56.5t-95 -13.5q-72 0 -95.5 13.5t-23.5 56.5v479h-395v-479q0 -43 -23.5 -56.5t-95.5 -13.5q-71 0 -94.5 13.5 t-23.5 56.5z" />
<glyph unicode="&#x41e;" horiz-adv-x="1083" d="M84 557v141q0 99 6 177t21 138t33.5 103t49 73t62.5 48t79.5 28t94 13.5t111.5 3.5q69 0 118 -3.5t97 -14.5t80 -29.5t61.5 -49t47 -73t30.5 -103t18.5 -136.5t5.5 -175v-141q0 -111 -9.5 -195.5t-26.5 -145t-47.5 -102.5t-64 -67t-85.5 -38.5t-102 -18t-123 -4.5 q-66 0 -114 3.5t-95.5 14t-79.5 28.5t-62 48t-48 72t-32 100.5t-20 133.5t-6 171zM322 580q0 -92 3 -151t12.5 -105.5t23 -70.5t40.5 -39.5t58 -19.5t82 -4q49 0 80 4.5t58 19.5t41 39.5t24.5 70t14 105.5t3.5 151v108q0 92 -3 150t-12.5 105t-23 70.5t-41 39.5t-59 20 t-82.5 4q-42 0 -69.5 -3.5t-52.5 -12.5t-40 -28t-27.5 -45.5t-18 -70t-8.5 -98t-3 -131.5v-108z" />
<glyph unicode="&#x41f;" horiz-adv-x="1077" d="M109 70v1138q0 39 15.5 51.5t57.5 12.5h711q44 0 59 -12.5t15 -51.5v-1138q0 -43 -24 -56.5t-95 -13.5t-95 13.5t-24 56.5v991h-383v-991q0 -43 -23.5 -56.5t-95.5 -13.5q-71 0 -94.5 13.5t-23.5 56.5z" />
<glyph unicode="&#x420;" horiz-adv-x="1009" d="M109 70v1114q0 41 16.5 58t54.5 22q156 18 350 18q76 0 130 -5.5t104 -21t81.5 -43t55.5 -71t34.5 -106.5t10.5 -148q0 -130 -29 -216.5t-92 -136.5t-150.5 -71t-215.5 -21h-113v-372q0 -43 -23.5 -56.5t-95.5 -13.5q-71 0 -94.5 13.5t-23.5 56.5zM346 637h123 q138 0 183.5 47.5t45.5 189.5q0 67 -8.5 107t-32 63.5t-58.5 31t-95 7.5q-76 0 -158 -8v-438z" />
<glyph unicode="&#x421;" horiz-adv-x="927" d="M84 528v181q0 98 8.5 177t26 137t39 101t54 71t64 46t76.5 26.5t83 11.5t91 3q151 0 293 -39q28 -7 38.5 -27t10.5 -83q0 -93 -37 -93q-3 0 -87 15.5t-162 15.5q-55 0 -89 -4t-66.5 -17.5t-49.5 -37.5t-31 -67t-19 -104t-5 -149v-112q0 -78 4.5 -135t12.5 -99.5 t24.5 -69.5t34 -43.5t48.5 -24.5t60 -10.5t76 -2.5q82 0 162.5 16t86.5 16q22 0 29.5 -18.5t7.5 -75.5q0 -60 -11 -80.5t-38 -27.5q-131 -39 -297 -39q-47 0 -82 2t-75 9t-69 18.5t-60 32t-52.5 49t-41.5 69t-32 92.5t-19 120t-7 150z" />
<glyph unicode="&#x422;" horiz-adv-x="901" d="M20 1165q0 63 14 85t50 22h733q36 0 50 -22t14 -85t-13.5 -83.5t-50.5 -20.5h-248v-991q0 -43 -23.5 -56.5t-94.5 -13.5t-95 13.5t-24 56.5v991h-248q-37 0 -50.5 20.5t-13.5 83.5z" />
<glyph unicode="&#x423;" horiz-adv-x="999" d="M29 1223q0 24 24 36.5t92 12.5q72 0 97.5 -12.5t36.5 -49.5l215 -675h20l205 669q12 43 36.5 55.5t102.5 12.5q66 0 89.5 -13t23.5 -36q0 -28 -29 -111l-330 -907q-40 -111 -106 -163t-182 -52q-120 0 -191 18q-33 8 -45 29t-12 80q0 57 8.5 72.5t30.5 15.5q14 0 69 -6 t95 -6q75 0 111.5 24t58.5 100l6 23h-13q-61 0 -89 21t-44 67l-252 682q-28 76 -28 113z" />
<glyph unicode="&#x424;" horiz-adv-x="1341" d="M57 670q0 78 11 140t30 106.5t50 76.5t65.5 51t82.5 30.5t95.5 15.5t110.5 4h53v120q0 42 24 55t95 13t95 -13t24 -55v-120h53q73 0 127 -6t107.5 -21.5t89.5 -45.5t64.5 -76t42 -115t13.5 -160q0 -134 -27.5 -224t-86 -141.5t-137.5 -72.5t-193 -21h-53v-154 q0 -43 -24 -56t-95 -13t-95 13t-24 56v154h-53q-114 0 -193 21t-137.5 72.5t-86.5 141.5t-28 224zM293 670q0 -116 19.5 -172t61.5 -75.5t128 -19.5h53v496h-53q-66 0 -102 -7t-62.5 -31.5t-35.5 -69t-9 -121.5zM793 403h53q65 0 102.5 9t63 38.5t34.5 80.5t9 139 q0 78 -8.5 122t-35 68.5t-62.5 31.5t-103 7h-53v-496z" />
<glyph unicode="&#x425;" horiz-adv-x="1017" d="M35 57q0 28 37 84l311 512l-287 471q-37 59 -37 90q0 29 26.5 43.5t94.5 14.5q70 0 96 -12.5t50 -55.5l180 -327h8l176 327q20 44 47.5 56t100.5 12q68 0 93 -14.5t25 -43.5q0 -32 -34 -88l-289 -473l313 -508q35 -53 35 -88q0 -29 -25 -43t-92 -14q-70 0 -95.5 12.5 t-49.5 55.5l-209 374h-8l-203 -374q-24 -44 -49 -56t-96 -12q-68 0 -93.5 14t-25.5 43z" />
<glyph unicode="&#x426;" horiz-adv-x="1136" d="M109 63v1139q0 43 23.5 56.5t94.5 13.5q72 0 95.5 -13.5t23.5 -56.5v-991h383v991q0 43 24 56.5t95 13.5t95 -13.5t24 -56.5v-991h30q64 0 86.5 -14t22.5 -60v-293q0 -38 -18.5 -49.5t-73.5 -11.5q-60 0 -80 11t-27 50l-33 156h-692q-43 0 -58 12t-15 51z" />
<glyph unicode="&#x427;" horiz-adv-x="1009" d="M68 817v385q0 43 23.5 56.5t94.5 13.5q72 0 95.5 -13.5t23.5 -56.5v-352q0 -114 31 -145t137 -31q83 0 191 6v522q0 44 23 57t95 13q71 0 95 -13.5t24 -56.5v-1132q0 -43 -24 -56.5t-95 -13.5q-72 0 -95 13t-23 57v419q-133 -20 -254 -20q-98 0 -159 14t-104 53 t-61 106.5t-18 174.5z" />
<glyph unicode="&#x428;" horiz-adv-x="1646" d="M109 63v1139q0 43 23.5 56.5t94.5 13.5q72 0 95.5 -13.5t23.5 -56.5v-991h359v991q0 43 23.5 56.5t94.5 13.5t95 -13.5t24 -56.5v-991h356v991q0 43 24 56.5t95 13.5t95 -13.5t24 -56.5v-1139q0 -39 -15 -51t-59 -12h-1280q-43 0 -58 12t-15 51z" />
<glyph unicode="&#x429;" horiz-adv-x="1705" d="M109 63v1139q0 43 23.5 56.5t94.5 13.5q72 0 95.5 -13.5t23.5 -56.5v-991h359v991q0 43 23.5 56.5t94.5 13.5t95 -13.5t24 -56.5v-991h356v991q0 43 24 56.5t95 13.5t95 -13.5t24 -56.5v-991h31q64 0 86 -14t22 -60v-293q0 -38 -18.5 -49.5t-73.5 -11.5q-59 0 -79 11 t-27 50l-33 156h-1262q-43 0 -58 12t-15 51z" />
<glyph unicode="&#x42a;" horiz-adv-x="1132" d="M20 1165q0 63 14 85t50 22h248q71 0 95 -13.5t24 -56.5v-442q138 16 280 16q103 0 168 -22t102 -73t50.5 -121.5t13.5 -180.5q0 -116 -18.5 -187.5t-69.5 -119.5t-136 -67t-223 -19q-212 0 -333 14q-44 4 -58 20t-14 56v985h-129q-37 0 -50.5 20.5t-13.5 83.5zM451 182 q90 -8 180 -8q45 0 73.5 3t51 12.5t34.5 23t19.5 39.5t9.5 56t2 79q0 124 -35.5 161.5t-152.5 37.5q-65 0 -182 -6v-398z" />
<glyph unicode="&#x42b;" horiz-adv-x="1480" d="M109 76v1126q0 43 23.5 56.5t94.5 13.5q72 0 95.5 -13.5t23.5 -56.5v-442q138 16 281 16q103 0 169 -22t103 -73t50.5 -121.5t13.5 -180.5q0 -93 -12 -155.5t-41 -110.5t-81.5 -74.5t-127.5 -39.5t-185 -13q-215 0 -334 14q-46 6 -59.5 21t-13.5 55zM346 182 q90 -8 180 -8q67 0 102.5 7t57 32.5t27.5 63.5t6 110q0 124 -36.5 161.5t-154.5 37.5q-65 0 -182 -6v-398zM1141 70v1132q0 43 24 56.5t95 13.5q72 0 95 -13t23 -57v-1132q0 -44 -23 -57t-95 -13q-71 0 -95 13.5t-24 56.5z" />
<glyph unicode="&#x42c;" horiz-adv-x="1030" d="M109 76v1126q0 43 23.5 56.5t94.5 13.5q72 0 95.5 -13.5t23.5 -56.5v-442q138 16 281 16q103 0 169 -22t103 -73t50.5 -121.5t13.5 -180.5q0 -93 -12 -155.5t-41 -110.5t-81.5 -74.5t-127.5 -39.5t-185 -13q-215 0 -334 14q-46 6 -59.5 21t-13.5 55zM346 182 q90 -8 180 -8q67 0 102.5 7t57 32.5t27.5 63.5t6 110q0 124 -36.5 161.5t-154.5 37.5q-65 0 -182 -6v-398z" />
<glyph unicode="&#x42d;" horiz-adv-x="937" d="M70 131q0 55 7.5 74.5t28.5 19.5q4 0 92 -15t177 -15q55 0 87 3t64 15.5t48 35.5t29.5 64.5t18 100.5t5.5 147h-400q-40 0 -51.5 17t-11.5 77t11.5 77.5t51.5 17.5h400q-2 75 -7.5 126t-20 87.5t-32 57t-51 32t-68.5 15t-92 3.5q-78 0 -162.5 -13.5t-87.5 -13.5 q-36 0 -36 95q0 42 6 64t15 29.5t28 12.5q138 37 297 37q46 0 80 -2t73.5 -9t68.5 -19.5t60.5 -33.5t53.5 -51t42.5 -73t32.5 -98t19.5 -127.5t7.5 -159.5v-181q0 -105 -12 -187.5t-31.5 -139t-52 -96.5t-65.5 -63t-80.5 -36t-88.5 -16.5t-98 -3.5q-165 0 -307 37 q-27 7 -38 28t-11 80z" />
<glyph unicode="&#x42e;" horiz-adv-x="1585" d="M109 70v1132q0 43 23.5 56.5t94.5 13.5q72 0 95.5 -13.5t23.5 -56.5v-434h240q2 86 9 153t21.5 120t32.5 90.5t47.5 64.5t61.5 43.5t78.5 26t94 13t113.5 3.5q54 0 95 -2t82 -8.5t71 -17t59 -28t48.5 -41t37.5 -56.5t29 -74.5t19.5 -95.5t12 -118t3.5 -143v-141 q0 -97 -6.5 -173.5t-22 -135t-34.5 -100.5t-50 -71.5t-63 -47t-79.5 -27.5t-92.5 -13t-109 -3q-50 0 -88 2t-78 7.5t-69.5 15.5t-59 26.5t-50.5 39.5t-40.5 55t-32 73.5t-22 93.5t-14 117t-4.5 143h-240v-489q0 -43 -23.5 -56.5t-95.5 -13.5q-71 0 -94.5 13.5t-23.5 56.5z M823 580q0 -91 3.5 -151t14 -105.5t24.5 -70t41 -39.5t58 -19.5t80 -4.5t79.5 4.5t57.5 19.5t41 39.5t24.5 70t14 105.5t3.5 151v108q0 92 -3 150.5t-13 104.5t-23.5 70t-40.5 40t-58 20t-82 4t-82.5 -4t-59 -20t-41 -39.5t-23 -70.5t-12.5 -105t-3 -150v-108z" />
<glyph unicode="&#x42f;" horiz-adv-x="1036" d="M68 47q0 25 26 78l199 422q-101 40 -149 126t-48 234q0 96 16.5 162.5t46.5 108.5t83.5 65t115.5 31t154 8q194 0 350 -18q37 -5 53.5 -22t16.5 -58v-1114q0 -43 -24 -56.5t-95 -13.5t-95 13.5t-24 56.5v436h-110q-59 0 -86 2l-176 -445q-12 -30 -25.5 -41.5t-41 -16.5 t-89.5 -5q-58 0 -78 13t-20 34zM342 895q0 -131 46 -174t183 -43h123v397q-78 8 -155 8q-116 0 -156.5 -37.5t-40.5 -150.5z" />
<glyph unicode="&#x430;" horiz-adv-x="995" d="M68 279q0 163 86 233t303 70h178v102q0 50 -7.5 78.5t-30.5 43t-50 18t-80 3.5q-88 0 -188.5 -16t-108.5 -16q-43 0 -43 94q0 51 11 71t40 29q54 16 143.5 28.5t176.5 12.5q102 0 165.5 -10.5t113.5 -40.5t71.5 -87.5t21.5 -148.5v-323q0 -104 10 -185t20.5 -124 t10.5 -56q0 -30 -21.5 -42.5t-86.5 -12.5q-62 0 -82.5 11t-30.5 50l-31 115q-40 -99 -125 -147.5t-202 -48.5q-137 0 -200.5 70t-63.5 229zM295 303q0 -82 26.5 -107.5t94.5 -25.5q93 0 156 54t63 161v55l-178 -6q-96 -3 -129 -30t-33 -101z" />
<glyph unicode="&#x431;" horiz-adv-x="1046" d="M98 475v414q0 145 25 238.5t82 147t137 74.5t203 21q159 0 325 -27q26 -5 38 -26.5t12 -71.5q0 -51 -9.5 -70.5t-31.5 -19.5q-14 0 -113.5 9.5t-171.5 9.5q-54 0 -87.5 -2.5t-65 -11.5t-48 -24.5t-29.5 -43t-17.5 -65.5t-4.5 -93v-41q33 70 101 103.5t184 33.5 q80 0 131 -12.5t92 -44.5t62.5 -93.5t32.5 -153t11 -228.5q0 -109 -9.5 -189t-32.5 -138t-54 -95t-80.5 -58.5t-105.5 -29.5t-135 -8q-168 0 -261 43t-136.5 149.5t-43.5 302.5zM338 485q0 -132 18 -196.5t58.5 -87.5t124.5 -23q41 0 66.5 4t46.5 18t32 35.5t19 62t10 91 t2 129.5q0 74 -3 123t-13 85t-22 55.5t-36.5 30.5t-50 14t-68.5 3q-71 0 -108.5 -23t-56.5 -88.5t-19 -191.5v-41z" />
<glyph unicode="&#x432;" horiz-adv-x="1009" d="M109 76v852q0 43 15.5 59t55.5 21q134 16 338 16q90 0 148 -5t109 -20t78 -42.5t42.5 -72t15.5 -110.5q0 -132 -50.5 -187.5t-164.5 -68.5q131 -14 185.5 -65t54.5 -187q0 -73 -17.5 -123t-48.5 -81t-87.5 -48t-119.5 -22.5t-159 -5.5q-187 0 -322 18q-46 6 -59.5 19.5 t-13.5 52.5zM346 199q61 -6 170 -6q112 0 145 23.5t33 100.5q0 72 -42.5 98.5t-164.5 26.5h-141v-243zM346 592h141q102 0 142.5 25.5t40.5 95.5q0 67 -32.5 85.5t-131.5 18.5q-103 0 -160 -8v-217z" />
<glyph unicode="&#x433;" horiz-adv-x="720" d="M109 70v876q0 39 15.5 51.5t57.5 12.5h455q36 0 49.5 -22t13.5 -85t-13.5 -83.5t-49.5 -20.5h-291v-729q0 -43 -23.5 -56.5t-95.5 -13.5q-71 0 -94.5 13.5t-23.5 56.5z" />
<glyph unicode="&#x434;" horiz-adv-x="1052" d="M25 106q0 65 12 85t51 20h45l94 729q6 44 28 57t91 13h436q71 0 95 -13.5t24 -56.5v-729h33q49 0 67.5 -14t18.5 -60v-293q0 -38 -18.5 -49.5t-71.5 -11.5q-57 0 -77.5 11t-27.5 50l-32 156h-543l-33 -156q-7 -39 -26 -50t-76 -11q-54 0 -72 11t-18 50v262zM356 211h308 v596h-232z" />
<glyph unicode="&#x435;" horiz-adv-x="972" d="M88 496q0 102 9.5 180.5t26.5 135t46 96t60.5 63.5t79 37t93 17.5t109.5 4.5q100 0 168 -19.5t110 -53.5t65 -96.5t30.5 -132t7.5 -175.5q0 -60 -18 -85.5t-72 -25.5h-477q2 -88 10.5 -136.5t35 -77t64.5 -36.5t109 -8q70 0 137 9t108.5 17.5t49.5 8.5q39 0 39 -96 q0 -50 -12.5 -71t-43.5 -32q-48 -18 -135.5 -29t-159.5 -11q-80 0 -135 6.5t-108.5 26t-87 55t-60 92.5t-38 140t-11.5 196zM326 590h344q0 60 -2 92.5t-10.5 66t-26 48.5t-47.5 24.5t-76 9.5q-53 0 -82.5 -7.5t-53 -32.5t-33.5 -72.5t-13 -128.5z" />
<glyph unicode="&#x436;" horiz-adv-x="1398" d="M25 47q0 8 2.5 16.5t4.5 12.5t9.5 15.5t9.5 14.5l301 422l-274 373q-29 42 -29 68q0 22 26.5 31.5t92.5 9.5q73 0 99 -11.5t52 -48.5l240 -348h21v338q0 44 24 57t94 13q72 0 95.5 -13t23.5 -57v-338h23l239 348q26 37 52.5 48.5t99.5 11.5q66 0 91.5 -9.5t25.5 -31.5 q0 -34 -27 -68l-274 -373l301 -422q2 -3 9.5 -14.5t9.5 -15.5t4.5 -12.5t2.5 -16.5q0 -47 -125 -47q-68 0 -94.5 10.5t-50.5 46.5l-264 396h-23v-383q0 -44 -23.5 -57t-95.5 -13q-70 0 -94 13t-24 57v383h-21l-264 -396q-24 -36 -50.5 -46.5t-94.5 -10.5q-125 0 -125 47z " />
<glyph unicode="&#x437;" horiz-adv-x="892" d="M49 121q0 58 10 77t33 19q6 0 99 -12t178 -12q122 0 158 22t36 96q0 70 -42 95.5t-167 25.5h-80q-38 0 -50.5 18.5t-12.5 67.5q0 47 12.5 65.5t50.5 18.5h76q106 0 146.5 24.5t40.5 92.5q0 64 -28 81t-124 17q-81 0 -166 -10t-90 -10q-22 0 -32.5 20.5t-10.5 75.5 q0 59 11 77t38 25q135 29 309 29q84 0 140 -9t103.5 -34t70 -74t22.5 -125t-13 -125.5t-42 -78t-65.5 -41.5t-94.5 -19q67 -7 107.5 -19.5t73 -39t46 -71.5t13.5 -116q0 -74 -17 -126t-46.5 -83t-79.5 -48.5t-103.5 -23t-132.5 -5.5q-193 0 -317 28q-35 8 -47.5 28t-12.5 79 z" />
<glyph unicode="&#x438;" horiz-adv-x="1060" d="M109 76v864q0 43 23.5 56.5t94.5 13.5q72 0 95.5 -13.5t23.5 -56.5v-575h14l328 587q21 38 47 48t90 10q76 0 100.5 -16.5t24.5 -59.5v-864q0 -43 -24 -56.5t-95 -13.5t-94.5 13.5t-23.5 56.5v589h-15l-317 -589q-24 -44 -53 -57t-92 -13q-76 0 -101.5 16.5t-25.5 59.5z " />
<glyph unicode="&#x439;" horiz-adv-x="1060" d="M109 76v864q0 43 23.5 56.5t94.5 13.5q72 0 95.5 -13.5t23.5 -56.5v-575h14l328 587q21 38 47 48t90 10q76 0 100.5 -16.5t24.5 -59.5v-864q0 -43 -24 -56.5t-95 -13.5t-94.5 13.5t-23.5 56.5v589h-15l-317 -589q-24 -44 -53 -57t-92 -13q-76 0 -101.5 16.5t-25.5 59.5z M270 1352q0 44 15.5 55.5t68.5 11.5q52 0 66.5 -9.5t17.5 -43.5q3 -43 17 -56.5t71 -13.5t71 13.5t17 56.5q3 34 18 43.5t66 9.5q53 0 68.5 -11.5t15.5 -55.5q0 -128 -56 -179t-200 -51t-200 51t-56 179z" />
<glyph unicode="&#x43a;" horiz-adv-x="935" d="M109 70v870q0 44 24 57t94 13q72 0 95.5 -13t23.5 -57v-338h23l249 348q26 37 53 48.5t101 11.5q65 0 90 -9.5t25 -31.5q0 -34 -27 -68l-280 -373l307 -422q24 -34 24 -59q0 -47 -123 -47q-67 0 -92.5 10.5t-50.5 46.5l-276 396h-23v-383q0 -44 -23.5 -57t-95.5 -13 q-70 0 -94 13t-24 57z" />
<glyph unicode="&#x43b;" horiz-adv-x="1050" d="M10 111q0 54 9 69t32 15q11 0 32 -3.5t38 -3.5q33 0 45.5 15t19.5 71l82 666q6 44 23 57t65 13h512q43 0 58.5 -12.5t15.5 -51.5v-876q0 -43 -24 -56.5t-95 -13.5t-94.5 13.5t-23.5 56.5v737h-232l-78 -643q-11 -94 -55 -136t-139 -42q-79 0 -133 12q-32 6 -45 29t-13 84 z" />
<glyph unicode="&#x43c;" horiz-adv-x="1306" d="M109 70v856q0 49 28.5 66.5t116.5 17.5q92 0 122.5 -14t53.5 -70l219 -541h8l220 541q23 56 53.5 70t122.5 14q88 0 115.5 -17.5t27.5 -66.5v-856q0 -43 -23.5 -56.5t-95.5 -13.5q-71 0 -95 13.5t-24 56.5q0 159 3 313t4 281h-13l-174 -455q-20 -51 -42.5 -65.5 t-82.5 -14.5t-82.5 14.5t-42.5 65.5l-174 455h-12q4 -586 4 -594q0 -43 -23.5 -56.5t-95.5 -13.5q-71 0 -94.5 13.5t-23.5 56.5z" />
<glyph unicode="&#x43d;" horiz-adv-x="1021" d="M109 70v870q0 43 23.5 56.5t94.5 13.5q72 0 95.5 -13.5t23.5 -56.5v-319h328v319q0 43 24 56.5t95 13.5t94.5 -13.5t23.5 -56.5v-870q0 -43 -23.5 -56.5t-94.5 -13.5t-95 13.5t-24 56.5v350h-328v-350q0 -43 -23.5 -56.5t-95.5 -13.5q-71 0 -94.5 13.5t-23.5 56.5z" />
<glyph unicode="&#x43e;" horiz-adv-x="1030" d="M88 498q0 164 23 267t79 162.5t135 81t205 21.5q81 0 138 -8t105.5 -29.5t78 -57t50.5 -93.5t29.5 -136.5t8.5 -187.5q0 -132 -15.5 -224t-46.5 -154t-86 -97t-124 -49t-170 -14q-122 0 -195.5 20t-124.5 78t-70.5 157.5t-19.5 262.5zM330 514q0 -91 4.5 -146.5t14 -96 t31 -59t50 -26.5t76.5 -8q64 0 99.5 12t57.5 50.5t28.5 96.5t6.5 163q0 91 -4.5 145.5t-14 94t-31 57.5t-50 25t-76.5 7q-52 0 -83.5 -8t-54.5 -26t-34 -56.5t-15.5 -89.5t-4.5 -135z" />
<glyph unicode="&#x43f;" horiz-adv-x="1021" d="M109 70v876q0 39 15.5 51.5t57.5 12.5h656q43 0 58 -12.5t15 -51.5v-876q0 -43 -23.5 -56.5t-94.5 -13.5t-95 13.5t-24 56.5v739h-328v-739q0 -43 -23.5 -56.5t-95.5 -13.5q-71 0 -94.5 13.5t-23.5 56.5z" />
<glyph unicode="&#x440;" horiz-adv-x="1077" d="M84 954q0 29 22 42.5t87 13.5q61 0 81 -11t31 -51l23 -90q82 172 321 172q83 0 138.5 -14.5t96 -47.5t62 -94t31.5 -144.5t10 -209.5q0 -137 -15 -232t-42 -155.5t-74.5 -94t-103.5 -46t-138 -12.5q-194 0 -252 108v-403q0 -43 -23.5 -55.5t-94.5 -12.5q-70 0 -94.5 12.5 t-24.5 55.5v905q0 102 -10.5 183t-20.5 124.5t-10 56.5zM358 449q0 -161 39.5 -216t157.5 -55q49 0 78.5 7t53.5 26t35.5 58.5t17 98t5.5 150.5q0 139 -14.5 202.5t-49 86t-110.5 22.5q-58 0 -94.5 -11t-65 -41t-41 -86t-12.5 -144v-98z" />
<glyph unicode="&#x441;" horiz-adv-x="880" d="M88 496q0 118 12 205.5t38.5 146t59 95t83 55.5t99.5 25.5t120 6.5q126 0 262 -37q30 -9 41.5 -29.5t11.5 -72.5q0 -96 -41 -96q-4 0 -95.5 16t-148.5 16q-43 0 -69 -3t-51.5 -14t-39.5 -31t-25 -55t-15 -84.5t-4 -121.5q0 -67 2.5 -111.5t7 -83t15.5 -61t25 -39.5 t38.5 -24.5t52.5 -11t70 -3.5q78 0 158.5 17.5t82.5 17.5q39 0 39 -96q0 -50 -12 -71t-43 -32q-109 -40 -254 -40q-74 0 -126 6.5t-103 26t-83.5 55t-58.5 92t-37.5 140t-11.5 196.5z" />
<glyph unicode="&#x442;" horiz-adv-x="837" d="M29 903q0 63 13.5 85t49.5 22h651q37 0 50.5 -21.5t13.5 -85.5q0 -63 -13 -83.5t-51 -20.5h-206v-729q0 -43 -23.5 -56.5t-95.5 -13.5q-71 0 -95 13.5t-24 56.5v729h-207q-36 0 -49.5 20.5t-13.5 83.5z" />
<glyph unicode="&#x443;" horiz-adv-x="964" d="M39 948q0 32 23 47t100 15q72 0 96 -12t33 -50l176 -749h22l185 749q9 38 33 50t94 12q77 0 102 -14t25 -46q0 -40 -33 -149l-256 -873q-23 -80 -42.5 -130t-46 -92t-60.5 -63.5t-80.5 -32.5t-112.5 -11q-117 0 -199 28q-30 10 -42.5 29.5t-12.5 69.5q0 53 10.5 74.5 t32.5 21.5q3 0 63 -9.5t121 -9.5q77 0 104.5 22t45.5 89l20 86q-87 0 -120.5 23t-51.5 86l-192 665q-37 125 -37 174z" />
<glyph unicode="&#x444;" horiz-adv-x="1622" d="M80 489q0 137 13.5 231.5t39 156t71.5 95t101 46t137 12.5q98 0 157 -30.5t89 -100.5v375q0 43 23.5 55t95.5 12t95.5 -12t23.5 -55v-383q36 74 104 106.5t176 32.5q69 0 118 -9t87 -33.5t60.5 -60t37 -95t20 -133t5.5 -179.5q0 -137 -13.5 -231.5t-39 -155.5 t-71.5 -94.5t-101.5 -46t-137.5 -12.5q-189 0 -245 124v-419q0 -43 -24 -55.5t-95 -12.5t-95 12.5t-24 55.5v428q-75 -133 -280 -133q-70 0 -118.5 9t-86.5 33t-60.5 60t-37 95.5t-20 132.5t-5.5 179zM322 492q0 -71 2 -117.5t9.5 -84t18 -57.5t30.5 -33.5t44.5 -17.5 t62.5 -4q119 0 161 57.5t42 213.5v110q0 163 -35 216.5t-151 53.5q-49 0 -78 -7t-52 -25t-33.5 -57.5t-15.5 -97t-5 -150.5zM922 444q0 -162 35 -214t151 -52q49 0 78 7t52 26t33.5 59t15.5 97.5t5 150.5q0 85 -4 136.5t-13.5 89t-30.5 54.5t-48.5 24t-73.5 7q-60 0 -96 -10 t-60.5 -40t-34 -82t-9.5 -138v-115z" />
<glyph unicode="&#x445;" horiz-adv-x="927" d="M39 49q0 18 24 57l259 414l-230 363q-31 54 -31 71q0 31 27.5 43.5t97.5 12.5q75 0 99 -10t45 -48l133 -239h8l129 239q20 39 43.5 48.5t97.5 9.5q70 0 97.5 -12.5t27.5 -43.5q0 -21 -28 -67l-236 -355l260 -421q27 -44 27 -62q0 -25 -25 -37t-90 -12q-76 0 -104.5 14 t-55.5 62l-147 274h-8l-148 -274q-18 -33 -33.5 -47.5t-43 -21.5t-80.5 -7q-65 0 -90 11.5t-25 37.5z" />
<glyph unicode="&#x446;" horiz-adv-x="1038" d="M109 63v877q0 43 23.5 56.5t94.5 13.5q72 0 95.5 -13.5t23.5 -56.5v-729h303v729q0 43 24 56.5t95 13.5t95 -13.5t24 -56.5v-729h31q51 0 68.5 -14t17.5 -60v-293q0 -38 -18 -49.5t-71 -11.5q-58 0 -77.5 11t-26.5 50l-33 156h-596q-43 0 -58 12t-15 51z" />
<glyph unicode="&#x447;" horiz-adv-x="935" d="M57 678v262q0 43 24 56.5t95 13.5t95 -13.5t24 -56.5v-229q0 -112 27.5 -144t117.5 -32q69 0 148 6v399q0 43 24 56.5t95 13.5t94.5 -13.5t23.5 -56.5v-870q0 -43 -23.5 -56.5t-94.5 -13.5t-95 13.5t-24 56.5v276q-107 -14 -199 -14q-95 0 -154 14t-101 52.5t-59.5 105.5 t-17.5 174z" />
<glyph unicode="&#x448;" horiz-adv-x="1505" d="M109 63v877q0 43 23.5 56.5t94.5 13.5q72 0 95.5 -13.5t23.5 -56.5v-729h287v729q0 43 24 56.5t95 13.5t94.5 -13.5t23.5 -56.5v-729h287v729q0 43 24 56.5t95 13.5t95 -13.5t24 -56.5v-877q0 -39 -15 -51t-59 -12h-1139q-43 0 -58 12t-15 51z" />
<glyph unicode="&#x449;" horiz-adv-x="1546" d="M109 63v877q0 43 23.5 56.5t94.5 13.5q72 0 95.5 -13.5t23.5 -56.5v-729h287v729q0 43 24 56.5t95 13.5t94.5 -13.5t23.5 -56.5v-729h287v729q0 43 24 56.5t95 13.5t95 -13.5t24 -56.5v-729h30q51 0 68.5 -14t17.5 -60v-293q0 -39 -17.5 -50t-70.5 -11q-58 0 -77.5 11 t-26.5 50l-33 156h-1104q-43 0 -58 12t-15 51z" />
<glyph unicode="&#x44a;" horiz-adv-x="1030" d="M20 903q0 63 14 85t50 22h207q72 0 95.5 -13t23.5 -57v-293h172q93 0 154.5 -7.5t110.5 -27t75.5 -55t39.5 -89t13 -132.5q0 -91 -17.5 -154t-48.5 -101.5t-87 -59.5t-117.5 -28t-155.5 -7q-168 0 -303 18q-47 6 -60.5 19.5t-13.5 52.5v723h-88q-37 0 -50.5 20.5 t-13.5 83.5zM410 190q70 -8 157 -8q104 0 136 27.5t32 118.5q0 77 -28.5 103t-118.5 26h-178v-267z" />
<glyph unicode="&#x44b;" horiz-adv-x="1419" d="M109 76v864q0 44 24 57t94 13q72 0 95.5 -13t23.5 -57v-293h172q93 0 154.5 -7.5t110.5 -27t75.5 -55t39.5 -89t13 -132.5q0 -91 -17.5 -154t-48.5 -101.5t-87 -59.5t-117.5 -28t-155.5 -7q-168 0 -303 18q-46 6 -59.5 19.5t-13.5 52.5zM346 190q70 -8 158 -8 q104 0 136 27.5t32 118.5q0 77 -29 103t-119 26h-178v-267zM1073 70v870q0 44 23.5 57t95.5 13q71 0 95 -13t24 -57v-870q0 -44 -24 -57t-95 -13q-72 0 -95.5 13t-23.5 57z" />
<glyph unicode="&#x44c;" horiz-adv-x="966" d="M109 76v864q0 44 24 57t94 13q72 0 95.5 -13t23.5 -57v-293h172q93 0 154.5 -7.5t110.5 -27t75.5 -55t39.5 -89t13 -132.5q0 -91 -17.5 -154t-48.5 -101.5t-87 -59.5t-117.5 -28t-155.5 -7q-168 0 -303 18q-46 6 -59.5 19.5t-13.5 52.5zM346 190q70 -8 158 -8 q104 0 136 27.5t32 118.5q0 77 -29 103t-119 26h-178v-267z" />
<glyph unicode="&#x44d;" horiz-adv-x="915" d="M55 123q0 96 39 96q7 0 93 -17.5t175 -17.5q79 0 122 7.5t73 34.5t40.5 72.5t12.5 127.5h-344q-39 0 -51 17.5t-12 70.5q0 52 12 69t51 17h344q-2 53 -6 88t-14.5 61.5t-24 41t-40 23t-55 11t-75.5 2.5q-80 0 -179 -14t-105 -14q-21 0 -30 20.5t-9 73.5t11.5 73.5 t41.5 28.5q48 14 136 24.5t159 10.5q72 0 120.5 -4.5t96 -17.5t77.5 -37.5t56 -63t39.5 -96t21 -135t7.5 -180.5q0 -113 -11.5 -196t-37.5 -140t-60 -92.5t-88.5 -55t-112 -26t-141.5 -6.5q-66 0 -146.5 11t-129.5 29q-31 11 -43.5 32t-12.5 71z" />
<glyph unicode="&#x44e;" horiz-adv-x="1468" d="M109 70v870q0 44 24 57t94 13q72 0 95.5 -13t23.5 -57v-317h184q9 123 37.5 202.5t84.5 125t130.5 62.5t188.5 17q81 0 137.5 -8t104.5 -29.5t77 -57t50 -93.5t29.5 -136.5t8.5 -187.5q0 -132 -15.5 -224t-46.5 -154t-86 -97t-124 -49t-170 -14q-115 0 -186 17.5 t-122.5 67t-74 136t-27.5 225.5h-180v-356q0 -44 -23.5 -57t-95.5 -13q-70 0 -94 13t-24 57zM768 514q0 -91 4.5 -146.5t14 -96t31 -59t50 -26.5t76.5 -8q64 0 100 12.5t58 50.5t28.5 96t6.5 163q0 91 -4.5 145.5t-14 94t-31 57.5t-50 25t-76.5 7q-64 0 -99.5 -11t-58 -48 t-29 -94.5t-6.5 -161.5z" />
<glyph unicode="&#x44f;" horiz-adv-x="1001" d="M63 43q0 23 31 76l164 284q-94 27 -132 95t-38 198q0 85 17.5 143.5t48.5 95t86.5 56t118 26.5t157.5 7q141 0 303 -18q47 -6 60.5 -19.5t13.5 -52.5v-864q0 -44 -24 -57t-95 -13q-72 0 -95.5 13t-23.5 57v311h-184l-152 -318q-15 -30 -28 -41.5t-38.5 -16.5t-82.5 -5 q-66 0 -86.5 10.5t-20.5 32.5zM330 676q0 -71 28 -93t119 -22h178v248q-70 8 -155 8q-105 0 -137.5 -27t-32.5 -114z" />
<glyph unicode="&#x451;" horiz-adv-x="972" d="M88 496q0 102 9.5 180.5t26.5 135t46 96t60.5 63.5t79 37t93 17.5t109.5 4.5q100 0 168 -19.5t110 -53.5t65 -96.5t30.5 -132t7.5 -175.5q0 -60 -18 -85.5t-72 -25.5h-477q2 -88 10.5 -136.5t35 -77t64.5 -36.5t109 -8q70 0 137 9t108.5 17.5t49.5 8.5q39 0 39 -96 q0 -50 -12.5 -71t-43.5 -32q-48 -18 -135.5 -29t-159.5 -11q-80 0 -135 6.5t-108.5 26t-87 55t-60 92.5t-38 140t-11.5 196zM193 1221v32q0 56 21.5 72t100.5 16t101 -16t22 -72v-32q0 -55 -22.5 -71.5t-100.5 -16.5t-100 16.5t-22 71.5zM326 590h344q0 60 -2 92.5t-10.5 66 t-26 48.5t-47.5 24.5t-76 9.5q-53 0 -82.5 -7.5t-53 -32.5t-33.5 -72.5t-13 -128.5zM537 1221v32q0 56 21 72t99 16q79 0 101 -16t22 -72v-32q0 -55 -22.5 -71.5t-100.5 -16.5t-99 16.5t-21 71.5z" />
<glyph unicode="&#x452;" horiz-adv-x="1036" d="M4 1141q0 43 11.5 57t47.5 14h46v62q0 43 23 55t95 12q71 0 95 -12t24 -55v-62h240q36 0 46.5 -13.5t10.5 -57.5q0 -45 -10.5 -58.5t-46.5 -13.5h-240v-231q80 135 299 135q161 0 221 -65.5t60 -217.5v-831q0 -140 -58.5 -200t-177.5 -60q-85 0 -164 22q-34 9 -46.5 28.5 t-12.5 71.5q0 59 9 76t32 17q9 0 46 -5.5t60 -5.5q46 0 60 19t14 86v727q0 75 -26.5 104t-102.5 29q-119 0 -166 -75t-47 -257v-366q0 -44 -24 -57t-95 -13t-94.5 13t-23.5 57v999h-46q-37 0 -48 14t-11 58z" />
<glyph unicode="&#x453;" horiz-adv-x="720" d="M109 70v876q0 39 15.5 51.5t57.5 12.5h455q36 0 49.5 -22t13.5 -85t-13.5 -83.5t-49.5 -20.5h-291v-729q0 -43 -23.5 -56.5t-95.5 -13.5q-71 0 -94.5 13.5t-23.5 56.5zM231 1147q0 19 23 72l68 151q24 54 44.5 66t96.5 12q73 0 98 -13.5t25 -41.5q0 -23 -29 -76l-90 -152 q-15 -25 -25 -35t-37 -18t-75 -8q-99 0 -99 43z" />
<glyph unicode="&#x454;" horiz-adv-x="925" d="M88 496q0 103 7.5 180.5t21 135t39.5 96t56 63t77.5 37.5t96 17.5t120.5 4.5t159.5 -10.5t135.5 -24.5q31 -8 43 -29t12 -73t-10 -73t-31 -21q-6 0 -104.5 14t-178.5 14q-71 0 -107.5 -6t-63 -31t-35.5 -67.5t-11 -122.5h344q39 0 51.5 -17t12.5 -69q0 -53 -12.5 -70.5 t-51.5 -17.5h-344q2 -55 7 -91.5t17 -65t28 -44t45.5 -25.5t63.5 -13t87 -3q90 0 176.5 17.5t91.5 17.5q39 0 39 -96q0 -51 -11.5 -71.5t-41.5 -31.5q-50 -18 -130.5 -29t-145.5 -11q-84 0 -142 6.5t-113 26t-89 55t-60 92.5t-37.5 140t-11.5 196z" />
<glyph unicode="&#x455;" horiz-adv-x="894" d="M80 119q0 96 39 96q2 0 96.5 -15.5t171.5 -15.5q103 0 145.5 27.5t42.5 89.5q0 35 -15.5 54.5t-49.5 31.5l-244 105q-153 64 -153 253q0 67 20 118t52 82t78 51t92 27t100 7q151 0 288 -35q31 -8 42.5 -28.5t11.5 -79.5q0 -40 -7.5 -61.5t-15.5 -26t-20 -4.5q-5 0 -95 17 t-159 17q-81 0 -113.5 -21.5t-32.5 -68.5q0 -35 13.5 -54t50.5 -34l237 -96q89 -36 124.5 -93t35.5 -153q0 -329 -403 -329q-166 0 -279 36q-30 9 -41.5 30t-11.5 73z" />
<glyph unicode="&#x456;" horiz-adv-x="454" d="M94 1221v32q0 57 21.5 72.5t107.5 15.5q85 0 107 -15.5t22 -72.5v-32q0 -55 -22.5 -71.5t-106.5 -16.5q-85 0 -107 16t-22 72zM104 70v870q0 44 23.5 57t95.5 13q71 0 95 -13t24 -57v-870q0 -44 -24 -57t-95 -13q-72 0 -95.5 13t-23.5 57z" />
<glyph unicode="&#x457;" horiz-adv-x="454" d="M-66 1221v32q0 56 22 72t101 16t101 -16t22 -72v-32q0 -55 -22.5 -71.5t-100.5 -16.5t-100.5 16.5t-22.5 71.5zM104 70v870q0 44 23.5 57t95.5 13q71 0 95 -13t24 -57v-870q0 -44 -24 -57t-95 -13q-72 0 -95.5 13t-23.5 57zM279 1221v32q0 56 21 72t99 16q79 0 101 -16 t22 -72v-32q0 -55 -22.5 -71.5t-100.5 -16.5t-99 16.5t-21 71.5z" />
<glyph unicode="&#x458;" horiz-adv-x="454" d="M-119 -279q0 58 10 75.5t33 17.5q7 0 44.5 -5.5t60.5 -5.5q46 0 60.5 19t14.5 86v1032q0 44 23.5 57t95.5 13q71 0 95 -13t24 -57v-1081q0 -140 -58.5 -200t-177.5 -60q-82 0 -165 22q-33 10 -46.5 29.5t-13.5 70.5zM94 1221v32q0 57 21.5 72.5t107.5 15.5 q85 0 107 -15.5t22 -72.5v-32q0 -55 -22.5 -71.5t-106.5 -16.5q-85 0 -107 16t-22 72z" />
<glyph unicode="&#x459;" horiz-adv-x="1558" d="M14 111q0 54 9.5 69t31.5 15q12 0 33 -3.5t37 -3.5q33 0 45.5 15t19.5 71l82 666q6 44 23 57t65 13h508q43 0 58.5 -12.5t15.5 -51.5v-299h166q93 0 154.5 -7.5t110.5 -27t75.5 -55t39.5 -89t13 -132.5q0 -91 -17.5 -154t-48.5 -101.5t-87 -59.5t-117.5 -28t-155.5 -7 q-161 0 -299 18q-45 6 -58 19.5t-13 52.5v731h-228l-78 -643q-11 -94 -54.5 -136t-139.5 -42q-77 0 -133 12q-32 6 -45 29t-13 84zM942 190q66 -8 152 -8q104 0 136 27.5t32 118.5q0 77 -29 103t-119 26h-172v-267z" />
<glyph unicode="&#x45a;" horiz-adv-x="1523" d="M109 70v870q0 43 23.5 56.5t94.5 13.5q72 0 95.5 -13.5t23.5 -56.5v-319h324v319q0 43 23.5 56.5t94.5 13.5t95 -13.5t24 -56.5v-293h168q93 0 154 -7.5t109.5 -27t75 -55t39.5 -89t13 -132.5q0 -91 -17.5 -154t-48.5 -101.5t-86.5 -59.5t-117 -28t-154.5 -7 q-163 0 -301 18q-45 6 -58 19.5t-13 52.5v344h-324v-350q0 -43 -23.5 -56.5t-95.5 -13.5q-71 0 -94.5 13.5t-23.5 56.5zM907 190q66 -8 152 -8q104 0 136 27.5t32 118.5q0 77 -29 103t-119 26h-172v-267z" />
<glyph unicode="&#x45b;" horiz-adv-x="1036" d="M4 1141q0 43 11.5 57t47.5 14h46v62q0 43 23 55t95 12q71 0 95 -12t24 -55v-62h240q36 0 46.5 -13.5t10.5 -57.5q0 -45 -10.5 -58.5t-46.5 -13.5h-240v-231q80 135 299 135q161 0 221 -65.5t60 -217.5v-620q0 -44 -23.5 -57t-95.5 -13t-95.5 13t-23.5 57v565 q0 75 -26.5 104t-102.5 29q-119 0 -166 -75t-47 -257v-366q0 -44 -24 -57t-95 -13t-94.5 13t-23.5 57v999h-46q-37 0 -48 14t-11 58z" />
<glyph unicode="&#x45c;" horiz-adv-x="935" d="M109 70v870q0 44 24 57t94 13q72 0 95.5 -13t23.5 -57v-338h23l249 348q26 37 53 48.5t101 11.5q65 0 90 -9.5t25 -31.5q0 -34 -27 -68l-280 -373l307 -422q24 -34 24 -59q0 -47 -123 -47q-67 0 -92.5 10.5t-50.5 46.5l-276 396h-23v-383q0 -44 -23.5 -57t-95.5 -13 q-70 0 -94 13t-24 57zM309 1147q0 19 23 72l67 151q18 39 28.5 52t34.5 19.5t79 6.5q73 0 98 -13.5t25 -41.5q0 -23 -29 -76l-90 -152q-15 -25 -25 -35t-37 -18t-75 -8q-99 0 -99 43z" />
<glyph unicode="&#x45e;" horiz-adv-x="964" d="M39 948q0 32 23 47t100 15q72 0 96 -12t33 -50l176 -749h22l185 749q9 38 33 50t94 12q77 0 102 -14t25 -46q0 -40 -33 -149l-256 -873q-23 -80 -42.5 -130t-46 -92t-60.5 -63.5t-80.5 -32.5t-112.5 -11q-117 0 -199 28q-30 10 -42.5 29.5t-12.5 69.5q0 53 10.5 74.5 t32.5 21.5q3 0 63 -9.5t121 -9.5q77 0 104.5 22t45.5 89l20 86q-87 0 -120.5 23t-51.5 86l-192 665q-37 125 -37 174zM225 1352q0 44 15.5 55.5t68.5 11.5q52 0 66.5 -9.5t17.5 -43.5q3 -43 17 -56.5t71 -13.5t71 13.5t17 56.5q3 34 18 43.5t66 9.5q53 0 68.5 -11.5 t15.5 -55.5q0 -128 -56 -179t-200 -51t-200 51t-56 179z" />
<glyph unicode="&#x45f;" horiz-adv-x="997" d="M109 63v877q0 43 23.5 56.5t94.5 13.5q72 0 95.5 -13.5t23.5 -56.5v-741h303v741q0 43 24 56.5t95 13.5t95 -13.5t24 -56.5v-877q0 -39 -15 -51t-59 -12h-225l-8 -154q-3 -42 -15.5 -52.5t-66.5 -10.5q-53 0 -65 10.5t-15 52.5l-10 154h-226q-43 0 -58 12t-15 51z" />
<glyph unicode="&#x490;" horiz-adv-x="829" d="M109 70v1138q0 39 15.5 51.5t57.5 12.5h393l33 155q12 39 30.5 50.5t72.5 11.5t72 -11.5t18 -50.5v-292q0 -46 -18.5 -60t-67.5 -14h-369v-991q0 -43 -23.5 -56.5t-95.5 -13.5q-71 0 -94.5 13.5t-23.5 56.5z" />
<glyph unicode="&#x491;" horiz-adv-x="729" d="M109 70v876q0 39 15.5 51.5t57.5 12.5h293l33 155q13 38 30.5 50t71.5 12t72 -11.5t18 -50.5v-295q0 -45 -18 -58t-68 -13h-268v-729q0 -43 -23.5 -56.5t-95.5 -13.5q-71 0 -94.5 13.5t-23.5 56.5z" />
<glyph unicode="&#x2000;" horiz-adv-x="862" />
<glyph unicode="&#x2001;" horiz-adv-x="1724" />
<glyph unicode="&#x2002;" horiz-adv-x="862" />
<glyph unicode="&#x2003;" horiz-adv-x="1724" />
<glyph unicode="&#x2004;" horiz-adv-x="574" />
<glyph unicode="&#x2005;" horiz-adv-x="431" />
<glyph unicode="&#x2006;" horiz-adv-x="287" />
<glyph unicode="&#x2007;" horiz-adv-x="287" />
<glyph unicode="&#x2008;" horiz-adv-x="215" />
<glyph unicode="&#x2009;" horiz-adv-x="344" />
<glyph unicode="&#x200a;" horiz-adv-x="95" />
<glyph unicode="&#x2010;" horiz-adv-x="667" d="M61 526q0 65 12 85t52 20h418q39 0 51 -20t12 -85t-11.5 -84.5t-51.5 -19.5h-418q-40 0 -52 19.5t-12 84.5z" />
<glyph unicode="&#x2011;" horiz-adv-x="667" d="M61 526q0 65 12 85t52 20h418q39 0 51 -20t12 -85t-11.5 -84.5t-51.5 -19.5h-418q-40 0 -52 19.5t-12 84.5z" />
<glyph unicode="&#x2012;" horiz-adv-x="667" d="M61 526q0 65 12 85t52 20h418q39 0 51 -20t12 -85t-11.5 -84.5t-51.5 -19.5h-418q-40 0 -52 19.5t-12 84.5z" />
<glyph unicode="&#x2013;" horiz-adv-x="864" d="M61 526q0 65 12 85t52 20h614q40 0 52 -20t12 -85t-12 -84.5t-52 -19.5h-614q-40 0 -52 19.5t-12 84.5z" />
<glyph unicode="&#x2014;" horiz-adv-x="1372" d="M61 526q0 65 12 85t52 20h1122q40 0 52 -20t12 -85t-12 -84.5t-52 -19.5h-1122q-40 0 -52 19.5t-12 84.5z" />
<glyph unicode="&#x2018;" horiz-adv-x="405" d="M66 915v56q0 73 36 186l31 100q22 54 45 69t84 15q43 0 57.5 -9t14.5 -32q0 -16 -13.5 -110t-13.5 -148v-127q0 -54 -22 -70t-99 -16q-76 0 -98 16t-22 70z" />
<glyph unicode="&#x2019;" horiz-adv-x="405" d="M72 870q0 16 13 110t13 148v127q0 54 22.5 70t98.5 16q77 0 99 -16t22 -70v-55q0 -90 -35 -186l-33 -101q-22 -54 -44.5 -69t-84.5 -15q-42 0 -56.5 9.5t-14.5 31.5z" />
<glyph unicode="&#x201a;" horiz-adv-x="360" d="M35 -223q0 15 13 108.5t13 149.5v127q0 54 22.5 71t98.5 17q77 0 99 -16.5t22 -71.5v-56q0 -88 -35 -188l-32 -98q-18 -56 -42 -71t-88 -15q-42 0 -56.5 10t-14.5 33z" />
<glyph unicode="&#x201c;" horiz-adv-x="757" d="M66 915v56q0 73 36 186l31 100q22 54 45 69t84 15q43 0 57.5 -9t14.5 -32q0 -16 -13.5 -110t-13.5 -148v-127q0 -54 -22 -70t-99 -16q-76 0 -98 16t-22 70zM418 915v56q0 76 35 186l30 100q22 54 45 69t84 15q44 0 58 -9t14 -32q0 -16 -12.5 -110t-12.5 -148v-127 q0 -54 -22 -70t-98 -16q-77 0 -99 16t-22 70z" />
<glyph unicode="&#x201d;" horiz-adv-x="757" d="M72 870q0 16 13 110t13 148v127q0 54 22.5 70t98.5 16q77 0 99 -16t22 -70v-55q0 -90 -35 -186l-33 -101q-22 -54 -44.5 -69t-84.5 -15q-42 0 -56.5 9.5t-14.5 31.5zM422 870q0 16 13.5 110t13.5 148v127q0 54 22 70t98 16q77 0 99 -16t22 -70v-55q0 -76 -35 -186 l-30 -101q-22 -54 -45 -69t-84 -15q-43 0 -58.5 9.5t-15.5 31.5z" />
<glyph unicode="&#x201e;" horiz-adv-x="710" d="M35 -223q0 15 13 108.5t13 149.5v127q0 54 22.5 71t98.5 17q77 0 99 -16.5t22 -71.5v-56q0 -88 -35 -188l-32 -98q-18 -56 -42 -71t-88 -15q-42 0 -56.5 10t-14.5 33zM385 -223q0 15 13.5 108.5t13.5 149.5v127q0 55 22 71.5t98 16.5q77 0 99 -16.5t22 -71.5v-56 q0 -88 -35 -188l-30 -98q-22 -56 -45 -71t-84 -15q-44 0 -59 10t-15 33z" />
<glyph unicode="&#x2026;" horiz-adv-x="1183" d="M72 88v74q0 56 22.5 72t100.5 16q77 0 99.5 -16.5t22.5 -71.5v-74q0 -55 -22.5 -71.5t-99.5 -16.5q-78 0 -100.5 16t-22.5 72zM469 88v74q0 55 23.5 71.5t101.5 16.5q77 0 100 -16.5t23 -71.5v-74q0 -55 -23 -71.5t-100 -16.5q-78 0 -101.5 16.5t-23.5 71.5zM868 88v74 q0 55 23 71.5t100 16.5q78 0 101.5 -16.5t23.5 -71.5v-74q0 -55 -23.5 -71.5t-101.5 -16.5q-77 0 -100 16.5t-23 71.5z" />
<glyph unicode="&#x202f;" horiz-adv-x="344" />
<glyph unicode="&#x2039;" horiz-adv-x="655" d="M59 514q0 58 10 91.5t25 48.5t51 38l363 230q29 18 47 18q21 0 31 -17t10 -65q0 -70 -9.5 -94.5t-45.5 -52.5l-250 -189v-16l250 -187q36 -28 45.5 -52.5t9.5 -96.5q0 -48 -10 -64t-31 -16q-17 0 -47 19l-363 229q-36 23 -51 38t-25 48t-10 90z" />
<glyph unicode="&#x203a;" horiz-adv-x="655" d="M59 170q0 72 10 96t48 53l248 187v16l-248 189q-38 29 -48 53t-10 94q0 82 41 82q21 0 50 -18l360 -230q36 -23 51 -38t25 -48.5t10 -91.5q0 -57 -10 -90t-25 -48t-51 -38l-360 -229q-30 -19 -50 -19t-30.5 16.5t-10.5 63.5z" />
<glyph unicode="&#x205f;" horiz-adv-x="431" />
<glyph unicode="&#x20ac;" d="M35 465q0 17 26 98q9 27 33 27h51v106h-84q-26 0 -26 21q0 23 26 98q9 27 33 27h53q4 85 17.5 151.5t32.5 112.5t48.5 78.5t59.5 51.5t72 29.5t79.5 13.5t88.5 3q155 0 291 -39q28 -8 38.5 -27.5t10.5 -82.5q0 -58 -8.5 -75.5t-28.5 -17.5q-2 0 -86.5 15.5t-161.5 15.5 q-70 0 -107.5 -6.5t-66.5 -31t-39.5 -69t-13.5 -122.5h327q25 0 25 -23q0 -21 -25 -98q-10 -25 -32 -25h-295v-106h282q25 0 25 -23q0 -21 -25 -98q-6 -16 -13 -20.5t-19 -4.5h-250q2 -58 7 -98t17.5 -68t27.5 -44t43 -25t56.5 -11.5t75.5 -2.5q81 0 162 16t86 16 q23 0 30 -16t7 -78q0 -60 -10.5 -80t-38.5 -28q-125 -39 -297 -39q-52 0 -89.5 3t-80 14t-72 30.5t-58.5 54t-47 82t-31 117t-16 157.5h-84q-26 0 -26 21z" />
<glyph unicode="&#x2122;" horiz-adv-x="1660" d="M49 1180q0 61 13 76.5t51 15.5h495q39 0 51.5 -15.5t12.5 -76.5q0 -60 -12.5 -75t-51.5 -15h-141v-480q0 -44 -19 -56.5t-88 -12.5q-67 0 -85.5 12.5t-18.5 56.5v480h-143q-38 0 -51 15.5t-13 74.5zM768 604v584q0 54 27 69t129 15q90 0 121.5 -16.5t54.5 -79.5l88 -258 l90 258q23 64 54 80t122 16q102 0 129 -15t27 -69v-584q0 -44 -19 -56.5t-86 -12.5t-85.5 12.5t-18.5 56.5q0 66 1 197.5t1 195.5h-14l-95 -254q-19 -50 -36.5 -63.5t-69.5 -13.5q-50 0 -68 13.5t-37 63.5l-94 254h-16q4 -258 4 -393q0 -44 -19 -56.5t-86 -12.5t-85.5 12.5 t-18.5 56.5z" />
<glyph unicode="&#x25fc;" horiz-adv-x="1013" d="M0 0v1014h1014v-1014h-1014z" />
</font>
</defs>
</svg>
