<?xml version="1.0" encoding="utf-8"?>
<!-- Generator: Adobe Illustrator 21.0.0, SVG Export Plug-In . SVG Version: 6.00 Build 0)  -->
<svg version="1.1" id="Слой_1" xmlns="http://www.w3.org/2000/svg" xmlns:xlink="http://www.w3.org/1999/xlink" x="0px" y="0px"
	 viewBox="0 0 72 72" style="enable-background:new 0 0 72 72;" xml:space="preserve">
<style type="text/css">
	.st0{fill:#FFFFFF;stroke:#080A11;stroke-miterlimit:10;stroke-width:2;}
</style>
<path class="st0" d="M22.2,57c-3.8,0-7,3.2-7,7s3.1,7,7,7c3.8,0,7-3.2,7-7S26,57,22.2,57z M1.3,1v7h7l12.5,26.6L15.9,43
	c-0.3,1.1-0.7,2.5-0.7,3.5c0,3.8,3.1,7,7,7h41.8v-7H23.6c-0.3,0-0.7-0.4-0.7-0.7v-0.4l3.1-6h25.8c2.8,0,4.9-1.4,5.9-3.5l12.5-22.8
	c0.7-0.7,0.7-1,0.7-1.8c0-2.1-1.4-3.5-3.5-3.5H15.9l-3.1-7H1.3z M57,57c-3.8,0-7,3.2-7,7s3.1,7,7,7c3.8,0,7-3.2,7-7S60.8,57,57,57z"
	/>
</svg>
