<?xml version="1.0" encoding="utf-8"?>
<!-- Generator: Adobe Illustrator 21.0.0, SVG Export Plug-In . SVG Version: 6.00 Build 0)  -->
<svg version="1.1" id="Слой_1" xmlns="http://www.w3.org/2000/svg" xmlns:xlink="http://www.w3.org/1999/xlink" x="0px" y="0px"
	 viewBox="0 0 72 81" style="enable-background:new 0 0 72 81;" xml:space="preserve">
<style type="text/css">
	.st0{fill:#FFFFFF;stroke:#171920;stroke-width:2;stroke-miterlimit:10;}
</style>
<path class="st0" d="M47.4,36.1c0,6.3-5.1,11.4-11.4,11.4c-6.3,0-11.4-5.1-11.4-11.4c0-6.3,5.1-11.4,11.4-11.4
	C42.3,24.6,47.4,29.8,47.4,36.1z M55,65.3l5.1,8.4c0.8,1.2,0.8,2.8,0.1,4.1c-0.7,1.3-2,2.1-3.5,2.1H15.4c-1.4,0-2.8-0.8-3.5-2
	c-0.7-1.3-0.7-2.8,0.1-4l5-8.4c-9.6-6.2-15.9-17-15.9-29.3C1.1,16.8,16.7,1.2,36,1.2c19.2,0,34.9,15.7,34.9,34.9
	C70.9,48.3,64.5,59.1,55,65.3z M55.4,36.1c0-10.7-8.7-19.5-19.5-19.5s-19.5,8.7-19.5,19.5c0,10.7,8.7,19.5,19.5,19.5
	S55.4,46.8,55.4,36.1z"/>
</svg>
