<?xml version="1.0" encoding="utf-8"?>
<!-- Generator: Adobe Illustrator 21.0.0, SVG Export Plug-In . SVG Version: 6.00 Build 0)  -->
<svg version="1.1" id="Слой_1" xmlns="http://www.w3.org/2000/svg" xmlns:xlink="http://www.w3.org/1999/xlink" x="0px" y="0px"
	 viewBox="0 0 68 54" style="enable-background:new 0 0 68 54;" xml:space="preserve">
<style type="text/css">
	.st0{fill:#FFFFFF;}
	.st1{fill:none;stroke:#080A11;stroke-width:2;stroke-miterlimit:10;}
</style>
<g>
	<g>
		<path class="st0" d="M7.1,17.1c0.8,0.6,3.4,2.3,7.6,5.3c4.2,2.9,7.4,5.2,9.7,6.7c0.2,0.2,0.8,0.5,1.6,1.1c0.8,0.6,1.5,1,2,1.4
			c0.5,0.4,1.2,0.8,1.9,1.2c0.8,0.4,1.5,0.8,2.1,1c0.7,0.2,1.3,0.3,1.8,0.3h0.1c0.6,0,1.2-0.1,1.8-0.3c0.7-0.2,1.4-0.6,2.1-1
			c0.8-0.4,1.4-0.8,1.9-1.2c0.5-0.4,1.2-0.8,2-1.4c0.8-0.6,1.3-1,1.6-1.1c2.3-1.6,8-5.6,17.3-12c1.8-1.3,3.3-2.8,4.5-4.5
			C66.4,10.8,67,8.9,67,7c0-1.6-0.6-3-1.8-4.2c-1.2-1.2-2.6-1.7-4.2-1.7H6.7C4.8,1.1,3.3,1.7,2.3,3c-1,1.3-1.5,2.9-1.5,4.8
			c0,1.6,0.7,3.2,2,5C4.2,14.7,5.6,16.1,7.1,17.1z M63.3,21.1c-8.1,5.5-14.2,9.7-18.4,12.8c-1.4,1-2.5,1.8-3.4,2.4
			c-0.9,0.6-2,1.2-3.5,1.8c-1.5,0.6-2.8,0.9-4.1,0.9h-0.1c-1.3,0-2.6-0.3-4.1-0.9c-1.5-0.6-2.6-1.2-3.5-1.8c-0.9-0.6-2-1.4-3.4-2.4
			c-3.3-2.4-9.5-6.7-18.4-12.8c-1.4-0.9-2.6-2-3.7-3.2v29.4c0,1.6,0.6,3,1.7,4.2c1.2,1.2,2.6,1.7,4.2,1.7h54.4c1.6,0,3-0.6,4.2-1.7
			c1.2-1.2,1.7-2.6,1.7-4.2V17.9C66,19,64.7,20.1,63.3,21.1z"/>
	</g>
	<g>
		<path class="st1" d="M7.1,17.1c0.8,0.6,3.4,2.3,7.6,5.3c4.2,2.9,7.4,5.2,9.7,6.7c0.2,0.2,0.8,0.5,1.6,1.1c0.8,0.6,1.5,1,2,1.4
			c0.5,0.4,1.2,0.8,1.9,1.2c0.8,0.4,1.5,0.8,2.1,1c0.7,0.2,1.3,0.3,1.8,0.3h0.1c0.6,0,1.2-0.1,1.8-0.3c0.7-0.2,1.4-0.6,2.1-1
			c0.8-0.4,1.4-0.8,1.9-1.2c0.5-0.4,1.2-0.8,2-1.4c0.8-0.6,1.3-1,1.6-1.1c2.3-1.6,8-5.6,17.3-12c1.8-1.3,3.3-2.8,4.5-4.5
			C66.4,10.8,67,8.9,67,7c0-1.6-0.6-3-1.8-4.2c-1.2-1.2-2.6-1.7-4.2-1.7H6.7C4.8,1.1,3.3,1.7,2.3,3c-1,1.3-1.5,2.9-1.5,4.8
			c0,1.6,0.7,3.2,2,5C4.2,14.7,5.6,16.1,7.1,17.1z M63.3,21.1c-8.1,5.5-14.2,9.7-18.4,12.8c-1.4,1-2.5,1.8-3.4,2.4
			c-0.9,0.6-2,1.2-3.5,1.8c-1.5,0.6-2.8,0.9-4.1,0.9h-0.1c-1.3,0-2.6-0.3-4.1-0.9c-1.5-0.6-2.6-1.2-3.5-1.8c-0.9-0.6-2-1.4-3.4-2.4
			c-3.3-2.4-9.5-6.7-18.4-12.8c-1.4-0.9-2.6-2-3.7-3.2v29.4c0,1.6,0.6,3,1.7,4.2c1.2,1.2,2.6,1.7,4.2,1.7h54.4c1.6,0,3-0.6,4.2-1.7
			c1.2-1.2,1.7-2.6,1.7-4.2V17.9C66,19,64.7,20.1,63.3,21.1z"/>
	</g>
</g>
</svg>
