<?xml version="1.0" encoding="utf-8"?>
<!-- Generator: Adobe Illustrator 23.0.1, SVG Export Plug-In . SVG Version: 6.00 Build 0)  -->
<svg version="1.1" id="Слой_1" xmlns="http://www.w3.org/2000/svg" xmlns:xlink="http://www.w3.org/1999/xlink" x="0px" y="0px"
	 viewBox="0 0 99 105" style="enable-background:new 0 0 99 105;" xml:space="preserve">
<g>
	<g>
		<path style="fill:#FFFFFF;stroke:#080A11;stroke-width:3;stroke-miterlimit:10;" d="M49.35,22.13c5.63,0,10.22-4.51,10.22-10.06
			C59.57,6.52,54.98,2,49.35,2c-5.63,0-10.22,4.52-10.22,10.06C39.13,17.61,43.72,22.13,49.35,22.13z M91.26,49.16h-9.17
			c-1.43-3.26-3.23-5.87-5.3-8.33V29.66c0-1.15-0.78-2.2-1.86-2.64c-1.08-0.44-2.4-0.2-3.23,0.62l-5.25,5.17
			c-5.1-2.7-10.93-4.24-17.12-4.24c-17.59,0-32.29,12.41-35.56,28.82c-2.91-1.75-4.86-4.9-4.86-8.5c0-2.03-1.67-3.67-3.73-3.67
			c-2.06,0-3.69,1.64-3.69,3.67c0,7.49,4.88,13.88,11.66,16.27c0.22,8.62,3.61,16.49,8.99,22.56v12.26c0,1.58,1.18,3.01,2.78,3.01
			h7.81c1.6,0,3.07-1.43,3.07-3.01v-2.66c4.14,1.71,8.81,2.65,13.66,2.65c4.85,0,9.53-0.94,13.67-2.65v2.66
			c0,1.58,1.2,3.01,2.8,3.01h7.81c1.6,0,3.05-1.43,3.05-3.01V87.72c2.9-3.42,5.26-7.56,6.79-11.64h7.67c3.29,0,6.24-2.79,6.24-6.03
			V54.89C97.5,51.65,94.55,49.16,91.26,49.16z M60.9,39.62c-0.54,1.6-2.3,2.47-3.92,1.94c-4.93-1.61-10.36-1.61-15.29,0
			c-0.32,0.11-0.65,0.16-0.98,0.16c-1.3,0-2.51-0.81-2.95-2.1c-0.54-1.6,0.34-3.33,1.97-3.87c3.09-1.01,6.32-1.52,9.6-1.52
			c3.27,0,6.5,0.51,9.6,1.52C60.56,36.29,61.44,38.02,60.9,39.62z M68.4,59.62c-2.97,0-5.39-2.38-5.39-5.31
			c0-2.93,2.42-5.31,5.39-5.31s5.39,2.38,5.39,5.31C73.79,57.24,71.37,59.62,68.4,59.62z"/>
	</g>
</g>
</svg>
