<?xml version="1.0" encoding="utf-8"?>
<!-- Generator: Adobe Illustrator 21.0.0, SVG Export Plug-In . SVG Version: 6.00 Build 0)  -->
<svg version="1.1" id="Слой_1" xmlns="http://www.w3.org/2000/svg" xmlns:xlink="http://www.w3.org/1999/xlink" x="0px" y="0px"
	 viewBox="0 0 82 69" style="enable-background:new 0 0 82 69;" xml:space="preserve">
<style type="text/css">
	.st0{fill:#FFFFFF;stroke:#171920;stroke-width:2;stroke-miterlimit:10;}
</style>
<path class="st0" d="M79.6,53.5L48.8,5.3C47.1,2.6,44.2,1,40.9,1c-3.2,0-6.2,1.6-7.9,4.3L2.3,53.5C0.5,56.4,0.3,60,2,63
	c1.6,3,4.8,4.9,8.2,4.9h61.4c3.4,0,6.6-1.9,8.2-4.9C81.5,60,81.4,56.4,79.6,53.5z M40.9,59.8c-2.8,0-5.1-2.3-5.1-5.1
	c0-2.8,2.3-5.1,5.1-5.1c2.8,0,5.1,2.3,5.1,5.1C46,57.5,43.8,59.8,40.9,59.8z M48,24.3l-2.5,17c-0.4,2.5-2.7,4.2-5.2,3.8
	c-2-0.3-3.5-1.9-3.8-3.8l-2.7-16.9c-0.6-3.9,2-7.7,6-8.3c3.9-0.6,7.7,2,8.3,6C48.1,22.8,48.1,23.6,48,24.3z"/>
</svg>
