<?xml version="1.0" encoding="utf-8"?>
<!-- Generator: Adobe Illustrator 21.0.0, SVG Export Plug-In . SVG Version: 6.00 Build 0)  -->
<svg version="1.1" id="Слой_1" xmlns="http://www.w3.org/2000/svg" xmlns:xlink="http://www.w3.org/1999/xlink" x="0px" y="0px"
	 viewBox="0 0 82 67" style="enable-background:new 0 0 82 67;" xml:space="preserve">
<style type="text/css">
	.st0{fill:#FFFFFF;}
	.st1{fill:none;stroke:#080A11;stroke-miterlimit:10;stroke-width:2;}
</style>
<g>
	<g>
		<path class="st0" d="M75.2,1h-55c-3.3,0-5.9,2.7-5.9,5.9v34.1c0,3.3,2.7,5.9,5.9,5.9h37.9l8.6,8.6c0.4,0.4,0.8,0.6,1.3,0.6
			c1,0,1.9-0.8,1.9-1.9V47h5.3c3.3,0,5.9-2.7,5.9-5.9V6.9C81.2,3.6,78.4,1,75.2,1z M28.6,30.4c-3,0-5.5-2.5-5.5-5.5
			c0-3,2.5-5.5,5.5-5.5c3,0,5.5,2.5,5.5,5.5C34.1,27.9,31.7,30.4,28.6,30.4z M47.9,30.4c-3,0-5.5-2.5-5.5-5.5c0-3,2.5-5.5,5.5-5.5
			c3,0,5.5,2.5,5.5,5.5C53.4,27.9,50.9,30.4,47.9,30.4z M67.1,30.4c-3,0-5.5-2.5-5.5-5.5c0-3,2.5-5.5,5.5-5.5c3,0,5.5,2.5,5.5,5.5
			C72.6,27.9,70.2,30.4,67.1,30.4z M10.9,41.2V29.6h-6c-2.1,0-3.9,1.8-3.9,3.9v22.4c-0.1,2.3,1.7,4,3.9,4h3.4v4.8
			c0,0.7,0.6,1.2,1.2,1.2c0.4,0,0.7-0.1,0.9-0.4l5.6-5.6H41c2.1,0,3.9-1.8,3.9-3.9v-5.6H20.2C15.1,50.5,10.9,46.4,10.9,41.2z"/>
	</g>
	<g>
		<path class="st1" d="M75.2,1h-55c-3.3,0-5.9,2.7-5.9,5.9v34.1c0,3.3,2.7,5.9,5.9,5.9h37.9l8.6,8.6c0.4,0.4,0.8,0.6,1.3,0.6
			c1,0,1.9-0.8,1.9-1.9V47h5.3c3.3,0,5.9-2.7,5.9-5.9V6.9C81.2,3.6,78.4,1,75.2,1z M28.6,30.4c-3,0-5.5-2.5-5.5-5.5
			c0-3,2.5-5.5,5.5-5.5c3,0,5.5,2.5,5.5,5.5C34.1,27.9,31.7,30.4,28.6,30.4z M47.9,30.4c-3,0-5.5-2.5-5.5-5.5c0-3,2.5-5.5,5.5-5.5
			c3,0,5.5,2.5,5.5,5.5C53.4,27.9,50.9,30.4,47.9,30.4z M67.1,30.4c-3,0-5.5-2.5-5.5-5.5c0-3,2.5-5.5,5.5-5.5c3,0,5.5,2.5,5.5,5.5
			C72.6,27.9,70.2,30.4,67.1,30.4z M10.9,41.2V29.6h-6c-2.1,0-3.9,1.8-3.9,3.9v22.4c-0.1,2.3,1.7,4,3.9,4h3.4v4.8
			c0,0.7,0.6,1.2,1.2,1.2c0.4,0,0.7-0.1,0.9-0.4l5.6-5.6H41c2.1,0,3.9-1.8,3.9-3.9v-5.6H20.2C15.1,50.5,10.9,46.4,10.9,41.2z"/>
	</g>
</g>
</svg>
