<?xml version="1.0" encoding="utf-8"?>
<!-- Generator: Adobe Illustrator 21.0.0, SVG Export Plug-In . SVG Version: 6.00 Build 0)  -->
<svg version="1.1" id="Слой_1" xmlns="http://www.w3.org/2000/svg" xmlns:xlink="http://www.w3.org/1999/xlink" x="0px" y="0px"
	 viewBox="0 0 61 83" style="enable-background:new 0 0 61 83;" xml:space="preserve">
<style type="text/css">
	.st0{fill:#FFFFFF;stroke:#080A11;stroke-width:2;stroke-miterlimit:10;}
</style>
<path class="st0" d="M58.2,25.1c-1.1-0.4-2.3,0-3,1L33.1,57.6V41.8c8.6-1.3,15.3-8.7,15.3-17.7V3.7c0-1-0.6-1.9-1.5-2.4
	c-0.9-0.4-2-0.3-2.8,0.3L36,8.3l-3.5-4.4c-0.5-0.6-1.2-1-2-1c-0.8,0-1.5,0.4-2,1L25,8.3l-8.1-6.6C16.1,1,15,0.9,14.1,1.3
	c-0.9,0.4-1.5,1.4-1.5,2.4v20.4c0,9,6.6,16.4,15.3,17.7v15.8L5.8,26.1c-0.7-1-1.9-1.4-3-1C1.7,25.5,1,26.6,1,27.7
	c0,0.4,0.5,9.6,4.2,20.1c2.2,6.3,5,11.8,8.5,16.3c4,5.2,8.7,9.2,14.2,11.8v3.5c0,1.4,1.2,2.6,2.6,2.6s2.6-1.2,2.6-2.6V76
	c5.4-2.6,10.2-6.6,14.2-11.8c3.4-4.5,6.3-10,8.5-16.3c3.7-10.6,4.2-19.8,4.2-20.1C60,26.6,59.3,25.5,58.2,25.1z"/>
</svg>
