<?xml version="1.0" encoding="utf-8"?>
<!-- Generator: Adobe Illustrator 21.0.0, SVG Export Plug-In . SVG Version: 6.00 Build 0)  -->
<svg version="1.1" id="Слой_1" xmlns="http://www.w3.org/2000/svg" xmlns:xlink="http://www.w3.org/1999/xlink" x="0px" y="0px"
	 viewBox="0 0 77 77" style="enable-background:new 0 0 77 77;" xml:space="preserve">
<style type="text/css">
	.st0{fill:#FFFFFF;}
	.st1{fill:none;stroke:#171920;stroke-width:2;stroke-miterlimit:10;}
</style>
<g>
	<g>
		<path class="st0" d="M75.6,49.9c0-14.1-11.5-25.6-25.6-25.6c-14.1,0-25.6,11.5-25.6,25.6C24.4,64,35.9,75.5,50,75.5
			c5.4,0,10.3-1.6,14.4-4.5l10.1,3.4l-3.4-10.1C74,60.2,75.6,55.2,75.6,49.9z M28.5,28.3c2.8-2.8,6.1-5,9.7-6.5
			c3.8-1.6,7.8-2.4,11.9-2.4c0.6,0,1.1,0,1.7,0C48.4,9,38.7,1.5,27.2,1.5C13.1,1.5,1.6,13,1.6,27.1c0,5.4,1.6,10.3,4.5,14.4
			L2.7,51.6l10.1-3.4c2.1,1.4,4.3,2.5,6.8,3.3c0-0.6,0-1.1,0-1.7c0-4.1,0.8-8.1,2.4-11.9C23.5,34.4,25.7,31.1,28.5,28.3z"/>
	</g>
	<g>
		<path class="st1" d="M75.6,49.9c0-14.1-11.5-25.6-25.6-25.6c-14.1,0-25.6,11.5-25.6,25.6C24.4,64,35.9,75.5,50,75.5
			c5.4,0,10.3-1.6,14.4-4.5l10.1,3.4l-3.4-10.1C74,60.2,75.6,55.2,75.6,49.9z M28.5,28.3c2.8-2.8,6.1-5,9.7-6.5
			c3.8-1.6,7.8-2.4,11.9-2.4c0.6,0,1.1,0,1.7,0C48.4,9,38.7,1.5,27.2,1.5C13.1,1.5,1.6,13,1.6,27.1c0,5.4,1.6,10.3,4.5,14.4
			L2.7,51.6l10.1-3.4c2.1,1.4,4.3,2.5,6.8,3.3c0-0.6,0-1.1,0-1.7c0-4.1,0.8-8.1,2.4-11.9C23.5,34.4,25.7,31.1,28.5,28.3z"/>
	</g>
</g>
</svg>
