<?xml version="1.0" encoding="utf-8"?>
<!-- Generator: Adobe Illustrator 21.0.0, SVG Export Plug-In . SVG Version: 6.00 Build 0)  -->
<svg version="1.1" id="Слой_1" xmlns="http://www.w3.org/2000/svg" xmlns:xlink="http://www.w3.org/1999/xlink" x="0px" y="0px"
	 viewBox="0 0 77 77" style="enable-background:new 0 0 77 77;" xml:space="preserve">
<style type="text/css">
	.st0{fill:#FFFFFF;stroke:#171920;stroke-width:2;stroke-miterlimit:10;}
</style>
<path class="st0" d="M24.5,75.7c12.9,0,23.3-10.4,23.3-23.3c0-1.5-0.1-2.9-0.4-4.3l28.4-28.4v-14c0-2.6-2.1-4.7-4.7-4.7h-4.7v4.7
	h-9.3v9.3h-9.3v9.3h-9.3l-6.1,6.1c-2.5-0.9-5.2-1.4-7.9-1.4c-12.9,0-23.3,10.4-23.3,23.3C1.1,65.3,11.6,75.7,24.5,75.7z M17.5,52.4
	c3.9,0,7,3.1,7,7c0,3.9-3.1,7-7,7s-7-3.1-7-7C10.5,55.5,13.6,52.4,17.5,52.4z"/>
</svg>
