<?xml version="1.0" encoding="utf-8"?>
<!-- Generator: Adobe Illustrator 23.0.1, SVG Export Plug-In . SVG Version: 6.00 Build 0)  -->
<svg version="1.1" id="Слой_1" xmlns="http://www.w3.org/2000/svg" xmlns:xlink="http://www.w3.org/1999/xlink" x="0px" y="0px"
	 viewBox="0 0 103 103" style="enable-background:new 0 0 103 103;" xml:space="preserve">
<g>
	<path style="fill:#FFFFFF;" d="M51.5,1.5c-27.61,0-50,22.39-50,50c0,27.61,22.39,50,50,50c27.61,0,50-22.39,50-50
		C101.5,23.89,79.11,1.5,51.5,1.5z M73.12,61.01h-21.2c-0.07,0-0.14-0.02-0.21-0.02c-0.07,0-0.14,0.02-0.21,0.02
		c-1.91,0-3.46-1.55-3.46-3.46v-35.3c0-1.91,1.55-3.46,3.46-3.46c1.91,0,3.46,1.55,3.46,3.46v31.84h18.16
		c1.91,0,3.46,1.55,3.46,3.46C76.57,59.46,75.02,61.01,73.12,61.01z"/>
	<path style="fill:#080A11;" d="M51.5,103C23.1,103,0,79.9,0,51.5C0,23.1,23.1,0,51.5,0C79.9,0,103,23.1,103,51.5
		C103,79.9,79.9,103,51.5,103z M51.5,3C24.76,3,3,24.76,3,51.5C3,78.24,24.76,100,51.5,100c26.74,0,48.5-21.76,48.5-48.5
		C100,24.76,78.24,3,51.5,3z M73.12,62.51h-21.2c-0.07,0-0.14,0-0.21-0.01c-0.06,0.01-0.13,0.01-0.21,0.01
		c-2.73,0-4.96-2.22-4.96-4.96v-35.3c0-2.73,2.22-4.96,4.96-4.96c2.73,0,4.96,2.22,4.96,4.96v30.34h16.66
		c2.73,0,4.96,2.22,4.96,4.96C78.07,60.28,75.85,62.51,73.12,62.51z M51.98,59.51h21.14c1.08,0,1.96-0.88,1.96-1.96
		c0-1.08-0.88-1.96-1.96-1.96H53.46V22.25c0-1.08-0.88-1.96-1.96-1.96c-1.08,0-1.96,0.88-1.96,1.96v35.3c0,1.08,0.88,1.96,1.96,1.96
		l0.2-0.02l0.05,0C51.83,59.49,51.9,59.5,51.98,59.51z"/>
</g>
</svg>
