<?xml version="1.0" encoding="utf-8"?>
<!-- Generator: Adobe Illustrator 21.0.0, SVG Export Plug-In . SVG Version: 6.00 Build 0)  -->
<svg version="1.1" id="Слой_1" xmlns="http://www.w3.org/2000/svg" xmlns:xlink="http://www.w3.org/1999/xlink" x="0px" y="0px"
	 viewBox="0 0 82 72" style="enable-background:new 0 0 82 72;" xml:space="preserve">
<style type="text/css">
	.st0{fill:#FFFFFF;}
	.st1{fill:none;stroke:#080A11;stroke-miterlimit:10;stroke-width:2;}
</style>
<g>
	<g>
		<path class="st0" d="M33.7,52.8c-2.4-1.6-5.7-0.9-7.3,1.6c1.6-2.5,0.9-5.7-1.6-7.3c-2.4-1.6-5.7-0.9-7.3,1.6
			c1.6-2.5,0.9-5.7-1.6-7.3c-2.4-1.6-5.7-0.9-7.3,1.6l-5.4,8.4c-1.6,2.5-0.9,5.7,1.6,7.3c2.4,1.6,5.7,0.9,7.3-1.6
			c-1.6,2.5-0.9,5.7,1.6,7.3c2.4,1.6,5.7,0.9,7.3-1.6c-1.6,2.5-0.9,5.7,1.6,7.3c2.4,1.6,5.7,0.9,7.3-1.6l5.4-8.4
			C36.8,57.6,36.1,54.3,33.7,52.8z M69.4,38.3l-0.1-0.1L42.5,20.7l-4.3,6.5c-1.9,2.9-5.1,4.7-8.6,4.7c-2,0-3.9-0.6-5.6-1.7
			c-4.8-3.1-6.1-9.5-3.1-14.3l2.6-4l-9-2.2L1.2,37.4l3.3,2.8l0.1-0.1c1.9-3,5.1-4.7,8.6-4.7c2,0,3.9,0.6,5.6,1.7
			c1.6,1,2.8,2.4,3.6,4.1c1.8,0.1,3.6,0.6,5.2,1.6c1.6,1,2.8,2.4,3.6,4.1c1.8,0.1,3.6,0.6,5.2,1.6c4.8,3.1,6.1,9.5,3.1,14.3
			l-2.9,4.4l4.4,2.9c2.4,1.6,5.7,0.9,7.3-1.6c1.6-2.5,0.9-5.7-1.6-7.3l1.8,1.2c2.4,1.6,5.7,0.9,7.3-1.6c1.6-2.5,0.9-5.7-1.6-7.3
			l1.8,1.2c2.4,1.6,5.7,0.9,7.3-1.6c1.6-2.5,0.9-5.7-1.6-7.3l1.8,1.2c2.4,1.6,5.7,0.9,7.3-1.6C72.3,43.1,71.7,39.9,69.4,38.3z
			 M26.7,26c2.4,1.6,5.7,0.9,7.3-1.6l7-10.7l1.5,1l27.8,18.2l10.9-8.1L74.2,1L35.7,2.2L25.2,18.7C23.6,21.1,24.3,24.4,26.7,26z"/>
	</g>
	<g>
		<path class="st1" d="M33.7,52.8c-2.4-1.6-5.7-0.9-7.3,1.6c1.6-2.5,0.9-5.7-1.6-7.3c-2.4-1.6-5.7-0.9-7.3,1.6
			c1.6-2.5,0.9-5.7-1.6-7.3c-2.4-1.6-5.7-0.9-7.3,1.6l-5.4,8.4c-1.6,2.5-0.9,5.7,1.6,7.3c2.4,1.6,5.7,0.9,7.3-1.6
			c-1.6,2.5-0.9,5.7,1.6,7.3c2.4,1.6,5.7,0.9,7.3-1.6c-1.6,2.5-0.9,5.7,1.6,7.3c2.4,1.6,5.7,0.9,7.3-1.6l5.4-8.4
			C36.8,57.6,36.1,54.3,33.7,52.8z M69.4,38.3l-0.1-0.1L42.5,20.7l-4.3,6.5c-1.9,2.9-5.1,4.7-8.6,4.7c-2,0-3.9-0.6-5.6-1.7
			c-4.8-3.1-6.1-9.5-3.1-14.3l2.6-4l-9-2.2L1.2,37.4l3.3,2.8l0.1-0.1c1.9-3,5.1-4.7,8.6-4.7c2,0,3.9,0.6,5.6,1.7
			c1.6,1,2.8,2.4,3.6,4.1c1.8,0.1,3.6,0.6,5.2,1.6c1.6,1,2.8,2.4,3.6,4.1c1.8,0.1,3.6,0.6,5.2,1.6c4.8,3.1,6.1,9.5,3.1,14.3
			l-2.9,4.4l4.4,2.9c2.4,1.6,5.7,0.9,7.3-1.6c1.6-2.5,0.9-5.7-1.6-7.3l1.8,1.2c2.4,1.6,5.7,0.9,7.3-1.6c1.6-2.5,0.9-5.7-1.6-7.3
			l1.8,1.2c2.4,1.6,5.7,0.9,7.3-1.6c1.6-2.5,0.9-5.7-1.6-7.3l1.8,1.2c2.4,1.6,5.7,0.9,7.3-1.6C72.3,43.1,71.7,39.9,69.4,38.3z
			 M26.7,26c2.4,1.6,5.7,0.9,7.3-1.6l7-10.7l1.5,1l27.8,18.2l10.9-8.1L74.2,1L35.7,2.2L25.2,18.7C23.6,21.1,24.3,24.4,26.7,26z"/>
	</g>
</g>
</svg>
