<?xml version="1.0" encoding="utf-8"?>
<!-- Generator: Adobe Illustrator 21.0.0, SVG Export Plug-In . SVG Version: 6.00 Build 0)  -->
<svg version="1.1" id="Слой_1" xmlns="http://www.w3.org/2000/svg" xmlns:xlink="http://www.w3.org/1999/xlink" x="0px" y="0px"
	 viewBox="0 0 55 66" style="enable-background:new 0 0 55 66;" xml:space="preserve">
<style type="text/css">
	.st0{fill:#FFFFFF;}
	.st1{fill:none;stroke:#080A11;stroke-width:2;stroke-miterlimit:10;}
</style>
<g>
	<g>
		<path class="st0" d="M51.3,16.7l-13-13c-1.4-1.4-3.2-2.3-5.5-2.7v21.2H54C53.6,20,52.6,18.1,51.3,16.7z M31.4,27.6
			c-1.1,0-2.1-0.4-2.8-1.2c-0.8-0.8-1.2-1.7-1.2-2.8V0.9H4.8c-1.1,0-2.1,0.4-2.8,1.2C1.2,2.9,0.8,3.8,0.8,4.9v55.9
			c0,1.1,0.4,2.1,1.2,2.8c0.8,0.8,1.7,1.2,2.8,1.2h45.3c1.1,0,2.1-0.4,2.8-1.2c0.8-0.8,1.2-1.7,1.2-2.8V27.6H31.4z"/>
	</g>
	<g>
		<path class="st1" d="M51.3,16.7l-13-13c-1.4-1.4-3.2-2.3-5.5-2.7v21.2H54C53.6,20,52.6,18.1,51.3,16.7z M31.4,27.6
			c-1.1,0-2.1-0.4-2.8-1.2c-0.8-0.8-1.2-1.7-1.2-2.8V0.9H4.8c-1.1,0-2.1,0.4-2.8,1.2C1.2,2.9,0.8,3.8,0.8,4.9v55.9
			c0,1.1,0.4,2.1,1.2,2.8c0.8,0.8,1.7,1.2,2.8,1.2h45.3c1.1,0,2.1-0.4,2.8-1.2c0.8-0.8,1.2-1.7,1.2-2.8V27.6H31.4z"/>
	</g>
</g>
</svg>
