<?xml version="1.0" encoding="utf-8"?>
<!-- Generator: Adobe Illustrator 21.0.0, SVG Export Plug-In . SVG Version: 6.00 Build 0)  -->
<svg version="1.1" id="Слой_1" xmlns="http://www.w3.org/2000/svg" xmlns:xlink="http://www.w3.org/1999/xlink" x="0px" y="0px"
	 viewBox="0 0 82 72" style="enable-background:new 0 0 82 72;" xml:space="preserve">
<style type="text/css">
	.st0{fill:#FFFFFF;stroke:#080A11;stroke-width:2;stroke-miterlimit:10;}
</style>
<path class="st0" d="M80.5,25c-0.3-0.3-0.7-0.5-1.2-0.5H56.4c3.2,0,6-1.1,8.2-3.4c2.3-2.3,3.4-5,3.4-8.2S66.9,7,64.6,4.8
	c-2.3-2.3-5-3.4-8.2-3.4c-3.7,0-6.6,1.3-8.7,4L41,13.9l-6.7-8.5c-2.1-2.6-5-4-8.7-4c-3.2,0-6,1.1-8.2,3.4C15.1,7,14,9.7,14,12.9
	s1.1,5.9,3.4,8.2c2.3,2.3,5,3.4,8.2,3.4H2.7c-0.5,0-0.9,0.2-1.2,0.5c-0.3,0.3-0.5,0.7-0.5,1.2v16.5c0,0.5,0.2,0.9,0.5,1.2
	c0.3,0.3,0.7,0.5,1.2,0.5h5v21.5c0,1.4,0.5,2.5,1.5,3.5c1,1,2.1,1.4,3.5,1.4h56.6c1.4,0,2.6-0.5,3.5-1.4c1-1,1.5-2.1,1.5-3.5V44.3h5
	c0.5,0,0.9-0.2,1.2-0.5c0.3-0.3,0.5-0.7,0.5-1.2V26.2C80.9,25.7,80.8,25.3,80.5,25z M52.8,9.6C53.7,8.5,54.9,8,56.4,8
	c1.4,0,2.6,0.5,3.5,1.4c1,1,1.5,2.1,1.5,3.5c0,1.4-0.5,2.5-1.5,3.5c-1,1-2.1,1.4-3.5,1.4H46.3L52.8,9.6z M25.6,17.9
	c-1.4,0-2.6-0.5-3.5-1.4c-1-1-1.5-2.1-1.5-3.5c0-1.4,0.5-2.5,1.5-3.5c1-1,2.1-1.4,3.5-1.4c1.5,0,2.7,0.5,3.6,1.6l6.6,8.3H25.6z
	 M49.3,34.4v24.2v2.9c0,0.9-0.3,1.5-0.9,2c-0.6,0.5-1.4,0.7-2.4,0.7H36c-1,0-1.8-0.2-2.4-0.7c-0.6-0.5-0.9-1.1-0.9-2v-2.9V34.4v-9.9
	h16.6V34.4z"/>
</svg>
