<?xml version="1.0" encoding="utf-8"?>
<!-- Generator: Adobe Illustrator 21.0.0, SVG Export Plug-In . SVG Version: 6.00 Build 0)  -->
<svg version="1.1" id="Слой_1" xmlns="http://www.w3.org/2000/svg" xmlns:xlink="http://www.w3.org/1999/xlink" x="0px" y="0px"
	 viewBox="0 0 63 84" style="enable-background:new 0 0 63 84;" xml:space="preserve">
<style type="text/css">
	.st0{fill:#FFFFFF;stroke:#171920;stroke-width:2;stroke-miterlimit:10;}
</style>
<path class="st0" d="M61.8,49.1c-0.9-12.2-6.6-19.9-11.6-26.6c-4.6-6.3-8.6-11.6-8.6-19.6c0-0.6-0.4-1.2-0.9-1.5
	c-0.6-0.3-1.2-0.2-1.8,0.1C31.5,6.8,25.2,15.9,23,24.6c-1.5,6-1.7,12.8-1.7,17.3c-6.9-1.5-8.5-11.9-8.5-12c-0.1-0.5-0.4-1-0.9-1.3
	c-0.5-0.3-1-0.3-1.5,0c-0.4,0.2-8.9,4.5-9.4,22c0,0.6,0,1.2,0,1.7C0.9,69.2,14.6,83,31.4,83c0,0,0,0,0.1,0c0,0,0,0,0,0
	C48.3,82.9,62,69.2,62,52.3C62,51.4,61.8,49.1,61.8,49.1z M31.4,79.6c-5.6,0-10.2-4.9-10.2-10.9c0-0.2,0-0.4,0-0.7
	c0.1-2.5,0.5-4.3,1.1-5.4c1,2.1,2.7,4.1,5.6,4.1c0.9,0,1.7-0.8,1.7-1.7c0-2.4,0-5.2,0.7-7.8c0.5-2.2,1.8-4.6,3.4-6.5
	c0.7,2.5,2.1,4.5,3.5,6.4c2,2.8,4,5.7,4.3,10.6c0,0.3,0,0.6,0,0.9C41.6,74.7,37.1,79.6,31.4,79.6z"/>
</svg>
