<?xml version="1.0" encoding="utf-8"?>
<!-- Generator: Adobe Illustrator 21.0.0, SVG Export Plug-In . SVG Version: 6.00 Build 0)  -->
<svg version="1.1" id="Слой_1" xmlns="http://www.w3.org/2000/svg" xmlns:xlink="http://www.w3.org/1999/xlink" x="0px" y="0px"
	 viewBox="0 0 82 69" style="enable-background:new 0 0 82 69;" xml:space="preserve">
<style type="text/css">
	.st0{fill:#FFFFFF;}
	.st1{fill:none;stroke:#171920;stroke-width:2;stroke-miterlimit:10;}
</style>
<g>
	<g>
		<path class="st0" d="M80.1,21.4L41.9,1.5c-0.5-0.2-1.1-0.2-1.5,0L2,21.4c-0.7,0.4-1,1.1-0.8,1.9C1.4,24,2,24.5,2.8,24.5h1.7V66
			c0,0.9,0.7,1.7,1.7,1.7h10c0.9,0,1.7-0.7,1.7-1.7V27.9h46.6V66c0,0.9,0.7,1.7,1.7,1.7h10c0.9,0,1.7-0.7,1.7-1.7V24.5h1.7
			c0.8,0,1.4-0.5,1.6-1.3C81.2,22.5,80.8,21.8,80.1,21.4z M59.4,44.5h-6.7c-0.9,0-1.7,0.7-1.7,1.7v6.6c0,0.9-0.7,1.7-1.7,1.7
			c-0.9,0-1.7-0.7-1.7-1.7v-6.6c0-0.9-0.7-1.7-1.7-1.7h-6.7c-0.9,0-1.7,0.7-1.7,1.7v1.7h-3.3c-0.9,0-1.7,0.7-1.7,1.7v5
			c0,0.9-0.7,1.7-1.7,1.7c-0.9,0-1.7-0.7-1.7-1.7v-5c0-0.9-0.7-1.7-1.7-1.7h-5c-0.9,0-1.7,0.7-1.7,1.7V66c0,0.9,0.7,1.7,1.7,1.7
			h36.6c0.9,0,1.7-0.7,1.7-1.7V46.1C61.1,45.2,60.3,44.5,59.4,44.5z"/>
	</g>
	<g>
		<path class="st1" d="M80.1,21.4L41.9,1.5c-0.5-0.2-1.1-0.2-1.5,0L2,21.4c-0.7,0.4-1,1.1-0.8,1.9C1.4,24,2,24.5,2.8,24.5h1.7V66
			c0,0.9,0.7,1.7,1.7,1.7h10c0.9,0,1.7-0.7,1.7-1.7V27.9h46.6V66c0,0.9,0.7,1.7,1.7,1.7h10c0.9,0,1.7-0.7,1.7-1.7V24.5h1.7
			c0.8,0,1.4-0.5,1.6-1.3C81.2,22.5,80.8,21.8,80.1,21.4z M59.4,44.5h-6.7c-0.9,0-1.7,0.7-1.7,1.7v6.6c0,0.9-0.7,1.7-1.7,1.7
			c-0.9,0-1.7-0.7-1.7-1.7v-6.6c0-0.9-0.7-1.7-1.7-1.7h-6.7c-0.9,0-1.7,0.7-1.7,1.7v1.7h-3.3c-0.9,0-1.7,0.7-1.7,1.7v5
			c0,0.9-0.7,1.7-1.7,1.7c-0.9,0-1.7-0.7-1.7-1.7v-5c0-0.9-0.7-1.7-1.7-1.7h-5c-0.9,0-1.7,0.7-1.7,1.7V66c0,0.9,0.7,1.7,1.7,1.7
			h36.6c0.9,0,1.7-0.7,1.7-1.7V46.1C61.1,45.2,60.3,44.5,59.4,44.5z"/>
	</g>
</g>
</svg>
