<?xml version="1.0" encoding="utf-8"?>
<!-- Generator: Adobe Illustrator 21.0.0, SVG Export Plug-In . SVG Version: 6.00 Build 0)  -->
<svg version="1.1" id="Слой_1" xmlns="http://www.w3.org/2000/svg" xmlns:xlink="http://www.w3.org/1999/xlink" x="0px" y="0px"
	 viewBox="0 0 53 74" style="enable-background:new 0 0 53 74;" xml:space="preserve">
<style type="text/css">
	.st0{fill:#FFFFFF;}
	.st1{fill:none;stroke:#080A11;stroke-width:2;stroke-miterlimit:10;}
</style>
<g>
	<g>
		<path class="st0" d="M1.5,62.2c0,7.6,5.4,10.4,10.4,10.4h29.6c7.7,0,10.4-5.4,10.4-10.4v-5.6H1.5V62.2z M26.6,59.2
			c2.9,0,5.3,2.4,5.4,5.3c0,2.2-1.4,4.3-3.5,5c-2.8,1-5.8-0.4-6.8-3.2c-0.2-0.6-0.3-1.2-0.3-1.8C21.3,61.6,23.7,59.2,26.6,59.2z
			 M26.7,66.9c1.3,0,2.3-1,2.3-2.3c0-1.3-1-2.3-2.3-2.3c-1.3,0-2.3,1-2.3,2.3C24.3,65.9,25.4,66.9,26.7,66.9z M1.5,53.6h50.3V15H1.5
			V53.6z M41.4,1.1H11.6C9.2,1.1,1.5,1.9,1.5,11.5V12h50.3v-0.5C51.8,3.8,46.4,1.1,41.4,1.1z M30.2,9.6h-7.1c-0.8,0-1.5-0.7-1.5-1.5
			s0.7-1.5,1.5-1.5h7.1c0.8,0,1.5,0.7,1.5,1.5S31.1,9.6,30.2,9.6z"/>
	</g>
	<g>
		<path class="st1" d="M1.5,62.2c0,7.6,5.4,10.4,10.4,10.4h29.6c7.7,0,10.4-5.4,10.4-10.4v-5.6H1.5V62.2z M26.6,59.2
			c2.9,0,5.3,2.4,5.4,5.3c0,2.2-1.4,4.3-3.5,5c-2.8,1-5.8-0.4-6.8-3.2c-0.2-0.6-0.3-1.2-0.3-1.8C21.3,61.6,23.7,59.2,26.6,59.2z
			 M26.7,66.9c1.3,0,2.3-1,2.3-2.3c0-1.3-1-2.3-2.3-2.3c-1.3,0-2.3,1-2.3,2.3C24.3,65.9,25.4,66.9,26.7,66.9z M1.5,53.6h50.3V15H1.5
			V53.6z M41.4,1.1H11.6C9.2,1.1,1.5,1.9,1.5,11.5V12h50.3v-0.5C51.8,3.8,46.4,1.1,41.4,1.1z M30.2,9.6h-7.1c-0.8,0-1.5-0.7-1.5-1.5
			s0.7-1.5,1.5-1.5h7.1c0.8,0,1.5,0.7,1.5,1.5S31.1,9.6,30.2,9.6z"/>
	</g>
</g>
</svg>
