<?xml version="1.0" encoding="utf-8"?>
<!-- Generator: Adobe Illustrator 21.0.0, SVG Export Plug-In . SVG Version: 6.00 Build 0)  -->
<svg version="1.1" id="Слой_1" xmlns="http://www.w3.org/2000/svg" xmlns:xlink="http://www.w3.org/1999/xlink" x="0px" y="0px"
	 viewBox="0 0 81 79" style="enable-background:new 0 0 81 79;" xml:space="preserve">
<style type="text/css">
	.st0{fill:#FFFFFF;}
	.st1{fill:none;stroke:#171920;stroke-width:2;stroke-miterlimit:10;}
</style>
<g>
	<g>
		<path class="st0" d="M72,32.5h7.9c-0.6-12.6-6.8-23.8-16.3-31L58,7.2C66,12.9,71.4,22.1,72,32.5z M23.2,7.2l-5.6-5.6
			C8.1,8.8,1.9,19.9,1.3,32.5h7.9C9.8,22.1,15.2,12.9,23.2,7.2z M64.2,34.5c0-12.1-6.4-22.2-17.7-24.9V6.9c0-3.3-2.6-5.9-5.9-5.9
			c-3.3,0-5.9,2.6-5.9,5.9v2.7C23.4,12.3,17,22.4,17,34.5v19.7l-7.9,7.9V66h63v-3.9l-7.9-7.9V34.5z M40.6,77.9
			c0.6,0,1.1-0.1,1.6-0.2c2.6-0.5,4.7-2.3,5.7-4.7c0.4-0.9,0.6-2,0.6-3.1H32.7C32.7,74.3,36.2,77.9,40.6,77.9z"/>
	</g>
	<g>
		<path class="st1" d="M72,32.5h7.9c-0.6-12.6-6.8-23.8-16.3-31L58,7.2C66,12.9,71.4,22.1,72,32.5z M23.2,7.2l-5.6-5.6
			C8.1,8.8,1.9,19.9,1.3,32.5h7.9C9.8,22.1,15.2,12.9,23.2,7.2z M64.2,34.5c0-12.1-6.4-22.2-17.7-24.9V6.9c0-3.3-2.6-5.9-5.9-5.9
			c-3.3,0-5.9,2.6-5.9,5.9v2.7C23.4,12.3,17,22.4,17,34.5v19.7l-7.9,7.9V66h63v-3.9l-7.9-7.9V34.5z M40.6,77.9
			c0.6,0,1.1-0.1,1.6-0.2c2.6-0.5,4.7-2.3,5.7-4.7c0.4-0.9,0.6-2,0.6-3.1H32.7C32.7,74.3,36.2,77.9,40.6,77.9z"/>
	</g>
</g>
</svg>
