<?xml version="1.0" standalone="no"?>
<!DOCTYPE svg PUBLIC "-//W3C//DTD SVG 20010904//EN"
 "http://www.w3.org/TR/2001/REC-SVG-20010904/DTD/svg10.dtd">
<svg version="1.0" xmlns="http://www.w3.org/2000/svg"
 width="607.000000pt" height="607.000000pt" viewBox="0 0 607.000000 607.000000"
 preserveAspectRatio="xMidYMid meet">
<metadata>
Created by potrace 1.15, written by Peter Selinger 2001-2017
</metadata>
<g transform="translate(0.000000,607.000000) scale(0.100000,-0.100000)"
fill="#275bc8" stroke="none">
<path d="M2678 6055 c-971 -118 -1811 -678 -2296 -1532 -192 -337 -319 -733
-367 -1142 -20 -167 -20 -527 0 -696 113 -964 670 -1807 1517 -2294 310 -178
674 -304 1053 -363 191 -30 683 -33 870 -5 529 79 995 272 1408 584 647 487
1062 1190 1184 2008 28 187 25 679 -5 870 -103 658 -396 1238 -857 1700 -486
485 -1117 790 -1800 870 -159 18 -553 18 -707 0z m1122 -1784 l0 -290 -222 -3
c-212 -3 -225 -4 -260 -26 -68 -42 -83 -80 -87 -219 l-3 -123 281 0 281 0 -5
-22 c-6 -30 -85 -526 -85 -539 0 -5 -97 -9 -235 -9 l-235 0 0 -760 0 -760
-290 0 -290 0 0 760 0 760 -190 0 -190 0 0 285 0 285 189 0 189 0 5 218 c5
240 15 296 72 417 58 123 178 223 323 270 110 36 192 43 475 44 l277 1 0 -289z"/>
</g>
</svg>
