<?xml version="1.0" standalone="no"?>
<!DOCTYPE svg PUBLIC "-//W3C//DTD SVG 20010904//EN"
 "http://www.w3.org/TR/2001/REC-SVG-20010904/DTD/svg10.dtd">
<svg version="1.0" xmlns="http://www.w3.org/2000/svg"
 width="607.000000pt" height="607.000000pt" viewBox="0 0 607.000000 607.000000"
 preserveAspectRatio="xMidYMid meet">
<metadata>
Created by potrace 1.15, written by Peter Selinger 2001-2017
</metadata>
<g transform="translate(0.000000,607.000000) scale(0.100000,-0.100000)"
fill="#ff1b66" stroke="none">
<path d="M2678 6055 c-971 -118 -1811 -678 -2296 -1532 -192 -337 -319 -733
-367 -1142 -20 -167 -20 -527 0 -696 104 -891 590 -1685 1335 -2180 377 -251
776 -405 1235 -477 191 -30 683 -33 870 -5 674 101 1259 393 1729 863 470 470
762 1055 863 1729 28 187 25 679 -5 870 -103 658 -396 1238 -857 1700 -486
485 -1117 790 -1800 870 -159 18 -553 18 -707 0z m1566 -1335 c120 -30 209
-82 301 -175 93 -92 145 -181 175 -301 19 -75 20 -115 20 -1209 0 -1094 -1
-1134 -20 -1209 -30 -119 -82 -209 -175 -301 -92 -93 -182 -145 -301 -175 -75
-19 -115 -20 -1209 -20 -1094 0 -1134 1 -1209 20 -180 46 -343 176 -424 337
-76 155 -73 87 -70 1383 3 1148 3 1155 24 1210 85 222 233 368 439 433 28 9
61 18 75 20 14 2 536 5 1161 6 1100 1 1138 0 1213 -19z"/>
<path d="M3792 4078 l3 -283 283 -3 282 -2 0 285 0 285 -285 0 -285 0 2 -282z"/>
<path d="M2944 3601 c-188 -30 -326 -132 -409 -305 -59 -123 -81 -231 -66
-331 29 -195 146 -358 316 -440 87 -42 149 -57 245 -58 157 -1 293 55 405 168
114 114 167 240 167 400 0 247 -171 481 -399 548 -65 20 -193 28 -259 18z"/>
<path d="M1694 3406 c-3 -7 -4 -334 -2 -727 l3 -714 29 -63 c41 -88 116 -155
204 -182 66 -20 87 -20 1127 -18 l1060 3 56 26 c72 34 134 96 168 168 l26 56
0 730 0 730 -220 3 c-121 1 -225 0 -231 -2 -9 -3 -7 -19 6 -58 50 -152 59
-388 21 -543 -46 -190 -167 -381 -318 -503 -288 -233 -674 -275 -1010 -110
-241 119 -419 344 -489 618 -30 119 -26 352 10 485 14 55 26 103 26 107 0 5
-104 8 -230 8 -184 0 -232 -3 -236 -14z"/>
</g>
</svg>
