<?xml version="1.0" standalone="no"?>
<!DOCTYPE svg PUBLIC "-//W3C//DTD SVG 20010904//EN"
 "http://www.w3.org/TR/2001/REC-SVG-20010904/DTD/svg10.dtd">
<svg version="1.0" xmlns="http://www.w3.org/2000/svg"
 width="607.000000pt" height="607.000000pt" viewBox="0 0 607.000000 607.000000"
 preserveAspectRatio="xMidYMid meet">
<metadata>
Created by potrace 1.15, written by Peter Selinger 2001-2017
</metadata>
<g transform="translate(0.000000,607.000000) scale(0.100000,-0.100000)"
fill="#f01d16" stroke="none">
<path d="M2678 6055 c-971 -118 -1811 -678 -2296 -1532 -192 -337 -319 -733
-367 -1142 -20 -167 -20 -527 0 -696 104 -891 590 -1685 1335 -2180 377 -251
776 -405 1235 -477 191 -30 683 -33 870 -5 674 101 1259 393 1729 863 470 470
762 1055 863 1729 28 187 25 679 -5 870 -103 658 -396 1238 -857 1700 -486
485 -1117 790 -1800 870 -159 18 -553 18 -707 0z m-490 -1352 c34 -126 67
-245 73 -265 5 -21 13 -38 18 -38 4 0 39 119 77 265 l69 265 113 0 c61 0 112
-4 112 -9 0 -5 -58 -181 -130 -392 l-130 -382 0 -274 0 -273 -110 0 -110 0 0
258 0 257 -135 405 c-74 223 -135 406 -135 407 0 2 51 3 113 3 l112 0 63 -227z
m926 -179 c64 -22 131 -88 146 -144 7 -27 10 -136 8 -318 l-3 -277 -27 -46
c-49 -84 -153 -133 -278 -132 -127 1 -237 59 -279 146 -20 41 -21 60 -21 330
0 313 3 333 57 383 64 59 152 85 268 80 44 -3 102 -12 129 -22z m536 -343 c0
-323 2 -372 16 -385 23 -23 46 -20 92 14 l42 30 0 355 0 355 90 0 90 0 0 -460
0 -460 -90 0 -90 0 0 46 0 46 -39 -34 c-116 -99 -219 -105 -268 -15 -16 29
-18 72 -21 455 l-3 422 91 0 90 0 0 -369z m620 -977 c220 -51 406 -235 456
-450 13 -57 15 -125 12 -413 -4 -343 -4 -347 -29 -412 -39 -100 -76 -157 -148
-229 -78 -77 -177 -132 -287 -160 -75 -19 -115 -20 -1239 -20 -1124 0 -1164 1
-1239 20 -222 57 -401 232 -451 441 -21 91 -21 685 0 777 50 212 234 393 451
446 92 22 2380 23 2474 0z"/>
<path d="M2915 4350 c-53 -17 -55 -24 -55 -272 l0 -229 25 -24 c37 -38 140
-32 167 9 4 6 8 118 8 248 0 235 0 238 -22 252 -31 20 -87 27 -123 16z"/>
<path d="M1710 2775 l0 -65 95 0 95 0 0 -395 0 -395 90 0 90 0 0 395 0 395 95
0 95 0 0 65 0 65 -280 0 -280 0 0 -65z"/>
<path d="M3032 2373 l3 -468 98 -3 97 -3 0 26 c0 30 -1 30 52 3 32 -17 64 -24
125 -26 70 -4 87 -1 122 19 69 39 72 54 69 337 -3 237 -4 248 -25 278 -52 72
-182 91 -280 41 -29 -15 -55 -27 -58 -27 -3 0 -5 65 -5 145 l0 145 -100 0
-100 0 2 -467z m351 95 c15 -18 17 -44 17 -222 0 -236 -1 -239 -75 -238 -26 1
-58 8 -71 17 l-24 15 0 214 c0 211 0 213 23 224 53 26 102 23 130 -10z"/>
<path d="M2280 2315 c0 -372 1 -380 62 -406 65 -28 163 -11 251 42 26 16 49
29 52 29 3 0 5 -16 5 -35 l0 -35 100 0 100 0 0 370 0 370 -100 0 -100 0 0
-278 c0 -253 -2 -280 -17 -294 -28 -24 -80 -48 -105 -48 -54 1 -53 -4 -56 320
l-3 300 -94 0 -95 0 0 -335z"/>
<path d="M3953 2632 c-67 -24 -116 -62 -139 -109 -15 -31 -19 -67 -22 -208 -5
-201 6 -275 47 -325 47 -58 109 -84 216 -88 195 -9 304 67 305 211 l0 48 -97
-3 -98 -3 -5 -50 c-7 -64 -12 -72 -58 -80 -85 -14 -112 24 -112 156 l0 79 186
0 186 0 -4 128 c-3 120 -5 131 -30 169 -41 63 -101 87 -223 90 -77 3 -112 -1
-152 -15z m180 -113 c32 -17 37 -28 37 -91 l0 -58 -85 0 -85 0 0 44 c0 25 4
56 10 71 15 40 78 57 123 34z"/>
</g>
</svg>
