<?xml version="1.0" encoding="utf-8"?>
<!-- Generator: Adobe Illustrator 17.1.0, SVG Export Plug-In . SVG Version: 6.00 Build 0)  -->
<!DOCTYPE svg PUBLIC "-//W3C//DTD SVG 1.1//EN" "http://www.w3.org/Graphics/SVG/1.1/DTD/svg11.dtd">
<svg version="1.1" id="Layer_1" xmlns="http://www.w3.org/2000/svg" xmlns:xlink="http://www.w3.org/1999/xlink" x="0px" y="0px"
	 viewBox="0 0 40 36" enable-background="new 0 0 40 36" xml:space="preserve">
<g>
	<g>
		<path fill="#FDD900" d="M35,12.3c-0.4,0-0.7,0.3-0.7,0.7v21.3H1.7V1.7h32.6v0.7C34.3,2.7,34.6,3,35,3c0.4,0,0.7-0.3,0.7-0.7v-2
			H0.4v35.4h35.3V13C35.6,12.6,35.4,12.3,35,12.3z M39.5,3.2c-0.3-0.3-0.7-0.3-0.9,0L18.3,23.4l-8.7-8.7c-0.3-0.3-0.7-0.3-0.9,0
			c-0.3,0.3-0.3,0.7,0,0.9l9.2,9.2c0.1,0.1,0.3,0.2,0.5,0.2c0.2,0,0.3-0.1,0.5-0.2L39.5,4.1C39.7,3.9,39.7,3.4,39.5,3.2z"/>
	</g>
</g>
</svg>
