<?xml version="1.0" encoding="utf-8"?>
<!-- Generator: Adobe Illustrator 21.0.0, SVG Export Plug-In . SVG Version: 6.00 Build 0)  -->
<svg version="1.1" id="Слой_1" xmlns="http://www.w3.org/2000/svg" xmlns:xlink="http://www.w3.org/1999/xlink" x="0px" y="0px"
	 viewBox="0 0 48 48" style="enable-background:new 0 0 48 48;" xml:space="preserve">
<style type="text/css">
	.st0{fill:#E91B5F;}
</style>
<g>
	<g>
		<path class="st0" d="M33,24h-5.8c-0.3-1.1-1.2-2-2.3-2.3v-8.2c0-0.4-0.4-0.8-0.8-0.8c-0.5,0-0.8,0.4-0.8,0.8v8.2
			c-1.4,0.4-2.5,1.6-2.5,3.1c0,1.8,1.5,3.2,3.3,3.2c1.5,0,2.8-1,3.2-2.4H33c0.5,0,0.8-0.4,0.8-0.8C33.8,24.3,33.4,24,33,24z
			 M24,26.4c-0.9,0-1.6-0.7-1.6-1.6c0-0.9,0.7-1.6,1.6-1.6s1.6,0.7,1.6,1.6C25.6,25.7,24.9,26.4,24,26.4z M41.2,8.2l3.3,3.3
			c0.2,0.2,0.4,0.2,0.6,0.2s0.4-0.1,0.6-0.2c2.6-2.6,2.6-6.8,0-9.3c-2.6-2.6-6.8-2.6-9.4,0c-0.2,0.2-0.2,0.4-0.2,0.6
			c0,0.2,0.1,0.4,0.2,0.6l3.7,3.7l-1.4,1.4C34.8,5,29.6,2.9,24,2.9C18.4,2.9,13.2,5,9.3,8.5L7.9,7.1l3.7-3.7
			c0.2-0.2,0.2-0.4,0.2-0.6c0-0.2-0.1-0.4-0.2-0.6C9-0.3,4.8-0.3,2.2,2.2c-2.6,2.6-2.6,6.8,0,9.3c0.2,0.2,0.4,0.2,0.6,0.2
			c0.2,0,0.4-0.1,0.6-0.2l3.3-3.3l1.4,1.4c-3.8,3.9-6.2,9.3-6.2,15.2c0,8,4.4,15.1,10.9,18.9l-2.5,2.5c-0.3,0.3-0.3,0.8,0,1.1
			c0.2,0.2,0.4,0.2,0.6,0.2c0.2,0,0.4-0.1,0.6-0.2l2.8-2.8c2.9,1.4,6.2,2.2,9.7,2.2c3.5,0,6.8-0.8,9.7-2.2l2.8,2.8
			c0.2,0.2,0.4,0.2,0.6,0.2c0.2,0,0.4-0.1,0.6-0.2c0.3-0.3,0.3-0.8,0-1.1l-2.5-2.5c6.5-3.8,10.9-10.9,10.9-18.9
			c0-5.9-2.4-11.3-6.2-15.2L41.2,8.2z M38.1,2.8c2-1.4,4.7-1.2,6.4,0.5c1.8,1.7,1.9,4.5,0.5,6.4L38.1,2.8z M2.9,9.8
			C1.5,7.8,1.6,5.1,3.4,3.4c1.8-1.7,4.5-1.9,6.4-0.5L2.9,9.8z M44.4,24.8c0,11.2-9.2,20.3-20.4,20.3C12.7,45.1,3.6,36,3.6,24.8
			C3.6,13.6,12.7,4.5,24,4.5S44.4,13.6,44.4,24.8z M24,8.4c0.5,0,0.8-0.4,0.8-0.8V6.8C24.8,6.4,24.4,6,24,6c-0.5,0-0.8,0.4-0.8,0.8
			v0.8C23.2,8.1,23.5,8.4,24,8.4z M24,40.9c-0.5,0-0.8,0.4-0.8,0.8v0.8c0,0.4,0.4,0.8,0.8,0.8c0.5,0,0.8-0.4,0.8-0.8v-0.8
			C24.8,41.3,24.4,40.9,24,40.9z M41.2,25.5H42c0.5,0,0.8-0.4,0.8-0.8s-0.4-0.8-0.8-0.8h-0.8c-0.5,0-0.8,0.4-0.8,0.8
			S40.7,25.5,41.2,25.5z M6.8,23.9H6c-0.5,0-0.8,0.4-0.8,0.8s0.4,0.8,0.8,0.8h0.8c0.5,0,0.8-0.4,0.8-0.8S7.3,23.9,6.8,23.9z
			 M36.1,11.5l-0.6,0.6c-0.3,0.3-0.3,0.8,0,1.1c0.2,0.2,0.4,0.2,0.6,0.2c0.2,0,0.4-0.1,0.6-0.2l0.6-0.6c0.3-0.3,0.3-0.8,0-1.1
			C37,11.2,36.4,11.2,36.1,11.5z M11.3,36.2l-0.6,0.6c-0.3,0.3-0.3,0.8,0,1.1c0.2,0.2,0.4,0.2,0.6,0.2c0.2,0,0.4-0.1,0.6-0.2
			l0.6-0.6c0.3-0.3,0.3-0.8,0-1.1C12.1,35.9,11.6,35.9,11.3,36.2z M36.7,36.2c-0.3-0.3-0.8-0.3-1.2,0c-0.3,0.3-0.3,0.8,0,1.1
			l0.6,0.6c0.2,0.2,0.4,0.2,0.6,0.2c0.2,0,0.4-0.1,0.6-0.2c0.3-0.3,0.3-0.8,0-1.1L36.7,36.2z M11.9,11.5c-0.3-0.3-0.8-0.3-1.2,0
			c-0.3,0.3-0.3,0.8,0,1.1l0.6,0.6c0.2,0.2,0.4,0.2,0.6,0.2c0.2,0,0.4-0.1,0.6-0.2c0.3-0.3,0.3-0.8,0-1.1L11.9,11.5z"/>
	</g>
</g>
</svg>
