<?xml version="1.0" encoding="utf-8"?>
<!-- Generator: Adobe Illustrator 17.1.0, SVG Export Plug-In . SVG Version: 6.00 Build 0)  -->
<!DOCTYPE svg PUBLIC "-//W3C//DTD SVG 1.1//EN" "http://www.w3.org/Graphics/SVG/1.1/DTD/svg11.dtd">
<svg version="1.1" id="Layer_1" xmlns="http://www.w3.org/2000/svg" xmlns:xlink="http://www.w3.org/1999/xlink" x="0px" y="0px"
	 viewBox="0 0 482.1 475.4" enable-background="new 0 0 482.1 475.4" xml:space="preserve">
<g>
	<defs>
		<rect id="SVGID_1_" width="482.1" height="475.4"/>
	</defs>
	<clipPath id="SVGID_2_">
		<use xlink:href="#SVGID_1_"  overflow="visible"/>
	</clipPath>
	<path clip-path="url(#SVGID_2_)" fill="#434D60" d="M474.1,23.7H50.6L29.3,2.3c-3.1-3.1-8.2-3.1-11.3,0c-3.1,3.1-3.1,8.2,0,11.3
		l166.2,166.2L59.8,304.3l-46.2-46.2c-3.2-3.1-8.2-3-11.3,0.2c-3,3.1-3,8,0,11.1l31.9,31.9v130.3c0,4.4,3.6,8,8,8h141.7l28.7,28.7
		c4.4,4.4,10.3,6.9,16.6,7h0.6c6.3,0,12.4-2.5,16.8-7c2.1-2.1,3.9-4.7,5-7.4c3.6,2,7.7,3.1,11.8,3.1c9.6,0.1,18.3-5.6,22.1-14.4
		c3.6,2.1,7.7,3.1,11.8,3.1c6.4,0,12.5-2.5,17.1-7c1.9-1.9,3.5-4.2,4.7-6.7c8.7,7.3,21.3,7.5,30.3,0.6h124.7c4.4,0,8-3.6,8-8v-400
		C482.1,27.2,478.5,23.7,474.1,23.7 M290.1,119.7h-64v-80h64V119.7z M50.1,423.7V317.3l4,4c3.1,3.1,8.2,3.1,11.3,0L76.7,310l2.1,2.1
		c5,5,8.6,11.3,10.4,18.2l1.4,5.4c2.5,9.6,7.6,18.4,14.6,25.4l62.5,62.5H50.1z M334.5,428.7c-2.1,0-4-0.9-5.5-2.3l-14.6-14.6
		c-3.1-3.1-8.2-3.1-11.3,0c-3.1,3.1-3.1,8.2,0,11.3s3.1,8.2,0,11.3c-1.5,1.5-3.6,2.4-5.8,2.3c-2.1,0-4.1-0.8-5.5-2.3l-11.3-11.3
		c-3.2-3-8.3-2.9-11.3,0.4c-2.9,3.1-2.9,7.9,0,10.9c3.1,3.1,3.1,8.2,0,11.3c-1.6,1.5-3.6,2.3-5.8,2.3c-2.1,0.1-4.2-0.7-5.6-2.3
		l-11.3-11.3c-3.1-3.1-8.2-3.1-11.3,0c-3.1,3.1-3.1,8.2,0,11.3c3.1,3.1,3.1,8.2,0,11.3c-1.5,1.6-3.6,2.4-5.8,2.3
		c-2.1,0-4.1-0.8-5.6-2.3L116.6,349.8c-5-5-8.6-11.3-10.4-18.2l-1.4-5.4c-2.5-9.6-7.6-18.4-14.6-25.4l-2.1-2.1l84.8-84.9l8.1,8.1
		c3.2,3.2,7.2,5.4,11.6,6.4l40,9.2c27.5,6.4,52,22.2,69,44.8l40.9,54.3l-0.7,0.7c-3,3-7.1,4.7-11.3,4.7c-4.2,0-8.3-1.7-11.3-4.7
		l-20-20c-3.7-3.7-8.7-5.8-13.9-5.8c-11.1,0.1-20.1,9.1-20,20.3c0,5.3,2.1,10.3,5.9,14.1l68.7,68.7c3.2,3,3.7,7.9,1.1,11.4
		C339.2,427.7,336.9,428.7,334.5,428.7 M466.1,423.7H358.3c0.8-7.6-1.9-15.1-7.3-20.5l-68.7-68.7c-0.8-0.8-1.2-1.8-1.2-2.9
		c0-1.2,0.5-2.3,1.4-3.1c1.4-1.4,3.8-1.4,5.2,0l20,20c6,6,14.1,9.4,22.6,9.4c8.5,0,16.6-3.4,22.6-9.4l5.7-5.7
		c2.8-2.8,3.1-7.3,0.7-10.5l-45.1-59.8c-19.3-25.6-47-43.5-78.2-50.7l-40-9.2c-1.5-0.3-2.8-1.1-3.9-2.2l-8.1-8.1l17-17
		c3.1-3.1,3.1-8.2,0-11.3L66.6,39.7h143.5v88c0,4.4,3.6,8,8,8h80c4.4,0,8-3.6,8-8v-88h160V423.7z"/>
	<path clip-path="url(#SVGID_2_)" fill="#434D60" d="M370.1,359.7h40c4.4,0,8-3.6,8-8c0-4.4-3.6-8-8-8h-40c-4.4,0-8,3.6-8,8
		C362.1,356.1,365.7,359.7,370.1,359.7"/>
	<path clip-path="url(#SVGID_2_)" fill="#434D60" d="M434.1,359.7h8c4.4,0,8-3.6,8-8c0-4.4-3.6-8-8-8h-8c-4.4,0-8,3.6-8,8
		C426.1,356.1,429.7,359.7,434.1,359.7"/>
	<path clip-path="url(#SVGID_2_)" fill="#434D60" d="M370.1,327.7h40c4.4,0,8-3.6,8-8c0-4.4-3.6-8-8-8h-40c-4.4,0-8,3.6-8,8
		C362.1,324.1,365.7,327.7,370.1,327.7"/>
	<path clip-path="url(#SVGID_2_)" fill="#434D60" d="M434.1,327.7h8c4.4,0,8-3.6,8-8c0-4.4-3.6-8-8-8h-8c-4.4,0-8,3.6-8,8
		C426.1,324.1,429.7,327.7,434.1,327.7"/>
	<path clip-path="url(#SVGID_2_)" fill="#434D60" d="M410.1,375.7h-56c-4.4,0-8,3.6-8,8c0,4.4,3.6,8,8,8h56c4.4,0,8-3.6,8-8
		C418.1,379.2,414.5,375.7,410.1,375.7"/>
	<path clip-path="url(#SVGID_2_)" fill="#434D60" d="M434.1,391.7h8c4.4,0,8-3.6,8-8c0-4.4-3.6-8-8-8h-8c-4.4,0-8,3.6-8,8
		C426.1,388.1,429.7,391.7,434.1,391.7"/>
</g>
</svg>
