<?xml version="1.0" encoding="utf-8"?>
<!-- Generator: Adobe Illustrator 17.1.0, SVG Export Plug-In . SVG Version: 6.00 Build 0)  -->
<!DOCTYPE svg PUBLIC "-//W3C//DTD SVG 1.1//EN" "http://www.w3.org/Graphics/SVG/1.1/DTD/svg11.dtd">
<svg version="1.1" id="Layer_1" xmlns="http://www.w3.org/2000/svg" xmlns:xlink="http://www.w3.org/1999/xlink" x="0px" y="0px"
	 viewBox="0 0 24 24" enable-background="new 0 0 24 24" xml:space="preserve">
<g>
	<g>
		<path fill="#EE2667" d="M12,0C5.4,0,0,5.4,0,12c0,6.6,5.4,12,12,12c6.6,0,12-5.4,12-12C24,5.4,18.6,0,12,0z M12,21.8
			c-5.4,0-9.8-4.4-9.8-9.8c0-5.4,4.4-9.8,9.8-9.8c5.4,0,9.8,4.4,9.8,9.8C21.8,17.4,17.4,21.8,12,21.8z M17.5,11H13V6.5
			c0-0.6-0.5-1-1-1c-0.6,0-1,0.5-1,1V11H6.5c-0.6,0-1,0.5-1,1c0,0.6,0.5,1,1,1H11v4.5c0,0.6,0.5,1,1,1c0.6,0,1-0.5,1-1V13h4.5
			c0.6,0,1-0.5,1-1C18.5,11.4,18.1,11,17.5,11z"/>
	</g>
</g>
</svg>
