<?xml version="1.0" encoding="utf-8"?>
<!-- Generator: Adobe Illustrator 17.1.0, SVG Export Plug-In . SVG Version: 6.00 Build 0)  -->
<!DOCTYPE svg PUBLIC "-//W3C//DTD SVG 1.1//EN" "http://www.w3.org/Graphics/SVG/1.1/DTD/svg11.dtd">
<svg version="1.1" id="Layer_1" xmlns="http://www.w3.org/2000/svg" xmlns:xlink="http://www.w3.org/1999/xlink" x="0px" y="0px"
	 viewBox="0 0 20 20" enable-background="new 0 0 20 20" xml:space="preserve">
<g>
	<g>
		<path fill="#9FB1BD" d="M19,9.3V4.9C19,3.8,18.2,3,17.1,3h-1.3l-1.3-2.4c-0.2-0.4-0.6-0.6-1-0.6c-0.2,0-0.4,0.1-0.6,0.1L7.7,3H1.9
			C0.9,3,0,3.8,0,4.9v13.2C0,19.1,0.9,20,1.9,20h15.2c1.1,0,1.9-0.9,1.9-1.9v-3.9h1V9.3H19z M17.1,3.8c0.6,0,1.1,0.4,1.2,1h-1.5
			l-0.6-1H17.1z M13.2,0.8c0.2-0.1,0.4,0,0.5,0.1l2.1,3.8H6L13.2,0.8z M18.3,18.1c0,0.6-0.5,1.2-1.2,1.2H1.9c-0.6,0-1.2-0.5-1.2-1.2
			V4.9c0-0.6,0.5-1.2,1.2-1.2h4.4l-1.9,1H2.2C2,4.8,1.8,4.9,1.8,5.2c0,0.2,0.2,0.4,0.4,0.4h16.1v3.8h-2.8c-1.3,0-2.4,1.1-2.4,2.4
			v0.2c0,1.3,1.1,2.4,2.4,2.4h2.8V18.1z M19.2,13.4h-3.8c-0.9,0-1.6-0.7-1.6-1.6v-0.2c0-0.9,0.7-1.6,1.6-1.6h3.8V13.4z M14.9,11.8
			c0,0.5,0.4,0.8,0.9,0.8c0.5,0,0.9-0.4,0.9-0.8c0-0.5-0.4-0.8-0.9-0.8C15.3,10.9,14.9,11.3,14.9,11.8z"/>
	</g>
</g>
</svg>
