<?xml version="1.0" encoding="utf-8"?>
<!-- Generator: Adobe Illustrator 17.1.0, SVG Export Plug-In . SVG Version: 6.00 Build 0)  -->
<!DOCTYPE svg PUBLIC "-//W3C//DTD SVG 1.1//EN" "http://www.w3.org/Graphics/SVG/1.1/DTD/svg11.dtd">
<svg version="1.1" id="Layer_1" xmlns="http://www.w3.org/2000/svg" xmlns:xlink="http://www.w3.org/1999/xlink" x="0px" y="0px"
	 viewBox="0 0 28 18" enable-background="new 0 0 28 18" xml:space="preserve">
<g>
	<g>
		<path fill="#818BA5" d="M10.2,12.9h7.6v-1.6h-7.6V12.9z M21.3,9.5c-0.9,0-1.6,0.7-1.6,1.6c0,0.9,0.7,1.6,1.6,1.6
			c0.9,0,1.6-0.7,1.6-1.6C23,10.2,22.2,9.5,21.3,9.5z M6.7,9.5C5.8,9.5,5,10.2,5,11.1c0,0.9,0.7,1.6,1.6,1.6s1.6-0.7,1.6-1.6
			C8.3,10.2,7.6,9.5,6.7,9.5z M27.9,6.9c0-1.3-1.1-2.4-2.4-2.4h-1.6c-0.2,0-0.4,0-0.6,0.1l-1.6-4.3H6.4L4.8,4.6
			c-0.2,0-0.4-0.1-0.6-0.1H2.6c-1.3,0-2.4,1.1-2.4,2.4c0,1.1,0.7,2,1.7,2.3c0,0.1,0,0.2,0,0.4v8.2h5.2v-1.6h14.1v1.6h5.2V9.5
			c0-0.1,0-0.2,0-0.4C27.2,8.9,27.9,8,27.9,6.9z M7.5,1.9h13l1.3,3.6c-0.2,0.2-0.3,0.5-0.4,0.8c-2.1-0.5-4.7-0.7-7.4-0.7
			S8.7,5.8,6.6,6.3C6.5,6,6.3,5.8,6.2,5.5L7.5,1.9z M2.6,7.7c-0.4,0-0.8-0.4-0.8-0.8c0-0.4,0.4-0.8,0.8-0.8h1.6
			c0.4,0,0.7,0.3,0.8,0.7C4.2,7,3.5,7.3,3,7.7H2.6z M24.6,14.5H3.4v-5c0-0.2,0.5-0.9,2.7-1.5C8.2,7.5,11,7.2,14,7.2
			c3,0,5.8,0.3,7.8,0.9c2.2,0.6,2.7,1.3,2.7,1.5V14.5z M25.4,7.7H25c-0.5-0.3-1.2-0.7-2-0.9c0.1-0.4,0.4-0.7,0.8-0.7h1.6
			c0.4,0,0.8,0.4,0.8,0.8C26.3,7.3,25.9,7.7,25.4,7.7z"/>
	</g>
</g>
</svg>
