<?xml version="1.0" encoding="utf-8"?>
<!-- Generator: Adobe Illustrator 17.1.0, SVG Export Plug-In . SVG Version: 6.00 Build 0)  -->
<!DOCTYPE svg PUBLIC "-//W3C//DTD SVG 1.1//EN" "http://www.w3.org/Graphics/SVG/1.1/DTD/svg11.dtd">
<svg version="1.1" id="Layer_1" xmlns="http://www.w3.org/2000/svg" xmlns:xlink="http://www.w3.org/1999/xlink" x="0px" y="0px"
	 viewBox="0 0 20 24.5" enable-background="new 0 0 20 24.5" xml:space="preserve">
<path fill="#818BA5" d="M19.4,10.6C19.4,10.6,19.3,10.6,19.4,10.6L16,9.8l-2.7-2c1.8-1.6,2-4.3,0.4-6.1c-1.6-1.8-4.3-2-6.1-0.4
	c-1.7,1.5-2,4-0.6,5.8h0c-0.2,0-0.5,0.1-0.6,0.3l-6.1,6c-0.3,0.3-0.3,0.9,0,1.2L2,16.3c0.3,0.3,0.8,0.3,1.2,0.1L6.1,14v1.5l-0.8,3
	L3,20.1c-0.4,0.3-0.5,0.8-0.2,1.2c0,0,0,0,0,0l1.7,2.6c0.3,0.4,0.8,0.5,1.2,0.3l4.3-2.6c0.2-0.1,0.3-0.3,0.4-0.5l0.3-0.9l2.5,3.7
	c0.2,0.4,0.7,0.5,1.1,0.3l3.5-1.7c0.4-0.2,0.6-0.7,0.4-1.2c0,0,0,0,0,0l-2.6-5.1c0,0,0-0.1-0.1-0.1l-1.3-1.9l3.9,0.6
	c0,0,0.1,0,0.1,0c0.4,0,0.7-0.2,0.8-0.6l0.9-2.6C20.1,11.2,19.8,10.7,19.4,10.6z M10.4,2C11.9,2,13,3.1,13,4.5
	c0,1.4-1.2,2.6-2.6,2.6C9,7.1,7.8,6,7.8,4.5C7.8,3.1,9,2,10.4,2z M8.8,20.3l-3.4,2l-0.8-1.2l1.9-1.2c0.2-0.1,0.3-0.3,0.4-0.5
	l0.6-2.2l1.9,1.4L8.8,20.3z M16.2,21.3l-2,1l-3-4.5c0,0-0.1-0.1-0.1-0.1c0,0-0.1-0.1-0.1-0.1c0,0,0,0,0,0l-3.1-2.3v-3
	c0-0.5-0.4-0.9-0.9-0.9c-0.2,0-0.4,0.1-0.5,0.2l-3.7,3L2.1,14l5.2-5.1h4.1l0.8,5.3c0,0.1,0.1,0.2,0.1,0.4L14,17L16.2,21.3z M17.7,13
	l-4-0.7l-0.4-2.5l1.8,1.3c0.1,0.1,0.2,0.1,0.3,0.1L18,12L17.7,13z"/>
</svg>
