<?xml version="1.0" encoding="utf-8"?>
<!-- Generator: Adobe Illustrator 17.1.0, SVG Export Plug-In . SVG Version: 6.00 Build 0)  -->
<!DOCTYPE svg PUBLIC "-//W3C//DTD SVG 1.1//EN" "http://www.w3.org/Graphics/SVG/1.1/DTD/svg11.dtd">
<svg version="1.1" id="Layer_1" xmlns="http://www.w3.org/2000/svg" xmlns:xlink="http://www.w3.org/1999/xlink" x="0px" y="0px"
	 viewBox="0 0 29 20" enable-background="new 0 0 29 20" xml:space="preserve">
<g>
	<g>
		<path fill="#E72062" d="M28.4,9.9l-1.7-2.1l0,0l-2.7-5.3c-0.2-0.3-0.5-0.5-0.8-0.5h-3.8V1.1c0-0.5-0.4-0.9-0.9-0.9H3.8
			C3.3,0.2,3,0.6,3,1.1c0,0.5,0.4,0.9,0.9,0.9h13.9v6.3c0,0.5,0.4,0.9,0.9,0.9h6.9l1.3,1.7v4.6h-1.7c-0.4-1.6-1.8-2.7-3.4-2.7
			c-1.7,0-3,1.2-3.4,2.7H13c-0.4-1.6-1.8-2.7-3.4-2.7c-1.7,0-3,1.2-3.4,2.7H3.8c-0.5,0-0.9,0.4-0.9,0.9s0.4,0.9,0.9,0.9h2.3
			c0.4,1.5,1.8,2.7,3.4,2.7c1.6,0,3-1.1,3.4-2.7h5.3c0.4,1.5,1.8,2.7,3.4,2.7c1.6,0,3-1.1,3.4-2.7h2.6c0.5,0,0.9-0.4,0.9-0.9v-5.8
			C28.6,10.3,28.5,10.1,28.4,9.9z M19.5,7.3V3.7h3.2l1.8,3.6H19.5z M9.6,18.1c-1,0-1.8-0.8-1.8-1.8c0-1,0.8-1.8,1.8-1.8
			c1,0,1.8,0.8,1.8,1.8C11.3,17.3,10.5,18.1,9.6,18.1z M21.7,18.1c-1,0-1.8-0.8-1.8-1.8c0-1,0.8-1.8,1.8-1.8c1,0,1.8,0.8,1.8,1.8
			C23.5,17.3,22.7,18.1,21.7,18.1z M7.7,11.8c0-0.5-0.4-0.9-0.9-0.9H2.8c-0.5,0-0.9,0.4-0.9,0.9c0,0.5,0.4,0.9,0.9,0.9h4.1
			C7.3,12.7,7.7,12.3,7.7,11.8z M9.8,8.2c0-0.5-0.4-0.9-0.9-0.9H1.3c-0.5,0-0.9,0.4-0.9,0.9s0.4,0.9,0.9,0.9h7.6
			C9.4,9.1,9.8,8.7,9.8,8.2z M2.8,5.6h7.6c0.5,0,0.9-0.4,0.9-0.9c0-0.5-0.4-0.9-0.9-0.9H2.8c-0.5,0-0.9,0.4-0.9,0.9
			C1.9,5.2,2.3,5.6,2.8,5.6z"/>
	</g>
</g>
</svg>
