<?xml version="1.0" encoding="utf-8"?>
<!-- Generator: Adobe Illustrator 17.1.0, SVG Export Plug-In . SVG Version: 6.00 Build 0)  -->
<!DOCTYPE svg PUBLIC "-//W3C//DTD SVG 1.1//EN" "http://www.w3.org/Graphics/SVG/1.1/DTD/svg11.dtd">
<svg version="1.1" id="Layer_1" xmlns="http://www.w3.org/2000/svg" xmlns:xlink="http://www.w3.org/1999/xlink" x="0px" y="0px"
	 viewBox="0 0 427.2 512" enable-background="new 0 0 427.2 512" xml:space="preserve">
<g>
	<defs>
		<rect id="SVGID_1_" width="427.2" height="512"/>
	</defs>
	<clipPath id="SVGID_2_">
		<use xlink:href="#SVGID_1_"  overflow="visible"/>
	</clipPath>
	<path clip-path="url(#SVGID_2_)" fill="#434D60" d="M399.4,395.9H94c-4.2,0-7.6,3.4-7.6,7.6c0,4.2,3.4,7.6,7.6,7.6h305.4
		c7,0,12.6,5.7,12.6,12.6v60.6c0,7-5.7,12.6-12.6,12.6H27.8c-7,0-12.6-5.7-12.6-12.6v-60.6c0-7,5.7-12.6,12.6-12.6h30.8
		c4.2,0,7.6-3.4,7.6-7.6c0-4.2-3.4-7.6-7.6-7.6H27.8C12.5,395.9,0,408.3,0,423.6v60.6C0,499.5,12.5,512,27.8,512h371.6
		c15.3,0,27.8-12.5,27.8-27.8v-60.6C427.2,408.3,414.7,395.9,399.4,395.9"/>
	<path clip-path="url(#SVGID_2_)" fill="#434D60" d="M213.6,377.7c57.8,0,107-41.3,116.9-98.2c0.7-4.1-2-8-6.2-8.8
		c-4.1-0.7-8,2-8.8,6.2c-8.6,49.6-51.5,85.6-102,85.6c-57.1,0-103.5-46.4-103.5-103.5c0-57.1,46.4-103.5,103.5-103.5
		c51.7,0,95.8,38.5,102.6,89.7c0.6,4.1,4.4,7,8.5,6.5c4.1-0.6,7.1-4.4,6.5-8.5c-2.8-20.9-11-40-23.2-55.9V94.4
		C308,42.4,265.7,0,213.6,0c-20.6,0-40.2,6.5-56.7,18.9c-3.3,2.5-4,7.3-1.5,10.6c2.5,3.3,7.3,4,10.6,1.5
		c13.8-10.4,30.2-15.8,47.6-15.8c43.7,0,79.3,35.6,79.3,79.3v76.4c-5.3-4.8-11.1-9.1-17.2-12.8V94.4c0-34.2-27.9-62.1-62.1-62.1
		s-62.1,27.9-62.1,62.1V158c-6.1,3.8-11.9,8.1-17.2,12.9V94.4c0-13.9,3.6-27.5,10.5-39.5c2.1-3.6,0.8-8.3-2.8-10.3
		c-3.6-2.1-8.3-0.8-10.3,2.8c-8.2,14.3-12.5,30.5-12.5,47.1v92.8C104,207.2,94.9,232.1,94.9,259C94.9,324.5,148.2,377.7,213.6,377.7
		 M166.6,94.4c0-25.9,21.1-47,47-47s47,21.1,47,47v55.7c-14.5-6.3-30.4-9.7-47-9.7c-16.7,0-32.6,3.5-47,9.7V94.4z"/>
	<path clip-path="url(#SVGID_2_)" fill="#434D60" d="M194.4,323.2h38.4c4.2,0,7.6-3.4,7.6-7.6v-51.2c8.3-7.5,13.1-18.3,13.1-29.6
		c0-22-17.9-39.9-39.9-39.9s-39.9,17.9-39.9,39.9c0,11.3,4.8,22.1,13.1,29.6v51.2C186.8,319.8,190.2,323.2,194.4,323.2 M213.6,210.1
		c13.6,0,24.7,11.1,24.7,24.7c0,7.9-3.7,15.2-10.1,19.9c-1.9,1.4-3.1,3.7-3.1,6.1V308H202v-47.2c0-2.4-1.1-4.7-3.1-6.1
		c-6.4-4.7-10.1-12-10.1-19.9C188.8,221.1,199.9,210.1,213.6,210.1"/>
	<path clip-path="url(#SVGID_2_)" fill="#434D60" d="M61,432.7v8.1l-7-4c-3.6-2.1-8.3-0.8-10.3,2.8c-2.1,3.6-0.9,8.3,2.8,10.3l7,4
		l-7,4c-3.6,2.1-4.9,6.7-2.8,10.3c1.4,2.4,4,3.8,6.6,3.8c1.3,0,2.6-0.3,3.8-1l7-4v8.1c0,4.2,3.4,7.6,7.6,7.6c4.2,0,7.6-3.4,7.6-7.6
		v-8.1l7,4c1.2,0.7,2.5,1,3.8,1c2.6,0,5.2-1.4,6.6-3.8c2.1-3.6,0.9-8.3-2.8-10.3l-7-4l7-4c3.6-2.1,4.9-6.7,2.8-10.3
		c-2.1-3.6-6.7-4.9-10.3-2.8l-7,4v-8.1c0-4.2-3.4-7.6-7.6-7.6C64.4,425.2,61,428.5,61,432.7"/>
	<path clip-path="url(#SVGID_2_)" fill="#434D60" d="M116.1,468.3c1.4,2.4,3.9,3.8,6.6,3.8c1.3,0,2.6-0.3,3.8-1l7-4v8.1
		c0,4.2,3.4,7.6,7.6,7.6c4.2,0,7.6-3.4,7.6-7.6v-8.1l7,4c1.2,0.7,2.5,1,3.8,1c2.6,0,5.2-1.4,6.6-3.8c2.1-3.6,0.9-8.3-2.8-10.3l-7-4
		l7-4c3.6-2.1,4.9-6.7,2.8-10.3c-2.1-3.6-6.7-4.9-10.3-2.8l-7,4v-8.1c0-4.2-3.4-7.6-7.6-7.6c-4.2,0-7.6,3.4-7.6,7.6v8.1l-7-4
		c-3.6-2.1-8.3-0.8-10.3,2.8c-2.1,3.6-0.9,8.3,2.8,10.3l7,4l-7,4C115.3,460.1,114,464.7,116.1,468.3"/>
	<path clip-path="url(#SVGID_2_)" fill="#434D60" d="M188.7,468.3c1.4,2.4,3.9,3.8,6.6,3.8c1.3,0,2.6-0.3,3.8-1l7-4v8.1
		c0,4.2,3.4,7.6,7.6,7.6c4.2,0,7.6-3.4,7.6-7.6v-8.1l7,4c1.2,0.7,2.5,1,3.8,1c2.6,0,5.2-1.4,6.6-3.8c2.1-3.6,0.9-8.3-2.8-10.3l-7-4
		l7-4c3.6-2.1,4.9-6.7,2.8-10.3c-2.1-3.6-6.7-4.9-10.3-2.8l-7,4v-8.1c0-4.2-3.4-7.6-7.6-7.6c-4.2,0-7.6,3.4-7.6,7.6v8.1l-7-4
		c-3.6-2.1-8.3-0.8-10.3,2.8c-2.1,3.6-0.9,8.3,2.8,10.3l7,4l-7,4C187.8,460.1,186.6,464.7,188.7,468.3"/>
	<path clip-path="url(#SVGID_2_)" fill="#434D60" d="M261.2,468.3c1.4,2.4,3.9,3.8,6.6,3.8c1.3,0,2.6-0.3,3.8-1l7-4v8.1
		c0,4.2,3.4,7.6,7.6,7.6c4.2,0,7.6-3.4,7.6-7.6v-8.1l7,4c1.2,0.7,2.5,1,3.8,1c2.6,0,5.2-1.4,6.6-3.8c2.1-3.6,0.9-8.3-2.8-10.3l-7-4
		l7-4c3.6-2.1,4.9-6.7,2.8-10.3c-2.1-3.6-6.7-4.9-10.3-2.8l-7,4v-8.1c0-4.2-3.4-7.6-7.6-7.6c-4.2,0-7.6,3.4-7.6,7.6v8.1l-7-4
		c-3.6-2.1-8.3-0.8-10.3,2.8c-2.1,3.6-0.9,8.3,2.8,10.3l7,4l-7,4C260.3,460.1,259.1,464.7,261.2,468.3"/>
	<path clip-path="url(#SVGID_2_)" fill="#434D60" d="M333.7,468.3c1.4,2.4,3.9,3.8,6.6,3.8c1.3,0,2.6-0.3,3.8-1l7-4v8.1
		c0,4.2,3.4,7.6,7.6,7.6c4.2,0,7.6-3.4,7.6-7.6v-8.1l7,4c1.2,0.7,2.5,1,3.8,1c2.6,0,5.2-1.4,6.6-3.8c2.1-3.6,0.9-8.3-2.8-10.3l-7-4
		l7-4c3.6-2.1,4.9-6.7,2.8-10.3c-2.1-3.6-6.7-4.9-10.3-2.8l-7,4v-8.1c0-4.2-3.4-7.6-7.6-7.6c-4.2,0-7.6,3.4-7.6,7.6v8.1l-7-4
		c-3.6-2.1-8.3-0.8-10.3,2.8c-2.1,3.6-0.9,8.3,2.8,10.3l7,4l-7,4C332.9,460.1,331.6,464.7,333.7,468.3"/>
</g>
</svg>
