<?xml version="1.0" encoding="utf-8"?>
<!-- Generator: Adobe Illustrator 17.1.0, SVG Export Plug-In . SVG Version: 6.00 Build 0)  -->
<!DOCTYPE svg PUBLIC "-//W3C//DTD SVG 1.1//EN" "http://www.w3.org/Graphics/SVG/1.1/DTD/svg11.dtd">
<svg version="1.1" id="Layer_1" xmlns="http://www.w3.org/2000/svg" xmlns:xlink="http://www.w3.org/1999/xlink" x="0px" y="0px"
	 viewBox="0 0 30 30" enable-background="new 0 0 30 30" xml:space="preserve">
<g>
	<g>
		<path fill="#465062" d="M0,0v30h30V0H0z M14.2,28.4H1.6V15.8h12.7V28.4z M14.2,14.2H1.6V1.6h12.7V14.2z M28.4,28.4H15.8V15.8h12.7
			V28.4z M28.4,14.2H15.8V1.6h12.7V14.2z M7.4,12.3H9V9.4h2.9V7.8H9V5H7.4v2.9H4.5v1.6h2.9V12.3z M6.1,25.3l2-2l2,2l1.1-1.1l-2-2
			l2-2L10.2,19l-2,2l-2-2L5,20.1l2,2l-2,2L6.1,25.3z M25.8,7.8h-7.3v1.6h7.3V7.8z M25.8,21.4h-7.3v1.6h7.3V21.4z M22.1,20.8
			c1.1,0,2-0.9,2-2c0-1.1-0.9-2-2-2c-1.1,0-2,0.9-2,2C20.1,19.9,21,20.8,22.1,20.8z M22.1,18.3c0.3,0,0.5,0.2,0.5,0.5
			c0,0.3-0.2,0.5-0.5,0.5c-0.3,0-0.5-0.2-0.5-0.5C21.6,18.5,21.8,18.3,22.1,18.3z M22.1,23.5c-1.1,0-2,0.9-2,2c0,1.1,0.9,2,2,2
			c1.1,0,2-0.9,2-2C24.2,24.4,23.2,23.5,22.1,23.5z M22.1,26c-0.3,0-0.5-0.2-0.5-0.5c0-0.3,0.2-0.5,0.5-0.5c0.3,0,0.5,0.2,0.5,0.5
			C22.6,25.8,22.4,26,22.1,26z"/>
	</g>
</g>
</svg>
