<?xml version="1.0" encoding="utf-8"?>
<!-- Generator: Adobe Illustrator 17.1.0, SVG Export Plug-In . SVG Version: 6.00 Build 0)  -->
<!DOCTYPE svg PUBLIC "-//W3C//DTD SVG 1.1//EN" "http://www.w3.org/Graphics/SVG/1.1/DTD/svg11.dtd">
<svg version="1.1" id="Layer_1" xmlns="http://www.w3.org/2000/svg" xmlns:xlink="http://www.w3.org/1999/xlink" x="0px" y="0px"
	 viewBox="0 0 405.7 512" enable-background="new 0 0 405.7 512" xml:space="preserve">
<g>
	<defs>
		<rect id="SVGID_1_" width="405.7" height="512"/>
	</defs>
	<clipPath id="SVGID_2_">
		<use xlink:href="#SVGID_1_"  overflow="visible"/>
	</clipPath>
	<path clip-path="url(#SVGID_2_)" fill="#434D60" d="M295.5,106.5c4.6,0.3,8.5-3.4,8.5-8V56c0-30.9-25.1-56-56-56H56
		C25.1,0,0,25.1,0,56v400c0,30.9,25.1,56,56,56h192c30.9,0,56-25.1,56-56v-63.5c0-4.6-3.9-8.3-8.5-8c-4.3,0.3-7.5,4-7.5,8.3V432
		H103.7H16V80h87.7H288v18.2C288,102.5,291.2,106.3,295.5,106.5 M104,448h184v8c0,22.1-17.9,40-40,40h-0.3H56c-22.1,0-40-17.9-40-40
		v-8H104z M104,64H16v-8c0-22.1,17.9-40,40-40h191.7h0.3c22.1,0,40,17.9,40,40v8H104z"/>
	<path clip-path="url(#SVGID_2_)" fill="#434D60" d="M168,464h-32c-4.4,0-8,3.6-8,8s3.6,8,8,8h32c4.4,0,8-3.6,8-8S172.4,464,168,464
		"/>
	<path clip-path="url(#SVGID_2_)" fill="#434D60" d="M181,32h-36c-4.4,0-8,3.6-8,8c0,4.4,3.6,8,8,8h36c4.4,0,8-3.6,8-8
		C189,35.6,185.4,32,181,32"/>
	<path clip-path="url(#SVGID_2_)" fill="#434D60" d="M111.3,34.3c-1.5,1.5-2.3,3.6-2.3,5.7c0,2.1,0.8,4.2,2.3,5.7
		c1.5,1.5,3.5,2.3,5.7,2.3s4.2-0.8,5.7-2.3c1.5-1.5,2.3-3.5,2.3-5.7c0-2.1-0.8-4.2-2.3-5.7c-1.5-1.5-3.6-2.3-5.7-2.3
		S112.8,32.9,111.3,34.3"/>
	<path clip-path="url(#SVGID_2_)" fill="#434D60" d="M96,237h48c4.4,0,8-3.6,8-8c0-4.4-3.6-8-8-8H96c-4.4,0-8,3.6-8,8
		C88,233.4,91.6,237,96,237"/>
	<path clip-path="url(#SVGID_2_)" fill="#434D60" d="M304,221H176c-4.4,0-8,3.6-8,8c0,4.4,3.6,8,8,8h128c4.4,0,8-3.6,8-8
		C312,224.6,308.4,221,304,221"/>
	<path clip-path="url(#SVGID_2_)" fill="#434D60" d="M304,261h-48c-4.4,0-8,3.6-8,8c0,4.4,3.6,8,8,8h48c4.4,0,8-3.6,8-8
		C312,264.6,308.4,261,304,261"/>
	<path clip-path="url(#SVGID_2_)" fill="#434D60" d="M96,277h128c4.4,0,8-3.6,8-8c0-4.4-3.6-8-8-8H96c-4.4,0-8,3.6-8,8
		C88,273.4,91.6,277,96,277"/>
	<path clip-path="url(#SVGID_2_)" fill="#434D60" d="M258.8,181H96c-4.4,0-8,3.6-8,8c0,4.4,3.6,8,8,8h162.8c4.4,0,8-3.6,8-8
		C266.8,184.6,263.2,181,258.8,181"/>
	<path clip-path="url(#SVGID_2_)" fill="#434D60" d="M304,301H96c-4.4,0-8,3.6-8,8c0,4.4,3.6,8,8,8h208c4.4,0,8-3.6,8-8
		C312,304.6,308.4,301,304,301"/>
	<path clip-path="url(#SVGID_2_)" fill="#434D60" d="M347,214.5c-32.4,0-58.7-26.3-58.7-58.7c0-32.4,26.3-58.7,58.7-58.7
		s58.7,26.3,58.7,58.7C405.7,188.2,379.4,214.5,347,214.5 M347,113.1c-23.6,0-42.7,19.2-42.7,42.7c0,23.6,19.2,42.7,42.7,42.7
		c23.6,0,42.7-19.2,42.7-42.7C389.7,132.2,370.6,113.1,347,113.1"/>
	<path clip-path="url(#SVGID_2_)" fill="#434D60" d="M347,210.6c-1,0-2,0-3-0.1V309c0,22.1-17.9,40-40,40H152
		c-2.1,0-4.2,0.8-5.7,2.3L104,393.7V357c0-4.4-3.6-8-8-8c-22.1,0-40-17.9-40-40V189c0-22.1,17.9-40,40-40h196.6
		c0.7-5.6,2.3-11,4.5-16H96c-30.9,0-56,25.1-56,56v120c0,28.2,20.9,51.5,48,55.4v29.3c0,6.5,3.9,12.3,9.9,14.8
		c2,0.8,4.1,1.2,6.1,1.2c4.2,0,8.2-1.6,11.3-4.7l40-40H304c30.9,0,56-25.1,56-56V209C355.8,210,351.5,210.6,347,210.6"/>
	<path clip-path="url(#SVGID_2_)" fill="#434D60" d="M365.7,169.7c-1.1-1.2-2.5-1.7-4.1-1.7h-4.4v-38.8c0-1.7-0.6-3.2-1.8-4.3
		c-1.2-1.2-2.6-1.8-4.3-1.8c-1.2,0-2.4,0.4-3.6,1.1L331.2,135c-1.4,0.9-2.2,2.1-2.5,3.7c-0.3,1.6,0,3.1,0.8,4.4
		c0.8,1.4,2.1,2.2,3.6,2.6c1.6,0.3,3.1,0,4.4-0.9l7.5-5V168h-9.4c-1.7,0-3.1,0.6-4.2,1.7c-1.1,1.2-1.7,2.5-1.7,4.1
		c0,1.6,0.6,3,1.7,4.1c1.1,1.1,2.5,1.7,4.2,1.7h26c1.6,0,3-0.6,4.1-1.7c1.1-1.1,1.7-2.5,1.7-4.1
		C367.4,172.3,366.9,170.9,365.7,169.7"/>
</g>
</svg>
