<?xml version="1.0" encoding="utf-8"?>
<!-- Generator: Adobe Illustrator 21.0.0, SVG Export Plug-In . SVG Version: 6.00 Build 0)  -->
<svg version="1.1" id="Слой_1" xmlns="http://www.w3.org/2000/svg" xmlns:xlink="http://www.w3.org/1999/xlink" x="0px" y="0px"
	 viewBox="0 0 20 20" style="enable-background:new 0 0 20 20;" xml:space="preserve">
<style type="text/css">
	.st0{fill:#9FB1BD;}
</style>
<path class="st0" d="M10,1.3c4.8,0,8.8,3.9,8.8,8.7c0,4.8-3.9,8.8-8.8,8.8S1.2,14.9,1.2,10C1.2,5.2,5.2,1.3,10,1.3 M10,0
	C4.5,0,0,4.5,0,10c0,5.5,4.5,10,10,10s10-4.5,10-10C20,4.5,15.5,0,10,0L10,0z M15.6,13.4l-0.1-0.2c-0.1-0.4-0.6-0.8-1-0.9l-1.5-0.4
	c-0.4-0.1-1,0-1.3,0.3l-0.5,0.5c-1.9-0.5-3.5-2.1-4-4l0.5-0.5C8.1,7.9,8.3,7.4,8.1,7L7.7,5.5c-0.1-0.4-0.5-0.8-0.9-1L6.7,4.5
	c-0.4-0.1-1,0-1.3,0.3L4.6,5.6C4.5,5.7,4.4,6.1,4.4,6.1c0,2.5,1,5,2.8,6.8c1.8,1.8,4.2,2.8,6.8,2.8c0,0,0.4-0.1,0.6-0.2l0.8-0.8
	C15.6,14.3,15.7,13.8,15.6,13.4z"/>
</svg>
