<?xml version="1.0" encoding="utf-8"?>
<!-- Generator: Adobe Illustrator 21.0.0, SVG Export Plug-In . SVG Version: 6.00 Build 0)  -->
<svg version="1.1" id="Слой_1" xmlns="http://www.w3.org/2000/svg" xmlns:xlink="http://www.w3.org/1999/xlink" x="0px" y="0px"
	 viewBox="0 0 17 22" style="enable-background:new 0 0 17 22;" xml:space="preserve">
<style type="text/css">
	.st0{fill:#9FB1BD;}
</style>
<g>
	<g>
		<path class="st0" d="M8.5,0C3.8,0,0,3.9,0,8.8c0,0.5,0,1.1,0.2,1.6c0,0,0,0.1,0.1,0.3c0.1,0.6,0.3,1.2,0.6,1.7
			c0.9,2.2,2.9,5.6,7.3,9.3c0.1,0.1,0.2,0.1,0.4,0.1c0.1,0,0.3,0,0.4-0.1c4.4-3.7,6.4-7.1,7.3-9.3c0.2-0.6,0.4-1.1,0.6-1.7
			c0-0.2,0.1-0.3,0.1-0.3C16.9,9.9,17,9.3,17,8.8C17,3.9,13.2,0,8.5,0z M15.7,10.2C15.7,10.2,15.7,10.2,15.7,10.2c0,0.1,0,0.1,0,0.2
			c0,0,0,0,0,0c-0.1,0.5-0.3,1-0.5,1.5c0,0,0,0,0,0c-0.8,2-2.7,5.1-6.6,8.5c-4-3.4-5.8-6.5-6.6-8.5c0,0,0,0,0,0
			c-0.2-0.5-0.4-1-0.5-1.5c0,0,0,0,0,0c0-0.1,0-0.2,0-0.2c0,0,0,0,0,0C1.2,9.7,1.2,9.2,1.2,8.8c0-4.1,3.3-7.5,7.3-7.5
			c4,0,7.3,3.4,7.3,7.5C15.8,9.2,15.7,9.7,15.7,10.2z M8.5,3.3c-3,0-5.4,2.5-5.4,5.6c0,3.1,2.4,5.6,5.4,5.6c3,0,5.4-2.5,5.4-5.6
			C13.9,5.8,11.5,3.3,8.5,3.3z M8.5,13.2c-2.3,0-4.2-1.9-4.2-4.3c0-2.4,1.9-4.3,4.2-4.3c2.3,0,4.2,1.9,4.2,4.3
			C12.7,11.2,10.8,13.2,8.5,13.2z"/>
	</g>
</g>
</svg>
