<?xml version="1.0" encoding="utf-8"?>
<!-- Generator: Adobe Illustrator 17.1.0, SVG Export Plug-In . SVG Version: 6.00 Build 0)  -->
<!DOCTYPE svg PUBLIC "-//W3C//DTD SVG 1.1//EN" "http://www.w3.org/Graphics/SVG/1.1/DTD/svg11.dtd">
<svg version="1.1" id="Layer_1" xmlns="http://www.w3.org/2000/svg" xmlns:xlink="http://www.w3.org/1999/xlink" x="0px" y="0px"
	 viewBox="0 0 16 15" enable-background="new 0 0 16 15" xml:space="preserve">
<g>
	<g>
		<path fill="#E81D60" d="M14.4,6.3c-0.3,0-0.6,0.3-0.6,0.6v0.6c0,1.6-0.6,3.2-1.8,4.3c-1.2,1.1-2.7,1.8-4.3,1.8c0,0,0,0,0,0
			c-3.4,0-6.1-2.7-6.1-6.1c0-1.6,0.6-3.2,1.8-4.3C4.5,2,6,1.4,7.7,1.4c0,0,0,0,0,0c0.9,0,1.7,0.2,2.5,0.5c0.3,0.1,0.7,0,0.8-0.3
			c0.1-0.3,0-0.7-0.3-0.8c-0.9-0.4-2-0.6-3-0.6c0,0,0,0,0,0c-2,0-3.8,0.8-5.2,2.1C1.1,3.7,0.3,5.5,0.3,7.5c0,2,0.8,3.8,2.2,5.2
			c1.4,1.4,3.2,2.1,5.2,2.2c0,0,0,0,0,0c2,0,3.8-0.8,5.2-2.1c1.4-1.4,2.2-3.2,2.2-5.2V6.9C15,6.5,14.8,6.3,14.4,6.3z M15.5,1
			c-0.2-0.2-0.6-0.2-0.9,0L7.7,8L6.1,6.4c-0.2-0.2-0.6-0.2-0.9,0C5,6.6,5,7,5.2,7.3l2,2c0.1,0.1,0.3,0.2,0.4,0.2
			c0.2,0,0.3-0.1,0.4-0.2l7.4-7.4C15.8,1.7,15.8,1.3,15.5,1z"/>
	</g>
</g>
</svg>
