<?xml version="1.0" encoding="utf-8"?>
<!-- Generator: Adobe Illustrator 21.0.0, SVG Export Plug-In . SVG Version: 6.00 Build 0)  -->
<svg version="1.1" id="Слой_1" xmlns="http://www.w3.org/2000/svg" xmlns:xlink="http://www.w3.org/1999/xlink" x="0px" y="0px"
	 viewBox="0 0 18 23" style="enable-background:new 0 0 18 23;" xml:space="preserve">
<style type="text/css">
	.st0{fill:#9FB1BD;}
</style>
<g>
	<g>
		<path class="st0" d="M7.7,0h-7C0.3,0,0,0.3,0,0.7v21.6C0,22.7,0.3,23,0.7,23h7c0.4,0,0.7-0.3,0.7-0.7V0.7C8.4,0.3,8.1,0,7.7,0z
			 M7,21.6H1.4v-2.2h3.5V18H1.4v-2.2h2.1v-1.4H1.4v-2.2h3.5v-1.4H1.4V8.6h2.1V7.2H1.4V5h3.5V3.6H1.4V1.4H7V21.6z M17,18.2l-2.3,2.4
			V2.5L17,4.8l1-1l-3.5-3.6c-0.3-0.3-0.7-0.3-1,0L10,3.8l1,1l2.3-2.4v18.1L11,18.2l-1,1l3.5,3.6c0.3,0.3,0.7,0.3,1,0l3.5-3.6
			L17,18.2z"/>
	</g>
</g>
</svg>
