<?xml version="1.0" encoding="utf-8"?>
<!-- Generator: Adobe Illustrator 21.0.0, SVG Export Plug-In . SVG Version: 6.00 Build 0)  -->
<svg version="1.1" id="Слой_1" xmlns="http://www.w3.org/2000/svg" xmlns:xlink="http://www.w3.org/1999/xlink" x="0px" y="0px"
	 viewBox="0 0 80 80" style="enable-background:new 0 0 80 80;" xml:space="preserve">
<style type="text/css">
	.st0{fill:#3D475B;}
</style>
<g>
	<g>
		<path class="st0" d="M48.1,23.4L39.8,40c-1.4,0.1-2.5,1.2-2.5,2.6c0,1.5,1.2,2.7,2.7,2.7c1.5,0,2.7-1.2,2.7-2.7
			c0-0.5-0.2-1-0.4-1.5l8.3-16.6L48.1,23.4z M41.3,21.3h-2.7V24h2.7V21.3z M38.7,64h2.7v-2.7h-2.7V64z M31.8,25.9l-1.3-2.3l-2.3,1.3
			l1.3,2.3L31.8,25.9z M20.9,33.2l2.3,1.3l1.3-2.3l-2.3-1.3L20.9,33.2z M21.3,41.3h-2.7V44h2.7V41.3z M20.9,52.2l1.3,2.3l2.3-1.3
			l-1.3-2.3L20.9,52.2z M28.2,60.5l2.3,1.3l1.3-2.3l-2.3-1.3L28.2,60.5z M76.4,38.7c2.2-1.4,3.6-3.9,3.6-6.7c0-4.4-3.6-8-8-8H61.9
			l1.7-1.7c0.5-0.5,0.5-1.4,0-1.9l-4-4c-0.5-0.5-1.4-0.5-1.9,0L54.1,20c-3.8-2.4-8.2-3.8-12.8-4v-0.2C45.1,15.2,48,12,48,8
			c0-4.4-3.6-8-8-8c-4.4,0-8,3.6-8,8c0,4,2.9,7.2,6.7,7.9V16c-4.6,0.2-8.9,1.6-12.8,4l-2.3-2.3c4.8-4.2,6.1-11.4,2.9-17.1
			C26.3,0.4,26,0.1,25.7,0c-0.4-0.1-0.7,0-1,0.2l-24,14.7C0.2,15.1,0,15.5,0,16v62.7C0,79.4,0.6,80,1.3,80h61.3c4.4,0,8-3.6,8-8
			c0-2.1-0.8-3.9-2.1-5.4c4.1-0.3,7.4-3.8,7.4-8c0-2.1-0.9-4.1-2.2-5.5c3.6-0.8,6.2-4,6.2-7.8C80,42.6,78.6,40.1,76.4,38.7z
			 M58.7,19.2l2.1,2.1l-2.2,2.2c-0.7-0.7-1.5-1.4-2.3-2L58.7,19.2z M60,26.7h12c2.9,0,5.3,2.4,5.3,5.3c0,2.9-2.4,5.3-5.3,5.3H60
			c-2.9,0-5.3-2.4-5.3-5.3C54.7,29.1,57.1,26.7,60,26.7z M34.7,8c0-2.9,2.4-5.3,5.3-5.3c2.9,0,5.3,2.4,5.3,5.3c0,2.5-1.7,4.5-4,5.1
			V9.3H44V6.7h-8v2.7h2.7v3.8C36.4,12.5,34.7,10.5,34.7,8z M23.7,21.6c-0.8,0.6-1.5,1.3-2.3,2L19,21.1l2.4-1.8L23.7,21.6z
			 M19.6,25.5c-0.6,0.8-1.2,1.5-1.8,2.4c-1.1-0.4-1.8-1.3-1.8-2.5v-0.6c0-0.7,0.3-1.4,0.9-1.9L19.6,25.5z M2.7,77.3V16.7L24.8,3.2
			c1.9,4.5,0.5,9.9-3.4,12.9l-5.8,4.2c-1.4,1-2.2,2.6-2.2,4.3v0.6c0,2.1,1.3,4,3.1,4.8c-2,3.8-3.1,8.1-3.1,12.5
			c0,14.7,12,26.7,26.7,26.7h0c1.1,0,2.1-0.1,3.2-0.2C42.9,70,42.7,71,42.7,72c0,2.1,0.8,3.9,2.1,5.3H2.7z M40,66.7L40,66.7
			c-13.2,0-24-10.8-24-24c0-6.4,2.5-12.4,7-17c4.5-4.5,10.6-7,17-7h0c6,0,11.8,2.3,16.2,6.3c-2.5,1.4-4.2,4-4.2,7
			c0,2.8,1.4,5.2,3.6,6.7c-2.2,1.4-3.6,3.9-3.6,6.7c0,2.1,0.9,4.1,2.2,5.5c-3.6,0.8-6.2,4-6.2,7.8c0,2.1,0.8,3.9,2.1,5.4
			c-1.8,0.1-3.5,0.9-4.8,2C43.6,66.5,41.8,66.7,40,66.7z M62.7,77.3h-1.3v0H50.7c-2.9,0-5.3-2.4-5.3-5.3c0-2.9,2.4-5.3,5.3-5.3h12
			c2.9,0,5.3,2.4,5.3,5.3C68,74.9,65.6,77.3,62.7,77.3z M68,64H56c-2.9,0-5.3-2.4-5.3-5.3c0-2.9,2.4-5.3,5.3-5.3h12
			c2.9,0,5.3,2.4,5.3,5.3C73.3,61.6,70.9,64,68,64z M72,50.7H60c-2.9,0-5.3-2.4-5.3-5.3c0-2.9,2.4-5.3,5.3-5.3h12
			c2.9,0,5.3,2.4,5.3,5.3C77.3,48.3,74.9,50.7,72,50.7z"/>
	</g>
</g>
</svg>
