<?xml version="1.0" encoding="utf-8"?>
<!-- Generator: Adobe Illustrator 21.0.0, SVG Export Plug-In . SVG Version: 6.00 Build 0)  -->
<svg version="1.1" id="Слой_1" xmlns="http://www.w3.org/2000/svg" xmlns:xlink="http://www.w3.org/1999/xlink" x="0px" y="0px"
	 viewBox="0 0 72 78" style="enable-background:new 0 0 72 78;" xml:space="preserve">
<style type="text/css">
	.st0{fill:#3D475B;}
</style>
<g>
	<g>
		<path class="st0" d="M29.8,55.8V19.1c0-0.9-0.7-1.7-1.6-1.7c-0.9,0-1.6,0.7-1.6,1.7v36.7c-3.3,0.8-5.7,3.7-5.7,7.2
			c0,4.1,3.3,7.4,7.3,7.4s7.3-3.3,7.3-7.4C35.5,59.5,33.1,56.5,29.8,55.8z M28.2,67.1c-2.2,0-4.1-1.8-4.1-4.1c0-2.3,1.8-4.1,4.1-4.1
			c2.2,0,4.1,1.8,4.1,4.1C32.3,65.3,30.4,67.1,28.2,67.1z M37.4,50.7V9.3c0-5.1-4.1-9.3-9.3-9.3c-5.1,0-9.3,4.2-9.3,9.3v41.4
			c-4.9,3.9-7,10.5-5.1,16.7c1,3.1,2.8,5.7,5.4,7.7c2.6,1.9,5.7,3,8.9,3c3.2,0,6.3-1,8.9-3c2.6-1.9,4.5-4.6,5.4-7.7
			C44.4,61.2,42.3,54.6,37.4,50.7z M39.4,66.4c-1.5,5-6,8.3-11.2,8.3c-5.2,0-9.7-3.3-11.2-8.3c-1.5-5.1,0.3-10.5,4.5-13.5
			c0.4-0.3,0.7-0.8,0.7-1.4V9.3c0-3.2,2.7-6,6-6c3.2,0,6,2.7,5.9,5.9v42.2c0,0.5,0.3,1,0.7,1.4C39.1,55.8,40.9,61.3,39.4,66.4z
			 M70.4,21.1h-1.9c-2.2,0-4.2-1-5.2-2.5c0,0,0,0,0-0.1c-1-1.5-1-3.3,0-4.9l0,0c1-1.6,3-2.5,5.1-2.5h2c0.9,0,1.6-0.7,1.6-1.7
			c0-0.9-0.7-1.7-1.6-1.7h-2c-3.2,0-6.2,1.5-7.8,4c-1.8,2.7-1.8,6,0,8.6c1.6,2.5,4.7,4,8,4h1.9c0.9,0,1.6-0.7,1.6-1.6
			C72,21.9,71.3,21.1,70.4,21.1z M51.3,0c-3,0-5.5,2.5-5.5,5.5v1.9c0,3,2.5,5.5,5.5,5.5c3,0,5.5-2.5,5.5-5.5V5.5
			C56.8,2.5,54.3,0,51.3,0z M53.5,7.4c0,1.2-1,2.2-2.2,2.2c-1.2,0-2.2-1-2.2-2.2V5.5c0-1.2,1-2.2,2.2-2.2c1.2,0,2.2,1,2.2,2.2V7.4z
			 M11.1,49.9H1.6c-0.9,0-1.6,0.7-1.6,1.7c0,0.9,0.7,1.7,1.6,1.7h9.5c0.9,0,1.6-0.7,1.6-1.7C12.8,50.6,12,49.9,11.1,49.9z
			 M11.1,26.9H5.4c-0.9,0-1.6,0.7-1.6,1.7c0,0.9,0.7,1.7,1.6,1.7h5.7c0.9,0,1.6-0.7,1.6-1.7C12.8,27.6,12,26.9,11.1,26.9z
			 M11.1,19.3H1.6C0.7,19.3,0,20,0,20.9c0,0.9,0.7,1.7,1.6,1.7h9.5c0.9,0,1.6-0.7,1.6-1.7C12.8,20,12,19.3,11.1,19.3z M11.1,11.5
			H5.4c-0.9,0-1.6,0.7-1.6,1.7c0,0.9,0.7,1.7,1.6,1.7h5.7c0.9,0,1.6-0.7,1.6-1.7C12.8,12.3,12,11.5,11.1,11.5z M11.1,3.9H1.6
			C0.7,3.9,0,4.6,0,5.5c0,0.9,0.7,1.7,1.6,1.7h9.5c0.9,0,1.6-0.7,1.6-1.7C12.8,4.6,12,3.9,11.1,3.9z M11.1,42.2H5.4
			c-0.9,0-1.6,0.7-1.6,1.7c0,0.9,0.7,1.7,1.6,1.7h5.7c0.9,0,1.6-0.7,1.6-1.7C12.8,43,12,42.2,11.1,42.2z M11.1,34.5H1.6
			c-0.9,0-1.6,0.7-1.6,1.7c0,0.9,0.7,1.7,1.6,1.7h9.5c0.9,0,1.6-0.7,1.6-1.7C12.8,35.2,12,34.5,11.1,34.5z"/>
	</g>
</g>
</svg>
