<?xml version="1.0" encoding="utf-8"?>
<!-- Generator: Adobe Illustrator 21.0.0, SVG Export Plug-In . SVG Version: 6.00 Build 0)  -->
<svg version="1.1" id="Слой_1" xmlns="http://www.w3.org/2000/svg" xmlns:xlink="http://www.w3.org/1999/xlink" x="0px" y="0px"
	 viewBox="0 0 69 74" style="enable-background:new 0 0 69 74;" xml:space="preserve">
<style type="text/css">
	.st0{fill:#3D475B;}
</style>
<g>
	<g>
		<path class="st0" d="M69,36.4c0-0.2,0-0.3,0-0.5c0,0,0-0.1,0-0.1c-0.2-10.1-3.3-19.2-8.1-25.7C56.5,4.3,50.9,0.5,44.6,0
			c-0.1,0-0.1,0-0.2,0c-0.1,0-0.2,0-0.3,0c-0.3,0-0.6,0-1,0H25.9C19.5,0,13.6,3.3,9.1,8.9C9,9,8.8,9.1,8.8,9.3C3.4,16.1,0,26,0,37
			c0,20.3,11.6,37,25.9,37h17.3c0.4,0,0.7,0,1,0c0.1,0,0.2,0,0.3,0c11.8-1,21.7-13.1,24-29.7c0-0.1,0-0.3,0-0.4
			c0.3-2.2,0.5-4.5,0.5-6.9v-0.2C69,36.6,69,36.5,69,36.4z M25.9,2.5h11.3v0c-2.4,1.5-4.5,3.5-6.4,6l-4.3-2.2
			c-0.4-0.1-0.9-0.1-1.2,0.1l-3,2l-3-2c-0.4-0.2-0.7-0.2-1.1-0.2l-4.3,1.2C17.4,4.3,21.5,2.5,25.9,2.5z M10.5,11l7.8-2.3l3.2,2.1
			c0.4,0.2,1,0.2,1.4,0l3.1-2.1l3.4,1.7c-1.3,2-2.5,4.3-3.5,6.8l-4.5-2.3c-0.4-0.1-0.9-0.1-1.2,0.1l-3,2l-3-2c-0.4-0.2-1-0.2-1.4,0
			l-3,2l-2.2-1.6C8.5,13.8,9.4,12.4,10.5,11z M6.5,17.7l2.7,1.8c0.4,0.2,1,0.2,1.4,0l3-2l3.1,2.1c0.4,0.2,1,0.2,1.4,0l3.1-2.1
			l3.9,1.9c-0.6,1.9-1.2,3.9-1.6,5.9l-1.6-1.6c-0.5-0.5-1.2-0.5-1.7,0l-2.8,2.8l-2.8-2.8c-0.5-0.5-1.2-0.5-1.7,0l-2.8,2.8L7,23.8
			c-0.2-0.2-0.5-0.4-0.9-0.4c-0.4,0-0.6,0.1-0.9,0.4l-1.4,1.5C4.5,22.6,5.4,20,6.5,17.7z M3,29.5c0.2-0.1,0.3-0.2,0.4-0.3l2.7-2.8
			L9,29.2c0.5,0.5,1.2,0.5,1.7,0l2.8-2.8l2.8,2.8c0.5,0.5,1.2,0.5,1.7,0l2.8-2.8l1.6,1.6c0.1,0.1,0.2,0.2,0.3,0.2
			c-0.4,2.6-0.6,5.2-0.7,7.9l-4.3-2.6c-0.5-0.2-1.1-0.1-1.5,0.2l-2.8,2.8l-2.8-2.8c-0.5-0.5-1.2-0.5-1.7,0l-3.1,3.1l-3.4-2
			C2.6,33.1,2.8,31.3,3,29.5z M2.5,37.6l3.1,1.7C6,39.6,6.7,39.5,7,39.1l2.8-2.8l3,2.8c0.5,0.5,1.2,0.5,1.7,0l3-3l4.7,2.9
			c0.1,1.8,0.2,3.5,0.4,5.2l-0.9-0.8c-0.5-0.4-1.2-0.2-1.6,0.1l-2.8,2.8l-2.8-2.8c-0.5-0.5-1.2-0.5-1.7,0l-2.8,2.8L7,43.5
			c-0.2-0.2-0.6-0.4-1-0.4c-0.4,0-0.7,0.2-1,0.5l-1.7,2.6C2.8,43.5,2.5,40.6,2.5,37.6z M4,49.3c0.3-0.1,0.5-0.3,0.8-0.4l1.6-2.5
			L9,49c0.5,0.5,1.2,0.5,1.7,0l2.8-2.8l3,3c0.5,0.5,1.2,0.5,1.7,0l3-3l2,1.8c0.4,2.2,1,4.3,1.7,6.3l-2.2-1.1
			c-0.6-0.4-1.2-0.1-1.6,0.4L19.5,56l-2.6-2.6c-0.5-0.5-1.2-0.5-1.7,0l-2.8,2.8l-2.8-2.8c-0.5-0.5-1.2-0.5-1.7,0L6,55.2
			C5.2,53.3,4.5,51.4,4,49.3z M7.1,57.5L8.6,56l2.8,2.8c0.5,0.5,1.2,0.5,1.7,0L16,56l2.8,2.8c0.2,0.2,0.5,0.4,0.9,0.4
			c0.5,0,0.9-0.2,1-0.6l1.8-2.8l3.6,1.8c0.9,2.2,2,4.2,3.2,6L27,65.1l-3-2c-0.4-0.2-1-0.2-1.4,0l-3,2l-3-2c-0.4-0.2-1-0.2-1.4,0
			l-3,2C10.3,63.1,8.5,60.5,7.1,57.5z M25.9,71.5c-4.3,0-8.3-1.7-11.7-4.7l1.9-1.3l3.1,2c0.4,0.2,1,0.2,1.4,0l3-2l2.8,2.1
			c0.4,0.2,1,0.2,1.4,0l3.1-2.1c1.9,2.5,4.1,4.5,6.4,5.9H25.9z M44.2,71.5c-6.7-0.8-12.4-6.6-15.9-15.1c0-0.1-0.1-0.3-0.2-0.4
			c-2.2-5.5-3.4-12-3.4-19c0-18.2,8.6-33.1,19.5-34.5c12.4,0.8,22.4,16,22.4,34.5C66.5,55.5,56.6,70.7,44.2,71.5z M45.6,9.9
			c-6.4,0-11.7,7.1-13.8,17.4c0,0.1,0,0.1,0,0.2c-0.1,0.3-0.1,0.6-0.2,0.8c0,0.1,0,0.2-0.1,0.3c0,0.2-0.1,0.4-0.1,0.6
			c0,0.1,0,0.3-0.1,0.4c0,0.2-0.1,0.5-0.1,0.7c0,0.1,0,0.3-0.1,0.4c0,0.2-0.1,0.4-0.1,0.6c0,0.2,0,0.3-0.1,0.5c0,0.2,0,0.4-0.1,0.6
			c0,0.1,0,0.2,0,0.4c0,0.3,0,0.6-0.1,0.8c0,0.1,0,0.2,0,0.3c0,0.2,0,0.5,0,0.7c0,0.1,0,0.1,0,0.2c0,0.3,0,0.6,0,0.9
			c0,0.1,0,0.2,0,0.2c0,0.3,0,0.7,0,1c0,0.3,0,0.7,0,1c0,0.1,0,0.2,0,0.2c0,0.3,0,0.6,0,0.9c0,0.1,0,0.1,0,0.2c0,0.2,0,0.5,0,0.7
			c0,0.1,0,0.2,0,0.3c0,0.3,0,0.6,0.1,0.8c0,0.1,0,0.2,0,0.4c0,0.2,0,0.4,0.1,0.6c0,0.2,0,0.3,0.1,0.5c0,0.2,0,0.4,0.1,0.6
			c0,0.1,0,0.3,0.1,0.4c0,0.2,0.1,0.5,0.1,0.7c0,0.1,0,0.3,0.1,0.4c0,0.2,0.1,0.4,0.1,0.6c0,0.1,0,0.2,0.1,0.3
			c0.1,0.3,0.1,0.6,0.2,0.8c0,0.1,0,0.1,0,0.2c2.1,10.2,7.4,17.4,13.8,17.4c8.3,0,14.8-12,14.8-27.1C60.4,21.8,53.8,9.9,45.6,9.9z
			 M33.4,40.9c0-0.1,0-0.2,0-0.2c0-0.1,0-0.2,0-0.3c0-0.2,0-0.3,0-0.5c0-0.1,0-0.2,0-0.3c0-0.3,0-0.5,0-0.8c0,0,0-0.1,0-0.1
			c0-0.2,0-0.4,0-0.7c0-0.1,0-0.1,0-0.2c0-0.3,0-0.5,0-0.8c0-0.2,0-0.5,0-0.7c0.1-4.6,0.8-8.9,2-12.6c1.8,3.1,2.9,8,2.9,13.3
			c0,5.4-1.1,10.2-2.9,13.3C34.4,47.5,33.7,44.3,33.4,40.9z M45.6,61.7c-3.6,0-7-3.4-9.2-8.6c2.6-3.2,4.3-9.3,4.3-16.1
			c0-6.8-1.7-12.9-4.3-16.1c2.3-5.2,5.6-8.6,9.2-8.6c6.7,0,12.3,11.3,12.3,24.7C57.9,50.3,52.2,61.7,45.6,61.7z"/>
	</g>
</g>
</svg>
