<?xml version="1.0" encoding="utf-8"?>
<!-- Generator: Adobe Illustrator 21.0.0, SVG Export Plug-In . SVG Version: 6.00 Build 0)  -->
<svg version="1.1" id="Слой_1" xmlns="http://www.w3.org/2000/svg" xmlns:xlink="http://www.w3.org/1999/xlink" x="0px" y="0px"
	 viewBox="0 0 74 74" style="enable-background:new 0 0 74 74;" xml:space="preserve">
<style type="text/css">
	.st0{fill:#3D475B;}
</style>
<g>
	<g>
		<path class="st0" d="M70.8,58.4c0.6-1.1,0.9-2.3,0.9-3.7v-2.5c0.2-0.6,0.2-1.2,0.2-1.9c0-2.6-0.9-5.6-3.5-6.5
			c-14.6-5-31.3-14.3-31.3-42.3V0.5h-2.9c-3.5,0-5.5,1.6-7.5,4.1H12.8c-1.1,0-2.2,0.5-2.9,1.3c-0.8,0.8-1.1,1.9-1.1,3
			c0.3,4.6,0.7,13-0.7,17.5l0,0.1l0,0.1c-0.1,0.5-1.3,2.5-2.3,4l0,0c-2.1,3.5-3,6.4-3,9.8c0,1.6,0.5,3.1,1.5,4.3v12.5L18.3,59v-3.2
			l15.5,4.8c3.4,1.2,7,1.8,10.6,1.8H64c2.1,0,4-0.8,5.4-2.2c1.4,0.4,2.4,1.7,2.4,3.1v4.1c0,1.9-1.6,4.4-3.3,4.4H2.7v-3.3h4.2
			c2.2,0,4-1.8,4-4v-4.9H8.7v4.9c0,1-0.8,1.8-1.8,1.8H0.5V74h68c1.5,0,2.9-0.8,4-2.3c0.9-1.3,1.5-2.9,1.5-4.3v-4.1
			C74,61.2,72.7,59.2,70.8,58.4z M64,60.2H44.4c-3.4,0-6.7-0.6-9.9-1.7l-16-4.9c-0.6-0.2-1.2-0.1-1.6,0.3c-0.5,0.3-0.7,0.9-0.7,1.5
			v1.2l-9.8-1.3v-8.7C6.7,46.7,7,46.9,7.4,47l26.3,9.2c3.4,1.2,7,1.8,10.6,1.8h19.9c2,0,3.8-0.7,5.1-1.9
			C68.7,58.5,66.6,60.2,64,60.2z M64.2,55.8H44.4c-3.4,0-6.7-0.6-9.9-1.7L8.1,45c-1.9-0.7-3.3-2.5-3.3-4.6c0-3,0.8-5.5,2.7-8.7
			c0.7-1.1,2.4-3.6,2.6-4.7c1.5-4.9,1.1-13.5,0.8-18.3c0-0.5,0.1-1,0.5-1.4c0.3-0.4,0.8-0.6,1.3-0.6h15l0.3-0.4
			c1.9-2.4,3.3-3.7,6.1-3.7H35c0.1,6.6,1.1,12.6,3.1,17.7c1.8,4.8,4.5,9.1,8,12.8c6.7,7,15.1,10.5,21.7,12.7c1.5,0.5,2,2.7,2,4.4
			C69.8,53.4,67.3,55.8,64.2,55.8z M13,60.4v4.1c0,2.2,1.8,4,4,4h26.7c2.2,0,4-1.8,4-4h-2.2c0,1-0.8,1.8-1.8,1.8H17.1
			c-1,0-1.8-0.8-1.8-1.8v-4.1H13z M62.7,68.5c2.2,0,4-1.8,4-4h-2.2c0,1-0.8,1.8-1.8,1.8h-8.8c-1,0-1.8-0.8-1.8-1.8h-2.2
			c0,2.2,1.8,4,4,4H62.7z M15.6,43.7l1.8,1.2c0.9-1.4,1.4-2.9,1.6-4.5l-2.2-0.3C16.7,41.4,16.3,42.6,15.6,43.7z M12.6,28.6l-0.9,2
			c1.2,0.5,2.2,1.3,3.1,2.3l1.7-1.4C15.3,30.2,14,29.2,12.6,28.6z M15.9,34.5c0.6,1.1,1,2.4,1.1,3.7l2.2-0.2
			c-0.1-1.6-0.6-3.2-1.4-4.6L15.9,34.5z M48,40.7c0.6,0.4,1.2,0.8,1.9,1.2l1.2-1.8c-0.6-0.4-1.2-0.8-1.8-1.2L48,40.7z M44.5,37.9
			c0.6,0.5,1.1,1,1.7,1.4l1.3-1.7c-0.6-0.4-1.1-0.9-1.6-1.3L44.5,37.9z M41.2,34.8c0.5,0.5,1,1.1,1.6,1.6l1.5-1.6
			c-0.5-0.5-1-1-1.5-1.5L41.2,34.8z M51.8,43.1c0.6,0.4,1.3,0.7,2,1.1l1-1.9c-0.6-0.3-1.3-0.7-1.9-1L51.8,43.1z M55.8,45.1
			c0.7,0.3,1.4,0.6,2.1,0.9l0.8-2c-0.7-0.3-1.3-0.5-2-0.8L55.8,45.1z M40.1,30.1l-1.8,1.3c0.4,0.6,0.9,1.2,1.4,1.8l1.7-1.4
			C41,31.2,40.5,30.7,40.1,30.1z M32.6,10.5l-2.2,0.2c0.1,0.7,0.2,1.5,0.3,2.2l2.2-0.3C32.8,12,32.7,11.2,32.6,10.5z M32.3,6.3
			l-2.2,0c0,0.7,0,1.5,0.1,2.2l2.2-0.1C32.4,7.7,32.3,7,32.3,6.3z M33.2,14.7l-2.1,0.4c0.2,0.7,0.3,1.5,0.5,2.2l2.1-0.5
			C33.6,16.1,33.4,15.4,33.2,14.7z M34.3,18.8l-2.1,0.7c0.2,0.7,0.5,1.4,0.7,2.1l2-0.8C34.8,20.2,34.5,19.5,34.3,18.8z M37.7,26.6
			l-1.9,1.1c0.4,0.6,0.8,1.3,1.2,1.9l1.8-1.2C38.5,27.8,38.1,27.2,37.7,26.6z M35.8,22.8l-2,0.9c0.3,0.7,0.6,1.4,1,2l1.9-1
			C36.4,24.1,36.1,23.4,35.8,22.8z"/>
	</g>
</g>
</svg>
