<?xml version="1.0" encoding="utf-8"?>
<!-- Generator: Adobe Illustrator 21.0.0, SVG Export Plug-In . SVG Version: 6.00 Build 0)  -->
<svg version="1.1" id="Слой_1" xmlns="http://www.w3.org/2000/svg" xmlns:xlink="http://www.w3.org/1999/xlink" x="0px" y="0px"
	 viewBox="0 0 80 84" style="enable-background:new 0 0 80 84;" xml:space="preserve">
<style type="text/css">
	.st0{fill:#3D475B;}
</style>
<g>
	<g>
		<path class="st0" d="M79.5,71.8l-7.5-30.2c-0.8-3.1-3.6-5.2-6.7-5.2l-16.7-1.3v-4.7c2.6-2.3,4.2-5.6,4.2-9.4v-7h0V7
			c0-3.9-3.1-7-7-7H34.5c-3.9,0-7,3.1-7,7v8.4c0,0,0,0,0,0c0,0,0,0,0,0V21c0,3.7,1.6,7.1,4.2,9.4v4.7l-16.6,1.3h0
			c-3.2,0-6,2.2-6.8,5.3L0.8,71.8c-0.6,2.5-0.2,5.2,1.1,7.4c1.3,2.2,3.5,3.8,6,4.5c0.3,0.1,0.6,0.1,0.8,0.2C8.9,83.9,9.1,84,9.4,84
			h12.6c3.4,0,6.2-2.4,6.9-5.6h22.7c0.6,3.2,3.5,5.6,6.9,5.6H70v0c0,0,0,0,0,0h0.9c0.2,0,0.4,0,0.6-0.1c4.7-0.7,8.3-4.8,8.3-9.7
			C79.7,73.4,79.6,72.6,79.5,71.8z M65.1,39.2L65.1,39.2c1.9,0,3.6,1.3,4.1,3.1l4.5,17.9h-7V43.4c0-0.8-0.6-1.4-1.4-1.4H43.5
			l4.2-4.2L65.1,39.2z M63.9,44.8v7H47.1v-7H63.9z M35.9,51.8v-7h8.4v7H35.9z M44.3,54.6v5.6h-8.4v-5.6H44.3z M40.1,41.4l-5.6-5.6
			v-3.6c1.7,0.8,3.6,1.3,5.6,1.3c2,0,3.9-0.5,5.6-1.3v3.5L40.1,41.4z M30.3,7c0-2.3,1.9-4.2,4.2-4.2h11.2c2.3,0,4.2,1.9,4.2,4.2v2.8
			c-1.2-0.9-2.6-1.4-4.2-1.4H34.5c-1.6,0-3,0.5-4.2,1.4V7z M49.7,14H30.6c0.6-1.6,2.1-2.8,4-2.8h11.2C47.6,11.2,49.1,12.4,49.7,14z
			 M30.3,21v-4.2h7v5.6c0,0.8,0.6,1.4,1.4,1.4h2.8V21h-1.4v-4.2h9.8V21c0,5.4-4.4,9.8-9.8,9.8C34.7,30.8,30.3,26.4,30.3,21z
			 M11,42.3c0.5-1.9,2.2-3.2,4.2-3.2l17.4-1.4l4.2,4.2H15c-0.8,0-1.4,0.6-1.4,1.4v16.8h-7L11,42.3z M33.1,44.8v7H16.3v-7H33.1z
			 M8,72.8v8c-1.5-0.5-2.8-1.6-3.7-3c-1-1.6-1.2-3.5-0.8-5.3L5.9,63h7.7v5.9c-0.4-0.2-0.9-0.3-1.4-0.3C9.8,68.6,8,70.5,8,72.8z
			 M21.9,81.2H10.8v-8.4c0-0.8,0.6-1.4,1.4-1.4c0.8,0,1.4,0.6,1.4,1.4V77c0,0.8,0.6,1.4,1.4,1.4h11C25.3,80,23.8,81.2,21.9,81.2z
			 M16.3,75.6v-21h16.8v7c0,0.8,0.6,1.4,1.4,1.4h11.2c0.8,0,1.4-0.6,1.4-1.4v-7h16.8v21H16.3z M69.5,81.2H58.3c-1.8,0-3.4-1.2-4-2.8
			h11c0,0,0,0,0,0c0.6,0,1-0.4,1.2-0.9c0.1-0.2,0.1-0.4,0.1-0.5v-4.2c0-0.8,0.6-1.4,1.4-1.4c0.8,0,1.4,0.6,1.4,1.4V81.2z M72.3,80.8
			v-8c0-2.3-1.9-4.2-4.2-4.2c-0.5,0-1,0.1-1.4,0.3V63h7.7l2.4,9.5c0.1,0.6,0.2,1.1,0.2,1.7C76.9,77.2,75,79.8,72.3,80.8z M58.3,72.8
			h2.8V70h-2.8V72.8z M52.7,72.8h2.8V70h-2.8V72.8z"/>
	</g>
</g>
</svg>
