<?xml version="1.0" encoding="utf-8"?>
<!-- Generator: Adobe Illustrator 21.0.0, SVG Export Plug-In . SVG Version: 6.00 Build 0)  -->
<svg version="1.1" id="Слой_1" xmlns="http://www.w3.org/2000/svg" xmlns:xlink="http://www.w3.org/1999/xlink" x="0px" y="0px"
	 viewBox="0 0 80 80" style="enable-background:new 0 0 80 80;" xml:space="preserve">
<style type="text/css">
	.st0{fill:#3D475B;}
</style>
<g>
	<g>
		<path class="st0" d="M57.3,32c0-0.7-0.6-1.3-1.3-1.3c-4.8,0-9.6-1.7-13.3-4.8l-1.9-1.5c-0.5-0.4-1.2-0.4-1.7,0l-1.9,1.5
			c-3.7,3.1-8.4,4.8-13.3,4.8c-0.7,0-1.3,0.6-1.3,1.3v9.3c0,11.1,6.6,21,16.8,25.2c0.2,0.1,0.3,0.1,0.5,0.1s0.3,0,0.5-0.1
			c10.2-4.3,16.8-14.2,16.8-25.2V32z M54.7,41.3c0,9.8-5.7,18.6-14.7,22.5c-8.9-4-14.7-12.7-14.7-22.5v-8c5-0.3,9.8-2.2,13.7-5.4
			l1-0.8l1,0.8c3.9,3.2,8.7,5.1,13.7,5.4V41.3z M28,24h-8v2.7h8V24z M25.3,61.3H20V64h5.3V61.3z M20,69.3h8v-2.7h-8V69.3z
			 M35.6,45.7l-1.9,1.9l5.3,5.3c0.2,0.3,0.6,0.4,0.9,0.4h0c0.4,0,0.7-0.2,1-0.4l10.7-12l-2-1.8l-9.7,10.9L35.6,45.7z M79.6,43.1
			l-4-4c-0.3-0.3-0.6-0.4-1-0.4c-0.4,0-0.7,0.2-0.9,0.4l-3,3.2v-29c0-2.9-2.4-5.3-5.3-5.3H46.5L46,5.1c-0.5-3-3-5.1-6-5.1
			c-3,0-5.5,2.2-6,5.1L33.5,8H14.7c-2.9,0-5.3,2.4-5.3,5.3v61.3c0,2.9,2.4,5.3,5.3,5.3h50.7c2.9,0,5.3-2.4,5.3-5.3V54.4l9-9.5
			C80.1,44.4,80.1,43.6,79.6,43.1z M65.3,10.7c1.5,0,2.7,1.2,2.7,2.7v31.8l-2.7,2.8V14.7c0-0.7-0.6-1.3-1.3-1.3h-6.7v0.2
			c-0.9-0.9-1.9-1.6-3.1-2.1l-1.9-0.8H65.3z M52,69.3h4c0.4,0,0.7-0.2,1-0.4l5.7-6V72H17.3V16h3.6c-0.6,1.2-0.9,2.6-0.9,4
			c0,0.7,0.6,1.3,1.3,1.3h37.3c0.7,0,1.3-0.6,1.3-1.3c0-1.4-0.3-2.8-0.9-4h3.6v34.7h0.1L51,63.1c-0.2,0.2-0.4,0.6-0.4,0.9v4
			C50.7,68.7,51.3,69.3,52,69.3z M35.2,10.6c0.4-0.2,0.7-0.6,0.8-1l0.7-4c0.3-1.7,1.7-2.9,3.3-2.9c1.7,0,3.1,1.2,3.3,2.9l0.7,4
			c0.1,0.5,0.4,0.8,0.8,1l8.4,3.3c2.1,0.8,3.5,2.6,4,4.7H22.8c0.2-1,0.6-1.9,1.2-2.7h0.2v-0.3c0.7-0.8,1.5-1.4,2.5-1.8L35.2,10.6z
			 M68,74.7c0,1.5-1.2,2.7-2.7,2.7H14.7c-1.5,0-2.7-1.2-2.7-2.7V13.3c0-1.5,1.2-2.7,2.7-2.7h13.1l-1.9,0.8c-1.1,0.4-2.1,1.1-2.9,1.9
			H16c-0.7,0-1.3,0.6-1.3,1.3v58.7c0,0.7,0.6,1.3,1.3,1.3h48c0.7,0,1.3-0.6,1.3-1.3V60.1l2.7-2.8V74.7z M68,53.3L68,53.3L68,53.3
			L55.4,66.7h-2.1v-2.1L70.8,46l2.1,2.1L68,53.3z M74.8,46.2l-2.1-2.1l2.1-2.2l2.1,2.1L74.8,46.2z M10.7,4h-4V0H4v4H0v2.7h4v4h2.7
			v-4h4V4z"/>
	</g>
</g>
</svg>
