<?xml version="1.0" encoding="utf-8"?>
<!-- Generator: Adobe Illustrator 21.0.0, SVG Export Plug-In . SVG Version: 6.00 Build 0)  -->
<svg version="1.1" id="Слой_1" xmlns="http://www.w3.org/2000/svg" xmlns:xlink="http://www.w3.org/1999/xlink" x="0px" y="0px"
	 viewBox="0 0 93 54" style="enable-background:new 0 0 93 54;" xml:space="preserve">
<style type="text/css">
	.st0{fill:#3D475B;}
</style>
<g>
	<g>
		<path class="st0" d="M90.1,25.7c-0.4-0.6-1.2-0.8-1.9-0.4c-0.6,0.4-0.8,1.3-0.4,1.9c6.5,10.3-0.8,24.1-13.2,24.1
			c-8.6,0-15.7-7.1-15.7-15.7c0-5.8,3.1-10.8,7.7-13.5l1.2,2.5c-6.2,3.8-8,11.8-4.3,17.9c0.4,0.6,1.2,0.8,1.9,0.4
			c0.6-0.4,0.8-1.2,0.4-1.9C63,36.2,64.3,30,69,27l4.4,9.2c0.1,0.3,0.3,0.5,0.6,0.6l1.3,0.7c0.2,0.1,0.4,0.2,0.6,0.2
			c0.5,0,1-0.3,1.2-0.7c0.4-0.7,0.1-1.5-0.6-1.9l-0.9-0.5l-4.2-8.8c6.6-2.1,13.3,2.8,13.3,9.8c0,7.6-8,12.6-14.8,9.2
			c-0.7-0.3-1.5-0.1-1.8,0.6c-0.3,0.7-0.1,1.5,0.6,1.8c8.6,4.3,18.7-2,18.7-11.6c0-9-8.9-15.2-17.2-12.3l-1.2-2.5
			c4.7-1.8,10.3-1.2,14.7,2c0.6,0.4,1.5,0.3,1.9-0.3c0.4-0.6,0.3-1.5-0.3-1.9c-5.2-3.8-11.9-4.5-17.5-2.3l-1.1-2.2l-3-8.6l3.3-3.2
			c1.5,0.8,1.9,1,1.9,1c0,0,0,0,0,0c0,0,0,0,0,0c0.7,0.4,1.5,0.1,1.8-0.6c0.4-0.7,0.1-1.5-0.6-1.9c-5.2-2.8,0,0-5.1-2.7
			c-0.7-0.4-1.5-0.1-1.8,0.6c-0.4,0.7-0.1,1.5,0.6,1.8l0.7,0.3l-3.3,3.2C61,6.5,60.9,7.1,61,7.6l0.8,2.3L38,22.8
			c-3.4-12.5-3.2-11.7-3.3-11.9c0.4-0.5,0.8-0.9,1-1c1.2,0.1,1.6-0.1,2,0.2c0.5,0.5,1.4,0.6,1.9,0c0.5-0.5,0.6-1.4,0-1.9
			c-1.4-1.5-3.2-1-4.1-1.1H28c-2.6,0-3.9,3.5-1,5.8c0.2,0.1,1.2,1.1,3,1.1c0.9,0,1.8-0.3,2.6-0.8l1.2,4.5l-3.6,3.7
			C18.4,11.4,0,19.8,0,35.5c0,4,1.3,7.8,3.6,11c0.4,0.6,1.3,0.7,1.9,0.3c0.6-0.5,0.7-1.3,0.3-1.9c-2-2.7-3.1-6-3.1-9.4
			c0-13.3,15.4-20.5,25.6-12.2l-1.9,1.9c-8.4-6.6-20.9-0.6-20.9,10.2c0,7.2,5.8,13,12.9,13c6.1,0,11.3-4.3,12.6-10l2.7,0.3
			c-2.3,10.6-14.4,15.8-23.6,10.1c-0.6-0.4-1.5-0.2-1.9,0.4C7.8,50,8,50.8,8.7,51.2c10.2,6.4,23.7,1.3,27.3-10.1
			c1.4,2,3.8,3,6.1,2.5l1.7,3.7l-1,0.5c-1.3,0.6-0.8,2.6,0.6,2.6c0.6,0,0.5-0.1,5.2-2.5c0.7-0.3,0.9-1.2,0.6-1.8
			c-0.3-0.7-1.2-0.9-1.8-0.6l-1.2,0.6l-1.7-3.7c2.2-1.8,2.9-4.8,1.6-7.3l18.2-18c0.1,0.1,0-0.1,1.1,2.4c-5.5,3.2-9.3,9.2-9.3,16
			c0,10.2,8.2,18.5,18.4,18.5C89.2,54,97.8,37.8,90.1,25.7z M31.8,10.2c-1.5,2.2-3.7,0.5-3.7-0.4l4,0C32,10,31.9,10.1,31.8,10.2z
			 M18.4,45.8c-5.6,0-10.2-4.6-10.2-10.3c0-8.4,9.6-13.2,16.3-8.3l-6.2,6.3c-1.2,1.3-0.5,3.4,1.3,3.6l8.8,1
			C27.1,42.6,23.1,45.8,18.4,45.8z M21,34.6l5.3-5.4c1.4,1.7,2.2,3.9,2.2,6.3L21,34.6z M31.3,35.8c0.1-3.2-1-6.2-3-8.6l1.9-1.9
			c2.5,2.9,3.9,6.7,3.8,10.8L31.3,35.8z M32.2,23.3l2.5-2.5l3.2,11.8c-0.4,0.3-0.8,0.6-1.2,0.9C36.3,29.7,34.6,26.1,32.2,23.3z
			 M43.3,39.8l-1.2-2.6c-0.3-0.7-1.1-1-1.8-0.7c-0.7,0.3-1,1.1-0.7,1.8l1.2,2.6c-1.8,0-3.2-1.4-3.2-3.2c0-1.8,1.4-3.2,3.2-3.2
			C43.5,34.6,45,37.7,43.3,39.8z M44.4,33c-1.1-0.8-2.5-1.3-3.9-1.2l-1.7-6.4l24-13l0.6,1.8L44.4,33z"/>
	</g>
</g>
</svg>
