<?xml version="1.0" encoding="utf-8"?>
<!-- Generator: Adobe Illustrator 21.0.0, SVG Export Plug-In . SVG Version: 6.00 Build 0)  -->
<svg version="1.1" id="Слой_1" xmlns="http://www.w3.org/2000/svg" xmlns:xlink="http://www.w3.org/1999/xlink" x="0px" y="0px"
	 viewBox="0 0 66 78" style="enable-background:new 0 0 66 78;" xml:space="preserve">
<style type="text/css">
	.st0{fill:#3D475B;}
</style>
<path class="st0" d="M65,32.5c1.1-6.3,0.8-14.6-2-17.9C60.3,11.5,52.9,8.7,50.9,8l-3-5.9c-0.7-1.3-2-2.1-3.4-2.1H21.5
	c-1.5,0-2.8,0.8-3.4,2.1l-3,5.9c-2,0.7-9.5,3.5-12.1,6.5c-2.8,3.3-3.1,11.6-2,17.9c-0.3,1.5-1.8,8.4-0.5,14.5
	c-0.1,1.2-0.5,7.5-0.3,9.8C0.4,58.7,1,60.3,2,61.6l-0.2,4.8c-0.1,1.5,0.8,2.9,2.1,3.6c0,0,0,0,0,0l9.5,4.3v1.2
	c0,1.4,1.1,2.5,2.5,2.5h34c1.4,0,2.5-1.1,2.5-2.5v-1.2L62,70c0,0,0,0,0,0c1.4-0.7,2.2-2.1,2.1-3.6L64,61.7c1-1.3,1.7-3,1.8-5
	c0.2-2.3-0.2-8.6-0.3-9.8C66.8,40.8,65.3,33.9,65,32.5z M62.6,31.9l-6.7,2.8c-0.2-0.8-0.4-1.6-0.7-2.5v-5c0-0.2,0.1-5.6,6.6-10.2
	C63.2,20,63.6,26.3,62.6,31.9z M60.1,15.2c-7.3,5.4-7.4,11.8-7.4,12v4H34.2V19.2c6.8-1.5,14-7.1,16-8.7
	C52.7,11.3,57.6,13.2,60.1,15.2z M53.1,46.7c0.5,1.7,1.6,6.1,0.4,10.6H34.2V46.7H53.1z M34.2,44.3V33.7h18.9c1.5,4.5,0.5,8.9,0,10.6
	H34.2z M45.7,3.3C45.7,3.3,45.7,3.3,45.7,3.3l2.7,5.4c-2.1,1.7-8.4,6.4-14.2,7.9v-3C36,12.5,41.3,8.8,45.7,3.3z M15.7,10.4
	c2,1.6,9.2,7.2,16,8.7v12.1H13.3v-4c0-0.3-0.1-6.7-7.4-12C8.4,13.2,13.3,11.3,15.7,10.4z M4.3,17.1c6.4,4.6,6.6,10,6.6,10.2v5
	c-0.3,0.8-0.6,1.6-0.7,2.5l-6.7-2.8C2.4,26.3,2.8,20,4.3,17.1z M3.1,34.5l6.6,2.7c-0.3,3.9,0.6,7.1,1,8.3c-0.2,0.6-0.6,1.8-0.9,3.4
	l-7-2.9C2,41.8,2.7,36.9,3.1,34.5z M2.7,56.6c-0.1-1.6,0.1-5.5,0.2-7.9l6.7,2.8c-0.1,2.1,0,4.6,0.8,7.2c-0.1,0.8-0.5,2.8-0.6,4.7
	L6,61.7C3.3,60.7,2.8,58,2.7,56.6z M5,67.8c-0.5-0.2-0.8-0.8-0.7-1.3c0,0,0,0,0,0l0.1-2.8C4.6,63.8,4.8,63.9,5,64l4.8,2
	c0.2,1.7,1,3.2,2.2,4.5c0.4,0.4,0.8,0.7,1.2,1L5,67.8z M31.8,75.6H16c0,0-0.1,0-0.1-0.1v-2.8c0.5,0.1,1,0.2,1.6,0.2h14.3L31.8,75.6
	L31.8,75.6z M31.8,70.3H17.5c-3,0-5.3-2.4-5.3-5.5c0-1.6,0.3-3.8,0.5-5.1h19.1V70.3z M31.8,57.3H12.6c-1.2-4.5-0.2-8.9,0.4-10.6
	h18.8V57.3z M31.8,44.3H12.9c-0.5-1.7-1.5-6.1,0-10.6h18.9V44.3z M31.8,16.6c-5.8-1.5-12.1-6.3-14.2-7.9l2.7-5.4c0,0,0,0,0,0
	c4.5,5.5,9.7,9.2,11.5,10.3V16.6z M22.7,2.4h20.5c-4,4.7-8.6,8-10.3,9.1C31.3,10.4,26.7,7.2,22.7,2.4z M50.1,75.5
	C50.1,75.5,50.1,75.6,50.1,75.5l-15.9,0.1v-2.8h14.3c0.5,0,1.1-0.1,1.6-0.2V75.5L50.1,75.5z M48.5,70.3H34.2V59.8h19.1
	c0.2,1.3,0.5,3.5,0.5,5.1C53.8,67.9,51.5,70.3,48.5,70.3z M61,67.8l-8.2,3.7c0.4-0.3,0.8-0.6,1.2-1c1.2-1.2,1.9-2.8,2.2-4.5l4.8-2
	c0.2-0.1,0.4-0.2,0.6-0.3l0.1,2.8C61.8,67.1,61.5,67.6,61,67.8z M63.3,56.6c-0.1,1.5-0.7,4.1-3.3,5.2l-3.8,1.6
	c-0.1-1.9-0.5-3.9-0.6-4.7c0.8-2.5,1-5,0.8-7.2l6.7-2.8C63.2,51,63.4,54.9,63.3,56.6z M63.1,46.1l-7,2.9c-0.3-1.6-0.7-2.8-0.9-3.4
	c0.4-1.2,1.3-4.4,1-8.3l6.6-2.7C63.3,36.9,64,41.8,63.1,46.1z"/>
</svg>
