<?xml version="1.0" encoding="utf-8"?>
<!-- Generator: Adobe Illustrator 21.0.0, SVG Export Plug-In . SVG Version: 6.00 Build 0)  -->
<svg version="1.1" id="Слой_1" xmlns="http://www.w3.org/2000/svg" xmlns:xlink="http://www.w3.org/1999/xlink" x="0px" y="0px"
	 viewBox="0 0 83 73" style="enable-background:new 0 0 83 73;" xml:space="preserve">
<style type="text/css">
	.st0{fill:#3D475B;}
</style>
<g>
	<g>
		<path class="st0" d="M83,32.7c0-5.8-4.7-10.6-10.5-10.6c-0.6,0-1.3,0.1-1.9,0.2v-7.1c0-8.3-6.7-15-14.9-15h-28
			c-8.2,0-14.9,6.7-14.9,15v7.2c-0.7-0.1-1.4-0.2-2.1-0.2C4.7,22.2,0,26.9,0,32.7c0,4.4,3.2,8,7.4,8.6v22.4c0,2.9,2.3,5.2,5.2,5.2
			h8.3v2.8c0,0.7,0.6,1.3,1.3,1.3c0.7,0,1.3-0.6,1.3-1.3v-2.8h36.2v2.8c0,0.7,0.6,1.3,1.3,1.3c0.7,0,1.3-0.6,1.3-1.3v-2.8h8.5
			c2.9,0,5.2-2.3,5.2-5.2V41.3C79.9,40.6,83,37,83,32.7z M15.2,15.2c0-6.9,5.6-12.4,12.4-12.4h28c6.8,0,12.4,5.6,12.4,12.4V23
			c-4.9,1.8-8.5,6.5-8.5,12.1v8.5H23.4v-8.5c0-5.5-3.4-10.1-8.2-12V15.2z M23.4,46.1h36.2v8.2H23.4V46.1z M74.3,38.9
			c-2.6,0-4.7-2.1-4.7-4.7c0-1.9,1.6-3.5,3.5-3.5c0.7,0,1.3-0.6,1.3-1.3c0-0.7-0.6-1.3-1.3-1.3c-3.3,0-6,2.7-6,6
			c0,3.6,2.7,6.7,6.2,7.1v22.3c0,1.5-1.2,2.7-2.7,2.7h-58c-1.5,0-2.7-1.2-2.7-2.7V41.3c3.4-0.6,5.9-3.6,5.9-7.1c0-3.3-2.7-6-6-6
			c-0.7,0-1.3,0.6-1.3,1.3c0,0.7,0.6,1.3,1.3,1.3c1.9,0,3.5,1.6,3.5,3.5c0,2.6-2.1,4.7-4.7,4.7c-3.4,0-6.2-2.8-6.2-6.2
			c0-4.4,3.6-8,8-8c5.7,0,10.4,4.7,10.4,10.4v20.5c0,0.7,0.6,1.3,1.3,1.3h38.7c0.7,0,1.3-0.6,1.3-1.3V44.9c0,0,0,0,0,0s0,0,0,0v-9.8
			c0-5.7,4.6-10.4,10.4-10.4c4.4,0,8,3.6,8,8C80.5,36.1,77.7,38.9,74.3,38.9z"/>
	</g>
</g>
</svg>
