<?xml version="1.0" encoding="utf-8"?>
<!-- Generator: Adobe Illustrator 21.0.0, SVG Export Plug-In . SVG Version: 6.00 Build 0)  -->
<svg version="1.1" id="Слой_1" xmlns="http://www.w3.org/2000/svg" xmlns:xlink="http://www.w3.org/1999/xlink" x="0px" y="0px"
	 viewBox="0 0 60 85" style="enable-background:new 0 0 60 85;" xml:space="preserve">
<style type="text/css">
	.st0{fill:#3D475B;}
</style>
<g>
	<g>
		<path class="st0" d="M56.2,37.7L42.7,20.9V7.3c0-3.9-3.2-7-7-7H7.5c-3.9,0-7,3.1-7,7v50.5c0,3.9,3.2,7,7,7h12.7v3.7
			c0,8.8,7.2,16,16,16h22c0.8,0,1.4-0.6,1.4-1.4V47.4C59.6,43.9,58.4,40.4,56.2,37.7z M34.3,3.1h1.4c2.3,0,4.2,1.9,4.2,4.2v36.8
			l-5.6-6V3.1z M27.2,3.1h4.2v32.1L29,32.7c-0.5-0.6-1.1-1-1.8-1.3V3.1z M7.5,62.1c-2.3,0-4.2-1.9-4.2-4.2V7.3
			c0-2.3,1.9-4.2,4.2-4.2h16.9v27.5c-1.7,0-3.3,0.6-4.6,1.8c0,0-0.1,0.1-0.1,0.1c-2.4,2.4-2.6,6.2-0.4,8.8l5.1,6v14.8H7.5z
			 M56.8,81.7H36.2c-7.3,0-13.2-5.9-13.2-13.2v-3.7h9.1c1.6,5.7,5.8,10.4,11.5,12.5l1-2.6c-6.2-2.3-10.3-8.3-10.3-14.9v-4.9
			c0-0.3-0.1-0.7-0.3-0.9L21.5,39.5c-1.2-1.5-1.2-3.6,0.3-5.1c0.7-0.7,1.7-1,2.6-1c1,0,1.9,0.4,2.6,1.2l18.9,20l2.1-1.9l-5.2-5.6
			V25.4L54,39.5c1.8,2.2,2.8,5,2.8,7.9V81.7z M31.6,62.1h-4.4V50.6l4.2,5v4.3C31.5,60.7,31.5,61.4,31.6,62.1z M10.4,7.3H7.5v18.2
			h2.8V7.3z M17.4,7.3h-2.8v11.2h2.8V7.3z M17.4,46.6H8.9c-0.8,0-1.4,0.6-1.4,1.4v8.4c0,0.8,0.6,1.4,1.4,1.4h8.4
			c0.8,0,1.4-0.6,1.4-1.4V48C18.8,47.3,18.2,46.6,17.4,46.6z M16,55.1h-5.6v-5.6H16V55.1z"/>
	</g>
</g>
</svg>
