<?xml version="1.0" encoding="utf-8"?>
<!-- Generator: Adobe Illustrator 21.0.0, SVG Export Plug-In . SVG Version: 6.00 Build 0)  -->
<svg version="1.1" id="Слой_1" xmlns="http://www.w3.org/2000/svg" xmlns:xlink="http://www.w3.org/1999/xlink" x="0px" y="0px"
	 viewBox="0 0 63 83" style="enable-background:new 0 0 63 83;" xml:space="preserve">
<style type="text/css">
	.st0{fill:#3D475B;}
</style>
<g>
	<g>
		<path class="st0" d="M40.1,69.2c-2.7,0-4.9,2.2-4.9,4.8c0,2.7,2.2,4.8,4.9,4.8c2.7,0,4.9-2.2,4.9-4.8C45,71.4,42.8,69.2,40.1,69.2
			z M40.1,76.1c-1.2,0-2.1-0.9-2.1-2.1s0.9-2.1,2.1-2.1c1.2,0,2.1,0.9,2.1,2.1S41.2,76.1,40.1,76.1z M46.4,51.3
			c3.1,0,5.6-2.5,5.6-5.5c0-3-2.5-5.5-5.6-5.5s-5.6,2.5-5.6,5.5C40.8,48.8,43.3,51.3,46.4,51.3z M46.4,43c1.5,0,2.8,1.2,2.8,2.8
			c0,1.5-1.3,2.8-2.8,2.8c-1.5,0-2.8-1.2-2.8-2.8C43.6,44.3,44.8,43,46.4,43z M14.7,11.7l-2.8,2.8c-0.5,0.5-0.5,1.4,0,1.9
			c0.3,0.3,0.6,0.4,1,0.4c0.4,0,0.7-0.1,1-0.4l2.8-2.8c0.5-0.5,0.5-1.4,0-1.9C16.1,11.2,15.2,11.2,14.7,11.7z M63.1,52
			c0-2.4-0.8-4.7-2.1-6.7l0.8-0.8c0.9-0.9,1.3-2,1.3-3.2c0-1.2-0.5-2.4-1.3-3.2L61,37.3c1.3-1.2,2.1-2.8,2.1-4.6
			c0-3.4-2.8-6.2-6.3-6.2c-0.3,0-0.5,0-0.8,0.1c0-0.2,0.1-0.5,0.1-0.7c0-3.4-2.8-6.2-6.3-6.2c-0.3,0-0.5,0-0.8,0.1
			c0-0.2,0.1-0.5,0.1-0.7c0-3.4-2.8-6.2-6.3-6.2c-0.3,0-0.5,0-0.8,0.1c0-0.2,0.1-0.5,0.1-0.7c0-3.4-2.8-6.2-6.3-6.2
			c-1.8,0-3.5,0.8-4.7,2.1l-1.1-1.1l-5.3-5.2c-1.8-1.8-4.7-1.8-6.5,0l-17.2,17c-1.8,1.8-1.8,4.7,0,6.4l5.3,5.2l6.9,6.8
			c-1.9,1.1-3.2,3.1-3.2,5.4c0,2.2,1.1,4.1,2.8,5.2c0.1,0.1,0.2,0.2,0.3,0.3l15,14.8v2.5h-2.8V83h36.3V65.1h-2.8v-4.2
			C61.6,58.7,63.1,55.5,63.1,52z M56.8,29.2c1.9,0,3.5,1.5,3.5,3.4c0,1.1-0.5,2-1.3,2.7l-4.9-4.8C54.8,29.7,55.8,29.2,56.8,29.2z
			 M49.9,22.4c1.9,0,3.5,1.5,3.5,3.4c0,1.1-0.5,2-1.3,2.7l-4.9-4.8C47.8,22.8,48.8,22.4,49.9,22.4z M42.9,15.5
			c1.9,0,3.5,1.5,3.5,3.4c0,1.1-0.5,2-1.3,2.7l-4.9-4.8C40.8,16,41.8,15.5,42.9,15.5z M35.9,8.6c1.9,0,3.5,1.5,3.5,3.4
			c0,1.1-0.5,2-1.3,2.7l-4.9-4.8C33.8,9.1,34.8,8.6,35.9,8.6z M3.1,23.1c-0.7-0.7-0.7-1.8,0-2.5l17.2-17c0.2-0.2,0.4-0.3,0.6-0.4
			c0.1,0,0.2,0,0.3-0.1c0.2-0.1,0.5-0.1,0.7,0c0.1,0,0.2,0,0.3,0.1c0.2,0.1,0.4,0.2,0.6,0.4l3.3,3.2L6.4,26.3L3.1,23.1z M8.4,28.3
			L28.1,8.8l1.6,1.6l7,6.9l0.8,0.8l6.2,6.1l0.8,0.8l6.2,6.1l0.8,0.8l7,6.9l1.3,1.3c0.7,0.7,0.7,1.8,0,2.5l-0.6,0.6L42.6,59.5
			c-0.7,0.7-1.9,0.7-2.6,0l-11.1-11h1.4c3.5,0,6.3-2.8,6.3-6.2c0-3.4-2.8-6.2-6.3-6.2H16.4L8.4,28.3z M12.9,42.3
			c0-1.6,1.2-3,2.7-3.4l0.6-0.1c0.1,0,0.1,0,0.2,0h14c1.9,0,3.5,1.5,3.5,3.4c0,1.9-1.6,3.4-3.5,3.4h-14
			C14.4,45.8,12.9,44.2,12.9,42.3z M47.8,80.3H28.2V67.9H40c4.3,0,7.8,3.4,7.8,7.7V80.3z M58.9,80.3h-8.4v-4.7c0-3-1.3-5.8-3.4-7.7
			h11.8V80.3z M56.7,59.2l-0.6,0.4v5.5H31v-3.7l-0.5-0.4c-0.1-0.1-0.1-0.1-0.3-0.2L17.9,48.5H25l13.1,12.9c0.9,0.9,2.1,1.3,3.2,1.3
			c1.2,0,2.4-0.4,3.3-1.3L59,47.3c0.9,1.4,1.4,3,1.4,4.7C60.3,54.8,59,57.4,56.7,59.2z"/>
	</g>
</g>
</svg>
