<?xml version="1.0" encoding="utf-8"?>
<!-- Generator: Adobe Illustrator 21.0.0, SVG Export Plug-In . SVG Version: 6.00 Build 0)  -->
<svg version="1.1" id="Слой_1" xmlns="http://www.w3.org/2000/svg" xmlns:xlink="http://www.w3.org/1999/xlink" x="0px" y="0px"
	 viewBox="0 0 73 73" style="enable-background:new 0 0 73 73;" xml:space="preserve">
<style type="text/css">
	.st0{fill:#3D475B;}
</style>
<g>
	<g>
		<path class="st0" d="M42.3,36.5c0.8-1.7,1.2-3.5,1.3-5.4c3-3.2,4.7-7.4,4.7-11.8v-5.1c0-3-2.2-5.5-5.1-5.8C40.7,3.2,35.6,0,29.9,0
			h-2c-3.8,0-7.6,1.3-10.6,3.6c-4.2,3.3-6.7,8.3-6.7,13.7v1.9c0,4.4,1.7,8.6,4.7,11.8c0.2,4.5,2.4,8.5,5.9,11V45L12,47
			C4.9,48.6,0,54.7,0,62v11h73V36.5H42.3z M15.3,22.4v4.9c-1.5-2.4-2.4-5.1-2.4-8v-1.9c0-4.6,2.1-9,5.8-11.8c2.6-2,5.9-3.1,9.2-3.1
			h2c5,0,9.5,3,11.4,7.5l0.3,0.7h0.8c1.9,0,3.5,1.6,3.5,3.5v5.1c0,2.9-0.8,5.7-2.4,8v-9.6H41l-0.4,0.2c-7.5,3-15.5,4.5-23.6,4.5
			H15.3z M11.8,70.6H2.4V62c0-6.1,4.2-11.3,10.1-12.6l2.8-0.6v17.2h-3.5V70.6z M40,70.6H14.1v-2.4h3.5V48.2l3.5-0.8v20.9h16.5V47.4
			l2.4,0.5V70.6z M29.4,55.3c2.3,0,4.4-1,5.9-2.5v13.1H23.5V52.9C25,54.4,27.1,55.3,29.4,55.3z M23.5,47.1v-3.7
			c1.8,0.8,3.8,1.3,5.9,1.3c2.1,0,4.1-0.5,5.9-1.3v3.7c0,3.2-2.6,5.9-5.9,5.9S23.5,50.3,23.5,47.1z M40,45.5L37.7,45v-2.9
			c0.9-0.6,1.7-1.3,2.4-2.1V45.5z M41.2,30.6c0,6.5-5.3,11.8-11.8,11.8c-6.5,0-11.8-5.3-11.8-11.8v-5.9c8.1-0.1,16-1.6,23.5-4.6
			V30.6z M54.2,38.9h4.7v9.4h-4.7V38.9z M70.6,70.6H42.4V38.9h9.4v11.8h9.4V38.9h9.4V70.6z M65.9,68.3h2.4v-2.4h-2.4V68.3z
			 M56.5,68.3h7.1v-2.4h-7.1V68.3z M56.5,63.6h11.8v-2.4H56.5V63.6z"/>
	</g>
</g>
</svg>
