<?xml version="1.0" encoding="utf-8"?>
<!-- Generator: Adobe Illustrator 21.0.0, SVG Export Plug-In . SVG Version: 6.00 Build 0)  -->
<svg version="1.1" id="Слой_1" xmlns="http://www.w3.org/2000/svg" xmlns:xlink="http://www.w3.org/1999/xlink" x="0px" y="0px"
	 viewBox="0 0 17 22" style="enable-background:new 0 0 17 22;" xml:space="preserve">
<style type="text/css">
	.st0{fill:#9FB1BD;}
</style>
<g>
	<g>
		<path class="st0" d="M3.2,13.9c0,2.9,2.4,5.3,5.3,5.3c2.9,0,5.3-2.4,5.3-5.3c0-2.9-2.4-5.3-5.3-5.3C5.6,8.6,3.2,10.9,3.2,13.9z
			 M12.9,13.9c0,2.4-2,4.4-4.4,4.4c-2.4,0-4.4-2-4.4-4.4s2-4.4,4.4-4.4C10.9,9.5,12.9,11.5,12.9,13.9z M8,10.6v1.8
			c-0.8,0.3-1.3,1.1-1,1.9c0.3,0.8,1.1,1.3,1.9,1c0.8-0.3,1.3-1.1,1-1.9c-0.2-0.5-0.5-0.8-1-1v-1.8c0-0.3-0.2-0.5-0.5-0.5
			S8,10.4,8,10.6z M9.1,13.9c0,0.3-0.3,0.6-0.6,0.6c-0.3,0-0.6-0.3-0.6-0.6c0-0.3,0.3-0.6,0.6-0.6C8.8,13.3,9.1,13.5,9.1,13.9z
			 M16,2.9c0.6,0,1-0.5,1-1V1c0-0.6-0.5-1-1-1H1C0.5,0,0,0.5,0,1v0.9c0,0.6,0.5,1,1,1h7v1.6c-4.5,0.2-8,3.7-8,8v8.9
			C0,21.8,0.2,22,0.5,22h16.1c0.3,0,0.5-0.2,0.5-0.5v-8.9c0-4.3-3.6-7.8-8-8V2.9H16z M16.1,12.6v8.5H0.9v-8.5c0-3.9,3.4-7.1,7.6-7.1
			C12.7,5.5,16.1,8.7,16.1,12.6z M1,2C1,2,0.9,2,1,2L0.9,1c0,0,0-0.1,0.1-0.1H16c0,0,0.1,0,0.1,0.1v0.9C16.1,2,16,2,16,2H1z"/>
	</g>
</g>
</svg>
