<?xml version="1.0" encoding="utf-8"?>
<!-- Generator: Adobe Illustrator 21.0.0, SVG Export Plug-In . SVG Version: 6.00 Build 0)  -->
<svg version="1.1" id="Слой_1" xmlns="http://www.w3.org/2000/svg" xmlns:xlink="http://www.w3.org/1999/xlink" x="0px" y="0px"
	 viewBox="0 0 36 36" style="enable-background:new 0 0 36 36;" xml:space="preserve">
<style type="text/css">
	.st0{fill-rule:evenodd;clip-rule:evenodd;fill:#FFFFFF;}
</style>
<path class="st0" d="M35.2,34.2l-1.1,1.1c-1.1,1.1-2.8,1.1-3.8,0l-6.6-6.6c-2.4,1.5-5.2,2.4-8.2,2.4C6.9,30.9,0,24,0,15.5
	C0,6.9,6.9,0,15.5,0C24,0,31,6.9,31,15.5c0,3-0.9,5.9-2.4,8.2l6.6,6.6C36.3,31.4,36.3,33.1,35.2,34.2z M15.5,4.3
	c-6.2,0-11.2,5-11.2,11.2c0,6.2,5,11.2,11.2,11.2s11.2-5,11.2-11.2C26.7,9.3,21.7,4.3,15.5,4.3z M21.2,17.4h-3.8v3.8
	c0,1.1-0.9,1.9-1.9,1.9s-1.9-0.9-1.9-1.9v-3.8H9.7c-1.1,0-1.9-0.9-1.9-1.9c0-1.1,0.9-1.9,1.9-1.9h3.8V9.7c0-1.1,0.9-1.9,1.9-1.9
	s1.9,0.9,1.9,1.9v3.8h3.8c1.1,0,1.9,0.9,1.9,1.9C23.2,16.5,22.3,17.4,21.2,17.4z"/>
</svg>
